%TF.GenerationSoftware,KiCad,Pcbnew,10.0.4*%
%TF.CreationDate,2026-09-25T19:22:44+09:00*%
%TF.ProjectId,Oddom board,4f64646f-6d20-4626-9f61-72642e6b6963,rev?*%
%TF.SameCoordinates,Original*%
%TF.FileFunction,Legend,Top*%
%TF.FilePolarity,Positive*%
%FSLAX46Y46*%
G04 Gerber Fmt 4.6, Leading zero omitted, Abs format (unit mm)*
G04 Created by KiCad (PCBNEW 10.0.4) date 2026-09-25 19:22:44*
%MOMM*%
%LPD*%
G01*
G04 APERTURE LIST*
%ADD10C,0.100000*%
%ADD11C,0.120000*%
%ADD12C,0.200000*%
G04 APERTURE END LIST*
D10*
X68821429Y-108914895D02*
X68821429Y-108114895D01*
X68821429Y-108495847D02*
X69278572Y-108495847D01*
X69278572Y-108914895D02*
X69278572Y-108114895D01*
X82534524Y-89114895D02*
X82267857Y-88733942D01*
X82077381Y-89114895D02*
X82077381Y-88314895D01*
X82077381Y-88314895D02*
X82382143Y-88314895D01*
X82382143Y-88314895D02*
X82458333Y-88352990D01*
X82458333Y-88352990D02*
X82496428Y-88391085D01*
X82496428Y-88391085D02*
X82534524Y-88467276D01*
X82534524Y-88467276D02*
X82534524Y-88581561D01*
X82534524Y-88581561D02*
X82496428Y-88657752D01*
X82496428Y-88657752D02*
X82458333Y-88695847D01*
X82458333Y-88695847D02*
X82382143Y-88733942D01*
X82382143Y-88733942D02*
X82077381Y-88733942D01*
X82877381Y-88314895D02*
X82877381Y-88962514D01*
X82877381Y-88962514D02*
X82915476Y-89038704D01*
X82915476Y-89038704D02*
X82953571Y-89076800D01*
X82953571Y-89076800D02*
X83029762Y-89114895D01*
X83029762Y-89114895D02*
X83182143Y-89114895D01*
X83182143Y-89114895D02*
X83258333Y-89076800D01*
X83258333Y-89076800D02*
X83296428Y-89038704D01*
X83296428Y-89038704D02*
X83334524Y-88962514D01*
X83334524Y-88962514D02*
X83334524Y-88314895D01*
X83715476Y-89114895D02*
X83715476Y-88314895D01*
X83715476Y-88314895D02*
X84172619Y-89114895D01*
X84172619Y-89114895D02*
X84172619Y-88314895D01*
X90696429Y-88963704D02*
X90658333Y-89001800D01*
X90658333Y-89001800D02*
X90544048Y-89039895D01*
X90544048Y-89039895D02*
X90467857Y-89039895D01*
X90467857Y-89039895D02*
X90353571Y-89001800D01*
X90353571Y-89001800D02*
X90277381Y-88925609D01*
X90277381Y-88925609D02*
X90239286Y-88849419D01*
X90239286Y-88849419D02*
X90201190Y-88697038D01*
X90201190Y-88697038D02*
X90201190Y-88582752D01*
X90201190Y-88582752D02*
X90239286Y-88430371D01*
X90239286Y-88430371D02*
X90277381Y-88354180D01*
X90277381Y-88354180D02*
X90353571Y-88277990D01*
X90353571Y-88277990D02*
X90467857Y-88239895D01*
X90467857Y-88239895D02*
X90544048Y-88239895D01*
X90544048Y-88239895D02*
X90658333Y-88277990D01*
X90658333Y-88277990D02*
X90696429Y-88316085D01*
X91191667Y-88239895D02*
X91344048Y-88239895D01*
X91344048Y-88239895D02*
X91420238Y-88277990D01*
X91420238Y-88277990D02*
X91496429Y-88354180D01*
X91496429Y-88354180D02*
X91534524Y-88506561D01*
X91534524Y-88506561D02*
X91534524Y-88773228D01*
X91534524Y-88773228D02*
X91496429Y-88925609D01*
X91496429Y-88925609D02*
X91420238Y-89001800D01*
X91420238Y-89001800D02*
X91344048Y-89039895D01*
X91344048Y-89039895D02*
X91191667Y-89039895D01*
X91191667Y-89039895D02*
X91115476Y-89001800D01*
X91115476Y-89001800D02*
X91039286Y-88925609D01*
X91039286Y-88925609D02*
X91001190Y-88773228D01*
X91001190Y-88773228D02*
X91001190Y-88506561D01*
X91001190Y-88506561D02*
X91039286Y-88354180D01*
X91039286Y-88354180D02*
X91115476Y-88277990D01*
X91115476Y-88277990D02*
X91191667Y-88239895D01*
X91877381Y-89039895D02*
X91877381Y-88239895D01*
X91877381Y-88239895D02*
X92144047Y-88811323D01*
X92144047Y-88811323D02*
X92410714Y-88239895D01*
X92410714Y-88239895D02*
X92410714Y-89039895D01*
X104858333Y-111189895D02*
X104858333Y-110389895D01*
X104858333Y-110389895D02*
X105163095Y-110389895D01*
X105163095Y-110389895D02*
X105239285Y-110427990D01*
X105239285Y-110427990D02*
X105277380Y-110466085D01*
X105277380Y-110466085D02*
X105315476Y-110542276D01*
X105315476Y-110542276D02*
X105315476Y-110656561D01*
X105315476Y-110656561D02*
X105277380Y-110732752D01*
X105277380Y-110732752D02*
X105239285Y-110770847D01*
X105239285Y-110770847D02*
X105163095Y-110808942D01*
X105163095Y-110808942D02*
X104858333Y-110808942D01*
X105582142Y-110389895D02*
X105772618Y-111189895D01*
X105772618Y-111189895D02*
X105924999Y-110618466D01*
X105924999Y-110618466D02*
X106077380Y-111189895D01*
X106077380Y-111189895D02*
X106267857Y-110389895D01*
X107029762Y-111189895D02*
X106763095Y-110808942D01*
X106572619Y-111189895D02*
X106572619Y-110389895D01*
X106572619Y-110389895D02*
X106877381Y-110389895D01*
X106877381Y-110389895D02*
X106953571Y-110427990D01*
X106953571Y-110427990D02*
X106991666Y-110466085D01*
X106991666Y-110466085D02*
X107029762Y-110542276D01*
X107029762Y-110542276D02*
X107029762Y-110656561D01*
X107029762Y-110656561D02*
X106991666Y-110732752D01*
X106991666Y-110732752D02*
X106953571Y-110770847D01*
X106953571Y-110770847D02*
X106877381Y-110808942D01*
X106877381Y-110808942D02*
X106572619Y-110808942D01*
X88880371Y-85774999D02*
X89489895Y-85432142D01*
X89489895Y-85432142D02*
X89489895Y-86117857D01*
X89489895Y-86117857D02*
X88880371Y-85774999D01*
X89195847Y-88296428D02*
X89195847Y-88029762D01*
X89614895Y-87915476D02*
X89614895Y-88296428D01*
X89614895Y-88296428D02*
X88814895Y-88296428D01*
X88814895Y-88296428D02*
X88814895Y-87915476D01*
X89614895Y-87115475D02*
X89233942Y-87382142D01*
X89614895Y-87572618D02*
X88814895Y-87572618D01*
X88814895Y-87572618D02*
X88814895Y-87267856D01*
X88814895Y-87267856D02*
X88852990Y-87191666D01*
X88852990Y-87191666D02*
X88891085Y-87153571D01*
X88891085Y-87153571D02*
X88967276Y-87115475D01*
X88967276Y-87115475D02*
X89081561Y-87115475D01*
X89081561Y-87115475D02*
X89157752Y-87153571D01*
X89157752Y-87153571D02*
X89195847Y-87191666D01*
X89195847Y-87191666D02*
X89233942Y-87267856D01*
X89233942Y-87267856D02*
X89233942Y-87572618D01*
X89614895Y-86315475D02*
X89233942Y-86582142D01*
X89614895Y-86772618D02*
X88814895Y-86772618D01*
X88814895Y-86772618D02*
X88814895Y-86467856D01*
X88814895Y-86467856D02*
X88852990Y-86391666D01*
X88852990Y-86391666D02*
X88891085Y-86353571D01*
X88891085Y-86353571D02*
X88967276Y-86315475D01*
X88967276Y-86315475D02*
X89081561Y-86315475D01*
X89081561Y-86315475D02*
X89157752Y-86353571D01*
X89157752Y-86353571D02*
X89195847Y-86391666D01*
X89195847Y-86391666D02*
X89233942Y-86467856D01*
X89233942Y-86467856D02*
X89233942Y-86772618D01*
X69419628Y-109575000D02*
X68810104Y-109917857D01*
X68810104Y-109917857D02*
X68810104Y-109232142D01*
X68810104Y-109232142D02*
X69419628Y-109575000D01*
%TO.C,R22*%
D11*
X86962742Y-86907500D02*
X87437258Y-86907500D01*
X86962742Y-87952500D02*
X87437258Y-87952500D01*
%TO.C,R4*%
X81237770Y-104776697D02*
X81573303Y-105112230D01*
X81976697Y-104037770D02*
X82312230Y-104373303D01*
%TO.C,C19*%
X72990581Y-106865000D02*
X72709419Y-106865000D01*
X72990581Y-107885000D02*
X72709419Y-107885000D01*
%TO.C,SW3*%
X103725000Y-92947500D02*
X105765001Y-92947500D01*
X105765000Y-91997500D02*
X105765001Y-92947500D01*
X105765000Y-91997500D02*
X112085000Y-91997500D01*
X105765000Y-100677500D02*
X105765000Y-98937500D01*
X105765000Y-100677500D02*
X112085000Y-100677500D01*
X112085000Y-91997500D02*
X112085000Y-93737500D01*
X112085000Y-100677500D02*
X112085000Y-98937500D01*
%TO.C,J8*%
D12*
X68075000Y-110225000D02*
X69575000Y-110225000D01*
X68075000Y-111675000D02*
X68075000Y-110225000D01*
X69375000Y-114475000D02*
X73775000Y-114475000D01*
D10*
X72825000Y-108650000D02*
X72825000Y-108650000D01*
X72825000Y-108750000D02*
X72825000Y-108750000D01*
D12*
X73575000Y-110225000D02*
X75075000Y-110225000D01*
X75075000Y-110225000D02*
X75075000Y-111675000D01*
D10*
X72825000Y-108650000D02*
G75*
G02*
X72825000Y-108750000I0J-50000D01*
G01*
X72825000Y-108750000D02*
G75*
G02*
X72825000Y-108650000I0J50000D01*
G01*
%TO.C,J4*%
D11*
X93450000Y-85100000D02*
X93450000Y-86350000D01*
X93750000Y-87650000D02*
X94500000Y-87650000D01*
X94500000Y-87650000D02*
X94500000Y-88990000D01*
X94700000Y-85100000D02*
X93450000Y-85100000D01*
X100050000Y-90600000D02*
X95560000Y-90600000D01*
X105600000Y-87650000D02*
X105600000Y-90600000D01*
X105600000Y-90600000D02*
X100050000Y-90600000D01*
X106350000Y-87650000D02*
X105600000Y-87650000D01*
X93740000Y-85390000D02*
X106360000Y-85390000D01*
X106360000Y-91360000D01*
X93740000Y-91360000D01*
X93740000Y-85390000D01*
X93750000Y-85400000D02*
X95550000Y-85400000D01*
X95550000Y-86150000D01*
X93750000Y-86150000D01*
X93750000Y-85400000D01*
X97050000Y-85400000D02*
X103050000Y-85400000D01*
X103050000Y-86150000D01*
X97050000Y-86150000D01*
X97050000Y-85400000D01*
X104550000Y-85400000D02*
X106350000Y-85400000D01*
X106350000Y-86150000D01*
X104550000Y-86150000D01*
X104550000Y-85400000D01*
%TO.C,U1*%
X79648369Y-98275000D02*
X80320120Y-97603249D01*
X80320120Y-98946751D02*
X79648369Y-98275000D01*
X86203249Y-91720120D02*
X86875000Y-91048369D01*
X86875000Y-91048369D02*
X87546751Y-91720120D01*
X86875000Y-105501631D02*
X86203249Y-104829880D01*
X87546751Y-104829880D02*
X86875000Y-105501631D01*
X93429880Y-97603249D02*
X94101631Y-98275000D01*
X94101631Y-98275000D02*
X93429880Y-98946751D01*
X87999300Y-105282428D02*
X87907376Y-105855185D01*
X87426543Y-105374352D01*
X87999300Y-105282428D01*
G36*
X87907376Y-105855185D02*
G01*
X87426543Y-105374352D01*
X87999300Y-105282428D01*
X87907376Y-105855185D01*
G37*
%TO.C,R5*%
X110052500Y-89987742D02*
X110052500Y-90462258D01*
X111097500Y-89987742D02*
X111097500Y-90462258D01*
%TO.C,R7*%
X127362258Y-93952500D02*
X126887742Y-93952500D01*
X127362258Y-94997500D02*
X126887742Y-94997500D01*
%TO.C,R2*%
X107202500Y-89912742D02*
X107202500Y-90387258D01*
X108247500Y-89912742D02*
X108247500Y-90387258D01*
%TO.C,U4*%
X74497501Y-102340000D02*
X74592500Y-102340000D01*
X74497501Y-106460000D02*
X74497501Y-102340000D01*
X74592500Y-106460000D02*
X74497501Y-106460000D01*
X79522500Y-102340000D02*
X79617499Y-102340000D01*
X79617499Y-102340000D02*
X79617499Y-106460000D01*
X79617499Y-106460000D02*
X79522500Y-106460000D01*
X79527500Y-101800000D02*
X79857500Y-101560000D01*
X79857500Y-102040000D01*
X79527500Y-101800000D01*
G36*
X79857500Y-102040000D02*
G01*
X79527500Y-101800000D01*
X79857500Y-101560000D01*
X79857500Y-102040000D01*
G37*
%TO.C,D9*%
X89790000Y-85240000D02*
X89790000Y-86710000D01*
X89790000Y-86710000D02*
X92075000Y-86710000D01*
X92075000Y-85240000D02*
X89790000Y-85240000D01*
%TO.C,C18*%
X73090000Y-104359419D02*
X73090000Y-104640581D01*
X74110000Y-104359419D02*
X74110000Y-104640581D01*
%TO.C,C1*%
X96640000Y-107586253D02*
X96640000Y-107063747D01*
X98110000Y-107586253D02*
X98110000Y-107063747D01*
%TO.C,C2*%
X102809419Y-108440000D02*
X103090581Y-108440000D01*
X102809419Y-109460000D02*
X103090581Y-109460000D01*
%TO.C,C21*%
X79220543Y-93340010D02*
X79590010Y-92970543D01*
X80259990Y-94379457D02*
X80629457Y-94009990D01*
%TO.C,U9*%
X74727500Y-92940000D02*
X74777500Y-92940000D01*
X74727500Y-94760000D02*
X74727500Y-92940000D01*
X74777500Y-94760000D02*
X74727500Y-94760000D01*
X77797500Y-92940000D02*
X77847500Y-92940000D01*
X77847500Y-92940000D02*
X77847500Y-94760000D01*
X77847500Y-94760000D02*
X77797500Y-94760000D01*
X77797500Y-92400000D02*
X78127500Y-92160000D01*
X78127500Y-92640000D01*
X77797500Y-92400000D01*
G36*
X78127500Y-92640000D02*
G01*
X77797500Y-92400000D01*
X78127500Y-92160000D01*
X78127500Y-92640000D01*
G37*
%TO.C,R19*%
X106087258Y-111777499D02*
X105612742Y-111777499D01*
X106087258Y-112822499D02*
X105612742Y-112822499D01*
%TO.C,C22*%
X92564970Y-105111219D02*
X92763781Y-105310030D01*
X93286219Y-104389970D02*
X93485030Y-104588781D01*
%TO.C,J6*%
X67600000Y-85100000D02*
X67600000Y-86350000D01*
X67900000Y-87650000D02*
X68650000Y-87650000D01*
X68650000Y-87650000D02*
X68650000Y-88990000D01*
X68850000Y-85100000D02*
X67600000Y-85100000D01*
X74200000Y-90600000D02*
X69710000Y-90600000D01*
X79750000Y-87650000D02*
X79750000Y-90600000D01*
X79750000Y-90600000D02*
X74200000Y-90600000D01*
X80500000Y-87650000D02*
X79750000Y-87650000D01*
X67890000Y-85390000D02*
X80510000Y-85390000D01*
X80510000Y-91360000D01*
X67890000Y-91360000D01*
X67890000Y-85390000D01*
X67900000Y-85400000D02*
X69700000Y-85400000D01*
X69700000Y-86150000D01*
X67900000Y-86150000D01*
X67900000Y-85400000D01*
X71200000Y-85400000D02*
X77200000Y-85400000D01*
X77200000Y-86150000D01*
X71200000Y-86150000D01*
X71200000Y-85400000D01*
X78700000Y-85400000D02*
X80500000Y-85400000D01*
X80500000Y-86150000D01*
X78700000Y-86150000D01*
X78700000Y-85400000D01*
%TO.C,J1*%
X97015000Y-110090000D02*
X98815000Y-110090000D01*
X97015000Y-111540000D02*
X97015000Y-110090000D01*
X98285000Y-114360000D02*
X101715000Y-114360000D01*
X98815000Y-110090000D02*
X98815000Y-109100000D01*
X102985000Y-110090000D02*
X101185000Y-110090000D01*
X102985000Y-111540000D02*
X102985000Y-110090000D01*
%TO.C,C28*%
X97090000Y-97065581D02*
X97090000Y-96784419D01*
X98110000Y-97065581D02*
X98110000Y-96784419D01*
%TO.C,C13*%
X95615000Y-96784419D02*
X95615000Y-97065581D01*
X96635000Y-96784419D02*
X96635000Y-97065581D01*
%TO.C,J7*%
X109475000Y-112349999D02*
X110225000Y-112349999D01*
X110225000Y-109400000D02*
X120775000Y-109400000D01*
X110225000Y-112349999D02*
X110225000Y-109400000D01*
X120775000Y-109400000D02*
X130265000Y-109400000D01*
X131125000Y-114900000D02*
X132375000Y-114900000D01*
X131325000Y-112350000D02*
X131325000Y-111010000D01*
X132075000Y-112350000D02*
X131325000Y-112350000D01*
X132375000Y-114900000D02*
X132375000Y-113650000D01*
X111275000Y-114600000D02*
X109475000Y-114600001D01*
X109475001Y-113850000D01*
X111275000Y-113850000D01*
X111275000Y-114600000D01*
X128775000Y-114600001D02*
X112775000Y-114600000D01*
X112775000Y-113850000D01*
X128774999Y-113850000D01*
X128775000Y-114600001D01*
X132075000Y-114600000D02*
X130275000Y-114600001D01*
X130275001Y-113850000D01*
X132075000Y-113850000D01*
X132075000Y-114600000D01*
X132085000Y-114610000D02*
X109465000Y-114610000D01*
X109465000Y-108640000D01*
X132085000Y-108640000D01*
X132085000Y-114610000D01*
%TO.C,C11*%
X93614970Y-104061219D02*
X93813781Y-104260030D01*
X94336219Y-103339970D02*
X94535030Y-103538781D01*
%TO.C,C20*%
X90020543Y-91059990D02*
X90390010Y-91429457D01*
X91059990Y-90020543D02*
X91429457Y-90390010D01*
%TO.C,J5*%
X119200000Y-85100000D02*
X119200000Y-86350000D01*
X119500000Y-87650000D02*
X120250000Y-87650000D01*
X120250000Y-87650000D02*
X120250000Y-88990000D01*
X120450000Y-85100000D02*
X119200000Y-85100000D01*
X125800000Y-90600000D02*
X121310000Y-90600000D01*
X131350000Y-87650000D02*
X131350000Y-90600000D01*
X131350000Y-90600000D02*
X125800000Y-90600000D01*
X132100000Y-87650000D02*
X131350000Y-87650000D01*
X119490000Y-85390000D02*
X132110000Y-85390000D01*
X132110000Y-91360000D01*
X119490000Y-91360000D01*
X119490000Y-85390000D01*
X119500000Y-85400000D02*
X121300000Y-85400000D01*
X121300000Y-86150000D01*
X119500000Y-86150000D01*
X119500000Y-85400000D01*
X122800000Y-85400000D02*
X128800000Y-85400000D01*
X128800000Y-86150000D01*
X122800000Y-86150000D01*
X122800000Y-85400000D01*
X130300000Y-85400000D02*
X132100000Y-85400000D01*
X132100000Y-86150000D01*
X130300000Y-86150000D01*
X130300000Y-85400000D01*
%TO.C,D4*%
X68290000Y-92965000D02*
X68340000Y-92965000D01*
X68290000Y-94485000D02*
X68290000Y-92965000D01*
X69290000Y-94485000D02*
X68290000Y-94485000D01*
X69460000Y-92965000D02*
X70240000Y-92965000D01*
X71360000Y-92965000D02*
X71410000Y-92965000D01*
X71410000Y-92965000D02*
X71410000Y-94485000D01*
X71410000Y-94485000D02*
X70410000Y-94485000D01*
X70230000Y-92425000D02*
X69900000Y-92665000D01*
X69900000Y-92185000D01*
X70230000Y-92425000D01*
G36*
X70230000Y-92425000D02*
G01*
X69900000Y-92665000D01*
X69900000Y-92185000D01*
X70230000Y-92425000D01*
G37*
%TO.C,U5*%
X98440000Y-106240000D02*
X98465001Y-106240000D01*
X98440000Y-107710000D02*
X98440000Y-106240000D01*
X98465001Y-107710000D02*
X98440000Y-107710000D01*
X100634999Y-106240000D02*
X100660000Y-106240000D01*
X100660000Y-106240000D02*
X100660000Y-107710000D01*
X100660000Y-107710000D02*
X100634999Y-107710000D01*
X98460001Y-108155000D02*
X98270000Y-108295000D01*
X98270000Y-108015000D01*
X98460001Y-108155000D01*
G36*
X98460001Y-108155000D02*
G01*
X98270000Y-108295000D01*
X98270000Y-108015000D01*
X98460001Y-108155000D01*
G37*
%TO.C,C3*%
X101315000Y-106061253D02*
X101315000Y-105538747D01*
X102785000Y-106061253D02*
X102785000Y-105538747D01*
%TO.C,Y1*%
X93810000Y-107964999D02*
X89690000Y-107964999D01*
X93810000Y-111385001D02*
X93810000Y-107964999D01*
%TO.C,D10*%
X85715000Y-85240000D02*
X85715000Y-86710000D01*
X85715000Y-86710000D02*
X88000000Y-86710000D01*
X88000000Y-85240000D02*
X85715000Y-85240000D01*
%TO.C,C27*%
X87161253Y-88565000D02*
X86638747Y-88565000D01*
X87161253Y-90035000D02*
X86638747Y-90035000D01*
%TO.C,C5*%
X112690000Y-103198753D02*
X112690000Y-102676247D01*
X114160000Y-103198753D02*
X114160000Y-102676247D01*
%TO.C,R1*%
X81862742Y-106802500D02*
X82337258Y-106802500D01*
X81862742Y-107847500D02*
X82337258Y-107847500D01*
%TO.C,R9*%
X72812742Y-92015000D02*
X73287258Y-92015000D01*
X72812742Y-93060000D02*
X73287258Y-93060000D01*
%TO.C,C16*%
X95714970Y-102488781D02*
X95913781Y-102289970D01*
X96436219Y-103210030D02*
X96635030Y-103011219D01*
%TO.C,C8*%
X77265000Y-98134419D02*
X77265000Y-98415581D01*
X78285000Y-98134419D02*
X78285000Y-98415581D01*
%TO.C,FB1*%
X96979478Y-101125727D02*
X96749273Y-100895522D01*
X97700727Y-100404478D02*
X97470522Y-100174273D01*
%TO.C,C6*%
X94115000Y-109559419D02*
X94115000Y-109840581D01*
X95135000Y-109559419D02*
X95135000Y-109840581D01*
%TO.C,U2*%
X106025000Y-101202499D02*
X109785000Y-101202500D01*
X106025000Y-108022501D02*
X109785000Y-108022500D01*
X109785000Y-101202500D02*
X109785000Y-102462499D01*
X109785000Y-108022500D02*
X109785000Y-106762501D01*
X104745000Y-101302500D02*
X104505000Y-100972500D01*
X104985000Y-100972500D01*
X104745000Y-101302500D01*
G36*
X104745000Y-101302500D02*
G01*
X104505000Y-100972500D01*
X104985000Y-100972500D01*
X104745000Y-101302500D01*
G37*
%TO.C,C12*%
X85765581Y-106840000D02*
X85484419Y-106840000D01*
X85765581Y-107860000D02*
X85484419Y-107860000D01*
%TO.C,D6*%
X105050000Y-114510000D02*
X107335000Y-114510000D01*
X107335000Y-113040000D02*
X105050000Y-113040000D01*
X107335000Y-114510000D02*
X107335000Y-113040000D01*
%TO.C,R6*%
X127362258Y-91977500D02*
X126887742Y-91977500D01*
X127362258Y-93022500D02*
X126887742Y-93022500D01*
%TO.C,C4*%
X112915000Y-106446919D02*
X112915000Y-106728081D01*
X113935000Y-106446919D02*
X113935000Y-106728081D01*
%TO.C,R8*%
X72812742Y-93965000D02*
X73287258Y-93965000D01*
X72812742Y-95010000D02*
X73287258Y-95010000D01*
%TO.C,C7*%
X88365000Y-109790581D02*
X88365000Y-109509419D01*
X89385000Y-109790581D02*
X89385000Y-109509419D01*
%TO.C,U7*%
X122665000Y-91915000D02*
X124485000Y-91915000D01*
X122665000Y-91965000D02*
X122665000Y-91915000D01*
X122665000Y-95035000D02*
X122665000Y-94985000D01*
X124485000Y-91915000D02*
X124485000Y-91965000D01*
X124485000Y-94985000D02*
X124485000Y-95035000D01*
X124485000Y-95035000D02*
X122665000Y-95035000D01*
X125025000Y-94985000D02*
X125265000Y-95315000D01*
X124785000Y-95315000D01*
X125025000Y-94985000D01*
G36*
X125265000Y-95315000D02*
G01*
X124785000Y-95315000D01*
X125025000Y-94985000D01*
X125265000Y-95315000D01*
G37*
%TO.C,J9*%
X87605001Y-114605000D02*
X87605002Y-113225000D01*
X88985001Y-114604999D02*
X87605001Y-114605000D01*
X90255001Y-111845000D02*
X95445001Y-111845000D01*
X90255001Y-114605000D02*
X90255001Y-111845000D01*
X90255001Y-114605000D02*
X95445001Y-114605000D01*
X95445001Y-114605000D02*
X95445001Y-111845000D01*
%TO.C,D2*%
X107590000Y-86890000D02*
X107640000Y-86890000D01*
X107590000Y-88410000D02*
X107590000Y-86890000D01*
X108590000Y-88410000D02*
X107590000Y-88410000D01*
X108760000Y-86890000D02*
X109540000Y-86890000D01*
X110660000Y-86890000D02*
X110710000Y-86890000D01*
X110710000Y-86890000D02*
X110710000Y-88410000D01*
X110710000Y-88410000D02*
X109710000Y-88410000D01*
X109530000Y-86350000D02*
X109200000Y-86590000D01*
X109200000Y-86110000D01*
X109530000Y-86350000D01*
G36*
X109530000Y-86350000D02*
G01*
X109200000Y-86590000D01*
X109200000Y-86110000D01*
X109530000Y-86350000D01*
G37*
%TO.C,R21*%
X91037742Y-86922500D02*
X91512258Y-86922500D01*
X91037742Y-87967500D02*
X91512258Y-87967500D01*
%TO.C,D1*%
X68240000Y-104890000D02*
X68290000Y-104890000D01*
X68240000Y-106410000D02*
X68240000Y-104890000D01*
X69240000Y-106410000D02*
X68240000Y-106410000D01*
X69410000Y-104890000D02*
X70190000Y-104890000D01*
X71310000Y-104890000D02*
X71360000Y-104890000D01*
X71360000Y-104890000D02*
X71360000Y-106410000D01*
X71360000Y-106410000D02*
X70360000Y-106410000D01*
X70180000Y-104350000D02*
X69850000Y-104590000D01*
X69850000Y-104110000D01*
X70180000Y-104350000D01*
G36*
X70180000Y-104350000D02*
G01*
X69850000Y-104590000D01*
X69850000Y-104110000D01*
X70180000Y-104350000D01*
G37*
%TO.C,C10*%
X93595543Y-94134990D02*
X93965010Y-94504457D01*
X94634990Y-93095543D02*
X95004457Y-93465010D01*
%TO.C,R20*%
X82962742Y-86927500D02*
X83437258Y-86927500D01*
X82962742Y-87972500D02*
X83437258Y-87972500D01*
%TO.C,C14*%
X94664970Y-101438781D02*
X94863781Y-101239970D01*
X95386219Y-102160030D02*
X95585030Y-101961219D01*
%TO.C,C9*%
X88865581Y-106590000D02*
X88584419Y-106590000D01*
X88865581Y-107610000D02*
X88584419Y-107610000D01*
%TO.C,R3*%
X91437770Y-106076697D02*
X91773303Y-106412230D01*
X92176697Y-105337770D02*
X92512230Y-105673303D01*
%TO.C,D3*%
X128740000Y-92965000D02*
X128790000Y-92965000D01*
X128740000Y-94485000D02*
X128740000Y-92965000D01*
X129740000Y-94485000D02*
X128740000Y-94485000D01*
X129910000Y-92965000D02*
X130690000Y-92965000D01*
X131810000Y-92965000D02*
X131860000Y-92965000D01*
X131860000Y-92965000D02*
X131860000Y-94485000D01*
X131860000Y-94485000D02*
X130860000Y-94485000D01*
X130680000Y-92425000D02*
X130350000Y-92665000D01*
X130350000Y-92185000D01*
X130680000Y-92425000D01*
G36*
X130680000Y-92425000D02*
G01*
X130350000Y-92665000D01*
X130350000Y-92185000D01*
X130680000Y-92425000D01*
G37*
%TO.C,D8*%
X81715000Y-85240000D02*
X81715000Y-86710000D01*
X81715000Y-86710000D02*
X84000000Y-86710000D01*
X84000000Y-85240000D02*
X81715000Y-85240000D01*
%TO.C,J3*%
D12*
X119495000Y-96825000D02*
X120295001Y-96825000D01*
X119495000Y-103175000D02*
X120295001Y-103175000D01*
X123695001Y-100825000D02*
X124335000Y-100825000D01*
D10*
X124255000Y-102540000D02*
X124255000Y-102540000D01*
D12*
X124335000Y-99175000D02*
X123695001Y-99175000D01*
X124335000Y-100825000D02*
X124335000Y-99175000D01*
D10*
X124355000Y-102540000D02*
X124355000Y-102540000D01*
X124255000Y-102540000D02*
G75*
G02*
X124355000Y-102540000I50000J0D01*
G01*
X124355000Y-102540000D02*
G75*
G02*
X124255000Y-102540000I-50000J0D01*
G01*
%TO.C,U3*%
D11*
X112090000Y-87240000D02*
X112140000Y-87240000D01*
X112090000Y-89060000D02*
X112090000Y-87240000D01*
X112140000Y-89060000D02*
X112090000Y-89060000D01*
X115160000Y-87240000D02*
X115210000Y-87240000D01*
X115210000Y-87240000D02*
X115210000Y-89060000D01*
X115210000Y-89060000D02*
X115160000Y-89060000D01*
X112140000Y-89600000D02*
X111810000Y-89840000D01*
X111810000Y-89360000D01*
X112140000Y-89600000D01*
G36*
X112140000Y-89600000D02*
G01*
X111810000Y-89840000D01*
X111810000Y-89360000D01*
X112140000Y-89600000D01*
G37*
%TD*%
M02*
