%TF.GenerationSoftware,KiCad,Pcbnew,10.0.4*%
%TF.CreationDate,2026-09-25T19:22:44+09:00*%
%TF.ProjectId,Oddom board,4f64646f-6d20-4626-9f61-72642e6b6963,rev?*%
%TF.SameCoordinates,Original*%
%TF.FileFunction,Copper,L2,Inr*%
%TF.FilePolarity,Positive*%
%FSLAX46Y46*%
G04 Gerber Fmt 4.6, Leading zero omitted, Abs format (unit mm)*
G04 Created by KiCad (PCBNEW 10.0.4) date 2026-09-25 19:22:44*
%MOMM*%
%LPD*%
G01*
G04 APERTURE LIST*
G04 Aperture macros list*
%AMRoundRect*
0 Rectangle with rounded corners*
0 $1 Rounding radius*
0 $2 $3 $4 $5 $6 $7 $8 $9 X,Y pos of 4 corners*
0 Add a 4 corners polygon primitive as box body*
4,1,4,$2,$3,$4,$5,$6,$7,$8,$9,$2,$3,0*
0 Add four circle primitives for the rounded corners*
1,1,$1+$1,$2,$3*
1,1,$1+$1,$4,$5*
1,1,$1+$1,$6,$7*
1,1,$1+$1,$8,$9*
0 Add four rect primitives between the rounded corners*
20,1,$1+$1,$2,$3,$4,$5,0*
20,1,$1+$1,$4,$5,$6,$7,0*
20,1,$1+$1,$6,$7,$8,$9,0*
20,1,$1+$1,$8,$9,$2,$3,0*%
G04 Aperture macros list end*
%TA.AperFunction,ComponentPad*%
%ADD10RoundRect,0.250000X-0.600000X-0.725000X0.600000X-0.725000X0.600000X0.725000X-0.600000X0.725000X0*%
%TD*%
%TA.AperFunction,ComponentPad*%
%ADD11O,1.700000X1.950000*%
%TD*%
%TA.AperFunction,ComponentPad*%
%ADD12RoundRect,0.250000X0.600000X0.725000X-0.600000X0.725000X-0.600000X-0.725000X0.600000X-0.725000X0*%
%TD*%
%TA.AperFunction,ComponentPad*%
%ADD13R,1.700000X1.700000*%
%TD*%
%TA.AperFunction,ComponentPad*%
%ADD14C,1.700000*%
%TD*%
%TA.AperFunction,ViaPad*%
%ADD15C,0.600000*%
%TD*%
G04 APERTURE END LIST*
D10*
%TO.N,Net-(D2-A2)*%
%TO.C,J4*%
X96300000Y-87850000D03*
D11*
%TO.N,PWR_5V*%
X98800000Y-87850000D03*
%TO.N,Net-(D2-A1)*%
X101300000Y-87850000D03*
%TO.N,GND*%
X103800000Y-87850000D03*
%TD*%
D10*
%TO.N,Net-(D4-A2)*%
%TO.C,J6*%
X70450000Y-87850000D03*
D11*
%TO.N,PWR_5V*%
X72950000Y-87850000D03*
%TO.N,Net-(D4-A1)*%
X75450000Y-87850000D03*
%TO.N,GND*%
X77950000Y-87850000D03*
%TD*%
D12*
%TO.N,PWR_3.3V*%
%TO.C,J7*%
X129525000Y-112150000D03*
D11*
%TO.N,GND*%
X127025000Y-112150000D03*
%TO.N,Net-(J7-Pin_3)*%
X124525000Y-112150000D03*
%TO.N,Net-(J7-Pin_4)*%
X122025000Y-112150000D03*
%TO.N,Net-(J7-Pin_5)*%
X119525000Y-112150000D03*
%TO.N,IMU_CS_N*%
X117025000Y-112150000D03*
%TO.N,IMU_INT1*%
X114525000Y-112150000D03*
%TO.N,IMU_INT2*%
X112025000Y-112150000D03*
%TD*%
D10*
%TO.N,Net-(D3-A2)*%
%TO.C,J5*%
X122050000Y-87850000D03*
D11*
%TO.N,PWR_5V*%
X124550000Y-87850000D03*
%TO.N,Net-(D3-A1)*%
X127050000Y-87850000D03*
%TO.N,GND*%
X129550000Y-87850000D03*
%TD*%
D13*
%TO.N,GND*%
%TO.C,J9*%
X88985001Y-113225000D03*
D14*
%TO.N,USART2_TX*%
X91525001Y-113225000D03*
%TO.N,USART2_RX*%
X94065000Y-113225000D03*
%TD*%
D15*
%TO.N,GND*%
X92900000Y-102225000D03*
X84100000Y-106325000D03*
X96723008Y-102025000D03*
X106637501Y-113775000D03*
X124712500Y-93475000D03*
X86412500Y-85975000D03*
X98625000Y-97575000D03*
X94825000Y-105625000D03*
X81191637Y-103991637D03*
X73600000Y-105300000D03*
X72100000Y-107400000D03*
X93628249Y-93200000D03*
X77692500Y-101925000D03*
X103150000Y-102375000D03*
X130300000Y-94662501D03*
X70325000Y-110025000D03*
X100275000Y-111700000D03*
X69800000Y-106575000D03*
X94750000Y-96175000D03*
X76287500Y-92712500D03*
X113425000Y-101987501D03*
X90487500Y-85975000D03*
X113425000Y-107362500D03*
X92475000Y-111900000D03*
X109175000Y-89750000D03*
X114000000Y-88225000D03*
X97375000Y-106375001D03*
X113375000Y-98877500D03*
X90650000Y-108275000D03*
X91375000Y-91550000D03*
X104925000Y-108275000D03*
X80596751Y-93003249D03*
X82412500Y-85975000D03*
X121930001Y-101270000D03*
X102050000Y-104850001D03*
X78962500Y-106875000D03*
X77700000Y-99075000D03*
X69850000Y-94662501D03*
X87950000Y-107100000D03*
X85950001Y-89300000D03*
%TO.N,PWR_3.3V*%
X76087624Y-96408590D03*
X75152500Y-106875000D03*
X93526992Y-103251992D03*
X99075000Y-96250000D03*
X106675000Y-112299999D03*
X111024999Y-104735202D03*
X77738235Y-96438235D03*
X98370747Y-102354047D03*
X86817524Y-108766054D03*
X89500000Y-107100000D03*
X87849999Y-89300000D03*
X111675000Y-88175000D03*
X104725001Y-104735202D03*
%TO.N,Net-(U1-PC6)*%
X85725000Y-93600000D03*
X100945940Y-92550000D03*
%TO.N,Net-(U1-PC7)*%
X100448669Y-93176678D03*
X86166639Y-94289340D03*
%TO.N,Net-(U1-PC8)*%
X100019741Y-93851973D03*
X86725000Y-94889340D03*
%TO.N,PWR_5V*%
X76422500Y-101925000D03*
X104725000Y-106912500D03*
%TO.N,NRST*%
X92310202Y-104135202D03*
X119975000Y-97500000D03*
%TO.N,/AMT102_input/W1_A*%
X115599999Y-96075000D03*
X91288235Y-98986765D03*
%TO.N,/AMT102_input/W1_B*%
X107450000Y-97900000D03*
X91000000Y-98125000D03*
%TO.N,/AMT102_input1/W1_A*%
X90025000Y-95963423D03*
X121100000Y-94450000D03*
%TO.N,/AMT102_input1/W1_B*%
X121050000Y-92500000D03*
X89417161Y-95443292D03*
%TO.N,/CAN_interface/COMM_RX*%
X75152500Y-100000000D03*
X80575000Y-94575000D03*
%TO.N,/CAN_interface/COMM_TX*%
X82274355Y-96714913D03*
X78475000Y-100525000D03*
%TO.N,SWDIO*%
X110775000Y-100175000D03*
X87375000Y-98625000D03*
%TO.N,SWCLK*%
X83500000Y-97900000D03*
X117860000Y-101270000D03*
%TO.N,Net-(J7-Pin_5)*%
X107450000Y-99650000D03*
X85912911Y-97962089D03*
%TO.N,Net-(J7-Pin_3)*%
X85268671Y-99546627D03*
%TO.N,Net-(J7-Pin_4)*%
X106197870Y-109749542D03*
X85950000Y-99975000D03*
%TO.N,IMU_CS_N*%
X106225000Y-108950000D03*
X86700000Y-100575000D03*
%TO.N,SWO*%
X88527208Y-100625735D03*
X117860001Y-100000000D03*
%TO.N,/AMT102_input2/W1_A*%
X84450000Y-101875000D03*
X82075000Y-97950000D03*
%TD*%
%TA.AperFunction,Conductor*%
%TO.N,GND*%
G36*
X131506922Y-85501280D02*
G01*
X131523878Y-85503190D01*
X131597268Y-85511458D01*
X131624333Y-85517636D01*
X131703539Y-85545351D01*
X131728549Y-85557395D01*
X131799606Y-85602043D01*
X131821313Y-85619355D01*
X131880644Y-85678686D01*
X131897957Y-85700395D01*
X131942602Y-85771447D01*
X131954649Y-85796464D01*
X131982362Y-85875662D01*
X131988541Y-85902734D01*
X131998720Y-85993076D01*
X131999500Y-86006959D01*
X131999500Y-109522349D01*
X131979815Y-109589388D01*
X131927011Y-109635143D01*
X131857853Y-109645087D01*
X131794297Y-109616062D01*
X131787819Y-109610030D01*
X131667162Y-109489373D01*
X131527860Y-109396295D01*
X131373082Y-109332184D01*
X131373074Y-109332182D01*
X131208771Y-109299500D01*
X131208767Y-109299500D01*
X131041233Y-109299500D01*
X131041228Y-109299500D01*
X130876925Y-109332182D01*
X130876917Y-109332184D01*
X130722139Y-109396295D01*
X130582837Y-109489373D01*
X130464373Y-109607837D01*
X130371295Y-109747139D01*
X130307184Y-109901917D01*
X130307182Y-109901925D01*
X130274500Y-110066228D01*
X130274500Y-110233771D01*
X130307182Y-110398074D01*
X130307184Y-110398082D01*
X130371295Y-110552860D01*
X130464373Y-110692162D01*
X130582837Y-110810626D01*
X130672264Y-110870379D01*
X130722137Y-110903703D01*
X130876918Y-110967816D01*
X131014950Y-110995272D01*
X131041228Y-111000499D01*
X131041232Y-111000500D01*
X131041233Y-111000500D01*
X131208768Y-111000500D01*
X131208769Y-111000499D01*
X131373082Y-110967816D01*
X131527863Y-110903703D01*
X131667162Y-110810626D01*
X131708983Y-110768805D01*
X131787819Y-110689970D01*
X131849142Y-110656485D01*
X131918834Y-110661469D01*
X131974767Y-110703341D01*
X131999184Y-110768805D01*
X131999500Y-110777651D01*
X131999500Y-113993040D01*
X131998720Y-114006922D01*
X131998720Y-114006923D01*
X131988541Y-114097265D01*
X131982362Y-114124337D01*
X131954649Y-114203535D01*
X131942602Y-114228552D01*
X131897957Y-114299604D01*
X131880644Y-114321313D01*
X131821313Y-114380644D01*
X131799604Y-114397957D01*
X131728552Y-114442602D01*
X131703535Y-114454649D01*
X131624337Y-114482362D01*
X131597265Y-114488541D01*
X131506923Y-114498720D01*
X131493040Y-114499500D01*
X94301335Y-114499500D01*
X94234296Y-114479815D01*
X94188541Y-114427011D01*
X94178597Y-114357853D01*
X94207622Y-114294297D01*
X94266400Y-114256523D01*
X94277144Y-114253883D01*
X94318301Y-114245695D01*
X94371420Y-114235130D01*
X94562598Y-114155941D01*
X94734655Y-114040977D01*
X94880977Y-113894655D01*
X94995941Y-113722598D01*
X95075130Y-113531420D01*
X95115500Y-113328465D01*
X95115500Y-113121535D01*
X95075130Y-112918580D01*
X94995941Y-112727402D01*
X94880977Y-112555345D01*
X94880975Y-112555342D01*
X94734657Y-112409024D01*
X94615015Y-112329083D01*
X94615013Y-112329080D01*
X94562599Y-112294059D01*
X94417862Y-112234107D01*
X106174500Y-112234107D01*
X106174500Y-112365891D01*
X106177870Y-112378469D01*
X106208608Y-112493186D01*
X106229413Y-112529221D01*
X106274500Y-112607313D01*
X106367686Y-112700499D01*
X106481814Y-112766391D01*
X106609108Y-112800499D01*
X106609110Y-112800499D01*
X106740890Y-112800499D01*
X106740892Y-112800499D01*
X106868186Y-112766391D01*
X106982314Y-112700499D01*
X107075500Y-112607313D01*
X107141392Y-112493185D01*
X107175500Y-112365891D01*
X107175500Y-112234107D01*
X107141392Y-112106813D01*
X107075500Y-111992685D01*
X107004345Y-111921530D01*
X110974500Y-111921530D01*
X110974500Y-112378469D01*
X111014868Y-112581412D01*
X111014870Y-112581420D01*
X111091487Y-112766390D01*
X111094059Y-112772598D01*
X111109988Y-112796437D01*
X111209024Y-112944657D01*
X111355342Y-113090975D01*
X111355345Y-113090977D01*
X111527402Y-113205941D01*
X111718580Y-113285130D01*
X111907187Y-113322646D01*
X111921530Y-113325499D01*
X111921534Y-113325500D01*
X111921535Y-113325500D01*
X112128466Y-113325500D01*
X112128467Y-113325499D01*
X112331420Y-113285130D01*
X112522598Y-113205941D01*
X112694655Y-113090977D01*
X112840977Y-112944655D01*
X112955941Y-112772598D01*
X113035130Y-112581420D01*
X113075500Y-112378465D01*
X113075500Y-111921535D01*
X113075499Y-111921530D01*
X113474500Y-111921530D01*
X113474500Y-112378469D01*
X113514868Y-112581412D01*
X113514870Y-112581420D01*
X113591487Y-112766390D01*
X113594059Y-112772598D01*
X113609988Y-112796437D01*
X113709024Y-112944657D01*
X113855342Y-113090975D01*
X113855345Y-113090977D01*
X114027402Y-113205941D01*
X114218580Y-113285130D01*
X114407187Y-113322646D01*
X114421530Y-113325499D01*
X114421534Y-113325500D01*
X114421535Y-113325500D01*
X114628466Y-113325500D01*
X114628467Y-113325499D01*
X114831420Y-113285130D01*
X115022598Y-113205941D01*
X115194655Y-113090977D01*
X115340977Y-112944655D01*
X115455941Y-112772598D01*
X115535130Y-112581420D01*
X115575500Y-112378465D01*
X115575500Y-111921535D01*
X115575499Y-111921530D01*
X115974500Y-111921530D01*
X115974500Y-112378469D01*
X116014868Y-112581412D01*
X116014870Y-112581420D01*
X116091487Y-112766390D01*
X116094059Y-112772598D01*
X116109988Y-112796437D01*
X116209024Y-112944657D01*
X116355342Y-113090975D01*
X116355345Y-113090977D01*
X116527402Y-113205941D01*
X116718580Y-113285130D01*
X116907187Y-113322646D01*
X116921530Y-113325499D01*
X116921534Y-113325500D01*
X116921535Y-113325500D01*
X117128466Y-113325500D01*
X117128467Y-113325499D01*
X117331420Y-113285130D01*
X117522598Y-113205941D01*
X117694655Y-113090977D01*
X117840977Y-112944655D01*
X117955941Y-112772598D01*
X118035130Y-112581420D01*
X118075500Y-112378465D01*
X118075500Y-111921535D01*
X118075499Y-111921530D01*
X118474500Y-111921530D01*
X118474500Y-112378469D01*
X118514868Y-112581412D01*
X118514870Y-112581420D01*
X118591487Y-112766390D01*
X118594059Y-112772598D01*
X118609988Y-112796437D01*
X118709024Y-112944657D01*
X118855342Y-113090975D01*
X118855345Y-113090977D01*
X119027402Y-113205941D01*
X119218580Y-113285130D01*
X119407187Y-113322646D01*
X119421530Y-113325499D01*
X119421534Y-113325500D01*
X119421535Y-113325500D01*
X119628466Y-113325500D01*
X119628467Y-113325499D01*
X119831420Y-113285130D01*
X120022598Y-113205941D01*
X120194655Y-113090977D01*
X120340977Y-112944655D01*
X120455941Y-112772598D01*
X120535130Y-112581420D01*
X120575500Y-112378465D01*
X120575500Y-111921535D01*
X120575499Y-111921530D01*
X120974500Y-111921530D01*
X120974500Y-112378469D01*
X121014868Y-112581412D01*
X121014870Y-112581420D01*
X121091487Y-112766390D01*
X121094059Y-112772598D01*
X121109988Y-112796437D01*
X121209024Y-112944657D01*
X121355342Y-113090975D01*
X121355345Y-113090977D01*
X121527402Y-113205941D01*
X121718580Y-113285130D01*
X121907187Y-113322646D01*
X121921530Y-113325499D01*
X121921534Y-113325500D01*
X121921535Y-113325500D01*
X122128466Y-113325500D01*
X122128467Y-113325499D01*
X122331420Y-113285130D01*
X122522598Y-113205941D01*
X122694655Y-113090977D01*
X122840977Y-112944655D01*
X122955941Y-112772598D01*
X123035130Y-112581420D01*
X123075500Y-112378465D01*
X123075500Y-111921535D01*
X123075499Y-111921530D01*
X123474500Y-111921530D01*
X123474500Y-112378469D01*
X123514868Y-112581412D01*
X123514870Y-112581420D01*
X123591487Y-112766390D01*
X123594059Y-112772598D01*
X123609988Y-112796437D01*
X123709024Y-112944657D01*
X123855342Y-113090975D01*
X123855345Y-113090977D01*
X124027402Y-113205941D01*
X124218580Y-113285130D01*
X124407187Y-113322646D01*
X124421530Y-113325499D01*
X124421534Y-113325500D01*
X124421535Y-113325500D01*
X124628466Y-113325500D01*
X124628467Y-113325499D01*
X124831420Y-113285130D01*
X125022598Y-113205941D01*
X125194655Y-113090977D01*
X125340977Y-112944655D01*
X125455941Y-112772598D01*
X125501748Y-112662009D01*
X125545589Y-112607606D01*
X125611883Y-112585541D01*
X125679582Y-112602820D01*
X125727193Y-112653957D01*
X125734240Y-112671144D01*
X125773904Y-112793216D01*
X125870379Y-112982557D01*
X125995272Y-113154459D01*
X125995276Y-113154464D01*
X126145535Y-113304723D01*
X126145540Y-113304727D01*
X126317442Y-113429620D01*
X126506782Y-113526095D01*
X126708871Y-113591757D01*
X126775000Y-113602231D01*
X126775000Y-112554145D01*
X126841657Y-112592630D01*
X126962465Y-112625000D01*
X127087535Y-112625000D01*
X127208343Y-112592630D01*
X127275000Y-112554145D01*
X127275000Y-113602230D01*
X127341126Y-113591757D01*
X127341129Y-113591757D01*
X127543217Y-113526095D01*
X127732557Y-113429620D01*
X127904459Y-113304727D01*
X127904464Y-113304723D01*
X128054723Y-113154464D01*
X128054727Y-113154459D01*
X128179620Y-112982557D01*
X128240015Y-112864028D01*
X128287990Y-112813232D01*
X128355811Y-112796437D01*
X128421946Y-112818974D01*
X128465397Y-112873690D01*
X128474500Y-112920323D01*
X128474500Y-112929269D01*
X128477353Y-112959699D01*
X128477353Y-112959701D01*
X128519800Y-113081004D01*
X128522207Y-113087882D01*
X128602850Y-113197150D01*
X128712118Y-113277793D01*
X128733089Y-113285131D01*
X128840299Y-113322646D01*
X128870730Y-113325500D01*
X128870734Y-113325500D01*
X130179270Y-113325500D01*
X130209699Y-113322646D01*
X130209701Y-113322646D01*
X130273790Y-113300219D01*
X130337882Y-113277793D01*
X130447150Y-113197150D01*
X130527793Y-113087882D01*
X130564648Y-112982557D01*
X130572646Y-112959701D01*
X130572646Y-112959699D01*
X130575500Y-112929269D01*
X130575500Y-111370730D01*
X130572646Y-111340300D01*
X130572646Y-111340298D01*
X130527793Y-111212119D01*
X130527792Y-111212117D01*
X130447150Y-111102850D01*
X130337882Y-111022207D01*
X130337880Y-111022206D01*
X130209700Y-110977353D01*
X130179270Y-110974500D01*
X130179266Y-110974500D01*
X128870734Y-110974500D01*
X128870730Y-110974500D01*
X128840300Y-110977353D01*
X128840298Y-110977353D01*
X128712119Y-111022206D01*
X128712117Y-111022207D01*
X128602850Y-111102850D01*
X128522207Y-111212117D01*
X128522206Y-111212119D01*
X128477353Y-111340298D01*
X128477353Y-111340300D01*
X128474500Y-111370730D01*
X128474500Y-111379676D01*
X128454815Y-111446715D01*
X128402011Y-111492470D01*
X128332853Y-111502414D01*
X128269297Y-111473389D01*
X128240015Y-111435971D01*
X128179620Y-111317442D01*
X128054727Y-111145540D01*
X128054723Y-111145535D01*
X127904464Y-110995276D01*
X127904459Y-110995272D01*
X127732557Y-110870379D01*
X127543215Y-110773903D01*
X127341124Y-110708241D01*
X127275000Y-110697768D01*
X127275000Y-111745854D01*
X127208343Y-111707370D01*
X127087535Y-111675000D01*
X126962465Y-111675000D01*
X126841657Y-111707370D01*
X126775000Y-111745854D01*
X126775000Y-110697768D01*
X126774999Y-110697768D01*
X126708875Y-110708241D01*
X126506784Y-110773903D01*
X126317442Y-110870379D01*
X126145540Y-110995272D01*
X126145535Y-110995276D01*
X125995276Y-111145535D01*
X125995272Y-111145540D01*
X125870379Y-111317442D01*
X125773905Y-111506781D01*
X125734240Y-111628856D01*
X125694802Y-111686531D01*
X125630443Y-111713729D01*
X125561597Y-111701814D01*
X125510121Y-111654570D01*
X125501748Y-111637990D01*
X125455941Y-111527403D01*
X125455941Y-111527402D01*
X125340977Y-111355345D01*
X125340975Y-111355342D01*
X125194657Y-111209024D01*
X125099638Y-111145535D01*
X125022598Y-111094059D01*
X124831420Y-111014870D01*
X124831412Y-111014868D01*
X124628469Y-110974500D01*
X124628465Y-110974500D01*
X124421535Y-110974500D01*
X124421530Y-110974500D01*
X124218587Y-111014868D01*
X124218579Y-111014870D01*
X124027403Y-111094058D01*
X123855342Y-111209024D01*
X123709024Y-111355342D01*
X123594058Y-111527403D01*
X123514870Y-111718579D01*
X123514868Y-111718587D01*
X123474500Y-111921530D01*
X123075499Y-111921530D01*
X123035130Y-111718580D01*
X122955941Y-111527402D01*
X122840977Y-111355345D01*
X122840975Y-111355342D01*
X122694657Y-111209024D01*
X122599638Y-111145535D01*
X122522598Y-111094059D01*
X122331420Y-111014870D01*
X122331412Y-111014868D01*
X122128469Y-110974500D01*
X122128465Y-110974500D01*
X121921535Y-110974500D01*
X121921530Y-110974500D01*
X121718587Y-111014868D01*
X121718579Y-111014870D01*
X121527403Y-111094058D01*
X121355342Y-111209024D01*
X121209024Y-111355342D01*
X121094058Y-111527403D01*
X121014870Y-111718579D01*
X121014868Y-111718587D01*
X120974500Y-111921530D01*
X120575499Y-111921530D01*
X120535130Y-111718580D01*
X120455941Y-111527402D01*
X120340977Y-111355345D01*
X120340975Y-111355342D01*
X120194657Y-111209024D01*
X120099638Y-111145535D01*
X120022598Y-111094059D01*
X119831420Y-111014870D01*
X119831412Y-111014868D01*
X119628469Y-110974500D01*
X119628465Y-110974500D01*
X119421535Y-110974500D01*
X119421530Y-110974500D01*
X119218587Y-111014868D01*
X119218579Y-111014870D01*
X119027403Y-111094058D01*
X118855342Y-111209024D01*
X118709024Y-111355342D01*
X118594058Y-111527403D01*
X118514870Y-111718579D01*
X118514868Y-111718587D01*
X118474500Y-111921530D01*
X118075499Y-111921530D01*
X118035130Y-111718580D01*
X117955941Y-111527402D01*
X117840977Y-111355345D01*
X117840975Y-111355342D01*
X117694657Y-111209024D01*
X117599638Y-111145535D01*
X117522598Y-111094059D01*
X117331420Y-111014870D01*
X117331412Y-111014868D01*
X117128469Y-110974500D01*
X117128465Y-110974500D01*
X116921535Y-110974500D01*
X116921530Y-110974500D01*
X116718587Y-111014868D01*
X116718579Y-111014870D01*
X116527403Y-111094058D01*
X116355342Y-111209024D01*
X116209024Y-111355342D01*
X116094058Y-111527403D01*
X116014870Y-111718579D01*
X116014868Y-111718587D01*
X115974500Y-111921530D01*
X115575499Y-111921530D01*
X115535130Y-111718580D01*
X115455941Y-111527402D01*
X115340977Y-111355345D01*
X115340975Y-111355342D01*
X115194657Y-111209024D01*
X115099638Y-111145535D01*
X115022598Y-111094059D01*
X114831420Y-111014870D01*
X114831412Y-111014868D01*
X114628469Y-110974500D01*
X114628465Y-110974500D01*
X114421535Y-110974500D01*
X114421530Y-110974500D01*
X114218587Y-111014868D01*
X114218579Y-111014870D01*
X114027403Y-111094058D01*
X113855342Y-111209024D01*
X113709024Y-111355342D01*
X113594058Y-111527403D01*
X113514870Y-111718579D01*
X113514868Y-111718587D01*
X113474500Y-111921530D01*
X113075499Y-111921530D01*
X113035130Y-111718580D01*
X112955941Y-111527402D01*
X112840977Y-111355345D01*
X112840975Y-111355342D01*
X112694657Y-111209024D01*
X112599638Y-111145535D01*
X112522598Y-111094059D01*
X112331420Y-111014870D01*
X112331412Y-111014868D01*
X112128469Y-110974500D01*
X112128465Y-110974500D01*
X111921535Y-110974500D01*
X111921530Y-110974500D01*
X111718587Y-111014868D01*
X111718579Y-111014870D01*
X111527403Y-111094058D01*
X111355342Y-111209024D01*
X111209024Y-111355342D01*
X111094058Y-111527403D01*
X111014870Y-111718579D01*
X111014868Y-111718587D01*
X110974500Y-111921530D01*
X107004345Y-111921530D01*
X106982314Y-111899499D01*
X106911030Y-111858343D01*
X106868187Y-111833607D01*
X106804539Y-111816553D01*
X106740892Y-111799499D01*
X106609108Y-111799499D01*
X106481812Y-111833607D01*
X106367686Y-111899499D01*
X106367683Y-111899501D01*
X106274502Y-111992682D01*
X106274500Y-111992685D01*
X106208608Y-112106811D01*
X106190471Y-112174500D01*
X106174500Y-112234107D01*
X94417862Y-112234107D01*
X94371420Y-112214870D01*
X94371412Y-112214868D01*
X94168469Y-112174500D01*
X94168465Y-112174500D01*
X93961535Y-112174500D01*
X93961530Y-112174500D01*
X93758587Y-112214868D01*
X93758579Y-112214870D01*
X93567403Y-112294058D01*
X93395342Y-112409024D01*
X93249024Y-112555342D01*
X93134058Y-112727403D01*
X93054870Y-112918579D01*
X93054868Y-112918587D01*
X93014500Y-113121530D01*
X93014500Y-113328469D01*
X93054868Y-113531412D01*
X93054870Y-113531420D01*
X93134058Y-113722596D01*
X93249024Y-113894657D01*
X93395342Y-114040975D01*
X93395345Y-114040977D01*
X93567402Y-114155941D01*
X93758580Y-114235130D01*
X93802073Y-114243781D01*
X93852856Y-114253883D01*
X93914767Y-114286268D01*
X93949341Y-114346983D01*
X93945602Y-114416753D01*
X93904736Y-114473425D01*
X93839717Y-114499006D01*
X93828665Y-114499500D01*
X91761336Y-114499500D01*
X91694297Y-114479815D01*
X91648542Y-114427011D01*
X91638598Y-114357853D01*
X91667623Y-114294297D01*
X91726401Y-114256523D01*
X91737145Y-114253883D01*
X91778302Y-114245695D01*
X91831421Y-114235130D01*
X92022599Y-114155941D01*
X92194656Y-114040977D01*
X92340978Y-113894655D01*
X92455942Y-113722598D01*
X92535131Y-113531420D01*
X92575501Y-113328465D01*
X92575501Y-113121535D01*
X92535131Y-112918580D01*
X92455942Y-112727402D01*
X92340978Y-112555345D01*
X92340976Y-112555342D01*
X92194658Y-112409024D01*
X92072131Y-112327155D01*
X92022599Y-112294059D01*
X91831421Y-112214870D01*
X91831413Y-112214868D01*
X91628470Y-112174500D01*
X91628466Y-112174500D01*
X91421536Y-112174500D01*
X91421531Y-112174500D01*
X91218588Y-112214868D01*
X91218580Y-112214870D01*
X91027404Y-112294058D01*
X90855343Y-112409024D01*
X90709025Y-112555342D01*
X90594059Y-112727403D01*
X90573562Y-112776888D01*
X90529721Y-112831291D01*
X90463427Y-112853356D01*
X90395727Y-112836077D01*
X90348117Y-112784939D01*
X90335001Y-112729435D01*
X90335001Y-112327172D01*
X90335000Y-112327155D01*
X90328599Y-112267627D01*
X90328597Y-112267620D01*
X90278355Y-112132913D01*
X90278351Y-112132906D01*
X90192191Y-112017812D01*
X90192188Y-112017809D01*
X90077094Y-111931649D01*
X90077087Y-111931645D01*
X89942380Y-111881403D01*
X89942373Y-111881401D01*
X89882845Y-111875000D01*
X89235001Y-111875000D01*
X89235001Y-112791988D01*
X89177994Y-112759075D01*
X89050827Y-112725000D01*
X88919175Y-112725000D01*
X88792008Y-112759075D01*
X88735001Y-112791988D01*
X88735001Y-111875000D01*
X88087156Y-111875000D01*
X88027628Y-111881401D01*
X88027621Y-111881403D01*
X87892914Y-111931645D01*
X87892907Y-111931649D01*
X87777813Y-112017809D01*
X87777810Y-112017812D01*
X87691650Y-112132906D01*
X87691646Y-112132913D01*
X87641404Y-112267620D01*
X87641402Y-112267627D01*
X87635001Y-112327155D01*
X87635001Y-112975000D01*
X88551989Y-112975000D01*
X88519076Y-113032007D01*
X88485001Y-113159174D01*
X88485001Y-113290826D01*
X88519076Y-113417993D01*
X88551989Y-113475000D01*
X87635001Y-113475000D01*
X87635001Y-114122844D01*
X87641402Y-114182372D01*
X87641404Y-114182379D01*
X87694747Y-114325399D01*
X87693243Y-114325959D01*
X87705945Y-114384341D01*
X87681531Y-114449806D01*
X87625600Y-114491680D01*
X87582261Y-114499500D01*
X68506960Y-114499500D01*
X68493077Y-114498720D01*
X68402734Y-114488541D01*
X68375662Y-114482362D01*
X68296464Y-114454649D01*
X68271447Y-114442602D01*
X68200395Y-114397957D01*
X68178686Y-114380644D01*
X68119355Y-114321313D01*
X68102042Y-114299604D01*
X68057395Y-114228549D01*
X68045351Y-114203539D01*
X68017636Y-114124333D01*
X68011458Y-114097268D01*
X68001280Y-114006922D01*
X68000500Y-113993040D01*
X68000500Y-113218995D01*
X77624499Y-113218995D01*
X77651418Y-113354322D01*
X77651421Y-113354332D01*
X77704221Y-113481804D01*
X77704228Y-113481817D01*
X77780885Y-113596541D01*
X77780888Y-113596545D01*
X77878454Y-113694111D01*
X77878458Y-113694114D01*
X77993182Y-113770771D01*
X77993195Y-113770778D01*
X78120667Y-113823578D01*
X78120672Y-113823580D01*
X78120676Y-113823580D01*
X78120677Y-113823581D01*
X78256004Y-113850500D01*
X78256007Y-113850500D01*
X78393995Y-113850500D01*
X78485041Y-113832389D01*
X78529328Y-113823580D01*
X78656811Y-113770775D01*
X78771542Y-113694114D01*
X78869114Y-113596542D01*
X78945775Y-113481811D01*
X78998580Y-113354328D01*
X79008447Y-113304723D01*
X79025500Y-113218995D01*
X84424499Y-113218995D01*
X84451418Y-113354322D01*
X84451421Y-113354332D01*
X84504221Y-113481804D01*
X84504228Y-113481817D01*
X84580885Y-113596541D01*
X84580888Y-113596545D01*
X84678454Y-113694111D01*
X84678458Y-113694114D01*
X84793182Y-113770771D01*
X84793195Y-113770778D01*
X84920667Y-113823578D01*
X84920672Y-113823580D01*
X84920676Y-113823580D01*
X84920677Y-113823581D01*
X85056004Y-113850500D01*
X85056007Y-113850500D01*
X85193995Y-113850500D01*
X85285041Y-113832389D01*
X85329328Y-113823580D01*
X85456811Y-113770775D01*
X85571542Y-113694114D01*
X85669114Y-113596542D01*
X85745775Y-113481811D01*
X85798580Y-113354328D01*
X85808447Y-113304723D01*
X85825500Y-113218995D01*
X85825500Y-113081004D01*
X85798581Y-112945677D01*
X85798580Y-112945676D01*
X85798580Y-112945672D01*
X85791786Y-112929269D01*
X85745778Y-112818195D01*
X85745771Y-112818182D01*
X85669114Y-112703458D01*
X85669111Y-112703454D01*
X85571545Y-112605888D01*
X85571541Y-112605885D01*
X85456817Y-112529228D01*
X85456804Y-112529221D01*
X85329332Y-112476421D01*
X85329322Y-112476418D01*
X85193995Y-112449500D01*
X85193993Y-112449500D01*
X85056007Y-112449500D01*
X85056005Y-112449500D01*
X84920677Y-112476418D01*
X84920667Y-112476421D01*
X84793195Y-112529221D01*
X84793182Y-112529228D01*
X84678458Y-112605885D01*
X84678454Y-112605888D01*
X84580888Y-112703454D01*
X84580885Y-112703458D01*
X84504228Y-112818182D01*
X84504221Y-112818195D01*
X84451421Y-112945667D01*
X84451418Y-112945677D01*
X84424500Y-113081004D01*
X84424500Y-113081007D01*
X84424500Y-113218993D01*
X84424500Y-113218995D01*
X84424499Y-113218995D01*
X79025500Y-113218995D01*
X79025500Y-113081004D01*
X78998581Y-112945677D01*
X78998580Y-112945676D01*
X78998580Y-112945672D01*
X78991786Y-112929269D01*
X78945778Y-112818195D01*
X78945771Y-112818182D01*
X78869114Y-112703458D01*
X78869111Y-112703454D01*
X78771545Y-112605888D01*
X78771541Y-112605885D01*
X78656817Y-112529228D01*
X78656804Y-112529221D01*
X78529332Y-112476421D01*
X78529322Y-112476418D01*
X78393995Y-112449500D01*
X78393993Y-112449500D01*
X78256007Y-112449500D01*
X78256005Y-112449500D01*
X78120677Y-112476418D01*
X78120667Y-112476421D01*
X77993195Y-112529221D01*
X77993182Y-112529228D01*
X77878458Y-112605885D01*
X77878454Y-112605888D01*
X77780888Y-112703454D01*
X77780885Y-112703458D01*
X77704228Y-112818182D01*
X77704221Y-112818195D01*
X77651421Y-112945667D01*
X77651418Y-112945677D01*
X77624500Y-113081004D01*
X77624500Y-113081007D01*
X77624500Y-113218993D01*
X77624500Y-113218995D01*
X77624499Y-113218995D01*
X68000500Y-113218995D01*
X68000500Y-109683650D01*
X105697370Y-109683650D01*
X105697370Y-109815433D01*
X105731478Y-109942729D01*
X105764424Y-109999792D01*
X105797370Y-110056856D01*
X105890556Y-110150042D01*
X106004684Y-110215934D01*
X106131978Y-110250042D01*
X106131980Y-110250042D01*
X106263760Y-110250042D01*
X106263762Y-110250042D01*
X106391056Y-110215934D01*
X106505184Y-110150042D01*
X106598370Y-110056856D01*
X106664262Y-109942728D01*
X106698370Y-109815434D01*
X106698370Y-109683650D01*
X106664262Y-109556356D01*
X106598370Y-109442228D01*
X106598365Y-109442223D01*
X106596065Y-109439225D01*
X106594908Y-109436233D01*
X106594306Y-109435190D01*
X106594468Y-109435096D01*
X106570869Y-109374057D01*
X106584906Y-109305612D01*
X106606757Y-109276056D01*
X106625500Y-109257314D01*
X106691392Y-109143186D01*
X106725500Y-109015892D01*
X106725500Y-108884108D01*
X106691392Y-108756814D01*
X106625500Y-108642686D01*
X106532314Y-108549500D01*
X106475250Y-108516554D01*
X106418187Y-108483608D01*
X106325365Y-108458737D01*
X106290892Y-108449500D01*
X106159108Y-108449500D01*
X106031812Y-108483608D01*
X105917686Y-108549500D01*
X105917683Y-108549502D01*
X105824502Y-108642683D01*
X105824500Y-108642686D01*
X105758608Y-108756812D01*
X105724500Y-108884108D01*
X105724500Y-109015891D01*
X105758608Y-109143187D01*
X105791554Y-109200250D01*
X105824500Y-109257314D01*
X105824503Y-109257317D01*
X105826805Y-109260317D01*
X105827961Y-109263308D01*
X105828564Y-109264352D01*
X105828401Y-109264445D01*
X105852000Y-109325486D01*
X105837963Y-109393931D01*
X105816113Y-109423484D01*
X105797373Y-109442224D01*
X105797370Y-109442228D01*
X105731478Y-109556354D01*
X105697370Y-109683650D01*
X68000500Y-109683650D01*
X68000500Y-108700162D01*
X86317024Y-108700162D01*
X86317024Y-108831945D01*
X86351132Y-108959241D01*
X86383839Y-109015890D01*
X86417024Y-109073368D01*
X86510210Y-109166554D01*
X86624338Y-109232446D01*
X86751632Y-109266554D01*
X86751634Y-109266554D01*
X86883414Y-109266554D01*
X86883416Y-109266554D01*
X87010710Y-109232446D01*
X87124838Y-109166554D01*
X87218024Y-109073368D01*
X87283916Y-108959240D01*
X87318024Y-108831946D01*
X87318024Y-108700162D01*
X87283916Y-108572868D01*
X87218024Y-108458740D01*
X87124838Y-108365554D01*
X87067774Y-108332608D01*
X87010711Y-108299662D01*
X86947063Y-108282608D01*
X86883416Y-108265554D01*
X86751632Y-108265554D01*
X86624336Y-108299662D01*
X86510210Y-108365554D01*
X86510207Y-108365556D01*
X86417026Y-108458737D01*
X86417024Y-108458740D01*
X86351132Y-108572866D01*
X86317024Y-108700162D01*
X68000500Y-108700162D01*
X68000500Y-106809108D01*
X74652000Y-106809108D01*
X74652000Y-106940892D01*
X74662048Y-106978391D01*
X74686108Y-107068187D01*
X74707759Y-107105687D01*
X74752000Y-107182314D01*
X74845186Y-107275500D01*
X74959314Y-107341392D01*
X75086608Y-107375500D01*
X75086610Y-107375500D01*
X75218390Y-107375500D01*
X75218392Y-107375500D01*
X75345686Y-107341392D01*
X75459814Y-107275500D01*
X75553000Y-107182314D01*
X75618892Y-107068186D01*
X75628023Y-107034108D01*
X88999500Y-107034108D01*
X88999500Y-107165891D01*
X89033608Y-107293187D01*
X89061439Y-107341391D01*
X89099500Y-107407314D01*
X89192686Y-107500500D01*
X89306814Y-107566392D01*
X89434108Y-107600500D01*
X89434110Y-107600500D01*
X89565890Y-107600500D01*
X89565892Y-107600500D01*
X89693186Y-107566392D01*
X89807314Y-107500500D01*
X89900500Y-107407314D01*
X89966392Y-107293186D01*
X90000500Y-107165892D01*
X90000500Y-107034108D01*
X89966392Y-106906814D01*
X89966391Y-106906812D01*
X89966391Y-106906811D01*
X89962737Y-106900483D01*
X89962736Y-106900481D01*
X89931632Y-106846608D01*
X104224500Y-106846608D01*
X104224500Y-106978392D01*
X104228652Y-106993887D01*
X104258608Y-107105687D01*
X104291554Y-107162750D01*
X104324500Y-107219814D01*
X104417686Y-107313000D01*
X104531814Y-107378892D01*
X104659108Y-107413000D01*
X104659110Y-107413000D01*
X104790890Y-107413000D01*
X104790892Y-107413000D01*
X104918186Y-107378892D01*
X105032314Y-107313000D01*
X105125500Y-107219814D01*
X105191392Y-107105686D01*
X105225500Y-106978392D01*
X105225500Y-106846608D01*
X105191392Y-106719314D01*
X105125500Y-106605186D01*
X105032314Y-106512000D01*
X104967362Y-106474500D01*
X104918187Y-106446108D01*
X104854539Y-106429054D01*
X104790892Y-106412000D01*
X104659108Y-106412000D01*
X104531812Y-106446108D01*
X104417686Y-106512000D01*
X104417683Y-106512002D01*
X104324502Y-106605183D01*
X104324500Y-106605186D01*
X104258608Y-106719312D01*
X104238949Y-106792683D01*
X104224500Y-106846608D01*
X89931632Y-106846608D01*
X89909981Y-106809108D01*
X89900500Y-106792686D01*
X89807314Y-106699500D01*
X89750250Y-106666554D01*
X89693187Y-106633608D01*
X89629539Y-106616554D01*
X89565892Y-106599500D01*
X89434108Y-106599500D01*
X89306812Y-106633608D01*
X89192686Y-106699500D01*
X89192683Y-106699502D01*
X89099502Y-106792683D01*
X89099500Y-106792686D01*
X89033608Y-106906812D01*
X88999500Y-107034108D01*
X75628023Y-107034108D01*
X75653000Y-106940892D01*
X75653000Y-106809108D01*
X75618892Y-106681814D01*
X75553000Y-106567686D01*
X75459814Y-106474500D01*
X75402750Y-106441554D01*
X75345687Y-106408608D01*
X75282039Y-106391554D01*
X75218392Y-106374500D01*
X75086608Y-106374500D01*
X74959312Y-106408608D01*
X74845186Y-106474500D01*
X74845183Y-106474502D01*
X74752002Y-106567683D01*
X74752000Y-106567686D01*
X74686108Y-106681812D01*
X74676060Y-106719314D01*
X74652000Y-106809108D01*
X68000500Y-106809108D01*
X68000500Y-104669310D01*
X104224501Y-104669310D01*
X104224501Y-104801093D01*
X104258609Y-104928389D01*
X104291555Y-104985452D01*
X104324501Y-105042516D01*
X104417687Y-105135702D01*
X104531815Y-105201594D01*
X104659109Y-105235702D01*
X104659111Y-105235702D01*
X104790891Y-105235702D01*
X104790893Y-105235702D01*
X104918187Y-105201594D01*
X105032315Y-105135702D01*
X105125501Y-105042516D01*
X105191393Y-104928388D01*
X105225501Y-104801094D01*
X105225501Y-104669310D01*
X110524499Y-104669310D01*
X110524499Y-104801093D01*
X110558607Y-104928389D01*
X110591553Y-104985452D01*
X110624499Y-105042516D01*
X110717685Y-105135702D01*
X110831813Y-105201594D01*
X110959107Y-105235702D01*
X110959109Y-105235702D01*
X111090889Y-105235702D01*
X111090891Y-105235702D01*
X111218185Y-105201594D01*
X111332313Y-105135702D01*
X111425499Y-105042516D01*
X111491391Y-104928388D01*
X111525499Y-104801094D01*
X111525499Y-104669310D01*
X111491391Y-104542016D01*
X111425499Y-104427888D01*
X111332313Y-104334702D01*
X111275249Y-104301756D01*
X111218186Y-104268810D01*
X111154538Y-104251756D01*
X111090891Y-104234702D01*
X110959107Y-104234702D01*
X110831811Y-104268810D01*
X110717685Y-104334702D01*
X110717682Y-104334704D01*
X110624501Y-104427885D01*
X110624499Y-104427888D01*
X110558607Y-104542014D01*
X110524499Y-104669310D01*
X105225501Y-104669310D01*
X105191393Y-104542016D01*
X105125501Y-104427888D01*
X105032315Y-104334702D01*
X104975251Y-104301756D01*
X104918188Y-104268810D01*
X104854540Y-104251756D01*
X104790893Y-104234702D01*
X104659109Y-104234702D01*
X104531813Y-104268810D01*
X104417687Y-104334702D01*
X104417684Y-104334704D01*
X104324503Y-104427885D01*
X104324501Y-104427888D01*
X104258609Y-104542014D01*
X104224501Y-104669310D01*
X68000500Y-104669310D01*
X68000500Y-104069310D01*
X91809702Y-104069310D01*
X91809702Y-104201093D01*
X91843810Y-104328389D01*
X91876756Y-104385452D01*
X91909702Y-104442516D01*
X92002888Y-104535702D01*
X92101723Y-104592765D01*
X92117012Y-104601592D01*
X92117016Y-104601594D01*
X92244310Y-104635702D01*
X92244312Y-104635702D01*
X92376092Y-104635702D01*
X92376094Y-104635702D01*
X92503388Y-104601594D01*
X92617516Y-104535702D01*
X92710702Y-104442516D01*
X92776594Y-104328388D01*
X92810702Y-104201094D01*
X92810702Y-104069310D01*
X92776594Y-103942016D01*
X92710702Y-103827888D01*
X92617516Y-103734702D01*
X92560452Y-103701756D01*
X92503389Y-103668810D01*
X92439741Y-103651756D01*
X92376094Y-103634702D01*
X92244310Y-103634702D01*
X92117014Y-103668810D01*
X92002888Y-103734702D01*
X92002885Y-103734704D01*
X91909704Y-103827885D01*
X91909702Y-103827888D01*
X91843810Y-103942014D01*
X91809702Y-104069310D01*
X68000500Y-104069310D01*
X68000500Y-103186100D01*
X93026492Y-103186100D01*
X93026492Y-103317883D01*
X93060600Y-103445179D01*
X93093546Y-103502242D01*
X93126492Y-103559306D01*
X93219678Y-103652492D01*
X93333806Y-103718384D01*
X93461100Y-103752492D01*
X93461102Y-103752492D01*
X93592882Y-103752492D01*
X93592884Y-103752492D01*
X93720178Y-103718384D01*
X93834306Y-103652492D01*
X93927492Y-103559306D01*
X93993384Y-103445178D01*
X94027492Y-103317884D01*
X94027492Y-103186100D01*
X93993384Y-103058806D01*
X93927492Y-102944678D01*
X93834306Y-102851492D01*
X93777242Y-102818546D01*
X93720179Y-102785600D01*
X93656531Y-102768546D01*
X93592884Y-102751492D01*
X93461100Y-102751492D01*
X93333804Y-102785600D01*
X93219678Y-102851492D01*
X93219675Y-102851494D01*
X93126494Y-102944675D01*
X93126492Y-102944678D01*
X93060600Y-103058804D01*
X93026492Y-103186100D01*
X68000500Y-103186100D01*
X68000500Y-101859108D01*
X75922000Y-101859108D01*
X75922000Y-101990891D01*
X75956108Y-102118187D01*
X75980745Y-102160859D01*
X76022000Y-102232314D01*
X76115186Y-102325500D01*
X76229314Y-102391392D01*
X76356608Y-102425500D01*
X76356610Y-102425500D01*
X76488390Y-102425500D01*
X76488392Y-102425500D01*
X76615686Y-102391392D01*
X76729814Y-102325500D01*
X76823000Y-102232314D01*
X76888892Y-102118186D01*
X76923000Y-101990892D01*
X76923000Y-101859108D01*
X76909603Y-101809108D01*
X83949500Y-101809108D01*
X83949500Y-101940892D01*
X83962897Y-101990890D01*
X83983608Y-102068187D01*
X84012476Y-102118186D01*
X84049500Y-102182314D01*
X84142686Y-102275500D01*
X84256814Y-102341392D01*
X84384108Y-102375500D01*
X84384110Y-102375500D01*
X84515890Y-102375500D01*
X84515892Y-102375500D01*
X84643186Y-102341392D01*
X84735395Y-102288155D01*
X97870247Y-102288155D01*
X97870247Y-102419938D01*
X97904355Y-102547234D01*
X97937301Y-102604297D01*
X97970247Y-102661361D01*
X98063433Y-102754547D01*
X98177561Y-102820439D01*
X98304855Y-102854547D01*
X98304857Y-102854547D01*
X98436637Y-102854547D01*
X98436639Y-102854547D01*
X98563933Y-102820439D01*
X98678061Y-102754547D01*
X98771247Y-102661361D01*
X98837139Y-102547233D01*
X98871247Y-102419939D01*
X98871247Y-102288155D01*
X98837139Y-102160861D01*
X98771247Y-102046733D01*
X98678061Y-101953547D01*
X98620997Y-101920601D01*
X98563934Y-101887655D01*
X98500286Y-101870601D01*
X98436639Y-101853547D01*
X98304855Y-101853547D01*
X98177559Y-101887655D01*
X98063433Y-101953547D01*
X98063430Y-101953549D01*
X97970249Y-102046730D01*
X97970247Y-102046733D01*
X97904355Y-102160859D01*
X97870247Y-102288155D01*
X84735395Y-102288155D01*
X84757314Y-102275500D01*
X84850500Y-102182314D01*
X84916392Y-102068186D01*
X84950500Y-101940892D01*
X84950500Y-101809108D01*
X84916392Y-101681814D01*
X84850500Y-101567686D01*
X84757314Y-101474500D01*
X84670712Y-101424500D01*
X84643187Y-101408608D01*
X84579539Y-101391554D01*
X84515892Y-101374500D01*
X84384108Y-101374500D01*
X84256812Y-101408608D01*
X84142686Y-101474500D01*
X84142683Y-101474502D01*
X84049502Y-101567683D01*
X84049500Y-101567686D01*
X83983608Y-101681812D01*
X83968984Y-101736391D01*
X83949500Y-101809108D01*
X76909603Y-101809108D01*
X76888892Y-101731814D01*
X76823000Y-101617686D01*
X76729814Y-101524500D01*
X76672750Y-101491554D01*
X76615687Y-101458608D01*
X76552039Y-101441554D01*
X76488392Y-101424500D01*
X76356608Y-101424500D01*
X76229312Y-101458608D01*
X76115186Y-101524500D01*
X76115183Y-101524502D01*
X76022002Y-101617683D01*
X76022000Y-101617686D01*
X75956108Y-101731812D01*
X75922000Y-101859108D01*
X68000500Y-101859108D01*
X68000500Y-99874038D01*
X69899500Y-99874038D01*
X69899500Y-100125962D01*
X69915224Y-100225237D01*
X69938910Y-100374785D01*
X70016760Y-100614383D01*
X70095127Y-100768186D01*
X70127803Y-100832316D01*
X70131132Y-100838848D01*
X70279201Y-101042649D01*
X70279205Y-101042654D01*
X70457345Y-101220794D01*
X70457350Y-101220798D01*
X70635117Y-101349952D01*
X70661155Y-101368870D01*
X70804184Y-101441747D01*
X70885616Y-101483239D01*
X70885618Y-101483239D01*
X70885621Y-101483241D01*
X71125215Y-101561090D01*
X71374038Y-101600500D01*
X71374039Y-101600500D01*
X71625961Y-101600500D01*
X71625962Y-101600500D01*
X71874785Y-101561090D01*
X72114379Y-101483241D01*
X72338845Y-101368870D01*
X72542656Y-101220793D01*
X72559341Y-101204108D01*
X117359500Y-101204108D01*
X117359500Y-101335891D01*
X117393608Y-101463187D01*
X117426554Y-101520250D01*
X117459500Y-101577314D01*
X117552686Y-101670500D01*
X117666814Y-101736392D01*
X117794108Y-101770500D01*
X117794110Y-101770500D01*
X117925890Y-101770500D01*
X117925892Y-101770500D01*
X118053186Y-101736392D01*
X118167314Y-101670500D01*
X118260500Y-101577314D01*
X118326392Y-101463186D01*
X118360500Y-101335892D01*
X118360500Y-101204108D01*
X118326392Y-101076814D01*
X118325633Y-101075500D01*
X118306671Y-101042656D01*
X118260500Y-100962686D01*
X118167314Y-100869500D01*
X118102906Y-100832314D01*
X118053187Y-100803608D01*
X117989539Y-100786554D01*
X117925892Y-100769500D01*
X117794108Y-100769500D01*
X117666812Y-100803608D01*
X117552686Y-100869500D01*
X117552683Y-100869502D01*
X117459502Y-100962683D01*
X117459500Y-100962686D01*
X117393608Y-101076812D01*
X117359500Y-101204108D01*
X72559341Y-101204108D01*
X72720793Y-101042656D01*
X72868870Y-100838845D01*
X72983241Y-100614379D01*
X73061090Y-100374785D01*
X73100500Y-100125962D01*
X73100500Y-99934108D01*
X74652000Y-99934108D01*
X74652000Y-100065892D01*
X74655836Y-100080208D01*
X74686108Y-100193187D01*
X74713651Y-100240892D01*
X74752000Y-100307314D01*
X74845186Y-100400500D01*
X74959314Y-100466392D01*
X75086608Y-100500500D01*
X75086610Y-100500500D01*
X75218390Y-100500500D01*
X75218392Y-100500500D01*
X75345686Y-100466392D01*
X75358302Y-100459108D01*
X77974500Y-100459108D01*
X77974500Y-100590892D01*
X77987897Y-100640890D01*
X78008608Y-100718187D01*
X78037476Y-100768186D01*
X78074500Y-100832314D01*
X78167686Y-100925500D01*
X78281814Y-100991392D01*
X78409108Y-101025500D01*
X78409110Y-101025500D01*
X78540890Y-101025500D01*
X78540892Y-101025500D01*
X78668186Y-100991392D01*
X78782314Y-100925500D01*
X78875500Y-100832314D01*
X78941392Y-100718186D01*
X78975500Y-100590892D01*
X78975500Y-100459108D01*
X78941392Y-100331814D01*
X78875500Y-100217686D01*
X78782314Y-100124500D01*
X78708482Y-100081873D01*
X78668187Y-100058608D01*
X78602068Y-100040892D01*
X78540892Y-100024500D01*
X78409108Y-100024500D01*
X78281812Y-100058608D01*
X78167686Y-100124500D01*
X78167683Y-100124502D01*
X78074502Y-100217683D01*
X78074500Y-100217686D01*
X78008608Y-100331812D01*
X77990204Y-100400499D01*
X77974500Y-100459108D01*
X75358302Y-100459108D01*
X75459814Y-100400500D01*
X75553000Y-100307314D01*
X75618892Y-100193186D01*
X75653000Y-100065892D01*
X75653000Y-99934108D01*
X75618892Y-99806814D01*
X75553000Y-99692686D01*
X75459814Y-99599500D01*
X75426029Y-99579994D01*
X75426028Y-99579993D01*
X75345689Y-99533609D01*
X75345686Y-99533608D01*
X75218392Y-99499500D01*
X75086608Y-99499500D01*
X74959312Y-99533608D01*
X74845186Y-99599500D01*
X74845183Y-99599502D01*
X74752002Y-99692683D01*
X74752000Y-99692686D01*
X74686108Y-99806812D01*
X74660802Y-99901259D01*
X74652000Y-99934108D01*
X73100500Y-99934108D01*
X73100500Y-99874038D01*
X73061090Y-99625215D01*
X73014145Y-99480735D01*
X84768171Y-99480735D01*
X84768171Y-99612518D01*
X84802279Y-99739814D01*
X84822307Y-99774502D01*
X84868171Y-99853941D01*
X84961357Y-99947127D01*
X85075485Y-100013019D01*
X85202779Y-100047127D01*
X85202781Y-100047127D01*
X85334561Y-100047127D01*
X85334563Y-100047127D01*
X85334564Y-100047126D01*
X85339375Y-100046493D01*
X85408411Y-100057255D01*
X85460669Y-100103632D01*
X85475341Y-100137336D01*
X85483607Y-100168184D01*
X85483607Y-100168185D01*
X85498042Y-100193186D01*
X85549500Y-100282314D01*
X85642686Y-100375500D01*
X85756814Y-100441392D01*
X85884108Y-100475500D01*
X85884110Y-100475500D01*
X86015890Y-100475500D01*
X86015892Y-100475500D01*
X86043408Y-100468127D01*
X86113256Y-100469790D01*
X86171119Y-100508952D01*
X86198623Y-100573181D01*
X86199500Y-100587902D01*
X86199500Y-100640891D01*
X86233608Y-100768187D01*
X86266554Y-100825250D01*
X86299500Y-100882314D01*
X86392686Y-100975500D01*
X86506814Y-101041392D01*
X86634108Y-101075500D01*
X86634110Y-101075500D01*
X86765890Y-101075500D01*
X86765892Y-101075500D01*
X86893186Y-101041392D01*
X87007314Y-100975500D01*
X87100500Y-100882314D01*
X87166392Y-100768186D01*
X87200500Y-100640892D01*
X87200500Y-100559843D01*
X88026708Y-100559843D01*
X88026708Y-100691627D01*
X88033825Y-100718187D01*
X88060816Y-100818922D01*
X88072319Y-100838845D01*
X88126708Y-100933049D01*
X88219894Y-101026235D01*
X88307496Y-101076812D01*
X88334018Y-101092125D01*
X88334022Y-101092127D01*
X88461316Y-101126235D01*
X88461318Y-101126235D01*
X88593098Y-101126235D01*
X88593100Y-101126235D01*
X88720394Y-101092127D01*
X88721144Y-101091693D01*
X88726513Y-101088595D01*
X88726514Y-101088594D01*
X88751431Y-101074207D01*
X88834522Y-101026235D01*
X88927708Y-100933049D01*
X88993600Y-100818921D01*
X89027708Y-100691627D01*
X89027708Y-100559843D01*
X88993600Y-100432549D01*
X88927708Y-100318421D01*
X88834522Y-100225235D01*
X88777458Y-100192289D01*
X88720395Y-100159343D01*
X88638262Y-100137336D01*
X88593100Y-100125235D01*
X88461316Y-100125235D01*
X88334020Y-100159343D01*
X88219894Y-100225235D01*
X88219891Y-100225237D01*
X88126710Y-100318418D01*
X88126708Y-100318421D01*
X88060816Y-100432547D01*
X88047481Y-100482316D01*
X88026708Y-100559843D01*
X87200500Y-100559843D01*
X87200500Y-100509108D01*
X87166392Y-100381814D01*
X87100500Y-100267686D01*
X87007314Y-100174500D01*
X86923244Y-100125962D01*
X86893187Y-100108608D01*
X86829539Y-100091554D01*
X86765892Y-100074500D01*
X86634108Y-100074500D01*
X86606590Y-100081873D01*
X86536740Y-100080208D01*
X86478879Y-100041044D01*
X86451377Y-99976815D01*
X86450500Y-99962097D01*
X86450500Y-99909110D01*
X86450500Y-99909108D01*
X86416392Y-99781814D01*
X86350500Y-99667686D01*
X86266922Y-99584108D01*
X106949500Y-99584108D01*
X106949500Y-99715891D01*
X106983608Y-99843187D01*
X106997751Y-99867683D01*
X107049500Y-99957314D01*
X107142686Y-100050500D01*
X107256814Y-100116392D01*
X107384108Y-100150500D01*
X107384110Y-100150500D01*
X107515890Y-100150500D01*
X107515892Y-100150500D01*
X107643186Y-100116392D01*
X107655802Y-100109108D01*
X110274500Y-100109108D01*
X110274500Y-100240892D01*
X110291554Y-100304539D01*
X110308608Y-100368187D01*
X110341554Y-100425250D01*
X110374500Y-100482314D01*
X110467686Y-100575500D01*
X110566521Y-100632563D01*
X110580944Y-100640890D01*
X110581814Y-100641392D01*
X110709108Y-100675500D01*
X110709110Y-100675500D01*
X110840890Y-100675500D01*
X110840892Y-100675500D01*
X110968186Y-100641392D01*
X111082314Y-100575500D01*
X111175500Y-100482314D01*
X111241392Y-100368186D01*
X111275500Y-100240892D01*
X111275500Y-100109108D01*
X111241392Y-99981814D01*
X111241390Y-99981811D01*
X111241391Y-99981811D01*
X111213849Y-99934108D01*
X117359501Y-99934108D01*
X117359501Y-100065892D01*
X117363337Y-100080208D01*
X117393609Y-100193187D01*
X117421152Y-100240892D01*
X117459501Y-100307314D01*
X117552687Y-100400500D01*
X117666815Y-100466392D01*
X117794109Y-100500500D01*
X117794111Y-100500500D01*
X117925891Y-100500500D01*
X117925893Y-100500500D01*
X118053187Y-100466392D01*
X118167315Y-100400500D01*
X118260501Y-100307314D01*
X118326393Y-100193186D01*
X118360501Y-100065892D01*
X118360501Y-99934108D01*
X118344405Y-99874038D01*
X126899500Y-99874038D01*
X126899500Y-100125962D01*
X126915224Y-100225237D01*
X126938910Y-100374785D01*
X127016760Y-100614383D01*
X127095127Y-100768186D01*
X127127803Y-100832316D01*
X127131132Y-100838848D01*
X127279201Y-101042649D01*
X127279205Y-101042654D01*
X127457345Y-101220794D01*
X127457350Y-101220798D01*
X127635117Y-101349952D01*
X127661155Y-101368870D01*
X127804184Y-101441747D01*
X127885616Y-101483239D01*
X127885618Y-101483239D01*
X127885621Y-101483241D01*
X128125215Y-101561090D01*
X128374038Y-101600500D01*
X128374039Y-101600500D01*
X128625961Y-101600500D01*
X128625962Y-101600500D01*
X128874785Y-101561090D01*
X129114379Y-101483241D01*
X129338845Y-101368870D01*
X129542656Y-101220793D01*
X129720793Y-101042656D01*
X129868870Y-100838845D01*
X129983241Y-100614379D01*
X130061090Y-100374785D01*
X130100500Y-100125962D01*
X130100500Y-99874038D01*
X130061090Y-99625215D01*
X129983241Y-99385621D01*
X129983239Y-99385618D01*
X129983239Y-99385616D01*
X129908693Y-99239313D01*
X129868870Y-99161155D01*
X129818184Y-99091391D01*
X129720798Y-98957350D01*
X129720794Y-98957345D01*
X129542654Y-98779205D01*
X129542649Y-98779201D01*
X129338848Y-98631132D01*
X129338847Y-98631131D01*
X129338845Y-98631130D01*
X129251148Y-98586446D01*
X129114383Y-98516760D01*
X128874785Y-98438910D01*
X128833140Y-98432314D01*
X128625962Y-98399500D01*
X128374038Y-98399500D01*
X128267393Y-98416391D01*
X128125214Y-98438910D01*
X127885616Y-98516760D01*
X127661151Y-98631132D01*
X127457350Y-98779201D01*
X127457345Y-98779205D01*
X127279205Y-98957345D01*
X127279201Y-98957350D01*
X127131132Y-99161151D01*
X127016760Y-99385616D01*
X126938910Y-99625214D01*
X126904386Y-99843187D01*
X126899500Y-99874038D01*
X118344405Y-99874038D01*
X118326393Y-99806814D01*
X118260501Y-99692686D01*
X118167315Y-99599500D01*
X118110251Y-99566554D01*
X118053188Y-99533608D01*
X117989540Y-99516554D01*
X117925893Y-99499500D01*
X117794109Y-99499500D01*
X117666813Y-99533608D01*
X117552687Y-99599500D01*
X117552684Y-99599502D01*
X117459503Y-99692683D01*
X117459501Y-99692686D01*
X117393609Y-99806812D01*
X117368303Y-99901259D01*
X117359501Y-99934108D01*
X111213849Y-99934108D01*
X111175502Y-99867689D01*
X111175497Y-99867683D01*
X111082316Y-99774502D01*
X111082314Y-99774500D01*
X111022235Y-99739813D01*
X110968187Y-99708608D01*
X110904539Y-99691554D01*
X110840892Y-99674500D01*
X110709108Y-99674500D01*
X110581812Y-99708608D01*
X110467686Y-99774500D01*
X110467683Y-99774502D01*
X110374502Y-99867683D01*
X110374500Y-99867686D01*
X110308608Y-99981812D01*
X110275967Y-100103632D01*
X110274500Y-100109108D01*
X107655802Y-100109108D01*
X107757314Y-100050500D01*
X107850500Y-99957314D01*
X107916392Y-99843186D01*
X107950500Y-99715892D01*
X107950500Y-99584108D01*
X107916392Y-99456814D01*
X107914279Y-99453155D01*
X107893974Y-99417985D01*
X107850500Y-99342686D01*
X107757314Y-99249500D01*
X107700250Y-99216554D01*
X107643187Y-99183608D01*
X107559389Y-99161155D01*
X107515892Y-99149500D01*
X107384108Y-99149500D01*
X107256812Y-99183608D01*
X107142686Y-99249500D01*
X107142683Y-99249502D01*
X107049502Y-99342683D01*
X107049500Y-99342686D01*
X106983608Y-99456812D01*
X106949500Y-99584108D01*
X86266922Y-99584108D01*
X86257314Y-99574500D01*
X86186487Y-99533608D01*
X86143187Y-99508608D01*
X86063528Y-99487264D01*
X86015892Y-99474500D01*
X85884108Y-99474500D01*
X85884107Y-99474500D01*
X85879284Y-99475135D01*
X85810249Y-99464367D01*
X85757995Y-99417985D01*
X85743328Y-99384288D01*
X85735062Y-99353439D01*
X85700790Y-99294079D01*
X85669171Y-99239313D01*
X85575985Y-99146127D01*
X85518921Y-99113181D01*
X85461858Y-99080235D01*
X85398210Y-99063181D01*
X85334563Y-99046127D01*
X85202779Y-99046127D01*
X85075483Y-99080235D01*
X84961357Y-99146127D01*
X84961354Y-99146129D01*
X84868173Y-99239310D01*
X84868171Y-99239313D01*
X84802279Y-99353439D01*
X84768171Y-99480735D01*
X73014145Y-99480735D01*
X72983241Y-99385621D01*
X72983239Y-99385618D01*
X72983239Y-99385616D01*
X72908693Y-99239313D01*
X72868870Y-99161155D01*
X72818184Y-99091391D01*
X72720798Y-98957350D01*
X72720794Y-98957345D01*
X72542654Y-98779205D01*
X72542649Y-98779201D01*
X72338848Y-98631132D01*
X72338847Y-98631131D01*
X72338845Y-98631130D01*
X72251148Y-98586446D01*
X72197495Y-98559108D01*
X86874500Y-98559108D01*
X86874500Y-98690892D01*
X86891554Y-98754539D01*
X86908608Y-98818187D01*
X86941554Y-98875250D01*
X86974500Y-98932314D01*
X87067686Y-99025500D01*
X87181814Y-99091392D01*
X87309108Y-99125500D01*
X87309110Y-99125500D01*
X87440890Y-99125500D01*
X87440892Y-99125500D01*
X87568186Y-99091392D01*
X87682314Y-99025500D01*
X87775500Y-98932314D01*
X87841392Y-98818186D01*
X87875500Y-98690892D01*
X87875500Y-98559108D01*
X87841392Y-98431814D01*
X87775500Y-98317686D01*
X87682314Y-98224500D01*
X87568186Y-98158608D01*
X87440892Y-98124500D01*
X87309108Y-98124500D01*
X87181812Y-98158608D01*
X87067686Y-98224500D01*
X87067683Y-98224502D01*
X86974502Y-98317683D01*
X86974500Y-98317686D01*
X86908608Y-98431812D01*
X86903601Y-98450499D01*
X86874500Y-98559108D01*
X72197495Y-98559108D01*
X72114383Y-98516760D01*
X71874785Y-98438910D01*
X71833140Y-98432314D01*
X71625962Y-98399500D01*
X71374038Y-98399500D01*
X71267393Y-98416391D01*
X71125214Y-98438910D01*
X70885616Y-98516760D01*
X70661151Y-98631132D01*
X70457350Y-98779201D01*
X70457345Y-98779205D01*
X70279205Y-98957345D01*
X70279201Y-98957350D01*
X70131132Y-99161151D01*
X70016760Y-99385616D01*
X69938910Y-99625214D01*
X69904386Y-99843187D01*
X69899500Y-99874038D01*
X68000500Y-99874038D01*
X68000500Y-97884108D01*
X81574500Y-97884108D01*
X81574500Y-98015891D01*
X81608608Y-98143187D01*
X81636151Y-98190892D01*
X81674500Y-98257314D01*
X81767686Y-98350500D01*
X81881814Y-98416392D01*
X82009108Y-98450500D01*
X82009110Y-98450500D01*
X82140890Y-98450500D01*
X82140892Y-98450500D01*
X82268186Y-98416392D01*
X82382314Y-98350500D01*
X82475500Y-98257314D01*
X82541392Y-98143186D01*
X82575500Y-98015892D01*
X82575500Y-97884108D01*
X82562103Y-97834108D01*
X82999500Y-97834108D01*
X82999500Y-97965891D01*
X83033608Y-98093187D01*
X83051687Y-98124500D01*
X83099500Y-98207314D01*
X83192686Y-98300500D01*
X83306814Y-98366392D01*
X83434108Y-98400500D01*
X83434110Y-98400500D01*
X83565890Y-98400500D01*
X83565892Y-98400500D01*
X83693186Y-98366392D01*
X83807314Y-98300500D01*
X83900500Y-98207314D01*
X83966392Y-98093186D01*
X84000500Y-97965892D01*
X84000500Y-97896197D01*
X85412411Y-97896197D01*
X85412411Y-98027981D01*
X85420752Y-98059110D01*
X85446519Y-98155276D01*
X85476563Y-98207313D01*
X85512411Y-98269403D01*
X85605597Y-98362589D01*
X85669529Y-98399500D01*
X85719721Y-98428479D01*
X85719725Y-98428481D01*
X85847019Y-98462589D01*
X85847021Y-98462589D01*
X85978801Y-98462589D01*
X85978803Y-98462589D01*
X86106097Y-98428481D01*
X86220225Y-98362589D01*
X86313411Y-98269403D01*
X86379303Y-98155275D01*
X86405071Y-98059108D01*
X90499500Y-98059108D01*
X90499500Y-98190891D01*
X90533608Y-98318187D01*
X90559244Y-98362589D01*
X90599500Y-98432314D01*
X90692686Y-98525500D01*
X90750897Y-98559108D01*
X90798247Y-98586446D01*
X90846463Y-98637013D01*
X90859685Y-98705620D01*
X90843635Y-98755831D01*
X90821845Y-98793573D01*
X90821844Y-98793576D01*
X90821844Y-98793577D01*
X90821843Y-98793579D01*
X90787735Y-98920873D01*
X90787735Y-99052657D01*
X90798114Y-99091391D01*
X90821843Y-99179952D01*
X90823954Y-99183608D01*
X90887735Y-99294079D01*
X90980921Y-99387265D01*
X91079756Y-99444328D01*
X91095045Y-99453155D01*
X91095049Y-99453157D01*
X91222343Y-99487265D01*
X91222345Y-99487265D01*
X91354125Y-99487265D01*
X91354127Y-99487265D01*
X91481421Y-99453157D01*
X91595549Y-99387265D01*
X91688735Y-99294079D01*
X91754627Y-99179951D01*
X91788735Y-99052657D01*
X91788735Y-98920873D01*
X91754627Y-98793579D01*
X91688735Y-98679451D01*
X91595549Y-98586265D01*
X91489986Y-98525318D01*
X91441771Y-98474751D01*
X91428549Y-98406143D01*
X91444600Y-98355930D01*
X91447737Y-98350497D01*
X91466392Y-98318186D01*
X91500500Y-98190892D01*
X91500500Y-98059108D01*
X91466392Y-97931814D01*
X91409981Y-97834108D01*
X106949500Y-97834108D01*
X106949500Y-97965891D01*
X106983608Y-98093187D01*
X107001687Y-98124500D01*
X107049500Y-98207314D01*
X107142686Y-98300500D01*
X107256814Y-98366392D01*
X107384108Y-98400500D01*
X107384110Y-98400500D01*
X107515890Y-98400500D01*
X107515892Y-98400500D01*
X107643186Y-98366392D01*
X107757314Y-98300500D01*
X107850500Y-98207314D01*
X107916392Y-98093186D01*
X107950500Y-97965892D01*
X107950500Y-97834108D01*
X107916392Y-97706814D01*
X107850500Y-97592686D01*
X107757314Y-97499500D01*
X107700250Y-97466554D01*
X107644053Y-97434108D01*
X119474500Y-97434108D01*
X119474500Y-97565892D01*
X119490204Y-97624500D01*
X119508608Y-97693187D01*
X119516475Y-97706812D01*
X119574500Y-97807314D01*
X119667686Y-97900500D01*
X119766521Y-97957563D01*
X119780944Y-97965890D01*
X119781814Y-97966392D01*
X119909108Y-98000500D01*
X119909110Y-98000500D01*
X120040890Y-98000500D01*
X120040892Y-98000500D01*
X120168186Y-97966392D01*
X120282314Y-97900500D01*
X120375500Y-97807314D01*
X120441392Y-97693186D01*
X120475500Y-97565892D01*
X120475500Y-97434108D01*
X120441392Y-97306814D01*
X120375500Y-97192686D01*
X120282314Y-97099500D01*
X120225250Y-97066554D01*
X120168187Y-97033608D01*
X120104539Y-97016554D01*
X120040892Y-96999500D01*
X119909108Y-96999500D01*
X119781812Y-97033608D01*
X119667686Y-97099500D01*
X119667683Y-97099502D01*
X119574502Y-97192683D01*
X119574500Y-97192686D01*
X119508608Y-97306812D01*
X119483773Y-97399500D01*
X119474500Y-97434108D01*
X107644053Y-97434108D01*
X107643187Y-97433608D01*
X107579539Y-97416554D01*
X107515892Y-97399500D01*
X107384108Y-97399500D01*
X107256812Y-97433608D01*
X107142686Y-97499500D01*
X107142683Y-97499502D01*
X107049502Y-97592683D01*
X107049500Y-97592686D01*
X106983608Y-97706812D01*
X106949500Y-97834108D01*
X91409981Y-97834108D01*
X91400500Y-97817686D01*
X91307314Y-97724500D01*
X91250250Y-97691554D01*
X91193187Y-97658608D01*
X91129539Y-97641554D01*
X91065892Y-97624500D01*
X90934108Y-97624500D01*
X90806812Y-97658608D01*
X90692686Y-97724500D01*
X90692683Y-97724502D01*
X90599502Y-97817683D01*
X90599500Y-97817686D01*
X90533608Y-97931812D01*
X90499500Y-98059108D01*
X86405071Y-98059108D01*
X86413411Y-98027981D01*
X86413411Y-97896197D01*
X86379303Y-97768903D01*
X86313411Y-97654775D01*
X86220225Y-97561589D01*
X86163161Y-97528643D01*
X86106098Y-97495697D01*
X86042450Y-97478643D01*
X85978803Y-97461589D01*
X85847019Y-97461589D01*
X85719723Y-97495697D01*
X85605597Y-97561589D01*
X85605594Y-97561591D01*
X85512413Y-97654772D01*
X85512411Y-97654775D01*
X85446519Y-97768901D01*
X85429047Y-97834110D01*
X85412411Y-97896197D01*
X84000500Y-97896197D01*
X84000500Y-97834108D01*
X83966392Y-97706814D01*
X83900500Y-97592686D01*
X83807314Y-97499500D01*
X83750250Y-97466554D01*
X83693187Y-97433608D01*
X83629539Y-97416554D01*
X83565892Y-97399500D01*
X83434108Y-97399500D01*
X83306812Y-97433608D01*
X83192686Y-97499500D01*
X83192683Y-97499502D01*
X83099502Y-97592683D01*
X83099500Y-97592686D01*
X83033608Y-97706812D01*
X82999500Y-97834108D01*
X82562103Y-97834108D01*
X82541392Y-97756814D01*
X82475500Y-97642686D01*
X82382314Y-97549500D01*
X82325250Y-97516554D01*
X82268187Y-97483608D01*
X82180789Y-97460190D01*
X82180784Y-97460189D01*
X82140892Y-97449500D01*
X82009108Y-97449500D01*
X81881812Y-97483608D01*
X81767686Y-97549500D01*
X81767683Y-97549502D01*
X81674502Y-97642683D01*
X81674500Y-97642686D01*
X81608608Y-97756812D01*
X81574500Y-97884108D01*
X68000500Y-97884108D01*
X68000500Y-96342698D01*
X75587124Y-96342698D01*
X75587124Y-96474481D01*
X75621232Y-96601777D01*
X75638348Y-96631422D01*
X75687124Y-96715904D01*
X75780310Y-96809090D01*
X75894438Y-96874982D01*
X76021732Y-96909090D01*
X76021734Y-96909090D01*
X76153514Y-96909090D01*
X76153516Y-96909090D01*
X76280810Y-96874982D01*
X76394938Y-96809090D01*
X76488124Y-96715904D01*
X76554016Y-96601776D01*
X76588124Y-96474482D01*
X76588124Y-96372343D01*
X77237735Y-96372343D01*
X77237735Y-96504127D01*
X77242451Y-96521727D01*
X77271843Y-96631422D01*
X77282858Y-96650500D01*
X77337735Y-96745549D01*
X77430921Y-96838735D01*
X77545049Y-96904627D01*
X77672343Y-96938735D01*
X77672345Y-96938735D01*
X77804125Y-96938735D01*
X77804127Y-96938735D01*
X77931421Y-96904627D01*
X78045549Y-96838735D01*
X78138735Y-96745549D01*
X78194466Y-96649021D01*
X81773855Y-96649021D01*
X81773855Y-96780804D01*
X81807963Y-96908100D01*
X81840909Y-96965163D01*
X81873855Y-97022227D01*
X81967041Y-97115413D01*
X82081169Y-97181305D01*
X82208463Y-97215413D01*
X82221528Y-97215413D01*
X82340245Y-97215413D01*
X82340247Y-97215413D01*
X82467541Y-97181305D01*
X82581669Y-97115413D01*
X82674855Y-97022227D01*
X82740747Y-96908099D01*
X82774855Y-96780805D01*
X82774855Y-96649021D01*
X82740747Y-96521727D01*
X82674855Y-96407599D01*
X82581669Y-96314413D01*
X82506020Y-96270737D01*
X82467542Y-96248521D01*
X82343945Y-96215404D01*
X82340247Y-96214413D01*
X82208463Y-96214413D01*
X82081167Y-96248521D01*
X81967041Y-96314413D01*
X81967038Y-96314415D01*
X81873857Y-96407596D01*
X81873855Y-96407599D01*
X81807963Y-96521725D01*
X81773855Y-96649021D01*
X78194466Y-96649021D01*
X78204627Y-96631421D01*
X78238735Y-96504127D01*
X78238735Y-96372343D01*
X78204627Y-96245049D01*
X78138735Y-96130921D01*
X78045549Y-96037735D01*
X77988485Y-96004789D01*
X77931422Y-95971843D01*
X77826732Y-95943792D01*
X77804127Y-95937735D01*
X77672343Y-95937735D01*
X77545047Y-95971843D01*
X77430921Y-96037735D01*
X77430918Y-96037737D01*
X77337737Y-96130918D01*
X77337735Y-96130921D01*
X77271843Y-96245047D01*
X77252861Y-96315890D01*
X77237735Y-96372343D01*
X76588124Y-96372343D01*
X76588124Y-96342698D01*
X76554016Y-96215404D01*
X76488124Y-96101276D01*
X76394938Y-96008090D01*
X76332157Y-95971843D01*
X76280811Y-95942198D01*
X76217163Y-95925144D01*
X76153516Y-95908090D01*
X76021732Y-95908090D01*
X75894436Y-95942198D01*
X75780310Y-96008090D01*
X75780307Y-96008092D01*
X75687126Y-96101273D01*
X75687124Y-96101276D01*
X75621232Y-96215402D01*
X75587124Y-96342698D01*
X68000500Y-96342698D01*
X68000500Y-94509108D01*
X80074500Y-94509108D01*
X80074500Y-94640892D01*
X80089307Y-94696152D01*
X80108608Y-94768187D01*
X80122488Y-94792227D01*
X80174500Y-94882314D01*
X80267686Y-94975500D01*
X80381814Y-95041392D01*
X80509108Y-95075500D01*
X80509110Y-95075500D01*
X80640890Y-95075500D01*
X80640892Y-95075500D01*
X80768186Y-95041392D01*
X80882314Y-94975500D01*
X80975500Y-94882314D01*
X81041392Y-94768186D01*
X81075500Y-94640892D01*
X81075500Y-94509108D01*
X81041392Y-94381814D01*
X80975500Y-94267686D01*
X80882314Y-94174500D01*
X80825250Y-94141554D01*
X80768187Y-94108608D01*
X80655443Y-94078399D01*
X80640892Y-94074500D01*
X80509108Y-94074500D01*
X80381812Y-94108608D01*
X80267686Y-94174500D01*
X80267683Y-94174502D01*
X80174502Y-94267683D01*
X80174500Y-94267686D01*
X80108608Y-94381812D01*
X80081622Y-94482527D01*
X80074500Y-94509108D01*
X68000500Y-94509108D01*
X68000500Y-93534108D01*
X85224500Y-93534108D01*
X85224500Y-93665892D01*
X85233066Y-93697860D01*
X85258608Y-93793187D01*
X85264378Y-93803180D01*
X85324500Y-93907314D01*
X85417686Y-94000500D01*
X85531814Y-94066392D01*
X85576630Y-94078400D01*
X85636289Y-94114762D01*
X85666820Y-94177609D01*
X85665038Y-94215107D01*
X85667200Y-94215392D01*
X85666139Y-94223446D01*
X85666139Y-94223448D01*
X85666139Y-94355232D01*
X85683193Y-94418879D01*
X85700247Y-94482527D01*
X85715594Y-94509108D01*
X85766139Y-94596654D01*
X85859325Y-94689840D01*
X85973453Y-94755732D01*
X86100747Y-94789840D01*
X86100755Y-94789840D01*
X86108807Y-94790901D01*
X86108632Y-94792227D01*
X86167539Y-94809525D01*
X86213294Y-94862329D01*
X86224500Y-94913840D01*
X86224500Y-94955232D01*
X86229931Y-94975500D01*
X86258608Y-95082527D01*
X86289467Y-95135975D01*
X86324500Y-95196654D01*
X86417686Y-95289840D01*
X86531814Y-95355732D01*
X86659108Y-95389840D01*
X86659110Y-95389840D01*
X86790890Y-95389840D01*
X86790892Y-95389840D01*
X86837319Y-95377400D01*
X88916661Y-95377400D01*
X88916661Y-95509183D01*
X88950769Y-95636479D01*
X88962101Y-95656106D01*
X89016661Y-95750606D01*
X89109847Y-95843792D01*
X89223975Y-95909684D01*
X89351269Y-95943792D01*
X89351271Y-95943792D01*
X89406436Y-95943792D01*
X89473475Y-95963477D01*
X89519230Y-96016281D01*
X89526209Y-96035694D01*
X89543781Y-96101273D01*
X89558608Y-96156610D01*
X89591554Y-96213673D01*
X89624500Y-96270737D01*
X89717686Y-96363923D01*
X89831814Y-96429815D01*
X89959108Y-96463923D01*
X89959110Y-96463923D01*
X90090890Y-96463923D01*
X90090892Y-96463923D01*
X90218186Y-96429815D01*
X90332314Y-96363923D01*
X90425500Y-96270737D01*
X90475515Y-96184108D01*
X98574500Y-96184108D01*
X98574500Y-96315892D01*
X98587370Y-96363923D01*
X98608608Y-96443187D01*
X98641554Y-96500250D01*
X98674500Y-96557314D01*
X98767686Y-96650500D01*
X98881814Y-96716392D01*
X99009108Y-96750500D01*
X99009110Y-96750500D01*
X99140890Y-96750500D01*
X99140892Y-96750500D01*
X99268186Y-96716392D01*
X99382314Y-96650500D01*
X99475500Y-96557314D01*
X99541392Y-96443186D01*
X99575500Y-96315892D01*
X99575500Y-96184108D01*
X99541392Y-96056814D01*
X99541390Y-96056811D01*
X99541391Y-96056811D01*
X99513849Y-96009108D01*
X115099499Y-96009108D01*
X115099499Y-96140892D01*
X115103711Y-96156610D01*
X115133607Y-96268187D01*
X115161150Y-96315892D01*
X115199499Y-96382314D01*
X115292685Y-96475500D01*
X115406813Y-96541392D01*
X115534107Y-96575500D01*
X115534109Y-96575500D01*
X115665889Y-96575500D01*
X115665891Y-96575500D01*
X115793185Y-96541392D01*
X115907313Y-96475500D01*
X116000499Y-96382314D01*
X116066391Y-96268186D01*
X116100499Y-96140892D01*
X116100499Y-96009108D01*
X116066391Y-95881814D01*
X116000499Y-95767686D01*
X115907313Y-95674500D01*
X115841457Y-95636478D01*
X115793186Y-95608608D01*
X115729538Y-95591554D01*
X115665891Y-95574500D01*
X115534107Y-95574500D01*
X115406811Y-95608608D01*
X115292685Y-95674500D01*
X115292682Y-95674502D01*
X115199501Y-95767683D01*
X115199499Y-95767686D01*
X115133607Y-95881812D01*
X115109484Y-95971843D01*
X115099499Y-96009108D01*
X99513849Y-96009108D01*
X99475502Y-95942689D01*
X99475497Y-95942683D01*
X99382316Y-95849502D01*
X99382314Y-95849500D01*
X99325250Y-95816554D01*
X99268187Y-95783608D01*
X99204539Y-95766554D01*
X99140892Y-95749500D01*
X99009108Y-95749500D01*
X98881812Y-95783608D01*
X98767686Y-95849500D01*
X98767683Y-95849502D01*
X98674502Y-95942683D01*
X98674500Y-95942686D01*
X98608608Y-96056812D01*
X98581868Y-96156609D01*
X98574500Y-96184108D01*
X90475515Y-96184108D01*
X90491392Y-96156609D01*
X90525500Y-96029315D01*
X90525500Y-95897531D01*
X90491392Y-95770237D01*
X90489917Y-95767683D01*
X90479419Y-95749500D01*
X90425500Y-95656109D01*
X90332314Y-95562923D01*
X90239234Y-95509183D01*
X90218187Y-95497031D01*
X90154539Y-95479977D01*
X90090892Y-95462923D01*
X90035725Y-95462923D01*
X89968686Y-95443238D01*
X89922931Y-95390434D01*
X89915950Y-95371016D01*
X89911855Y-95355732D01*
X89883553Y-95250106D01*
X89817661Y-95135978D01*
X89724475Y-95042792D01*
X89667411Y-95009846D01*
X89610348Y-94976900D01*
X89529476Y-94955231D01*
X89483053Y-94942792D01*
X89351269Y-94942792D01*
X89223973Y-94976900D01*
X89109847Y-95042792D01*
X89109844Y-95042794D01*
X89016663Y-95135975D01*
X89016661Y-95135978D01*
X88950769Y-95250104D01*
X88916661Y-95377400D01*
X86837319Y-95377400D01*
X86918186Y-95355732D01*
X87032314Y-95289840D01*
X87125500Y-95196654D01*
X87191392Y-95082526D01*
X87225500Y-94955232D01*
X87225500Y-94823448D01*
X87191392Y-94696154D01*
X87125500Y-94582026D01*
X87032314Y-94488840D01*
X86975250Y-94455894D01*
X86918187Y-94422948D01*
X86854539Y-94405894D01*
X86790892Y-94388840D01*
X86790891Y-94388840D01*
X86782832Y-94387779D01*
X86783006Y-94386452D01*
X86775023Y-94384108D01*
X120599500Y-94384108D01*
X120599500Y-94515891D01*
X120633608Y-94643187D01*
X120660542Y-94689837D01*
X120699500Y-94757314D01*
X120792686Y-94850500D01*
X120906814Y-94916392D01*
X121034108Y-94950500D01*
X121034110Y-94950500D01*
X121165890Y-94950500D01*
X121165892Y-94950500D01*
X121293186Y-94916392D01*
X121407314Y-94850500D01*
X121500500Y-94757314D01*
X121566392Y-94643186D01*
X121600500Y-94515892D01*
X121600500Y-94384108D01*
X121566392Y-94256814D01*
X121500500Y-94142686D01*
X121407314Y-94049500D01*
X121322439Y-94000497D01*
X121293187Y-93983608D01*
X121229539Y-93966554D01*
X121165892Y-93949500D01*
X121034108Y-93949500D01*
X120906812Y-93983608D01*
X120792686Y-94049500D01*
X120792683Y-94049502D01*
X120699502Y-94142683D01*
X120699500Y-94142686D01*
X120633608Y-94256812D01*
X120599500Y-94384108D01*
X86775023Y-94384108D01*
X86724100Y-94369155D01*
X86678345Y-94316351D01*
X86667139Y-94264840D01*
X86667139Y-94223450D01*
X86667139Y-94223448D01*
X86633031Y-94096154D01*
X86567139Y-93982026D01*
X86473953Y-93888840D01*
X86359825Y-93822948D01*
X86304108Y-93808019D01*
X86293917Y-93803180D01*
X86275932Y-93787121D01*
X86274226Y-93786081D01*
X99519241Y-93786081D01*
X99519241Y-93917865D01*
X99536295Y-93981512D01*
X99553349Y-94045160D01*
X99555855Y-94049500D01*
X99619241Y-94159287D01*
X99712427Y-94252473D01*
X99811262Y-94309536D01*
X99826551Y-94318363D01*
X99826555Y-94318365D01*
X99953849Y-94352473D01*
X99953851Y-94352473D01*
X100085631Y-94352473D01*
X100085633Y-94352473D01*
X100212927Y-94318365D01*
X100327055Y-94252473D01*
X100420241Y-94159287D01*
X100486133Y-94045159D01*
X100520241Y-93917865D01*
X100520241Y-93786081D01*
X100520241Y-93777954D01*
X100521842Y-93777954D01*
X100531152Y-93718211D01*
X100577526Y-93665950D01*
X100611236Y-93651274D01*
X100641855Y-93643070D01*
X100755983Y-93577178D01*
X100849169Y-93483992D01*
X100915061Y-93369864D01*
X100949169Y-93242570D01*
X100949169Y-93162438D01*
X100968854Y-93095399D01*
X101021658Y-93049644D01*
X101041067Y-93042666D01*
X101139126Y-93016392D01*
X101253254Y-92950500D01*
X101346440Y-92857314D01*
X101412332Y-92743186D01*
X101446440Y-92615892D01*
X101446440Y-92484108D01*
X101433043Y-92434108D01*
X120549500Y-92434108D01*
X120549500Y-92565891D01*
X120583608Y-92693187D01*
X120612476Y-92743186D01*
X120649500Y-92807314D01*
X120742686Y-92900500D01*
X120856814Y-92966392D01*
X120984108Y-93000500D01*
X120984110Y-93000500D01*
X121115890Y-93000500D01*
X121115892Y-93000500D01*
X121243186Y-92966392D01*
X121357314Y-92900500D01*
X121450500Y-92807314D01*
X121516392Y-92693186D01*
X121550500Y-92565892D01*
X121550500Y-92434108D01*
X121516392Y-92306814D01*
X121450500Y-92192686D01*
X121357314Y-92099500D01*
X121270712Y-92049500D01*
X121243187Y-92033608D01*
X121179539Y-92016554D01*
X121115892Y-91999500D01*
X120984108Y-91999500D01*
X120856812Y-92033608D01*
X120742686Y-92099500D01*
X120742683Y-92099502D01*
X120649502Y-92192683D01*
X120649500Y-92192686D01*
X120583608Y-92306812D01*
X120549500Y-92434108D01*
X101433043Y-92434108D01*
X101412332Y-92356814D01*
X101346440Y-92242686D01*
X101253254Y-92149500D01*
X101196190Y-92116554D01*
X101139127Y-92083608D01*
X101075479Y-92066554D01*
X101011832Y-92049500D01*
X100880048Y-92049500D01*
X100752752Y-92083608D01*
X100638626Y-92149500D01*
X100638623Y-92149502D01*
X100545442Y-92242683D01*
X100545440Y-92242686D01*
X100479548Y-92356812D01*
X100445440Y-92484108D01*
X100445440Y-92564239D01*
X100425755Y-92631278D01*
X100372951Y-92677033D01*
X100353534Y-92684013D01*
X100330091Y-92690294D01*
X100255481Y-92710286D01*
X100141355Y-92776178D01*
X100141352Y-92776180D01*
X100048171Y-92869361D01*
X100048169Y-92869364D01*
X99982277Y-92983490D01*
X99948169Y-93110786D01*
X99948169Y-93250697D01*
X99946570Y-93250697D01*
X99937251Y-93310453D01*
X99890870Y-93362708D01*
X99857174Y-93377376D01*
X99826555Y-93385580D01*
X99712427Y-93451473D01*
X99712424Y-93451475D01*
X99619243Y-93544656D01*
X99619241Y-93544659D01*
X99553349Y-93658785D01*
X99533354Y-93733411D01*
X99519241Y-93786081D01*
X86274226Y-93786081D01*
X86255348Y-93774575D01*
X86250344Y-93764274D01*
X86241799Y-93756645D01*
X86235351Y-93733411D01*
X86224818Y-93711729D01*
X86225485Y-93697860D01*
X86223115Y-93689320D01*
X86226406Y-93678696D01*
X86226621Y-93674235D01*
X86224439Y-93673948D01*
X86225500Y-93665890D01*
X86225500Y-93534110D01*
X86225500Y-93534108D01*
X86191392Y-93406814D01*
X86125500Y-93292686D01*
X86032314Y-93199500D01*
X85968121Y-93162438D01*
X85918187Y-93133608D01*
X85833012Y-93110786D01*
X85790892Y-93099500D01*
X85659108Y-93099500D01*
X85531812Y-93133608D01*
X85417686Y-93199500D01*
X85417683Y-93199502D01*
X85324502Y-93292683D01*
X85324500Y-93292686D01*
X85258608Y-93406812D01*
X85237928Y-93483992D01*
X85224500Y-93534108D01*
X68000500Y-93534108D01*
X68000500Y-90502651D01*
X68020185Y-90435612D01*
X68072989Y-90389857D01*
X68142147Y-90379913D01*
X68205703Y-90408938D01*
X68212181Y-90414970D01*
X68307837Y-90510626D01*
X68400494Y-90572537D01*
X68447137Y-90603703D01*
X68601918Y-90667816D01*
X68766228Y-90700499D01*
X68766232Y-90700500D01*
X68766233Y-90700500D01*
X68933768Y-90700500D01*
X68933769Y-90700499D01*
X69098082Y-90667816D01*
X69252863Y-90603703D01*
X69392162Y-90510626D01*
X69510626Y-90392162D01*
X69603703Y-90252863D01*
X69667816Y-90098082D01*
X69700500Y-89933767D01*
X69700500Y-89766233D01*
X69667816Y-89601918D01*
X69603703Y-89447137D01*
X69549416Y-89365891D01*
X69510626Y-89307837D01*
X69392162Y-89189373D01*
X69252860Y-89096295D01*
X69098082Y-89032184D01*
X69098074Y-89032182D01*
X68933771Y-88999500D01*
X68933767Y-88999500D01*
X68766233Y-88999500D01*
X68766228Y-88999500D01*
X68601925Y-89032182D01*
X68601917Y-89032184D01*
X68447139Y-89096295D01*
X68307837Y-89189373D01*
X68307834Y-89189376D01*
X68212181Y-89285030D01*
X68150858Y-89318515D01*
X68081166Y-89313531D01*
X68025233Y-89271659D01*
X68000816Y-89206195D01*
X68000500Y-89197349D01*
X68000500Y-87070730D01*
X69399500Y-87070730D01*
X69399500Y-88629269D01*
X69402353Y-88659699D01*
X69402353Y-88659701D01*
X69447206Y-88787880D01*
X69447207Y-88787882D01*
X69527850Y-88897150D01*
X69637118Y-88977793D01*
X69658089Y-88985131D01*
X69765299Y-89022646D01*
X69795730Y-89025500D01*
X69795734Y-89025500D01*
X71104270Y-89025500D01*
X71134699Y-89022646D01*
X71134701Y-89022646D01*
X71200847Y-88999500D01*
X71262882Y-88977793D01*
X71372150Y-88897150D01*
X71452793Y-88787882D01*
X71489648Y-88682557D01*
X71497646Y-88659701D01*
X71497646Y-88659699D01*
X71500500Y-88629269D01*
X71500500Y-87621530D01*
X71899500Y-87621530D01*
X71899500Y-88078469D01*
X71939868Y-88281412D01*
X71939870Y-88281420D01*
X71957921Y-88325000D01*
X72019059Y-88472598D01*
X72032836Y-88493217D01*
X72134024Y-88644657D01*
X72280342Y-88790975D01*
X72280345Y-88790977D01*
X72452402Y-88905941D01*
X72643580Y-88985130D01*
X72832187Y-89022646D01*
X72846530Y-89025499D01*
X72846534Y-89025500D01*
X72846535Y-89025500D01*
X73053466Y-89025500D01*
X73053467Y-89025499D01*
X73256420Y-88985130D01*
X73447598Y-88905941D01*
X73619655Y-88790977D01*
X73765977Y-88644655D01*
X73880941Y-88472598D01*
X73960130Y-88281420D01*
X74000500Y-88078465D01*
X74000500Y-87621535D01*
X74000499Y-87621530D01*
X74399500Y-87621530D01*
X74399500Y-88078469D01*
X74439868Y-88281412D01*
X74439870Y-88281420D01*
X74457921Y-88325000D01*
X74519059Y-88472598D01*
X74532836Y-88493217D01*
X74634024Y-88644657D01*
X74780342Y-88790975D01*
X74780345Y-88790977D01*
X74952402Y-88905941D01*
X75143580Y-88985130D01*
X75332187Y-89022646D01*
X75346530Y-89025499D01*
X75346534Y-89025500D01*
X75346535Y-89025500D01*
X75553466Y-89025500D01*
X75553467Y-89025499D01*
X75756420Y-88985130D01*
X75947598Y-88905941D01*
X76119655Y-88790977D01*
X76265977Y-88644655D01*
X76380941Y-88472598D01*
X76426748Y-88362009D01*
X76470589Y-88307606D01*
X76536883Y-88285541D01*
X76604582Y-88302820D01*
X76652193Y-88353957D01*
X76659240Y-88371144D01*
X76698904Y-88493216D01*
X76795379Y-88682557D01*
X76920272Y-88854459D01*
X76920276Y-88854464D01*
X77070535Y-89004723D01*
X77070540Y-89004727D01*
X77242442Y-89129620D01*
X77431782Y-89226095D01*
X77633871Y-89291757D01*
X77700000Y-89302231D01*
X77700000Y-88254145D01*
X77766657Y-88292630D01*
X77887465Y-88325000D01*
X78012535Y-88325000D01*
X78133343Y-88292630D01*
X78200000Y-88254145D01*
X78200000Y-89302230D01*
X78266126Y-89291757D01*
X78266129Y-89291757D01*
X78443555Y-89234108D01*
X87349499Y-89234108D01*
X87349499Y-89365891D01*
X87383607Y-89493187D01*
X87416553Y-89550250D01*
X87449499Y-89607314D01*
X87542685Y-89700500D01*
X87641520Y-89757563D01*
X87656537Y-89766233D01*
X87656813Y-89766392D01*
X87784107Y-89800500D01*
X87784109Y-89800500D01*
X87915889Y-89800500D01*
X87915891Y-89800500D01*
X88043185Y-89766392D01*
X88043469Y-89766228D01*
X93849500Y-89766228D01*
X93849500Y-89933771D01*
X93882182Y-90098074D01*
X93882184Y-90098082D01*
X93946295Y-90252860D01*
X94039373Y-90392162D01*
X94157837Y-90510626D01*
X94250494Y-90572537D01*
X94297137Y-90603703D01*
X94451918Y-90667816D01*
X94616228Y-90700499D01*
X94616232Y-90700500D01*
X94616233Y-90700500D01*
X94783768Y-90700500D01*
X94783769Y-90700499D01*
X94948082Y-90667816D01*
X95102863Y-90603703D01*
X95242162Y-90510626D01*
X95360626Y-90392162D01*
X95453703Y-90252863D01*
X95517816Y-90098082D01*
X95550500Y-89933767D01*
X95550500Y-89766233D01*
X95550499Y-89766228D01*
X119599500Y-89766228D01*
X119599500Y-89933771D01*
X119632182Y-90098074D01*
X119632184Y-90098082D01*
X119696295Y-90252860D01*
X119789373Y-90392162D01*
X119907837Y-90510626D01*
X120000494Y-90572537D01*
X120047137Y-90603703D01*
X120201918Y-90667816D01*
X120366228Y-90700499D01*
X120366232Y-90700500D01*
X120366233Y-90700500D01*
X120533768Y-90700500D01*
X120533769Y-90700499D01*
X120698082Y-90667816D01*
X120852863Y-90603703D01*
X120992162Y-90510626D01*
X121110626Y-90392162D01*
X121203703Y-90252863D01*
X121267816Y-90098082D01*
X121300500Y-89933767D01*
X121300500Y-89766233D01*
X121267816Y-89601918D01*
X121203703Y-89447137D01*
X121149416Y-89365891D01*
X121110626Y-89307837D01*
X120992162Y-89189373D01*
X120852860Y-89096295D01*
X120698082Y-89032184D01*
X120698074Y-89032182D01*
X120533771Y-88999500D01*
X120533767Y-88999500D01*
X120366233Y-88999500D01*
X120366228Y-88999500D01*
X120201925Y-89032182D01*
X120201917Y-89032184D01*
X120047139Y-89096295D01*
X119907837Y-89189373D01*
X119789373Y-89307837D01*
X119696295Y-89447139D01*
X119632184Y-89601917D01*
X119632182Y-89601925D01*
X119599500Y-89766228D01*
X95550499Y-89766228D01*
X95517816Y-89601918D01*
X95453703Y-89447137D01*
X95399416Y-89365891D01*
X95360626Y-89307837D01*
X95242162Y-89189373D01*
X95102860Y-89096295D01*
X94948082Y-89032184D01*
X94948074Y-89032182D01*
X94783771Y-88999500D01*
X94783767Y-88999500D01*
X94616233Y-88999500D01*
X94616228Y-88999500D01*
X94451925Y-89032182D01*
X94451917Y-89032184D01*
X94297139Y-89096295D01*
X94157837Y-89189373D01*
X94039373Y-89307837D01*
X93946295Y-89447139D01*
X93882184Y-89601917D01*
X93882182Y-89601925D01*
X93849500Y-89766228D01*
X88043469Y-89766228D01*
X88157313Y-89700500D01*
X88250499Y-89607314D01*
X88316391Y-89493186D01*
X88350499Y-89365892D01*
X88350499Y-89234108D01*
X88316391Y-89106814D01*
X88250499Y-88992686D01*
X88157313Y-88899500D01*
X88079300Y-88854459D01*
X88043186Y-88833608D01*
X87979538Y-88816554D01*
X87915891Y-88799500D01*
X87784107Y-88799500D01*
X87656811Y-88833608D01*
X87542685Y-88899500D01*
X87542682Y-88899502D01*
X87449501Y-88992683D01*
X87449499Y-88992686D01*
X87383607Y-89106812D01*
X87349499Y-89234108D01*
X78443555Y-89234108D01*
X78468217Y-89226095D01*
X78657551Y-89129624D01*
X78663002Y-89125664D01*
X78663005Y-89125662D01*
X78829459Y-89004727D01*
X78829464Y-89004723D01*
X78979723Y-88854464D01*
X78979727Y-88854459D01*
X79104620Y-88682557D01*
X79201095Y-88493217D01*
X79266757Y-88291130D01*
X79266757Y-88291127D01*
X79297030Y-88100000D01*
X78354146Y-88100000D01*
X78392630Y-88033343D01*
X78425000Y-87912535D01*
X78425000Y-87787465D01*
X78392630Y-87666657D01*
X78354146Y-87600000D01*
X79297030Y-87600000D01*
X79266757Y-87408872D01*
X79266757Y-87408869D01*
X79201095Y-87206782D01*
X79158982Y-87124130D01*
X79158981Y-87124128D01*
X79131773Y-87070730D01*
X95249500Y-87070730D01*
X95249500Y-88629269D01*
X95252353Y-88659699D01*
X95252353Y-88659701D01*
X95297206Y-88787880D01*
X95297207Y-88787882D01*
X95377850Y-88897150D01*
X95487118Y-88977793D01*
X95508089Y-88985131D01*
X95615299Y-89022646D01*
X95645730Y-89025500D01*
X95645734Y-89025500D01*
X96954270Y-89025500D01*
X96984699Y-89022646D01*
X96984701Y-89022646D01*
X97050847Y-88999500D01*
X97112882Y-88977793D01*
X97222150Y-88897150D01*
X97302793Y-88787882D01*
X97339648Y-88682557D01*
X97347646Y-88659701D01*
X97347646Y-88659699D01*
X97350500Y-88629269D01*
X97350500Y-87621530D01*
X97749500Y-87621530D01*
X97749500Y-88078469D01*
X97789868Y-88281412D01*
X97789870Y-88281420D01*
X97807921Y-88325000D01*
X97869059Y-88472598D01*
X97882836Y-88493217D01*
X97984024Y-88644657D01*
X98130342Y-88790975D01*
X98130345Y-88790977D01*
X98302402Y-88905941D01*
X98493580Y-88985130D01*
X98682187Y-89022646D01*
X98696530Y-89025499D01*
X98696534Y-89025500D01*
X98696535Y-89025500D01*
X98903466Y-89025500D01*
X98903467Y-89025499D01*
X99106420Y-88985130D01*
X99297598Y-88905941D01*
X99469655Y-88790977D01*
X99615977Y-88644655D01*
X99730941Y-88472598D01*
X99810130Y-88281420D01*
X99850500Y-88078465D01*
X99850500Y-87621535D01*
X99850499Y-87621530D01*
X100249500Y-87621530D01*
X100249500Y-88078469D01*
X100289868Y-88281412D01*
X100289870Y-88281420D01*
X100307921Y-88325000D01*
X100369059Y-88472598D01*
X100382836Y-88493217D01*
X100484024Y-88644657D01*
X100630342Y-88790975D01*
X100630345Y-88790977D01*
X100802402Y-88905941D01*
X100993580Y-88985130D01*
X101182187Y-89022646D01*
X101196530Y-89025499D01*
X101196534Y-89025500D01*
X101196535Y-89025500D01*
X101403466Y-89025500D01*
X101403467Y-89025499D01*
X101606420Y-88985130D01*
X101797598Y-88905941D01*
X101969655Y-88790977D01*
X102115977Y-88644655D01*
X102230941Y-88472598D01*
X102276748Y-88362009D01*
X102320589Y-88307606D01*
X102386883Y-88285541D01*
X102454582Y-88302820D01*
X102502193Y-88353957D01*
X102509240Y-88371144D01*
X102548904Y-88493216D01*
X102645379Y-88682557D01*
X102770272Y-88854459D01*
X102770276Y-88854464D01*
X102920535Y-89004723D01*
X102920540Y-89004727D01*
X103092442Y-89129620D01*
X103281782Y-89226095D01*
X103483871Y-89291757D01*
X103550000Y-89302231D01*
X103550000Y-88254145D01*
X103616657Y-88292630D01*
X103737465Y-88325000D01*
X103862535Y-88325000D01*
X103983343Y-88292630D01*
X104050000Y-88254145D01*
X104050000Y-89302230D01*
X104116126Y-89291757D01*
X104116129Y-89291757D01*
X104318217Y-89226095D01*
X104507557Y-89129620D01*
X104679459Y-89004727D01*
X104679464Y-89004723D01*
X104829723Y-88854464D01*
X104829727Y-88854459D01*
X104954620Y-88682557D01*
X105051095Y-88493217D01*
X105116757Y-88291130D01*
X105116757Y-88291127D01*
X105145587Y-88109108D01*
X111174500Y-88109108D01*
X111174500Y-88240891D01*
X111208608Y-88368187D01*
X111241554Y-88425250D01*
X111274500Y-88482314D01*
X111367686Y-88575500D01*
X111481814Y-88641392D01*
X111609108Y-88675500D01*
X111609110Y-88675500D01*
X111740890Y-88675500D01*
X111740892Y-88675500D01*
X111868186Y-88641392D01*
X111982314Y-88575500D01*
X112075500Y-88482314D01*
X112141392Y-88368186D01*
X112175500Y-88240892D01*
X112175500Y-88109108D01*
X112141392Y-87981814D01*
X112075500Y-87867686D01*
X111982314Y-87774500D01*
X111925250Y-87741554D01*
X111868187Y-87708608D01*
X111804539Y-87691554D01*
X111740892Y-87674500D01*
X111609108Y-87674500D01*
X111481812Y-87708608D01*
X111367686Y-87774500D01*
X111367683Y-87774502D01*
X111274502Y-87867683D01*
X111274500Y-87867686D01*
X111208608Y-87981812D01*
X111174500Y-88109108D01*
X105145587Y-88109108D01*
X105147030Y-88100000D01*
X104204146Y-88100000D01*
X104242630Y-88033343D01*
X104275000Y-87912535D01*
X104275000Y-87787465D01*
X104242630Y-87666657D01*
X104204146Y-87600000D01*
X105147030Y-87600000D01*
X105116757Y-87408872D01*
X105116757Y-87408869D01*
X105051095Y-87206782D01*
X105008982Y-87124130D01*
X105008981Y-87124128D01*
X104981773Y-87070730D01*
X120999500Y-87070730D01*
X120999500Y-88629269D01*
X121002353Y-88659699D01*
X121002353Y-88659701D01*
X121047206Y-88787880D01*
X121047207Y-88787882D01*
X121127850Y-88897150D01*
X121237118Y-88977793D01*
X121258089Y-88985131D01*
X121365299Y-89022646D01*
X121395730Y-89025500D01*
X121395734Y-89025500D01*
X122704270Y-89025500D01*
X122734699Y-89022646D01*
X122734701Y-89022646D01*
X122800847Y-88999500D01*
X122862882Y-88977793D01*
X122972150Y-88897150D01*
X123052793Y-88787882D01*
X123089648Y-88682557D01*
X123097646Y-88659701D01*
X123097646Y-88659699D01*
X123100500Y-88629269D01*
X123100500Y-87621530D01*
X123499500Y-87621530D01*
X123499500Y-88078469D01*
X123539868Y-88281412D01*
X123539870Y-88281420D01*
X123557921Y-88325000D01*
X123619059Y-88472598D01*
X123632836Y-88493217D01*
X123734024Y-88644657D01*
X123880342Y-88790975D01*
X123880345Y-88790977D01*
X124052402Y-88905941D01*
X124243580Y-88985130D01*
X124432187Y-89022646D01*
X124446530Y-89025499D01*
X124446534Y-89025500D01*
X124446535Y-89025500D01*
X124653466Y-89025500D01*
X124653467Y-89025499D01*
X124856420Y-88985130D01*
X125047598Y-88905941D01*
X125219655Y-88790977D01*
X125365977Y-88644655D01*
X125480941Y-88472598D01*
X125560130Y-88281420D01*
X125600500Y-88078465D01*
X125600500Y-87621535D01*
X125600499Y-87621530D01*
X125999500Y-87621530D01*
X125999500Y-88078469D01*
X126039868Y-88281412D01*
X126039870Y-88281420D01*
X126057921Y-88325000D01*
X126119059Y-88472598D01*
X126132836Y-88493217D01*
X126234024Y-88644657D01*
X126380342Y-88790975D01*
X126380345Y-88790977D01*
X126552402Y-88905941D01*
X126743580Y-88985130D01*
X126932187Y-89022646D01*
X126946530Y-89025499D01*
X126946534Y-89025500D01*
X126946535Y-89025500D01*
X127153466Y-89025500D01*
X127153467Y-89025499D01*
X127356420Y-88985130D01*
X127547598Y-88905941D01*
X127719655Y-88790977D01*
X127865977Y-88644655D01*
X127980941Y-88472598D01*
X128026748Y-88362009D01*
X128070589Y-88307606D01*
X128136883Y-88285541D01*
X128204582Y-88302820D01*
X128252193Y-88353957D01*
X128259240Y-88371144D01*
X128298904Y-88493216D01*
X128395379Y-88682557D01*
X128520272Y-88854459D01*
X128520276Y-88854464D01*
X128670535Y-89004723D01*
X128670540Y-89004727D01*
X128842442Y-89129620D01*
X129031782Y-89226095D01*
X129233871Y-89291757D01*
X129300000Y-89302231D01*
X129300000Y-88254145D01*
X129366657Y-88292630D01*
X129487465Y-88325000D01*
X129612535Y-88325000D01*
X129733343Y-88292630D01*
X129800000Y-88254145D01*
X129800000Y-89302230D01*
X129866126Y-89291757D01*
X129866129Y-89291757D01*
X130068217Y-89226095D01*
X130257557Y-89129620D01*
X130429459Y-89004727D01*
X130429464Y-89004723D01*
X130579723Y-88854464D01*
X130579727Y-88854459D01*
X130704620Y-88682557D01*
X130801095Y-88493217D01*
X130866757Y-88291130D01*
X130866757Y-88291127D01*
X130897030Y-88100000D01*
X129954146Y-88100000D01*
X129992630Y-88033343D01*
X130025000Y-87912535D01*
X130025000Y-87787465D01*
X129992630Y-87666657D01*
X129954146Y-87600000D01*
X130897030Y-87600000D01*
X130866757Y-87408872D01*
X130866757Y-87408869D01*
X130801095Y-87206782D01*
X130704620Y-87017442D01*
X130579727Y-86845540D01*
X130579723Y-86845535D01*
X130429464Y-86695276D01*
X130429459Y-86695272D01*
X130257557Y-86570379D01*
X130068215Y-86473903D01*
X129866124Y-86408241D01*
X129800000Y-86397768D01*
X129800000Y-87445854D01*
X129733343Y-87407370D01*
X129612535Y-87375000D01*
X129487465Y-87375000D01*
X129366657Y-87407370D01*
X129300000Y-87445854D01*
X129300000Y-86397768D01*
X129299999Y-86397768D01*
X129233875Y-86408241D01*
X129031784Y-86473903D01*
X128842442Y-86570379D01*
X128670540Y-86695272D01*
X128670535Y-86695276D01*
X128520276Y-86845535D01*
X128520272Y-86845540D01*
X128395379Y-87017442D01*
X128298905Y-87206781D01*
X128259240Y-87328856D01*
X128219802Y-87386531D01*
X128155443Y-87413729D01*
X128086597Y-87401814D01*
X128035121Y-87354570D01*
X128026748Y-87337990D01*
X127980941Y-87227403D01*
X127980941Y-87227402D01*
X127865977Y-87055345D01*
X127865975Y-87055342D01*
X127719657Y-86909024D01*
X127624638Y-86845535D01*
X127547598Y-86794059D01*
X127356420Y-86714870D01*
X127356412Y-86714868D01*
X127153469Y-86674500D01*
X127153465Y-86674500D01*
X126946535Y-86674500D01*
X126946530Y-86674500D01*
X126743587Y-86714868D01*
X126743579Y-86714870D01*
X126552403Y-86794058D01*
X126380342Y-86909024D01*
X126234024Y-87055342D01*
X126119058Y-87227403D01*
X126039870Y-87418579D01*
X126039868Y-87418587D01*
X125999500Y-87621530D01*
X125600499Y-87621530D01*
X125560130Y-87418580D01*
X125480941Y-87227402D01*
X125365977Y-87055345D01*
X125365975Y-87055342D01*
X125219657Y-86909024D01*
X125124638Y-86845535D01*
X125047598Y-86794059D01*
X124856420Y-86714870D01*
X124856412Y-86714868D01*
X124653469Y-86674500D01*
X124653465Y-86674500D01*
X124446535Y-86674500D01*
X124446530Y-86674500D01*
X124243587Y-86714868D01*
X124243579Y-86714870D01*
X124052403Y-86794058D01*
X123880342Y-86909024D01*
X123734024Y-87055342D01*
X123619058Y-87227403D01*
X123539870Y-87418579D01*
X123539868Y-87418587D01*
X123499500Y-87621530D01*
X123100500Y-87621530D01*
X123100500Y-87070730D01*
X123097646Y-87040300D01*
X123097646Y-87040298D01*
X123052793Y-86912119D01*
X123052792Y-86912117D01*
X122972150Y-86802850D01*
X122862882Y-86722207D01*
X122862880Y-86722206D01*
X122734700Y-86677353D01*
X122704270Y-86674500D01*
X122704266Y-86674500D01*
X121395734Y-86674500D01*
X121395730Y-86674500D01*
X121365300Y-86677353D01*
X121365298Y-86677353D01*
X121237119Y-86722206D01*
X121237117Y-86722207D01*
X121127850Y-86802850D01*
X121047207Y-86912117D01*
X121047206Y-86912119D01*
X121002353Y-87040298D01*
X121002353Y-87040300D01*
X120999500Y-87070730D01*
X104981773Y-87070730D01*
X104954622Y-87017444D01*
X104829727Y-86845540D01*
X104829723Y-86845535D01*
X104679464Y-86695276D01*
X104679459Y-86695272D01*
X104507557Y-86570379D01*
X104318215Y-86473903D01*
X104116124Y-86408241D01*
X104050000Y-86397768D01*
X104050000Y-87445854D01*
X103983343Y-87407370D01*
X103862535Y-87375000D01*
X103737465Y-87375000D01*
X103616657Y-87407370D01*
X103550000Y-87445854D01*
X103550000Y-86397768D01*
X103549999Y-86397768D01*
X103483875Y-86408241D01*
X103281784Y-86473903D01*
X103092442Y-86570379D01*
X102920540Y-86695272D01*
X102920535Y-86695276D01*
X102770276Y-86845535D01*
X102770272Y-86845540D01*
X102645379Y-87017442D01*
X102548905Y-87206781D01*
X102509240Y-87328856D01*
X102469802Y-87386531D01*
X102405443Y-87413729D01*
X102336597Y-87401814D01*
X102285121Y-87354570D01*
X102276748Y-87337990D01*
X102230941Y-87227403D01*
X102230941Y-87227402D01*
X102115977Y-87055345D01*
X102115975Y-87055342D01*
X101969657Y-86909024D01*
X101874638Y-86845535D01*
X101797598Y-86794059D01*
X101606420Y-86714870D01*
X101606412Y-86714868D01*
X101403469Y-86674500D01*
X101403465Y-86674500D01*
X101196535Y-86674500D01*
X101196530Y-86674500D01*
X100993587Y-86714868D01*
X100993579Y-86714870D01*
X100802403Y-86794058D01*
X100630342Y-86909024D01*
X100484024Y-87055342D01*
X100369058Y-87227403D01*
X100289870Y-87418579D01*
X100289868Y-87418587D01*
X100249500Y-87621530D01*
X99850499Y-87621530D01*
X99810130Y-87418580D01*
X99730941Y-87227402D01*
X99615977Y-87055345D01*
X99615975Y-87055342D01*
X99469657Y-86909024D01*
X99374638Y-86845535D01*
X99297598Y-86794059D01*
X99106420Y-86714870D01*
X99106412Y-86714868D01*
X98903469Y-86674500D01*
X98903465Y-86674500D01*
X98696535Y-86674500D01*
X98696530Y-86674500D01*
X98493587Y-86714868D01*
X98493579Y-86714870D01*
X98302403Y-86794058D01*
X98130342Y-86909024D01*
X97984024Y-87055342D01*
X97869058Y-87227403D01*
X97789870Y-87418579D01*
X97789868Y-87418587D01*
X97749500Y-87621530D01*
X97350500Y-87621530D01*
X97350500Y-87070730D01*
X97347646Y-87040300D01*
X97347646Y-87040298D01*
X97302793Y-86912119D01*
X97302792Y-86912117D01*
X97222150Y-86802850D01*
X97112882Y-86722207D01*
X97112880Y-86722206D01*
X96984700Y-86677353D01*
X96954270Y-86674500D01*
X96954266Y-86674500D01*
X95645734Y-86674500D01*
X95645730Y-86674500D01*
X95615300Y-86677353D01*
X95615298Y-86677353D01*
X95487119Y-86722206D01*
X95487117Y-86722207D01*
X95377850Y-86802850D01*
X95297207Y-86912117D01*
X95297206Y-86912119D01*
X95252353Y-87040298D01*
X95252353Y-87040300D01*
X95249500Y-87070730D01*
X79131773Y-87070730D01*
X79104622Y-87017444D01*
X78979727Y-86845540D01*
X78979723Y-86845535D01*
X78829464Y-86695276D01*
X78829459Y-86695272D01*
X78657557Y-86570379D01*
X78468215Y-86473903D01*
X78266124Y-86408241D01*
X78200000Y-86397768D01*
X78200000Y-87445854D01*
X78133343Y-87407370D01*
X78012535Y-87375000D01*
X77887465Y-87375000D01*
X77766657Y-87407370D01*
X77700000Y-87445854D01*
X77700000Y-86397768D01*
X77699999Y-86397768D01*
X77633875Y-86408241D01*
X77431784Y-86473903D01*
X77242442Y-86570379D01*
X77070540Y-86695272D01*
X77070535Y-86695276D01*
X76920276Y-86845535D01*
X76920272Y-86845540D01*
X76795379Y-87017442D01*
X76698905Y-87206781D01*
X76659240Y-87328856D01*
X76619802Y-87386531D01*
X76555443Y-87413729D01*
X76486597Y-87401814D01*
X76435121Y-87354570D01*
X76426748Y-87337990D01*
X76380941Y-87227403D01*
X76380941Y-87227402D01*
X76265977Y-87055345D01*
X76265975Y-87055342D01*
X76119657Y-86909024D01*
X76024638Y-86845535D01*
X75947598Y-86794059D01*
X75756420Y-86714870D01*
X75756412Y-86714868D01*
X75553469Y-86674500D01*
X75553465Y-86674500D01*
X75346535Y-86674500D01*
X75346530Y-86674500D01*
X75143587Y-86714868D01*
X75143579Y-86714870D01*
X74952403Y-86794058D01*
X74780342Y-86909024D01*
X74634024Y-87055342D01*
X74519058Y-87227403D01*
X74439870Y-87418579D01*
X74439868Y-87418587D01*
X74399500Y-87621530D01*
X74000499Y-87621530D01*
X73960130Y-87418580D01*
X73880941Y-87227402D01*
X73765977Y-87055345D01*
X73765975Y-87055342D01*
X73619657Y-86909024D01*
X73524638Y-86845535D01*
X73447598Y-86794059D01*
X73256420Y-86714870D01*
X73256412Y-86714868D01*
X73053469Y-86674500D01*
X73053465Y-86674500D01*
X72846535Y-86674500D01*
X72846530Y-86674500D01*
X72643587Y-86714868D01*
X72643579Y-86714870D01*
X72452403Y-86794058D01*
X72280342Y-86909024D01*
X72134024Y-87055342D01*
X72019058Y-87227403D01*
X71939870Y-87418579D01*
X71939868Y-87418587D01*
X71899500Y-87621530D01*
X71500500Y-87621530D01*
X71500500Y-87070730D01*
X71497646Y-87040300D01*
X71497646Y-87040298D01*
X71452793Y-86912119D01*
X71452792Y-86912117D01*
X71372150Y-86802850D01*
X71262882Y-86722207D01*
X71262880Y-86722206D01*
X71134700Y-86677353D01*
X71104270Y-86674500D01*
X71104266Y-86674500D01*
X69795734Y-86674500D01*
X69795730Y-86674500D01*
X69765300Y-86677353D01*
X69765298Y-86677353D01*
X69637119Y-86722206D01*
X69637117Y-86722207D01*
X69527850Y-86802850D01*
X69447207Y-86912117D01*
X69447206Y-86912119D01*
X69402353Y-87040298D01*
X69402353Y-87040300D01*
X69399500Y-87070730D01*
X68000500Y-87070730D01*
X68000500Y-86006959D01*
X68001280Y-85993077D01*
X68001320Y-85992717D01*
X68011459Y-85902727D01*
X68017635Y-85875668D01*
X68045353Y-85796457D01*
X68057393Y-85771453D01*
X68102046Y-85700389D01*
X68119351Y-85678690D01*
X68178690Y-85619351D01*
X68200389Y-85602046D01*
X68271453Y-85557393D01*
X68296457Y-85545353D01*
X68375668Y-85517635D01*
X68402729Y-85511459D01*
X68478753Y-85502893D01*
X68493078Y-85501280D01*
X68506960Y-85500500D01*
X68565892Y-85500500D01*
X131434108Y-85500500D01*
X131493040Y-85500500D01*
X131506922Y-85501280D01*
G37*
%TD.AperFunction*%
%TD*%
%TA.AperFunction,NonConductor*%
G36*
X90540204Y-113626851D02*
G01*
X90573562Y-113673112D01*
X90580940Y-113690925D01*
X90594060Y-113722598D01*
X90626248Y-113770771D01*
X90709025Y-113894657D01*
X90855343Y-114040975D01*
X90855346Y-114040977D01*
X91027403Y-114155941D01*
X91218581Y-114235130D01*
X91262074Y-114243781D01*
X91312857Y-114253883D01*
X91374768Y-114286268D01*
X91409342Y-114346983D01*
X91405603Y-114416753D01*
X91364737Y-114473425D01*
X91299718Y-114499006D01*
X91288666Y-114499500D01*
X90387741Y-114499500D01*
X90320702Y-114479815D01*
X90274947Y-114427011D01*
X90265003Y-114357853D01*
X90275744Y-114325581D01*
X90275255Y-114325399D01*
X90328597Y-114182379D01*
X90328599Y-114182372D01*
X90335000Y-114122844D01*
X90335001Y-114122827D01*
X90335001Y-113720564D01*
X90354686Y-113653525D01*
X90407490Y-113607770D01*
X90476648Y-113597826D01*
X90540204Y-113626851D01*
G37*
%TD.AperFunction*%
M02*
