%TF.GenerationSoftware,KiCad,Pcbnew,10.0.4*%
%TF.CreationDate,2026-09-25T19:22:44+09:00*%
%TF.ProjectId,Oddom board,4f64646f-6d20-4626-9f61-72642e6b6963,rev?*%
%TF.SameCoordinates,Original*%
%TF.FileFunction,Legend,Bot*%
%TF.FilePolarity,Positive*%
%FSLAX46Y46*%
G04 Gerber Fmt 4.6, Leading zero omitted, Abs format (unit mm)*
G04 Created by KiCad (PCBNEW 10.0.4) date 2026-09-25 19:22:44*
%MOMM*%
%LPD*%
G01*
G04 APERTURE LIST*
%ADD10C,0.100000*%
%ADD11C,0.000000*%
G04 APERTURE END LIST*
D10*
X109423497Y-108612732D02*
X109423497Y-107712732D01*
X109423497Y-107712732D02*
X109209211Y-107712732D01*
X109209211Y-107712732D02*
X109080640Y-107755589D01*
X109080640Y-107755589D02*
X108994925Y-107841303D01*
X108994925Y-107841303D02*
X108952068Y-107927017D01*
X108952068Y-107927017D02*
X108909211Y-108098446D01*
X108909211Y-108098446D02*
X108909211Y-108227017D01*
X108909211Y-108227017D02*
X108952068Y-108398446D01*
X108952068Y-108398446D02*
X108994925Y-108484160D01*
X108994925Y-108484160D02*
X109080640Y-108569875D01*
X109080640Y-108569875D02*
X109209211Y-108612732D01*
X109209211Y-108612732D02*
X109423497Y-108612732D01*
X108523497Y-108612732D02*
X108523497Y-107712732D01*
X107794926Y-108141303D02*
X108094926Y-108141303D01*
X108094926Y-108612732D02*
X108094926Y-107712732D01*
X108094926Y-107712732D02*
X107666354Y-107712732D01*
X107023497Y-108141303D02*
X107323497Y-108141303D01*
X107323497Y-108612732D02*
X107323497Y-107712732D01*
X107323497Y-107712732D02*
X106894925Y-107712732D01*
X106552068Y-108141303D02*
X106252068Y-108141303D01*
X106123496Y-108612732D02*
X106552068Y-108612732D01*
X106552068Y-108612732D02*
X106552068Y-107712732D01*
X106552068Y-107712732D02*
X106123496Y-107712732D01*
X105223496Y-108612732D02*
X105523496Y-108184160D01*
X105737782Y-108612732D02*
X105737782Y-107712732D01*
X105737782Y-107712732D02*
X105394925Y-107712732D01*
X105394925Y-107712732D02*
X105309210Y-107755589D01*
X105309210Y-107755589D02*
X105266353Y-107798446D01*
X105266353Y-107798446D02*
X105223496Y-107884160D01*
X105223496Y-107884160D02*
X105223496Y-108012732D01*
X105223496Y-108012732D02*
X105266353Y-108098446D01*
X105266353Y-108098446D02*
X105309210Y-108141303D01*
X105309210Y-108141303D02*
X105394925Y-108184160D01*
X105394925Y-108184160D02*
X105737782Y-108184160D01*
X104837782Y-108141303D02*
X104537782Y-108141303D01*
X104409210Y-108612732D02*
X104837782Y-108612732D01*
X104837782Y-108612732D02*
X104837782Y-107712732D01*
X104837782Y-107712732D02*
X104409210Y-107712732D01*
X104023496Y-108612732D02*
X104023496Y-107712732D01*
X104023496Y-107712732D02*
X103509210Y-108612732D01*
X103509210Y-108612732D02*
X103509210Y-107712732D01*
X103209210Y-107712732D02*
X102694925Y-107712732D01*
X102952067Y-108612732D02*
X102952067Y-107712732D01*
X102394925Y-108612732D02*
X102394925Y-107712732D01*
X102009211Y-108355589D02*
X101580640Y-108355589D01*
X102094925Y-108612732D02*
X101794925Y-107712732D01*
X101794925Y-107712732D02*
X101494925Y-108612732D01*
X100766353Y-108612732D02*
X101194925Y-108612732D01*
X101194925Y-108612732D02*
X101194925Y-107712732D01*
X99823497Y-108569875D02*
X99694926Y-108612732D01*
X99694926Y-108612732D02*
X99480640Y-108612732D01*
X99480640Y-108612732D02*
X99394926Y-108569875D01*
X99394926Y-108569875D02*
X99352068Y-108527017D01*
X99352068Y-108527017D02*
X99309211Y-108441303D01*
X99309211Y-108441303D02*
X99309211Y-108355589D01*
X99309211Y-108355589D02*
X99352068Y-108269875D01*
X99352068Y-108269875D02*
X99394926Y-108227017D01*
X99394926Y-108227017D02*
X99480640Y-108184160D01*
X99480640Y-108184160D02*
X99652068Y-108141303D01*
X99652068Y-108141303D02*
X99737783Y-108098446D01*
X99737783Y-108098446D02*
X99780640Y-108055589D01*
X99780640Y-108055589D02*
X99823497Y-107969875D01*
X99823497Y-107969875D02*
X99823497Y-107884160D01*
X99823497Y-107884160D02*
X99780640Y-107798446D01*
X99780640Y-107798446D02*
X99737783Y-107755589D01*
X99737783Y-107755589D02*
X99652068Y-107712732D01*
X99652068Y-107712732D02*
X99437783Y-107712732D01*
X99437783Y-107712732D02*
X99309211Y-107755589D01*
X99009211Y-107712732D02*
X98794925Y-108612732D01*
X98794925Y-108612732D02*
X98623497Y-107969875D01*
X98623497Y-107969875D02*
X98452068Y-108612732D01*
X98452068Y-108612732D02*
X98237783Y-107712732D01*
X97894926Y-108141303D02*
X97594926Y-108141303D01*
X97466354Y-108612732D02*
X97894926Y-108612732D01*
X97894926Y-108612732D02*
X97894926Y-107712732D01*
X97894926Y-107712732D02*
X97466354Y-107712732D01*
X96566354Y-108612732D02*
X96866354Y-108184160D01*
X97080640Y-108612732D02*
X97080640Y-107712732D01*
X97080640Y-107712732D02*
X96737783Y-107712732D01*
X96737783Y-107712732D02*
X96652068Y-107755589D01*
X96652068Y-107755589D02*
X96609211Y-107798446D01*
X96609211Y-107798446D02*
X96566354Y-107884160D01*
X96566354Y-107884160D02*
X96566354Y-108012732D01*
X96566354Y-108012732D02*
X96609211Y-108098446D01*
X96609211Y-108098446D02*
X96652068Y-108141303D01*
X96652068Y-108141303D02*
X96737783Y-108184160D01*
X96737783Y-108184160D02*
X97080640Y-108184160D01*
X96309211Y-107712732D02*
X96009211Y-108612732D01*
X96009211Y-108612732D02*
X95709211Y-107712732D01*
X95409211Y-108141303D02*
X95109211Y-108141303D01*
X94980639Y-108612732D02*
X95409211Y-108612732D01*
X95409211Y-108612732D02*
X95409211Y-107712732D01*
X95409211Y-107712732D02*
X94980639Y-107712732D01*
X109252068Y-109161682D02*
X109080640Y-109161682D01*
X109080640Y-109161682D02*
X108994925Y-109204539D01*
X108994925Y-109204539D02*
X108909211Y-109290253D01*
X108909211Y-109290253D02*
X108866354Y-109461682D01*
X108866354Y-109461682D02*
X108866354Y-109761682D01*
X108866354Y-109761682D02*
X108909211Y-109933110D01*
X108909211Y-109933110D02*
X108994925Y-110018825D01*
X108994925Y-110018825D02*
X109080640Y-110061682D01*
X109080640Y-110061682D02*
X109252068Y-110061682D01*
X109252068Y-110061682D02*
X109337783Y-110018825D01*
X109337783Y-110018825D02*
X109423497Y-109933110D01*
X109423497Y-109933110D02*
X109466354Y-109761682D01*
X109466354Y-109761682D02*
X109466354Y-109461682D01*
X109466354Y-109461682D02*
X109423497Y-109290253D01*
X109423497Y-109290253D02*
X109337783Y-109204539D01*
X109337783Y-109204539D02*
X109252068Y-109161682D01*
X108480640Y-110061682D02*
X108480640Y-109161682D01*
X108480640Y-109161682D02*
X108266354Y-109161682D01*
X108266354Y-109161682D02*
X108137783Y-109204539D01*
X108137783Y-109204539D02*
X108052068Y-109290253D01*
X108052068Y-109290253D02*
X108009211Y-109375967D01*
X108009211Y-109375967D02*
X107966354Y-109547396D01*
X107966354Y-109547396D02*
X107966354Y-109675967D01*
X107966354Y-109675967D02*
X108009211Y-109847396D01*
X108009211Y-109847396D02*
X108052068Y-109933110D01*
X108052068Y-109933110D02*
X108137783Y-110018825D01*
X108137783Y-110018825D02*
X108266354Y-110061682D01*
X108266354Y-110061682D02*
X108480640Y-110061682D01*
X107409211Y-109161682D02*
X107237783Y-109161682D01*
X107237783Y-109161682D02*
X107152068Y-109204539D01*
X107152068Y-109204539D02*
X107066354Y-109290253D01*
X107066354Y-109290253D02*
X107023497Y-109461682D01*
X107023497Y-109461682D02*
X107023497Y-109761682D01*
X107023497Y-109761682D02*
X107066354Y-109933110D01*
X107066354Y-109933110D02*
X107152068Y-110018825D01*
X107152068Y-110018825D02*
X107237783Y-110061682D01*
X107237783Y-110061682D02*
X107409211Y-110061682D01*
X107409211Y-110061682D02*
X107494926Y-110018825D01*
X107494926Y-110018825D02*
X107580640Y-109933110D01*
X107580640Y-109933110D02*
X107623497Y-109761682D01*
X107623497Y-109761682D02*
X107623497Y-109461682D01*
X107623497Y-109461682D02*
X107580640Y-109290253D01*
X107580640Y-109290253D02*
X107494926Y-109204539D01*
X107494926Y-109204539D02*
X107409211Y-109161682D01*
X106637783Y-110061682D02*
X106637783Y-109161682D01*
X106637783Y-109161682D02*
X106337783Y-109804539D01*
X106337783Y-109804539D02*
X106037783Y-109161682D01*
X106037783Y-109161682D02*
X106037783Y-110061682D01*
X105609212Y-109590253D02*
X105309212Y-109590253D01*
X105180640Y-110061682D02*
X105609212Y-110061682D01*
X105609212Y-110061682D02*
X105609212Y-109161682D01*
X105609212Y-109161682D02*
X105180640Y-109161682D01*
X104923497Y-109161682D02*
X104409212Y-109161682D01*
X104666354Y-110061682D02*
X104666354Y-109161682D01*
X103594926Y-110061682D02*
X103894926Y-109633110D01*
X104109212Y-110061682D02*
X104109212Y-109161682D01*
X104109212Y-109161682D02*
X103766355Y-109161682D01*
X103766355Y-109161682D02*
X103680640Y-109204539D01*
X103680640Y-109204539D02*
X103637783Y-109247396D01*
X103637783Y-109247396D02*
X103594926Y-109333110D01*
X103594926Y-109333110D02*
X103594926Y-109461682D01*
X103594926Y-109461682D02*
X103637783Y-109547396D01*
X103637783Y-109547396D02*
X103680640Y-109590253D01*
X103680640Y-109590253D02*
X103766355Y-109633110D01*
X103766355Y-109633110D02*
X104109212Y-109633110D01*
X103037783Y-109633110D02*
X103037783Y-110061682D01*
X103337783Y-109161682D02*
X103037783Y-109633110D01*
X103037783Y-109633110D02*
X102737783Y-109161682D01*
X101452069Y-109590253D02*
X101752069Y-109590253D01*
X101752069Y-110061682D02*
X101752069Y-109161682D01*
X101752069Y-109161682D02*
X101323497Y-109161682D01*
X100594926Y-109461682D02*
X100594926Y-110061682D01*
X100809211Y-109118825D02*
X101023497Y-109761682D01*
X101023497Y-109761682D02*
X100466354Y-109761682D01*
X99952068Y-109161682D02*
X99866354Y-109161682D01*
X99866354Y-109161682D02*
X99780640Y-109204539D01*
X99780640Y-109204539D02*
X99737783Y-109247396D01*
X99737783Y-109247396D02*
X99694925Y-109333110D01*
X99694925Y-109333110D02*
X99652068Y-109504539D01*
X99652068Y-109504539D02*
X99652068Y-109718825D01*
X99652068Y-109718825D02*
X99694925Y-109890253D01*
X99694925Y-109890253D02*
X99737783Y-109975967D01*
X99737783Y-109975967D02*
X99780640Y-110018825D01*
X99780640Y-110018825D02*
X99866354Y-110061682D01*
X99866354Y-110061682D02*
X99952068Y-110061682D01*
X99952068Y-110061682D02*
X100037783Y-110018825D01*
X100037783Y-110018825D02*
X100080640Y-109975967D01*
X100080640Y-109975967D02*
X100123497Y-109890253D01*
X100123497Y-109890253D02*
X100166354Y-109718825D01*
X100166354Y-109718825D02*
X100166354Y-109504539D01*
X100166354Y-109504539D02*
X100123497Y-109333110D01*
X100123497Y-109333110D02*
X100080640Y-109247396D01*
X100080640Y-109247396D02*
X100037783Y-109204539D01*
X100037783Y-109204539D02*
X99952068Y-109161682D01*
X98837782Y-109161682D02*
X99266354Y-109161682D01*
X99266354Y-109161682D02*
X99309211Y-109590253D01*
X99309211Y-109590253D02*
X99266354Y-109547396D01*
X99266354Y-109547396D02*
X99180640Y-109504539D01*
X99180640Y-109504539D02*
X98966354Y-109504539D01*
X98966354Y-109504539D02*
X98880640Y-109547396D01*
X98880640Y-109547396D02*
X98837782Y-109590253D01*
X98837782Y-109590253D02*
X98794925Y-109675967D01*
X98794925Y-109675967D02*
X98794925Y-109890253D01*
X98794925Y-109890253D02*
X98837782Y-109975967D01*
X98837782Y-109975967D02*
X98880640Y-110018825D01*
X98880640Y-110018825D02*
X98966354Y-110061682D01*
X98966354Y-110061682D02*
X99180640Y-110061682D01*
X99180640Y-110061682D02*
X99266354Y-110018825D01*
X99266354Y-110018825D02*
X99309211Y-109975967D01*
X108909211Y-111510632D02*
X109209211Y-111082060D01*
X109423497Y-111510632D02*
X109423497Y-110610632D01*
X109423497Y-110610632D02*
X109080640Y-110610632D01*
X109080640Y-110610632D02*
X108994925Y-110653489D01*
X108994925Y-110653489D02*
X108952068Y-110696346D01*
X108952068Y-110696346D02*
X108909211Y-110782060D01*
X108909211Y-110782060D02*
X108909211Y-110910632D01*
X108909211Y-110910632D02*
X108952068Y-110996346D01*
X108952068Y-110996346D02*
X108994925Y-111039203D01*
X108994925Y-111039203D02*
X109080640Y-111082060D01*
X109080640Y-111082060D02*
X109423497Y-111082060D01*
X108523497Y-111039203D02*
X108223497Y-111039203D01*
X108094925Y-111510632D02*
X108523497Y-111510632D01*
X108523497Y-111510632D02*
X108523497Y-110610632D01*
X108523497Y-110610632D02*
X108094925Y-110610632D01*
X107837782Y-110610632D02*
X107537782Y-111510632D01*
X107537782Y-111510632D02*
X107237782Y-110610632D01*
X106937782Y-111424917D02*
X106894925Y-111467775D01*
X106894925Y-111467775D02*
X106937782Y-111510632D01*
X106937782Y-111510632D02*
X106980639Y-111467775D01*
X106980639Y-111467775D02*
X106937782Y-111424917D01*
X106937782Y-111424917D02*
X106937782Y-111510632D01*
X106552068Y-111253489D02*
X106123497Y-111253489D01*
X106637782Y-111510632D02*
X106337782Y-110610632D01*
X106337782Y-110610632D02*
X106037782Y-111510632D01*
X104366354Y-110610632D02*
X104366354Y-111339203D01*
X104366354Y-111339203D02*
X104323497Y-111424917D01*
X104323497Y-111424917D02*
X104280640Y-111467775D01*
X104280640Y-111467775D02*
X104194925Y-111510632D01*
X104194925Y-111510632D02*
X104023497Y-111510632D01*
X104023497Y-111510632D02*
X103937782Y-111467775D01*
X103937782Y-111467775D02*
X103894925Y-111424917D01*
X103894925Y-111424917D02*
X103852068Y-111339203D01*
X103852068Y-111339203D02*
X103852068Y-110610632D01*
X103423497Y-111510632D02*
X103423497Y-110610632D01*
X103423497Y-110610632D02*
X102909211Y-111510632D01*
X102909211Y-111510632D02*
X102909211Y-110610632D01*
X102480640Y-111510632D02*
X102480640Y-110610632D01*
X102180640Y-110610632D02*
X101666355Y-110610632D01*
X101923497Y-111510632D02*
X101923497Y-110610632D01*
X100680641Y-111510632D02*
X100680641Y-110610632D01*
X100252070Y-111510632D02*
X100252070Y-110610632D01*
X100252070Y-110610632D02*
X100037784Y-110610632D01*
X100037784Y-110610632D02*
X99909213Y-110653489D01*
X99909213Y-110653489D02*
X99823498Y-110739203D01*
X99823498Y-110739203D02*
X99780641Y-110824917D01*
X99780641Y-110824917D02*
X99737784Y-110996346D01*
X99737784Y-110996346D02*
X99737784Y-111124917D01*
X99737784Y-111124917D02*
X99780641Y-111296346D01*
X99780641Y-111296346D02*
X99823498Y-111382060D01*
X99823498Y-111382060D02*
X99909213Y-111467775D01*
X99909213Y-111467775D02*
X100037784Y-111510632D01*
X100037784Y-111510632D02*
X100252070Y-111510632D01*
X99352070Y-111424917D02*
X99309213Y-111467775D01*
X99309213Y-111467775D02*
X99352070Y-111510632D01*
X99352070Y-111510632D02*
X99394927Y-111467775D01*
X99394927Y-111467775D02*
X99352070Y-111424917D01*
X99352070Y-111424917D02*
X99352070Y-111510632D01*
X99352070Y-110953489D02*
X99309213Y-110996346D01*
X99309213Y-110996346D02*
X99352070Y-111039203D01*
X99352070Y-111039203D02*
X99394927Y-110996346D01*
X99394927Y-110996346D02*
X99352070Y-110953489D01*
X99352070Y-110953489D02*
X99352070Y-111039203D01*
X98537785Y-110910632D02*
X98537785Y-111510632D01*
X98752070Y-110567775D02*
X98966356Y-111210632D01*
X98966356Y-111210632D02*
X98409213Y-111210632D01*
X108909211Y-112873867D02*
X108952068Y-112916725D01*
X108952068Y-112916725D02*
X109080640Y-112959582D01*
X109080640Y-112959582D02*
X109166354Y-112959582D01*
X109166354Y-112959582D02*
X109294925Y-112916725D01*
X109294925Y-112916725D02*
X109380640Y-112831010D01*
X109380640Y-112831010D02*
X109423497Y-112745296D01*
X109423497Y-112745296D02*
X109466354Y-112573867D01*
X109466354Y-112573867D02*
X109466354Y-112445296D01*
X109466354Y-112445296D02*
X109423497Y-112273867D01*
X109423497Y-112273867D02*
X109380640Y-112188153D01*
X109380640Y-112188153D02*
X109294925Y-112102439D01*
X109294925Y-112102439D02*
X109166354Y-112059582D01*
X109166354Y-112059582D02*
X109080640Y-112059582D01*
X109080640Y-112059582D02*
X108952068Y-112102439D01*
X108952068Y-112102439D02*
X108909211Y-112145296D01*
X108566354Y-112702439D02*
X108137783Y-112702439D01*
X108652068Y-112959582D02*
X108352068Y-112059582D01*
X108352068Y-112059582D02*
X108052068Y-112959582D01*
X107752068Y-112959582D02*
X107752068Y-112059582D01*
X107752068Y-112059582D02*
X107237782Y-112959582D01*
X107237782Y-112959582D02*
X107237782Y-112059582D01*
X105652068Y-112959582D02*
X106166354Y-112959582D01*
X105909211Y-112959582D02*
X105909211Y-112059582D01*
X105909211Y-112059582D02*
X105994925Y-112188153D01*
X105994925Y-112188153D02*
X106080640Y-112273867D01*
X106080640Y-112273867D02*
X106166354Y-112316725D01*
X105266354Y-112959582D02*
X105266354Y-112059582D01*
X105266354Y-112059582D02*
X104966354Y-112702439D01*
X104966354Y-112702439D02*
X104666354Y-112059582D01*
X104666354Y-112059582D02*
X104666354Y-112959582D01*
X104237783Y-112959582D02*
X104237783Y-112059582D01*
X104237783Y-112402439D02*
X104152069Y-112359582D01*
X104152069Y-112359582D02*
X103980640Y-112359582D01*
X103980640Y-112359582D02*
X103894926Y-112402439D01*
X103894926Y-112402439D02*
X103852069Y-112445296D01*
X103852069Y-112445296D02*
X103809211Y-112531010D01*
X103809211Y-112531010D02*
X103809211Y-112788153D01*
X103809211Y-112788153D02*
X103852069Y-112873867D01*
X103852069Y-112873867D02*
X103894926Y-112916725D01*
X103894926Y-112916725D02*
X103980640Y-112959582D01*
X103980640Y-112959582D02*
X104152069Y-112959582D01*
X104152069Y-112959582D02*
X104237783Y-112916725D01*
X103423497Y-112359582D02*
X103423497Y-113259582D01*
X103423497Y-112402439D02*
X103337783Y-112359582D01*
X103337783Y-112359582D02*
X103166354Y-112359582D01*
X103166354Y-112359582D02*
X103080640Y-112402439D01*
X103080640Y-112402439D02*
X103037783Y-112445296D01*
X103037783Y-112445296D02*
X102994925Y-112531010D01*
X102994925Y-112531010D02*
X102994925Y-112788153D01*
X102994925Y-112788153D02*
X103037783Y-112873867D01*
X103037783Y-112873867D02*
X103080640Y-112916725D01*
X103080640Y-112916725D02*
X103166354Y-112959582D01*
X103166354Y-112959582D02*
X103337783Y-112959582D01*
X103337783Y-112959582D02*
X103423497Y-112916725D01*
X102652068Y-112916725D02*
X102566354Y-112959582D01*
X102566354Y-112959582D02*
X102394925Y-112959582D01*
X102394925Y-112959582D02*
X102309211Y-112916725D01*
X102309211Y-112916725D02*
X102266354Y-112831010D01*
X102266354Y-112831010D02*
X102266354Y-112788153D01*
X102266354Y-112788153D02*
X102309211Y-112702439D01*
X102309211Y-112702439D02*
X102394925Y-112659582D01*
X102394925Y-112659582D02*
X102523497Y-112659582D01*
X102523497Y-112659582D02*
X102609211Y-112616725D01*
X102609211Y-112616725D02*
X102652068Y-112531010D01*
X102652068Y-112531010D02*
X102652068Y-112488153D01*
X102652068Y-112488153D02*
X102609211Y-112402439D01*
X102609211Y-112402439D02*
X102523497Y-112359582D01*
X102523497Y-112359582D02*
X102394925Y-112359582D01*
X102394925Y-112359582D02*
X102309211Y-112402439D01*
%TO.C,QR\u002A\u002A\u002A\u002A\u002A*%
G36*
X75250000Y-92425000D02*
G01*
X75750000Y-92425000D01*
X75750000Y-92925000D01*
X75250000Y-92925000D01*
X75250000Y-92425000D01*
G37*
G36*
X75250000Y-92925000D02*
G01*
X75750000Y-92925000D01*
X75750000Y-93425000D01*
X75250000Y-93425000D01*
X75250000Y-92925000D01*
G37*
G36*
X75250000Y-93425000D02*
G01*
X75750000Y-93425000D01*
X75750000Y-93925000D01*
X75250000Y-93925000D01*
X75250000Y-93425000D01*
G37*
G36*
X75250000Y-93925000D02*
G01*
X75750000Y-93925000D01*
X75750000Y-94425000D01*
X75250000Y-94425000D01*
X75250000Y-93925000D01*
G37*
G36*
X75250000Y-94425000D02*
G01*
X75750000Y-94425000D01*
X75750000Y-94925000D01*
X75250000Y-94925000D01*
X75250000Y-94425000D01*
G37*
G36*
X75250000Y-94925000D02*
G01*
X75750000Y-94925000D01*
X75750000Y-95425000D01*
X75250000Y-95425000D01*
X75250000Y-94925000D01*
G37*
G36*
X75250000Y-95425000D02*
G01*
X75750000Y-95425000D01*
X75750000Y-95925000D01*
X75250000Y-95925000D01*
X75250000Y-95425000D01*
G37*
G36*
X75250000Y-96425000D02*
G01*
X75750000Y-96425000D01*
X75750000Y-96925000D01*
X75250000Y-96925000D01*
X75250000Y-96425000D01*
G37*
G36*
X75250000Y-96925000D02*
G01*
X75750000Y-96925000D01*
X75750000Y-97425000D01*
X75250000Y-97425000D01*
X75250000Y-96925000D01*
G37*
G36*
X75250000Y-99425000D02*
G01*
X75750000Y-99425000D01*
X75750000Y-99925000D01*
X75250000Y-99925000D01*
X75250000Y-99425000D01*
G37*
G36*
X75250000Y-99925000D02*
G01*
X75750000Y-99925000D01*
X75750000Y-100425000D01*
X75250000Y-100425000D01*
X75250000Y-99925000D01*
G37*
G36*
X75250000Y-101425000D02*
G01*
X75750000Y-101425000D01*
X75750000Y-101925000D01*
X75250000Y-101925000D01*
X75250000Y-101425000D01*
G37*
G36*
X75250000Y-101925000D02*
G01*
X75750000Y-101925000D01*
X75750000Y-102425000D01*
X75250000Y-102425000D01*
X75250000Y-101925000D01*
G37*
G36*
X75250000Y-102425000D02*
G01*
X75750000Y-102425000D01*
X75750000Y-102925000D01*
X75250000Y-102925000D01*
X75250000Y-102425000D01*
G37*
G36*
X75250000Y-102925000D02*
G01*
X75750000Y-102925000D01*
X75750000Y-103425000D01*
X75250000Y-103425000D01*
X75250000Y-102925000D01*
G37*
G36*
X75250000Y-104425000D02*
G01*
X75750000Y-104425000D01*
X75750000Y-104925000D01*
X75250000Y-104925000D01*
X75250000Y-104425000D01*
G37*
G36*
X75250000Y-105425000D02*
G01*
X75750000Y-105425000D01*
X75750000Y-105925000D01*
X75250000Y-105925000D01*
X75250000Y-105425000D01*
G37*
G36*
X75250000Y-105925000D02*
G01*
X75750000Y-105925000D01*
X75750000Y-106425000D01*
X75250000Y-106425000D01*
X75250000Y-105925000D01*
G37*
G36*
X75250000Y-106425000D02*
G01*
X75750000Y-106425000D01*
X75750000Y-106925000D01*
X75250000Y-106925000D01*
X75250000Y-106425000D01*
G37*
G36*
X75250000Y-106925000D02*
G01*
X75750000Y-106925000D01*
X75750000Y-107425000D01*
X75250000Y-107425000D01*
X75250000Y-106925000D01*
G37*
G36*
X75250000Y-107425000D02*
G01*
X75750000Y-107425000D01*
X75750000Y-107925000D01*
X75250000Y-107925000D01*
X75250000Y-107425000D01*
G37*
G36*
X75250000Y-107925000D02*
G01*
X75750000Y-107925000D01*
X75750000Y-108425000D01*
X75250000Y-108425000D01*
X75250000Y-107925000D01*
G37*
G36*
X75250000Y-108425000D02*
G01*
X75750000Y-108425000D01*
X75750000Y-108925000D01*
X75250000Y-108925000D01*
X75250000Y-108425000D01*
G37*
G36*
X75750000Y-92425000D02*
G01*
X76250000Y-92425000D01*
X76250000Y-92925000D01*
X75750000Y-92925000D01*
X75750000Y-92425000D01*
G37*
G36*
X75750000Y-95425000D02*
G01*
X76250000Y-95425000D01*
X76250000Y-95925000D01*
X75750000Y-95925000D01*
X75750000Y-95425000D01*
G37*
G36*
X75750000Y-97425000D02*
G01*
X76250000Y-97425000D01*
X76250000Y-97925000D01*
X75750000Y-97925000D01*
X75750000Y-97425000D01*
G37*
G36*
X75750000Y-98425000D02*
G01*
X76250000Y-98425000D01*
X76250000Y-98925000D01*
X75750000Y-98925000D01*
X75750000Y-98425000D01*
G37*
G36*
X75750000Y-98925000D02*
G01*
X76250000Y-98925000D01*
X76250000Y-99425000D01*
X75750000Y-99425000D01*
X75750000Y-98925000D01*
G37*
G36*
X75750000Y-99425000D02*
G01*
X76250000Y-99425000D01*
X76250000Y-99925000D01*
X75750000Y-99925000D01*
X75750000Y-99425000D01*
G37*
G36*
X75750000Y-99925000D02*
G01*
X76250000Y-99925000D01*
X76250000Y-100425000D01*
X75750000Y-100425000D01*
X75750000Y-99925000D01*
G37*
G36*
X75750000Y-100425000D02*
G01*
X76250000Y-100425000D01*
X76250000Y-100925000D01*
X75750000Y-100925000D01*
X75750000Y-100425000D01*
G37*
G36*
X75750000Y-101925000D02*
G01*
X76250000Y-101925000D01*
X76250000Y-102425000D01*
X75750000Y-102425000D01*
X75750000Y-101925000D01*
G37*
G36*
X75750000Y-104425000D02*
G01*
X76250000Y-104425000D01*
X76250000Y-104925000D01*
X75750000Y-104925000D01*
X75750000Y-104425000D01*
G37*
G36*
X75750000Y-105425000D02*
G01*
X76250000Y-105425000D01*
X76250000Y-105925000D01*
X75750000Y-105925000D01*
X75750000Y-105425000D01*
G37*
G36*
X75750000Y-108425000D02*
G01*
X76250000Y-108425000D01*
X76250000Y-108925000D01*
X75750000Y-108925000D01*
X75750000Y-108425000D01*
G37*
G36*
X76250000Y-92425000D02*
G01*
X76750000Y-92425000D01*
X76750000Y-92925000D01*
X76250000Y-92925000D01*
X76250000Y-92425000D01*
G37*
G36*
X76250000Y-93425000D02*
G01*
X76750000Y-93425000D01*
X76750000Y-93925000D01*
X76250000Y-93925000D01*
X76250000Y-93425000D01*
G37*
G36*
X76250000Y-93925000D02*
G01*
X76750000Y-93925000D01*
X76750000Y-94425000D01*
X76250000Y-94425000D01*
X76250000Y-93925000D01*
G37*
G36*
X76250000Y-94425000D02*
G01*
X76750000Y-94425000D01*
X76750000Y-94925000D01*
X76250000Y-94925000D01*
X76250000Y-94425000D01*
G37*
G36*
X76250000Y-95425000D02*
G01*
X76750000Y-95425000D01*
X76750000Y-95925000D01*
X76250000Y-95925000D01*
X76250000Y-95425000D01*
G37*
G36*
X76250000Y-96925000D02*
G01*
X76750000Y-96925000D01*
X76750000Y-97425000D01*
X76250000Y-97425000D01*
X76250000Y-96925000D01*
G37*
G36*
X76250000Y-97925000D02*
G01*
X76750000Y-97925000D01*
X76750000Y-98425000D01*
X76250000Y-98425000D01*
X76250000Y-97925000D01*
G37*
G36*
X76250000Y-100425000D02*
G01*
X76750000Y-100425000D01*
X76750000Y-100925000D01*
X76250000Y-100925000D01*
X76250000Y-100425000D01*
G37*
G36*
X76250000Y-100925000D02*
G01*
X76750000Y-100925000D01*
X76750000Y-101425000D01*
X76250000Y-101425000D01*
X76250000Y-100925000D01*
G37*
G36*
X76250000Y-101425000D02*
G01*
X76750000Y-101425000D01*
X76750000Y-101925000D01*
X76250000Y-101925000D01*
X76250000Y-101425000D01*
G37*
G36*
X76250000Y-101925000D02*
G01*
X76750000Y-101925000D01*
X76750000Y-102425000D01*
X76250000Y-102425000D01*
X76250000Y-101925000D01*
G37*
G36*
X76250000Y-102425000D02*
G01*
X76750000Y-102425000D01*
X76750000Y-102925000D01*
X76250000Y-102925000D01*
X76250000Y-102425000D01*
G37*
G36*
X76250000Y-102925000D02*
G01*
X76750000Y-102925000D01*
X76750000Y-103425000D01*
X76250000Y-103425000D01*
X76250000Y-102925000D01*
G37*
G36*
X76250000Y-103925000D02*
G01*
X76750000Y-103925000D01*
X76750000Y-104425000D01*
X76250000Y-104425000D01*
X76250000Y-103925000D01*
G37*
G36*
X76250000Y-104425000D02*
G01*
X76750000Y-104425000D01*
X76750000Y-104925000D01*
X76250000Y-104925000D01*
X76250000Y-104425000D01*
G37*
G36*
X76250000Y-105425000D02*
G01*
X76750000Y-105425000D01*
X76750000Y-105925000D01*
X76250000Y-105925000D01*
X76250000Y-105425000D01*
G37*
G36*
X76250000Y-106425000D02*
G01*
X76750000Y-106425000D01*
X76750000Y-106925000D01*
X76250000Y-106925000D01*
X76250000Y-106425000D01*
G37*
G36*
X76250000Y-106925000D02*
G01*
X76750000Y-106925000D01*
X76750000Y-107425000D01*
X76250000Y-107425000D01*
X76250000Y-106925000D01*
G37*
G36*
X76250000Y-107425000D02*
G01*
X76750000Y-107425000D01*
X76750000Y-107925000D01*
X76250000Y-107925000D01*
X76250000Y-107425000D01*
G37*
G36*
X76250000Y-108425000D02*
G01*
X76750000Y-108425000D01*
X76750000Y-108925000D01*
X76250000Y-108925000D01*
X76250000Y-108425000D01*
G37*
G36*
X76750000Y-92425000D02*
G01*
X77250000Y-92425000D01*
X77250000Y-92925000D01*
X76750000Y-92925000D01*
X76750000Y-92425000D01*
G37*
G36*
X76750000Y-93425000D02*
G01*
X77250000Y-93425000D01*
X77250000Y-93925000D01*
X76750000Y-93925000D01*
X76750000Y-93425000D01*
G37*
G36*
X76750000Y-93925000D02*
G01*
X77250000Y-93925000D01*
X77250000Y-94425000D01*
X76750000Y-94425000D01*
X76750000Y-93925000D01*
G37*
G36*
X76750000Y-94425000D02*
G01*
X77250000Y-94425000D01*
X77250000Y-94925000D01*
X76750000Y-94925000D01*
X76750000Y-94425000D01*
G37*
G36*
X76750000Y-95425000D02*
G01*
X77250000Y-95425000D01*
X77250000Y-95925000D01*
X76750000Y-95925000D01*
X76750000Y-95425000D01*
G37*
G36*
X76750000Y-96925000D02*
G01*
X77250000Y-96925000D01*
X77250000Y-97425000D01*
X76750000Y-97425000D01*
X76750000Y-96925000D01*
G37*
G36*
X76750000Y-97425000D02*
G01*
X77250000Y-97425000D01*
X77250000Y-97925000D01*
X76750000Y-97925000D01*
X76750000Y-97425000D01*
G37*
G36*
X76750000Y-98425000D02*
G01*
X77250000Y-98425000D01*
X77250000Y-98925000D01*
X76750000Y-98925000D01*
X76750000Y-98425000D01*
G37*
G36*
X76750000Y-99425000D02*
G01*
X77250000Y-99425000D01*
X77250000Y-99925000D01*
X76750000Y-99925000D01*
X76750000Y-99425000D01*
G37*
G36*
X76750000Y-99925000D02*
G01*
X77250000Y-99925000D01*
X77250000Y-100425000D01*
X76750000Y-100425000D01*
X76750000Y-99925000D01*
G37*
G36*
X76750000Y-100925000D02*
G01*
X77250000Y-100925000D01*
X77250000Y-101425000D01*
X76750000Y-101425000D01*
X76750000Y-100925000D01*
G37*
G36*
X76750000Y-102425000D02*
G01*
X77250000Y-102425000D01*
X77250000Y-102925000D01*
X76750000Y-102925000D01*
X76750000Y-102425000D01*
G37*
G36*
X76750000Y-102925000D02*
G01*
X77250000Y-102925000D01*
X77250000Y-103425000D01*
X76750000Y-103425000D01*
X76750000Y-102925000D01*
G37*
G36*
X76750000Y-105425000D02*
G01*
X77250000Y-105425000D01*
X77250000Y-105925000D01*
X76750000Y-105925000D01*
X76750000Y-105425000D01*
G37*
G36*
X76750000Y-106425000D02*
G01*
X77250000Y-106425000D01*
X77250000Y-106925000D01*
X76750000Y-106925000D01*
X76750000Y-106425000D01*
G37*
G36*
X76750000Y-106925000D02*
G01*
X77250000Y-106925000D01*
X77250000Y-107425000D01*
X76750000Y-107425000D01*
X76750000Y-106925000D01*
G37*
G36*
X76750000Y-107425000D02*
G01*
X77250000Y-107425000D01*
X77250000Y-107925000D01*
X76750000Y-107925000D01*
X76750000Y-107425000D01*
G37*
G36*
X76750000Y-108425000D02*
G01*
X77250000Y-108425000D01*
X77250000Y-108925000D01*
X76750000Y-108925000D01*
X76750000Y-108425000D01*
G37*
G36*
X77250000Y-92425000D02*
G01*
X77750000Y-92425000D01*
X77750000Y-92925000D01*
X77250000Y-92925000D01*
X77250000Y-92425000D01*
G37*
G36*
X77250000Y-93425000D02*
G01*
X77750000Y-93425000D01*
X77750000Y-93925000D01*
X77250000Y-93925000D01*
X77250000Y-93425000D01*
G37*
G36*
X77250000Y-93925000D02*
G01*
X77750000Y-93925000D01*
X77750000Y-94425000D01*
X77250000Y-94425000D01*
X77250000Y-93925000D01*
G37*
G36*
X77250000Y-94425000D02*
G01*
X77750000Y-94425000D01*
X77750000Y-94925000D01*
X77250000Y-94925000D01*
X77250000Y-94425000D01*
G37*
G36*
X77250000Y-95425000D02*
G01*
X77750000Y-95425000D01*
X77750000Y-95925000D01*
X77250000Y-95925000D01*
X77250000Y-95425000D01*
G37*
G36*
X77250000Y-96425000D02*
G01*
X77750000Y-96425000D01*
X77750000Y-96925000D01*
X77250000Y-96925000D01*
X77250000Y-96425000D01*
G37*
G36*
X77250000Y-96925000D02*
G01*
X77750000Y-96925000D01*
X77750000Y-97425000D01*
X77250000Y-97425000D01*
X77250000Y-96925000D01*
G37*
G36*
X77250000Y-98925000D02*
G01*
X77750000Y-98925000D01*
X77750000Y-99425000D01*
X77250000Y-99425000D01*
X77250000Y-98925000D01*
G37*
G36*
X77250000Y-99425000D02*
G01*
X77750000Y-99425000D01*
X77750000Y-99925000D01*
X77250000Y-99925000D01*
X77250000Y-99425000D01*
G37*
G36*
X77250000Y-100425000D02*
G01*
X77750000Y-100425000D01*
X77750000Y-100925000D01*
X77250000Y-100925000D01*
X77250000Y-100425000D01*
G37*
G36*
X77250000Y-100925000D02*
G01*
X77750000Y-100925000D01*
X77750000Y-101425000D01*
X77250000Y-101425000D01*
X77250000Y-100925000D01*
G37*
G36*
X77250000Y-101925000D02*
G01*
X77750000Y-101925000D01*
X77750000Y-102425000D01*
X77250000Y-102425000D01*
X77250000Y-101925000D01*
G37*
G36*
X77250000Y-102925000D02*
G01*
X77750000Y-102925000D01*
X77750000Y-103425000D01*
X77250000Y-103425000D01*
X77250000Y-102925000D01*
G37*
G36*
X77250000Y-103425000D02*
G01*
X77750000Y-103425000D01*
X77750000Y-103925000D01*
X77250000Y-103925000D01*
X77250000Y-103425000D01*
G37*
G36*
X77250000Y-103925000D02*
G01*
X77750000Y-103925000D01*
X77750000Y-104425000D01*
X77250000Y-104425000D01*
X77250000Y-103925000D01*
G37*
G36*
X77250000Y-104425000D02*
G01*
X77750000Y-104425000D01*
X77750000Y-104925000D01*
X77250000Y-104925000D01*
X77250000Y-104425000D01*
G37*
G36*
X77250000Y-105425000D02*
G01*
X77750000Y-105425000D01*
X77750000Y-105925000D01*
X77250000Y-105925000D01*
X77250000Y-105425000D01*
G37*
G36*
X77250000Y-106425000D02*
G01*
X77750000Y-106425000D01*
X77750000Y-106925000D01*
X77250000Y-106925000D01*
X77250000Y-106425000D01*
G37*
G36*
X77250000Y-106925000D02*
G01*
X77750000Y-106925000D01*
X77750000Y-107425000D01*
X77250000Y-107425000D01*
X77250000Y-106925000D01*
G37*
G36*
X77250000Y-107425000D02*
G01*
X77750000Y-107425000D01*
X77750000Y-107925000D01*
X77250000Y-107925000D01*
X77250000Y-107425000D01*
G37*
G36*
X77250000Y-108425000D02*
G01*
X77750000Y-108425000D01*
X77750000Y-108925000D01*
X77250000Y-108925000D01*
X77250000Y-108425000D01*
G37*
G36*
X77750000Y-92425000D02*
G01*
X78250000Y-92425000D01*
X78250000Y-92925000D01*
X77750000Y-92925000D01*
X77750000Y-92425000D01*
G37*
G36*
X77750000Y-95425000D02*
G01*
X78250000Y-95425000D01*
X78250000Y-95925000D01*
X77750000Y-95925000D01*
X77750000Y-95425000D01*
G37*
G36*
X77750000Y-98425000D02*
G01*
X78250000Y-98425000D01*
X78250000Y-98925000D01*
X77750000Y-98925000D01*
X77750000Y-98425000D01*
G37*
G36*
X77750000Y-98925000D02*
G01*
X78250000Y-98925000D01*
X78250000Y-99425000D01*
X77750000Y-99425000D01*
X77750000Y-98925000D01*
G37*
G36*
X77750000Y-99925000D02*
G01*
X78250000Y-99925000D01*
X78250000Y-100425000D01*
X77750000Y-100425000D01*
X77750000Y-99925000D01*
G37*
G36*
X77750000Y-100425000D02*
G01*
X78250000Y-100425000D01*
X78250000Y-100925000D01*
X77750000Y-100925000D01*
X77750000Y-100425000D01*
G37*
G36*
X77750000Y-100925000D02*
G01*
X78250000Y-100925000D01*
X78250000Y-101425000D01*
X77750000Y-101425000D01*
X77750000Y-100925000D01*
G37*
G36*
X77750000Y-101425000D02*
G01*
X78250000Y-101425000D01*
X78250000Y-101925000D01*
X77750000Y-101925000D01*
X77750000Y-101425000D01*
G37*
G36*
X77750000Y-102425000D02*
G01*
X78250000Y-102425000D01*
X78250000Y-102925000D01*
X77750000Y-102925000D01*
X77750000Y-102425000D01*
G37*
G36*
X77750000Y-103425000D02*
G01*
X78250000Y-103425000D01*
X78250000Y-103925000D01*
X77750000Y-103925000D01*
X77750000Y-103425000D01*
G37*
G36*
X77750000Y-103925000D02*
G01*
X78250000Y-103925000D01*
X78250000Y-104425000D01*
X77750000Y-104425000D01*
X77750000Y-103925000D01*
G37*
G36*
X77750000Y-105425000D02*
G01*
X78250000Y-105425000D01*
X78250000Y-105925000D01*
X77750000Y-105925000D01*
X77750000Y-105425000D01*
G37*
G36*
X77750000Y-108425000D02*
G01*
X78250000Y-108425000D01*
X78250000Y-108925000D01*
X77750000Y-108925000D01*
X77750000Y-108425000D01*
G37*
G36*
X78250000Y-92425000D02*
G01*
X78750000Y-92425000D01*
X78750000Y-92925000D01*
X78250000Y-92925000D01*
X78250000Y-92425000D01*
G37*
G36*
X78250000Y-92925000D02*
G01*
X78750000Y-92925000D01*
X78750000Y-93425000D01*
X78250000Y-93425000D01*
X78250000Y-92925000D01*
G37*
G36*
X78250000Y-93425000D02*
G01*
X78750000Y-93425000D01*
X78750000Y-93925000D01*
X78250000Y-93925000D01*
X78250000Y-93425000D01*
G37*
G36*
X78250000Y-93925000D02*
G01*
X78750000Y-93925000D01*
X78750000Y-94425000D01*
X78250000Y-94425000D01*
X78250000Y-93925000D01*
G37*
G36*
X78250000Y-94425000D02*
G01*
X78750000Y-94425000D01*
X78750000Y-94925000D01*
X78250000Y-94925000D01*
X78250000Y-94425000D01*
G37*
G36*
X78250000Y-94925000D02*
G01*
X78750000Y-94925000D01*
X78750000Y-95425000D01*
X78250000Y-95425000D01*
X78250000Y-94925000D01*
G37*
G36*
X78250000Y-95425000D02*
G01*
X78750000Y-95425000D01*
X78750000Y-95925000D01*
X78250000Y-95925000D01*
X78250000Y-95425000D01*
G37*
G36*
X78250000Y-96425000D02*
G01*
X78750000Y-96425000D01*
X78750000Y-96925000D01*
X78250000Y-96925000D01*
X78250000Y-96425000D01*
G37*
G36*
X78250000Y-97425000D02*
G01*
X78750000Y-97425000D01*
X78750000Y-97925000D01*
X78250000Y-97925000D01*
X78250000Y-97425000D01*
G37*
G36*
X78250000Y-98425000D02*
G01*
X78750000Y-98425000D01*
X78750000Y-98925000D01*
X78250000Y-98925000D01*
X78250000Y-98425000D01*
G37*
G36*
X78250000Y-99425000D02*
G01*
X78750000Y-99425000D01*
X78750000Y-99925000D01*
X78250000Y-99925000D01*
X78250000Y-99425000D01*
G37*
G36*
X78250000Y-100425000D02*
G01*
X78750000Y-100425000D01*
X78750000Y-100925000D01*
X78250000Y-100925000D01*
X78250000Y-100425000D01*
G37*
G36*
X78250000Y-101425000D02*
G01*
X78750000Y-101425000D01*
X78750000Y-101925000D01*
X78250000Y-101925000D01*
X78250000Y-101425000D01*
G37*
G36*
X78250000Y-102425000D02*
G01*
X78750000Y-102425000D01*
X78750000Y-102925000D01*
X78250000Y-102925000D01*
X78250000Y-102425000D01*
G37*
G36*
X78250000Y-103425000D02*
G01*
X78750000Y-103425000D01*
X78750000Y-103925000D01*
X78250000Y-103925000D01*
X78250000Y-103425000D01*
G37*
G36*
X78250000Y-104425000D02*
G01*
X78750000Y-104425000D01*
X78750000Y-104925000D01*
X78250000Y-104925000D01*
X78250000Y-104425000D01*
G37*
G36*
X78250000Y-105425000D02*
G01*
X78750000Y-105425000D01*
X78750000Y-105925000D01*
X78250000Y-105925000D01*
X78250000Y-105425000D01*
G37*
G36*
X78250000Y-105925000D02*
G01*
X78750000Y-105925000D01*
X78750000Y-106425000D01*
X78250000Y-106425000D01*
X78250000Y-105925000D01*
G37*
G36*
X78250000Y-106425000D02*
G01*
X78750000Y-106425000D01*
X78750000Y-106925000D01*
X78250000Y-106925000D01*
X78250000Y-106425000D01*
G37*
G36*
X78250000Y-106925000D02*
G01*
X78750000Y-106925000D01*
X78750000Y-107425000D01*
X78250000Y-107425000D01*
X78250000Y-106925000D01*
G37*
G36*
X78250000Y-107425000D02*
G01*
X78750000Y-107425000D01*
X78750000Y-107925000D01*
X78250000Y-107925000D01*
X78250000Y-107425000D01*
G37*
G36*
X78250000Y-107925000D02*
G01*
X78750000Y-107925000D01*
X78750000Y-108425000D01*
X78250000Y-108425000D01*
X78250000Y-107925000D01*
G37*
G36*
X78250000Y-108425000D02*
G01*
X78750000Y-108425000D01*
X78750000Y-108925000D01*
X78250000Y-108925000D01*
X78250000Y-108425000D01*
G37*
G36*
X78750000Y-96425000D02*
G01*
X79250000Y-96425000D01*
X79250000Y-96925000D01*
X78750000Y-96925000D01*
X78750000Y-96425000D01*
G37*
G36*
X78750000Y-96925000D02*
G01*
X79250000Y-96925000D01*
X79250000Y-97425000D01*
X78750000Y-97425000D01*
X78750000Y-96925000D01*
G37*
G36*
X78750000Y-97425000D02*
G01*
X79250000Y-97425000D01*
X79250000Y-97925000D01*
X78750000Y-97925000D01*
X78750000Y-97425000D01*
G37*
G36*
X78750000Y-98925000D02*
G01*
X79250000Y-98925000D01*
X79250000Y-99425000D01*
X78750000Y-99425000D01*
X78750000Y-98925000D01*
G37*
G36*
X78750000Y-100425000D02*
G01*
X79250000Y-100425000D01*
X79250000Y-100925000D01*
X78750000Y-100925000D01*
X78750000Y-100425000D01*
G37*
G36*
X78750000Y-102425000D02*
G01*
X79250000Y-102425000D01*
X79250000Y-102925000D01*
X78750000Y-102925000D01*
X78750000Y-102425000D01*
G37*
G36*
X78750000Y-102925000D02*
G01*
X79250000Y-102925000D01*
X79250000Y-103425000D01*
X78750000Y-103425000D01*
X78750000Y-102925000D01*
G37*
G36*
X78750000Y-103425000D02*
G01*
X79250000Y-103425000D01*
X79250000Y-103925000D01*
X78750000Y-103925000D01*
X78750000Y-103425000D01*
G37*
G36*
X78750000Y-103925000D02*
G01*
X79250000Y-103925000D01*
X79250000Y-104425000D01*
X78750000Y-104425000D01*
X78750000Y-103925000D01*
G37*
G36*
X79250000Y-92425000D02*
G01*
X79750000Y-92425000D01*
X79750000Y-92925000D01*
X79250000Y-92925000D01*
X79250000Y-92425000D01*
G37*
G36*
X79250000Y-93925000D02*
G01*
X79750000Y-93925000D01*
X79750000Y-94425000D01*
X79250000Y-94425000D01*
X79250000Y-93925000D01*
G37*
G36*
X79250000Y-94425000D02*
G01*
X79750000Y-94425000D01*
X79750000Y-94925000D01*
X79250000Y-94925000D01*
X79250000Y-94425000D01*
G37*
G36*
X79250000Y-94925000D02*
G01*
X79750000Y-94925000D01*
X79750000Y-95425000D01*
X79250000Y-95425000D01*
X79250000Y-94925000D01*
G37*
G36*
X79250000Y-95425000D02*
G01*
X79750000Y-95425000D01*
X79750000Y-95925000D01*
X79250000Y-95925000D01*
X79250000Y-95425000D01*
G37*
G36*
X79250000Y-95925000D02*
G01*
X79750000Y-95925000D01*
X79750000Y-96425000D01*
X79250000Y-96425000D01*
X79250000Y-95925000D01*
G37*
G36*
X79250000Y-96425000D02*
G01*
X79750000Y-96425000D01*
X79750000Y-96925000D01*
X79250000Y-96925000D01*
X79250000Y-96425000D01*
G37*
G36*
X79250000Y-97925000D02*
G01*
X79750000Y-97925000D01*
X79750000Y-98425000D01*
X79250000Y-98425000D01*
X79250000Y-97925000D01*
G37*
G36*
X79250000Y-100925000D02*
G01*
X79750000Y-100925000D01*
X79750000Y-101425000D01*
X79250000Y-101425000D01*
X79250000Y-100925000D01*
G37*
G36*
X79250000Y-101925000D02*
G01*
X79750000Y-101925000D01*
X79750000Y-102425000D01*
X79250000Y-102425000D01*
X79250000Y-101925000D01*
G37*
G36*
X79250000Y-102925000D02*
G01*
X79750000Y-102925000D01*
X79750000Y-103425000D01*
X79250000Y-103425000D01*
X79250000Y-102925000D01*
G37*
G36*
X79250000Y-103425000D02*
G01*
X79750000Y-103425000D01*
X79750000Y-103925000D01*
X79250000Y-103925000D01*
X79250000Y-103425000D01*
G37*
G36*
X79250000Y-104425000D02*
G01*
X79750000Y-104425000D01*
X79750000Y-104925000D01*
X79250000Y-104925000D01*
X79250000Y-104425000D01*
G37*
G36*
X79250000Y-104925000D02*
G01*
X79750000Y-104925000D01*
X79750000Y-105425000D01*
X79250000Y-105425000D01*
X79250000Y-104925000D01*
G37*
G36*
X79250000Y-105425000D02*
G01*
X79750000Y-105425000D01*
X79750000Y-105925000D01*
X79250000Y-105925000D01*
X79250000Y-105425000D01*
G37*
G36*
X79250000Y-106425000D02*
G01*
X79750000Y-106425000D01*
X79750000Y-106925000D01*
X79250000Y-106925000D01*
X79250000Y-106425000D01*
G37*
G36*
X79250000Y-108425000D02*
G01*
X79750000Y-108425000D01*
X79750000Y-108925000D01*
X79250000Y-108925000D01*
X79250000Y-108425000D01*
G37*
G36*
X79750000Y-92925000D02*
G01*
X80250000Y-92925000D01*
X80250000Y-93425000D01*
X79750000Y-93425000D01*
X79750000Y-92925000D01*
G37*
G36*
X79750000Y-93425000D02*
G01*
X80250000Y-93425000D01*
X80250000Y-93925000D01*
X79750000Y-93925000D01*
X79750000Y-93425000D01*
G37*
G36*
X79750000Y-93925000D02*
G01*
X80250000Y-93925000D01*
X80250000Y-94425000D01*
X79750000Y-94425000D01*
X79750000Y-93925000D01*
G37*
G36*
X79750000Y-94425000D02*
G01*
X80250000Y-94425000D01*
X80250000Y-94925000D01*
X79750000Y-94925000D01*
X79750000Y-94425000D01*
G37*
G36*
X79750000Y-95925000D02*
G01*
X80250000Y-95925000D01*
X80250000Y-96425000D01*
X79750000Y-96425000D01*
X79750000Y-95925000D01*
G37*
G36*
X79750000Y-96425000D02*
G01*
X80250000Y-96425000D01*
X80250000Y-96925000D01*
X79750000Y-96925000D01*
X79750000Y-96425000D01*
G37*
G36*
X79750000Y-96925000D02*
G01*
X80250000Y-96925000D01*
X80250000Y-97425000D01*
X79750000Y-97425000D01*
X79750000Y-96925000D01*
G37*
G36*
X79750000Y-98425000D02*
G01*
X80250000Y-98425000D01*
X80250000Y-98925000D01*
X79750000Y-98925000D01*
X79750000Y-98425000D01*
G37*
G36*
X79750000Y-98925000D02*
G01*
X80250000Y-98925000D01*
X80250000Y-99425000D01*
X79750000Y-99425000D01*
X79750000Y-98925000D01*
G37*
G36*
X79750000Y-100425000D02*
G01*
X80250000Y-100425000D01*
X80250000Y-100925000D01*
X79750000Y-100925000D01*
X79750000Y-100425000D01*
G37*
G36*
X79750000Y-101925000D02*
G01*
X80250000Y-101925000D01*
X80250000Y-102425000D01*
X79750000Y-102425000D01*
X79750000Y-101925000D01*
G37*
G36*
X79750000Y-103425000D02*
G01*
X80250000Y-103425000D01*
X80250000Y-103925000D01*
X79750000Y-103925000D01*
X79750000Y-103425000D01*
G37*
G36*
X79750000Y-104925000D02*
G01*
X80250000Y-104925000D01*
X80250000Y-105425000D01*
X79750000Y-105425000D01*
X79750000Y-104925000D01*
G37*
G36*
X79750000Y-105425000D02*
G01*
X80250000Y-105425000D01*
X80250000Y-105925000D01*
X79750000Y-105925000D01*
X79750000Y-105425000D01*
G37*
G36*
X79750000Y-107425000D02*
G01*
X80250000Y-107425000D01*
X80250000Y-107925000D01*
X79750000Y-107925000D01*
X79750000Y-107425000D01*
G37*
G36*
X79750000Y-107925000D02*
G01*
X80250000Y-107925000D01*
X80250000Y-108425000D01*
X79750000Y-108425000D01*
X79750000Y-107925000D01*
G37*
G36*
X80250000Y-93925000D02*
G01*
X80750000Y-93925000D01*
X80750000Y-94425000D01*
X80250000Y-94425000D01*
X80250000Y-93925000D01*
G37*
G36*
X80250000Y-94425000D02*
G01*
X80750000Y-94425000D01*
X80750000Y-94925000D01*
X80250000Y-94925000D01*
X80250000Y-94425000D01*
G37*
G36*
X80250000Y-95425000D02*
G01*
X80750000Y-95425000D01*
X80750000Y-95925000D01*
X80250000Y-95925000D01*
X80250000Y-95425000D01*
G37*
G36*
X80250000Y-96425000D02*
G01*
X80750000Y-96425000D01*
X80750000Y-96925000D01*
X80250000Y-96925000D01*
X80250000Y-96425000D01*
G37*
G36*
X80250000Y-97925000D02*
G01*
X80750000Y-97925000D01*
X80750000Y-98425000D01*
X80250000Y-98425000D01*
X80250000Y-97925000D01*
G37*
G36*
X80250000Y-98425000D02*
G01*
X80750000Y-98425000D01*
X80750000Y-98925000D01*
X80250000Y-98925000D01*
X80250000Y-98425000D01*
G37*
G36*
X80250000Y-98925000D02*
G01*
X80750000Y-98925000D01*
X80750000Y-99425000D01*
X80250000Y-99425000D01*
X80250000Y-98925000D01*
G37*
G36*
X80250000Y-99425000D02*
G01*
X80750000Y-99425000D01*
X80750000Y-99925000D01*
X80250000Y-99925000D01*
X80250000Y-99425000D01*
G37*
G36*
X80250000Y-100425000D02*
G01*
X80750000Y-100425000D01*
X80750000Y-100925000D01*
X80250000Y-100925000D01*
X80250000Y-100425000D01*
G37*
G36*
X80250000Y-101425000D02*
G01*
X80750000Y-101425000D01*
X80750000Y-101925000D01*
X80250000Y-101925000D01*
X80250000Y-101425000D01*
G37*
G36*
X80250000Y-103425000D02*
G01*
X80750000Y-103425000D01*
X80750000Y-103925000D01*
X80250000Y-103925000D01*
X80250000Y-103425000D01*
G37*
G36*
X80250000Y-103925000D02*
G01*
X80750000Y-103925000D01*
X80750000Y-104425000D01*
X80250000Y-104425000D01*
X80250000Y-103925000D01*
G37*
G36*
X80250000Y-104925000D02*
G01*
X80750000Y-104925000D01*
X80750000Y-105425000D01*
X80250000Y-105425000D01*
X80250000Y-104925000D01*
G37*
G36*
X80250000Y-105425000D02*
G01*
X80750000Y-105425000D01*
X80750000Y-105925000D01*
X80250000Y-105925000D01*
X80250000Y-105425000D01*
G37*
G36*
X80250000Y-105925000D02*
G01*
X80750000Y-105925000D01*
X80750000Y-106425000D01*
X80250000Y-106425000D01*
X80250000Y-105925000D01*
G37*
G36*
X80250000Y-107425000D02*
G01*
X80750000Y-107425000D01*
X80750000Y-107925000D01*
X80250000Y-107925000D01*
X80250000Y-107425000D01*
G37*
G36*
X80250000Y-107925000D02*
G01*
X80750000Y-107925000D01*
X80750000Y-108425000D01*
X80250000Y-108425000D01*
X80250000Y-107925000D01*
G37*
G36*
X80750000Y-92925000D02*
G01*
X81250000Y-92925000D01*
X81250000Y-93425000D01*
X80750000Y-93425000D01*
X80750000Y-92925000D01*
G37*
G36*
X80750000Y-93425000D02*
G01*
X81250000Y-93425000D01*
X81250000Y-93925000D01*
X80750000Y-93925000D01*
X80750000Y-93425000D01*
G37*
G36*
X80750000Y-93925000D02*
G01*
X81250000Y-93925000D01*
X81250000Y-94425000D01*
X80750000Y-94425000D01*
X80750000Y-93925000D01*
G37*
G36*
X80750000Y-95925000D02*
G01*
X81250000Y-95925000D01*
X81250000Y-96425000D01*
X80750000Y-96425000D01*
X80750000Y-95925000D01*
G37*
G36*
X80750000Y-96425000D02*
G01*
X81250000Y-96425000D01*
X81250000Y-96925000D01*
X80750000Y-96925000D01*
X80750000Y-96425000D01*
G37*
G36*
X80750000Y-96925000D02*
G01*
X81250000Y-96925000D01*
X81250000Y-97425000D01*
X80750000Y-97425000D01*
X80750000Y-96925000D01*
G37*
G36*
X80750000Y-97925000D02*
G01*
X81250000Y-97925000D01*
X81250000Y-98425000D01*
X80750000Y-98425000D01*
X80750000Y-97925000D01*
G37*
G36*
X80750000Y-98425000D02*
G01*
X81250000Y-98425000D01*
X81250000Y-98925000D01*
X80750000Y-98925000D01*
X80750000Y-98425000D01*
G37*
G36*
X80750000Y-99425000D02*
G01*
X81250000Y-99425000D01*
X81250000Y-99925000D01*
X80750000Y-99925000D01*
X80750000Y-99425000D01*
G37*
G36*
X80750000Y-101925000D02*
G01*
X81250000Y-101925000D01*
X81250000Y-102425000D01*
X80750000Y-102425000D01*
X80750000Y-101925000D01*
G37*
G36*
X80750000Y-102425000D02*
G01*
X81250000Y-102425000D01*
X81250000Y-102925000D01*
X80750000Y-102925000D01*
X80750000Y-102425000D01*
G37*
G36*
X80750000Y-102925000D02*
G01*
X81250000Y-102925000D01*
X81250000Y-103425000D01*
X80750000Y-103425000D01*
X80750000Y-102925000D01*
G37*
G36*
X80750000Y-104425000D02*
G01*
X81250000Y-104425000D01*
X81250000Y-104925000D01*
X80750000Y-104925000D01*
X80750000Y-104425000D01*
G37*
G36*
X80750000Y-104925000D02*
G01*
X81250000Y-104925000D01*
X81250000Y-105425000D01*
X80750000Y-105425000D01*
X80750000Y-104925000D01*
G37*
G36*
X80750000Y-105425000D02*
G01*
X81250000Y-105425000D01*
X81250000Y-105925000D01*
X80750000Y-105925000D01*
X80750000Y-105425000D01*
G37*
G36*
X80750000Y-106425000D02*
G01*
X81250000Y-106425000D01*
X81250000Y-106925000D01*
X80750000Y-106925000D01*
X80750000Y-106425000D01*
G37*
G36*
X80750000Y-107425000D02*
G01*
X81250000Y-107425000D01*
X81250000Y-107925000D01*
X80750000Y-107925000D01*
X80750000Y-107425000D01*
G37*
G36*
X80750000Y-107925000D02*
G01*
X81250000Y-107925000D01*
X81250000Y-108425000D01*
X80750000Y-108425000D01*
X80750000Y-107925000D01*
G37*
G36*
X81250000Y-92425000D02*
G01*
X81750000Y-92425000D01*
X81750000Y-92925000D01*
X81250000Y-92925000D01*
X81250000Y-92425000D01*
G37*
G36*
X81250000Y-92925000D02*
G01*
X81750000Y-92925000D01*
X81750000Y-93425000D01*
X81250000Y-93425000D01*
X81250000Y-92925000D01*
G37*
G36*
X81250000Y-94925000D02*
G01*
X81750000Y-94925000D01*
X81750000Y-95425000D01*
X81250000Y-95425000D01*
X81250000Y-94925000D01*
G37*
G36*
X81250000Y-95425000D02*
G01*
X81750000Y-95425000D01*
X81750000Y-95925000D01*
X81250000Y-95925000D01*
X81250000Y-95425000D01*
G37*
G36*
X81250000Y-95925000D02*
G01*
X81750000Y-95925000D01*
X81750000Y-96425000D01*
X81250000Y-96425000D01*
X81250000Y-95925000D01*
G37*
G36*
X81250000Y-96425000D02*
G01*
X81750000Y-96425000D01*
X81750000Y-96925000D01*
X81250000Y-96925000D01*
X81250000Y-96425000D01*
G37*
G36*
X81250000Y-96925000D02*
G01*
X81750000Y-96925000D01*
X81750000Y-97425000D01*
X81250000Y-97425000D01*
X81250000Y-96925000D01*
G37*
G36*
X81250000Y-97925000D02*
G01*
X81750000Y-97925000D01*
X81750000Y-98425000D01*
X81250000Y-98425000D01*
X81250000Y-97925000D01*
G37*
G36*
X81250000Y-98425000D02*
G01*
X81750000Y-98425000D01*
X81750000Y-98925000D01*
X81250000Y-98925000D01*
X81250000Y-98425000D01*
G37*
G36*
X81250000Y-98925000D02*
G01*
X81750000Y-98925000D01*
X81750000Y-99425000D01*
X81250000Y-99425000D01*
X81250000Y-98925000D01*
G37*
G36*
X81250000Y-99425000D02*
G01*
X81750000Y-99425000D01*
X81750000Y-99925000D01*
X81250000Y-99925000D01*
X81250000Y-99425000D01*
G37*
G36*
X81250000Y-101425000D02*
G01*
X81750000Y-101425000D01*
X81750000Y-101925000D01*
X81250000Y-101925000D01*
X81250000Y-101425000D01*
G37*
G36*
X81250000Y-101925000D02*
G01*
X81750000Y-101925000D01*
X81750000Y-102425000D01*
X81250000Y-102425000D01*
X81250000Y-101925000D01*
G37*
G36*
X81250000Y-102925000D02*
G01*
X81750000Y-102925000D01*
X81750000Y-103425000D01*
X81250000Y-103425000D01*
X81250000Y-102925000D01*
G37*
G36*
X81250000Y-103925000D02*
G01*
X81750000Y-103925000D01*
X81750000Y-104425000D01*
X81250000Y-104425000D01*
X81250000Y-103925000D01*
G37*
G36*
X81250000Y-104425000D02*
G01*
X81750000Y-104425000D01*
X81750000Y-104925000D01*
X81250000Y-104925000D01*
X81250000Y-104425000D01*
G37*
G36*
X81250000Y-106425000D02*
G01*
X81750000Y-106425000D01*
X81750000Y-106925000D01*
X81250000Y-106925000D01*
X81250000Y-106425000D01*
G37*
G36*
X81250000Y-107425000D02*
G01*
X81750000Y-107425000D01*
X81750000Y-107925000D01*
X81250000Y-107925000D01*
X81250000Y-107425000D01*
G37*
G36*
X81250000Y-107925000D02*
G01*
X81750000Y-107925000D01*
X81750000Y-108425000D01*
X81250000Y-108425000D01*
X81250000Y-107925000D01*
G37*
G36*
X81750000Y-92425000D02*
G01*
X82250000Y-92425000D01*
X82250000Y-92925000D01*
X81750000Y-92925000D01*
X81750000Y-92425000D01*
G37*
G36*
X81750000Y-92925000D02*
G01*
X82250000Y-92925000D01*
X82250000Y-93425000D01*
X81750000Y-93425000D01*
X81750000Y-92925000D01*
G37*
G36*
X81750000Y-94425000D02*
G01*
X82250000Y-94425000D01*
X82250000Y-94925000D01*
X81750000Y-94925000D01*
X81750000Y-94425000D01*
G37*
G36*
X81750000Y-97425000D02*
G01*
X82250000Y-97425000D01*
X82250000Y-97925000D01*
X81750000Y-97925000D01*
X81750000Y-97425000D01*
G37*
G36*
X81750000Y-97925000D02*
G01*
X82250000Y-97925000D01*
X82250000Y-98425000D01*
X81750000Y-98425000D01*
X81750000Y-97925000D01*
G37*
G36*
X81750000Y-98425000D02*
G01*
X82250000Y-98425000D01*
X82250000Y-98925000D01*
X81750000Y-98925000D01*
X81750000Y-98425000D01*
G37*
G36*
X81750000Y-98925000D02*
G01*
X82250000Y-98925000D01*
X82250000Y-99425000D01*
X81750000Y-99425000D01*
X81750000Y-98925000D01*
G37*
G36*
X81750000Y-99425000D02*
G01*
X82250000Y-99425000D01*
X82250000Y-99925000D01*
X81750000Y-99925000D01*
X81750000Y-99425000D01*
G37*
G36*
X81750000Y-100425000D02*
G01*
X82250000Y-100425000D01*
X82250000Y-100925000D01*
X81750000Y-100925000D01*
X81750000Y-100425000D01*
G37*
G36*
X81750000Y-101425000D02*
G01*
X82250000Y-101425000D01*
X82250000Y-101925000D01*
X81750000Y-101925000D01*
X81750000Y-101425000D01*
G37*
G36*
X81750000Y-101925000D02*
G01*
X82250000Y-101925000D01*
X82250000Y-102425000D01*
X81750000Y-102425000D01*
X81750000Y-101925000D01*
G37*
G36*
X81750000Y-103425000D02*
G01*
X82250000Y-103425000D01*
X82250000Y-103925000D01*
X81750000Y-103925000D01*
X81750000Y-103425000D01*
G37*
G36*
X81750000Y-103925000D02*
G01*
X82250000Y-103925000D01*
X82250000Y-104425000D01*
X81750000Y-104425000D01*
X81750000Y-103925000D01*
G37*
G36*
X81750000Y-104925000D02*
G01*
X82250000Y-104925000D01*
X82250000Y-105425000D01*
X81750000Y-105425000D01*
X81750000Y-104925000D01*
G37*
G36*
X81750000Y-105425000D02*
G01*
X82250000Y-105425000D01*
X82250000Y-105925000D01*
X81750000Y-105925000D01*
X81750000Y-105425000D01*
G37*
G36*
X81750000Y-106925000D02*
G01*
X82250000Y-106925000D01*
X82250000Y-107425000D01*
X81750000Y-107425000D01*
X81750000Y-106925000D01*
G37*
G36*
X81750000Y-107425000D02*
G01*
X82250000Y-107425000D01*
X82250000Y-107925000D01*
X81750000Y-107925000D01*
X81750000Y-107425000D01*
G37*
G36*
X82250000Y-92925000D02*
G01*
X82750000Y-92925000D01*
X82750000Y-93425000D01*
X82250000Y-93425000D01*
X82250000Y-92925000D01*
G37*
G36*
X82250000Y-93425000D02*
G01*
X82750000Y-93425000D01*
X82750000Y-93925000D01*
X82250000Y-93925000D01*
X82250000Y-93425000D01*
G37*
G36*
X82250000Y-94925000D02*
G01*
X82750000Y-94925000D01*
X82750000Y-95425000D01*
X82250000Y-95425000D01*
X82250000Y-94925000D01*
G37*
G36*
X82250000Y-95425000D02*
G01*
X82750000Y-95425000D01*
X82750000Y-95925000D01*
X82250000Y-95925000D01*
X82250000Y-95425000D01*
G37*
G36*
X82250000Y-96925000D02*
G01*
X82750000Y-96925000D01*
X82750000Y-97425000D01*
X82250000Y-97425000D01*
X82250000Y-96925000D01*
G37*
G36*
X82250000Y-97425000D02*
G01*
X82750000Y-97425000D01*
X82750000Y-97925000D01*
X82250000Y-97925000D01*
X82250000Y-97425000D01*
G37*
G36*
X82250000Y-98925000D02*
G01*
X82750000Y-98925000D01*
X82750000Y-99425000D01*
X82250000Y-99425000D01*
X82250000Y-98925000D01*
G37*
G36*
X82250000Y-99925000D02*
G01*
X82750000Y-99925000D01*
X82750000Y-100425000D01*
X82250000Y-100425000D01*
X82250000Y-99925000D01*
G37*
G36*
X82250000Y-100425000D02*
G01*
X82750000Y-100425000D01*
X82750000Y-100925000D01*
X82250000Y-100925000D01*
X82250000Y-100425000D01*
G37*
G36*
X82250000Y-100925000D02*
G01*
X82750000Y-100925000D01*
X82750000Y-101425000D01*
X82250000Y-101425000D01*
X82250000Y-100925000D01*
G37*
G36*
X82250000Y-101925000D02*
G01*
X82750000Y-101925000D01*
X82750000Y-102425000D01*
X82250000Y-102425000D01*
X82250000Y-101925000D01*
G37*
G36*
X82250000Y-103425000D02*
G01*
X82750000Y-103425000D01*
X82750000Y-103925000D01*
X82250000Y-103925000D01*
X82250000Y-103425000D01*
G37*
G36*
X82250000Y-103925000D02*
G01*
X82750000Y-103925000D01*
X82750000Y-104425000D01*
X82250000Y-104425000D01*
X82250000Y-103925000D01*
G37*
G36*
X82250000Y-104925000D02*
G01*
X82750000Y-104925000D01*
X82750000Y-105425000D01*
X82250000Y-105425000D01*
X82250000Y-104925000D01*
G37*
G36*
X82250000Y-105925000D02*
G01*
X82750000Y-105925000D01*
X82750000Y-106425000D01*
X82250000Y-106425000D01*
X82250000Y-105925000D01*
G37*
G36*
X82250000Y-106925000D02*
G01*
X82750000Y-106925000D01*
X82750000Y-107425000D01*
X82250000Y-107425000D01*
X82250000Y-106925000D01*
G37*
G36*
X82250000Y-108425000D02*
G01*
X82750000Y-108425000D01*
X82750000Y-108925000D01*
X82250000Y-108925000D01*
X82250000Y-108425000D01*
G37*
G36*
X82750000Y-92425000D02*
G01*
X83250000Y-92425000D01*
X83250000Y-92925000D01*
X82750000Y-92925000D01*
X82750000Y-92425000D01*
G37*
G36*
X82750000Y-93425000D02*
G01*
X83250000Y-93425000D01*
X83250000Y-93925000D01*
X82750000Y-93925000D01*
X82750000Y-93425000D01*
G37*
G36*
X82750000Y-93925000D02*
G01*
X83250000Y-93925000D01*
X83250000Y-94425000D01*
X82750000Y-94425000D01*
X82750000Y-93925000D01*
G37*
G36*
X82750000Y-94925000D02*
G01*
X83250000Y-94925000D01*
X83250000Y-95425000D01*
X82750000Y-95425000D01*
X82750000Y-94925000D01*
G37*
G36*
X82750000Y-96425000D02*
G01*
X83250000Y-96425000D01*
X83250000Y-96925000D01*
X82750000Y-96925000D01*
X82750000Y-96425000D01*
G37*
G36*
X82750000Y-96925000D02*
G01*
X83250000Y-96925000D01*
X83250000Y-97425000D01*
X82750000Y-97425000D01*
X82750000Y-96925000D01*
G37*
G36*
X82750000Y-97425000D02*
G01*
X83250000Y-97425000D01*
X83250000Y-97925000D01*
X82750000Y-97925000D01*
X82750000Y-97425000D01*
G37*
G36*
X82750000Y-99425000D02*
G01*
X83250000Y-99425000D01*
X83250000Y-99925000D01*
X82750000Y-99925000D01*
X82750000Y-99425000D01*
G37*
G36*
X82750000Y-99925000D02*
G01*
X83250000Y-99925000D01*
X83250000Y-100425000D01*
X82750000Y-100425000D01*
X82750000Y-99925000D01*
G37*
G36*
X82750000Y-100925000D02*
G01*
X83250000Y-100925000D01*
X83250000Y-101425000D01*
X82750000Y-101425000D01*
X82750000Y-100925000D01*
G37*
G36*
X82750000Y-101425000D02*
G01*
X83250000Y-101425000D01*
X83250000Y-101925000D01*
X82750000Y-101925000D01*
X82750000Y-101425000D01*
G37*
G36*
X82750000Y-104425000D02*
G01*
X83250000Y-104425000D01*
X83250000Y-104925000D01*
X82750000Y-104925000D01*
X82750000Y-104425000D01*
G37*
G36*
X82750000Y-104925000D02*
G01*
X83250000Y-104925000D01*
X83250000Y-105425000D01*
X82750000Y-105425000D01*
X82750000Y-104925000D01*
G37*
G36*
X82750000Y-105425000D02*
G01*
X83250000Y-105425000D01*
X83250000Y-105925000D01*
X82750000Y-105925000D01*
X82750000Y-105425000D01*
G37*
G36*
X82750000Y-105925000D02*
G01*
X83250000Y-105925000D01*
X83250000Y-106425000D01*
X82750000Y-106425000D01*
X82750000Y-105925000D01*
G37*
G36*
X82750000Y-106425000D02*
G01*
X83250000Y-106425000D01*
X83250000Y-106925000D01*
X82750000Y-106925000D01*
X82750000Y-106425000D01*
G37*
G36*
X82750000Y-107425000D02*
G01*
X83250000Y-107425000D01*
X83250000Y-107925000D01*
X82750000Y-107925000D01*
X82750000Y-107425000D01*
G37*
G36*
X82750000Y-107925000D02*
G01*
X83250000Y-107925000D01*
X83250000Y-108425000D01*
X82750000Y-108425000D01*
X82750000Y-107925000D01*
G37*
G36*
X83250000Y-92425000D02*
G01*
X83750000Y-92425000D01*
X83750000Y-92925000D01*
X83250000Y-92925000D01*
X83250000Y-92425000D01*
G37*
G36*
X83250000Y-92925000D02*
G01*
X83750000Y-92925000D01*
X83750000Y-93425000D01*
X83250000Y-93425000D01*
X83250000Y-92925000D01*
G37*
G36*
X83250000Y-93925000D02*
G01*
X83750000Y-93925000D01*
X83750000Y-94425000D01*
X83250000Y-94425000D01*
X83250000Y-93925000D01*
G37*
G36*
X83250000Y-94425000D02*
G01*
X83750000Y-94425000D01*
X83750000Y-94925000D01*
X83250000Y-94925000D01*
X83250000Y-94425000D01*
G37*
G36*
X83250000Y-95425000D02*
G01*
X83750000Y-95425000D01*
X83750000Y-95925000D01*
X83250000Y-95925000D01*
X83250000Y-95425000D01*
G37*
G36*
X83250000Y-96925000D02*
G01*
X83750000Y-96925000D01*
X83750000Y-97425000D01*
X83250000Y-97425000D01*
X83250000Y-96925000D01*
G37*
G36*
X83250000Y-97425000D02*
G01*
X83750000Y-97425000D01*
X83750000Y-97925000D01*
X83250000Y-97925000D01*
X83250000Y-97425000D01*
G37*
G36*
X83250000Y-98425000D02*
G01*
X83750000Y-98425000D01*
X83750000Y-98925000D01*
X83250000Y-98925000D01*
X83250000Y-98425000D01*
G37*
G36*
X83250000Y-99925000D02*
G01*
X83750000Y-99925000D01*
X83750000Y-100425000D01*
X83250000Y-100425000D01*
X83250000Y-99925000D01*
G37*
G36*
X83250000Y-100925000D02*
G01*
X83750000Y-100925000D01*
X83750000Y-101425000D01*
X83250000Y-101425000D01*
X83250000Y-100925000D01*
G37*
G36*
X83250000Y-101425000D02*
G01*
X83750000Y-101425000D01*
X83750000Y-101925000D01*
X83250000Y-101925000D01*
X83250000Y-101425000D01*
G37*
G36*
X83250000Y-102925000D02*
G01*
X83750000Y-102925000D01*
X83750000Y-103425000D01*
X83250000Y-103425000D01*
X83250000Y-102925000D01*
G37*
G36*
X83250000Y-103425000D02*
G01*
X83750000Y-103425000D01*
X83750000Y-103925000D01*
X83250000Y-103925000D01*
X83250000Y-103425000D01*
G37*
G36*
X83250000Y-104925000D02*
G01*
X83750000Y-104925000D01*
X83750000Y-105425000D01*
X83250000Y-105425000D01*
X83250000Y-104925000D01*
G37*
G36*
X83250000Y-105925000D02*
G01*
X83750000Y-105925000D01*
X83750000Y-106425000D01*
X83250000Y-106425000D01*
X83250000Y-105925000D01*
G37*
G36*
X83250000Y-106425000D02*
G01*
X83750000Y-106425000D01*
X83750000Y-106925000D01*
X83250000Y-106925000D01*
X83250000Y-106425000D01*
G37*
G36*
X83250000Y-107925000D02*
G01*
X83750000Y-107925000D01*
X83750000Y-108425000D01*
X83250000Y-108425000D01*
X83250000Y-107925000D01*
G37*
G36*
X83750000Y-93425000D02*
G01*
X84250000Y-93425000D01*
X84250000Y-93925000D01*
X83750000Y-93925000D01*
X83750000Y-93425000D01*
G37*
G36*
X83750000Y-93925000D02*
G01*
X84250000Y-93925000D01*
X84250000Y-94425000D01*
X83750000Y-94425000D01*
X83750000Y-93925000D01*
G37*
G36*
X83750000Y-94425000D02*
G01*
X84250000Y-94425000D01*
X84250000Y-94925000D01*
X83750000Y-94925000D01*
X83750000Y-94425000D01*
G37*
G36*
X83750000Y-95925000D02*
G01*
X84250000Y-95925000D01*
X84250000Y-96425000D01*
X83750000Y-96425000D01*
X83750000Y-95925000D01*
G37*
G36*
X83750000Y-96925000D02*
G01*
X84250000Y-96925000D01*
X84250000Y-97425000D01*
X83750000Y-97425000D01*
X83750000Y-96925000D01*
G37*
G36*
X83750000Y-98925000D02*
G01*
X84250000Y-98925000D01*
X84250000Y-99425000D01*
X83750000Y-99425000D01*
X83750000Y-98925000D01*
G37*
G36*
X83750000Y-99425000D02*
G01*
X84250000Y-99425000D01*
X84250000Y-99925000D01*
X83750000Y-99925000D01*
X83750000Y-99425000D01*
G37*
G36*
X83750000Y-99925000D02*
G01*
X84250000Y-99925000D01*
X84250000Y-100425000D01*
X83750000Y-100425000D01*
X83750000Y-99925000D01*
G37*
G36*
X83750000Y-100425000D02*
G01*
X84250000Y-100425000D01*
X84250000Y-100925000D01*
X83750000Y-100925000D01*
X83750000Y-100425000D01*
G37*
G36*
X83750000Y-101425000D02*
G01*
X84250000Y-101425000D01*
X84250000Y-101925000D01*
X83750000Y-101925000D01*
X83750000Y-101425000D01*
G37*
G36*
X83750000Y-101925000D02*
G01*
X84250000Y-101925000D01*
X84250000Y-102425000D01*
X83750000Y-102425000D01*
X83750000Y-101925000D01*
G37*
G36*
X83750000Y-102925000D02*
G01*
X84250000Y-102925000D01*
X84250000Y-103425000D01*
X83750000Y-103425000D01*
X83750000Y-102925000D01*
G37*
G36*
X83750000Y-103925000D02*
G01*
X84250000Y-103925000D01*
X84250000Y-104425000D01*
X83750000Y-104425000D01*
X83750000Y-103925000D01*
G37*
G36*
X83750000Y-104925000D02*
G01*
X84250000Y-104925000D01*
X84250000Y-105425000D01*
X83750000Y-105425000D01*
X83750000Y-104925000D01*
G37*
G36*
X83750000Y-107425000D02*
G01*
X84250000Y-107425000D01*
X84250000Y-107925000D01*
X83750000Y-107925000D01*
X83750000Y-107425000D01*
G37*
G36*
X83750000Y-107925000D02*
G01*
X84250000Y-107925000D01*
X84250000Y-108425000D01*
X83750000Y-108425000D01*
X83750000Y-107925000D01*
G37*
G36*
X83750000Y-108425000D02*
G01*
X84250000Y-108425000D01*
X84250000Y-108925000D01*
X83750000Y-108925000D01*
X83750000Y-108425000D01*
G37*
G36*
X84250000Y-92425000D02*
G01*
X84750000Y-92425000D01*
X84750000Y-92925000D01*
X84250000Y-92925000D01*
X84250000Y-92425000D01*
G37*
G36*
X84250000Y-94425000D02*
G01*
X84750000Y-94425000D01*
X84750000Y-94925000D01*
X84250000Y-94925000D01*
X84250000Y-94425000D01*
G37*
G36*
X84250000Y-95425000D02*
G01*
X84750000Y-95425000D01*
X84750000Y-95925000D01*
X84250000Y-95925000D01*
X84250000Y-95425000D01*
G37*
G36*
X84250000Y-95925000D02*
G01*
X84750000Y-95925000D01*
X84750000Y-96425000D01*
X84250000Y-96425000D01*
X84250000Y-95925000D01*
G37*
G36*
X84250000Y-97425000D02*
G01*
X84750000Y-97425000D01*
X84750000Y-97925000D01*
X84250000Y-97925000D01*
X84250000Y-97425000D01*
G37*
G36*
X84250000Y-98925000D02*
G01*
X84750000Y-98925000D01*
X84750000Y-99425000D01*
X84250000Y-99425000D01*
X84250000Y-98925000D01*
G37*
G36*
X84250000Y-99925000D02*
G01*
X84750000Y-99925000D01*
X84750000Y-100425000D01*
X84250000Y-100425000D01*
X84250000Y-99925000D01*
G37*
G36*
X84250000Y-100425000D02*
G01*
X84750000Y-100425000D01*
X84750000Y-100925000D01*
X84250000Y-100925000D01*
X84250000Y-100425000D01*
G37*
G36*
X84250000Y-100925000D02*
G01*
X84750000Y-100925000D01*
X84750000Y-101425000D01*
X84250000Y-101425000D01*
X84250000Y-100925000D01*
G37*
G36*
X84250000Y-101925000D02*
G01*
X84750000Y-101925000D01*
X84750000Y-102425000D01*
X84250000Y-102425000D01*
X84250000Y-101925000D01*
G37*
G36*
X84250000Y-102425000D02*
G01*
X84750000Y-102425000D01*
X84750000Y-102925000D01*
X84250000Y-102925000D01*
X84250000Y-102425000D01*
G37*
G36*
X84250000Y-103425000D02*
G01*
X84750000Y-103425000D01*
X84750000Y-103925000D01*
X84250000Y-103925000D01*
X84250000Y-103425000D01*
G37*
G36*
X84250000Y-103925000D02*
G01*
X84750000Y-103925000D01*
X84750000Y-104425000D01*
X84250000Y-104425000D01*
X84250000Y-103925000D01*
G37*
G36*
X84250000Y-104925000D02*
G01*
X84750000Y-104925000D01*
X84750000Y-105425000D01*
X84250000Y-105425000D01*
X84250000Y-104925000D01*
G37*
G36*
X84250000Y-105425000D02*
G01*
X84750000Y-105425000D01*
X84750000Y-105925000D01*
X84250000Y-105925000D01*
X84250000Y-105425000D01*
G37*
G36*
X84250000Y-106925000D02*
G01*
X84750000Y-106925000D01*
X84750000Y-107425000D01*
X84250000Y-107425000D01*
X84250000Y-106925000D01*
G37*
G36*
X84250000Y-107425000D02*
G01*
X84750000Y-107425000D01*
X84750000Y-107925000D01*
X84250000Y-107925000D01*
X84250000Y-107425000D01*
G37*
G36*
X84750000Y-92925000D02*
G01*
X85250000Y-92925000D01*
X85250000Y-93425000D01*
X84750000Y-93425000D01*
X84750000Y-92925000D01*
G37*
G36*
X84750000Y-94925000D02*
G01*
X85250000Y-94925000D01*
X85250000Y-95425000D01*
X84750000Y-95425000D01*
X84750000Y-94925000D01*
G37*
G36*
X84750000Y-97925000D02*
G01*
X85250000Y-97925000D01*
X85250000Y-98425000D01*
X84750000Y-98425000D01*
X84750000Y-97925000D01*
G37*
G36*
X84750000Y-99925000D02*
G01*
X85250000Y-99925000D01*
X85250000Y-100425000D01*
X84750000Y-100425000D01*
X84750000Y-99925000D01*
G37*
G36*
X84750000Y-100425000D02*
G01*
X85250000Y-100425000D01*
X85250000Y-100925000D01*
X84750000Y-100925000D01*
X84750000Y-100425000D01*
G37*
G36*
X84750000Y-102425000D02*
G01*
X85250000Y-102425000D01*
X85250000Y-102925000D01*
X84750000Y-102925000D01*
X84750000Y-102425000D01*
G37*
G36*
X84750000Y-103925000D02*
G01*
X85250000Y-103925000D01*
X85250000Y-104425000D01*
X84750000Y-104425000D01*
X84750000Y-103925000D01*
G37*
G36*
X84750000Y-105925000D02*
G01*
X85250000Y-105925000D01*
X85250000Y-106425000D01*
X84750000Y-106425000D01*
X84750000Y-105925000D01*
G37*
G36*
X84750000Y-106425000D02*
G01*
X85250000Y-106425000D01*
X85250000Y-106925000D01*
X84750000Y-106925000D01*
X84750000Y-106425000D01*
G37*
G36*
X84750000Y-108425000D02*
G01*
X85250000Y-108425000D01*
X85250000Y-108925000D01*
X84750000Y-108925000D01*
X84750000Y-108425000D01*
G37*
G36*
X85250000Y-92425000D02*
G01*
X85750000Y-92425000D01*
X85750000Y-92925000D01*
X85250000Y-92925000D01*
X85250000Y-92425000D01*
G37*
G36*
X85250000Y-93925000D02*
G01*
X85750000Y-93925000D01*
X85750000Y-94425000D01*
X85250000Y-94425000D01*
X85250000Y-93925000D01*
G37*
G36*
X85250000Y-95425000D02*
G01*
X85750000Y-95425000D01*
X85750000Y-95925000D01*
X85250000Y-95925000D01*
X85250000Y-95425000D01*
G37*
G36*
X85250000Y-96425000D02*
G01*
X85750000Y-96425000D01*
X85750000Y-96925000D01*
X85250000Y-96925000D01*
X85250000Y-96425000D01*
G37*
G36*
X85250000Y-97425000D02*
G01*
X85750000Y-97425000D01*
X85750000Y-97925000D01*
X85250000Y-97925000D01*
X85250000Y-97425000D01*
G37*
G36*
X85250000Y-98425000D02*
G01*
X85750000Y-98425000D01*
X85750000Y-98925000D01*
X85250000Y-98925000D01*
X85250000Y-98425000D01*
G37*
G36*
X85250000Y-99425000D02*
G01*
X85750000Y-99425000D01*
X85750000Y-99925000D01*
X85250000Y-99925000D01*
X85250000Y-99425000D01*
G37*
G36*
X85250000Y-99925000D02*
G01*
X85750000Y-99925000D01*
X85750000Y-100425000D01*
X85250000Y-100425000D01*
X85250000Y-99925000D01*
G37*
G36*
X85250000Y-100425000D02*
G01*
X85750000Y-100425000D01*
X85750000Y-100925000D01*
X85250000Y-100925000D01*
X85250000Y-100425000D01*
G37*
G36*
X85250000Y-101425000D02*
G01*
X85750000Y-101425000D01*
X85750000Y-101925000D01*
X85250000Y-101925000D01*
X85250000Y-101425000D01*
G37*
G36*
X85250000Y-102425000D02*
G01*
X85750000Y-102425000D01*
X85750000Y-102925000D01*
X85250000Y-102925000D01*
X85250000Y-102425000D01*
G37*
G36*
X85250000Y-103925000D02*
G01*
X85750000Y-103925000D01*
X85750000Y-104425000D01*
X85250000Y-104425000D01*
X85250000Y-103925000D01*
G37*
G36*
X85250000Y-104425000D02*
G01*
X85750000Y-104425000D01*
X85750000Y-104925000D01*
X85250000Y-104925000D01*
X85250000Y-104425000D01*
G37*
G36*
X85250000Y-105425000D02*
G01*
X85750000Y-105425000D01*
X85750000Y-105925000D01*
X85250000Y-105925000D01*
X85250000Y-105425000D01*
G37*
G36*
X85250000Y-106425000D02*
G01*
X85750000Y-106425000D01*
X85750000Y-106925000D01*
X85250000Y-106925000D01*
X85250000Y-106425000D01*
G37*
G36*
X85250000Y-106925000D02*
G01*
X85750000Y-106925000D01*
X85750000Y-107425000D01*
X85250000Y-107425000D01*
X85250000Y-106925000D01*
G37*
G36*
X85250000Y-107425000D02*
G01*
X85750000Y-107425000D01*
X85750000Y-107925000D01*
X85250000Y-107925000D01*
X85250000Y-107425000D01*
G37*
G36*
X85250000Y-107925000D02*
G01*
X85750000Y-107925000D01*
X85750000Y-108425000D01*
X85250000Y-108425000D01*
X85250000Y-107925000D01*
G37*
G36*
X85750000Y-93425000D02*
G01*
X86250000Y-93425000D01*
X86250000Y-93925000D01*
X85750000Y-93925000D01*
X85750000Y-93425000D01*
G37*
G36*
X85750000Y-94425000D02*
G01*
X86250000Y-94425000D01*
X86250000Y-94925000D01*
X85750000Y-94925000D01*
X85750000Y-94425000D01*
G37*
G36*
X85750000Y-95925000D02*
G01*
X86250000Y-95925000D01*
X86250000Y-96425000D01*
X85750000Y-96425000D01*
X85750000Y-95925000D01*
G37*
G36*
X85750000Y-96425000D02*
G01*
X86250000Y-96425000D01*
X86250000Y-96925000D01*
X85750000Y-96925000D01*
X85750000Y-96425000D01*
G37*
G36*
X85750000Y-97925000D02*
G01*
X86250000Y-97925000D01*
X86250000Y-98425000D01*
X85750000Y-98425000D01*
X85750000Y-97925000D01*
G37*
G36*
X85750000Y-98425000D02*
G01*
X86250000Y-98425000D01*
X86250000Y-98925000D01*
X85750000Y-98925000D01*
X85750000Y-98425000D01*
G37*
G36*
X85750000Y-98925000D02*
G01*
X86250000Y-98925000D01*
X86250000Y-99425000D01*
X85750000Y-99425000D01*
X85750000Y-98925000D01*
G37*
G36*
X85750000Y-99925000D02*
G01*
X86250000Y-99925000D01*
X86250000Y-100425000D01*
X85750000Y-100425000D01*
X85750000Y-99925000D01*
G37*
G36*
X85750000Y-100925000D02*
G01*
X86250000Y-100925000D01*
X86250000Y-101425000D01*
X85750000Y-101425000D01*
X85750000Y-100925000D01*
G37*
G36*
X85750000Y-101425000D02*
G01*
X86250000Y-101425000D01*
X86250000Y-101925000D01*
X85750000Y-101925000D01*
X85750000Y-101425000D01*
G37*
G36*
X85750000Y-101925000D02*
G01*
X86250000Y-101925000D01*
X86250000Y-102425000D01*
X85750000Y-102425000D01*
X85750000Y-101925000D01*
G37*
G36*
X85750000Y-102425000D02*
G01*
X86250000Y-102425000D01*
X86250000Y-102925000D01*
X85750000Y-102925000D01*
X85750000Y-102425000D01*
G37*
G36*
X85750000Y-103425000D02*
G01*
X86250000Y-103425000D01*
X86250000Y-103925000D01*
X85750000Y-103925000D01*
X85750000Y-103425000D01*
G37*
G36*
X85750000Y-103925000D02*
G01*
X86250000Y-103925000D01*
X86250000Y-104425000D01*
X85750000Y-104425000D01*
X85750000Y-103925000D01*
G37*
G36*
X85750000Y-104425000D02*
G01*
X86250000Y-104425000D01*
X86250000Y-104925000D01*
X85750000Y-104925000D01*
X85750000Y-104425000D01*
G37*
G36*
X85750000Y-105925000D02*
G01*
X86250000Y-105925000D01*
X86250000Y-106425000D01*
X85750000Y-106425000D01*
X85750000Y-105925000D01*
G37*
G36*
X85750000Y-106425000D02*
G01*
X86250000Y-106425000D01*
X86250000Y-106925000D01*
X85750000Y-106925000D01*
X85750000Y-106425000D01*
G37*
G36*
X85750000Y-106925000D02*
G01*
X86250000Y-106925000D01*
X86250000Y-107425000D01*
X85750000Y-107425000D01*
X85750000Y-106925000D01*
G37*
G36*
X85750000Y-107925000D02*
G01*
X86250000Y-107925000D01*
X86250000Y-108425000D01*
X85750000Y-108425000D01*
X85750000Y-107925000D01*
G37*
G36*
X85750000Y-108425000D02*
G01*
X86250000Y-108425000D01*
X86250000Y-108925000D01*
X85750000Y-108925000D01*
X85750000Y-108425000D01*
G37*
G36*
X86250000Y-92925000D02*
G01*
X86750000Y-92925000D01*
X86750000Y-93425000D01*
X86250000Y-93425000D01*
X86250000Y-92925000D01*
G37*
G36*
X86250000Y-93425000D02*
G01*
X86750000Y-93425000D01*
X86750000Y-93925000D01*
X86250000Y-93925000D01*
X86250000Y-93425000D01*
G37*
G36*
X86250000Y-94425000D02*
G01*
X86750000Y-94425000D01*
X86750000Y-94925000D01*
X86250000Y-94925000D01*
X86250000Y-94425000D01*
G37*
G36*
X86250000Y-94925000D02*
G01*
X86750000Y-94925000D01*
X86750000Y-95425000D01*
X86250000Y-95425000D01*
X86250000Y-94925000D01*
G37*
G36*
X86250000Y-95425000D02*
G01*
X86750000Y-95425000D01*
X86750000Y-95925000D01*
X86250000Y-95925000D01*
X86250000Y-95425000D01*
G37*
G36*
X86250000Y-96925000D02*
G01*
X86750000Y-96925000D01*
X86750000Y-97425000D01*
X86250000Y-97425000D01*
X86250000Y-96925000D01*
G37*
G36*
X86250000Y-97425000D02*
G01*
X86750000Y-97425000D01*
X86750000Y-97925000D01*
X86250000Y-97925000D01*
X86250000Y-97425000D01*
G37*
G36*
X86250000Y-97925000D02*
G01*
X86750000Y-97925000D01*
X86750000Y-98425000D01*
X86250000Y-98425000D01*
X86250000Y-97925000D01*
G37*
G36*
X86250000Y-98425000D02*
G01*
X86750000Y-98425000D01*
X86750000Y-98925000D01*
X86250000Y-98925000D01*
X86250000Y-98425000D01*
G37*
G36*
X86250000Y-99425000D02*
G01*
X86750000Y-99425000D01*
X86750000Y-99925000D01*
X86250000Y-99925000D01*
X86250000Y-99425000D01*
G37*
G36*
X86250000Y-99925000D02*
G01*
X86750000Y-99925000D01*
X86750000Y-100425000D01*
X86250000Y-100425000D01*
X86250000Y-99925000D01*
G37*
G36*
X86250000Y-100425000D02*
G01*
X86750000Y-100425000D01*
X86750000Y-100925000D01*
X86250000Y-100925000D01*
X86250000Y-100425000D01*
G37*
G36*
X86250000Y-100925000D02*
G01*
X86750000Y-100925000D01*
X86750000Y-101425000D01*
X86250000Y-101425000D01*
X86250000Y-100925000D01*
G37*
G36*
X86250000Y-101425000D02*
G01*
X86750000Y-101425000D01*
X86750000Y-101925000D01*
X86250000Y-101925000D01*
X86250000Y-101425000D01*
G37*
G36*
X86250000Y-102425000D02*
G01*
X86750000Y-102425000D01*
X86750000Y-102925000D01*
X86250000Y-102925000D01*
X86250000Y-102425000D01*
G37*
G36*
X86250000Y-102925000D02*
G01*
X86750000Y-102925000D01*
X86750000Y-103425000D01*
X86250000Y-103425000D01*
X86250000Y-102925000D01*
G37*
G36*
X86250000Y-103425000D02*
G01*
X86750000Y-103425000D01*
X86750000Y-103925000D01*
X86250000Y-103925000D01*
X86250000Y-103425000D01*
G37*
G36*
X86250000Y-103925000D02*
G01*
X86750000Y-103925000D01*
X86750000Y-104425000D01*
X86250000Y-104425000D01*
X86250000Y-103925000D01*
G37*
G36*
X86250000Y-104425000D02*
G01*
X86750000Y-104425000D01*
X86750000Y-104925000D01*
X86250000Y-104925000D01*
X86250000Y-104425000D01*
G37*
G36*
X86250000Y-105925000D02*
G01*
X86750000Y-105925000D01*
X86750000Y-106425000D01*
X86250000Y-106425000D01*
X86250000Y-105925000D01*
G37*
G36*
X86250000Y-106425000D02*
G01*
X86750000Y-106425000D01*
X86750000Y-106925000D01*
X86250000Y-106925000D01*
X86250000Y-106425000D01*
G37*
G36*
X86250000Y-108425000D02*
G01*
X86750000Y-108425000D01*
X86750000Y-108925000D01*
X86250000Y-108925000D01*
X86250000Y-108425000D01*
G37*
G36*
X86750000Y-92425000D02*
G01*
X87250000Y-92425000D01*
X87250000Y-92925000D01*
X86750000Y-92925000D01*
X86750000Y-92425000D01*
G37*
G36*
X86750000Y-95925000D02*
G01*
X87250000Y-95925000D01*
X87250000Y-96425000D01*
X86750000Y-96425000D01*
X86750000Y-95925000D01*
G37*
G36*
X86750000Y-96425000D02*
G01*
X87250000Y-96425000D01*
X87250000Y-96925000D01*
X86750000Y-96925000D01*
X86750000Y-96425000D01*
G37*
G36*
X86750000Y-96925000D02*
G01*
X87250000Y-96925000D01*
X87250000Y-97425000D01*
X86750000Y-97425000D01*
X86750000Y-96925000D01*
G37*
G36*
X86750000Y-97425000D02*
G01*
X87250000Y-97425000D01*
X87250000Y-97925000D01*
X86750000Y-97925000D01*
X86750000Y-97425000D01*
G37*
G36*
X86750000Y-98925000D02*
G01*
X87250000Y-98925000D01*
X87250000Y-99425000D01*
X86750000Y-99425000D01*
X86750000Y-98925000D01*
G37*
G36*
X86750000Y-99425000D02*
G01*
X87250000Y-99425000D01*
X87250000Y-99925000D01*
X86750000Y-99925000D01*
X86750000Y-99425000D01*
G37*
G36*
X86750000Y-99925000D02*
G01*
X87250000Y-99925000D01*
X87250000Y-100425000D01*
X86750000Y-100425000D01*
X86750000Y-99925000D01*
G37*
G36*
X86750000Y-100925000D02*
G01*
X87250000Y-100925000D01*
X87250000Y-101425000D01*
X86750000Y-101425000D01*
X86750000Y-100925000D01*
G37*
G36*
X86750000Y-101425000D02*
G01*
X87250000Y-101425000D01*
X87250000Y-101925000D01*
X86750000Y-101925000D01*
X86750000Y-101425000D01*
G37*
G36*
X86750000Y-102425000D02*
G01*
X87250000Y-102425000D01*
X87250000Y-102925000D01*
X86750000Y-102925000D01*
X86750000Y-102425000D01*
G37*
G36*
X86750000Y-102925000D02*
G01*
X87250000Y-102925000D01*
X87250000Y-103425000D01*
X86750000Y-103425000D01*
X86750000Y-102925000D01*
G37*
G36*
X86750000Y-103425000D02*
G01*
X87250000Y-103425000D01*
X87250000Y-103925000D01*
X86750000Y-103925000D01*
X86750000Y-103425000D01*
G37*
G36*
X86750000Y-105925000D02*
G01*
X87250000Y-105925000D01*
X87250000Y-106425000D01*
X86750000Y-106425000D01*
X86750000Y-105925000D01*
G37*
G36*
X86750000Y-107425000D02*
G01*
X87250000Y-107425000D01*
X87250000Y-107925000D01*
X86750000Y-107925000D01*
X86750000Y-107425000D01*
G37*
G36*
X86750000Y-108425000D02*
G01*
X87250000Y-108425000D01*
X87250000Y-108925000D01*
X86750000Y-108925000D01*
X86750000Y-108425000D01*
G37*
G36*
X87250000Y-93425000D02*
G01*
X87750000Y-93425000D01*
X87750000Y-93925000D01*
X87250000Y-93925000D01*
X87250000Y-93425000D01*
G37*
G36*
X87250000Y-95425000D02*
G01*
X87750000Y-95425000D01*
X87750000Y-95925000D01*
X87250000Y-95925000D01*
X87250000Y-95425000D01*
G37*
G36*
X87250000Y-95925000D02*
G01*
X87750000Y-95925000D01*
X87750000Y-96425000D01*
X87250000Y-96425000D01*
X87250000Y-95925000D01*
G37*
G36*
X87250000Y-96425000D02*
G01*
X87750000Y-96425000D01*
X87750000Y-96925000D01*
X87250000Y-96925000D01*
X87250000Y-96425000D01*
G37*
G36*
X87250000Y-97425000D02*
G01*
X87750000Y-97425000D01*
X87750000Y-97925000D01*
X87250000Y-97925000D01*
X87250000Y-97425000D01*
G37*
G36*
X87250000Y-98425000D02*
G01*
X87750000Y-98425000D01*
X87750000Y-98925000D01*
X87250000Y-98925000D01*
X87250000Y-98425000D01*
G37*
G36*
X87250000Y-98925000D02*
G01*
X87750000Y-98925000D01*
X87750000Y-99425000D01*
X87250000Y-99425000D01*
X87250000Y-98925000D01*
G37*
G36*
X87250000Y-99425000D02*
G01*
X87750000Y-99425000D01*
X87750000Y-99925000D01*
X87250000Y-99925000D01*
X87250000Y-99425000D01*
G37*
G36*
X87250000Y-99925000D02*
G01*
X87750000Y-99925000D01*
X87750000Y-100425000D01*
X87250000Y-100425000D01*
X87250000Y-99925000D01*
G37*
G36*
X87250000Y-100425000D02*
G01*
X87750000Y-100425000D01*
X87750000Y-100925000D01*
X87250000Y-100925000D01*
X87250000Y-100425000D01*
G37*
G36*
X87250000Y-101925000D02*
G01*
X87750000Y-101925000D01*
X87750000Y-102425000D01*
X87250000Y-102425000D01*
X87250000Y-101925000D01*
G37*
G36*
X87250000Y-102425000D02*
G01*
X87750000Y-102425000D01*
X87750000Y-102925000D01*
X87250000Y-102925000D01*
X87250000Y-102425000D01*
G37*
G36*
X87250000Y-103925000D02*
G01*
X87750000Y-103925000D01*
X87750000Y-104425000D01*
X87250000Y-104425000D01*
X87250000Y-103925000D01*
G37*
G36*
X87250000Y-104425000D02*
G01*
X87750000Y-104425000D01*
X87750000Y-104925000D01*
X87250000Y-104925000D01*
X87250000Y-104425000D01*
G37*
G36*
X87250000Y-104925000D02*
G01*
X87750000Y-104925000D01*
X87750000Y-105425000D01*
X87250000Y-105425000D01*
X87250000Y-104925000D01*
G37*
G36*
X87250000Y-105425000D02*
G01*
X87750000Y-105425000D01*
X87750000Y-105925000D01*
X87250000Y-105925000D01*
X87250000Y-105425000D01*
G37*
G36*
X87250000Y-105925000D02*
G01*
X87750000Y-105925000D01*
X87750000Y-106425000D01*
X87250000Y-106425000D01*
X87250000Y-105925000D01*
G37*
G36*
X87250000Y-106425000D02*
G01*
X87750000Y-106425000D01*
X87750000Y-106925000D01*
X87250000Y-106925000D01*
X87250000Y-106425000D01*
G37*
G36*
X87250000Y-107925000D02*
G01*
X87750000Y-107925000D01*
X87750000Y-108425000D01*
X87250000Y-108425000D01*
X87250000Y-107925000D01*
G37*
G36*
X87250000Y-108425000D02*
G01*
X87750000Y-108425000D01*
X87750000Y-108925000D01*
X87250000Y-108925000D01*
X87250000Y-108425000D01*
G37*
G36*
X87750000Y-96425000D02*
G01*
X88250000Y-96425000D01*
X88250000Y-96925000D01*
X87750000Y-96925000D01*
X87750000Y-96425000D01*
G37*
G36*
X87750000Y-96925000D02*
G01*
X88250000Y-96925000D01*
X88250000Y-97425000D01*
X87750000Y-97425000D01*
X87750000Y-96925000D01*
G37*
G36*
X87750000Y-97425000D02*
G01*
X88250000Y-97425000D01*
X88250000Y-97925000D01*
X87750000Y-97925000D01*
X87750000Y-97425000D01*
G37*
G36*
X87750000Y-97925000D02*
G01*
X88250000Y-97925000D01*
X88250000Y-98425000D01*
X87750000Y-98425000D01*
X87750000Y-97925000D01*
G37*
G36*
X87750000Y-98925000D02*
G01*
X88250000Y-98925000D01*
X88250000Y-99425000D01*
X87750000Y-99425000D01*
X87750000Y-98925000D01*
G37*
G36*
X87750000Y-101425000D02*
G01*
X88250000Y-101425000D01*
X88250000Y-101925000D01*
X87750000Y-101925000D01*
X87750000Y-101425000D01*
G37*
G36*
X87750000Y-101925000D02*
G01*
X88250000Y-101925000D01*
X88250000Y-102425000D01*
X87750000Y-102425000D01*
X87750000Y-101925000D01*
G37*
G36*
X87750000Y-103425000D02*
G01*
X88250000Y-103425000D01*
X88250000Y-103925000D01*
X87750000Y-103925000D01*
X87750000Y-103425000D01*
G37*
G36*
X87750000Y-103925000D02*
G01*
X88250000Y-103925000D01*
X88250000Y-104425000D01*
X87750000Y-104425000D01*
X87750000Y-103925000D01*
G37*
G36*
X87750000Y-104425000D02*
G01*
X88250000Y-104425000D01*
X88250000Y-104925000D01*
X87750000Y-104925000D01*
X87750000Y-104425000D01*
G37*
G36*
X87750000Y-106425000D02*
G01*
X88250000Y-106425000D01*
X88250000Y-106925000D01*
X87750000Y-106925000D01*
X87750000Y-106425000D01*
G37*
G36*
X87750000Y-108425000D02*
G01*
X88250000Y-108425000D01*
X88250000Y-108925000D01*
X87750000Y-108925000D01*
X87750000Y-108425000D01*
G37*
G36*
X88250000Y-92425000D02*
G01*
X88750000Y-92425000D01*
X88750000Y-92925000D01*
X88250000Y-92925000D01*
X88250000Y-92425000D01*
G37*
G36*
X88250000Y-92925000D02*
G01*
X88750000Y-92925000D01*
X88750000Y-93425000D01*
X88250000Y-93425000D01*
X88250000Y-92925000D01*
G37*
G36*
X88250000Y-93425000D02*
G01*
X88750000Y-93425000D01*
X88750000Y-93925000D01*
X88250000Y-93925000D01*
X88250000Y-93425000D01*
G37*
G36*
X88250000Y-93925000D02*
G01*
X88750000Y-93925000D01*
X88750000Y-94425000D01*
X88250000Y-94425000D01*
X88250000Y-93925000D01*
G37*
G36*
X88250000Y-94425000D02*
G01*
X88750000Y-94425000D01*
X88750000Y-94925000D01*
X88250000Y-94925000D01*
X88250000Y-94425000D01*
G37*
G36*
X88250000Y-94925000D02*
G01*
X88750000Y-94925000D01*
X88750000Y-95425000D01*
X88250000Y-95425000D01*
X88250000Y-94925000D01*
G37*
G36*
X88250000Y-95425000D02*
G01*
X88750000Y-95425000D01*
X88750000Y-95925000D01*
X88250000Y-95925000D01*
X88250000Y-95425000D01*
G37*
G36*
X88250000Y-96425000D02*
G01*
X88750000Y-96425000D01*
X88750000Y-96925000D01*
X88250000Y-96925000D01*
X88250000Y-96425000D01*
G37*
G36*
X88250000Y-97925000D02*
G01*
X88750000Y-97925000D01*
X88750000Y-98425000D01*
X88250000Y-98425000D01*
X88250000Y-97925000D01*
G37*
G36*
X88250000Y-98425000D02*
G01*
X88750000Y-98425000D01*
X88750000Y-98925000D01*
X88250000Y-98925000D01*
X88250000Y-98425000D01*
G37*
G36*
X88250000Y-99425000D02*
G01*
X88750000Y-99425000D01*
X88750000Y-99925000D01*
X88250000Y-99925000D01*
X88250000Y-99425000D01*
G37*
G36*
X88250000Y-100425000D02*
G01*
X88750000Y-100425000D01*
X88750000Y-100925000D01*
X88250000Y-100925000D01*
X88250000Y-100425000D01*
G37*
G36*
X88250000Y-102425000D02*
G01*
X88750000Y-102425000D01*
X88750000Y-102925000D01*
X88250000Y-102925000D01*
X88250000Y-102425000D01*
G37*
G36*
X88250000Y-104425000D02*
G01*
X88750000Y-104425000D01*
X88750000Y-104925000D01*
X88250000Y-104925000D01*
X88250000Y-104425000D01*
G37*
G36*
X88250000Y-105425000D02*
G01*
X88750000Y-105425000D01*
X88750000Y-105925000D01*
X88250000Y-105925000D01*
X88250000Y-105425000D01*
G37*
G36*
X88250000Y-106425000D02*
G01*
X88750000Y-106425000D01*
X88750000Y-106925000D01*
X88250000Y-106925000D01*
X88250000Y-106425000D01*
G37*
G36*
X88250000Y-106925000D02*
G01*
X88750000Y-106925000D01*
X88750000Y-107425000D01*
X88250000Y-107425000D01*
X88250000Y-106925000D01*
G37*
G36*
X88250000Y-107425000D02*
G01*
X88750000Y-107425000D01*
X88750000Y-107925000D01*
X88250000Y-107925000D01*
X88250000Y-107425000D01*
G37*
G36*
X88750000Y-92425000D02*
G01*
X89250000Y-92425000D01*
X89250000Y-92925000D01*
X88750000Y-92925000D01*
X88750000Y-92425000D01*
G37*
G36*
X88750000Y-95425000D02*
G01*
X89250000Y-95425000D01*
X89250000Y-95925000D01*
X88750000Y-95925000D01*
X88750000Y-95425000D01*
G37*
G36*
X88750000Y-96425000D02*
G01*
X89250000Y-96425000D01*
X89250000Y-96925000D01*
X88750000Y-96925000D01*
X88750000Y-96425000D01*
G37*
G36*
X88750000Y-96925000D02*
G01*
X89250000Y-96925000D01*
X89250000Y-97425000D01*
X88750000Y-97425000D01*
X88750000Y-96925000D01*
G37*
G36*
X88750000Y-97425000D02*
G01*
X89250000Y-97425000D01*
X89250000Y-97925000D01*
X88750000Y-97925000D01*
X88750000Y-97425000D01*
G37*
G36*
X88750000Y-98425000D02*
G01*
X89250000Y-98425000D01*
X89250000Y-98925000D01*
X88750000Y-98925000D01*
X88750000Y-98425000D01*
G37*
G36*
X88750000Y-98925000D02*
G01*
X89250000Y-98925000D01*
X89250000Y-99425000D01*
X88750000Y-99425000D01*
X88750000Y-98925000D01*
G37*
G36*
X88750000Y-99925000D02*
G01*
X89250000Y-99925000D01*
X89250000Y-100425000D01*
X88750000Y-100425000D01*
X88750000Y-99925000D01*
G37*
G36*
X88750000Y-100425000D02*
G01*
X89250000Y-100425000D01*
X89250000Y-100925000D01*
X88750000Y-100925000D01*
X88750000Y-100425000D01*
G37*
G36*
X88750000Y-100925000D02*
G01*
X89250000Y-100925000D01*
X89250000Y-101425000D01*
X88750000Y-101425000D01*
X88750000Y-100925000D01*
G37*
G36*
X88750000Y-101925000D02*
G01*
X89250000Y-101925000D01*
X89250000Y-102425000D01*
X88750000Y-102425000D01*
X88750000Y-101925000D01*
G37*
G36*
X88750000Y-102425000D02*
G01*
X89250000Y-102425000D01*
X89250000Y-102925000D01*
X88750000Y-102925000D01*
X88750000Y-102425000D01*
G37*
G36*
X88750000Y-102925000D02*
G01*
X89250000Y-102925000D01*
X89250000Y-103425000D01*
X88750000Y-103425000D01*
X88750000Y-102925000D01*
G37*
G36*
X88750000Y-104425000D02*
G01*
X89250000Y-104425000D01*
X89250000Y-104925000D01*
X88750000Y-104925000D01*
X88750000Y-104425000D01*
G37*
G36*
X88750000Y-106425000D02*
G01*
X89250000Y-106425000D01*
X89250000Y-106925000D01*
X88750000Y-106925000D01*
X88750000Y-106425000D01*
G37*
G36*
X88750000Y-108425000D02*
G01*
X89250000Y-108425000D01*
X89250000Y-108925000D01*
X88750000Y-108925000D01*
X88750000Y-108425000D01*
G37*
G36*
X89250000Y-92425000D02*
G01*
X89750000Y-92425000D01*
X89750000Y-92925000D01*
X89250000Y-92925000D01*
X89250000Y-92425000D01*
G37*
G36*
X89250000Y-93425000D02*
G01*
X89750000Y-93425000D01*
X89750000Y-93925000D01*
X89250000Y-93925000D01*
X89250000Y-93425000D01*
G37*
G36*
X89250000Y-93925000D02*
G01*
X89750000Y-93925000D01*
X89750000Y-94425000D01*
X89250000Y-94425000D01*
X89250000Y-93925000D01*
G37*
G36*
X89250000Y-94425000D02*
G01*
X89750000Y-94425000D01*
X89750000Y-94925000D01*
X89250000Y-94925000D01*
X89250000Y-94425000D01*
G37*
G36*
X89250000Y-95425000D02*
G01*
X89750000Y-95425000D01*
X89750000Y-95925000D01*
X89250000Y-95925000D01*
X89250000Y-95425000D01*
G37*
G36*
X89250000Y-96425000D02*
G01*
X89750000Y-96425000D01*
X89750000Y-96925000D01*
X89250000Y-96925000D01*
X89250000Y-96425000D01*
G37*
G36*
X89250000Y-97425000D02*
G01*
X89750000Y-97425000D01*
X89750000Y-97925000D01*
X89250000Y-97925000D01*
X89250000Y-97425000D01*
G37*
G36*
X89250000Y-97925000D02*
G01*
X89750000Y-97925000D01*
X89750000Y-98425000D01*
X89250000Y-98425000D01*
X89250000Y-97925000D01*
G37*
G36*
X89250000Y-98425000D02*
G01*
X89750000Y-98425000D01*
X89750000Y-98925000D01*
X89250000Y-98925000D01*
X89250000Y-98425000D01*
G37*
G36*
X89250000Y-99925000D02*
G01*
X89750000Y-99925000D01*
X89750000Y-100425000D01*
X89250000Y-100425000D01*
X89250000Y-99925000D01*
G37*
G36*
X89250000Y-100425000D02*
G01*
X89750000Y-100425000D01*
X89750000Y-100925000D01*
X89250000Y-100925000D01*
X89250000Y-100425000D01*
G37*
G36*
X89250000Y-101425000D02*
G01*
X89750000Y-101425000D01*
X89750000Y-101925000D01*
X89250000Y-101925000D01*
X89250000Y-101425000D01*
G37*
G36*
X89250000Y-103425000D02*
G01*
X89750000Y-103425000D01*
X89750000Y-103925000D01*
X89250000Y-103925000D01*
X89250000Y-103425000D01*
G37*
G36*
X89250000Y-104425000D02*
G01*
X89750000Y-104425000D01*
X89750000Y-104925000D01*
X89250000Y-104925000D01*
X89250000Y-104425000D01*
G37*
G36*
X89250000Y-104925000D02*
G01*
X89750000Y-104925000D01*
X89750000Y-105425000D01*
X89250000Y-105425000D01*
X89250000Y-104925000D01*
G37*
G36*
X89250000Y-105425000D02*
G01*
X89750000Y-105425000D01*
X89750000Y-105925000D01*
X89250000Y-105925000D01*
X89250000Y-105425000D01*
G37*
G36*
X89250000Y-105925000D02*
G01*
X89750000Y-105925000D01*
X89750000Y-106425000D01*
X89250000Y-106425000D01*
X89250000Y-105925000D01*
G37*
G36*
X89250000Y-106425000D02*
G01*
X89750000Y-106425000D01*
X89750000Y-106925000D01*
X89250000Y-106925000D01*
X89250000Y-106425000D01*
G37*
G36*
X89250000Y-106925000D02*
G01*
X89750000Y-106925000D01*
X89750000Y-107425000D01*
X89250000Y-107425000D01*
X89250000Y-106925000D01*
G37*
G36*
X89250000Y-107425000D02*
G01*
X89750000Y-107425000D01*
X89750000Y-107925000D01*
X89250000Y-107925000D01*
X89250000Y-107425000D01*
G37*
G36*
X89750000Y-92425000D02*
G01*
X90250000Y-92425000D01*
X90250000Y-92925000D01*
X89750000Y-92925000D01*
X89750000Y-92425000D01*
G37*
G36*
X89750000Y-93425000D02*
G01*
X90250000Y-93425000D01*
X90250000Y-93925000D01*
X89750000Y-93925000D01*
X89750000Y-93425000D01*
G37*
G36*
X89750000Y-93925000D02*
G01*
X90250000Y-93925000D01*
X90250000Y-94425000D01*
X89750000Y-94425000D01*
X89750000Y-93925000D01*
G37*
G36*
X89750000Y-94425000D02*
G01*
X90250000Y-94425000D01*
X90250000Y-94925000D01*
X89750000Y-94925000D01*
X89750000Y-94425000D01*
G37*
G36*
X89750000Y-95425000D02*
G01*
X90250000Y-95425000D01*
X90250000Y-95925000D01*
X89750000Y-95925000D01*
X89750000Y-95425000D01*
G37*
G36*
X89750000Y-96425000D02*
G01*
X90250000Y-96425000D01*
X90250000Y-96925000D01*
X89750000Y-96925000D01*
X89750000Y-96425000D01*
G37*
G36*
X89750000Y-98425000D02*
G01*
X90250000Y-98425000D01*
X90250000Y-98925000D01*
X89750000Y-98925000D01*
X89750000Y-98425000D01*
G37*
G36*
X89750000Y-100925000D02*
G01*
X90250000Y-100925000D01*
X90250000Y-101425000D01*
X89750000Y-101425000D01*
X89750000Y-100925000D01*
G37*
G36*
X89750000Y-101425000D02*
G01*
X90250000Y-101425000D01*
X90250000Y-101925000D01*
X89750000Y-101925000D01*
X89750000Y-101425000D01*
G37*
G36*
X89750000Y-105425000D02*
G01*
X90250000Y-105425000D01*
X90250000Y-105925000D01*
X89750000Y-105925000D01*
X89750000Y-105425000D01*
G37*
G36*
X89750000Y-106925000D02*
G01*
X90250000Y-106925000D01*
X90250000Y-107425000D01*
X89750000Y-107425000D01*
X89750000Y-106925000D01*
G37*
G36*
X89750000Y-107425000D02*
G01*
X90250000Y-107425000D01*
X90250000Y-107925000D01*
X89750000Y-107925000D01*
X89750000Y-107425000D01*
G37*
G36*
X89750000Y-107925000D02*
G01*
X90250000Y-107925000D01*
X90250000Y-108425000D01*
X89750000Y-108425000D01*
X89750000Y-107925000D01*
G37*
G36*
X90250000Y-92425000D02*
G01*
X90750000Y-92425000D01*
X90750000Y-92925000D01*
X90250000Y-92925000D01*
X90250000Y-92425000D01*
G37*
G36*
X90250000Y-93425000D02*
G01*
X90750000Y-93425000D01*
X90750000Y-93925000D01*
X90250000Y-93925000D01*
X90250000Y-93425000D01*
G37*
G36*
X90250000Y-93925000D02*
G01*
X90750000Y-93925000D01*
X90750000Y-94425000D01*
X90250000Y-94425000D01*
X90250000Y-93925000D01*
G37*
G36*
X90250000Y-94425000D02*
G01*
X90750000Y-94425000D01*
X90750000Y-94925000D01*
X90250000Y-94925000D01*
X90250000Y-94425000D01*
G37*
G36*
X90250000Y-95425000D02*
G01*
X90750000Y-95425000D01*
X90750000Y-95925000D01*
X90250000Y-95925000D01*
X90250000Y-95425000D01*
G37*
G36*
X90250000Y-100925000D02*
G01*
X90750000Y-100925000D01*
X90750000Y-101425000D01*
X90250000Y-101425000D01*
X90250000Y-100925000D01*
G37*
G36*
X90250000Y-102425000D02*
G01*
X90750000Y-102425000D01*
X90750000Y-102925000D01*
X90250000Y-102925000D01*
X90250000Y-102425000D01*
G37*
G36*
X90250000Y-102925000D02*
G01*
X90750000Y-102925000D01*
X90750000Y-103425000D01*
X90250000Y-103425000D01*
X90250000Y-102925000D01*
G37*
G36*
X90250000Y-104925000D02*
G01*
X90750000Y-104925000D01*
X90750000Y-105425000D01*
X90250000Y-105425000D01*
X90250000Y-104925000D01*
G37*
G36*
X90750000Y-92425000D02*
G01*
X91250000Y-92425000D01*
X91250000Y-92925000D01*
X90750000Y-92925000D01*
X90750000Y-92425000D01*
G37*
G36*
X90750000Y-95425000D02*
G01*
X91250000Y-95425000D01*
X91250000Y-95925000D01*
X90750000Y-95925000D01*
X90750000Y-95425000D01*
G37*
G36*
X90750000Y-96925000D02*
G01*
X91250000Y-96925000D01*
X91250000Y-97425000D01*
X90750000Y-97425000D01*
X90750000Y-96925000D01*
G37*
G36*
X90750000Y-97425000D02*
G01*
X91250000Y-97425000D01*
X91250000Y-97925000D01*
X90750000Y-97925000D01*
X90750000Y-97425000D01*
G37*
G36*
X90750000Y-98925000D02*
G01*
X91250000Y-98925000D01*
X91250000Y-99425000D01*
X90750000Y-99425000D01*
X90750000Y-98925000D01*
G37*
G36*
X90750000Y-99425000D02*
G01*
X91250000Y-99425000D01*
X91250000Y-99925000D01*
X90750000Y-99925000D01*
X90750000Y-99425000D01*
G37*
G36*
X90750000Y-99925000D02*
G01*
X91250000Y-99925000D01*
X91250000Y-100425000D01*
X90750000Y-100425000D01*
X90750000Y-99925000D01*
G37*
G36*
X90750000Y-101425000D02*
G01*
X91250000Y-101425000D01*
X91250000Y-101925000D01*
X90750000Y-101925000D01*
X90750000Y-101425000D01*
G37*
G36*
X90750000Y-102925000D02*
G01*
X91250000Y-102925000D01*
X91250000Y-103425000D01*
X90750000Y-103425000D01*
X90750000Y-102925000D01*
G37*
G36*
X90750000Y-103425000D02*
G01*
X91250000Y-103425000D01*
X91250000Y-103925000D01*
X90750000Y-103925000D01*
X90750000Y-103425000D01*
G37*
G36*
X90750000Y-103925000D02*
G01*
X91250000Y-103925000D01*
X91250000Y-104425000D01*
X90750000Y-104425000D01*
X90750000Y-103925000D01*
G37*
G36*
X90750000Y-104925000D02*
G01*
X91250000Y-104925000D01*
X91250000Y-105425000D01*
X90750000Y-105425000D01*
X90750000Y-104925000D01*
G37*
G36*
X90750000Y-105425000D02*
G01*
X91250000Y-105425000D01*
X91250000Y-105925000D01*
X90750000Y-105925000D01*
X90750000Y-105425000D01*
G37*
G36*
X90750000Y-105925000D02*
G01*
X91250000Y-105925000D01*
X91250000Y-106425000D01*
X90750000Y-106425000D01*
X90750000Y-105925000D01*
G37*
G36*
X91250000Y-92425000D02*
G01*
X91750000Y-92425000D01*
X91750000Y-92925000D01*
X91250000Y-92925000D01*
X91250000Y-92425000D01*
G37*
G36*
X91250000Y-92925000D02*
G01*
X91750000Y-92925000D01*
X91750000Y-93425000D01*
X91250000Y-93425000D01*
X91250000Y-92925000D01*
G37*
G36*
X91250000Y-93425000D02*
G01*
X91750000Y-93425000D01*
X91750000Y-93925000D01*
X91250000Y-93925000D01*
X91250000Y-93425000D01*
G37*
G36*
X91250000Y-93925000D02*
G01*
X91750000Y-93925000D01*
X91750000Y-94425000D01*
X91250000Y-94425000D01*
X91250000Y-93925000D01*
G37*
G36*
X91250000Y-94425000D02*
G01*
X91750000Y-94425000D01*
X91750000Y-94925000D01*
X91250000Y-94925000D01*
X91250000Y-94425000D01*
G37*
G36*
X91250000Y-94925000D02*
G01*
X91750000Y-94925000D01*
X91750000Y-95425000D01*
X91250000Y-95425000D01*
X91250000Y-94925000D01*
G37*
G36*
X91250000Y-95425000D02*
G01*
X91750000Y-95425000D01*
X91750000Y-95925000D01*
X91250000Y-95925000D01*
X91250000Y-95425000D01*
G37*
G36*
X91250000Y-96425000D02*
G01*
X91750000Y-96425000D01*
X91750000Y-96925000D01*
X91250000Y-96925000D01*
X91250000Y-96425000D01*
G37*
G36*
X91250000Y-98425000D02*
G01*
X91750000Y-98425000D01*
X91750000Y-98925000D01*
X91250000Y-98925000D01*
X91250000Y-98425000D01*
G37*
G36*
X91250000Y-99925000D02*
G01*
X91750000Y-99925000D01*
X91750000Y-100425000D01*
X91250000Y-100425000D01*
X91250000Y-99925000D01*
G37*
G36*
X91250000Y-100425000D02*
G01*
X91750000Y-100425000D01*
X91750000Y-100925000D01*
X91250000Y-100925000D01*
X91250000Y-100425000D01*
G37*
G36*
X91250000Y-101925000D02*
G01*
X91750000Y-101925000D01*
X91750000Y-102425000D01*
X91250000Y-102425000D01*
X91250000Y-101925000D01*
G37*
G36*
X91250000Y-104425000D02*
G01*
X91750000Y-104425000D01*
X91750000Y-104925000D01*
X91250000Y-104925000D01*
X91250000Y-104425000D01*
G37*
G36*
X91250000Y-106425000D02*
G01*
X91750000Y-106425000D01*
X91750000Y-106925000D01*
X91250000Y-106925000D01*
X91250000Y-106425000D01*
G37*
G36*
X91250000Y-108425000D02*
G01*
X91750000Y-108425000D01*
X91750000Y-108925000D01*
X91250000Y-108925000D01*
X91250000Y-108425000D01*
G37*
D11*
%TO.C,G\u002A\u002A\u002A*%
G36*
X127165457Y-106971905D02*
G01*
X127165457Y-107273633D01*
X126799727Y-107273633D01*
X126433996Y-107273633D01*
X126433996Y-106971905D01*
X126433996Y-106670177D01*
X126799727Y-106670177D01*
X127165457Y-106670177D01*
X127165457Y-106971905D01*
G37*
G36*
X127165457Y-108896563D02*
G01*
X127165457Y-110199479D01*
X126799727Y-110199479D01*
X126433996Y-110199479D01*
X126433996Y-108896563D01*
X126433996Y-107593647D01*
X126799727Y-107593647D01*
X127165457Y-107593647D01*
X127165457Y-108896563D01*
G37*
G36*
X130166531Y-107511361D02*
G01*
X130169021Y-107877095D01*
X129782718Y-107877092D01*
X129396415Y-107877088D01*
X129396415Y-109038283D01*
X129396415Y-110199479D01*
X129026113Y-110199479D01*
X128655810Y-110199479D01*
X128655810Y-108672553D01*
X128655810Y-107145627D01*
X129409926Y-107145627D01*
X130164042Y-107145627D01*
X130166531Y-107511361D01*
G37*
G36*
X125912830Y-108654266D02*
G01*
X125912830Y-109029140D01*
X124812309Y-109029140D01*
X123711788Y-109029140D01*
X123705809Y-108985710D01*
X123704578Y-108969420D01*
X123703333Y-108935984D01*
X123702263Y-108888811D01*
X123701401Y-108830307D01*
X123700783Y-108762873D01*
X123700442Y-108688915D01*
X123700414Y-108610836D01*
X123700998Y-108279392D01*
X124806914Y-108279392D01*
X125912830Y-108279392D01*
X125912830Y-108654266D01*
G37*
G36*
X112186581Y-107117317D02*
G01*
X112188950Y-107584504D01*
X112344302Y-107584504D01*
X112499655Y-107584504D01*
X112499655Y-107959157D01*
X112499655Y-108333810D01*
X112346505Y-108336317D01*
X112193355Y-108338823D01*
X112191026Y-109269151D01*
X112188697Y-110199479D01*
X111813866Y-110199479D01*
X111439036Y-110199479D01*
X111439036Y-108683114D01*
X111439036Y-107166749D01*
X111610472Y-107048919D01*
X111633772Y-107032887D01*
X111697459Y-106988940D01*
X111769139Y-106939336D01*
X111843905Y-106887478D01*
X111916848Y-106836768D01*
X111983060Y-106790610D01*
X112184212Y-106650130D01*
X112186581Y-107117317D01*
G37*
G36*
X117665605Y-109360780D02*
G01*
X117665601Y-110199871D01*
X116666501Y-110197389D01*
X115667401Y-110194907D01*
X115606598Y-110164971D01*
X115583212Y-110152183D01*
X115522523Y-110106566D01*
X115469565Y-110048538D01*
X115428440Y-109982305D01*
X115402643Y-109929752D01*
X115400137Y-109228006D01*
X115397632Y-108526260D01*
X115633291Y-108524222D01*
X115671907Y-108523898D01*
X115746219Y-108523326D01*
X115820111Y-108522816D01*
X115889116Y-108522395D01*
X115948768Y-108522092D01*
X115994600Y-108521936D01*
X116120252Y-108521689D01*
X116120320Y-108976566D01*
X116120389Y-109431444D01*
X116527265Y-109431444D01*
X116934140Y-109431444D01*
X116934140Y-108979056D01*
X116934140Y-108526668D01*
X117299874Y-108524179D01*
X117665608Y-108521689D01*
X117665605Y-109360780D01*
G37*
G36*
X128463802Y-107511358D02*
G01*
X128463802Y-107877088D01*
X128196361Y-107876839D01*
X127928920Y-107876590D01*
X127781127Y-107655115D01*
X127744401Y-107600194D01*
X127699170Y-107532820D01*
X127654148Y-107466009D01*
X127611812Y-107403430D01*
X127574639Y-107348749D01*
X127545106Y-107305634D01*
X127523150Y-107273684D01*
X127495489Y-107233138D01*
X127472456Y-107199040D01*
X127455982Y-107174249D01*
X127447995Y-107161628D01*
X127447501Y-107160659D01*
X127446977Y-107157376D01*
X127449594Y-107154608D01*
X127456730Y-107152311D01*
X127469761Y-107150441D01*
X127490065Y-107148955D01*
X127519017Y-107147810D01*
X127557995Y-107146960D01*
X127608375Y-107146364D01*
X127671535Y-107145976D01*
X127748850Y-107145753D01*
X127841699Y-107145651D01*
X127951457Y-107145627D01*
X128463802Y-107145627D01*
X128463802Y-107511358D01*
G37*
G36*
X117195702Y-106667497D02*
G01*
X117268622Y-106667853D01*
X117345525Y-106668431D01*
X117665601Y-106671257D01*
X117665601Y-107511898D01*
X117665601Y-108352538D01*
X116531836Y-108352538D01*
X115398071Y-108352538D01*
X115398071Y-108124480D01*
X115398080Y-108085375D01*
X115398236Y-108023303D01*
X115398769Y-107975332D01*
X115399908Y-107938717D01*
X115401882Y-107910711D01*
X115404923Y-107888570D01*
X115409259Y-107869547D01*
X115415120Y-107850897D01*
X115422737Y-107829875D01*
X115438471Y-107794932D01*
X115475737Y-107737357D01*
X115523107Y-107684556D01*
X115576347Y-107640972D01*
X115631224Y-107611047D01*
X115686084Y-107589204D01*
X116239252Y-107592040D01*
X116331325Y-107592423D01*
X116429377Y-107592634D01*
X116522121Y-107592634D01*
X116607701Y-107592431D01*
X116684266Y-107592037D01*
X116749960Y-107591461D01*
X116802929Y-107590713D01*
X116841320Y-107589802D01*
X116863280Y-107588738D01*
X116934140Y-107582600D01*
X116934140Y-107127271D01*
X116934140Y-106671942D01*
X116979795Y-106668774D01*
X116993477Y-106668244D01*
X117025653Y-106667736D01*
X117071737Y-106667441D01*
X117129247Y-106667361D01*
X117195702Y-106667497D01*
G37*
G36*
X114384747Y-107585746D02*
G01*
X114464406Y-107585965D01*
X114531834Y-107586372D01*
X114588194Y-107586985D01*
X114634646Y-107587817D01*
X114672350Y-107588885D01*
X114702469Y-107590205D01*
X114726164Y-107591790D01*
X114744595Y-107593658D01*
X114758924Y-107595824D01*
X114770313Y-107598302D01*
X114828863Y-107619254D01*
X114895861Y-107659556D01*
X114954172Y-107713540D01*
X115001465Y-107778960D01*
X115035411Y-107853573D01*
X115038973Y-107865476D01*
X115043135Y-107885605D01*
X115046217Y-107911340D01*
X115048362Y-107945217D01*
X115049716Y-107989770D01*
X115050423Y-108047536D01*
X115050627Y-108121050D01*
X115050627Y-108343467D01*
X113919147Y-108341145D01*
X112787668Y-108338823D01*
X112784827Y-108137672D01*
X112784259Y-108086580D01*
X112784353Y-108016559D01*
X112786036Y-107960176D01*
X112789684Y-107914566D01*
X112795671Y-107876869D01*
X112804374Y-107844222D01*
X112816169Y-107813763D01*
X112831431Y-107782628D01*
X112873180Y-107720014D01*
X112931699Y-107662741D01*
X113001897Y-107618454D01*
X113061565Y-107589075D01*
X113888091Y-107586554D01*
X113920583Y-107586457D01*
X114060775Y-107586072D01*
X114184093Y-107585816D01*
X114291696Y-107585702D01*
X114384747Y-107585746D01*
G37*
G36*
X111237009Y-107585260D02*
G01*
X111251940Y-107590990D01*
X111258097Y-107605076D01*
X111258180Y-107605648D01*
X111258790Y-107620031D01*
X111259282Y-107649915D01*
X111259660Y-107692815D01*
X111259927Y-107746247D01*
X111260085Y-107807726D01*
X111260139Y-107874768D01*
X111260091Y-107944889D01*
X111259945Y-108015604D01*
X111259703Y-108084430D01*
X111259370Y-108148881D01*
X111258947Y-108206475D01*
X111258440Y-108254725D01*
X111257849Y-108291149D01*
X111257180Y-108313262D01*
X111257139Y-108314019D01*
X111254664Y-108324586D01*
X111246101Y-108330946D01*
X111227385Y-108334654D01*
X111194453Y-108337266D01*
X111194172Y-108337284D01*
X111160479Y-108338497D01*
X111114578Y-108338978D01*
X111062466Y-108338711D01*
X111010142Y-108337684D01*
X110961964Y-108336510D01*
X110898452Y-108335341D01*
X110836419Y-108334545D01*
X110784264Y-108334252D01*
X110680979Y-108334252D01*
X110737707Y-108251210D01*
X110752925Y-108228969D01*
X110782784Y-108185446D01*
X110817777Y-108134534D01*
X110854723Y-108080864D01*
X110890439Y-108029064D01*
X110913866Y-107994951D01*
X110956519Y-107932256D01*
X111002365Y-107864297D01*
X111047250Y-107797239D01*
X111087020Y-107737250D01*
X111110672Y-107701381D01*
X111139239Y-107658535D01*
X111160648Y-107627698D01*
X111176629Y-107606895D01*
X111188913Y-107594150D01*
X111199230Y-107587489D01*
X111209313Y-107584938D01*
X111220892Y-107584522D01*
X111237009Y-107585260D01*
G37*
G36*
X118950769Y-107588089D02*
G01*
X119061721Y-107588388D01*
X119176264Y-107588919D01*
X119292539Y-107589689D01*
X119389232Y-107590441D01*
X119507333Y-107591419D01*
X119609346Y-107592364D01*
X119696547Y-107593314D01*
X119770208Y-107594306D01*
X119831603Y-107595377D01*
X119882005Y-107596563D01*
X119922688Y-107597901D01*
X119954925Y-107599429D01*
X119979991Y-107601184D01*
X119999158Y-107603201D01*
X120013700Y-107605520D01*
X120024891Y-107608175D01*
X120034004Y-107611205D01*
X120092244Y-107639008D01*
X120156005Y-107686665D01*
X120210038Y-107749194D01*
X120255086Y-107827319D01*
X120285148Y-107890803D01*
X120288127Y-108121671D01*
X120291106Y-108352538D01*
X119152076Y-108352538D01*
X118013046Y-108352538D01*
X118013046Y-108139592D01*
X118013236Y-108083587D01*
X118014435Y-108011643D01*
X118017072Y-107953534D01*
X118021535Y-107906583D01*
X118028208Y-107868113D01*
X118037479Y-107835447D01*
X118049733Y-107805907D01*
X118065357Y-107776815D01*
X118080820Y-107753119D01*
X118123236Y-107702855D01*
X118173214Y-107658075D01*
X118224432Y-107624819D01*
X118236886Y-107618634D01*
X118255084Y-107610945D01*
X118274597Y-107605264D01*
X118298817Y-107601060D01*
X118331135Y-107597800D01*
X118374944Y-107594951D01*
X118433636Y-107591980D01*
X118464690Y-107590918D01*
X118515015Y-107589921D01*
X118580097Y-107589128D01*
X118658074Y-107588544D01*
X118747085Y-107588172D01*
X118845271Y-107588019D01*
X118950769Y-107588089D01*
G37*
G36*
X113507615Y-108971995D02*
G01*
X113509986Y-109426872D01*
X113914576Y-109429253D01*
X114319165Y-109431634D01*
X114319165Y-108974376D01*
X114319165Y-108517117D01*
X114685062Y-108517117D01*
X115050959Y-108517117D01*
X115048507Y-109219062D01*
X115046055Y-109921008D01*
X115016860Y-109980240D01*
X115002586Y-110005864D01*
X114971648Y-110050091D01*
X114935397Y-110092281D01*
X114898166Y-110127581D01*
X114864285Y-110151138D01*
X114850569Y-110157630D01*
X114819259Y-110170393D01*
X114785472Y-110182387D01*
X114781681Y-110183577D01*
X114771743Y-110186230D01*
X114759876Y-110188547D01*
X114744909Y-110190549D01*
X114725676Y-110192253D01*
X114701008Y-110193679D01*
X114669737Y-110194846D01*
X114630694Y-110195772D01*
X114582711Y-110196478D01*
X114524620Y-110196981D01*
X114455252Y-110197302D01*
X114373440Y-110197458D01*
X114278014Y-110197469D01*
X114167807Y-110197353D01*
X114041650Y-110197131D01*
X113898375Y-110196821D01*
X113061566Y-110194907D01*
X113002238Y-110165696D01*
X112975769Y-110151273D01*
X112911571Y-110103087D01*
X112858110Y-110042990D01*
X112817845Y-109974114D01*
X112793233Y-109899586D01*
X112791919Y-109890509D01*
X112789821Y-109861707D01*
X112788015Y-109816419D01*
X112786497Y-109754391D01*
X112785263Y-109675364D01*
X112784309Y-109579081D01*
X112783633Y-109465285D01*
X112783230Y-109333719D01*
X112783096Y-109184126D01*
X112783096Y-108517117D01*
X113144170Y-108517117D01*
X113505244Y-108517117D01*
X113507615Y-108971995D01*
G37*
G36*
X118737564Y-108981138D02*
G01*
X118739936Y-109436016D01*
X119149097Y-109438396D01*
X119558258Y-109440776D01*
X119558258Y-108983518D01*
X119558258Y-108526260D01*
X119923989Y-108526260D01*
X120289720Y-108526260D01*
X120289720Y-109196370D01*
X120289688Y-109299641D01*
X120289541Y-109417720D01*
X120289253Y-109519699D01*
X120288804Y-109606812D01*
X120288169Y-109680290D01*
X120287328Y-109741366D01*
X120286257Y-109791272D01*
X120284935Y-109831242D01*
X120283338Y-109862507D01*
X120281445Y-109886301D01*
X120279234Y-109903855D01*
X120276681Y-109916402D01*
X120261467Y-109962862D01*
X120223125Y-110035349D01*
X120170267Y-110097484D01*
X120103908Y-110148175D01*
X120025065Y-110186335D01*
X120024801Y-110186431D01*
X120015799Y-110188529D01*
X120000626Y-110190365D01*
X119978272Y-110191952D01*
X119947727Y-110193300D01*
X119907982Y-110194423D01*
X119858027Y-110195330D01*
X119796853Y-110196035D01*
X119723450Y-110196550D01*
X119636808Y-110196885D01*
X119535919Y-110197052D01*
X119419772Y-110197064D01*
X119287358Y-110196931D01*
X119137668Y-110196667D01*
X118282772Y-110194907D01*
X118227912Y-110166211D01*
X118200381Y-110150145D01*
X118138926Y-110101004D01*
X118086982Y-110040323D01*
X118047474Y-109971913D01*
X118023326Y-109899586D01*
X118021577Y-109886667D01*
X118019530Y-109856358D01*
X118017774Y-109810588D01*
X118016305Y-109748954D01*
X118015116Y-109671052D01*
X118014202Y-109576479D01*
X118013556Y-109464831D01*
X118013172Y-109335705D01*
X118013046Y-109188697D01*
X118013046Y-108526260D01*
X118374119Y-108526260D01*
X118735193Y-108526260D01*
X118737564Y-108981138D01*
G37*
G36*
X123217210Y-107376494D02*
G01*
X123217547Y-107429552D01*
X123217986Y-107504968D01*
X123218375Y-107578806D01*
X123218692Y-107646890D01*
X123218917Y-107705041D01*
X123219031Y-107749083D01*
X123219208Y-107872517D01*
X122392207Y-107874830D01*
X122388124Y-107874841D01*
X122266722Y-107875230D01*
X122150495Y-107875692D01*
X122040754Y-107876217D01*
X121938810Y-107876795D01*
X121845974Y-107877415D01*
X121763558Y-107878067D01*
X121692872Y-107878741D01*
X121635228Y-107879426D01*
X121591936Y-107880112D01*
X121564309Y-107880789D01*
X121553658Y-107881446D01*
X121551391Y-107884024D01*
X121548679Y-107894432D01*
X121546615Y-107914084D01*
X121545156Y-107944485D01*
X121544259Y-107987143D01*
X121543882Y-108043563D01*
X121543981Y-108115253D01*
X121544514Y-108203719D01*
X121546919Y-108521689D01*
X122017797Y-108521689D01*
X122488676Y-108521689D01*
X122491118Y-108290821D01*
X122493561Y-108059954D01*
X122854563Y-108059954D01*
X123215565Y-108059954D01*
X123215565Y-109129716D01*
X123215565Y-110199479D01*
X122854406Y-110199479D01*
X122493247Y-110199479D01*
X122493247Y-109737743D01*
X122493247Y-109276008D01*
X122440673Y-109274678D01*
X122426285Y-109274411D01*
X122390229Y-109274058D01*
X122343049Y-109273836D01*
X122289225Y-109273763D01*
X122233238Y-109273856D01*
X122078377Y-109274365D01*
X122004707Y-109387192D01*
X121993782Y-109403897D01*
X121967789Y-109443534D01*
X121934039Y-109494908D01*
X121894001Y-109555789D01*
X121849143Y-109623945D01*
X121800932Y-109697144D01*
X121750839Y-109773156D01*
X121700329Y-109849749D01*
X121469620Y-110199479D01*
X121030212Y-110199479D01*
X120590804Y-110199479D01*
X120601805Y-110178906D01*
X120608426Y-110167265D01*
X120627131Y-110136517D01*
X120655637Y-110091138D01*
X120693720Y-110031480D01*
X120741159Y-109957894D01*
X120744077Y-109953384D01*
X120780175Y-109897353D01*
X120818203Y-109837975D01*
X120855785Y-109778985D01*
X120890546Y-109724124D01*
X120920110Y-109677129D01*
X120942099Y-109641739D01*
X120956076Y-109619359D01*
X120978389Y-109584142D01*
X121006331Y-109540362D01*
X121037685Y-109491492D01*
X121070233Y-109441005D01*
X121074201Y-109434860D01*
X121103740Y-109388809D01*
X121129351Y-109348342D01*
X121149520Y-109315893D01*
X121162733Y-109293895D01*
X121167473Y-109284783D01*
X121160136Y-109279931D01*
X121139537Y-109272101D01*
X121110328Y-109263209D01*
X121083611Y-109254825D01*
X121046060Y-109240361D01*
X121016609Y-109226059D01*
X120981786Y-109201183D01*
X120939839Y-109162536D01*
X120898848Y-109117242D01*
X120863461Y-109070478D01*
X120838324Y-109027422D01*
X120811332Y-108969709D01*
X120810365Y-108205905D01*
X120809397Y-107442100D01*
X120831692Y-107392154D01*
X120858694Y-107341787D01*
X120896560Y-107286821D01*
X120939109Y-107236494D01*
X120981393Y-107197250D01*
X121004332Y-107181826D01*
X121043998Y-107160946D01*
X121083280Y-107145468D01*
X121091887Y-107142916D01*
X121101829Y-107140397D01*
X121113276Y-107138165D01*
X121127276Y-107136203D01*
X121144879Y-107134493D01*
X121167133Y-107133019D01*
X121195087Y-107131762D01*
X121229790Y-107130705D01*
X121272291Y-107129831D01*
X121323639Y-107129124D01*
X121384882Y-107128564D01*
X121457070Y-107128135D01*
X121541251Y-107127820D01*
X121638475Y-107127601D01*
X121749789Y-107127461D01*
X121876244Y-107127382D01*
X122018887Y-107127348D01*
X122178768Y-107127340D01*
X123215565Y-107127340D01*
X123217210Y-107376494D01*
G37*
%TD*%
M02*
