%TF.GenerationSoftware,KiCad,Pcbnew,10.0.4*%
%TF.CreationDate,2026-09-25T19:22:44+09:00*%
%TF.ProjectId,Oddom board,4f64646f-6d20-4626-9f61-72642e6b6963,rev?*%
%TF.SameCoordinates,Original*%
%TF.FileFunction,Copper,L4,Bot*%
%TF.FilePolarity,Positive*%
%FSLAX46Y46*%
G04 Gerber Fmt 4.6, Leading zero omitted, Abs format (unit mm)*
G04 Created by KiCad (PCBNEW 10.0.4) date 2026-09-25 19:22:44*
%MOMM*%
%LPD*%
G01*
G04 APERTURE LIST*
G04 Aperture macros list*
%AMRoundRect*
0 Rectangle with rounded corners*
0 $1 Rounding radius*
0 $2 $3 $4 $5 $6 $7 $8 $9 X,Y pos of 4 corners*
0 Add a 4 corners polygon primitive as box body*
4,1,4,$2,$3,$4,$5,$6,$7,$8,$9,$2,$3,0*
0 Add four circle primitives for the rounded corners*
1,1,$1+$1,$2,$3*
1,1,$1+$1,$4,$5*
1,1,$1+$1,$6,$7*
1,1,$1+$1,$8,$9*
0 Add four rect primitives between the rounded corners*
20,1,$1+$1,$2,$3,$4,$5,0*
20,1,$1+$1,$4,$5,$6,$7,0*
20,1,$1+$1,$6,$7,$8,$9,0*
20,1,$1+$1,$8,$9,$2,$3,0*%
G04 Aperture macros list end*
%TA.AperFunction,ComponentPad*%
%ADD10RoundRect,0.250000X-0.600000X-0.725000X0.600000X-0.725000X0.600000X0.725000X-0.600000X0.725000X0*%
%TD*%
%TA.AperFunction,ComponentPad*%
%ADD11O,1.700000X1.950000*%
%TD*%
%TA.AperFunction,ComponentPad*%
%ADD12RoundRect,0.250000X0.600000X0.725000X-0.600000X0.725000X-0.600000X-0.725000X0.600000X-0.725000X0*%
%TD*%
%TA.AperFunction,ComponentPad*%
%ADD13R,1.700000X1.700000*%
%TD*%
%TA.AperFunction,ComponentPad*%
%ADD14C,1.700000*%
%TD*%
%TA.AperFunction,ViaPad*%
%ADD15C,0.600000*%
%TD*%
%TA.AperFunction,Conductor*%
%ADD16C,0.200000*%
%TD*%
G04 APERTURE END LIST*
D10*
%TO.P,J4,1,Pin_1_1*%
%TO.N,Net-(D2-A2)*%
X96300000Y-87850000D03*
D11*
%TO.P,J4,2,Pin_2_2*%
%TO.N,PWR_5V*%
X98800000Y-87850000D03*
%TO.P,J4,3,Pin_3_3*%
%TO.N,Net-(D2-A1)*%
X101300000Y-87850000D03*
%TO.P,J4,4,Pin_4_4*%
%TO.N,GND*%
X103800000Y-87850000D03*
%TD*%
D10*
%TO.P,J6,1,Pin_1_1*%
%TO.N,Net-(D4-A2)*%
X70450000Y-87850000D03*
D11*
%TO.P,J6,2,Pin_2_2*%
%TO.N,PWR_5V*%
X72950000Y-87850000D03*
%TO.P,J6,3,Pin_3_3*%
%TO.N,Net-(D4-A1)*%
X75450000Y-87850000D03*
%TO.P,J6,4,Pin_4_4*%
%TO.N,GND*%
X77950000Y-87850000D03*
%TD*%
D12*
%TO.P,J7,1,Pin_1_1*%
%TO.N,PWR_3.3V*%
X129525000Y-112150000D03*
D11*
%TO.P,J7,2,Pin_2_2*%
%TO.N,GND*%
X127025000Y-112150000D03*
%TO.P,J7,3,Pin_3_3*%
%TO.N,Net-(J7-Pin_3)*%
X124525000Y-112150000D03*
%TO.P,J7,4,Pin_4_4*%
%TO.N,Net-(J7-Pin_4)*%
X122025000Y-112150000D03*
%TO.P,J7,5,Pin_5_5*%
%TO.N,Net-(J7-Pin_5)*%
X119525000Y-112150000D03*
%TO.P,J7,6,Pin_6_6*%
%TO.N,IMU_CS_N*%
X117025000Y-112150000D03*
%TO.P,J7,7,Pin_7_7*%
%TO.N,IMU_INT1*%
X114525000Y-112150000D03*
%TO.P,J7,8,Pin_8_8*%
%TO.N,IMU_INT2*%
X112025000Y-112150000D03*
%TD*%
D10*
%TO.P,J5,1,Pin_1_1*%
%TO.N,Net-(D3-A2)*%
X122050000Y-87850000D03*
D11*
%TO.P,J5,2,Pin_2_2*%
%TO.N,PWR_5V*%
X124550000Y-87850000D03*
%TO.P,J5,3,Pin_3_3*%
%TO.N,Net-(D3-A1)*%
X127050000Y-87850000D03*
%TO.P,J5,4,Pin_4_4*%
%TO.N,GND*%
X129550000Y-87850000D03*
%TD*%
D13*
%TO.P,J9,1,Pin_1_1*%
%TO.N,GND*%
X88985001Y-113225000D03*
D14*
%TO.P,J9,2,Pin_2_2*%
%TO.N,USART2_TX*%
X91525001Y-113225000D03*
%TO.P,J9,3,Pin_3_3*%
%TO.N,USART2_RX*%
X94065000Y-113225000D03*
%TD*%
D15*
%TO.N,GND*%
X92900000Y-102225000D03*
X84100000Y-106325000D03*
X96723008Y-102025000D03*
X106637501Y-113775000D03*
X124712500Y-93475000D03*
X86412500Y-85975000D03*
X98625000Y-97575000D03*
X94825000Y-105625000D03*
X81191637Y-103991637D03*
X73600000Y-105300000D03*
X72100000Y-107400000D03*
X93628249Y-93200000D03*
X77692500Y-101925000D03*
X103150000Y-102375000D03*
X130300000Y-94662501D03*
X70325000Y-110025000D03*
X100275000Y-111700000D03*
X69800000Y-106575000D03*
X94750000Y-96175000D03*
X76287500Y-92712500D03*
X113425000Y-101987501D03*
X90487500Y-85975000D03*
X113425000Y-107362500D03*
X92475000Y-111900000D03*
X109175000Y-89750000D03*
X114000000Y-88225000D03*
X97375000Y-106375001D03*
X113375000Y-98877500D03*
X90650000Y-108275000D03*
X91375000Y-91550000D03*
X104925000Y-108275000D03*
X80596751Y-93003249D03*
X82412500Y-85975000D03*
X121930001Y-101270000D03*
X102050000Y-104850001D03*
X78962500Y-106875000D03*
X77700000Y-99075000D03*
X69850000Y-94662501D03*
X87950000Y-107100000D03*
X85950001Y-89300000D03*
%TO.N,PWR_3.3V*%
X76087624Y-96408590D03*
X75152500Y-106875000D03*
X93526992Y-103251992D03*
X99075000Y-96250000D03*
X106675000Y-112299999D03*
X111024999Y-104735202D03*
X77738235Y-96438235D03*
X98370747Y-102354047D03*
X86817524Y-108766054D03*
X89500000Y-107100000D03*
X87849999Y-89300000D03*
X111675000Y-88175000D03*
X104725001Y-104735202D03*
%TO.N,Net-(U1-PC6)*%
X85725000Y-93600000D03*
X100945940Y-92550000D03*
%TO.N,Net-(U1-PC7)*%
X100448669Y-93176678D03*
X86166639Y-94289340D03*
%TO.N,Net-(U1-PC8)*%
X100019741Y-93851973D03*
X86725000Y-94889340D03*
%TO.N,PWR_5V*%
X76422500Y-101925000D03*
X104725000Y-106912500D03*
%TO.N,NRST*%
X92310202Y-104135202D03*
X119975000Y-97500000D03*
%TO.N,/AMT102_input/W1_A*%
X115599999Y-96075000D03*
X91288235Y-98986765D03*
%TO.N,/AMT102_input/W1_B*%
X107450000Y-97900000D03*
X91000000Y-98125000D03*
%TO.N,/AMT102_input1/W1_A*%
X90025000Y-95963423D03*
X121100000Y-94450000D03*
%TO.N,/AMT102_input1/W1_B*%
X121050000Y-92500000D03*
X89417161Y-95443292D03*
%TO.N,/CAN_interface/COMM_RX*%
X75152500Y-100000000D03*
X80575000Y-94575000D03*
%TO.N,/CAN_interface/COMM_TX*%
X82274355Y-96714913D03*
X78475000Y-100525000D03*
%TO.N,SWDIO*%
X110775000Y-100175000D03*
X87375000Y-98625000D03*
%TO.N,SWCLK*%
X83500000Y-97900000D03*
X117860000Y-101270000D03*
%TO.N,Net-(J7-Pin_5)*%
X107450000Y-99650000D03*
X85912911Y-97962089D03*
%TO.N,Net-(J7-Pin_3)*%
X85268671Y-99546627D03*
%TO.N,Net-(J7-Pin_4)*%
X106197870Y-109749542D03*
X85950000Y-99975000D03*
%TO.N,IMU_CS_N*%
X106225000Y-108950000D03*
X86700000Y-100575000D03*
%TO.N,SWO*%
X88527208Y-100625735D03*
X117860001Y-100000000D03*
%TO.N,/AMT102_input2/W1_A*%
X84450000Y-101875000D03*
X82075000Y-97950000D03*
%TD*%
%TO.N,PWR_3.3V*%
D16*
X104725001Y-104735202D02*
X111024999Y-104735202D01*
%TO.N,Net-(U1-PC6)*%
X100595940Y-92200000D02*
X100945940Y-92550000D01*
X85725000Y-93600000D02*
X87125000Y-92200000D01*
X87125000Y-92200000D02*
X100595940Y-92200000D01*
%TO.N,Net-(U1-PC7)*%
X86447936Y-94202064D02*
X88050000Y-92600000D01*
X88050000Y-92600000D02*
X99871991Y-92600000D01*
X86166639Y-94289340D02*
X86253915Y-94202064D01*
X86253915Y-94202064D02*
X86447936Y-94202064D01*
X99871991Y-92600000D02*
X100448669Y-93176678D01*
%TO.N,Net-(U1-PC8)*%
X100017768Y-93850000D02*
X100019741Y-93851973D01*
X88150000Y-93850000D02*
X100017768Y-93850000D01*
X86725000Y-94889340D02*
X87110660Y-94889340D01*
X87110660Y-94889340D02*
X88150000Y-93850000D01*
%TO.N,NRST*%
X118585202Y-104135202D02*
X92310202Y-104135202D01*
X119975000Y-97500000D02*
X119975000Y-102745404D01*
X119975000Y-102745404D02*
X118585202Y-104135202D01*
%TO.N,/AMT102_input/W1_A*%
X115599999Y-96075000D02*
X113647499Y-98027500D01*
X108175000Y-98725000D02*
X91550000Y-98725000D01*
X113647499Y-98027500D02*
X108872500Y-98027500D01*
X108872500Y-98027500D02*
X108175000Y-98725000D01*
X91550000Y-98725000D02*
X91288235Y-98986765D01*
%TO.N,/AMT102_input/W1_B*%
X107450000Y-97900000D02*
X107125000Y-98225000D01*
X107125000Y-98225000D02*
X91100000Y-98225000D01*
X91100000Y-98225000D02*
X91000000Y-98125000D01*
%TO.N,/AMT102_input1/W1_A*%
X121100000Y-94450000D02*
X120075000Y-95475000D01*
X90550000Y-95475000D02*
X90061577Y-95963423D01*
X120075000Y-95475000D02*
X90550000Y-95475000D01*
X90061577Y-95963423D02*
X90025000Y-95963423D01*
%TO.N,/AMT102_input1/W1_B*%
X120950000Y-92650000D02*
X118750000Y-94850000D01*
X89700000Y-95200000D02*
X89675000Y-95200000D01*
X118750000Y-94850000D02*
X90050000Y-94850000D01*
X90050000Y-94850000D02*
X89700000Y-95200000D01*
X89431708Y-95443292D02*
X89417161Y-95443292D01*
X120950000Y-92600000D02*
X120950000Y-92650000D01*
X89675000Y-95200000D02*
X89431708Y-95443292D01*
X121050000Y-92500000D02*
X120950000Y-92600000D01*
%TO.N,/CAN_interface/COMM_RX*%
X75152500Y-100000000D02*
X75152500Y-99872500D01*
X75152500Y-99872500D02*
X80450000Y-94575000D01*
X80450000Y-94575000D02*
X80575000Y-94575000D01*
%TO.N,/CAN_interface/COMM_TX*%
X78475000Y-100525000D02*
X80200000Y-98800000D01*
X80200000Y-98789268D02*
X82274355Y-96714913D01*
X80200000Y-98800000D02*
X80200000Y-98789268D01*
%TO.N,SWDIO*%
X87375000Y-98625000D02*
X89075000Y-100325000D01*
X89075000Y-100325000D02*
X110625000Y-100325000D01*
X110625000Y-100325000D02*
X110775000Y-100175000D01*
%TO.N,SWCLK*%
X117815735Y-101225735D02*
X88278679Y-101225735D01*
X88278679Y-101225735D02*
X84952944Y-97900000D01*
X84952944Y-97900000D02*
X83500000Y-97900000D01*
X117860000Y-101270000D02*
X117815735Y-101225735D01*
%TO.N,Net-(J7-Pin_5)*%
X88650000Y-97700000D02*
X90600000Y-99650000D01*
X90600000Y-99650000D02*
X107450000Y-99650000D01*
X85912911Y-97962089D02*
X86175000Y-97700000D01*
X86175000Y-97700000D02*
X88650000Y-97700000D01*
%TO.N,Net-(J7-Pin_3)*%
X85268671Y-99546627D02*
X85250000Y-99565298D01*
X124525000Y-112000000D02*
X124525000Y-112150000D01*
X123200000Y-110675000D02*
X124525000Y-112000000D01*
X87243630Y-110675000D02*
X123200000Y-110675000D01*
X85250000Y-108681370D02*
X87243630Y-110675000D01*
X85250000Y-99565298D02*
X85250000Y-108681370D01*
%TO.N,Net-(J7-Pin_4)*%
X106135104Y-109686776D02*
X106197870Y-109749542D01*
X85925000Y-108790685D02*
X86834315Y-109700000D01*
X86834315Y-109700000D02*
X105775000Y-109700000D01*
X85950000Y-99975000D02*
X85925000Y-100000000D01*
X105775000Y-109700000D02*
X105788224Y-109686776D01*
X85925000Y-100000000D02*
X85925000Y-108790685D01*
X105788224Y-109686776D02*
X106135104Y-109686776D01*
%TO.N,IMU_CS_N*%
X86700000Y-100575000D02*
X86700000Y-107800000D01*
X86700000Y-107800000D02*
X87775000Y-108875000D01*
X106150000Y-108875000D02*
X106225000Y-108950000D01*
X87775000Y-108875000D02*
X106150000Y-108875000D01*
%TO.N,SWO*%
X88477208Y-100675735D02*
X88527208Y-100625735D01*
X88523530Y-100775000D02*
X88477208Y-100728678D01*
X88477208Y-100728678D02*
X88477208Y-100675735D01*
X117860001Y-100000000D02*
X115100000Y-100000000D01*
X114325000Y-100775000D02*
X88523530Y-100775000D01*
X115100000Y-100000000D02*
X114325000Y-100775000D01*
%TO.N,/AMT102_input2/W1_A*%
X82075000Y-97950000D02*
X82075000Y-99500000D01*
X82075000Y-99500000D02*
X84450000Y-101875000D01*
%TD*%
M02*
