M48
; DRILL file KiCad 10.0.4 date 2026-09-25T19:22:45
; FORMAT={-:-/ absolute / metric / decimal}
; #@! TF.CreationDate,2026-09-25T19:22:45+09:00
; #@! TF.GenerationSoftware,Kicad,Pcbnew,10.0.4
; #@! TF.FileFunction,Plated,1,4,PTH
FMAT,2
METRIC
; #@! TA.AperFunction,Plated,PTH,ViaDrill
T1C0.300
; #@! TA.AperFunction,Plated,PTH,ComponentDrill
T2C0.950
; #@! TA.AperFunction,Plated,PTH,ComponentDrill
T3C1.000
%
G90
G05
T1
X69.8Y-106.575
X69.85Y-94.663
X70.325Y-110.025
X72.1Y-107.4
X73.6Y-105.3
X75.153Y-100.0
X75.153Y-106.875
X76.088Y-96.409
X76.287Y-92.712
X76.422Y-101.925
X77.692Y-101.925
X77.7Y-99.075
X77.738Y-96.438
X78.475Y-100.525
X78.962Y-106.875
X80.575Y-94.575
X80.597Y-93.003
X81.192Y-103.992
X82.075Y-97.95
X82.274Y-96.715
X82.412Y-85.975
X83.5Y-97.9
X84.1Y-106.325
X84.45Y-101.875
X85.269Y-99.547
X85.725Y-93.6
X85.913Y-97.962
X85.95Y-99.975
X85.95Y-89.3
X86.167Y-94.289
X86.412Y-85.975
X86.7Y-100.575
X86.725Y-94.889
X86.818Y-108.766
X87.375Y-98.625
X87.85Y-89.3
X87.95Y-107.1
X88.527Y-100.626
X89.417Y-95.443
X89.5Y-107.1
X90.025Y-95.963
X90.487Y-85.975
X90.65Y-108.275
X91.0Y-98.125
X91.288Y-98.987
X91.375Y-91.55
X92.31Y-104.135
X92.475Y-111.9
X92.9Y-102.225
X93.527Y-103.252
X93.628Y-93.2
X94.75Y-96.175
X94.825Y-105.625
X96.723Y-102.025
X97.375Y-106.375
X98.371Y-102.354
X98.625Y-97.575
X99.075Y-96.25
X100.02Y-93.852
X100.275Y-111.7
X100.449Y-93.177
X100.946Y-92.55
X102.05Y-104.85
X103.15Y-102.375
X104.725Y-106.912
X104.725Y-104.735
X104.925Y-108.275
X106.198Y-109.75
X106.225Y-108.95
X106.638Y-113.775
X106.675Y-112.3
X107.45Y-97.9
X107.45Y-99.65
X109.175Y-89.75
X110.775Y-100.175
X111.025Y-104.735
X111.675Y-88.175
X113.375Y-98.877
X113.425Y-101.988
X113.425Y-107.362
X114.0Y-88.225
X115.6Y-96.075
X117.86Y-101.27
X117.86Y-100.0
X119.975Y-97.5
X121.05Y-92.5
X121.1Y-94.45
X121.93Y-101.27
X124.712Y-93.475
X130.3Y-94.663
T2
X70.45Y-87.85
X72.95Y-87.85
X75.45Y-87.85
X77.95Y-87.85
X96.3Y-87.85
X98.8Y-87.85
X101.3Y-87.85
X103.8Y-87.85
X112.025Y-112.15
X114.525Y-112.15
X117.025Y-112.15
X119.525Y-112.15
X122.025Y-112.15
X122.05Y-87.85
X124.525Y-112.15
X124.55Y-87.85
X127.025Y-112.15
X127.05Y-87.85
X129.525Y-112.15
X129.55Y-87.85
T3
X88.985Y-113.225
X91.525Y-113.225
X94.065Y-113.225
M30
