%TF.GenerationSoftware,KiCad,Pcbnew,10.0.4*%
%TF.CreationDate,2026-09-25T19:22:44+09:00*%
%TF.ProjectId,Oddom board,4f64646f-6d20-4626-9f61-72642e6b6963,rev?*%
%TF.SameCoordinates,Original*%
%TF.FileFunction,Copper,L3,Inr*%
%TF.FilePolarity,Positive*%
%FSLAX46Y46*%
G04 Gerber Fmt 4.6, Leading zero omitted, Abs format (unit mm)*
G04 Created by KiCad (PCBNEW 10.0.4) date 2026-09-25 19:22:44*
%MOMM*%
%LPD*%
G01*
G04 APERTURE LIST*
G04 Aperture macros list*
%AMRoundRect*
0 Rectangle with rounded corners*
0 $1 Rounding radius*
0 $2 $3 $4 $5 $6 $7 $8 $9 X,Y pos of 4 corners*
0 Add a 4 corners polygon primitive as box body*
4,1,4,$2,$3,$4,$5,$6,$7,$8,$9,$2,$3,0*
0 Add four circle primitives for the rounded corners*
1,1,$1+$1,$2,$3*
1,1,$1+$1,$4,$5*
1,1,$1+$1,$6,$7*
1,1,$1+$1,$8,$9*
0 Add four rect primitives between the rounded corners*
20,1,$1+$1,$2,$3,$4,$5,0*
20,1,$1+$1,$4,$5,$6,$7,0*
20,1,$1+$1,$6,$7,$8,$9,0*
20,1,$1+$1,$8,$9,$2,$3,0*%
G04 Aperture macros list end*
%TA.AperFunction,ComponentPad*%
%ADD10RoundRect,0.250000X-0.600000X-0.725000X0.600000X-0.725000X0.600000X0.725000X-0.600000X0.725000X0*%
%TD*%
%TA.AperFunction,ComponentPad*%
%ADD11O,1.700000X1.950000*%
%TD*%
%TA.AperFunction,ComponentPad*%
%ADD12RoundRect,0.250000X0.600000X0.725000X-0.600000X0.725000X-0.600000X-0.725000X0.600000X-0.725000X0*%
%TD*%
%TA.AperFunction,ComponentPad*%
%ADD13R,1.700000X1.700000*%
%TD*%
%TA.AperFunction,ComponentPad*%
%ADD14C,1.700000*%
%TD*%
%TA.AperFunction,ViaPad*%
%ADD15C,0.600000*%
%TD*%
%TA.AperFunction,Conductor*%
%ADD16C,0.350000*%
%TD*%
%TA.AperFunction,Conductor*%
%ADD17C,0.300000*%
%TD*%
%TA.AperFunction,Conductor*%
%ADD18C,0.200000*%
%TD*%
G04 APERTURE END LIST*
D10*
%TO.N,Net-(D2-A2)*%
%TO.C,J4*%
X96300000Y-87850000D03*
D11*
%TO.N,PWR_5V*%
X98800000Y-87850000D03*
%TO.N,Net-(D2-A1)*%
X101300000Y-87850000D03*
%TO.N,GND*%
X103800000Y-87850000D03*
%TD*%
D10*
%TO.N,Net-(D4-A2)*%
%TO.C,J6*%
X70450000Y-87850000D03*
D11*
%TO.N,PWR_5V*%
X72950000Y-87850000D03*
%TO.N,Net-(D4-A1)*%
X75450000Y-87850000D03*
%TO.N,GND*%
X77950000Y-87850000D03*
%TD*%
D12*
%TO.N,PWR_3.3V*%
%TO.C,J7*%
X129525000Y-112150000D03*
D11*
%TO.N,GND*%
X127025000Y-112150000D03*
%TO.N,Net-(J7-Pin_3)*%
X124525000Y-112150000D03*
%TO.N,Net-(J7-Pin_4)*%
X122025000Y-112150000D03*
%TO.N,Net-(J7-Pin_5)*%
X119525000Y-112150000D03*
%TO.N,IMU_CS_N*%
X117025000Y-112150000D03*
%TO.N,IMU_INT1*%
X114525000Y-112150000D03*
%TO.N,IMU_INT2*%
X112025000Y-112150000D03*
%TD*%
D10*
%TO.N,Net-(D3-A2)*%
%TO.C,J5*%
X122050000Y-87850000D03*
D11*
%TO.N,PWR_5V*%
X124550000Y-87850000D03*
%TO.N,Net-(D3-A1)*%
X127050000Y-87850000D03*
%TO.N,GND*%
X129550000Y-87850000D03*
%TD*%
D13*
%TO.N,GND*%
%TO.C,J9*%
X88985001Y-113225000D03*
D14*
%TO.N,USART2_TX*%
X91525001Y-113225000D03*
%TO.N,USART2_RX*%
X94065000Y-113225000D03*
%TD*%
D15*
%TO.N,GND*%
X92900000Y-102225000D03*
X84100000Y-106325000D03*
X96723008Y-102025000D03*
X106637501Y-113775000D03*
X124712500Y-93475000D03*
X86412500Y-85975000D03*
X98625000Y-97575000D03*
X94825000Y-105625000D03*
X81191637Y-103991637D03*
X73600000Y-105300000D03*
X72100000Y-107400000D03*
X93628249Y-93200000D03*
X77692500Y-101925000D03*
X103150000Y-102375000D03*
X130300000Y-94662501D03*
X70325000Y-110025000D03*
X100275000Y-111700000D03*
X69800000Y-106575000D03*
X94750000Y-96175000D03*
X76287500Y-92712500D03*
X113425000Y-101987501D03*
X90487500Y-85975000D03*
X113425000Y-107362500D03*
X92475000Y-111900000D03*
X109175000Y-89750000D03*
X114000000Y-88225000D03*
X97375000Y-106375001D03*
X113375000Y-98877500D03*
X90650000Y-108275000D03*
X91375000Y-91550000D03*
X104925000Y-108275000D03*
X80596751Y-93003249D03*
X82412500Y-85975000D03*
X121930001Y-101270000D03*
X102050000Y-104850001D03*
X78962500Y-106875000D03*
X77700000Y-99075000D03*
X69850000Y-94662501D03*
X87950000Y-107100000D03*
X85950001Y-89300000D03*
%TO.N,PWR_3.3V*%
X76087624Y-96408590D03*
X75152500Y-106875000D03*
X93526992Y-103251992D03*
X99075000Y-96250000D03*
X106675000Y-112299999D03*
X111024999Y-104735202D03*
X77738235Y-96438235D03*
X98370747Y-102354047D03*
X86817524Y-108766054D03*
X89500000Y-107100000D03*
X87849999Y-89300000D03*
X111675000Y-88175000D03*
X104725001Y-104735202D03*
%TO.N,Net-(U1-PC6)*%
X85725000Y-93600000D03*
X100945940Y-92550000D03*
%TO.N,Net-(U1-PC7)*%
X100448669Y-93176678D03*
X86166639Y-94289340D03*
%TO.N,Net-(U1-PC8)*%
X100019741Y-93851973D03*
X86725000Y-94889340D03*
%TO.N,PWR_5V*%
X76422500Y-101925000D03*
X104725000Y-106912500D03*
%TO.N,NRST*%
X92310202Y-104135202D03*
X119975000Y-97500000D03*
%TO.N,/AMT102_input/W1_A*%
X115599999Y-96075000D03*
X91288235Y-98986765D03*
%TO.N,/AMT102_input/W1_B*%
X107450000Y-97900000D03*
X91000000Y-98125000D03*
%TO.N,/AMT102_input1/W1_A*%
X90025000Y-95963423D03*
X121100000Y-94450000D03*
%TO.N,/AMT102_input1/W1_B*%
X121050000Y-92500000D03*
X89417161Y-95443292D03*
%TO.N,/CAN_interface/COMM_RX*%
X75152500Y-100000000D03*
X80575000Y-94575000D03*
%TO.N,/CAN_interface/COMM_TX*%
X82274355Y-96714913D03*
X78475000Y-100525000D03*
%TO.N,SWDIO*%
X110775000Y-100175000D03*
X87375000Y-98625000D03*
%TO.N,SWCLK*%
X83500000Y-97900000D03*
X117860000Y-101270000D03*
%TO.N,Net-(J7-Pin_5)*%
X107450000Y-99650000D03*
X85912911Y-97962089D03*
%TO.N,Net-(J7-Pin_3)*%
X85268671Y-99546627D03*
%TO.N,Net-(J7-Pin_4)*%
X106197870Y-109749542D03*
X85950000Y-99975000D03*
%TO.N,IMU_CS_N*%
X106225000Y-108950000D03*
X86700000Y-100575000D03*
%TO.N,SWO*%
X88527208Y-100625735D03*
X117860001Y-100000000D03*
%TO.N,/AMT102_input2/W1_A*%
X84450000Y-101875000D03*
X82075000Y-97950000D03*
%TD*%
%TO.N,PWR_3.3V*%
D16*
X88691422Y-108708578D02*
X86875000Y-108708578D01*
X93526992Y-103251992D02*
X94078984Y-102700000D01*
D17*
X91250000Y-89300000D02*
X98200000Y-96250000D01*
D18*
X75152500Y-106875000D02*
X75165000Y-106862500D01*
D16*
X94700000Y-102700000D02*
X98716700Y-102700000D01*
X89500000Y-107900000D02*
X88691422Y-108708578D01*
X92564798Y-104810202D02*
X92589797Y-104810202D01*
X86875000Y-108708578D02*
X86817524Y-108766054D01*
D18*
X105574999Y-112299999D02*
X102850000Y-109575000D01*
D16*
X111024999Y-104735202D02*
X109475000Y-103185203D01*
D18*
X102850000Y-106610203D02*
X104725001Y-104735202D01*
D16*
X90300000Y-107100000D02*
X89500000Y-107900000D01*
X89500000Y-107100000D02*
X89500000Y-107900000D01*
D18*
X77587500Y-106862500D02*
X77600000Y-106875000D01*
D16*
X103985202Y-104735202D02*
X101950000Y-102700000D01*
D18*
X98099794Y-102625000D02*
X98370747Y-102354047D01*
D16*
X79508578Y-108708578D02*
X86760048Y-108708578D01*
D18*
X98099794Y-102625000D02*
X98174794Y-102700000D01*
D16*
X92589797Y-104810202D02*
X92985202Y-104414797D01*
D17*
X87849999Y-89300000D02*
X91250000Y-89300000D01*
D16*
X109850000Y-90000000D02*
X111675000Y-88175000D01*
X89500000Y-107100000D02*
X90300000Y-107100000D01*
X86760048Y-108708578D02*
X86817524Y-108766054D01*
X92985202Y-104414797D02*
X92985202Y-104389798D01*
D17*
X98200000Y-96250000D02*
X99075000Y-96250000D01*
D16*
X99075000Y-96250000D02*
X102350000Y-99525000D01*
X90300000Y-107075000D02*
X92564798Y-104810202D01*
X74477500Y-103677500D02*
X79508578Y-108708578D01*
X77738235Y-96438235D02*
X77726470Y-96450000D01*
D18*
X102350000Y-103100000D02*
X103985202Y-104735202D01*
X106675000Y-112299999D02*
X105574999Y-112299999D01*
D16*
X94675000Y-102700000D02*
X94700000Y-102700000D01*
X101950000Y-102700000D02*
X98716700Y-102700000D01*
X109850000Y-90029595D02*
X109850000Y-90000000D01*
X74477500Y-97622500D02*
X74477500Y-103677500D01*
X77726470Y-96450000D02*
X75650000Y-96450000D01*
X94078984Y-102700000D02*
X94700000Y-102700000D01*
X92985202Y-104389798D02*
X94675000Y-102700000D01*
X102350000Y-99525000D02*
X102350000Y-103100000D01*
X90300000Y-107100000D02*
X90300000Y-107075000D01*
D18*
X98174794Y-102700000D02*
X98716700Y-102700000D01*
D16*
X109475000Y-103185203D02*
X109475000Y-90404595D01*
D18*
X102850000Y-109575000D02*
X102850000Y-106610203D01*
X75165000Y-106862500D02*
X77587500Y-106862500D01*
D16*
X75650000Y-96450000D02*
X74477500Y-97622500D01*
X109475000Y-90404595D02*
X109850000Y-90029595D01*
D18*
X98370747Y-102354047D02*
X98716700Y-102700000D01*
D16*
X104725001Y-104735202D02*
X103985202Y-104735202D01*
%TO.N,PWR_5V*%
X102100000Y-90800000D02*
X99150000Y-87850000D01*
X86525000Y-90775000D02*
X75650000Y-90775000D01*
X99150000Y-87850000D02*
X98800000Y-87850000D01*
X103925000Y-90800000D02*
X108875000Y-85850000D01*
X95434190Y-86500000D02*
X97450000Y-86500000D01*
X77979595Y-99750000D02*
X78375000Y-99354595D01*
X78375000Y-99354595D02*
X78375000Y-99350000D01*
X86775000Y-90775000D02*
X86525000Y-90775000D01*
X104762500Y-106912500D02*
X104725000Y-106912500D01*
X75650000Y-90775000D02*
X75650000Y-90550000D01*
X76422500Y-101925000D02*
X76422500Y-101302500D01*
X77975000Y-99750000D02*
X77979595Y-99750000D01*
X95284190Y-86650000D02*
X95434190Y-86500000D01*
X106475000Y-93350000D02*
X106475000Y-105200000D01*
X106475000Y-105200000D02*
X104762500Y-106912500D01*
X102100000Y-90800000D02*
X103925000Y-90800000D01*
X89545404Y-86650000D02*
X95284190Y-86650000D01*
X86850000Y-90875000D02*
X86875000Y-90875000D01*
X122550000Y-85850000D02*
X124550000Y-87850000D01*
X86775000Y-89420404D02*
X89545404Y-86650000D01*
X75650000Y-90550000D02*
X72950000Y-87850000D01*
X76422500Y-101302500D02*
X77975000Y-99750000D01*
X86775000Y-90775000D02*
X86775000Y-89420404D01*
X108875000Y-85850000D02*
X122550000Y-85850000D01*
X86875000Y-90875000D02*
X86775000Y-90775000D01*
X97450000Y-86500000D02*
X98800000Y-87850000D01*
X103925000Y-90800000D02*
X106475000Y-93350000D01*
X78375000Y-99350000D02*
X86850000Y-90875000D01*
%TD*%
M02*
