%TF.GenerationSoftware,KiCad,Pcbnew,10.0.4*%
%TF.CreationDate,2026-09-25T19:22:44+09:00*%
%TF.ProjectId,Oddom board,4f64646f-6d20-4626-9f61-72642e6b6963,rev?*%
%TF.SameCoordinates,Original*%
%TF.FileFunction,Copper,L1,Top*%
%TF.FilePolarity,Positive*%
%FSLAX46Y46*%
G04 Gerber Fmt 4.6, Leading zero omitted, Abs format (unit mm)*
G04 Created by KiCad (PCBNEW 10.0.4) date 2026-09-25 19:22:44*
%MOMM*%
%LPD*%
G01*
G04 APERTURE LIST*
G04 Aperture macros list*
%AMRoundRect*
0 Rectangle with rounded corners*
0 $1 Rounding radius*
0 $2 $3 $4 $5 $6 $7 $8 $9 X,Y pos of 4 corners*
0 Add a 4 corners polygon primitive as box body*
4,1,4,$2,$3,$4,$5,$6,$7,$8,$9,$2,$3,0*
0 Add four circle primitives for the rounded corners*
1,1,$1+$1,$2,$3*
1,1,$1+$1,$4,$5*
1,1,$1+$1,$6,$7*
1,1,$1+$1,$8,$9*
0 Add four rect primitives between the rounded corners*
20,1,$1+$1,$2,$3,$4,$5,0*
20,1,$1+$1,$4,$5,$6,$7,0*
20,1,$1+$1,$6,$7,$8,$9,0*
20,1,$1+$1,$8,$9,$2,$3,0*%
G04 Aperture macros list end*
%TA.AperFunction,SMDPad,CuDef*%
%ADD10RoundRect,0.200000X-0.200000X-0.275000X0.200000X-0.275000X0.200000X0.275000X-0.200000X0.275000X0*%
%TD*%
%TA.AperFunction,SMDPad,CuDef*%
%ADD11RoundRect,0.200000X-0.335876X-0.053033X-0.053033X-0.335876X0.335876X0.053033X0.053033X0.335876X0*%
%TD*%
%TA.AperFunction,SMDPad,CuDef*%
%ADD12RoundRect,0.225000X0.225000X0.250000X-0.225000X0.250000X-0.225000X-0.250000X0.225000X-0.250000X0*%
%TD*%
%TA.AperFunction,SMDPad,CuDef*%
%ADD13RoundRect,0.250000X-0.500000X-0.300000X0.500000X-0.300000X0.500000X0.300000X-0.500000X0.300000X0*%
%TD*%
%TA.AperFunction,SMDPad,CuDef*%
%ADD14R,0.600000X1.700000*%
%TD*%
%TA.AperFunction,SMDPad,CuDef*%
%ADD15R,1.000000X2.800000*%
%TD*%
%TA.AperFunction,ComponentPad*%
%ADD16RoundRect,0.250000X-0.600000X-0.725000X0.600000X-0.725000X0.600000X0.725000X-0.600000X0.725000X0*%
%TD*%
%TA.AperFunction,ComponentPad*%
%ADD17O,1.700000X1.950000*%
%TD*%
%TA.AperFunction,SMDPad,CuDef*%
%ADD18RoundRect,0.075000X0.548008X-0.441942X-0.441942X0.548008X-0.548008X0.441942X0.441942X-0.548008X0*%
%TD*%
%TA.AperFunction,SMDPad,CuDef*%
%ADD19RoundRect,0.075000X0.548008X0.441942X0.441942X0.548008X-0.548008X-0.441942X-0.441942X-0.548008X0*%
%TD*%
%TA.AperFunction,SMDPad,CuDef*%
%ADD20RoundRect,0.200000X-0.275000X0.200000X-0.275000X-0.200000X0.275000X-0.200000X0.275000X0.200000X0*%
%TD*%
%TA.AperFunction,SMDPad,CuDef*%
%ADD21RoundRect,0.200000X0.200000X0.275000X-0.200000X0.275000X-0.200000X-0.275000X0.200000X-0.275000X0*%
%TD*%
%TA.AperFunction,SMDPad,CuDef*%
%ADD22RoundRect,0.150000X-0.150000X0.825000X-0.150000X-0.825000X0.150000X-0.825000X0.150000X0.825000X0*%
%TD*%
%TA.AperFunction,SMDPad,CuDef*%
%ADD23RoundRect,0.218750X-0.218750X-0.256250X0.218750X-0.256250X0.218750X0.256250X-0.218750X0.256250X0*%
%TD*%
%TA.AperFunction,SMDPad,CuDef*%
%ADD24RoundRect,0.225000X-0.250000X0.225000X-0.250000X-0.225000X0.250000X-0.225000X0.250000X0.225000X0*%
%TD*%
%TA.AperFunction,SMDPad,CuDef*%
%ADD25RoundRect,0.250000X0.475000X-0.250000X0.475000X0.250000X-0.475000X0.250000X-0.475000X-0.250000X0*%
%TD*%
%TA.AperFunction,SMDPad,CuDef*%
%ADD26RoundRect,0.225000X-0.225000X-0.250000X0.225000X-0.250000X0.225000X0.250000X-0.225000X0.250000X0*%
%TD*%
%TA.AperFunction,SMDPad,CuDef*%
%ADD27RoundRect,0.250000X0.159099X-0.512652X0.512652X-0.159099X-0.159099X0.512652X-0.512652X0.159099X0*%
%TD*%
%TA.AperFunction,SMDPad,CuDef*%
%ADD28RoundRect,0.150000X-0.150000X0.512500X-0.150000X-0.512500X0.150000X-0.512500X0.150000X0.512500X0*%
%TD*%
%TA.AperFunction,SMDPad,CuDef*%
%ADD29RoundRect,0.225000X-0.335876X-0.017678X-0.017678X-0.335876X0.335876X0.017678X0.017678X0.335876X0*%
%TD*%
%TA.AperFunction,SMDPad,CuDef*%
%ADD30RoundRect,0.150000X-0.150000X-0.700000X0.150000X-0.700000X0.150000X0.700000X-0.150000X0.700000X0*%
%TD*%
%TA.AperFunction,SMDPad,CuDef*%
%ADD31RoundRect,0.250000X-0.250000X-1.100000X0.250000X-1.100000X0.250000X1.100000X-0.250000X1.100000X0*%
%TD*%
%TA.AperFunction,SMDPad,CuDef*%
%ADD32RoundRect,0.225000X0.250000X-0.225000X0.250000X0.225000X-0.250000X0.225000X-0.250000X-0.225000X0*%
%TD*%
%TA.AperFunction,ComponentPad*%
%ADD33RoundRect,0.250000X0.600000X0.725000X-0.600000X0.725000X-0.600000X-0.725000X0.600000X-0.725000X0*%
%TD*%
%TA.AperFunction,SMDPad,CuDef*%
%ADD34RoundRect,0.250000X-0.512652X-0.159099X-0.159099X-0.512652X0.512652X0.159099X0.159099X0.512652X0*%
%TD*%
%TA.AperFunction,SMDPad,CuDef*%
%ADD35RoundRect,0.150000X-0.150000X0.587500X-0.150000X-0.587500X0.150000X-0.587500X0.150000X0.587500X0*%
%TD*%
%TA.AperFunction,SMDPad,CuDef*%
%ADD36RoundRect,0.087500X0.087500X-0.425000X0.087500X0.425000X-0.087500X0.425000X-0.087500X-0.425000X0*%
%TD*%
%TA.AperFunction,SMDPad,CuDef*%
%ADD37RoundRect,0.250000X0.450000X0.350000X-0.450000X0.350000X-0.450000X-0.350000X0.450000X-0.350000X0*%
%TD*%
%TA.AperFunction,SMDPad,CuDef*%
%ADD38RoundRect,0.250000X0.250000X0.475000X-0.250000X0.475000X-0.250000X-0.475000X0.250000X-0.475000X0*%
%TD*%
%TA.AperFunction,SMDPad,CuDef*%
%ADD39RoundRect,0.225000X0.017678X-0.335876X0.335876X-0.017678X-0.017678X0.335876X-0.335876X0.017678X0*%
%TD*%
%TA.AperFunction,SMDPad,CuDef*%
%ADD40RoundRect,0.218750X0.335876X0.026517X0.026517X0.335876X-0.335876X-0.026517X-0.026517X-0.335876X0*%
%TD*%
%TA.AperFunction,SMDPad,CuDef*%
%ADD41RoundRect,0.375000X-0.625000X-0.375000X0.625000X-0.375000X0.625000X0.375000X-0.625000X0.375000X0*%
%TD*%
%TA.AperFunction,SMDPad,CuDef*%
%ADD42RoundRect,0.500000X-0.500000X-1.400000X0.500000X-1.400000X0.500000X1.400000X-0.500000X1.400000X0*%
%TD*%
%TA.AperFunction,SMDPad,CuDef*%
%ADD43RoundRect,0.218750X0.218750X0.256250X-0.218750X0.256250X-0.218750X-0.256250X0.218750X-0.256250X0*%
%TD*%
%TA.AperFunction,SMDPad,CuDef*%
%ADD44RoundRect,0.150000X0.512500X0.150000X-0.512500X0.150000X-0.512500X-0.150000X0.512500X-0.150000X0*%
%TD*%
%TA.AperFunction,ComponentPad*%
%ADD45R,1.700000X1.700000*%
%TD*%
%TA.AperFunction,ComponentPad*%
%ADD46C,1.700000*%
%TD*%
%TA.AperFunction,SMDPad,CuDef*%
%ADD47R,1.200000X2.500000*%
%TD*%
%TA.AperFunction,SMDPad,CuDef*%
%ADD48R,2.790000X0.740000*%
%TD*%
%TA.AperFunction,SMDPad,CuDef*%
%ADD49RoundRect,0.150000X0.150000X-0.512500X0.150000X0.512500X-0.150000X0.512500X-0.150000X-0.512500X0*%
%TD*%
%TA.AperFunction,ViaPad*%
%ADD50C,0.600000*%
%TD*%
%TA.AperFunction,Conductor*%
%ADD51C,0.200000*%
%TD*%
%TA.AperFunction,Conductor*%
%ADD52C,0.300000*%
%TD*%
%TA.AperFunction,Conductor*%
%ADD53C,0.350000*%
%TD*%
%TA.AperFunction,Conductor*%
%ADD54C,0.450000*%
%TD*%
%TA.AperFunction,Conductor*%
%ADD55C,0.400000*%
%TD*%
%TA.AperFunction,Conductor*%
%ADD56C,0.500000*%
%TD*%
G04 APERTURE END LIST*
D10*
%TO.P,R22,1*%
%TO.N,ERR*%
X86375000Y-87430000D03*
%TO.P,R22,2*%
%TO.N,Net-(D10-A)*%
X88025000Y-87430000D03*
%TD*%
D11*
%TO.P,R4,1*%
%TO.N,GND*%
X81191637Y-103991637D03*
%TO.P,R4,2*%
%TO.N,/BOOT0*%
X82358363Y-105158363D03*
%TD*%
D12*
%TO.P,C19,1*%
%TO.N,PWR_3.3V*%
X73625000Y-107375000D03*
%TO.P,C19,2*%
%TO.N,GND*%
X72075000Y-107375000D03*
%TD*%
D13*
%TO.P,SW3,1*%
%TO.N,Net-(U1-PC6)*%
X104475000Y-93797500D03*
%TO.P,SW3,2*%
%TO.N,Net-(U1-PC7)*%
X104475000Y-96337500D03*
%TO.P,SW3,3*%
%TO.N,Net-(U1-PC8)*%
X104475000Y-98877500D03*
%TO.P,SW3,4*%
%TO.N,GND*%
X113375000Y-98877500D03*
%TO.P,SW3,5*%
X113375000Y-96337500D03*
%TO.P,SW3,6*%
X113375000Y-93797500D03*
%TD*%
D14*
%TO.P,J8,1,1_1*%
%TO.N,Net-(D1-IO_1)*%
X72825000Y-110025000D03*
%TO.P,J8,2,2_2*%
%TO.N,Net-(D1-IO_2)*%
X71575000Y-110025000D03*
%TO.P,J8,3,3_3*%
%TO.N,GND*%
X70325000Y-110025000D03*
D15*
%TO.P,J8,4,MP1_4*%
%TO.N,unconnected-(J8-MP1-Pad4)*%
X74675000Y-113375000D03*
%TO.P,J8,5,MP2_5*%
%TO.N,unconnected-(J8-MP2-Pad5)*%
X68475000Y-113375000D03*
%TD*%
D16*
%TO.P,J4,1,Pin_1_1*%
%TO.N,Net-(D2-A2)*%
X96300000Y-87850000D03*
D17*
%TO.P,J4,2,Pin_2_2*%
%TO.N,PWR_5V*%
X98800000Y-87850000D03*
%TO.P,J4,3,Pin_3_3*%
%TO.N,Net-(D2-A1)*%
X101300000Y-87850000D03*
%TO.P,J4,4,Pin_4_4*%
%TO.N,GND*%
X103800000Y-87850000D03*
%TD*%
D18*
%TO.P,U1,1,VBAT_1*%
%TO.N,PWR_3.3V*%
X88236181Y-104939481D03*
%TO.P,U1,2,PC13_2*%
%TO.N,unconnected-(U1-PC13-Pad2)*%
X88589734Y-104585928D03*
%TO.P,U1,3,PC14_3*%
%TO.N,unconnected-(U1-PC14-Pad3)*%
X88943287Y-104232375D03*
%TO.P,U1,4,PC15_4*%
%TO.N,unconnected-(U1-PC15-Pad4)*%
X89296841Y-103878821D03*
%TO.P,U1,5,PH0_5*%
%TO.N,Net-(U1-PH0)*%
X89650394Y-103525268D03*
%TO.P,U1,6,PH1_6*%
%TO.N,Net-(U1-PH1)*%
X90003948Y-103171714D03*
%TO.P,U1,7,NRST_7*%
%TO.N,NRST*%
X90357501Y-102818161D03*
%TO.P,U1,8,PC0_8*%
%TO.N,unconnected-(U1-PC0-Pad8)*%
X90711054Y-102464608D03*
%TO.P,U1,9,PC1_9*%
%TO.N,unconnected-(U1-PC1-Pad9)*%
X91064608Y-102111054D03*
%TO.P,U1,10,PC2_10*%
%TO.N,unconnected-(U1-PC2-Pad10)*%
X91418161Y-101757501D03*
%TO.P,U1,11,PC3_11*%
%TO.N,unconnected-(U1-PC3-Pad11)*%
X91771714Y-101403948D03*
%TO.P,U1,12,VSSA_12*%
%TO.N,GND*%
X92125268Y-101050394D03*
%TO.P,U1,13,VDDA_13*%
%TO.N,Net-(U1-VDDA)*%
X92478821Y-100696841D03*
%TO.P,U1,14,PA0_14*%
%TO.N,/AMT102_input/W1_A*%
X92832375Y-100343287D03*
%TO.P,U1,15,PA1_15*%
%TO.N,/AMT102_input/W1_B*%
X93185928Y-99989734D03*
%TO.P,U1,16,PA2_16*%
%TO.N,USART2_TX*%
X93539481Y-99636181D03*
D19*
%TO.P,U1,17,PA3_17*%
%TO.N,USART2_RX*%
X93539481Y-96913819D03*
%TO.P,U1,18,VSS_18*%
%TO.N,GND*%
X93185928Y-96560266D03*
%TO.P,U1,19,VDD_19*%
%TO.N,PWR_3.3V*%
X92832375Y-96206713D03*
%TO.P,U1,20,PA4_20*%
%TO.N,unconnected-(U1-PA4-Pad20)*%
X92478821Y-95853159D03*
%TO.P,U1,21,PA5_21*%
%TO.N,RUN*%
X92125268Y-95499606D03*
%TO.P,U1,22,PA6_22*%
%TO.N,/AMT102_input1/W1_A*%
X91771714Y-95146052D03*
%TO.P,U1,23,PA7_23*%
%TO.N,/AMT102_input1/W1_B*%
X91418161Y-94792499D03*
%TO.P,U1,24,PC4_24*%
%TO.N,IMU_INT1*%
X91064608Y-94438946D03*
%TO.P,U1,25,PC5_25*%
%TO.N,IMU_INT2*%
X90711054Y-94085392D03*
%TO.P,U1,26,PB0_26*%
%TO.N,unconnected-(U1-PB0-Pad26)*%
X90357501Y-93731839D03*
%TO.P,U1,27,PB1_27*%
%TO.N,unconnected-(U1-PB1-Pad27)*%
X90003948Y-93378286D03*
%TO.P,U1,28,PB2_28*%
%TO.N,unconnected-(U1-PB2-Pad28)*%
X89650394Y-93024732D03*
%TO.P,U1,29,PB10_29*%
%TO.N,COMM*%
X89296841Y-92671179D03*
%TO.P,U1,30,PB11_30*%
%TO.N,ERR*%
X88943287Y-92317625D03*
%TO.P,U1,31,VCAP_1_31*%
%TO.N,Net-(U1-VCAP_1)*%
X88589734Y-91964072D03*
%TO.P,U1,32,VDD_32*%
%TO.N,PWR_3.3V*%
X88236181Y-91610519D03*
D18*
%TO.P,U1,33,PB12_33*%
%TO.N,unconnected-(U1-PB12-Pad33)*%
X85513819Y-91610519D03*
%TO.P,U1,34,PB13_34*%
%TO.N,unconnected-(U1-PB13-Pad34)*%
X85160266Y-91964072D03*
%TO.P,U1,35,PB14_35*%
%TO.N,unconnected-(U1-PB14-Pad35)*%
X84806713Y-92317625D03*
%TO.P,U1,36,PB15_36*%
%TO.N,unconnected-(U1-PB15-Pad36)*%
X84453159Y-92671179D03*
%TO.P,U1,37,PC6_37*%
%TO.N,Net-(U1-PC6)*%
X84099606Y-93024732D03*
%TO.P,U1,38,PC7_38*%
%TO.N,Net-(U1-PC7)*%
X83746052Y-93378286D03*
%TO.P,U1,39,PC8_39*%
%TO.N,Net-(U1-PC8)*%
X83392499Y-93731839D03*
%TO.P,U1,40,PC9_40*%
%TO.N,unconnected-(U1-PC9-Pad40)*%
X83038946Y-94085392D03*
%TO.P,U1,41,PA8_41*%
%TO.N,unconnected-(U1-PA8-Pad41)*%
X82685392Y-94438946D03*
%TO.P,U1,42,PA9_42*%
%TO.N,unconnected-(U1-PA9-Pad42)*%
X82331839Y-94792499D03*
%TO.P,U1,43,PA10_43*%
%TO.N,unconnected-(U1-PA10-Pad43)*%
X81978286Y-95146052D03*
%TO.P,U1,44,PA11_44*%
%TO.N,/CAN_interface/COMM_RX*%
X81624732Y-95499606D03*
%TO.P,U1,45,PA12_45*%
%TO.N,/CAN_interface/COMM_TX*%
X81271179Y-95853159D03*
%TO.P,U1,46,PA13_46*%
%TO.N,SWDIO*%
X80917625Y-96206713D03*
%TO.P,U1,47,VCAP_2_47*%
%TO.N,Net-(U1-VCAP_2)*%
X80564072Y-96560266D03*
%TO.P,U1,48,VDD_48*%
%TO.N,PWR_3.3V*%
X80210519Y-96913819D03*
D19*
%TO.P,U1,49,PA14_49*%
%TO.N,SWCLK*%
X80210519Y-99636181D03*
%TO.P,U1,50,PA15_50*%
%TO.N,unconnected-(U1-PA15-Pad50)*%
X80564072Y-99989734D03*
%TO.P,U1,51,PC10_51*%
%TO.N,Net-(J7-Pin_5)*%
X80917625Y-100343287D03*
%TO.P,U1,52,PC11_52*%
%TO.N,Net-(J7-Pin_3)*%
X81271179Y-100696841D03*
%TO.P,U1,53,PC12_53*%
%TO.N,Net-(J7-Pin_4)*%
X81624732Y-101050394D03*
%TO.P,U1,54,PD2_54*%
%TO.N,IMU_CS_N*%
X81978286Y-101403948D03*
%TO.P,U1,55,PB3_55*%
%TO.N,SWO*%
X82331839Y-101757501D03*
%TO.P,U1,56,PB4_56*%
%TO.N,unconnected-(U1-PB4-Pad56)*%
X82685392Y-102111054D03*
%TO.P,U1,57,PB5_57*%
%TO.N,unconnected-(U1-PB5-Pad57)*%
X83038946Y-102464608D03*
%TO.P,U1,58,PB6_58*%
%TO.N,/AMT102_input2/W1_A*%
X83392499Y-102818161D03*
%TO.P,U1,59,PB7_59*%
%TO.N,/AMT102_input2/W1_B*%
X83746052Y-103171714D03*
%TO.P,U1,60,BOOT0_60*%
%TO.N,/BOOT0*%
X84099606Y-103525268D03*
%TO.P,U1,61,PB8_61*%
%TO.N,unconnected-(U1-PB8-Pad61)*%
X84453159Y-103878821D03*
%TO.P,U1,62,PB9_62*%
%TO.N,unconnected-(U1-PB9-Pad62)*%
X84806713Y-104232375D03*
%TO.P,U1,63,VSS_63*%
%TO.N,GND*%
X85160266Y-104585928D03*
%TO.P,U1,64,VDD_64*%
%TO.N,PWR_3.3V*%
X85513819Y-104939481D03*
%TD*%
D20*
%TO.P,R5,1*%
%TO.N,Net-(D2-A1)*%
X110575000Y-89400000D03*
%TO.P,R5,2*%
%TO.N,Net-(R5-Pad2)*%
X110575000Y-91050000D03*
%TD*%
D21*
%TO.P,R7,1*%
%TO.N,Net-(D3-A1)*%
X127950000Y-94475000D03*
%TO.P,R7,2*%
%TO.N,Net-(R7-Pad2)*%
X126300000Y-94475000D03*
%TD*%
D20*
%TO.P,R2,1*%
%TO.N,Net-(D2-A2)*%
X107725000Y-89325000D03*
%TO.P,R2,2*%
%TO.N,Net-(R2-Pad2)*%
X107725000Y-90975000D03*
%TD*%
D22*
%TO.P,U4,1,TXD_1*%
%TO.N,/CAN_interface/COMM_TX*%
X78962500Y-101925000D03*
%TO.P,U4,2,GND_2*%
%TO.N,GND*%
X77692500Y-101925000D03*
%TO.P,U4,3,VCC_3*%
%TO.N,PWR_5V*%
X76422500Y-101925000D03*
%TO.P,U4,4,RXD_4*%
%TO.N,/CAN_interface/COMM_RX*%
X75152500Y-101925000D03*
%TO.P,U4,5,VIO_5*%
%TO.N,PWR_3.3V*%
X75152500Y-106875000D03*
%TO.P,U4,6,CANL_6*%
%TO.N,Net-(D1-IO_2)*%
X76422500Y-106875000D03*
%TO.P,U4,7,CANH_7*%
%TO.N,Net-(D1-IO_1)*%
X77692500Y-106875000D03*
%TO.P,U4,8,S_8*%
%TO.N,GND*%
X78962500Y-106875000D03*
%TD*%
D23*
%TO.P,D9,1,K_1*%
%TO.N,GND*%
X90487500Y-85975000D03*
%TO.P,D9,2,A_2*%
%TO.N,Net-(D9-A)*%
X92062500Y-85975000D03*
%TD*%
D24*
%TO.P,C18,1*%
%TO.N,PWR_5V*%
X73600000Y-103725000D03*
%TO.P,C18,2*%
%TO.N,GND*%
X73600000Y-105275000D03*
%TD*%
D25*
%TO.P,C1,1*%
%TO.N,Net-(J1-Pin_1)*%
X97375000Y-108274999D03*
%TO.P,C1,2*%
%TO.N,GND*%
X97375000Y-106375001D03*
%TD*%
D26*
%TO.P,C2,1*%
%TO.N,PWR_5V*%
X102175000Y-108950000D03*
%TO.P,C2,2*%
%TO.N,GND*%
X103725000Y-108950000D03*
%TD*%
D27*
%TO.P,C21,1*%
%TO.N,Net-(U1-VCAP_2)*%
X79253249Y-94346751D03*
%TO.P,C21,2*%
%TO.N,GND*%
X80596751Y-93003249D03*
%TD*%
D28*
%TO.P,U9,1*%
%TO.N,Net-(R8-Pad2)*%
X77237499Y-92712500D03*
%TO.P,U9,2,GND_2*%
%TO.N,GND*%
X76287500Y-92712500D03*
%TO.P,U9,3*%
%TO.N,Net-(R9-Pad2)*%
X75337501Y-92712500D03*
%TO.P,U9,4*%
%TO.N,/AMT102_input2/W1_B*%
X75337501Y-94987500D03*
%TO.P,U9,5,VCC_5*%
%TO.N,PWR_3.3V*%
X76287500Y-94987500D03*
%TO.P,U9,6*%
%TO.N,/AMT102_input2/W1_A*%
X77237499Y-94987500D03*
%TD*%
D21*
%TO.P,R19,1*%
%TO.N,PWR_3.3V*%
X106675000Y-112299999D03*
%TO.P,R19,2*%
%TO.N,Net-(D6-A)*%
X105025000Y-112299999D03*
%TD*%
D29*
%TO.P,C22,1*%
%TO.N,NRST*%
X92476992Y-104301992D03*
%TO.P,C22,2*%
%TO.N,GND*%
X93573008Y-105398008D03*
%TD*%
D16*
%TO.P,J6,1,Pin_1_1*%
%TO.N,Net-(D4-A2)*%
X70450000Y-87850000D03*
D17*
%TO.P,J6,2,Pin_2_2*%
%TO.N,PWR_5V*%
X72950000Y-87850000D03*
%TO.P,J6,3,Pin_3_3*%
%TO.N,Net-(D4-A1)*%
X75450000Y-87850000D03*
%TO.P,J6,4,Pin_4_4*%
%TO.N,GND*%
X77950000Y-87850000D03*
%TD*%
D30*
%TO.P,J1,1,Pin_1_1*%
%TO.N,Net-(J1-Pin_1)*%
X99375000Y-109950000D03*
%TO.P,J1,2,Pin_2_2*%
%TO.N,GND*%
X100625000Y-109950000D03*
D31*
%TO.P,J1,MP*%
%TO.N,N/C*%
X97525000Y-113150000D03*
X102475000Y-113150000D03*
%TD*%
D32*
%TO.P,C28,1*%
%TO.N,GND*%
X97600000Y-97700000D03*
%TO.P,C28,2*%
%TO.N,PWR_3.3V*%
X97600000Y-96150000D03*
%TD*%
D24*
%TO.P,C13,1*%
%TO.N,PWR_3.3V*%
X96125000Y-96150000D03*
%TO.P,C13,2*%
%TO.N,GND*%
X96125000Y-97700000D03*
%TD*%
D33*
%TO.P,J7,1,Pin_1_1*%
%TO.N,PWR_3.3V*%
X129525000Y-112150000D03*
D17*
%TO.P,J7,2,Pin_2_2*%
%TO.N,GND*%
X127025000Y-112150000D03*
%TO.P,J7,3,Pin_3_3*%
%TO.N,Net-(J7-Pin_3)*%
X124525000Y-112150000D03*
%TO.P,J7,4,Pin_4_4*%
%TO.N,Net-(J7-Pin_4)*%
X122025000Y-112150000D03*
%TO.P,J7,5,Pin_5_5*%
%TO.N,Net-(J7-Pin_5)*%
X119525000Y-112150000D03*
%TO.P,J7,6,Pin_6_6*%
%TO.N,IMU_CS_N*%
X117025000Y-112150000D03*
%TO.P,J7,7,Pin_7_7*%
%TO.N,IMU_INT1*%
X114525000Y-112150000D03*
%TO.P,J7,8,Pin_8_8*%
%TO.N,IMU_INT2*%
X112025000Y-112150000D03*
%TD*%
D29*
%TO.P,C11,1*%
%TO.N,PWR_3.3V*%
X93526992Y-103251992D03*
%TO.P,C11,2*%
%TO.N,GND*%
X94623008Y-104348008D03*
%TD*%
D34*
%TO.P,C20,1*%
%TO.N,Net-(U1-VCAP_1)*%
X90053249Y-90053249D03*
%TO.P,C20,2*%
%TO.N,GND*%
X91396751Y-91396751D03*
%TD*%
D16*
%TO.P,J5,1,Pin_1_1*%
%TO.N,Net-(D3-A2)*%
X122050000Y-87850000D03*
D17*
%TO.P,J5,2,Pin_2_2*%
%TO.N,PWR_5V*%
X124550000Y-87850000D03*
%TO.P,J5,3,Pin_3_3*%
%TO.N,Net-(D3-A1)*%
X127050000Y-87850000D03*
%TO.P,J5,4,Pin_4_4*%
%TO.N,GND*%
X129550000Y-87850000D03*
%TD*%
D35*
%TO.P,D4,1,A1_1*%
%TO.N,Net-(D4-A1)*%
X70800000Y-92787500D03*
%TO.P,D4,2,A2_2*%
%TO.N,Net-(D4-A2)*%
X68900000Y-92787500D03*
%TO.P,D4,3,common_3*%
%TO.N,GND*%
X69850000Y-94662501D03*
%TD*%
D36*
%TO.P,U5,1,VIN_1*%
%TO.N,Net-(J1-Pin_1)*%
X98900001Y-107812500D03*
%TO.P,U5,2,GND_2*%
%TO.N,GND*%
X99550000Y-107812500D03*
%TO.P,U5,3,~{CE}_3*%
%TO.N,PWR_5V*%
X100199999Y-107812500D03*
%TO.P,U5,4,N/C_4*%
%TO.N,unconnected-(U5-N{slash}C-Pad4)*%
X100199999Y-106137500D03*
%TO.P,U5,5,ST_5*%
%TO.N,unconnected-(U5-ST-Pad5)*%
X99550000Y-106137500D03*
%TO.P,U5,6,VOUT_6*%
%TO.N,PWR_5V*%
X98900001Y-106137500D03*
%TD*%
D25*
%TO.P,C3,1*%
%TO.N,PWR_5V*%
X102050000Y-106749999D03*
%TO.P,C3,2*%
%TO.N,GND*%
X102050000Y-104850001D03*
%TD*%
D37*
%TO.P,Y1,1,1_1*%
%TO.N,Net-(C6-Pad1)*%
X92850000Y-108825000D03*
%TO.P,Y1,2,G_2*%
%TO.N,GND*%
X90650000Y-108825000D03*
%TO.P,Y1,3,3_3*%
%TO.N,Net-(U1-PH0)*%
X90650000Y-110525000D03*
%TO.P,Y1,4,G_4*%
%TO.N,GND*%
X92850000Y-110525000D03*
%TD*%
D23*
%TO.P,D10,1,K_1*%
%TO.N,GND*%
X86412500Y-85975000D03*
%TO.P,D10,2,A_2*%
%TO.N,Net-(D10-A)*%
X87987500Y-85975000D03*
%TD*%
D38*
%TO.P,C27,1*%
%TO.N,PWR_3.3V*%
X87849999Y-89300000D03*
%TO.P,C27,2*%
%TO.N,GND*%
X85950001Y-89300000D03*
%TD*%
D25*
%TO.P,C5,1*%
%TO.N,PWR_3.3V*%
X113425000Y-103887499D03*
%TO.P,C5,2*%
%TO.N,GND*%
X113425000Y-101987501D03*
%TD*%
D10*
%TO.P,R1,1*%
%TO.N,Net-(D1-IO_1)*%
X81275000Y-107325000D03*
%TO.P,R1,2*%
%TO.N,Net-(SW1-COM)*%
X82925000Y-107325000D03*
%TD*%
%TO.P,R9,1*%
%TO.N,Net-(D4-A1)*%
X72225000Y-92537500D03*
%TO.P,R9,2*%
%TO.N,Net-(R9-Pad2)*%
X73875000Y-92537500D03*
%TD*%
D39*
%TO.P,C16,1*%
%TO.N,Net-(U1-VDDA)*%
X95626992Y-103298008D03*
%TO.P,C16,2*%
%TO.N,GND*%
X96723008Y-102201992D03*
%TD*%
D24*
%TO.P,C8,1*%
%TO.N,PWR_3.3V*%
X77775000Y-97500000D03*
%TO.P,C8,2*%
%TO.N,GND*%
X77775000Y-99050000D03*
%TD*%
D40*
%TO.P,FB1,1*%
%TO.N,Net-(U1-VDDA)*%
X97781847Y-101206847D03*
%TO.P,FB1,2*%
%TO.N,PWR_3.3V*%
X96668153Y-100093153D03*
%TD*%
D24*
%TO.P,C6,1*%
%TO.N,Net-(C6-Pad1)*%
X94625000Y-108925000D03*
%TO.P,C6,2*%
%TO.N,GND*%
X94625000Y-110475000D03*
%TD*%
D41*
%TO.P,U2,1,GND_1*%
%TO.N,GND*%
X104725000Y-102312500D03*
%TO.P,U2,2,VO_2*%
%TO.N,PWR_3.3V*%
X104725001Y-104612500D03*
D42*
X111024999Y-104612500D03*
D41*
%TO.P,U2,3,VI_3*%
%TO.N,PWR_5V*%
X104725000Y-106912500D03*
%TD*%
D12*
%TO.P,C12,1*%
%TO.N,PWR_3.3V*%
X86400000Y-107350000D03*
%TO.P,C12,2*%
%TO.N,GND*%
X84850000Y-107350000D03*
%TD*%
D43*
%TO.P,D6,1,K_1*%
%TO.N,GND*%
X106637501Y-113775000D03*
%TO.P,D6,2,A_2*%
%TO.N,Net-(D6-A)*%
X105062499Y-113775000D03*
%TD*%
D21*
%TO.P,R6,1*%
%TO.N,Net-(D3-A2)*%
X127950000Y-92500000D03*
%TO.P,R6,2*%
%TO.N,Net-(R6-Pad2)*%
X126300000Y-92500000D03*
%TD*%
D24*
%TO.P,C4,1*%
%TO.N,PWR_3.3V*%
X113425000Y-105812500D03*
%TO.P,C4,2*%
%TO.N,GND*%
X113425000Y-107362500D03*
%TD*%
D10*
%TO.P,R8,1*%
%TO.N,Net-(D4-A2)*%
X72225000Y-94487500D03*
%TO.P,R8,2*%
%TO.N,Net-(R8-Pad2)*%
X73875000Y-94487500D03*
%TD*%
D32*
%TO.P,C7,1*%
%TO.N,Net-(U1-PH0)*%
X88875000Y-110425000D03*
%TO.P,C7,2*%
%TO.N,GND*%
X88875000Y-108875000D03*
%TD*%
D44*
%TO.P,U7,1*%
%TO.N,Net-(R6-Pad2)*%
X124712500Y-94424999D03*
%TO.P,U7,2,GND_2*%
%TO.N,GND*%
X124712500Y-93475000D03*
%TO.P,U7,3*%
%TO.N,Net-(R7-Pad2)*%
X124712500Y-92525001D03*
%TO.P,U7,4*%
%TO.N,/AMT102_input1/W1_B*%
X122437500Y-92525001D03*
%TO.P,U7,5,VCC_5*%
%TO.N,PWR_3.3V*%
X122437500Y-93475000D03*
%TO.P,U7,6*%
%TO.N,/AMT102_input1/W1_A*%
X122437500Y-94424999D03*
%TD*%
D45*
%TO.P,J9,1,Pin_1_1*%
%TO.N,GND*%
X88985001Y-113225000D03*
D46*
%TO.P,J9,2,Pin_2_2*%
%TO.N,USART2_TX*%
X91525001Y-113225000D03*
%TO.P,J9,3,Pin_3_3*%
%TO.N,USART2_RX*%
X94065000Y-113225000D03*
%TD*%
D35*
%TO.P,D2,1,A1_1*%
%TO.N,Net-(D2-A1)*%
X110100000Y-86712500D03*
%TO.P,D2,2,A2_2*%
%TO.N,Net-(D2-A2)*%
X108200000Y-86712500D03*
%TO.P,D2,3,common_3*%
%TO.N,GND*%
X109150000Y-88587501D03*
%TD*%
D47*
%TO.P,SW1,1,N.C._1*%
%TO.N,unconnected-(SW1-N.C.-Pad1)*%
X79225000Y-110400000D03*
%TO.P,SW1,2,COM_2*%
%TO.N,Net-(SW1-COM)*%
X81725000Y-110400000D03*
%TO.P,SW1,3,N.O._3*%
%TO.N,Net-(D1-IO_2)*%
X84225000Y-110400000D03*
%TD*%
D10*
%TO.P,R21,1*%
%TO.N,COMM*%
X90450000Y-87445000D03*
%TO.P,R21,2*%
%TO.N,Net-(D9-A)*%
X92100000Y-87445000D03*
%TD*%
D35*
%TO.P,D1,1,IO_1_1*%
%TO.N,Net-(D1-IO_1)*%
X70750000Y-104712500D03*
%TO.P,D1,2,IO_2_2*%
%TO.N,Net-(D1-IO_2)*%
X68850000Y-104712500D03*
%TO.P,D1,3,GND_3*%
%TO.N,GND*%
X69800000Y-106587501D03*
%TD*%
D34*
%TO.P,C10,1*%
%TO.N,GND*%
X93628249Y-93128249D03*
%TO.P,C10,2*%
%TO.N,PWR_3.3V*%
X94971751Y-94471751D03*
%TD*%
D10*
%TO.P,R20,1*%
%TO.N,RUN*%
X82375000Y-87450000D03*
%TO.P,R20,2*%
%TO.N,Net-(D8-A)*%
X84025000Y-87450000D03*
%TD*%
D39*
%TO.P,C14,1*%
%TO.N,Net-(U1-VDDA)*%
X94576992Y-102248008D03*
%TO.P,C14,2*%
%TO.N,GND*%
X95673008Y-101151992D03*
%TD*%
D12*
%TO.P,C9,1*%
%TO.N,PWR_3.3V*%
X89500000Y-107100000D03*
%TO.P,C9,2*%
%TO.N,GND*%
X87950000Y-107100000D03*
%TD*%
D11*
%TO.P,R3,1*%
%TO.N,Net-(U1-PH1)*%
X91391637Y-105291637D03*
%TO.P,R3,2*%
%TO.N,Net-(C6-Pad1)*%
X92558363Y-106458363D03*
%TD*%
D35*
%TO.P,D3,1,A1_1*%
%TO.N,Net-(D3-A1)*%
X131250000Y-92787500D03*
%TO.P,D3,2,A2_2*%
%TO.N,Net-(D3-A2)*%
X129350000Y-92787500D03*
%TO.P,D3,3,common_3*%
%TO.N,GND*%
X130300000Y-94662501D03*
%TD*%
D23*
%TO.P,D8,1,K_1*%
%TO.N,GND*%
X82412500Y-85975000D03*
%TO.P,D8,2,A_2*%
%TO.N,Net-(D8-A)*%
X83987500Y-85975000D03*
%TD*%
D48*
%TO.P,J3,1,1_1*%
%TO.N,PWR_3.3V*%
X121930000Y-102540000D03*
%TO.P,J3,2,2_2*%
%TO.N,SWDIO*%
X117860000Y-102540000D03*
%TO.P,J3,3,3_3*%
%TO.N,GND*%
X121930001Y-101270000D03*
%TO.P,J3,4,4_4*%
%TO.N,SWCLK*%
X117860000Y-101270000D03*
%TO.P,J3,5,5_5*%
%TO.N,GND*%
X121930000Y-100000000D03*
%TO.P,J3,6,6_6*%
%TO.N,SWO*%
X117860001Y-100000000D03*
%TO.P,J3,7,7_7*%
%TO.N,unconnected-(J3-Pad7)*%
X121930001Y-98730000D03*
%TO.P,J3,8,8_8*%
%TO.N,unconnected-(J3-Pad8)*%
X117860000Y-98730000D03*
%TO.P,J3,9,9_9*%
%TO.N,GND*%
X121930000Y-97460000D03*
%TO.P,J3,10,10_10*%
%TO.N,NRST*%
X117860000Y-97460000D03*
%TD*%
D49*
%TO.P,U3,1*%
%TO.N,Net-(R2-Pad2)*%
X112700001Y-89287500D03*
%TO.P,U3,2,GND_2*%
%TO.N,GND*%
X113650000Y-89287500D03*
%TO.P,U3,3*%
%TO.N,Net-(R5-Pad2)*%
X114599999Y-89287500D03*
%TO.P,U3,4*%
%TO.N,/AMT102_input/W1_B*%
X114599999Y-87012500D03*
%TO.P,U3,5,VCC_5*%
%TO.N,PWR_3.3V*%
X113650000Y-87012500D03*
%TO.P,U3,6*%
%TO.N,/AMT102_input/W1_A*%
X112700001Y-87012500D03*
%TD*%
D50*
%TO.N,GND*%
X92900000Y-102225000D03*
X84100000Y-106325000D03*
X96723008Y-102025000D03*
X106637501Y-113775000D03*
X124712500Y-93475000D03*
X86412500Y-85975000D03*
X98625000Y-97575000D03*
X94825000Y-105625000D03*
X81191637Y-103991637D03*
X73600000Y-105300000D03*
X72100000Y-107400000D03*
X93628249Y-93200000D03*
X77692500Y-101925000D03*
X103150000Y-102375000D03*
X130300000Y-94662501D03*
X70325000Y-110025000D03*
X100275000Y-111700000D03*
X69800000Y-106575000D03*
X94750000Y-96175000D03*
X76287500Y-92712500D03*
X113425000Y-101987501D03*
X90487500Y-85975000D03*
X113425000Y-107362500D03*
X92475000Y-111900000D03*
X109175000Y-89750000D03*
X114000000Y-88225000D03*
X97375000Y-106375001D03*
X113375000Y-98877500D03*
X90650000Y-108275000D03*
X91375000Y-91550000D03*
X104925000Y-108275000D03*
X80596751Y-93003249D03*
X82412500Y-85975000D03*
X121930001Y-101270000D03*
X102050000Y-104850001D03*
X78962500Y-106875000D03*
X77700000Y-99075000D03*
X69850000Y-94662501D03*
X87950000Y-107100000D03*
X85950001Y-89300000D03*
%TO.N,PWR_3.3V*%
X76087624Y-96408590D03*
X75152500Y-106875000D03*
X93526992Y-103251992D03*
X99075000Y-96250000D03*
X106675000Y-112299999D03*
X111024999Y-104735202D03*
X77738235Y-96438235D03*
X98370747Y-102354047D03*
X86817524Y-108766054D03*
X89500000Y-107100000D03*
X87849999Y-89300000D03*
X111675000Y-88175000D03*
X104725001Y-104735202D03*
%TO.N,Net-(U1-PC6)*%
X85725000Y-93600000D03*
X100945940Y-92550000D03*
%TO.N,Net-(U1-PC7)*%
X100448669Y-93176678D03*
X86166639Y-94289340D03*
%TO.N,Net-(U1-PC8)*%
X100019741Y-93851973D03*
X86725000Y-94889340D03*
%TO.N,PWR_5V*%
X76422500Y-101925000D03*
X104725000Y-106912500D03*
%TO.N,NRST*%
X92310202Y-104135202D03*
X119975000Y-97500000D03*
%TO.N,/AMT102_input/W1_A*%
X115599999Y-96075000D03*
X91288235Y-98986765D03*
%TO.N,/AMT102_input/W1_B*%
X107450000Y-97900000D03*
X91000000Y-98125000D03*
%TO.N,/AMT102_input1/W1_A*%
X90025000Y-95963423D03*
X121100000Y-94450000D03*
%TO.N,/AMT102_input1/W1_B*%
X121050000Y-92500000D03*
X89417161Y-95443292D03*
%TO.N,/CAN_interface/COMM_RX*%
X75152500Y-100000000D03*
X80575000Y-94575000D03*
%TO.N,/CAN_interface/COMM_TX*%
X82274355Y-96714913D03*
X78475000Y-100525000D03*
%TO.N,SWDIO*%
X110775000Y-100175000D03*
X87375000Y-98625000D03*
%TO.N,SWCLK*%
X83500000Y-97900000D03*
X117860000Y-101270000D03*
%TO.N,Net-(J7-Pin_5)*%
X107450000Y-99650000D03*
X85912911Y-97962089D03*
%TO.N,Net-(J7-Pin_3)*%
X85268671Y-99546627D03*
%TO.N,Net-(J7-Pin_4)*%
X106197870Y-109749542D03*
X85950000Y-99975000D03*
%TO.N,IMU_CS_N*%
X106225000Y-108950000D03*
X86700000Y-100575000D03*
%TO.N,SWO*%
X88527208Y-100625735D03*
X117860001Y-100000000D03*
%TO.N,/AMT102_input2/W1_A*%
X84450000Y-101875000D03*
X82075000Y-97950000D03*
%TD*%
%TO.N,ERR*%
D51*
X87993931Y-92888549D02*
X88372363Y-92888549D01*
X87050000Y-91944618D02*
X87993931Y-92888549D01*
X86375000Y-87430000D02*
X87050000Y-88105000D01*
X88372363Y-92888549D02*
X88943287Y-92317625D01*
X87050000Y-88105000D02*
X87050000Y-91944618D01*
%TO.N,Net-(D10-A)*%
X87987500Y-85975000D02*
X87987500Y-87392500D01*
X87787500Y-87517500D02*
X87825000Y-87555000D01*
%TO.N,GND*%
X94825000Y-105625000D02*
X93800000Y-105625000D01*
X88925000Y-108825000D02*
X88875000Y-108875000D01*
X92900000Y-101825126D02*
X92900000Y-102225000D01*
X84850000Y-107350000D02*
X84850000Y-107075000D01*
D52*
X100625000Y-109950000D02*
X100625000Y-111350000D01*
D51*
X90650000Y-108825000D02*
X88925000Y-108825000D01*
X109150000Y-89725000D02*
X109175000Y-89750000D01*
X113650000Y-88575000D02*
X114000000Y-88225000D01*
X91396751Y-91396751D02*
X91396751Y-91528249D01*
X104250000Y-108950000D02*
X104925000Y-108275000D01*
X109150000Y-88587501D02*
X109150000Y-89725000D01*
X103212500Y-102312500D02*
X103150000Y-102375000D01*
X92125268Y-101050394D02*
X92900000Y-101825126D01*
X93800000Y-105625000D02*
X93573008Y-105398008D01*
X72075000Y-107375000D02*
X72100000Y-107400000D01*
X88875000Y-108875000D02*
X88875000Y-108025000D01*
X96723008Y-102025000D02*
X95951992Y-101253984D01*
X90650000Y-108275000D02*
X90650000Y-108825000D01*
X121900000Y-100030000D02*
X121900000Y-101239999D01*
X98500000Y-97700000D02*
X98625000Y-97575000D01*
X95775000Y-101253984D02*
X95673008Y-101151992D01*
X93756852Y-95989342D02*
X94564342Y-95989342D01*
X123825000Y-99200001D02*
X123025001Y-100000000D01*
X100625000Y-109299999D02*
X99550000Y-108224999D01*
X94825000Y-104550000D02*
X94825000Y-105625000D01*
X124712500Y-93475000D02*
X125187500Y-93475000D01*
X92850000Y-111525000D02*
X92475000Y-111900000D01*
X121900000Y-101239999D02*
X121930001Y-101270000D01*
X84850000Y-107075000D02*
X84100000Y-106325000D01*
X103725000Y-108950000D02*
X104250000Y-108950000D01*
X125187500Y-93475000D02*
X125212500Y-93450000D01*
X123025001Y-97460000D02*
X123825000Y-98259999D01*
X73600000Y-105275000D02*
X73600000Y-105300000D01*
D52*
X100625000Y-111350000D02*
X100275000Y-111700000D01*
D51*
X92850000Y-110525000D02*
X92850000Y-111525000D01*
X121930000Y-100000000D02*
X121900000Y-100030000D01*
X69800000Y-106587501D02*
X69800000Y-106575000D01*
X94575000Y-110525000D02*
X94625000Y-110475000D01*
X85160266Y-104585928D02*
X84100000Y-105646194D01*
X96125000Y-97700000D02*
X97600000Y-97700000D01*
X91396751Y-91528249D02*
X91375000Y-91550000D01*
X93628249Y-93200000D02*
X93628249Y-93128249D01*
D52*
X100625000Y-109950000D02*
X100625000Y-109299999D01*
D51*
X113650000Y-89287500D02*
X113650000Y-88575000D01*
X121930000Y-97460000D02*
X123025001Y-97460000D01*
X123025001Y-100000000D02*
X121930000Y-100000000D01*
X92850000Y-110525000D02*
X94575000Y-110525000D01*
X96723008Y-102025000D02*
X96723008Y-102201992D01*
X95951992Y-101253984D02*
X95775000Y-101253984D01*
X88875000Y-108025000D02*
X87950000Y-107100000D01*
X113375000Y-98877500D02*
X113375000Y-93797500D01*
X104725000Y-102312500D02*
X103212500Y-102312500D01*
X84100000Y-105646194D02*
X84100000Y-106325000D01*
X97600000Y-97700000D02*
X98500000Y-97700000D01*
X94623008Y-104348008D02*
X94825000Y-104550000D01*
X93185928Y-96560266D02*
X93756852Y-95989342D01*
X77725000Y-99050000D02*
X77700000Y-99075000D01*
X77775000Y-99050000D02*
X77725000Y-99050000D01*
X99550000Y-108224999D02*
X99550000Y-107812500D01*
X123825000Y-98259999D02*
X123825000Y-99200001D01*
X94564342Y-95989342D02*
X94750000Y-96175000D01*
%TO.N,/BOOT0*%
X82441511Y-105158363D02*
X84124606Y-103475268D01*
X82333363Y-105208363D02*
X82416511Y-105208363D01*
%TO.N,PWR_3.3V*%
D53*
X113425000Y-105812500D02*
X118657500Y-105812500D01*
D51*
X121930000Y-102540000D02*
X123683529Y-102540000D01*
X123683529Y-102540000D02*
X124650000Y-101573529D01*
X89500000Y-106132592D02*
X88321204Y-104953796D01*
D53*
X118657500Y-105812500D02*
X125443997Y-105812500D01*
D54*
X111024999Y-104612500D02*
X112699999Y-104612500D01*
D53*
X129525000Y-109893503D02*
X129525000Y-112150000D01*
D54*
X113425000Y-105337501D02*
X112699999Y-104612500D01*
D51*
X121062500Y-93450000D02*
X122937500Y-93450000D01*
X97600000Y-96150000D02*
X96125000Y-96150000D01*
X113425000Y-105812500D02*
X113425000Y-105337501D01*
D53*
X111024999Y-104735202D02*
X111024999Y-104612500D01*
D51*
X96668153Y-100093153D02*
X97764169Y-100093153D01*
X113650000Y-87674999D02*
X113149999Y-88175000D01*
X73825000Y-107375000D02*
X74652500Y-107375000D01*
X94567337Y-94471751D02*
X92832375Y-96206713D01*
X87849999Y-89300000D02*
X87849999Y-91224337D01*
X124650000Y-97815000D02*
X123110000Y-96275000D01*
D54*
X112699999Y-104612500D02*
X113425000Y-103887499D01*
D51*
X113650000Y-87012500D02*
X113650000Y-87674999D01*
X86400000Y-108417156D02*
X86400000Y-107350000D01*
X97764169Y-100093153D02*
X98640758Y-100969742D01*
X123110000Y-96275000D02*
X121475000Y-96275000D01*
X86817524Y-108766054D02*
X86748898Y-108766054D01*
D54*
X113425000Y-103887499D02*
X113425000Y-105812500D01*
D51*
X74652500Y-107375000D02*
X75152500Y-106875000D01*
X96125000Y-95625000D02*
X96125000Y-96150000D01*
X97600000Y-96150000D02*
X98975000Y-96150000D01*
X76287500Y-96208714D02*
X76087624Y-96408590D01*
X89500000Y-107100000D02*
X89500000Y-106132592D01*
X87849999Y-91224337D02*
X88236181Y-91610519D01*
X121475000Y-96275000D02*
X120500000Y-95300000D01*
X77850000Y-97575000D02*
X77875000Y-97550000D01*
X77875000Y-97550000D02*
X79574338Y-97550000D01*
X104725001Y-104735202D02*
X104725001Y-104612500D01*
D53*
X121930000Y-102540000D02*
X118657500Y-105812500D01*
X125443997Y-105812500D02*
X129525000Y-109893503D01*
D51*
X94971751Y-94471751D02*
X94567337Y-94471751D01*
D53*
X77738235Y-97463235D02*
X77775000Y-97500000D01*
D51*
X113149999Y-88175000D02*
X111675000Y-88175000D01*
X86748898Y-108766054D02*
X86400000Y-108417156D01*
X76287500Y-94987500D02*
X76287500Y-96208714D01*
X79574338Y-97550000D02*
X80210519Y-96913819D01*
X120500000Y-94012500D02*
X121062500Y-93450000D01*
X98975000Y-96150000D02*
X99075000Y-96250000D01*
X124650000Y-101573529D02*
X124650000Y-97815000D01*
X86400000Y-107350000D02*
X86400000Y-105825662D01*
X86400000Y-105825662D02*
X85513819Y-104939481D01*
X98640758Y-100969742D02*
X98640758Y-102084036D01*
X120500000Y-95300000D02*
X120500000Y-94012500D01*
X98640758Y-102084036D02*
X98370747Y-102354047D01*
D53*
X77738235Y-96438235D02*
X77738235Y-97463235D01*
D54*
X111024999Y-104612500D02*
X111024999Y-104324999D01*
D53*
X120835001Y-102540000D02*
X121930000Y-102540000D01*
D51*
X94971751Y-94471751D02*
X96125000Y-95625000D01*
%TO.N,Net-(U1-PC6)*%
X85625000Y-93725000D02*
X84799874Y-93725000D01*
X101623477Y-93225507D02*
X103903007Y-93225507D01*
X100945940Y-92550000D02*
X100947970Y-92550000D01*
X100947970Y-92550000D02*
X101623477Y-93225507D01*
X103903007Y-93225507D02*
X104475000Y-93797500D01*
X85725000Y-93625000D02*
X85625000Y-93725000D01*
X84799874Y-93725000D02*
X84099606Y-93024732D01*
X85725000Y-93600000D02*
X85725000Y-93625000D01*
%TO.N,Net-(U1-PC7)*%
X100448669Y-93176678D02*
X100876678Y-93176678D01*
X86077299Y-94200000D02*
X84497058Y-94200000D01*
X100876678Y-93176678D02*
X104037500Y-96337500D01*
X86166639Y-94289340D02*
X86077299Y-94200000D01*
X104037500Y-96337500D02*
X104475000Y-96337500D01*
X84497058Y-94200000D02*
X84236029Y-93938971D01*
%TO.N,Net-(U1-PC8)*%
X104475000Y-97925000D02*
X104475000Y-98877500D01*
X100019741Y-93851973D02*
X100401973Y-93851973D01*
X86725000Y-94889340D02*
X84550000Y-94889340D01*
X100401973Y-93851973D02*
X104475000Y-97925000D01*
X84550000Y-94889340D02*
X83392499Y-93731839D01*
%TO.N,Net-(D1-IO_1)*%
X71550000Y-108675000D02*
X71975000Y-108675000D01*
X70750000Y-104712500D02*
X72875000Y-106837500D01*
X77692500Y-107849999D02*
X77692500Y-106875000D01*
X70750000Y-104712500D02*
X70750000Y-107875000D01*
X80450000Y-108150000D02*
X81275000Y-107325000D01*
X72825000Y-109525000D02*
X72825000Y-110025000D01*
X72875000Y-106837500D02*
X72875000Y-107848696D01*
X77392499Y-108150000D02*
X77692500Y-107849999D01*
X71975000Y-108675000D02*
X72825000Y-109525000D01*
X73176304Y-108150000D02*
X77392499Y-108150000D01*
X77692500Y-107849999D02*
X77992501Y-108150000D01*
X70750000Y-107875000D02*
X71550000Y-108675000D01*
X77992501Y-108150000D02*
X80450000Y-108150000D01*
X72875000Y-107848696D02*
X73176304Y-108150000D01*
%TO.N,Net-(D1-IO_2)*%
X71575000Y-109475000D02*
X71575000Y-110025000D01*
X83337648Y-106550000D02*
X84100000Y-107312352D01*
X82175000Y-106550000D02*
X83337648Y-106550000D01*
X70709447Y-108875000D02*
X70975000Y-108875000D01*
X68850000Y-104712500D02*
X69887500Y-103675000D01*
X76722501Y-105600000D02*
X81225000Y-105600000D01*
X68850000Y-104712500D02*
X68850000Y-107015553D01*
X76422500Y-105900001D02*
X76722501Y-105600000D01*
X69887500Y-103675000D02*
X72276304Y-103675000D01*
X84100000Y-110325000D02*
X84150000Y-110375000D01*
X76422500Y-105900001D02*
X76422500Y-106875000D01*
X84100000Y-107312352D02*
X84100000Y-110325000D01*
X73126304Y-104525000D02*
X75047499Y-104525000D01*
X72276304Y-103675000D02*
X73126304Y-104525000D01*
X81225000Y-105600000D02*
X82175000Y-106550000D01*
X71500000Y-110000000D02*
X71500000Y-109600000D01*
X70975000Y-108875000D02*
X71575000Y-109475000D01*
X75047499Y-104525000D02*
X76422500Y-105900001D01*
X68850000Y-107015553D02*
X70709447Y-108875000D01*
%TO.N,Net-(D2-A2)*%
X108200000Y-88850000D02*
X107725000Y-89325000D01*
X96300000Y-87850000D02*
X97575000Y-89125000D01*
X108200000Y-86712500D02*
X108200000Y-88850000D01*
X105787500Y-89125000D02*
X108200000Y-86712500D01*
X97575000Y-89125000D02*
X105787500Y-89125000D01*
%TO.N,PWR_5V*%
X102175000Y-106874999D02*
X102050000Y-106749999D01*
D55*
X102175000Y-108200000D02*
X102175000Y-108950000D01*
D56*
X102712500Y-106912500D02*
X104725000Y-106912500D01*
D51*
X102175000Y-106874999D02*
X102212501Y-106912500D01*
X100199999Y-107300001D02*
X100199999Y-107812500D01*
X76422500Y-102827500D02*
X75425000Y-103825000D01*
D55*
X101800000Y-107825000D02*
X102025000Y-107600000D01*
X100199999Y-107812500D02*
X100212499Y-107825000D01*
D51*
X98900001Y-106137500D02*
X98900001Y-106600433D01*
D55*
X100212499Y-107825000D02*
X101800000Y-107825000D01*
X102025000Y-107600000D02*
X102712500Y-106912500D01*
D51*
X98900001Y-106600433D02*
X99299568Y-107000000D01*
D55*
X102212501Y-107412499D02*
X102212501Y-106912500D01*
X101800000Y-107825000D02*
X102175000Y-108200000D01*
D51*
X99299568Y-107000000D02*
X99899998Y-107000000D01*
D55*
X102025000Y-107600000D02*
X102212501Y-107412499D01*
D51*
X76422500Y-101925000D02*
X76422500Y-102827500D01*
D56*
X102212501Y-106912500D02*
X102712500Y-106912500D01*
D55*
X102175000Y-108950000D02*
X102175000Y-106874999D01*
D51*
X99899998Y-107000000D02*
X100199999Y-107300001D01*
X75425000Y-103825000D02*
X73625000Y-103825000D01*
%TO.N,Net-(D2-A1)*%
X101300000Y-87850000D02*
X103475000Y-85675000D01*
X110100000Y-88925000D02*
X110575000Y-89400000D01*
X110100000Y-86712500D02*
X110100000Y-88925000D01*
X109062500Y-85675000D02*
X110100000Y-86712500D01*
X103475000Y-85675000D02*
X109062500Y-85675000D01*
%TO.N,Net-(U1-PH0)*%
X90525000Y-107150000D02*
X90559744Y-107150000D01*
X91650000Y-108240256D02*
X91650000Y-109525000D01*
X89650394Y-103525268D02*
X90525000Y-104399874D01*
X91650000Y-109525000D02*
X90650000Y-110525000D01*
X90525000Y-104399874D02*
X90525000Y-107150000D01*
X90650000Y-110525000D02*
X88975000Y-110525000D01*
X89000000Y-110525000D02*
X88925000Y-110450000D01*
X88975000Y-110525000D02*
X88875000Y-110425000D01*
X90559744Y-107150000D02*
X91650000Y-108240256D01*
%TO.N,Net-(U1-PH1)*%
X91391637Y-104552666D02*
X90363971Y-103525000D01*
X90363971Y-103525000D02*
X90363971Y-103461029D01*
X91391637Y-105291637D02*
X91391637Y-104552666D01*
%TO.N,NRST*%
X92476992Y-104301992D02*
X91841332Y-104301992D01*
X119210000Y-97460000D02*
X117860000Y-97460000D01*
X119250000Y-97500000D02*
X119210000Y-97460000D01*
X92310202Y-104135202D02*
X92476992Y-104301992D01*
X91841332Y-104301992D02*
X90357501Y-102818161D01*
X119975000Y-97500000D02*
X119250000Y-97500000D01*
%TO.N,Net-(U1-VDDA)*%
X94029988Y-102248008D02*
X92478821Y-100696841D01*
X94576992Y-102248008D02*
X94029988Y-102248008D01*
X97781847Y-101206847D02*
X97781847Y-102239169D01*
X96723008Y-103298008D02*
X95626992Y-103298008D01*
X95626992Y-103298008D02*
X94576992Y-102248008D01*
X97781847Y-102239169D02*
X96723008Y-103298008D01*
%TO.N,/AMT102_input/W1_A*%
X92073834Y-99772364D02*
X92190742Y-99772364D01*
X113000002Y-86050000D02*
X112700001Y-86350001D01*
X91288235Y-98986765D02*
X92073834Y-99772364D01*
X92190742Y-99772364D02*
X92484189Y-100065811D01*
X115599999Y-86709448D02*
X114940551Y-86050000D01*
X115599999Y-96075000D02*
X115599999Y-86709448D01*
X112700001Y-86350001D02*
X112700001Y-87012500D01*
X114940551Y-86050000D02*
X113000002Y-86050000D01*
%TO.N,/AMT102_input/W1_B*%
X115199999Y-90237501D02*
X107537500Y-97900000D01*
X91275000Y-98125000D02*
X93139734Y-99989734D01*
X93139734Y-99989734D02*
X93185928Y-99989734D01*
X115199999Y-87612500D02*
X115199999Y-90237501D01*
X107537500Y-97900000D02*
X107450000Y-97900000D01*
X114599999Y-87012500D02*
X115199999Y-87612500D01*
X91000000Y-98125000D02*
X91275000Y-98125000D01*
%TO.N,USART2_TX*%
X98259242Y-99234242D02*
X93941420Y-99234242D01*
X95950000Y-105734314D02*
X95950000Y-105724571D01*
X95950000Y-105724571D02*
X96499571Y-105175001D01*
X95098696Y-111225000D02*
X95850000Y-110473696D01*
X96499571Y-105175001D02*
X96509313Y-105175001D01*
X92151304Y-113225000D02*
X94151304Y-111225000D01*
X91525001Y-113225000D02*
X92151304Y-113225000D01*
X95850000Y-105834315D02*
X95950000Y-105734314D01*
X99125000Y-102559314D02*
X99125000Y-100100000D01*
X99125000Y-100100000D02*
X98259242Y-99234242D01*
X93941420Y-99234242D02*
X93539481Y-99636181D01*
X96509313Y-105175001D02*
X99125000Y-102559314D01*
X94151304Y-111225000D02*
X95098696Y-111225000D01*
X95850000Y-110473696D02*
X95850000Y-105834315D01*
%TO.N,USART2_RX*%
X96350000Y-105890257D02*
X96665256Y-105575001D01*
X96665256Y-105575001D02*
X96674999Y-105575001D01*
X96250000Y-106000000D02*
X96350000Y-105900000D01*
X95075662Y-98450000D02*
X93539481Y-96913819D01*
X96350000Y-105900000D02*
X96350000Y-105890257D01*
X94065000Y-113225000D02*
X96250000Y-111040000D01*
X99550000Y-102700000D02*
X99550000Y-99900000D01*
X96250000Y-111040000D02*
X96250000Y-106000000D01*
X98100000Y-98450000D02*
X95075662Y-98450000D01*
X96674999Y-105575001D02*
X99550000Y-102700000D01*
X99550000Y-99900000D02*
X98100000Y-98450000D01*
%TO.N,RUN*%
X82375000Y-87450000D02*
X82375000Y-87650000D01*
X86650000Y-91950000D02*
X86575000Y-91875000D01*
X82375000Y-87650000D02*
X85525000Y-90800000D01*
X86575000Y-91850000D02*
X86575000Y-91875000D01*
X85423542Y-90698542D02*
X86575000Y-91850000D01*
X86650000Y-93850000D02*
X86650000Y-91950000D01*
X90999874Y-96625000D02*
X92125268Y-95499606D01*
X86650000Y-93850000D02*
X89425000Y-96625000D01*
X89425000Y-96625000D02*
X90999874Y-96625000D01*
%TO.N,/AMT102_input1/W1_A*%
X90954343Y-95963423D02*
X91771714Y-95146052D01*
X90025000Y-95963423D02*
X90954343Y-95963423D01*
X121125000Y-94475000D02*
X122862499Y-94475000D01*
X122862499Y-94475000D02*
X122937500Y-94399999D01*
X121100000Y-94450000D02*
X121125000Y-94475000D01*
%TO.N,/AMT102_input1/W1_B*%
X89417161Y-95443292D02*
X89431708Y-95443292D01*
X121399998Y-92500000D02*
X121399999Y-92500001D01*
X89511577Y-95363423D02*
X90847237Y-95363423D01*
X121399999Y-92500001D02*
X122937500Y-92500001D01*
X90847237Y-95363423D02*
X91418161Y-94792499D01*
X89431708Y-95443292D02*
X89511577Y-95363423D01*
X121050000Y-92500000D02*
X121399998Y-92500000D01*
%TO.N,IMU_INT1*%
X111548654Y-113425000D02*
X110875000Y-112751346D01*
X92342638Y-94196696D02*
X92013964Y-93868022D01*
X113250000Y-113425000D02*
X111548654Y-113425000D01*
X114525000Y-112150000D02*
X113250000Y-113425000D01*
X91635532Y-93868022D02*
X91064608Y-94438946D01*
X105262500Y-101262500D02*
X97404201Y-93404201D01*
X105629594Y-101262500D02*
X105262500Y-101262500D01*
X94115434Y-94196696D02*
X92342638Y-94196696D01*
X106450000Y-102082906D02*
X105629594Y-101262500D01*
X110875000Y-112751346D02*
X110875000Y-112750000D01*
X106450000Y-108325000D02*
X106450000Y-102082906D01*
X94907929Y-93404201D02*
X94115434Y-94196696D01*
X97404201Y-93404201D02*
X94907929Y-93404201D01*
X92013964Y-93868022D02*
X91635532Y-93868022D01*
X110875000Y-112750000D02*
X106450000Y-108325000D01*
%TO.N,IMU_INT2*%
X112025000Y-112150000D02*
X112025000Y-109800000D01*
X106850000Y-104625000D02*
X106850000Y-94587756D01*
X92846446Y-91950000D02*
X90711054Y-94085392D01*
X106850000Y-94587756D02*
X104212244Y-91950000D01*
X112025000Y-109800000D02*
X106850000Y-104625000D01*
X104212244Y-91950000D02*
X92846446Y-91950000D01*
%TO.N,COMM*%
X90450000Y-87445000D02*
X91332929Y-88327929D01*
X90329201Y-91332929D02*
X90329201Y-91345799D01*
X89906864Y-91768136D02*
X89906864Y-92061156D01*
X90329201Y-91345799D02*
X89906864Y-91768136D01*
X91332929Y-88327929D02*
X91332929Y-90329201D01*
X90525000Y-91137130D02*
X90329201Y-91332929D01*
X91332929Y-90329201D02*
X90525000Y-91137130D01*
X89906864Y-92061156D02*
X89296841Y-92671179D01*
%TO.N,Net-(U1-VCAP_1)*%
X90053249Y-90500557D02*
X88589734Y-91964072D01*
X90053249Y-90053249D02*
X90053249Y-90500557D01*
%TO.N,/CAN_interface/COMM_RX*%
X80575000Y-94575000D02*
X80700126Y-94575000D01*
X75152500Y-100000000D02*
X75152500Y-101925000D01*
X80700126Y-94575000D02*
X81624732Y-95499606D01*
%TO.N,/CAN_interface/COMM_TX*%
X82274355Y-96714913D02*
X82239268Y-96750000D01*
X82168020Y-96750000D02*
X81271179Y-95853159D01*
X82239268Y-96750000D02*
X82168020Y-96750000D01*
X78962500Y-101012500D02*
X78962500Y-101925000D01*
X78475000Y-100525000D02*
X78962500Y-101012500D01*
%TO.N,SWDIO*%
X87375000Y-98625000D02*
X87375000Y-98575648D01*
X115890000Y-102540000D02*
X117860000Y-102540000D01*
X86099352Y-97300000D02*
X82537797Y-97300000D01*
X87375000Y-98575648D02*
X86099352Y-97300000D01*
X111130000Y-100530000D02*
X113880000Y-100530000D01*
X82522884Y-97314913D02*
X82025826Y-97314913D01*
X82537797Y-97300000D02*
X82522884Y-97314913D01*
X82025826Y-97314913D02*
X80917625Y-96206713D01*
X110775000Y-100175000D02*
X111130000Y-100530000D01*
X113880000Y-100530000D02*
X115890000Y-102540000D01*
%TO.N,Net-(U1-VCAP_2)*%
X79253249Y-94346751D02*
X79253249Y-95253249D01*
X79253249Y-95253249D02*
X80254049Y-96254049D01*
X80254049Y-96254049D02*
X80254049Y-96320951D01*
%TO.N,SWCLK*%
X82603373Y-98746627D02*
X81100073Y-98746627D01*
X81100073Y-98746627D02*
X80210519Y-99636181D01*
X83450000Y-97900000D02*
X82603373Y-98746627D01*
X83500000Y-97900000D02*
X83450000Y-97900000D01*
%TO.N,Net-(J7-Pin_5)*%
X83153373Y-99146627D02*
X82255707Y-99146627D01*
X85912911Y-97962089D02*
X85612911Y-97962089D01*
X82255707Y-99146627D02*
X81629970Y-99772364D01*
X84337500Y-97962500D02*
X83153373Y-99146627D01*
X81559258Y-99772364D02*
X81431622Y-99900000D01*
X107450000Y-104100000D02*
X107450000Y-99650000D01*
X119525000Y-112150000D02*
X118250000Y-110875000D01*
X81431622Y-99900000D02*
X81290204Y-99900000D01*
X118250000Y-110875000D02*
X114225000Y-110875000D01*
X81629970Y-99772364D02*
X81559258Y-99772364D01*
X114225000Y-110875000D02*
X107450000Y-104100000D01*
X85612911Y-97962089D02*
X85612500Y-97962500D01*
X85612500Y-97962500D02*
X84337500Y-97962500D01*
%TO.N,Net-(J7-Pin_3)*%
X82421393Y-99546627D02*
X81271179Y-100696841D01*
X85268671Y-99546627D02*
X82421393Y-99546627D01*
%TO.N,Net-(J7-Pin_4)*%
X111217282Y-114225000D02*
X119950000Y-114225000D01*
X110075000Y-113082718D02*
X111217282Y-114225000D01*
X122025000Y-112150000D02*
X121425000Y-112150000D01*
X85950000Y-99975000D02*
X85778373Y-100146627D01*
X119950000Y-114225000D02*
X122025000Y-112150000D01*
X106197870Y-109749542D02*
X106260636Y-109686776D01*
X82528499Y-100146627D02*
X81624732Y-101050394D01*
X106680404Y-109686776D02*
X110075000Y-113081372D01*
X106260636Y-109686776D02*
X106680404Y-109686776D01*
X85778373Y-100146627D02*
X82528499Y-100146627D01*
X110075000Y-113081372D02*
X110075000Y-113082718D01*
%TO.N,IMU_CS_N*%
X106509314Y-108950000D02*
X110475000Y-112915686D01*
X81978286Y-101384672D02*
X81978286Y-101403948D01*
X115350000Y-113825000D02*
X117025000Y-112150000D01*
X106225000Y-108950000D02*
X106509314Y-108950000D01*
X110475000Y-112915686D02*
X110475000Y-112917032D01*
X82787958Y-100575000D02*
X81978286Y-101384672D01*
X86700000Y-100575000D02*
X82787958Y-100575000D01*
X111382968Y-113825000D02*
X115350000Y-113825000D01*
X110475000Y-112917032D02*
X111382968Y-113825000D01*
%TO.N,SWO*%
X88477208Y-100625735D02*
X87927943Y-101175000D01*
X88527208Y-100625735D02*
X88477208Y-100625735D01*
X87927943Y-101175000D02*
X82914340Y-101175000D01*
X82914340Y-101175000D02*
X82331839Y-101757501D01*
%TO.N,/AMT102_input2/W1_A*%
X81775000Y-98250000D02*
X82075000Y-97950000D01*
X76587499Y-97536195D02*
X77301304Y-98250000D01*
X77301304Y-98250000D02*
X81775000Y-98250000D01*
X77237499Y-96090442D02*
X76587499Y-96740442D01*
X77237499Y-94987500D02*
X77237499Y-96090442D01*
X76587499Y-96740442D02*
X76587499Y-97536195D01*
X84450000Y-101875000D02*
X84335660Y-101875000D01*
X84335660Y-101875000D02*
X83392499Y-102818161D01*
%TO.N,/AMT102_input2/W1_B*%
X79075000Y-100300000D02*
X82517638Y-103742638D01*
X82517638Y-103742638D02*
X83175128Y-103742638D01*
X79075000Y-100276471D02*
X79075000Y-100300000D01*
X78700000Y-99925000D02*
X78723529Y-99925000D01*
X78675000Y-99900000D02*
X78700000Y-99925000D01*
X77401304Y-99900000D02*
X78675000Y-99900000D01*
X75337501Y-97836197D02*
X77401304Y-99900000D01*
X78723529Y-99925000D02*
X79075000Y-100276471D01*
X83175128Y-103742638D02*
X83746052Y-103171714D01*
X75337501Y-94987500D02*
X75337501Y-97836197D01*
%TO.N,Net-(R5-Pad2)*%
X113499998Y-91050000D02*
X114599999Y-89949999D01*
X110575000Y-91050000D02*
X113499998Y-91050000D01*
X114599999Y-89949999D02*
X114599999Y-89287500D01*
%TO.N,Net-(D3-A1)*%
X129040552Y-94475000D02*
X127950000Y-94475000D01*
X127050000Y-88062500D02*
X131250000Y-92262500D01*
X131250000Y-92787500D02*
X130728052Y-92787500D01*
X131250000Y-92262500D02*
X131250000Y-92787500D01*
X127050000Y-87850000D02*
X127050000Y-88062500D01*
X130728052Y-92787500D02*
X129040552Y-94475000D01*
%TO.N,Net-(R7-Pad2)*%
X125100001Y-92525001D02*
X124712500Y-92525001D01*
X126300000Y-94475000D02*
X126300000Y-93725000D01*
X126300000Y-93725000D02*
X125100001Y-92525001D01*
%TO.N,Net-(R2-Pad2)*%
X111637501Y-90350000D02*
X112700001Y-89287500D01*
X108350000Y-90350000D02*
X111637501Y-90350000D01*
X107725000Y-90975000D02*
X108350000Y-90350000D01*
%TO.N,Net-(D9-A)*%
X92062500Y-85975000D02*
X92062500Y-87407500D01*
%TO.N,Net-(J1-Pin_1)*%
X97699999Y-108274999D02*
X97375000Y-108274999D01*
X98437502Y-108274999D02*
X98900001Y-107812500D01*
D53*
X98900001Y-109475001D02*
X98068751Y-108643750D01*
X98068751Y-108643750D02*
X98900001Y-107812500D01*
D51*
X97699999Y-108274999D02*
X98437502Y-108274999D01*
D56*
X99375000Y-109950000D02*
X98900001Y-109475001D01*
X99375000Y-109950000D02*
X97699999Y-108274999D01*
%TO.N,Net-(R8-Pad2)*%
D51*
X76587498Y-94025000D02*
X74337500Y-94025000D01*
X77237499Y-93374999D02*
X76587498Y-94025000D01*
X77237499Y-92712500D02*
X77237499Y-93374999D01*
X74337500Y-94025000D02*
X73875000Y-94487500D01*
%TO.N,Net-(R9-Pad2)*%
X73875000Y-92537500D02*
X75162501Y-92537500D01*
X75162501Y-92537500D02*
X75337501Y-92712500D01*
%TO.N,Net-(D6-A)*%
X105062499Y-113775000D02*
X105062499Y-112337498D01*
X105062499Y-112337498D02*
X105025000Y-112299999D01*
%TO.N,Net-(D4-A2)*%
X72225000Y-94487500D02*
X71053051Y-94487500D01*
X71053051Y-94487500D02*
X69353051Y-92787500D01*
X70450000Y-91237500D02*
X70450000Y-87850000D01*
X69353051Y-92787500D02*
X68900000Y-92787500D01*
X68900000Y-92787500D02*
X70450000Y-91237500D01*
%TO.N,Net-(D4-A1)*%
X72225000Y-91075000D02*
X75450000Y-87850000D01*
X72225000Y-92537500D02*
X72225000Y-91075000D01*
X71050000Y-92537500D02*
X70800000Y-92787500D01*
X72225000Y-92537500D02*
X71050000Y-92537500D01*
%TO.N,Net-(D3-A2)*%
X127950000Y-92500000D02*
X129062500Y-92500000D01*
X122050000Y-87850000D02*
X122215685Y-87850000D01*
X128287500Y-91725000D02*
X129350000Y-92787500D01*
X126090685Y-91725000D02*
X128287500Y-91725000D01*
X122215685Y-87850000D02*
X126090685Y-91725000D01*
X129062500Y-92500000D02*
X129350000Y-92787500D01*
%TO.N,Net-(C6-Pad1)*%
X92625000Y-106525000D02*
X92558363Y-106458363D01*
X94525000Y-108825000D02*
X94625000Y-108925000D01*
X92850000Y-108825000D02*
X94525000Y-108825000D01*
X92625000Y-108600000D02*
X92625000Y-106525000D01*
X92950000Y-108925000D02*
X92850000Y-108825000D01*
X92850000Y-108825000D02*
X92625000Y-108600000D01*
%TO.N,Net-(SW1-COM)*%
X81650000Y-110375000D02*
X81650000Y-108600000D01*
X81650000Y-108600000D02*
X82925000Y-107325000D01*
%TO.N,Net-(R6-Pad2)*%
X126300000Y-92500000D02*
X125625000Y-91825000D01*
X124109449Y-91825000D02*
X123500000Y-92434449D01*
X123500000Y-92434449D02*
X123500000Y-94025000D01*
X123500000Y-94025000D02*
X123899999Y-94424999D01*
X125625000Y-91825000D02*
X124109449Y-91825000D01*
X123899999Y-94424999D02*
X124712500Y-94424999D01*
%TO.N,Net-(D8-A)*%
X83987500Y-85975000D02*
X83987500Y-87412500D01*
X83937500Y-87512500D02*
X83975000Y-87550000D01*
%TD*%
M02*
