%TF.GenerationSoftware,KiCad,Pcbnew,10.0.4*%
%TF.CreationDate,2026-09-26T16:06:30+09:00*%
%TF.ProjectId,unit-board,756e6974-2d62-46f6-9172-642e6b696361,rev?*%
%TF.SameCoordinates,Original*%
%TF.FileFunction,Copper,L2,Inr*%
%TF.FilePolarity,Positive*%
%FSLAX46Y46*%
G04 Gerber Fmt 4.6, Leading zero omitted, Abs format (unit mm)*
G04 Created by KiCad (PCBNEW 10.0.4) date 2026-09-26 16:06:30*
%MOMM*%
%LPD*%
G01*
G04 APERTURE LIST*
%TA.AperFunction,ComponentPad*%
%ADD10R,1.700000X1.700000*%
%TD*%
%TA.AperFunction,ComponentPad*%
%ADD11C,1.700000*%
%TD*%
%TA.AperFunction,ViaPad*%
%ADD12C,0.600000*%
%TD*%
G04 APERTURE END LIST*
D10*
%TO.N,GND*%
%TO.C,J9*%
X86485000Y-61775000D03*
D11*
%TO.N,/DBG_TX*%
X89025000Y-61775000D03*
%TO.N,/DBG_RX*%
X91564999Y-61775000D03*
%TD*%
D12*
%TO.N,/VTREF_3V3*%
X61287500Y-86875000D03*
X93525000Y-72500000D03*
X85125000Y-91075000D03*
X67501992Y-82701992D03*
X91374999Y-91400000D03*
X66126992Y-72998008D03*
X93650000Y-78700000D03*
X80450000Y-72124999D03*
X81850000Y-72725000D03*
X76425000Y-85200000D03*
X58450000Y-74960000D03*
X69973008Y-69026992D03*
%TO.N,GND*%
X68650000Y-70350000D03*
X73900000Y-69550000D03*
X65375000Y-69000000D03*
X83800000Y-83375000D03*
X74900000Y-85275000D03*
X60250000Y-66350000D03*
X90950000Y-84875000D03*
X78200000Y-74425000D03*
X67200000Y-71875000D03*
X94925000Y-63850000D03*
X66750000Y-78100000D03*
X80450000Y-70250000D03*
X96375000Y-76475000D03*
X93725000Y-87250000D03*
X68600000Y-83775000D03*
X86300001Y-85200000D03*
X93525000Y-70900000D03*
X90150000Y-78675000D03*
X93550000Y-80425000D03*
X63275000Y-65825000D03*
X89850000Y-65775000D03*
X67450000Y-67275000D03*
X96365000Y-84525000D03*
X85325000Y-83325000D03*
X70000000Y-80575000D03*
X82500000Y-85575001D03*
X93475000Y-76950000D03*
X95000000Y-88650000D03*
X69412500Y-61275000D03*
X77674999Y-87625000D03*
X82600000Y-94062501D03*
X75450000Y-81375000D03*
X62337500Y-61250000D03*
X78700000Y-85325000D03*
X79525000Y-90475000D03*
X81600000Y-75175000D03*
X86500000Y-86950000D03*
X84975000Y-89075000D03*
X60075000Y-91225000D03*
X74775001Y-87500000D03*
X95100000Y-79550000D03*
X61340000Y-83835000D03*
X78650000Y-65050000D03*
X90000000Y-83250000D03*
X77450000Y-81374999D03*
X58450000Y-80040000D03*
X70575000Y-72725000D03*
X65837500Y-61250000D03*
%TO.N,/CAN Interface1/C620_CAN_H*%
X60250000Y-63900000D03*
X91787500Y-66725000D03*
%TO.N,/CAN Interface1/C620_CAN_L*%
X60225000Y-65100000D03*
X91787500Y-64825000D03*
%TO.N,/G474 Minimum/LED_ERR*%
X73550000Y-74200000D03*
X69375000Y-64025000D03*
%TO.N,/CAN Interface/PWR_5V*%
X74875000Y-65050000D03*
X82500000Y-87474999D03*
X93500000Y-75350000D03*
%TO.N,/G474 Minimum/ADC_5V_MON*%
X70475000Y-78825000D03*
X86250000Y-78875000D03*
%TO.N,/CAN Interface/COMM_B*%
X69525000Y-92275000D03*
X91925000Y-86737500D03*
X60075000Y-89925000D03*
%TO.N,/G474 Minimum/AMT22_CS_N*%
X82600000Y-73775000D03*
X75050000Y-73700000D03*
%TO.N,/SWDIO*%
X62520000Y-74960000D03*
X76600000Y-74960000D03*
%TO.N,/SWCLK*%
X75750000Y-76275000D03*
X62520000Y-76230000D03*
%TO.N,/SWO*%
X62519999Y-77500000D03*
X74425000Y-77575000D03*
%TO.N,/G474 Minimum/SPI3_MISO*%
X78601525Y-73153589D03*
X75875000Y-73125000D03*
%TO.N,/CAN Interface/CAN_TX*%
X95125000Y-84625000D03*
X82725000Y-74900000D03*
%TO.N,/CAN Interface/CAN_RX*%
X77725000Y-75400000D03*
X98950000Y-84575000D03*
%TO.N,/CAN Interface/COMM_A*%
X60050000Y-88650000D03*
X90025000Y-86737500D03*
%TO.N,/G474 Minimum/LED_COMM*%
X72600000Y-74225000D03*
X65800000Y-64025000D03*
%TO.N,/DBG_TX*%
X70652821Y-80112585D03*
X87071778Y-80099182D03*
X91475000Y-75225000D03*
X91436765Y-80088235D03*
%TO.N,/DBG_RX*%
X92325000Y-80700000D03*
X70475000Y-81250000D03*
X87600000Y-80700000D03*
X92325000Y-75250000D03*
%TO.N,/G474 Minimum/SPI3_SCK*%
X76558426Y-72530019D03*
X74975000Y-69775000D03*
%TO.N,/G474 Minimum/LED_RUN*%
X62275000Y-64025000D03*
X71525000Y-74275000D03*
%TD*%
%TA.AperFunction,Conductor*%
%TO.N,GND*%
G36*
X99442482Y-59994993D02*
G01*
X99488266Y-60047772D01*
X99499500Y-60099346D01*
X99499500Y-84117324D01*
X99479815Y-84184363D01*
X99427011Y-84230118D01*
X99357853Y-84240062D01*
X99294297Y-84211037D01*
X99287819Y-84205005D01*
X99257316Y-84174502D01*
X99257314Y-84174500D01*
X99158283Y-84117324D01*
X99143187Y-84108608D01*
X99079539Y-84091554D01*
X99015892Y-84074500D01*
X98884108Y-84074500D01*
X98756812Y-84108608D01*
X98642686Y-84174500D01*
X98642683Y-84174502D01*
X98549502Y-84267683D01*
X98549500Y-84267686D01*
X98483608Y-84381812D01*
X98449500Y-84509108D01*
X98449500Y-84640891D01*
X98483608Y-84768187D01*
X98501687Y-84799500D01*
X98549500Y-84882314D01*
X98642686Y-84975500D01*
X98756814Y-85041392D01*
X98884108Y-85075500D01*
X98884110Y-85075500D01*
X99015890Y-85075500D01*
X99015892Y-85075500D01*
X99143186Y-85041392D01*
X99257314Y-84975500D01*
X99287819Y-84944995D01*
X99349142Y-84911510D01*
X99418834Y-84916494D01*
X99474767Y-84958366D01*
X99499184Y-85023830D01*
X99499500Y-85032676D01*
X99499500Y-94876000D01*
X99479815Y-94943039D01*
X99427011Y-94988794D01*
X99375500Y-95000000D01*
X94613304Y-95000000D01*
X94546265Y-94980315D01*
X94500510Y-94927511D01*
X94493529Y-94908093D01*
X94466391Y-94806812D01*
X94457563Y-94791521D01*
X94400500Y-94692686D01*
X94307314Y-94599500D01*
X94250250Y-94566554D01*
X94193187Y-94533608D01*
X94129539Y-94516554D01*
X94065892Y-94499500D01*
X61065892Y-94499500D01*
X60934108Y-94499500D01*
X60806812Y-94533608D01*
X60692686Y-94599500D01*
X60692683Y-94599502D01*
X60599502Y-94692683D01*
X60599500Y-94692686D01*
X60533608Y-94806812D01*
X60506471Y-94908093D01*
X60470106Y-94967754D01*
X60407259Y-94998283D01*
X60386696Y-95000000D01*
X55624500Y-95000000D01*
X55557461Y-94980315D01*
X55511706Y-94927511D01*
X55500500Y-94876000D01*
X55500500Y-93143995D01*
X64374499Y-93143995D01*
X64401418Y-93279322D01*
X64401421Y-93279332D01*
X64454221Y-93406804D01*
X64454228Y-93406817D01*
X64530885Y-93521541D01*
X64530888Y-93521545D01*
X64628454Y-93619111D01*
X64628458Y-93619114D01*
X64743182Y-93695771D01*
X64743195Y-93695778D01*
X64870667Y-93748578D01*
X64870672Y-93748580D01*
X64870676Y-93748580D01*
X64870677Y-93748581D01*
X65006004Y-93775500D01*
X65006007Y-93775500D01*
X65143995Y-93775500D01*
X65235041Y-93757389D01*
X65279328Y-93748580D01*
X65406811Y-93695775D01*
X65521542Y-93619114D01*
X65619114Y-93521542D01*
X65695775Y-93406811D01*
X65748580Y-93279328D01*
X65775500Y-93143995D01*
X71174499Y-93143995D01*
X71201418Y-93279322D01*
X71201421Y-93279332D01*
X71254221Y-93406804D01*
X71254228Y-93406817D01*
X71330885Y-93521541D01*
X71330888Y-93521545D01*
X71428454Y-93619111D01*
X71428458Y-93619114D01*
X71543182Y-93695771D01*
X71543195Y-93695778D01*
X71670667Y-93748578D01*
X71670672Y-93748580D01*
X71670676Y-93748580D01*
X71670677Y-93748581D01*
X71806004Y-93775500D01*
X71806007Y-93775500D01*
X71943995Y-93775500D01*
X72035041Y-93757389D01*
X72079328Y-93748580D01*
X72206811Y-93695775D01*
X72321542Y-93619114D01*
X72419114Y-93521542D01*
X72495775Y-93406811D01*
X72548580Y-93279328D01*
X72575500Y-93143993D01*
X72575500Y-93006007D01*
X72575500Y-93006004D01*
X72548581Y-92870677D01*
X72548580Y-92870676D01*
X72548580Y-92870672D01*
X72509159Y-92775500D01*
X72495778Y-92743195D01*
X72495771Y-92743182D01*
X72419114Y-92628458D01*
X72419111Y-92628454D01*
X72321545Y-92530888D01*
X72321541Y-92530885D01*
X72206817Y-92454228D01*
X72206804Y-92454221D01*
X72079332Y-92401421D01*
X72079322Y-92401418D01*
X71943995Y-92374500D01*
X71943993Y-92374500D01*
X71806007Y-92374500D01*
X71806005Y-92374500D01*
X71670677Y-92401418D01*
X71670667Y-92401421D01*
X71543195Y-92454221D01*
X71543182Y-92454228D01*
X71428458Y-92530885D01*
X71428454Y-92530888D01*
X71330888Y-92628454D01*
X71330885Y-92628458D01*
X71254228Y-92743182D01*
X71254221Y-92743195D01*
X71201421Y-92870667D01*
X71201418Y-92870677D01*
X71174500Y-93006004D01*
X71174500Y-93006007D01*
X71174500Y-93143993D01*
X71174500Y-93143995D01*
X71174499Y-93143995D01*
X65775500Y-93143995D01*
X65775500Y-93143993D01*
X65775500Y-93006007D01*
X65775500Y-93006004D01*
X65748581Y-92870677D01*
X65748580Y-92870676D01*
X65748580Y-92870672D01*
X65709159Y-92775500D01*
X65695778Y-92743195D01*
X65695771Y-92743182D01*
X65619114Y-92628458D01*
X65619111Y-92628454D01*
X65521545Y-92530888D01*
X65521541Y-92530885D01*
X65406817Y-92454228D01*
X65406804Y-92454221D01*
X65279332Y-92401421D01*
X65279322Y-92401418D01*
X65143995Y-92374500D01*
X65143993Y-92374500D01*
X65006007Y-92374500D01*
X65006005Y-92374500D01*
X64870677Y-92401418D01*
X64870667Y-92401421D01*
X64743195Y-92454221D01*
X64743182Y-92454228D01*
X64628458Y-92530885D01*
X64628454Y-92530888D01*
X64530888Y-92628454D01*
X64530885Y-92628458D01*
X64454228Y-92743182D01*
X64454221Y-92743195D01*
X64401421Y-92870667D01*
X64401418Y-92870677D01*
X64374500Y-93006004D01*
X64374500Y-93006007D01*
X64374500Y-93143993D01*
X64374500Y-93143995D01*
X64374499Y-93143995D01*
X55500500Y-93143995D01*
X55500500Y-92209108D01*
X69024500Y-92209108D01*
X69024500Y-92340891D01*
X69058608Y-92468187D01*
X69091554Y-92525250D01*
X69124500Y-92582314D01*
X69217686Y-92675500D01*
X69331814Y-92741392D01*
X69459108Y-92775500D01*
X69459110Y-92775500D01*
X69590890Y-92775500D01*
X69590892Y-92775500D01*
X69718186Y-92741392D01*
X69832314Y-92675500D01*
X69925500Y-92582314D01*
X69991392Y-92468186D01*
X70025500Y-92340892D01*
X70025500Y-92209108D01*
X69991392Y-92081814D01*
X69925500Y-91967686D01*
X69832314Y-91874500D01*
X69775250Y-91841554D01*
X69718187Y-91808608D01*
X69654539Y-91791554D01*
X69590892Y-91774500D01*
X69459108Y-91774500D01*
X69331812Y-91808608D01*
X69217686Y-91874500D01*
X69217683Y-91874502D01*
X69124502Y-91967683D01*
X69124500Y-91967686D01*
X69058608Y-92081812D01*
X69024500Y-92209108D01*
X55500500Y-92209108D01*
X55500500Y-91009108D01*
X84624500Y-91009108D01*
X84624500Y-91140891D01*
X84658608Y-91268187D01*
X84691554Y-91325250D01*
X84724500Y-91382314D01*
X84817686Y-91475500D01*
X84931814Y-91541392D01*
X85059108Y-91575500D01*
X85059110Y-91575500D01*
X85190890Y-91575500D01*
X85190892Y-91575500D01*
X85318186Y-91541392D01*
X85432314Y-91475500D01*
X85525500Y-91382314D01*
X85553332Y-91334108D01*
X90874499Y-91334108D01*
X90874499Y-91465892D01*
X90891553Y-91529539D01*
X90908607Y-91593187D01*
X90941553Y-91650250D01*
X90974499Y-91707314D01*
X91067685Y-91800500D01*
X91181813Y-91866392D01*
X91309107Y-91900500D01*
X91309109Y-91900500D01*
X91440889Y-91900500D01*
X91440891Y-91900500D01*
X91568185Y-91866392D01*
X91682313Y-91800500D01*
X91775499Y-91707314D01*
X91841391Y-91593186D01*
X91875499Y-91465892D01*
X91875499Y-91334108D01*
X91841391Y-91206814D01*
X91775499Y-91092686D01*
X91682313Y-90999500D01*
X91625249Y-90966554D01*
X91568186Y-90933608D01*
X91504538Y-90916554D01*
X91440891Y-90899500D01*
X91309107Y-90899500D01*
X91181811Y-90933608D01*
X91067685Y-90999500D01*
X91067682Y-90999502D01*
X90974501Y-91092683D01*
X90974499Y-91092686D01*
X90908607Y-91206812D01*
X90892162Y-91268187D01*
X90874499Y-91334108D01*
X85553332Y-91334108D01*
X85591392Y-91268186D01*
X85625500Y-91140892D01*
X85625500Y-91009108D01*
X85591392Y-90881814D01*
X85525500Y-90767686D01*
X85432314Y-90674500D01*
X85375250Y-90641554D01*
X85318187Y-90608608D01*
X85254539Y-90591554D01*
X85190892Y-90574500D01*
X85059108Y-90574500D01*
X84931812Y-90608608D01*
X84817686Y-90674500D01*
X84817683Y-90674502D01*
X84724502Y-90767683D01*
X84724500Y-90767686D01*
X84658608Y-90881812D01*
X84624500Y-91009108D01*
X55500500Y-91009108D01*
X55500500Y-89859108D01*
X59574500Y-89859108D01*
X59574500Y-89990891D01*
X59608608Y-90118187D01*
X59641554Y-90175250D01*
X59674500Y-90232314D01*
X59767686Y-90325500D01*
X59881814Y-90391392D01*
X60009108Y-90425500D01*
X60009110Y-90425500D01*
X60140890Y-90425500D01*
X60140892Y-90425500D01*
X60268186Y-90391392D01*
X60382314Y-90325500D01*
X60475500Y-90232314D01*
X60541392Y-90118186D01*
X60575500Y-89990892D01*
X60575500Y-89859108D01*
X60541392Y-89731814D01*
X60475500Y-89617686D01*
X60382314Y-89524500D01*
X60325250Y-89491554D01*
X60268187Y-89458608D01*
X60204539Y-89441554D01*
X60140892Y-89424500D01*
X60009108Y-89424500D01*
X59881812Y-89458608D01*
X59767686Y-89524500D01*
X59767683Y-89524502D01*
X59674502Y-89617683D01*
X59674500Y-89617686D01*
X59608608Y-89731812D01*
X59574500Y-89859108D01*
X55500500Y-89859108D01*
X55500500Y-88584108D01*
X59549500Y-88584108D01*
X59549500Y-88715891D01*
X59583608Y-88843187D01*
X59616554Y-88900250D01*
X59649500Y-88957314D01*
X59742686Y-89050500D01*
X59856814Y-89116392D01*
X59984108Y-89150500D01*
X59984110Y-89150500D01*
X60115890Y-89150500D01*
X60115892Y-89150500D01*
X60243186Y-89116392D01*
X60357314Y-89050500D01*
X60450500Y-88957314D01*
X60516392Y-88843186D01*
X60550500Y-88715892D01*
X60550500Y-88584108D01*
X60516392Y-88456814D01*
X60450500Y-88342686D01*
X60357314Y-88249500D01*
X60300250Y-88216554D01*
X60243187Y-88183608D01*
X60179539Y-88166554D01*
X60115892Y-88149500D01*
X59984108Y-88149500D01*
X59856812Y-88183608D01*
X59742686Y-88249500D01*
X59742683Y-88249502D01*
X59649502Y-88342683D01*
X59649500Y-88342686D01*
X59583608Y-88456812D01*
X59549500Y-88584108D01*
X55500500Y-88584108D01*
X55500500Y-87409107D01*
X81999500Y-87409107D01*
X81999500Y-87540890D01*
X82033608Y-87668186D01*
X82066554Y-87725249D01*
X82099500Y-87782313D01*
X82192686Y-87875499D01*
X82306814Y-87941391D01*
X82434108Y-87975499D01*
X82434110Y-87975499D01*
X82565890Y-87975499D01*
X82565892Y-87975499D01*
X82693186Y-87941391D01*
X82807314Y-87875499D01*
X82900500Y-87782313D01*
X82966392Y-87668185D01*
X83000500Y-87540891D01*
X83000500Y-87409107D01*
X82966392Y-87281813D01*
X82962745Y-87275497D01*
X82921404Y-87203892D01*
X82900500Y-87167685D01*
X82807314Y-87074499D01*
X82750250Y-87041553D01*
X82693187Y-87008607D01*
X82629539Y-86991553D01*
X82565892Y-86974499D01*
X82434108Y-86974499D01*
X82306812Y-87008607D01*
X82192686Y-87074499D01*
X82192683Y-87074501D01*
X82099502Y-87167682D01*
X82099500Y-87167685D01*
X82033608Y-87281811D01*
X81999500Y-87409107D01*
X55500500Y-87409107D01*
X55500500Y-86809108D01*
X60787000Y-86809108D01*
X60787000Y-86940891D01*
X60821108Y-87068187D01*
X60854054Y-87125250D01*
X60887000Y-87182314D01*
X60980186Y-87275500D01*
X61094314Y-87341392D01*
X61221608Y-87375500D01*
X61221610Y-87375500D01*
X61353390Y-87375500D01*
X61353392Y-87375500D01*
X61480686Y-87341392D01*
X61594814Y-87275500D01*
X61688000Y-87182314D01*
X61753892Y-87068186D01*
X61788000Y-86940892D01*
X61788000Y-86809108D01*
X61757579Y-86695574D01*
X61757579Y-86695572D01*
X61753892Y-86681815D01*
X61753892Y-86681814D01*
X61748001Y-86671610D01*
X61748000Y-86671608D01*
X89524500Y-86671608D01*
X89524500Y-86803391D01*
X89558608Y-86930687D01*
X89591554Y-86987750D01*
X89624500Y-87044814D01*
X89717686Y-87138000D01*
X89831814Y-87203892D01*
X89959108Y-87238000D01*
X89959110Y-87238000D01*
X90090890Y-87238000D01*
X90090892Y-87238000D01*
X90218186Y-87203892D01*
X90332314Y-87138000D01*
X90425500Y-87044814D01*
X90491392Y-86930686D01*
X90525500Y-86803392D01*
X90525500Y-86671608D01*
X91424500Y-86671608D01*
X91424500Y-86803391D01*
X91458608Y-86930687D01*
X91491554Y-86987750D01*
X91524500Y-87044814D01*
X91617686Y-87138000D01*
X91731814Y-87203892D01*
X91859108Y-87238000D01*
X91859110Y-87238000D01*
X91990890Y-87238000D01*
X91990892Y-87238000D01*
X92118186Y-87203892D01*
X92232314Y-87138000D01*
X92325500Y-87044814D01*
X92391392Y-86930686D01*
X92425500Y-86803392D01*
X92425500Y-86671608D01*
X92391392Y-86544314D01*
X92325500Y-86430186D01*
X92232314Y-86337000D01*
X92175250Y-86304054D01*
X92118187Y-86271108D01*
X92054539Y-86254054D01*
X91990892Y-86237000D01*
X91859108Y-86237000D01*
X91731812Y-86271108D01*
X91617686Y-86337000D01*
X91617683Y-86337002D01*
X91524502Y-86430183D01*
X91524500Y-86430186D01*
X91458608Y-86544312D01*
X91424500Y-86671608D01*
X90525500Y-86671608D01*
X90491392Y-86544314D01*
X90425500Y-86430186D01*
X90332314Y-86337000D01*
X90275250Y-86304054D01*
X90218187Y-86271108D01*
X90154539Y-86254054D01*
X90090892Y-86237000D01*
X89959108Y-86237000D01*
X89831812Y-86271108D01*
X89717686Y-86337000D01*
X89717683Y-86337002D01*
X89624502Y-86430183D01*
X89624500Y-86430186D01*
X89558608Y-86544312D01*
X89524500Y-86671608D01*
X61748000Y-86671608D01*
X61688000Y-86567686D01*
X61594814Y-86474500D01*
X61518055Y-86430183D01*
X61480687Y-86408608D01*
X61417039Y-86391554D01*
X61353392Y-86374500D01*
X61221608Y-86374500D01*
X61094312Y-86408608D01*
X60980186Y-86474500D01*
X60980183Y-86474502D01*
X60887002Y-86567683D01*
X60887000Y-86567686D01*
X60821108Y-86681812D01*
X60787000Y-86809108D01*
X55500500Y-86809108D01*
X55500500Y-85134108D01*
X75924500Y-85134108D01*
X75924500Y-85265891D01*
X75958608Y-85393187D01*
X75991554Y-85450250D01*
X76024500Y-85507314D01*
X76117686Y-85600500D01*
X76231814Y-85666392D01*
X76359108Y-85700500D01*
X76359110Y-85700500D01*
X76490890Y-85700500D01*
X76490892Y-85700500D01*
X76618186Y-85666392D01*
X76732314Y-85600500D01*
X76825500Y-85507314D01*
X76891392Y-85393186D01*
X76925500Y-85265892D01*
X76925500Y-85134108D01*
X76891392Y-85006814D01*
X76825500Y-84892686D01*
X76732314Y-84799500D01*
X76675250Y-84766554D01*
X76618187Y-84733608D01*
X76554539Y-84716554D01*
X76490892Y-84699500D01*
X76359108Y-84699500D01*
X76231812Y-84733608D01*
X76117686Y-84799500D01*
X76117683Y-84799502D01*
X76024502Y-84892683D01*
X76024500Y-84892686D01*
X75958608Y-85006812D01*
X75924500Y-85134108D01*
X55500500Y-85134108D01*
X55500500Y-84559108D01*
X94624500Y-84559108D01*
X94624500Y-84690892D01*
X94635946Y-84733608D01*
X94658608Y-84818187D01*
X94691554Y-84875250D01*
X94724500Y-84932314D01*
X94817686Y-85025500D01*
X94931814Y-85091392D01*
X95059108Y-85125500D01*
X95059110Y-85125500D01*
X95190890Y-85125500D01*
X95190892Y-85125500D01*
X95318186Y-85091392D01*
X95432314Y-85025500D01*
X95525500Y-84932314D01*
X95591392Y-84818186D01*
X95625500Y-84690892D01*
X95625500Y-84559108D01*
X95591392Y-84431814D01*
X95525500Y-84317686D01*
X95432314Y-84224500D01*
X95362795Y-84184363D01*
X95318187Y-84158608D01*
X95254539Y-84141554D01*
X95190892Y-84124500D01*
X95059108Y-84124500D01*
X94931812Y-84158608D01*
X94817686Y-84224500D01*
X94817683Y-84224502D01*
X94724502Y-84317683D01*
X94724500Y-84317686D01*
X94658608Y-84431812D01*
X94637897Y-84509108D01*
X94624500Y-84559108D01*
X55500500Y-84559108D01*
X55500500Y-82636100D01*
X67001492Y-82636100D01*
X67001492Y-82767883D01*
X67035600Y-82895179D01*
X67068546Y-82952242D01*
X67101492Y-83009306D01*
X67194678Y-83102492D01*
X67308806Y-83168384D01*
X67436100Y-83202492D01*
X67436102Y-83202492D01*
X67567882Y-83202492D01*
X67567884Y-83202492D01*
X67695178Y-83168384D01*
X67809306Y-83102492D01*
X67902492Y-83009306D01*
X67968384Y-82895178D01*
X68002492Y-82767884D01*
X68002492Y-82636100D01*
X67968384Y-82508806D01*
X67902492Y-82394678D01*
X67809306Y-82301492D01*
X67752242Y-82268546D01*
X67695179Y-82235600D01*
X67631531Y-82218546D01*
X67567884Y-82201492D01*
X67436100Y-82201492D01*
X67308804Y-82235600D01*
X67194678Y-82301492D01*
X67194675Y-82301494D01*
X67101494Y-82394675D01*
X67101492Y-82394678D01*
X67035600Y-82508804D01*
X67001492Y-82636100D01*
X55500500Y-82636100D01*
X55500500Y-81184108D01*
X69974500Y-81184108D01*
X69974500Y-81315891D01*
X70008608Y-81443187D01*
X70041554Y-81500250D01*
X70074500Y-81557314D01*
X70167686Y-81650500D01*
X70281814Y-81716392D01*
X70409108Y-81750500D01*
X70409110Y-81750500D01*
X70540890Y-81750500D01*
X70540892Y-81750500D01*
X70668186Y-81716392D01*
X70782314Y-81650500D01*
X70875500Y-81557314D01*
X70941392Y-81443186D01*
X70975500Y-81315892D01*
X70975500Y-81184108D01*
X70941392Y-81056814D01*
X70875500Y-80942686D01*
X70782314Y-80849500D01*
X70741724Y-80826065D01*
X70693510Y-80775498D01*
X70680288Y-80706891D01*
X70706256Y-80642026D01*
X70763171Y-80601499D01*
X70771608Y-80598911D01*
X70846007Y-80578977D01*
X70960135Y-80513085D01*
X71053321Y-80419899D01*
X71119213Y-80305771D01*
X71153321Y-80178477D01*
X71153321Y-80046693D01*
X71149730Y-80033290D01*
X86571278Y-80033290D01*
X86571278Y-80165074D01*
X86576680Y-80185235D01*
X86605386Y-80292369D01*
X86638332Y-80349432D01*
X86671278Y-80406496D01*
X86764464Y-80499682D01*
X86878592Y-80565574D01*
X87005886Y-80599682D01*
X87005887Y-80599682D01*
X87007593Y-80600139D01*
X87067254Y-80636504D01*
X87097783Y-80699351D01*
X87099500Y-80719914D01*
X87099500Y-80765891D01*
X87133608Y-80893187D01*
X87162185Y-80942683D01*
X87199500Y-81007314D01*
X87292686Y-81100500D01*
X87406814Y-81166392D01*
X87534108Y-81200500D01*
X87534110Y-81200500D01*
X87665890Y-81200500D01*
X87665892Y-81200500D01*
X87793186Y-81166392D01*
X87907314Y-81100500D01*
X88000500Y-81007314D01*
X88066392Y-80893186D01*
X88100500Y-80765892D01*
X88100500Y-80634108D01*
X88066392Y-80506814D01*
X88000500Y-80392686D01*
X87907314Y-80299500D01*
X87793186Y-80233608D01*
X87705679Y-80210160D01*
X87664184Y-80199042D01*
X87641533Y-80185235D01*
X87617171Y-80174755D01*
X87612167Y-80167335D01*
X87604524Y-80162677D01*
X87592933Y-80138817D01*
X87578104Y-80116828D01*
X87576157Y-80104281D01*
X87573995Y-80099829D01*
X87572308Y-80082013D01*
X87572278Y-80080658D01*
X87572278Y-80033290D01*
X87569345Y-80022343D01*
X90936265Y-80022343D01*
X90936265Y-80154126D01*
X90970373Y-80281422D01*
X90984432Y-80305772D01*
X91036265Y-80395549D01*
X91129451Y-80488735D01*
X91243579Y-80554627D01*
X91370873Y-80588735D01*
X91370875Y-80588735D01*
X91502655Y-80588735D01*
X91502657Y-80588735D01*
X91629951Y-80554627D01*
X91638497Y-80549692D01*
X91706395Y-80533218D01*
X91772423Y-80556068D01*
X91815616Y-80610987D01*
X91824500Y-80657078D01*
X91824500Y-80765891D01*
X91858608Y-80893187D01*
X91887185Y-80942683D01*
X91924500Y-81007314D01*
X92017686Y-81100500D01*
X92131814Y-81166392D01*
X92259108Y-81200500D01*
X92259110Y-81200500D01*
X92390890Y-81200500D01*
X92390892Y-81200500D01*
X92518186Y-81166392D01*
X92632314Y-81100500D01*
X92725500Y-81007314D01*
X92791392Y-80893186D01*
X92825500Y-80765892D01*
X92825500Y-80634108D01*
X92791392Y-80506814D01*
X92725500Y-80392686D01*
X92632314Y-80299500D01*
X92555266Y-80255016D01*
X92518187Y-80233608D01*
X92454539Y-80216554D01*
X92390892Y-80199500D01*
X92259108Y-80199500D01*
X92131812Y-80233608D01*
X92123264Y-80238544D01*
X92055364Y-80255016D01*
X91989337Y-80232163D01*
X91946147Y-80177241D01*
X91937265Y-80131156D01*
X91937265Y-80022345D01*
X91937265Y-80022343D01*
X91903157Y-79895049D01*
X91837265Y-79780921D01*
X91744079Y-79687735D01*
X91687015Y-79654789D01*
X91629952Y-79621843D01*
X91543512Y-79598682D01*
X91502657Y-79587735D01*
X91370873Y-79587735D01*
X91243577Y-79621843D01*
X91129451Y-79687735D01*
X91129448Y-79687737D01*
X91036267Y-79780918D01*
X91036265Y-79780921D01*
X90970373Y-79895047D01*
X90936265Y-80022343D01*
X87569345Y-80022343D01*
X87538170Y-79905996D01*
X87472278Y-79791868D01*
X87379092Y-79698682D01*
X87288179Y-79646193D01*
X87264965Y-79632790D01*
X87187691Y-79612085D01*
X87137670Y-79598682D01*
X87005886Y-79598682D01*
X86878590Y-79632790D01*
X86764464Y-79698682D01*
X86764461Y-79698684D01*
X86671280Y-79791865D01*
X86671278Y-79791868D01*
X86605386Y-79905994D01*
X86574211Y-80022343D01*
X86571278Y-80033290D01*
X71149730Y-80033290D01*
X71119213Y-79919399D01*
X71053321Y-79805271D01*
X70960135Y-79712085D01*
X70903071Y-79679139D01*
X70846008Y-79646193D01*
X70782360Y-79629139D01*
X70718713Y-79612085D01*
X70586929Y-79612085D01*
X70459633Y-79646193D01*
X70345507Y-79712085D01*
X70345504Y-79712087D01*
X70252323Y-79805268D01*
X70252321Y-79805271D01*
X70186429Y-79919397D01*
X70158845Y-80022345D01*
X70152321Y-80046693D01*
X70152321Y-80178477D01*
X70157954Y-80199500D01*
X70186429Y-80305772D01*
X70219375Y-80362835D01*
X70252321Y-80419899D01*
X70345507Y-80513085D01*
X70380378Y-80533218D01*
X70386094Y-80536518D01*
X70434310Y-80587085D01*
X70447532Y-80655692D01*
X70421564Y-80720557D01*
X70364650Y-80761085D01*
X70356194Y-80763677D01*
X70281814Y-80783608D01*
X70281812Y-80783608D01*
X70281812Y-80783609D01*
X70167686Y-80849500D01*
X70167683Y-80849502D01*
X70074502Y-80942683D01*
X70074500Y-80942686D01*
X70008608Y-81056812D01*
X69974500Y-81184108D01*
X55500500Y-81184108D01*
X55500500Y-78759108D01*
X69974500Y-78759108D01*
X69974500Y-78890891D01*
X70008608Y-79018187D01*
X70037476Y-79068186D01*
X70074500Y-79132314D01*
X70167686Y-79225500D01*
X70281814Y-79291392D01*
X70409108Y-79325500D01*
X70409110Y-79325500D01*
X70540890Y-79325500D01*
X70540892Y-79325500D01*
X70668186Y-79291392D01*
X70782314Y-79225500D01*
X70875500Y-79132314D01*
X70941392Y-79018186D01*
X70975500Y-78890892D01*
X70975500Y-78809108D01*
X85749500Y-78809108D01*
X85749500Y-78940891D01*
X85783608Y-79068187D01*
X85816554Y-79125250D01*
X85849500Y-79182314D01*
X85942686Y-79275500D01*
X86056814Y-79341392D01*
X86184108Y-79375500D01*
X86184110Y-79375500D01*
X86315890Y-79375500D01*
X86315892Y-79375500D01*
X86443186Y-79341392D01*
X86557314Y-79275500D01*
X86650500Y-79182314D01*
X86716392Y-79068186D01*
X86750500Y-78940892D01*
X86750500Y-78809108D01*
X86716392Y-78681814D01*
X86716390Y-78681811D01*
X86716391Y-78681811D01*
X86688849Y-78634108D01*
X93149500Y-78634108D01*
X93149500Y-78765891D01*
X93183608Y-78893187D01*
X93211151Y-78940892D01*
X93249500Y-79007314D01*
X93342686Y-79100500D01*
X93456814Y-79166392D01*
X93584108Y-79200500D01*
X93584110Y-79200500D01*
X93715890Y-79200500D01*
X93715892Y-79200500D01*
X93843186Y-79166392D01*
X93957314Y-79100500D01*
X94050500Y-79007314D01*
X94116392Y-78893186D01*
X94150500Y-78765892D01*
X94150500Y-78634108D01*
X94116392Y-78506814D01*
X94050500Y-78392686D01*
X93957314Y-78299500D01*
X93900250Y-78266554D01*
X93843187Y-78233608D01*
X93779539Y-78216554D01*
X93715892Y-78199500D01*
X93584108Y-78199500D01*
X93456812Y-78233608D01*
X93342686Y-78299500D01*
X93342683Y-78299502D01*
X93249502Y-78392683D01*
X93249500Y-78392686D01*
X93183608Y-78506812D01*
X93149500Y-78634108D01*
X86688849Y-78634108D01*
X86650502Y-78567689D01*
X86650497Y-78567683D01*
X86557316Y-78474502D01*
X86557314Y-78474500D01*
X86500250Y-78441554D01*
X86443187Y-78408608D01*
X86379539Y-78391554D01*
X86315892Y-78374500D01*
X86184108Y-78374500D01*
X86056812Y-78408608D01*
X85942686Y-78474500D01*
X85942683Y-78474502D01*
X85849502Y-78567683D01*
X85849500Y-78567686D01*
X85783608Y-78681812D01*
X85749500Y-78809108D01*
X70975500Y-78809108D01*
X70975500Y-78759108D01*
X70941392Y-78631814D01*
X70875500Y-78517686D01*
X70782314Y-78424500D01*
X70695712Y-78374500D01*
X70668187Y-78358608D01*
X70604539Y-78341554D01*
X70540892Y-78324500D01*
X70409108Y-78324500D01*
X70281812Y-78358608D01*
X70167686Y-78424500D01*
X70167683Y-78424502D01*
X70074502Y-78517683D01*
X70074500Y-78517686D01*
X70008608Y-78631812D01*
X69974500Y-78759108D01*
X55500500Y-78759108D01*
X55500500Y-77434108D01*
X62019499Y-77434108D01*
X62019499Y-77565891D01*
X62053607Y-77693187D01*
X62086553Y-77750250D01*
X62119499Y-77807314D01*
X62212685Y-77900500D01*
X62326813Y-77966392D01*
X62454107Y-78000500D01*
X62454109Y-78000500D01*
X62585889Y-78000500D01*
X62585891Y-78000500D01*
X62713185Y-77966392D01*
X62827313Y-77900500D01*
X62920499Y-77807314D01*
X62986391Y-77693186D01*
X63020499Y-77565892D01*
X63020499Y-77509108D01*
X73924500Y-77509108D01*
X73924500Y-77640891D01*
X73958608Y-77768187D01*
X73981200Y-77807316D01*
X74024500Y-77882314D01*
X74117686Y-77975500D01*
X74231814Y-78041392D01*
X74359108Y-78075500D01*
X74359110Y-78075500D01*
X74490890Y-78075500D01*
X74490892Y-78075500D01*
X74618186Y-78041392D01*
X74732314Y-77975500D01*
X74825500Y-77882314D01*
X74891392Y-77768186D01*
X74925500Y-77640892D01*
X74925500Y-77509108D01*
X74891392Y-77381814D01*
X74825500Y-77267686D01*
X74732314Y-77174500D01*
X74675250Y-77141554D01*
X74618187Y-77108608D01*
X74554539Y-77091554D01*
X74490892Y-77074500D01*
X74359108Y-77074500D01*
X74231812Y-77108608D01*
X74117686Y-77174500D01*
X74117683Y-77174502D01*
X74024502Y-77267683D01*
X74024500Y-77267686D01*
X73958608Y-77381812D01*
X73924500Y-77509108D01*
X63020499Y-77509108D01*
X63020499Y-77434108D01*
X62986391Y-77306814D01*
X62920499Y-77192686D01*
X62827313Y-77099500D01*
X62770249Y-77066554D01*
X62713186Y-77033608D01*
X62649538Y-77016554D01*
X62585891Y-76999500D01*
X62454107Y-76999500D01*
X62326811Y-77033608D01*
X62212685Y-77099500D01*
X62212682Y-77099502D01*
X62119501Y-77192683D01*
X62119499Y-77192686D01*
X62053607Y-77306812D01*
X62019499Y-77434108D01*
X55500500Y-77434108D01*
X55500500Y-76164108D01*
X62019500Y-76164108D01*
X62019500Y-76295891D01*
X62053608Y-76423187D01*
X62079589Y-76468186D01*
X62119500Y-76537314D01*
X62212686Y-76630500D01*
X62326814Y-76696392D01*
X62454108Y-76730500D01*
X62454110Y-76730500D01*
X62585890Y-76730500D01*
X62585892Y-76730500D01*
X62713186Y-76696392D01*
X62827314Y-76630500D01*
X62920500Y-76537314D01*
X62986392Y-76423186D01*
X63020500Y-76295892D01*
X63020500Y-76209108D01*
X75249500Y-76209108D01*
X75249500Y-76340891D01*
X75283608Y-76468187D01*
X75316554Y-76525250D01*
X75349500Y-76582314D01*
X75442686Y-76675500D01*
X75556814Y-76741392D01*
X75684108Y-76775500D01*
X75684110Y-76775500D01*
X75815890Y-76775500D01*
X75815892Y-76775500D01*
X75943186Y-76741392D01*
X76057314Y-76675500D01*
X76150500Y-76582314D01*
X76216392Y-76468186D01*
X76250500Y-76340892D01*
X76250500Y-76209108D01*
X76216392Y-76081814D01*
X76150500Y-75967686D01*
X76057314Y-75874500D01*
X76000250Y-75841554D01*
X75943187Y-75808608D01*
X75879539Y-75791554D01*
X75815892Y-75774500D01*
X75684108Y-75774500D01*
X75556812Y-75808608D01*
X75442686Y-75874500D01*
X75442683Y-75874502D01*
X75349502Y-75967683D01*
X75349500Y-75967686D01*
X75283608Y-76081812D01*
X75249500Y-76209108D01*
X63020500Y-76209108D01*
X63020500Y-76164108D01*
X62986392Y-76036814D01*
X62920500Y-75922686D01*
X62827314Y-75829500D01*
X62770250Y-75796554D01*
X62713187Y-75763608D01*
X62649539Y-75746554D01*
X62585892Y-75729500D01*
X62454108Y-75729500D01*
X62326812Y-75763608D01*
X62212686Y-75829500D01*
X62212683Y-75829502D01*
X62119502Y-75922683D01*
X62119500Y-75922686D01*
X62053608Y-76036812D01*
X62019500Y-76164108D01*
X55500500Y-76164108D01*
X55500500Y-74894108D01*
X57949500Y-74894108D01*
X57949500Y-75025892D01*
X57966554Y-75089539D01*
X57983608Y-75153187D01*
X57987027Y-75159108D01*
X58049500Y-75267314D01*
X58142686Y-75360500D01*
X58256814Y-75426392D01*
X58384108Y-75460500D01*
X58384110Y-75460500D01*
X58515890Y-75460500D01*
X58515892Y-75460500D01*
X58643186Y-75426392D01*
X58757314Y-75360500D01*
X58850500Y-75267314D01*
X58916392Y-75153186D01*
X58950500Y-75025892D01*
X58950500Y-74894108D01*
X62019500Y-74894108D01*
X62019500Y-75025892D01*
X62036554Y-75089539D01*
X62053608Y-75153187D01*
X62057027Y-75159108D01*
X62119500Y-75267314D01*
X62212686Y-75360500D01*
X62326814Y-75426392D01*
X62454108Y-75460500D01*
X62454110Y-75460500D01*
X62585890Y-75460500D01*
X62585892Y-75460500D01*
X62713186Y-75426392D01*
X62827314Y-75360500D01*
X62920500Y-75267314D01*
X62986392Y-75153186D01*
X63020500Y-75025892D01*
X63020500Y-74894108D01*
X76099500Y-74894108D01*
X76099500Y-75025892D01*
X76116554Y-75089539D01*
X76133608Y-75153187D01*
X76137027Y-75159108D01*
X76199500Y-75267314D01*
X76292686Y-75360500D01*
X76406814Y-75426392D01*
X76534108Y-75460500D01*
X76534110Y-75460500D01*
X76665890Y-75460500D01*
X76665892Y-75460500D01*
X76793186Y-75426392D01*
X76907314Y-75360500D01*
X77000500Y-75267314D01*
X77000504Y-75267306D01*
X77002123Y-75265198D01*
X77003950Y-75263863D01*
X77006247Y-75261567D01*
X77006605Y-75261925D01*
X77058551Y-75223994D01*
X77128297Y-75219839D01*
X77189217Y-75254050D01*
X77221971Y-75315767D01*
X77224500Y-75340683D01*
X77224500Y-75465891D01*
X77258608Y-75593187D01*
X77291554Y-75650250D01*
X77324500Y-75707314D01*
X77417686Y-75800500D01*
X77531814Y-75866392D01*
X77659108Y-75900500D01*
X77659110Y-75900500D01*
X77790890Y-75900500D01*
X77790892Y-75900500D01*
X77918186Y-75866392D01*
X78032314Y-75800500D01*
X78125500Y-75707314D01*
X78191392Y-75593186D01*
X78225500Y-75465892D01*
X78225500Y-75334108D01*
X78191392Y-75206814D01*
X78125500Y-75092686D01*
X78032314Y-74999500D01*
X77974100Y-74965890D01*
X77918187Y-74933608D01*
X77854539Y-74916554D01*
X77790892Y-74899500D01*
X77659108Y-74899500D01*
X77531812Y-74933608D01*
X77417686Y-74999500D01*
X77417683Y-74999502D01*
X77324498Y-75092687D01*
X77322872Y-75094807D01*
X77321045Y-75096140D01*
X77318753Y-75098433D01*
X77318395Y-75098075D01*
X77266443Y-75136007D01*
X77196696Y-75140159D01*
X77135778Y-75105944D01*
X77103028Y-75044225D01*
X77100500Y-75019316D01*
X77100500Y-74894110D01*
X77100500Y-74894108D01*
X77066392Y-74766814D01*
X77000500Y-74652686D01*
X76907314Y-74559500D01*
X76816929Y-74507316D01*
X76793187Y-74493608D01*
X76705758Y-74470182D01*
X76665892Y-74459500D01*
X76534108Y-74459500D01*
X76406812Y-74493608D01*
X76292686Y-74559500D01*
X76292683Y-74559502D01*
X76199502Y-74652683D01*
X76199500Y-74652686D01*
X76133608Y-74766812D01*
X76111452Y-74849502D01*
X76099500Y-74894108D01*
X63020500Y-74894108D01*
X62986392Y-74766814D01*
X62920500Y-74652686D01*
X62827314Y-74559500D01*
X62736929Y-74507316D01*
X62713187Y-74493608D01*
X62625758Y-74470182D01*
X62585892Y-74459500D01*
X62454108Y-74459500D01*
X62326812Y-74493608D01*
X62212686Y-74559500D01*
X62212683Y-74559502D01*
X62119502Y-74652683D01*
X62119500Y-74652686D01*
X62053608Y-74766812D01*
X62031452Y-74849502D01*
X62019500Y-74894108D01*
X58950500Y-74894108D01*
X58916392Y-74766814D01*
X58850500Y-74652686D01*
X58757314Y-74559500D01*
X58666929Y-74507316D01*
X58643187Y-74493608D01*
X58555758Y-74470182D01*
X58515892Y-74459500D01*
X58384108Y-74459500D01*
X58256812Y-74493608D01*
X58142686Y-74559500D01*
X58142683Y-74559502D01*
X58049502Y-74652683D01*
X58049500Y-74652686D01*
X57983608Y-74766812D01*
X57961452Y-74849502D01*
X57949500Y-74894108D01*
X55500500Y-74894108D01*
X55500500Y-74209108D01*
X71024500Y-74209108D01*
X71024500Y-74340892D01*
X71033253Y-74373560D01*
X71058608Y-74468187D01*
X71081200Y-74507316D01*
X71124500Y-74582314D01*
X71217686Y-74675500D01*
X71331814Y-74741392D01*
X71459108Y-74775500D01*
X71459110Y-74775500D01*
X71590890Y-74775500D01*
X71590892Y-74775500D01*
X71718186Y-74741392D01*
X71832314Y-74675500D01*
X71925500Y-74582314D01*
X71969546Y-74506023D01*
X72020112Y-74457808D01*
X72088719Y-74444584D01*
X72153584Y-74470552D01*
X72184319Y-74506021D01*
X72199497Y-74532310D01*
X72199499Y-74532312D01*
X72199500Y-74532314D01*
X72292686Y-74625500D01*
X72406814Y-74691392D01*
X72534108Y-74725500D01*
X72534110Y-74725500D01*
X72665890Y-74725500D01*
X72665892Y-74725500D01*
X72793186Y-74691392D01*
X72907314Y-74625500D01*
X72999819Y-74532995D01*
X73061142Y-74499510D01*
X73130834Y-74504494D01*
X73175181Y-74532995D01*
X73242686Y-74600500D01*
X73356814Y-74666392D01*
X73484108Y-74700500D01*
X73484110Y-74700500D01*
X73615890Y-74700500D01*
X73615892Y-74700500D01*
X73743186Y-74666392D01*
X73857314Y-74600500D01*
X73950500Y-74507314D01*
X74016392Y-74393186D01*
X74050500Y-74265892D01*
X74050500Y-74134108D01*
X74016392Y-74006814D01*
X73950500Y-73892686D01*
X73857314Y-73799500D01*
X73743186Y-73733608D01*
X73615892Y-73699500D01*
X73484108Y-73699500D01*
X73356812Y-73733608D01*
X73242686Y-73799500D01*
X73242683Y-73799502D01*
X73150181Y-73892005D01*
X73088858Y-73925490D01*
X73019166Y-73920506D01*
X72974819Y-73892005D01*
X72907316Y-73824502D01*
X72907314Y-73824500D01*
X72820712Y-73774500D01*
X72793187Y-73758608D01*
X72729539Y-73741554D01*
X72665892Y-73724500D01*
X72534108Y-73724500D01*
X72406812Y-73758608D01*
X72292686Y-73824500D01*
X72292683Y-73824502D01*
X72199502Y-73917683D01*
X72199500Y-73917686D01*
X72155453Y-73993977D01*
X72104885Y-74042192D01*
X72036278Y-74055414D01*
X71971413Y-74029446D01*
X71940680Y-73993977D01*
X71925789Y-73968187D01*
X71925500Y-73967686D01*
X71832314Y-73874500D01*
X71774100Y-73840890D01*
X71718187Y-73808608D01*
X71654539Y-73791554D01*
X71590892Y-73774500D01*
X71459108Y-73774500D01*
X71331812Y-73808608D01*
X71217686Y-73874500D01*
X71217683Y-73874502D01*
X71124502Y-73967683D01*
X71124500Y-73967686D01*
X71058608Y-74081812D01*
X71033506Y-74175497D01*
X71024500Y-74209108D01*
X55500500Y-74209108D01*
X55500500Y-73634108D01*
X74549500Y-73634108D01*
X74549500Y-73765892D01*
X74558505Y-73799498D01*
X74583608Y-73893187D01*
X74597751Y-73917683D01*
X74649500Y-74007314D01*
X74742686Y-74100500D01*
X74856814Y-74166392D01*
X74984108Y-74200500D01*
X74984110Y-74200500D01*
X75115890Y-74200500D01*
X75115892Y-74200500D01*
X75243186Y-74166392D01*
X75357314Y-74100500D01*
X75450500Y-74007314D01*
X75516392Y-73893186D01*
X75550500Y-73765892D01*
X75550500Y-73717806D01*
X75553054Y-73709108D01*
X82099500Y-73709108D01*
X82099500Y-73840891D01*
X82133608Y-73968187D01*
X82156200Y-74007316D01*
X82199500Y-74082314D01*
X82292686Y-74175500D01*
X82406814Y-74241392D01*
X82430422Y-74247717D01*
X82490082Y-74284081D01*
X82520612Y-74346928D01*
X82512318Y-74416303D01*
X82467833Y-74470182D01*
X82460331Y-74474878D01*
X82417689Y-74499498D01*
X82417683Y-74499502D01*
X82324502Y-74592683D01*
X82324500Y-74592686D01*
X82258608Y-74706812D01*
X82224500Y-74834108D01*
X82224500Y-74965891D01*
X82258608Y-75093187D01*
X82280416Y-75130959D01*
X82324500Y-75207314D01*
X82417686Y-75300500D01*
X82487285Y-75340683D01*
X82521603Y-75360497D01*
X82531814Y-75366392D01*
X82659108Y-75400500D01*
X82659110Y-75400500D01*
X82790890Y-75400500D01*
X82790892Y-75400500D01*
X82918186Y-75366392D01*
X83032314Y-75300500D01*
X83125500Y-75207314D01*
X83153332Y-75159108D01*
X90974500Y-75159108D01*
X90974500Y-75290892D01*
X90981165Y-75315767D01*
X91008608Y-75418187D01*
X91036151Y-75465892D01*
X91074500Y-75532314D01*
X91167686Y-75625500D01*
X91281814Y-75691392D01*
X91409108Y-75725500D01*
X91409110Y-75725500D01*
X91540890Y-75725500D01*
X91540892Y-75725500D01*
X91668186Y-75691392D01*
X91782314Y-75625500D01*
X91799819Y-75607995D01*
X91861142Y-75574510D01*
X91930834Y-75579494D01*
X91975181Y-75607995D01*
X92017686Y-75650500D01*
X92131814Y-75716392D01*
X92259108Y-75750500D01*
X92259110Y-75750500D01*
X92390890Y-75750500D01*
X92390892Y-75750500D01*
X92518186Y-75716392D01*
X92632314Y-75650500D01*
X92725500Y-75557314D01*
X92788847Y-75447594D01*
X92839413Y-75399380D01*
X92908020Y-75386156D01*
X92972885Y-75412124D01*
X93013413Y-75469038D01*
X93016007Y-75477499D01*
X93033608Y-75543186D01*
X93099500Y-75657314D01*
X93192686Y-75750500D01*
X93306814Y-75816392D01*
X93434108Y-75850500D01*
X93434110Y-75850500D01*
X93565890Y-75850500D01*
X93565892Y-75850500D01*
X93693186Y-75816392D01*
X93807314Y-75750500D01*
X93900500Y-75657314D01*
X93966392Y-75543186D01*
X94000500Y-75415892D01*
X94000500Y-75284108D01*
X93966392Y-75156814D01*
X93963846Y-75152405D01*
X93954379Y-75136007D01*
X93900500Y-75042686D01*
X93807314Y-74949500D01*
X93750250Y-74916554D01*
X93693187Y-74883608D01*
X93629539Y-74866554D01*
X93565892Y-74849500D01*
X93434108Y-74849500D01*
X93306812Y-74883608D01*
X93192686Y-74949500D01*
X93192683Y-74949502D01*
X93099502Y-75042683D01*
X93099500Y-75042686D01*
X93036153Y-75152405D01*
X92985585Y-75200620D01*
X92916978Y-75213842D01*
X92852113Y-75187874D01*
X92811586Y-75130959D01*
X92808995Y-75122510D01*
X92791392Y-75056814D01*
X92725500Y-74942686D01*
X92632314Y-74849500D01*
X92575250Y-74816554D01*
X92518187Y-74783608D01*
X92453240Y-74766206D01*
X92390892Y-74749500D01*
X92259108Y-74749500D01*
X92131812Y-74783608D01*
X92017686Y-74849500D01*
X92017681Y-74849504D01*
X92000176Y-74867008D01*
X91938852Y-74900490D01*
X91869160Y-74895503D01*
X91824818Y-74867004D01*
X91782316Y-74824502D01*
X91782314Y-74824500D01*
X91697442Y-74775499D01*
X91668187Y-74758608D01*
X91603931Y-74741391D01*
X91540892Y-74724500D01*
X91409108Y-74724500D01*
X91281812Y-74758608D01*
X91167686Y-74824500D01*
X91167683Y-74824502D01*
X91074502Y-74917683D01*
X91074500Y-74917686D01*
X91008608Y-75031812D01*
X90975115Y-75156812D01*
X90974500Y-75159108D01*
X83153332Y-75159108D01*
X83191392Y-75093186D01*
X83225500Y-74965892D01*
X83225500Y-74834108D01*
X83191392Y-74706814D01*
X83125500Y-74592686D01*
X83032314Y-74499500D01*
X82937197Y-74444584D01*
X82918185Y-74433607D01*
X82894575Y-74427281D01*
X82834915Y-74390916D01*
X82804387Y-74328069D01*
X82812682Y-74258693D01*
X82857168Y-74204816D01*
X82864650Y-74200131D01*
X82907314Y-74175500D01*
X83000500Y-74082314D01*
X83066392Y-73968186D01*
X83100500Y-73840892D01*
X83100500Y-73709108D01*
X83066392Y-73581814D01*
X83000500Y-73467686D01*
X82907314Y-73374500D01*
X82850250Y-73341554D01*
X82793187Y-73308608D01*
X82729539Y-73291554D01*
X82665892Y-73274500D01*
X82534108Y-73274500D01*
X82406812Y-73308608D01*
X82292686Y-73374500D01*
X82292683Y-73374502D01*
X82199502Y-73467683D01*
X82199500Y-73467686D01*
X82133608Y-73581812D01*
X82099500Y-73709108D01*
X75553054Y-73709108D01*
X75570185Y-73650767D01*
X75622989Y-73605012D01*
X75692147Y-73595068D01*
X75706585Y-73598029D01*
X75809108Y-73625500D01*
X75809110Y-73625500D01*
X75940890Y-73625500D01*
X75940892Y-73625500D01*
X76068186Y-73591392D01*
X76182314Y-73525500D01*
X76275500Y-73432314D01*
X76341392Y-73318186D01*
X76375500Y-73190892D01*
X76375500Y-73154519D01*
X76395121Y-73087697D01*
X78101025Y-73087697D01*
X78101025Y-73219480D01*
X78135133Y-73346776D01*
X78151140Y-73374500D01*
X78201025Y-73460903D01*
X78294211Y-73554089D01*
X78408339Y-73619981D01*
X78535633Y-73654089D01*
X78535635Y-73654089D01*
X78667415Y-73654089D01*
X78667417Y-73654089D01*
X78794711Y-73619981D01*
X78908839Y-73554089D01*
X79002025Y-73460903D01*
X79067917Y-73346775D01*
X79102025Y-73219481D01*
X79102025Y-73087697D01*
X79067917Y-72960403D01*
X79002025Y-72846275D01*
X78908839Y-72753089D01*
X78851775Y-72720143D01*
X78794712Y-72687197D01*
X78731064Y-72670143D01*
X78689880Y-72659108D01*
X81349500Y-72659108D01*
X81349500Y-72790892D01*
X81361944Y-72837333D01*
X81383608Y-72918187D01*
X81407981Y-72960401D01*
X81449500Y-73032314D01*
X81542686Y-73125500D01*
X81627092Y-73174232D01*
X81655944Y-73190890D01*
X81656814Y-73191392D01*
X81784108Y-73225500D01*
X81784110Y-73225500D01*
X81915890Y-73225500D01*
X81915892Y-73225500D01*
X82043186Y-73191392D01*
X82157314Y-73125500D01*
X82250500Y-73032314D01*
X82316392Y-72918186D01*
X82350500Y-72790892D01*
X82350500Y-72659108D01*
X82316392Y-72531814D01*
X82259981Y-72434108D01*
X93024500Y-72434108D01*
X93024500Y-72565892D01*
X93041554Y-72629539D01*
X93058608Y-72693187D01*
X93075940Y-72723206D01*
X93124500Y-72807314D01*
X93217686Y-72900500D01*
X93331814Y-72966392D01*
X93459108Y-73000500D01*
X93459110Y-73000500D01*
X93590890Y-73000500D01*
X93590892Y-73000500D01*
X93718186Y-72966392D01*
X93832314Y-72900500D01*
X93925500Y-72807314D01*
X93991392Y-72693186D01*
X94025500Y-72565892D01*
X94025500Y-72434108D01*
X93991392Y-72306814D01*
X93925500Y-72192686D01*
X93832314Y-72099500D01*
X93762355Y-72059109D01*
X93718187Y-72033608D01*
X93654539Y-72016554D01*
X93590892Y-71999500D01*
X93459108Y-71999500D01*
X93331812Y-72033608D01*
X93217686Y-72099500D01*
X93217683Y-72099502D01*
X93124502Y-72192683D01*
X93124500Y-72192686D01*
X93058608Y-72306812D01*
X93028901Y-72417683D01*
X93024500Y-72434108D01*
X82259981Y-72434108D01*
X82250500Y-72417686D01*
X82157314Y-72324500D01*
X82100250Y-72291554D01*
X82043187Y-72258608D01*
X81979539Y-72241554D01*
X81915892Y-72224500D01*
X81784108Y-72224500D01*
X81656812Y-72258608D01*
X81542686Y-72324500D01*
X81542683Y-72324502D01*
X81449502Y-72417683D01*
X81449500Y-72417686D01*
X81383608Y-72531812D01*
X81366005Y-72597510D01*
X81349500Y-72659108D01*
X78689880Y-72659108D01*
X78667417Y-72653089D01*
X78535633Y-72653089D01*
X78408337Y-72687197D01*
X78294211Y-72753089D01*
X78294208Y-72753091D01*
X78201027Y-72846272D01*
X78201025Y-72846275D01*
X78135133Y-72960401D01*
X78101025Y-73087697D01*
X76395121Y-73087697D01*
X76395185Y-73087480D01*
X76447989Y-73041725D01*
X76499500Y-73030519D01*
X76624316Y-73030519D01*
X76624318Y-73030519D01*
X76751612Y-72996411D01*
X76865740Y-72930519D01*
X76958926Y-72837333D01*
X77024818Y-72723205D01*
X77058926Y-72595911D01*
X77058926Y-72464127D01*
X77024818Y-72336833D01*
X76958926Y-72222705D01*
X76865740Y-72129519D01*
X76808676Y-72096573D01*
X76751613Y-72063627D01*
X76734744Y-72059107D01*
X79949500Y-72059107D01*
X79949500Y-72190891D01*
X79966554Y-72254538D01*
X79983608Y-72318186D01*
X79987255Y-72324502D01*
X80049500Y-72432313D01*
X80142686Y-72525499D01*
X80241521Y-72582562D01*
X80256810Y-72591389D01*
X80256814Y-72591391D01*
X80384108Y-72625499D01*
X80384110Y-72625499D01*
X80515890Y-72625499D01*
X80515892Y-72625499D01*
X80643186Y-72591391D01*
X80757314Y-72525499D01*
X80850500Y-72432313D01*
X80916392Y-72318185D01*
X80950500Y-72190891D01*
X80950500Y-72059107D01*
X80916392Y-71931813D01*
X80850500Y-71817685D01*
X80757314Y-71724499D01*
X80700250Y-71691553D01*
X80643187Y-71658607D01*
X80579539Y-71641553D01*
X80515892Y-71624499D01*
X80384108Y-71624499D01*
X80256812Y-71658607D01*
X80142686Y-71724499D01*
X80142683Y-71724501D01*
X80049502Y-71817682D01*
X80049500Y-71817685D01*
X79983608Y-71931811D01*
X79965471Y-71999500D01*
X79949500Y-72059107D01*
X76734744Y-72059107D01*
X76687965Y-72046573D01*
X76624318Y-72029519D01*
X76492534Y-72029519D01*
X76365238Y-72063627D01*
X76251112Y-72129519D01*
X76251109Y-72129521D01*
X76157928Y-72222702D01*
X76157926Y-72222705D01*
X76092034Y-72336831D01*
X76057926Y-72464127D01*
X76057926Y-72500500D01*
X76038241Y-72567539D01*
X75985437Y-72613294D01*
X75933926Y-72624500D01*
X75809108Y-72624500D01*
X75681812Y-72658608D01*
X75567686Y-72724500D01*
X75567683Y-72724502D01*
X75474502Y-72817683D01*
X75474500Y-72817686D01*
X75408608Y-72931812D01*
X75374500Y-73059108D01*
X75374500Y-73107193D01*
X75354815Y-73174232D01*
X75302011Y-73219987D01*
X75232853Y-73229931D01*
X75218408Y-73226968D01*
X75115893Y-73199500D01*
X75115892Y-73199500D01*
X74984108Y-73199500D01*
X74856812Y-73233608D01*
X74742686Y-73299500D01*
X74742683Y-73299502D01*
X74649502Y-73392683D01*
X74649500Y-73392686D01*
X74583608Y-73506812D01*
X74553285Y-73619981D01*
X74549500Y-73634108D01*
X55500500Y-73634108D01*
X55500500Y-72932116D01*
X65626492Y-72932116D01*
X65626492Y-73063899D01*
X65660600Y-73191195D01*
X65681254Y-73226968D01*
X65726492Y-73305322D01*
X65819678Y-73398508D01*
X65933806Y-73464400D01*
X66061100Y-73498508D01*
X66061102Y-73498508D01*
X66192882Y-73498508D01*
X66192884Y-73498508D01*
X66320178Y-73464400D01*
X66434306Y-73398508D01*
X66527492Y-73305322D01*
X66593384Y-73191194D01*
X66627492Y-73063900D01*
X66627492Y-72932116D01*
X66593384Y-72804822D01*
X66585341Y-72790892D01*
X66563517Y-72753091D01*
X66527492Y-72690694D01*
X66434306Y-72597508D01*
X66377242Y-72564562D01*
X66320179Y-72531616D01*
X66204050Y-72500500D01*
X66192884Y-72497508D01*
X66061100Y-72497508D01*
X65933804Y-72531616D01*
X65819678Y-72597508D01*
X65819675Y-72597510D01*
X65726494Y-72690691D01*
X65726492Y-72690694D01*
X65660600Y-72804820D01*
X65626492Y-72932116D01*
X55500500Y-72932116D01*
X55500500Y-69709108D01*
X74474500Y-69709108D01*
X74474500Y-69840891D01*
X74508608Y-69968187D01*
X74541554Y-70025250D01*
X74574500Y-70082314D01*
X74667686Y-70175500D01*
X74781814Y-70241392D01*
X74909108Y-70275500D01*
X74909110Y-70275500D01*
X75040890Y-70275500D01*
X75040892Y-70275500D01*
X75168186Y-70241392D01*
X75282314Y-70175500D01*
X75375500Y-70082314D01*
X75441392Y-69968186D01*
X75475500Y-69840892D01*
X75475500Y-69709108D01*
X75441392Y-69581814D01*
X75375500Y-69467686D01*
X75282314Y-69374500D01*
X75212696Y-69334306D01*
X75168187Y-69308608D01*
X75104539Y-69291554D01*
X75040892Y-69274500D01*
X74909108Y-69274500D01*
X74781812Y-69308608D01*
X74667686Y-69374500D01*
X74667683Y-69374502D01*
X74574502Y-69467683D01*
X74574500Y-69467686D01*
X74508608Y-69581812D01*
X74474500Y-69709108D01*
X55500500Y-69709108D01*
X55500500Y-68961100D01*
X69472508Y-68961100D01*
X69472508Y-69092883D01*
X69506616Y-69220179D01*
X69537979Y-69274500D01*
X69572508Y-69334306D01*
X69665694Y-69427492D01*
X69779822Y-69493384D01*
X69907116Y-69527492D01*
X69907118Y-69527492D01*
X70038898Y-69527492D01*
X70038900Y-69527492D01*
X70166194Y-69493384D01*
X70280322Y-69427492D01*
X70373508Y-69334306D01*
X70439400Y-69220178D01*
X70473508Y-69092884D01*
X70473508Y-68961100D01*
X70439400Y-68833806D01*
X70373508Y-68719678D01*
X70280322Y-68626492D01*
X70223258Y-68593546D01*
X70166195Y-68560600D01*
X70102547Y-68543546D01*
X70038900Y-68526492D01*
X69907116Y-68526492D01*
X69779820Y-68560600D01*
X69665694Y-68626492D01*
X69665691Y-68626494D01*
X69572510Y-68719675D01*
X69572508Y-68719678D01*
X69506616Y-68833804D01*
X69472508Y-68961100D01*
X55500500Y-68961100D01*
X55500500Y-66659108D01*
X91287000Y-66659108D01*
X91287000Y-66790891D01*
X91321108Y-66918187D01*
X91354054Y-66975250D01*
X91387000Y-67032314D01*
X91480186Y-67125500D01*
X91594314Y-67191392D01*
X91721608Y-67225500D01*
X91721610Y-67225500D01*
X91853390Y-67225500D01*
X91853392Y-67225500D01*
X91980686Y-67191392D01*
X92094814Y-67125500D01*
X92188000Y-67032314D01*
X92253892Y-66918186D01*
X92288000Y-66790892D01*
X92288000Y-66659108D01*
X92253892Y-66531814D01*
X92188000Y-66417686D01*
X92094814Y-66324500D01*
X92037750Y-66291554D01*
X91980687Y-66258608D01*
X91917039Y-66241554D01*
X91853392Y-66224500D01*
X91721608Y-66224500D01*
X91594312Y-66258608D01*
X91480186Y-66324500D01*
X91480183Y-66324502D01*
X91387002Y-66417683D01*
X91387000Y-66417686D01*
X91321108Y-66531812D01*
X91287000Y-66659108D01*
X55500500Y-66659108D01*
X55500500Y-65034108D01*
X59724500Y-65034108D01*
X59724500Y-65165892D01*
X59740472Y-65225500D01*
X59758608Y-65293187D01*
X59791554Y-65350250D01*
X59824500Y-65407314D01*
X59917686Y-65500500D01*
X60031814Y-65566392D01*
X60159108Y-65600500D01*
X60159110Y-65600500D01*
X60290890Y-65600500D01*
X60290892Y-65600500D01*
X60418186Y-65566392D01*
X60532314Y-65500500D01*
X60625500Y-65407314D01*
X60691392Y-65293186D01*
X60725500Y-65165892D01*
X60725500Y-65034108D01*
X60712103Y-64984108D01*
X74374500Y-64984108D01*
X74374500Y-65115891D01*
X74408608Y-65243187D01*
X74436439Y-65291391D01*
X74474500Y-65357314D01*
X74567686Y-65450500D01*
X74681814Y-65516392D01*
X74809108Y-65550500D01*
X74809110Y-65550500D01*
X74940890Y-65550500D01*
X74940892Y-65550500D01*
X75068186Y-65516392D01*
X75182314Y-65450500D01*
X75275500Y-65357314D01*
X75341392Y-65243186D01*
X75375500Y-65115892D01*
X75375500Y-64984108D01*
X75341392Y-64856814D01*
X75284981Y-64759108D01*
X91287000Y-64759108D01*
X91287000Y-64890891D01*
X91321108Y-65018187D01*
X91354054Y-65075250D01*
X91387000Y-65132314D01*
X91480186Y-65225500D01*
X91594314Y-65291392D01*
X91721608Y-65325500D01*
X91721610Y-65325500D01*
X91853390Y-65325500D01*
X91853392Y-65325500D01*
X91980686Y-65291392D01*
X92094814Y-65225500D01*
X92188000Y-65132314D01*
X92253892Y-65018186D01*
X92288000Y-64890892D01*
X92288000Y-64759108D01*
X92253892Y-64631814D01*
X92188000Y-64517686D01*
X92094814Y-64424500D01*
X92037750Y-64391554D01*
X91980687Y-64358608D01*
X91917039Y-64341554D01*
X91853392Y-64324500D01*
X91721608Y-64324500D01*
X91594312Y-64358608D01*
X91480186Y-64424500D01*
X91480183Y-64424502D01*
X91387002Y-64517683D01*
X91387000Y-64517686D01*
X91321108Y-64631812D01*
X91287000Y-64759108D01*
X75284981Y-64759108D01*
X75275500Y-64742686D01*
X75182314Y-64649500D01*
X75095435Y-64599340D01*
X75068187Y-64583608D01*
X75004539Y-64566554D01*
X74940892Y-64549500D01*
X74809108Y-64549500D01*
X74681812Y-64583608D01*
X74567686Y-64649500D01*
X74567683Y-64649502D01*
X74474502Y-64742683D01*
X74474500Y-64742686D01*
X74408608Y-64856812D01*
X74374500Y-64984108D01*
X60712103Y-64984108D01*
X60691392Y-64906814D01*
X60625500Y-64792686D01*
X60532314Y-64699500D01*
X60418186Y-64633608D01*
X60379055Y-64623123D01*
X60319397Y-64586759D01*
X60288868Y-64523912D01*
X60297163Y-64454536D01*
X60341648Y-64400658D01*
X60379055Y-64383575D01*
X60443186Y-64366392D01*
X60557314Y-64300500D01*
X60650500Y-64207314D01*
X60716392Y-64093186D01*
X60750500Y-63965892D01*
X60750500Y-63959108D01*
X61774500Y-63959108D01*
X61774500Y-64090891D01*
X61808608Y-64218187D01*
X61841554Y-64275250D01*
X61874500Y-64332314D01*
X61967686Y-64425500D01*
X62081814Y-64491392D01*
X62209108Y-64525500D01*
X62209110Y-64525500D01*
X62340890Y-64525500D01*
X62340892Y-64525500D01*
X62468186Y-64491392D01*
X62582314Y-64425500D01*
X62675500Y-64332314D01*
X62741392Y-64218186D01*
X62775500Y-64090892D01*
X62775500Y-63959108D01*
X65299500Y-63959108D01*
X65299500Y-64090891D01*
X65333608Y-64218187D01*
X65366554Y-64275250D01*
X65399500Y-64332314D01*
X65492686Y-64425500D01*
X65606814Y-64491392D01*
X65734108Y-64525500D01*
X65734110Y-64525500D01*
X65865890Y-64525500D01*
X65865892Y-64525500D01*
X65993186Y-64491392D01*
X66107314Y-64425500D01*
X66200500Y-64332314D01*
X66266392Y-64218186D01*
X66300500Y-64090892D01*
X66300500Y-63959108D01*
X68874500Y-63959108D01*
X68874500Y-64090891D01*
X68908608Y-64218187D01*
X68941554Y-64275250D01*
X68974500Y-64332314D01*
X69067686Y-64425500D01*
X69181814Y-64491392D01*
X69309108Y-64525500D01*
X69309110Y-64525500D01*
X69440890Y-64525500D01*
X69440892Y-64525500D01*
X69568186Y-64491392D01*
X69682314Y-64425500D01*
X69775500Y-64332314D01*
X69841392Y-64218186D01*
X69875500Y-64090892D01*
X69875500Y-63959108D01*
X69841392Y-63831814D01*
X69775500Y-63717686D01*
X69682314Y-63624500D01*
X69625250Y-63591554D01*
X69568187Y-63558608D01*
X69504539Y-63541554D01*
X69440892Y-63524500D01*
X69309108Y-63524500D01*
X69181812Y-63558608D01*
X69067686Y-63624500D01*
X69067683Y-63624502D01*
X68974502Y-63717683D01*
X68974500Y-63717686D01*
X68908608Y-63831812D01*
X68874500Y-63959108D01*
X66300500Y-63959108D01*
X66266392Y-63831814D01*
X66200500Y-63717686D01*
X66107314Y-63624500D01*
X66050250Y-63591554D01*
X65993187Y-63558608D01*
X65929539Y-63541554D01*
X65865892Y-63524500D01*
X65734108Y-63524500D01*
X65606812Y-63558608D01*
X65492686Y-63624500D01*
X65492683Y-63624502D01*
X65399502Y-63717683D01*
X65399500Y-63717686D01*
X65333608Y-63831812D01*
X65299500Y-63959108D01*
X62775500Y-63959108D01*
X62741392Y-63831814D01*
X62675500Y-63717686D01*
X62582314Y-63624500D01*
X62525250Y-63591554D01*
X62468187Y-63558608D01*
X62404539Y-63541554D01*
X62340892Y-63524500D01*
X62209108Y-63524500D01*
X62081812Y-63558608D01*
X61967686Y-63624500D01*
X61967683Y-63624502D01*
X61874502Y-63717683D01*
X61874500Y-63717686D01*
X61808608Y-63831812D01*
X61774500Y-63959108D01*
X60750500Y-63959108D01*
X60750500Y-63834108D01*
X60716392Y-63706814D01*
X60650500Y-63592686D01*
X60557314Y-63499500D01*
X60500250Y-63466554D01*
X60443187Y-63433608D01*
X60379539Y-63416554D01*
X60315892Y-63399500D01*
X60184108Y-63399500D01*
X60056812Y-63433608D01*
X59942686Y-63499500D01*
X59942683Y-63499502D01*
X59849502Y-63592683D01*
X59849500Y-63592686D01*
X59783608Y-63706812D01*
X59749500Y-63834108D01*
X59749500Y-63965891D01*
X59783608Y-64093187D01*
X59816554Y-64150250D01*
X59849500Y-64207314D01*
X59942686Y-64300500D01*
X60056814Y-64366392D01*
X60095941Y-64376876D01*
X60155601Y-64413239D01*
X60186131Y-64476085D01*
X60177837Y-64545461D01*
X60133352Y-64599340D01*
X60095942Y-64616425D01*
X60031812Y-64633608D01*
X59917686Y-64699500D01*
X59917683Y-64699502D01*
X59824502Y-64792683D01*
X59824500Y-64792686D01*
X59758608Y-64906812D01*
X59737897Y-64984108D01*
X59724500Y-65034108D01*
X55500500Y-65034108D01*
X55500500Y-60123652D01*
X55520185Y-60056613D01*
X55572989Y-60010858D01*
X55624426Y-59999653D01*
X60385825Y-59997007D01*
X60452876Y-60016654D01*
X60498660Y-60069433D01*
X60505669Y-60088914D01*
X60533608Y-60193187D01*
X60566554Y-60250250D01*
X60599500Y-60307314D01*
X60692686Y-60400500D01*
X60806814Y-60466392D01*
X60934108Y-60500500D01*
X60934110Y-60500500D01*
X85082260Y-60500500D01*
X85149299Y-60520185D01*
X85195054Y-60572989D01*
X85204998Y-60642147D01*
X85194256Y-60674418D01*
X85194746Y-60674601D01*
X85141403Y-60817620D01*
X85141401Y-60817627D01*
X85135000Y-60877155D01*
X85135000Y-61525000D01*
X86051988Y-61525000D01*
X86019075Y-61582007D01*
X85985000Y-61709174D01*
X85985000Y-61840826D01*
X86019075Y-61967993D01*
X86051988Y-62025000D01*
X85135000Y-62025000D01*
X85135000Y-62672844D01*
X85141401Y-62732372D01*
X85141403Y-62732379D01*
X85191645Y-62867086D01*
X85191649Y-62867093D01*
X85277809Y-62982187D01*
X85277812Y-62982190D01*
X85392906Y-63068350D01*
X85392913Y-63068354D01*
X85527620Y-63118596D01*
X85527627Y-63118598D01*
X85587155Y-63124999D01*
X85587172Y-63125000D01*
X86235000Y-63125000D01*
X86235000Y-62208012D01*
X86292007Y-62240925D01*
X86419174Y-62275000D01*
X86550826Y-62275000D01*
X86677993Y-62240925D01*
X86735000Y-62208012D01*
X86735000Y-63125000D01*
X87382828Y-63125000D01*
X87382844Y-63124999D01*
X87442372Y-63118598D01*
X87442379Y-63118596D01*
X87577086Y-63068354D01*
X87577093Y-63068350D01*
X87692187Y-62982190D01*
X87692190Y-62982187D01*
X87778350Y-62867093D01*
X87778354Y-62867086D01*
X87828596Y-62732379D01*
X87828598Y-62732372D01*
X87834999Y-62672844D01*
X87835000Y-62672827D01*
X87835000Y-62270564D01*
X87854685Y-62203525D01*
X87907489Y-62157770D01*
X87976647Y-62147826D01*
X88040203Y-62176851D01*
X88073561Y-62223112D01*
X88080939Y-62240925D01*
X88094059Y-62272598D01*
X88170701Y-62387302D01*
X88209024Y-62444657D01*
X88355342Y-62590975D01*
X88355345Y-62590977D01*
X88527402Y-62705941D01*
X88718580Y-62785130D01*
X88921530Y-62825499D01*
X88921534Y-62825500D01*
X88921535Y-62825500D01*
X89128466Y-62825500D01*
X89128467Y-62825499D01*
X89331420Y-62785130D01*
X89522598Y-62705941D01*
X89694655Y-62590977D01*
X89840977Y-62444655D01*
X89955941Y-62272598D01*
X90035130Y-62081420D01*
X90075500Y-61878465D01*
X90075500Y-61671535D01*
X90035130Y-61468580D01*
X89955941Y-61277402D01*
X89840977Y-61105345D01*
X89840975Y-61105342D01*
X89694657Y-60959024D01*
X89572130Y-60877155D01*
X89522598Y-60844059D01*
X89331420Y-60764870D01*
X89331412Y-60764868D01*
X89237144Y-60746117D01*
X89175233Y-60713732D01*
X89140659Y-60653017D01*
X89144398Y-60583247D01*
X89185264Y-60526575D01*
X89250283Y-60500994D01*
X89261335Y-60500500D01*
X91328664Y-60500500D01*
X91395703Y-60520185D01*
X91441458Y-60572989D01*
X91451402Y-60642147D01*
X91422377Y-60705703D01*
X91363599Y-60743477D01*
X91352855Y-60746117D01*
X91258586Y-60764868D01*
X91258578Y-60764870D01*
X91067402Y-60844058D01*
X90895341Y-60959024D01*
X90749023Y-61105342D01*
X90634057Y-61277403D01*
X90554869Y-61468579D01*
X90554867Y-61468587D01*
X90514499Y-61671530D01*
X90514499Y-61878469D01*
X90554867Y-62081412D01*
X90554869Y-62081420D01*
X90634057Y-62272596D01*
X90749023Y-62444657D01*
X90895341Y-62590975D01*
X90895344Y-62590977D01*
X91067401Y-62705941D01*
X91258579Y-62785130D01*
X91461529Y-62825499D01*
X91461533Y-62825500D01*
X91461534Y-62825500D01*
X91668465Y-62825500D01*
X91668466Y-62825499D01*
X91871419Y-62785130D01*
X92062597Y-62705941D01*
X92234654Y-62590977D01*
X92380976Y-62444655D01*
X92495940Y-62272598D01*
X92575129Y-62081420D01*
X92615499Y-61878465D01*
X92615499Y-61671535D01*
X92575129Y-61468580D01*
X92495940Y-61277402D01*
X92380976Y-61105345D01*
X92380974Y-61105342D01*
X92234656Y-60959024D01*
X92112129Y-60877155D01*
X92062597Y-60844059D01*
X91871419Y-60764870D01*
X91871411Y-60764868D01*
X91777143Y-60746117D01*
X91715232Y-60713732D01*
X91680658Y-60653017D01*
X91684397Y-60583247D01*
X91725263Y-60526575D01*
X91790282Y-60500994D01*
X91801334Y-60500500D01*
X94065890Y-60500500D01*
X94065892Y-60500500D01*
X94193186Y-60466392D01*
X94307314Y-60400500D01*
X94400500Y-60307314D01*
X94466392Y-60193186D01*
X94499428Y-60069892D01*
X94535790Y-60010235D01*
X94598637Y-59979705D01*
X94619119Y-59977989D01*
X99375434Y-59975346D01*
X99442482Y-59994993D01*
G37*
%TD.AperFunction*%
%TD*%
M02*
