%TF.GenerationSoftware,KiCad,Pcbnew,10.0.4*%
%TF.CreationDate,2026-09-26T16:06:30+09:00*%
%TF.ProjectId,unit-board,756e6974-2d62-46f6-9172-642e6b696361,rev?*%
%TF.SameCoordinates,Original*%
%TF.FileFunction,Legend,Top*%
%TF.FilePolarity,Positive*%
%FSLAX46Y46*%
G04 Gerber Fmt 4.6, Leading zero omitted, Abs format (unit mm)*
G04 Created by KiCad (PCBNEW 10.0.4) date 2026-09-26 16:06:30*
%MOMM*%
%LPD*%
G01*
G04 APERTURE LIST*
%ADD10C,0.100000*%
%ADD11C,0.120000*%
%ADD12C,0.200000*%
G04 APERTURE END LIST*
D10*
X63163408Y-64446895D02*
X62896741Y-64065942D01*
X62706265Y-64446895D02*
X62706265Y-63646895D01*
X62706265Y-63646895D02*
X63011027Y-63646895D01*
X63011027Y-63646895D02*
X63087217Y-63684990D01*
X63087217Y-63684990D02*
X63125312Y-63723085D01*
X63125312Y-63723085D02*
X63163408Y-63799276D01*
X63163408Y-63799276D02*
X63163408Y-63913561D01*
X63163408Y-63913561D02*
X63125312Y-63989752D01*
X63125312Y-63989752D02*
X63087217Y-64027847D01*
X63087217Y-64027847D02*
X63011027Y-64065942D01*
X63011027Y-64065942D02*
X62706265Y-64065942D01*
X63506265Y-63646895D02*
X63506265Y-64294514D01*
X63506265Y-64294514D02*
X63544360Y-64370704D01*
X63544360Y-64370704D02*
X63582455Y-64408800D01*
X63582455Y-64408800D02*
X63658646Y-64446895D01*
X63658646Y-64446895D02*
X63811027Y-64446895D01*
X63811027Y-64446895D02*
X63887217Y-64408800D01*
X63887217Y-64408800D02*
X63925312Y-64370704D01*
X63925312Y-64370704D02*
X63963408Y-64294514D01*
X63963408Y-64294514D02*
X63963408Y-63646895D01*
X64344360Y-64446895D02*
X64344360Y-63646895D01*
X64344360Y-63646895D02*
X64801503Y-64446895D01*
X64801503Y-64446895D02*
X64801503Y-63646895D01*
X66788408Y-64270704D02*
X66750312Y-64308800D01*
X66750312Y-64308800D02*
X66636027Y-64346895D01*
X66636027Y-64346895D02*
X66559836Y-64346895D01*
X66559836Y-64346895D02*
X66445550Y-64308800D01*
X66445550Y-64308800D02*
X66369360Y-64232609D01*
X66369360Y-64232609D02*
X66331265Y-64156419D01*
X66331265Y-64156419D02*
X66293169Y-64004038D01*
X66293169Y-64004038D02*
X66293169Y-63889752D01*
X66293169Y-63889752D02*
X66331265Y-63737371D01*
X66331265Y-63737371D02*
X66369360Y-63661180D01*
X66369360Y-63661180D02*
X66445550Y-63584990D01*
X66445550Y-63584990D02*
X66559836Y-63546895D01*
X66559836Y-63546895D02*
X66636027Y-63546895D01*
X66636027Y-63546895D02*
X66750312Y-63584990D01*
X66750312Y-63584990D02*
X66788408Y-63623085D01*
X67283646Y-63546895D02*
X67436027Y-63546895D01*
X67436027Y-63546895D02*
X67512217Y-63584990D01*
X67512217Y-63584990D02*
X67588408Y-63661180D01*
X67588408Y-63661180D02*
X67626503Y-63813561D01*
X67626503Y-63813561D02*
X67626503Y-64080228D01*
X67626503Y-64080228D02*
X67588408Y-64232609D01*
X67588408Y-64232609D02*
X67512217Y-64308800D01*
X67512217Y-64308800D02*
X67436027Y-64346895D01*
X67436027Y-64346895D02*
X67283646Y-64346895D01*
X67283646Y-64346895D02*
X67207455Y-64308800D01*
X67207455Y-64308800D02*
X67131265Y-64232609D01*
X67131265Y-64232609D02*
X67093169Y-64080228D01*
X67093169Y-64080228D02*
X67093169Y-63813561D01*
X67093169Y-63813561D02*
X67131265Y-63661180D01*
X67131265Y-63661180D02*
X67207455Y-63584990D01*
X67207455Y-63584990D02*
X67283646Y-63546895D01*
X67969360Y-64346895D02*
X67969360Y-63546895D01*
X67969360Y-63546895D02*
X68236026Y-64118323D01*
X68236026Y-64118323D02*
X68502693Y-63546895D01*
X68502693Y-63546895D02*
X68502693Y-64346895D01*
X69831265Y-63952847D02*
X70097931Y-63952847D01*
X70212217Y-64371895D02*
X69831265Y-64371895D01*
X69831265Y-64371895D02*
X69831265Y-63571895D01*
X69831265Y-63571895D02*
X70212217Y-63571895D01*
X71012218Y-64371895D02*
X70745551Y-63990942D01*
X70555075Y-64371895D02*
X70555075Y-63571895D01*
X70555075Y-63571895D02*
X70859837Y-63571895D01*
X70859837Y-63571895D02*
X70936027Y-63609990D01*
X70936027Y-63609990D02*
X70974122Y-63648085D01*
X70974122Y-63648085D02*
X71012218Y-63724276D01*
X71012218Y-63724276D02*
X71012218Y-63838561D01*
X71012218Y-63838561D02*
X70974122Y-63914752D01*
X70974122Y-63914752D02*
X70936027Y-63952847D01*
X70936027Y-63952847D02*
X70859837Y-63990942D01*
X70859837Y-63990942D02*
X70555075Y-63990942D01*
X71812218Y-64371895D02*
X71545551Y-63990942D01*
X71355075Y-64371895D02*
X71355075Y-63571895D01*
X71355075Y-63571895D02*
X71659837Y-63571895D01*
X71659837Y-63571895D02*
X71736027Y-63609990D01*
X71736027Y-63609990D02*
X71774122Y-63648085D01*
X71774122Y-63648085D02*
X71812218Y-63724276D01*
X71812218Y-63724276D02*
X71812218Y-63838561D01*
X71812218Y-63838561D02*
X71774122Y-63914752D01*
X71774122Y-63914752D02*
X71736027Y-63952847D01*
X71736027Y-63952847D02*
X71659837Y-63990942D01*
X71659837Y-63990942D02*
X71355075Y-63990942D01*
X85780312Y-63359990D02*
X85704122Y-63321895D01*
X85704122Y-63321895D02*
X85589836Y-63321895D01*
X85589836Y-63321895D02*
X85475550Y-63359990D01*
X85475550Y-63359990D02*
X85399360Y-63436180D01*
X85399360Y-63436180D02*
X85361265Y-63512371D01*
X85361265Y-63512371D02*
X85323169Y-63664752D01*
X85323169Y-63664752D02*
X85323169Y-63779038D01*
X85323169Y-63779038D02*
X85361265Y-63931419D01*
X85361265Y-63931419D02*
X85399360Y-64007609D01*
X85399360Y-64007609D02*
X85475550Y-64083800D01*
X85475550Y-64083800D02*
X85589836Y-64121895D01*
X85589836Y-64121895D02*
X85666027Y-64121895D01*
X85666027Y-64121895D02*
X85780312Y-64083800D01*
X85780312Y-64083800D02*
X85818408Y-64045704D01*
X85818408Y-64045704D02*
X85818408Y-63779038D01*
X85818408Y-63779038D02*
X85666027Y-63779038D01*
X86161265Y-64121895D02*
X86161265Y-63321895D01*
X86161265Y-63321895D02*
X86618408Y-64121895D01*
X86618408Y-64121895D02*
X86618408Y-63321895D01*
X86999360Y-64121895D02*
X86999360Y-63321895D01*
X86999360Y-63321895D02*
X87189836Y-63321895D01*
X87189836Y-63321895D02*
X87304122Y-63359990D01*
X87304122Y-63359990D02*
X87380312Y-63436180D01*
X87380312Y-63436180D02*
X87418407Y-63512371D01*
X87418407Y-63512371D02*
X87456503Y-63664752D01*
X87456503Y-63664752D02*
X87456503Y-63779038D01*
X87456503Y-63779038D02*
X87418407Y-63931419D01*
X87418407Y-63931419D02*
X87380312Y-64007609D01*
X87380312Y-64007609D02*
X87304122Y-64083800D01*
X87304122Y-64083800D02*
X87189836Y-64121895D01*
X87189836Y-64121895D02*
X86999360Y-64121895D01*
X88541979Y-63296895D02*
X88999122Y-63296895D01*
X88770550Y-64096895D02*
X88770550Y-63296895D01*
X89189598Y-63296895D02*
X89722932Y-64096895D01*
X89722932Y-63296895D02*
X89189598Y-64096895D01*
X91563408Y-64111895D02*
X91296741Y-63730942D01*
X91106265Y-64111895D02*
X91106265Y-63311895D01*
X91106265Y-63311895D02*
X91411027Y-63311895D01*
X91411027Y-63311895D02*
X91487217Y-63349990D01*
X91487217Y-63349990D02*
X91525312Y-63388085D01*
X91525312Y-63388085D02*
X91563408Y-63464276D01*
X91563408Y-63464276D02*
X91563408Y-63578561D01*
X91563408Y-63578561D02*
X91525312Y-63654752D01*
X91525312Y-63654752D02*
X91487217Y-63692847D01*
X91487217Y-63692847D02*
X91411027Y-63730942D01*
X91411027Y-63730942D02*
X91106265Y-63730942D01*
X91830074Y-63311895D02*
X92363408Y-64111895D01*
X92363408Y-63311895D02*
X91830074Y-64111895D01*
X61162371Y-63863972D02*
X61771895Y-63521115D01*
X61771895Y-63521115D02*
X61771895Y-64206830D01*
X61771895Y-64206830D02*
X61162371Y-63863972D01*
X61537371Y-88613972D02*
X62146895Y-88271115D01*
X62146895Y-88271115D02*
X62146895Y-88956830D01*
X62146895Y-88956830D02*
X61537371Y-88613972D01*
X93337628Y-91211027D02*
X92728104Y-91553884D01*
X92728104Y-91553884D02*
X92728104Y-90868169D01*
X92728104Y-90868169D02*
X93337628Y-91211027D01*
X93737628Y-66361027D02*
X93128104Y-66703884D01*
X93128104Y-66703884D02*
X93128104Y-66018169D01*
X93128104Y-66018169D02*
X93737628Y-66361027D01*
%TO.C,C9*%
D11*
X67589970Y-83511219D02*
X67788781Y-83710030D01*
X68311219Y-82789970D02*
X68510030Y-82988781D01*
%TO.C,D2*%
X90090000Y-64215000D02*
X91610000Y-64215000D01*
X90090000Y-65215000D02*
X90090000Y-64215000D01*
X90090000Y-67335000D02*
X90090000Y-66335000D01*
X91610000Y-64215000D02*
X91610000Y-64265000D01*
X91610000Y-65385000D02*
X91610000Y-66165000D01*
X91610000Y-67285000D02*
X91610000Y-67335000D01*
X91610000Y-67335000D02*
X90090000Y-67335000D01*
X92150000Y-66155000D02*
X91910000Y-65825000D01*
X92390000Y-65825000D01*
X92150000Y-66155000D01*
G36*
X92150000Y-66155000D02*
G01*
X91910000Y-65825000D01*
X92390000Y-65825000D01*
X92150000Y-66155000D01*
G37*
%TO.C,C18*%
X93015000Y-71865581D02*
X93015000Y-71584419D01*
X94035000Y-71865581D02*
X94035000Y-71584419D01*
%TO.C,R2*%
X64787742Y-86327500D02*
X65262258Y-86327500D01*
X64787742Y-87372500D02*
X65262258Y-87372500D01*
%TO.C,R4*%
X72812742Y-69052500D02*
X73287258Y-69052500D01*
X72812742Y-70097500D02*
X73287258Y-70097500D01*
%TO.C,R22*%
X69962742Y-62227500D02*
X70437258Y-62227500D01*
X69962742Y-63272500D02*
X70437258Y-63272500D01*
%TO.C,D10*%
X68715000Y-60540000D02*
X68715000Y-62010000D01*
X68715000Y-62010000D02*
X71000000Y-62010000D01*
X71000000Y-60540000D02*
X68715000Y-60540000D01*
%TO.C,R16*%
X76852500Y-67662742D02*
X76852500Y-68137258D01*
X77897500Y-67662742D02*
X77897500Y-68137258D01*
%TO.C,C3*%
X62765001Y-66715581D02*
X62765001Y-66434419D01*
X63785001Y-66715581D02*
X63785001Y-66434419D01*
%TO.C,C17*%
X92990000Y-75984419D02*
X92990000Y-76265581D01*
X94010000Y-75984419D02*
X94010000Y-76265581D01*
%TO.C,U5*%
X94440001Y-71890000D02*
X94535000Y-71890000D01*
X94440001Y-76010000D02*
X94440001Y-71890000D01*
X94535000Y-76010000D02*
X94440001Y-76010000D01*
X99465000Y-71890000D02*
X99559999Y-71890000D01*
X99559999Y-71890000D02*
X99559999Y-76010000D01*
X99559999Y-76010000D02*
X99465000Y-76010000D01*
X94530000Y-76550000D02*
X94200000Y-76790000D01*
X94200000Y-76310000D01*
X94530000Y-76550000D01*
G36*
X94530000Y-76550000D02*
G01*
X94200000Y-76790000D01*
X94200000Y-76310000D01*
X94530000Y-76550000D01*
G37*
%TO.C,C14*%
X63770000Y-84750581D02*
X63770000Y-84469419D01*
X64790000Y-84750581D02*
X64790000Y-84469419D01*
%TO.C,R14*%
X83277500Y-82312742D02*
X83277500Y-82787258D01*
X84322500Y-82312742D02*
X84322500Y-82787258D01*
%TO.C,C203*%
X87415581Y-86440000D02*
X87134419Y-86440000D01*
X87415581Y-87460000D02*
X87134419Y-87460000D01*
%TO.C,C204*%
X87511253Y-84465000D02*
X86988747Y-84465000D01*
X87511253Y-85935000D02*
X86988747Y-85935000D01*
%TO.C,C13*%
X62290000Y-84765581D02*
X62290000Y-84484419D01*
X63310000Y-84765581D02*
X63310000Y-84484419D01*
%TO.C,FB1*%
X62212780Y-86365000D02*
X61887220Y-86365000D01*
X62212780Y-87385000D02*
X61887220Y-87385000D01*
%TO.C,U1*%
X78765000Y-86140000D02*
X80235000Y-86140000D01*
X78765000Y-86165001D02*
X78765000Y-86140000D01*
X78765000Y-88360000D02*
X78765000Y-88334999D01*
X80235000Y-86140000D02*
X80235000Y-86165001D01*
X80235000Y-88334999D02*
X80235000Y-88360000D01*
X80235000Y-88360000D02*
X78765000Y-88360000D01*
X78320000Y-86160001D02*
X78180000Y-85970000D01*
X78460000Y-85970000D01*
X78320000Y-86160001D01*
G36*
X78320000Y-86160001D02*
G01*
X78180000Y-85970000D01*
X78460000Y-85970000D01*
X78320000Y-86160001D01*
G37*
%TO.C,D8*%
X61640000Y-60515000D02*
X61640000Y-61985000D01*
X61640000Y-61985000D02*
X63925000Y-61985000D01*
X63925000Y-60515000D02*
X61640000Y-60515000D01*
%TO.C,R18*%
X80852500Y-67637742D02*
X80852500Y-68112258D01*
X81897500Y-67637742D02*
X81897500Y-68112258D01*
%TO.C,R13*%
X81752500Y-82787258D02*
X81752500Y-82312742D01*
X82797500Y-82787258D02*
X82797500Y-82312742D01*
%TO.C,C4*%
X66290582Y-68490000D02*
X66009420Y-68490000D01*
X66290582Y-69510000D02*
X66009420Y-69510000D01*
%TO.C,C11*%
X60815000Y-84765581D02*
X60815000Y-84484419D01*
X61835000Y-84765581D02*
X61835000Y-84484419D01*
%TO.C,C10*%
X79715000Y-70913747D02*
X79715000Y-71436253D01*
X81185000Y-70913747D02*
X81185000Y-71436253D01*
%TO.C,C15*%
X66240000Y-77059419D02*
X66240000Y-77340581D01*
X67260000Y-77059419D02*
X67260000Y-77340581D01*
%TO.C,J8*%
D10*
X56025000Y-74960000D02*
X56025000Y-74960000D01*
D12*
X56045000Y-76675000D02*
X56045000Y-78325000D01*
X56045000Y-78325000D02*
X56684999Y-78325000D01*
D10*
X56125000Y-74960000D02*
X56125000Y-74960000D01*
D12*
X56684999Y-76675000D02*
X56045000Y-76675000D01*
X60885000Y-74325000D02*
X60084999Y-74325000D01*
X60885000Y-80675000D02*
X60084999Y-80675000D01*
D10*
X56025000Y-74960000D02*
G75*
G02*
X56125000Y-74960000I50000J0D01*
G01*
X56125000Y-74960000D02*
G75*
G02*
X56025000Y-74960000I-50000J0D01*
G01*
%TO.C,R17*%
D11*
X79377500Y-67637742D02*
X79377500Y-68112258D01*
X80422500Y-67637742D02*
X80422500Y-68112258D01*
%TO.C,C101*%
X75986253Y-86765000D02*
X75463747Y-86765000D01*
X75986253Y-88235000D02*
X75463747Y-88235000D01*
%TO.C,Y1*%
X68185000Y-64814999D02*
X64065000Y-64814999D01*
X68185000Y-68235001D02*
X68185000Y-64814999D01*
%TO.C,SW3*%
X83085000Y-71240000D02*
X83085000Y-77560000D01*
X83085000Y-71240000D02*
X84825000Y-71240000D01*
X83085000Y-77560000D02*
X84825000Y-77560000D01*
X90815000Y-69200000D02*
X90815000Y-71240001D01*
X91765000Y-71240000D02*
X90815000Y-71240001D01*
X91765000Y-71240000D02*
X91765000Y-77560000D01*
X91765000Y-77560000D02*
X90025000Y-77560000D01*
%TO.C,R3*%
X68452500Y-66762258D02*
X68452500Y-66287742D01*
X69497500Y-66762258D02*
X69497500Y-66287742D01*
%TO.C,C7*%
X69163781Y-69114970D02*
X68964970Y-69313781D01*
X69885030Y-69836219D02*
X69686219Y-70035030D01*
%TO.C,J1*%
X75015000Y-90090000D02*
X76815000Y-90090000D01*
X75015000Y-91540000D02*
X75015000Y-90090000D01*
X76285000Y-94360000D02*
X79715000Y-94360000D01*
X76815000Y-90090000D02*
X76815000Y-89100000D01*
X80985000Y-90090000D02*
X79185000Y-90090000D01*
X80985000Y-91540000D02*
X80985000Y-90090000D01*
%TO.C,C1*%
X93215000Y-86159419D02*
X93215000Y-86440581D01*
X94235000Y-86159419D02*
X94235000Y-86440581D01*
%TO.C,R19*%
X82077500Y-90062742D02*
X82077500Y-90537258D01*
X83122500Y-90062742D02*
X83122500Y-90537258D01*
%TO.C,U3*%
X94440001Y-79990000D02*
X94535000Y-79990000D01*
X94440001Y-84110000D02*
X94440001Y-79990000D01*
X94535000Y-84110000D02*
X94440001Y-84110000D01*
X99465000Y-79990000D02*
X99559999Y-79990000D01*
X99559999Y-79990000D02*
X99559999Y-84110000D01*
X99559999Y-84110000D02*
X99465000Y-84110000D01*
X94530000Y-84650000D02*
X94200000Y-84890000D01*
X94200000Y-84410000D01*
X94530000Y-84650000D01*
G36*
X94530000Y-84650000D02*
G01*
X94200000Y-84890000D01*
X94200000Y-84410000D01*
X94530000Y-84650000D01*
G37*
%TO.C,R21*%
X66387742Y-62182500D02*
X66862258Y-62182500D01*
X66387742Y-63227500D02*
X66862258Y-63227500D01*
%TO.C,J9*%
X85105000Y-63155000D02*
X85105001Y-61775000D01*
X86485000Y-63154999D02*
X85105000Y-63155000D01*
X87755000Y-60395000D02*
X92945000Y-60395000D01*
X87755000Y-63155000D02*
X87755000Y-60395000D01*
X87755000Y-63155000D02*
X92945000Y-63155000D01*
X92945000Y-63155000D02*
X92945000Y-60395000D01*
%TO.C,C201*%
X79540581Y-84840000D02*
X79259419Y-84840000D01*
X79540581Y-85860000D02*
X79259419Y-85860000D01*
%TO.C,R15*%
X75377500Y-67662742D02*
X75377500Y-68137258D01*
X76422500Y-67662742D02*
X76422500Y-68137258D01*
%TO.C,J2*%
X55640000Y-87560000D02*
X55640000Y-92240000D01*
X58460000Y-86290000D02*
X59910000Y-86290000D01*
X58460000Y-93510000D02*
X59910000Y-93510000D01*
X59910000Y-86290000D02*
X59910000Y-88090000D01*
X59910000Y-88090000D02*
X60900000Y-88090000D01*
X59910000Y-93510000D02*
X59910000Y-91710000D01*
%TO.C,C16*%
X84815000Y-82409419D02*
X84815000Y-82690581D01*
X85835000Y-82409419D02*
X85835000Y-82690581D01*
%TO.C,J4*%
X95090000Y-61490000D02*
X95090000Y-63290000D01*
X95090000Y-66910000D02*
X94100000Y-66910000D01*
X95090000Y-68710000D02*
X95090000Y-66910000D01*
X96540000Y-61490000D02*
X95090000Y-61490000D01*
X96540000Y-68710000D02*
X95090000Y-68710000D01*
X99360000Y-67440000D02*
X99360000Y-62760000D01*
%TO.C,J5*%
X55790000Y-62760000D02*
X55790000Y-67440000D01*
X58610000Y-61490000D02*
X60060000Y-61490000D01*
X58610000Y-68710000D02*
X60060000Y-68710000D01*
X60060000Y-61490000D02*
X60060000Y-63290000D01*
X60060000Y-63290000D02*
X61050000Y-63290000D01*
X60060000Y-68710000D02*
X60060000Y-66910000D01*
%TO.C,U2*%
X86375000Y-87989999D02*
X90135000Y-87990000D01*
X86375000Y-94810001D02*
X90135000Y-94810000D01*
X90135000Y-87990000D02*
X90135000Y-89249999D01*
X90135000Y-94810000D02*
X90135000Y-93550001D01*
X85095000Y-88090000D02*
X84855000Y-87760000D01*
X85335000Y-87760000D01*
X85095000Y-88090000D01*
G36*
X85095000Y-88090000D02*
G01*
X84855000Y-87760000D01*
X85335000Y-87760000D01*
X85095000Y-88090000D01*
G37*
%TO.C,J6*%
X72515000Y-63460000D02*
X72515000Y-64910000D01*
X72515000Y-64910000D02*
X74315000Y-64910000D01*
X81685000Y-64910000D02*
X81685000Y-65900000D01*
X82215000Y-60640001D02*
X73785000Y-60640001D01*
X83485000Y-63460000D02*
X83485000Y-64910000D01*
X83485000Y-64910000D02*
X81685000Y-64910000D01*
%TO.C,D6*%
X81865000Y-92475000D02*
X81865000Y-94760000D01*
X81865000Y-94760000D02*
X83335000Y-94760000D01*
X83335000Y-94760000D02*
X83335000Y-92475000D01*
%TO.C,D9*%
X65140000Y-60515000D02*
X65140000Y-61985000D01*
X65140000Y-61985000D02*
X67425000Y-61985000D01*
X67425000Y-60515000D02*
X65140000Y-60515000D01*
%TO.C,C8*%
X81115000Y-74234419D02*
X81115000Y-74515581D01*
X82135000Y-74234419D02*
X82135000Y-74515581D01*
%TO.C,D7*%
X88290000Y-80715000D02*
X89810000Y-80715000D01*
X88290000Y-81715000D02*
X88290000Y-80715000D01*
X88290000Y-83835000D02*
X88290000Y-82835000D01*
X89810000Y-80715000D02*
X89810000Y-80765000D01*
X89810000Y-81885000D02*
X89810000Y-82665000D01*
X89810000Y-83785000D02*
X89810000Y-83835000D01*
X89810000Y-83835000D02*
X88290000Y-83835000D01*
X90350000Y-82655000D02*
X90110000Y-82325000D01*
X90590000Y-82325000D01*
X90350000Y-82655000D01*
G36*
X90350000Y-82655000D02*
G01*
X90110000Y-82325000D01*
X90590000Y-82325000D01*
X90350000Y-82655000D01*
G37*
%TO.C,C5*%
X75790581Y-84690000D02*
X75509419Y-84690000D01*
X75790581Y-85710000D02*
X75509419Y-85710000D01*
%TO.C,D1*%
X89415000Y-85040000D02*
X90415000Y-85040000D01*
X89415000Y-86560000D02*
X89415000Y-85040000D01*
X89465000Y-86560000D02*
X89415000Y-86560000D01*
X91365000Y-86560000D02*
X90585000Y-86560000D01*
X91535000Y-85040000D02*
X92535000Y-85040000D01*
X92535000Y-85040000D02*
X92535000Y-86560000D01*
X92535000Y-86560000D02*
X92485000Y-86560000D01*
X90595000Y-87100000D02*
X90925000Y-86860000D01*
X90925000Y-87340000D01*
X90595000Y-87100000D01*
G36*
X90925000Y-87340000D02*
G01*
X90595000Y-87100000D01*
X90925000Y-86860000D01*
X90925000Y-87340000D01*
G37*
%TO.C,J3*%
X95090000Y-86290000D02*
X95090000Y-88090000D01*
X95090000Y-91710000D02*
X94100000Y-91710000D01*
X95090000Y-93510000D02*
X95090000Y-91710000D01*
X96540000Y-86290000D02*
X95090000Y-86290000D01*
X96540000Y-93510000D02*
X95090000Y-93510000D01*
X99360000Y-92240000D02*
X99360000Y-87560000D01*
%TO.C,R1*%
X68112742Y-86777500D02*
X68587258Y-86777500D01*
X68112742Y-87822500D02*
X68587258Y-87822500D01*
%TO.C,C202*%
X81765000Y-86786253D02*
X81765000Y-86263747D01*
X83235000Y-86786253D02*
X83235000Y-86263747D01*
%TO.C,C12*%
X65240000Y-84750581D02*
X65240000Y-84469419D01*
X66260000Y-84750581D02*
X66260000Y-84469419D01*
%TO.C,R20*%
X62887742Y-62202500D02*
X63362258Y-62202500D01*
X62887742Y-63247500D02*
X63362258Y-63247500D01*
%TO.C,C2*%
X93015000Y-79459419D02*
X93015000Y-79740581D01*
X94035000Y-79459419D02*
X94035000Y-79740581D01*
%TO.C,U4*%
X69090000Y-71915000D02*
X70040000Y-71915000D01*
X69090000Y-72865000D02*
X69090000Y-71915000D01*
X69090000Y-82135000D02*
X69090000Y-81185000D01*
X70040000Y-82135000D02*
X69090000Y-82135000D01*
X78360000Y-71915000D02*
X79310000Y-71915000D01*
X79310000Y-71915000D02*
X79310000Y-72865000D01*
X79310000Y-81185000D02*
X79310000Y-82135000D01*
X79310000Y-82135000D02*
X78360000Y-82135000D01*
X68450000Y-72865000D02*
X68110000Y-72395000D01*
X68790000Y-72395000D01*
X68450000Y-72865000D01*
G36*
X68450000Y-72865000D02*
G01*
X68110000Y-72395000D01*
X68790000Y-72395000D01*
X68450000Y-72865000D01*
G37*
%TO.C,C6*%
X66214970Y-72188781D02*
X66413781Y-71989970D01*
X66936219Y-72910030D02*
X67135030Y-72711219D01*
%TD*%
M02*
