%TF.GenerationSoftware,KiCad,Pcbnew,10.0.4*%
%TF.CreationDate,2026-09-26T16:06:30+09:00*%
%TF.ProjectId,unit-board,756e6974-2d62-46f6-9172-642e6b696361,rev?*%
%TF.SameCoordinates,Original*%
%TF.FileFunction,Copper,L3,Inr*%
%TF.FilePolarity,Positive*%
%FSLAX46Y46*%
G04 Gerber Fmt 4.6, Leading zero omitted, Abs format (unit mm)*
G04 Created by KiCad (PCBNEW 10.0.4) date 2026-09-26 16:06:30*
%MOMM*%
%LPD*%
G01*
G04 APERTURE LIST*
%TA.AperFunction,ComponentPad*%
%ADD10R,1.700000X1.700000*%
%TD*%
%TA.AperFunction,ComponentPad*%
%ADD11C,1.700000*%
%TD*%
%TA.AperFunction,ViaPad*%
%ADD12C,0.600000*%
%TD*%
%TA.AperFunction,Conductor*%
%ADD13C,0.400000*%
%TD*%
%TA.AperFunction,Conductor*%
%ADD14C,0.350000*%
%TD*%
%TA.AperFunction,Conductor*%
%ADD15C,0.200000*%
%TD*%
%TA.AperFunction,Conductor*%
%ADD16C,0.300000*%
%TD*%
G04 APERTURE END LIST*
D10*
%TO.N,GND*%
%TO.C,J9*%
X86485000Y-61775000D03*
D11*
%TO.N,/DBG_TX*%
X89025000Y-61775000D03*
%TO.N,/DBG_RX*%
X91564999Y-61775000D03*
%TD*%
D12*
%TO.N,/VTREF_3V3*%
X61287500Y-86875000D03*
X93525000Y-72500000D03*
X85125000Y-91075000D03*
X67501992Y-82701992D03*
X91374999Y-91400000D03*
X66126992Y-72998008D03*
X93650000Y-78700000D03*
X80450000Y-72124999D03*
X81850000Y-72725000D03*
X76425000Y-85200000D03*
X58450000Y-74960000D03*
X69973008Y-69026992D03*
%TO.N,GND*%
X68650000Y-70350000D03*
X73900000Y-69550000D03*
X65375000Y-69000000D03*
X83800000Y-83375000D03*
X74900000Y-85275000D03*
X60250000Y-66350000D03*
X90950000Y-84875000D03*
X78200000Y-74425000D03*
X67200000Y-71875000D03*
X94925000Y-63850000D03*
X66750000Y-78100000D03*
X80450000Y-70250000D03*
X96375000Y-76475000D03*
X93725000Y-87250000D03*
X68600000Y-83775000D03*
X86300001Y-85200000D03*
X93525000Y-70900000D03*
X90150000Y-78675000D03*
X93550000Y-80425000D03*
X63275000Y-65825000D03*
X89850000Y-65775000D03*
X67450000Y-67275000D03*
X96365000Y-84525000D03*
X85325000Y-83325000D03*
X70000000Y-80575000D03*
X82500000Y-85575001D03*
X93475000Y-76950000D03*
X95000000Y-88650000D03*
X69412500Y-61275000D03*
X77674999Y-87625000D03*
X82600000Y-94062501D03*
X75450000Y-81375000D03*
X62337500Y-61250000D03*
X78700000Y-85325000D03*
X79525000Y-90475000D03*
X81600000Y-75175000D03*
X86500000Y-86950000D03*
X84975000Y-89075000D03*
X60075000Y-91225000D03*
X74775001Y-87500000D03*
X95100000Y-79550000D03*
X61340000Y-83835000D03*
X78650000Y-65050000D03*
X90000000Y-83250000D03*
X77450000Y-81374999D03*
X58450000Y-80040000D03*
X70575000Y-72725000D03*
X65837500Y-61250000D03*
%TO.N,/CAN Interface1/C620_CAN_H*%
X60250000Y-63900000D03*
X91787500Y-66725000D03*
%TO.N,/CAN Interface1/C620_CAN_L*%
X60225000Y-65100000D03*
X91787500Y-64825000D03*
%TO.N,/G474 Minimum/LED_ERR*%
X73550000Y-74200000D03*
X69375000Y-64025000D03*
%TO.N,/CAN Interface/PWR_5V*%
X74875000Y-65050000D03*
X82500000Y-87474999D03*
X93500000Y-75350000D03*
%TO.N,/G474 Minimum/ADC_5V_MON*%
X70475000Y-78825000D03*
X86250000Y-78875000D03*
%TO.N,/CAN Interface/COMM_B*%
X69525000Y-92275000D03*
X91925000Y-86737500D03*
X60075000Y-89925000D03*
%TO.N,/G474 Minimum/AMT22_CS_N*%
X82600000Y-73775000D03*
X75050000Y-73700000D03*
%TO.N,/SWDIO*%
X62520000Y-74960000D03*
X76600000Y-74960000D03*
%TO.N,/SWCLK*%
X75750000Y-76275000D03*
X62520000Y-76230000D03*
%TO.N,/SWO*%
X62519999Y-77500000D03*
X74425000Y-77575000D03*
%TO.N,/G474 Minimum/SPI3_MISO*%
X78601525Y-73153589D03*
X75875000Y-73125000D03*
%TO.N,/CAN Interface/CAN_TX*%
X95125000Y-84625000D03*
X82725000Y-74900000D03*
%TO.N,/CAN Interface/CAN_RX*%
X77725000Y-75400000D03*
X98950000Y-84575000D03*
%TO.N,/CAN Interface/COMM_A*%
X60050000Y-88650000D03*
X90025000Y-86737500D03*
%TO.N,/G474 Minimum/LED_COMM*%
X72600000Y-74225000D03*
X65800000Y-64025000D03*
%TO.N,/DBG_TX*%
X70652821Y-80112585D03*
X87071778Y-80099182D03*
X91475000Y-75225000D03*
X91436765Y-80088235D03*
%TO.N,/DBG_RX*%
X92325000Y-80700000D03*
X70475000Y-81250000D03*
X87600000Y-80700000D03*
X92325000Y-75250000D03*
%TO.N,/G474 Minimum/SPI3_SCK*%
X76558426Y-72530019D03*
X74975000Y-69775000D03*
%TO.N,/G474 Minimum/LED_RUN*%
X62275000Y-64025000D03*
X71525000Y-74275000D03*
%TD*%
%TO.N,/VTREF_3V3*%
D13*
X76425000Y-85200000D02*
X76841415Y-85616415D01*
X70089492Y-76960508D02*
X73719162Y-80590178D01*
D14*
X85125000Y-91075000D02*
X85450000Y-91400000D01*
D15*
X58450000Y-74960000D02*
X66191992Y-82701992D01*
D16*
X65460508Y-82701992D02*
X66191992Y-82701992D01*
D13*
X76217170Y-85200000D02*
X73719162Y-82701992D01*
D14*
X80450000Y-74125000D02*
X80450000Y-72124999D01*
D13*
X94375000Y-79125000D02*
X94375000Y-73350000D01*
X73719162Y-81400000D02*
X73719162Y-82701992D01*
D14*
X73719162Y-82701992D02*
X67501992Y-82701992D01*
X73719162Y-81400000D02*
X80450000Y-74669162D01*
D13*
X93000000Y-82650000D02*
X94400000Y-81250000D01*
X82825000Y-91400000D02*
X91374999Y-91400000D01*
D14*
X85450000Y-91400000D02*
X91374999Y-91400000D01*
D13*
X73719162Y-80590178D02*
X73719162Y-81400000D01*
D16*
X66191992Y-82701992D02*
X67501992Y-82701992D01*
D14*
X66126992Y-72998008D02*
X70089492Y-76960508D01*
D13*
X93000000Y-89774999D02*
X93000000Y-82650000D01*
X94400000Y-79150000D02*
X94375000Y-79125000D01*
D14*
X69525000Y-69475000D02*
X69973008Y-69026992D01*
D13*
X94400000Y-81250000D02*
X94400000Y-79150000D01*
X76425000Y-85200000D02*
X76217170Y-85200000D01*
D14*
X80450000Y-74669162D02*
X80450000Y-74125000D01*
D13*
X91374999Y-91400000D02*
X93000000Y-89774999D01*
D14*
X93650000Y-78700000D02*
X94225000Y-79275000D01*
D13*
X77041415Y-85616415D02*
X82825000Y-91400000D01*
D14*
X69525000Y-76396016D02*
X69525000Y-69475000D01*
D13*
X70089492Y-76960508D02*
X69525000Y-76396016D01*
X76841415Y-85616415D02*
X77041415Y-85616415D01*
D16*
X61287500Y-86875000D02*
X65460508Y-82701992D01*
X81850000Y-72725000D02*
X80450000Y-74125000D01*
D14*
X94225000Y-73200000D02*
X93525000Y-72500000D01*
D13*
X94375000Y-73350000D02*
X94225000Y-73200000D01*
%TO.N,/CAN Interface/PWR_5V*%
D16*
X92475000Y-77499999D02*
X92475000Y-76375000D01*
X84450000Y-85524999D02*
X84450000Y-73330761D01*
X92475000Y-76375000D02*
X93500000Y-75350000D01*
X84450000Y-73330761D02*
X76169239Y-65050000D01*
X82500000Y-87474999D02*
X84450000Y-85524999D01*
X76169239Y-65050000D02*
X74875000Y-65050000D01*
X82500000Y-87474999D02*
X92475000Y-77499999D01*
%TD*%
M02*
