%TF.GenerationSoftware,KiCad,Pcbnew,10.0.4*%
%TF.CreationDate,2026-09-26T16:06:30+09:00*%
%TF.ProjectId,unit-board,756e6974-2d62-46f6-9172-642e6b696361,rev?*%
%TF.SameCoordinates,Original*%
%TF.FileFunction,Copper,L4,Bot*%
%TF.FilePolarity,Positive*%
%FSLAX46Y46*%
G04 Gerber Fmt 4.6, Leading zero omitted, Abs format (unit mm)*
G04 Created by KiCad (PCBNEW 10.0.4) date 2026-09-26 16:06:30*
%MOMM*%
%LPD*%
G01*
G04 APERTURE LIST*
%TA.AperFunction,ComponentPad*%
%ADD10R,1.700000X1.700000*%
%TD*%
%TA.AperFunction,ComponentPad*%
%ADD11C,1.700000*%
%TD*%
%TA.AperFunction,ViaPad*%
%ADD12C,0.600000*%
%TD*%
%TA.AperFunction,Conductor*%
%ADD13C,0.200000*%
%TD*%
G04 APERTURE END LIST*
D10*
%TO.P,J9,1,Pin_1_1*%
%TO.N,GND*%
X86485000Y-61775000D03*
D11*
%TO.P,J9,2,Pin_2_2*%
%TO.N,/DBG_TX*%
X89025000Y-61775000D03*
%TO.P,J9,3,Pin_3_3*%
%TO.N,/DBG_RX*%
X91564999Y-61775000D03*
%TD*%
D12*
%TO.N,/VTREF_3V3*%
X61287500Y-86875000D03*
X93525000Y-72500000D03*
X85125000Y-91075000D03*
X67501992Y-82701992D03*
X91374999Y-91400000D03*
X66126992Y-72998008D03*
X93650000Y-78700000D03*
X80450000Y-72124999D03*
X81850000Y-72725000D03*
X76425000Y-85200000D03*
X58450000Y-74960000D03*
X69973008Y-69026992D03*
%TO.N,GND*%
X68650000Y-70350000D03*
X73900000Y-69550000D03*
X65375000Y-69000000D03*
X83800000Y-83375000D03*
X74900000Y-85275000D03*
X60250000Y-66350000D03*
X90950000Y-84875000D03*
X78200000Y-74425000D03*
X67200000Y-71875000D03*
X94925000Y-63850000D03*
X66750000Y-78100000D03*
X80450000Y-70250000D03*
X96375000Y-76475000D03*
X93725000Y-87250000D03*
X68600000Y-83775000D03*
X86300001Y-85200000D03*
X93525000Y-70900000D03*
X90150000Y-78675000D03*
X93550000Y-80425000D03*
X63275000Y-65825000D03*
X89850000Y-65775000D03*
X67450000Y-67275000D03*
X96365000Y-84525000D03*
X85325000Y-83325000D03*
X70000000Y-80575000D03*
X82500000Y-85575001D03*
X93475000Y-76950000D03*
X95000000Y-88650000D03*
X69412500Y-61275000D03*
X77674999Y-87625000D03*
X82600000Y-94062501D03*
X75450000Y-81375000D03*
X62337500Y-61250000D03*
X78700000Y-85325000D03*
X79525000Y-90475000D03*
X81600000Y-75175000D03*
X86500000Y-86950000D03*
X84975000Y-89075000D03*
X60075000Y-91225000D03*
X74775001Y-87500000D03*
X95100000Y-79550000D03*
X61340000Y-83835000D03*
X78650000Y-65050000D03*
X90000000Y-83250000D03*
X77450000Y-81374999D03*
X58450000Y-80040000D03*
X70575000Y-72725000D03*
X65837500Y-61250000D03*
%TO.N,/CAN Interface1/C620_CAN_H*%
X60250000Y-63900000D03*
X91787500Y-66725000D03*
%TO.N,/CAN Interface1/C620_CAN_L*%
X60225000Y-65100000D03*
X91787500Y-64825000D03*
%TO.N,/G474 Minimum/LED_ERR*%
X73550000Y-74200000D03*
X69375000Y-64025000D03*
%TO.N,/CAN Interface/PWR_5V*%
X74875000Y-65050000D03*
X82500000Y-87474999D03*
X93500000Y-75350000D03*
%TO.N,/G474 Minimum/ADC_5V_MON*%
X70475000Y-78825000D03*
X86250000Y-78875000D03*
%TO.N,/CAN Interface/COMM_B*%
X69525000Y-92275000D03*
X91925000Y-86737500D03*
X60075000Y-89925000D03*
%TO.N,/G474 Minimum/AMT22_CS_N*%
X82600000Y-73775000D03*
X75050000Y-73700000D03*
%TO.N,/SWDIO*%
X62520000Y-74960000D03*
X76600000Y-74960000D03*
%TO.N,/SWCLK*%
X75750000Y-76275000D03*
X62520000Y-76230000D03*
%TO.N,/SWO*%
X62519999Y-77500000D03*
X74425000Y-77575000D03*
%TO.N,/G474 Minimum/SPI3_MISO*%
X78601525Y-73153589D03*
X75875000Y-73125000D03*
%TO.N,/CAN Interface/CAN_TX*%
X95125000Y-84625000D03*
X82725000Y-74900000D03*
%TO.N,/CAN Interface/CAN_RX*%
X77725000Y-75400000D03*
X98950000Y-84575000D03*
%TO.N,/CAN Interface/COMM_A*%
X60050000Y-88650000D03*
X90025000Y-86737500D03*
%TO.N,/G474 Minimum/LED_COMM*%
X72600000Y-74225000D03*
X65800000Y-64025000D03*
%TO.N,/DBG_TX*%
X70652821Y-80112585D03*
X87071778Y-80099182D03*
X91475000Y-75225000D03*
X91436765Y-80088235D03*
%TO.N,/DBG_RX*%
X92325000Y-80700000D03*
X70475000Y-81250000D03*
X87600000Y-80700000D03*
X92325000Y-75250000D03*
%TO.N,/G474 Minimum/SPI3_SCK*%
X76558426Y-72530019D03*
X74975000Y-69775000D03*
%TO.N,/G474 Minimum/LED_RUN*%
X62275000Y-64025000D03*
X71525000Y-74275000D03*
%TD*%
%TO.N,/CAN Interface1/C620_CAN_H*%
D13*
X88487500Y-63425000D02*
X91787500Y-66725000D01*
X60250000Y-63900000D02*
X60725000Y-63425000D01*
X60725000Y-63425000D02*
X88487500Y-63425000D01*
%TO.N,/CAN Interface1/C620_CAN_L*%
X60225000Y-65100000D02*
X59650000Y-64525000D01*
X89937500Y-62975000D02*
X91787500Y-64825000D01*
X59650000Y-64525000D02*
X59650000Y-63651471D01*
X60326471Y-62975000D02*
X89937500Y-62975000D01*
X59650000Y-63651471D02*
X60326471Y-62975000D01*
%TO.N,/G474 Minimum/LED_ERR*%
X69375000Y-64025000D02*
X70050000Y-64025000D01*
X73250000Y-73900000D02*
X73550000Y-74200000D01*
X70050000Y-64025000D02*
X73250000Y-67225000D01*
X73250000Y-67225000D02*
X73250000Y-73900000D01*
%TO.N,/G474 Minimum/ADC_5V_MON*%
X86250000Y-78875000D02*
X70525000Y-78875000D01*
X70525000Y-78875000D02*
X70475000Y-78825000D01*
%TO.N,/CAN Interface/COMM_B*%
X62375000Y-92225000D02*
X86437500Y-92225000D01*
X86437500Y-92225000D02*
X91925000Y-86737500D01*
X60075000Y-89925000D02*
X62375000Y-92225000D01*
%TO.N,/G474 Minimum/AMT22_CS_N*%
X82478589Y-73753589D02*
X75228589Y-73753589D01*
X82500000Y-73775000D02*
X82478589Y-73753589D01*
X75228589Y-73753589D02*
X75175000Y-73700000D01*
X82600000Y-73775000D02*
X82500000Y-73775000D01*
X75175000Y-73700000D02*
X75050000Y-73700000D01*
%TO.N,/SWDIO*%
X76600000Y-74960000D02*
X62520000Y-74960000D01*
%TO.N,/SWCLK*%
X62565000Y-76275000D02*
X62520000Y-76230000D01*
X75750000Y-76275000D02*
X62565000Y-76275000D01*
%TO.N,/SWO*%
X74225000Y-77575000D02*
X74425000Y-77575000D01*
X74150000Y-77500000D02*
X74225000Y-77575000D01*
X62519999Y-77500000D02*
X74150000Y-77500000D01*
%TO.N,/G474 Minimum/SPI3_MISO*%
X76029803Y-73125000D02*
X76054803Y-73150000D01*
X78475718Y-73150000D02*
X78479307Y-73153589D01*
X76054803Y-73150000D02*
X78475718Y-73150000D01*
X75875000Y-73125000D02*
X76029803Y-73125000D01*
X78479307Y-73153589D02*
X78601525Y-73153589D01*
%TO.N,/CAN Interface/CAN_TX*%
X82725000Y-74900000D02*
X85400000Y-74900000D01*
X85400000Y-74900000D02*
X95125000Y-84625000D01*
%TO.N,/CAN Interface/CAN_RX*%
X98300000Y-85225000D02*
X98950000Y-84575000D01*
X78425000Y-76125000D02*
X84348529Y-76125000D01*
X84348529Y-76125000D02*
X93448529Y-85225000D01*
X93448529Y-85225000D02*
X98300000Y-85225000D01*
X77725000Y-75425000D02*
X78425000Y-76125000D01*
X77725000Y-75400000D02*
X77725000Y-75425000D01*
%TO.N,/CAN Interface/COMM_A*%
X63075000Y-91675000D02*
X86421814Y-91675000D01*
X60050000Y-88650000D02*
X63075000Y-91675000D01*
X90025000Y-88071814D02*
X90025000Y-86737500D01*
X86421814Y-91675000D02*
X90025000Y-88071814D01*
%TO.N,/G474 Minimum/LED_COMM*%
X65800000Y-64025000D02*
X66775000Y-64025000D01*
X72600000Y-69850000D02*
X72600000Y-74225000D01*
X66775000Y-64025000D02*
X72600000Y-69850000D01*
%TO.N,/DBG_TX*%
X91436765Y-80088235D02*
X91436765Y-75263235D01*
X70652821Y-80112585D02*
X87058375Y-80112585D01*
X87058375Y-80112585D02*
X87071778Y-80099182D01*
X91436765Y-75263235D02*
X91475000Y-75225000D01*
%TO.N,/DBG_RX*%
X71025000Y-80700000D02*
X70475000Y-81250000D01*
X87600000Y-80700000D02*
X71025000Y-80700000D01*
X92325000Y-80700000D02*
X92325000Y-75250000D01*
%TO.N,/G474 Minimum/SPI3_SCK*%
X76558426Y-72530019D02*
X76480019Y-72530019D01*
X74975000Y-71025000D02*
X74975000Y-69775000D01*
X76480019Y-72530019D02*
X74975000Y-71025000D01*
%TO.N,/G474 Minimum/LED_RUN*%
X63401471Y-64075000D02*
X71525000Y-72198529D01*
X71525000Y-72198529D02*
X71525000Y-74275000D01*
X62325000Y-64075000D02*
X63401471Y-64075000D01*
X62275000Y-64025000D02*
X62325000Y-64075000D01*
%TD*%
M02*
