M48
; DRILL file KiCad 10.0.4 date 2026-09-26T16:06:30
; FORMAT={-:-/ absolute / metric / decimal}
; #@! TF.CreationDate,2026-09-26T16:06:30+09:00
; #@! TF.GenerationSoftware,Kicad,Pcbnew,10.0.4
; #@! TF.FileFunction,Plated,1,4,PTH
FMAT,2
METRIC
; #@! TA.AperFunction,Plated,PTH,ViaDrill
T1C0.300
; #@! TA.AperFunction,Plated,PTH,ComponentDrill
T2C1.000
%
G90
G05
T1
X58.45Y-74.96
X58.45Y-80.04
X60.05Y-88.65
X60.075Y-89.925
X60.075Y-91.225
X60.225Y-65.1
X60.25Y-63.9
X60.25Y-66.35
X61.287Y-86.875
X61.34Y-83.835
X62.275Y-64.025
X62.337Y-61.25
X62.52Y-77.5
X62.52Y-74.96
X62.52Y-76.23
X63.275Y-65.825
X65.375Y-69.0
X65.8Y-64.025
X65.837Y-61.25
X66.127Y-72.998
X66.75Y-78.1
X67.2Y-71.875
X67.45Y-67.275
X67.502Y-82.702
X68.6Y-83.775
X68.65Y-70.35
X69.375Y-64.025
X69.412Y-61.275
X69.525Y-92.275
X69.973Y-69.027
X70.0Y-80.575
X70.475Y-78.825
X70.475Y-81.25
X70.575Y-72.725
X70.653Y-80.113
X71.525Y-74.275
X72.6Y-74.225
X73.55Y-74.2
X73.9Y-69.55
X74.425Y-77.575
X74.775Y-87.5
X74.875Y-65.05
X74.9Y-85.275
X74.975Y-69.775
X75.05Y-73.7
X75.45Y-81.375
X75.75Y-76.275
X75.875Y-73.125
X76.425Y-85.2
X76.558Y-72.53
X76.6Y-74.96
X77.45Y-81.375
X77.675Y-87.625
X77.725Y-75.4
X78.2Y-74.425
X78.602Y-73.154
X78.65Y-65.05
X78.7Y-85.325
X79.525Y-90.475
X80.45Y-70.25
X80.45Y-72.125
X81.6Y-75.175
X81.85Y-72.725
X82.5Y-85.575
X82.5Y-87.475
X82.6Y-73.775
X82.6Y-94.063
X82.725Y-74.9
X83.8Y-83.375
X84.975Y-89.075
X85.125Y-91.075
X85.325Y-83.325
X86.25Y-78.875
X86.3Y-85.2
X86.5Y-86.95
X87.072Y-80.099
X87.6Y-80.7
X89.85Y-65.775
X90.0Y-83.25
X90.025Y-86.737
X90.15Y-78.675
X90.95Y-84.875
X91.375Y-91.4
X91.437Y-80.088
X91.475Y-75.225
X91.787Y-64.825
X91.787Y-66.725
X91.925Y-86.737
X92.325Y-75.25
X92.325Y-80.7
X93.475Y-76.95
X93.5Y-75.35
X93.525Y-70.9
X93.525Y-72.5
X93.55Y-80.425
X93.65Y-78.7
X93.725Y-87.25
X94.925Y-63.85
X95.0Y-88.65
X95.1Y-79.55
X95.125Y-84.625
X96.365Y-84.525
X96.375Y-76.475
X98.95Y-84.575
T2
X86.485Y-61.775
X89.025Y-61.775
X91.565Y-61.775
M30
