%TF.GenerationSoftware,KiCad,Pcbnew,10.0.4*%
%TF.CreationDate,2026-09-26T16:06:30+09:00*%
%TF.ProjectId,unit-board,756e6974-2d62-46f6-9172-642e6b696361,rev?*%
%TF.SameCoordinates,Original*%
%TF.FileFunction,Paste,Top*%
%TF.FilePolarity,Positive*%
%FSLAX46Y46*%
G04 Gerber Fmt 4.6, Leading zero omitted, Abs format (unit mm)*
G04 Created by KiCad (PCBNEW 10.0.4) date 2026-09-26 16:06:30*
%MOMM*%
%LPD*%
G01*
G04 APERTURE LIST*
G04 Aperture macros list*
%AMRoundRect*
0 Rectangle with rounded corners*
0 $1 Rounding radius*
0 $2 $3 $4 $5 $6 $7 $8 $9 X,Y pos of 4 corners*
0 Add a 4 corners polygon primitive as box body*
4,1,4,$2,$3,$4,$5,$6,$7,$8,$9,$2,$3,0*
0 Add four circle primitives for the rounded corners*
1,1,$1+$1,$2,$3*
1,1,$1+$1,$4,$5*
1,1,$1+$1,$6,$7*
1,1,$1+$1,$8,$9*
0 Add four rect primitives between the rounded corners*
20,1,$1+$1,$2,$3,$4,$5,0*
20,1,$1+$1,$4,$5,$6,$7,0*
20,1,$1+$1,$6,$7,$8,$9,0*
20,1,$1+$1,$8,$9,$2,$3,0*%
G04 Aperture macros list end*
%ADD10RoundRect,0.225000X-0.335876X-0.017678X-0.017678X-0.335876X0.335876X0.017678X0.017678X0.335876X0*%
%ADD11RoundRect,0.150000X0.587500X0.150000X-0.587500X0.150000X-0.587500X-0.150000X0.587500X-0.150000X0*%
%ADD12RoundRect,0.225000X0.250000X-0.225000X0.250000X0.225000X-0.250000X0.225000X-0.250000X-0.225000X0*%
%ADD13RoundRect,0.200000X-0.200000X-0.275000X0.200000X-0.275000X0.200000X0.275000X-0.200000X0.275000X0*%
%ADD14RoundRect,0.218750X-0.218750X-0.256250X0.218750X-0.256250X0.218750X0.256250X-0.218750X0.256250X0*%
%ADD15RoundRect,0.200000X-0.275000X0.200000X-0.275000X-0.200000X0.275000X-0.200000X0.275000X0.200000X0*%
%ADD16RoundRect,0.225000X-0.250000X0.225000X-0.250000X-0.225000X0.250000X-0.225000X0.250000X0.225000X0*%
%ADD17RoundRect,0.150000X0.150000X-0.825000X0.150000X0.825000X-0.150000X0.825000X-0.150000X-0.825000X0*%
%ADD18RoundRect,0.225000X0.225000X0.250000X-0.225000X0.250000X-0.225000X-0.250000X0.225000X-0.250000X0*%
%ADD19RoundRect,0.250000X0.250000X0.475000X-0.250000X0.475000X-0.250000X-0.475000X0.250000X-0.475000X0*%
%ADD20RoundRect,0.218750X0.218750X0.256250X-0.218750X0.256250X-0.218750X-0.256250X0.218750X-0.256250X0*%
%ADD21RoundRect,0.087500X-0.425000X-0.087500X0.425000X-0.087500X0.425000X0.087500X-0.425000X0.087500X0*%
%ADD22R,1.200000X2.500000*%
%ADD23RoundRect,0.200000X0.275000X-0.200000X0.275000X0.200000X-0.275000X0.200000X-0.275000X-0.200000X0*%
%ADD24RoundRect,0.250000X-0.475000X0.250000X-0.475000X-0.250000X0.475000X-0.250000X0.475000X0.250000X0*%
%ADD25R,2.790000X0.740000*%
%ADD26RoundRect,0.250000X0.450000X0.350000X-0.450000X0.350000X-0.450000X-0.350000X0.450000X-0.350000X0*%
%ADD27RoundRect,0.250000X-0.300000X0.500000X-0.300000X-0.500000X0.300000X-0.500000X0.300000X0.500000X0*%
%ADD28RoundRect,0.225000X-0.017678X0.335876X-0.335876X0.017678X0.017678X-0.335876X0.335876X-0.017678X0*%
%ADD29RoundRect,0.150000X-0.150000X-0.700000X0.150000X-0.700000X0.150000X0.700000X-0.150000X0.700000X0*%
%ADD30RoundRect,0.250000X-0.250000X-1.100000X0.250000X-1.100000X0.250000X1.100000X-0.250000X1.100000X0*%
%ADD31RoundRect,0.150000X-0.700000X0.150000X-0.700000X-0.150000X0.700000X-0.150000X0.700000X0.150000X0*%
%ADD32RoundRect,0.250000X-1.100000X0.250000X-1.100000X-0.250000X1.100000X-0.250000X1.100000X0.250000X0*%
%ADD33RoundRect,0.150000X0.700000X-0.150000X0.700000X0.150000X-0.700000X0.150000X-0.700000X-0.150000X0*%
%ADD34RoundRect,0.250000X1.100000X-0.250000X1.100000X0.250000X-1.100000X0.250000X-1.100000X-0.250000X0*%
%ADD35RoundRect,0.375000X-0.625000X-0.375000X0.625000X-0.375000X0.625000X0.375000X-0.625000X0.375000X0*%
%ADD36RoundRect,0.500000X-0.500000X-1.400000X0.500000X-1.400000X0.500000X1.400000X-0.500000X1.400000X0*%
%ADD37RoundRect,0.150000X0.150000X0.700000X-0.150000X0.700000X-0.150000X-0.700000X0.150000X-0.700000X0*%
%ADD38RoundRect,0.250000X0.250000X1.100000X-0.250000X1.100000X-0.250000X-1.100000X0.250000X-1.100000X0*%
%ADD39RoundRect,0.218750X0.256250X-0.218750X0.256250X0.218750X-0.256250X0.218750X-0.256250X-0.218750X0*%
%ADD40RoundRect,0.150000X0.150000X-0.587500X0.150000X0.587500X-0.150000X0.587500X-0.150000X-0.587500X0*%
%ADD41RoundRect,0.250000X0.475000X-0.250000X0.475000X0.250000X-0.475000X0.250000X-0.475000X-0.250000X0*%
%ADD42RoundRect,0.075000X-0.700000X-0.075000X0.700000X-0.075000X0.700000X0.075000X-0.700000X0.075000X0*%
%ADD43RoundRect,0.075000X-0.075000X-0.700000X0.075000X-0.700000X0.075000X0.700000X-0.075000X0.700000X0*%
%ADD44RoundRect,0.225000X0.017678X-0.335876X0.335876X-0.017678X-0.017678X0.335876X-0.335876X0.017678X0*%
G04 APERTURE END LIST*
D10*
%TO.C,C9*%
X67501992Y-82701992D03*
X68598008Y-83798008D03*
%TD*%
D11*
%TO.C,D2*%
X91787500Y-66725000D03*
X91787500Y-64825000D03*
X89912499Y-65775000D03*
%TD*%
D12*
%TO.C,C18*%
X93525000Y-72500000D03*
X93525000Y-70950000D03*
%TD*%
D13*
%TO.C,R2*%
X64200000Y-86850000D03*
X65850000Y-86850000D03*
%TD*%
%TO.C,R4*%
X72225000Y-69575000D03*
X73875000Y-69575000D03*
%TD*%
%TO.C,R22*%
X69375000Y-62750000D03*
X71025000Y-62750000D03*
%TD*%
D14*
%TO.C,D10*%
X69412500Y-61275000D03*
X70987500Y-61275000D03*
%TD*%
D15*
%TO.C,R16*%
X77375000Y-67075000D03*
X77375000Y-68725000D03*
%TD*%
D12*
%TO.C,C3*%
X63275001Y-67350000D03*
X63275001Y-65800000D03*
%TD*%
D16*
%TO.C,C17*%
X93500000Y-75350000D03*
X93500000Y-76900000D03*
%TD*%
D17*
%TO.C,U5*%
X95095000Y-76425000D03*
X96365000Y-76425000D03*
X97635000Y-76425000D03*
X98905000Y-76425000D03*
X98905000Y-71475000D03*
X97635000Y-71475000D03*
X96365000Y-71475000D03*
X95095000Y-71475000D03*
%TD*%
D12*
%TO.C,C14*%
X64280000Y-85385000D03*
X64280000Y-83835000D03*
%TD*%
D15*
%TO.C,R14*%
X83800000Y-81725000D03*
X83800000Y-83375000D03*
%TD*%
D18*
%TO.C,C203*%
X88050000Y-86950000D03*
X86500000Y-86950000D03*
%TD*%
D19*
%TO.C,C204*%
X88199999Y-85200000D03*
X86300001Y-85200000D03*
%TD*%
D12*
%TO.C,C13*%
X62800000Y-85400000D03*
X62800000Y-83850000D03*
%TD*%
D20*
%TO.C,FB1*%
X62837501Y-86875000D03*
X61262499Y-86875000D03*
%TD*%
D21*
%TO.C,U1*%
X78662500Y-86600001D03*
X78662500Y-87250000D03*
X78662500Y-87899999D03*
X80337500Y-87899999D03*
X80337500Y-87250000D03*
X80337500Y-86600001D03*
%TD*%
D22*
%TO.C,SW1*%
X65975000Y-90325000D03*
X68475000Y-90325000D03*
X70975000Y-90325000D03*
%TD*%
D14*
%TO.C,D8*%
X62337500Y-61250000D03*
X63912500Y-61250000D03*
%TD*%
D15*
%TO.C,R18*%
X81375000Y-67050000D03*
X81375000Y-68700000D03*
%TD*%
D23*
%TO.C,R13*%
X82275000Y-83375000D03*
X82275000Y-81725000D03*
%TD*%
D18*
%TO.C,C4*%
X66925001Y-69000000D03*
X65375001Y-69000000D03*
%TD*%
D12*
%TO.C,C11*%
X61325000Y-85400000D03*
X61325000Y-83850000D03*
%TD*%
D24*
%TO.C,C10*%
X80450000Y-70225001D03*
X80450000Y-72124999D03*
%TD*%
D16*
%TO.C,C15*%
X66750000Y-76425000D03*
X66750000Y-77975000D03*
%TD*%
D25*
%TO.C,J8*%
X58450000Y-74960000D03*
X62520000Y-74960000D03*
X58449999Y-76230000D03*
X62520000Y-76230000D03*
X58450000Y-77500000D03*
X62519999Y-77500000D03*
X58449999Y-78770000D03*
X62520000Y-78770000D03*
X58450000Y-80040000D03*
X62520000Y-80040000D03*
%TD*%
D15*
%TO.C,R17*%
X79900000Y-67050000D03*
X79900000Y-68700000D03*
%TD*%
D19*
%TO.C,C101*%
X76674999Y-87500000D03*
X74775001Y-87500000D03*
%TD*%
D26*
%TO.C,Y1*%
X67225000Y-65675000D03*
X65025000Y-65675000D03*
X65025000Y-67375000D03*
X67225000Y-67375000D03*
%TD*%
D27*
%TO.C,SW3*%
X89965000Y-69950000D03*
X87425000Y-69950000D03*
X84885000Y-69950000D03*
X84885000Y-78850000D03*
X87425000Y-78850000D03*
X89965000Y-78850000D03*
%TD*%
D23*
%TO.C,R3*%
X68975000Y-67350000D03*
X68975000Y-65700000D03*
%TD*%
D28*
%TO.C,C7*%
X69973008Y-69026992D03*
X68876992Y-70123008D03*
%TD*%
D29*
%TO.C,J1*%
X77375000Y-89950000D03*
X78625000Y-89950000D03*
D30*
X75525000Y-93150000D03*
X80475000Y-93150000D03*
%TD*%
D16*
%TO.C,C1*%
X93725000Y-85525000D03*
X93725000Y-87075000D03*
%TD*%
D15*
%TO.C,R19*%
X82600000Y-89475000D03*
X82600000Y-91125000D03*
%TD*%
D17*
%TO.C,U3*%
X95095000Y-84525000D03*
X96365000Y-84525000D03*
X97635000Y-84525000D03*
X98905000Y-84525000D03*
X98905000Y-79575000D03*
X97635000Y-79575000D03*
X96365000Y-79575000D03*
X95095000Y-79575000D03*
%TD*%
D13*
%TO.C,R21*%
X65800000Y-62705000D03*
X67450000Y-62705000D03*
%TD*%
D18*
%TO.C,C201*%
X80175000Y-85350000D03*
X78625000Y-85350000D03*
%TD*%
D15*
%TO.C,R15*%
X75900000Y-67075000D03*
X75900000Y-68725000D03*
%TD*%
D31*
%TO.C,J2*%
X60050000Y-88650000D03*
X60050000Y-89900000D03*
X60050000Y-91150000D03*
D32*
X56850000Y-86800000D03*
X56850000Y-93000000D03*
%TD*%
D16*
%TO.C,C16*%
X85325000Y-81775000D03*
X85325000Y-83325000D03*
%TD*%
D33*
%TO.C,J4*%
X94950000Y-66350000D03*
X94950000Y-65100000D03*
X94950000Y-63850000D03*
D34*
X98150000Y-68200000D03*
X98150000Y-62000000D03*
%TD*%
D31*
%TO.C,J5*%
X60200000Y-63850000D03*
X60200000Y-65100000D03*
X60200000Y-66350000D03*
D32*
X57000000Y-62000000D03*
X57000000Y-68200000D03*
%TD*%
D35*
%TO.C,U2*%
X85075000Y-89100000D03*
X85075001Y-91400000D03*
D36*
X91374999Y-91400000D03*
D35*
X85075000Y-93700000D03*
%TD*%
D37*
%TO.C,J6*%
X81125000Y-65050000D03*
X79875000Y-65050000D03*
X78625000Y-65050000D03*
X77375000Y-65050000D03*
X76125000Y-65050000D03*
X74875000Y-65050000D03*
D38*
X82975000Y-61850000D03*
X73025000Y-61850000D03*
%TD*%
D39*
%TO.C,D6*%
X82600000Y-94062501D03*
X82600000Y-92487499D03*
%TD*%
D14*
%TO.C,D9*%
X65837500Y-61250000D03*
X67412500Y-61250000D03*
%TD*%
D16*
%TO.C,C8*%
X81625000Y-73600000D03*
X81625000Y-75150000D03*
%TD*%
D11*
%TO.C,D7*%
X89987500Y-83225000D03*
X89987500Y-81325000D03*
X88112499Y-82275000D03*
%TD*%
D18*
%TO.C,C5*%
X76425000Y-85200000D03*
X74875000Y-85200000D03*
%TD*%
D40*
%TO.C,D1*%
X90025000Y-86737500D03*
X91925000Y-86737500D03*
X90975000Y-84862499D03*
%TD*%
D33*
%TO.C,J3*%
X94950000Y-91150000D03*
X94950000Y-89900000D03*
X94950000Y-88650000D03*
D34*
X98150000Y-93000000D03*
X98150000Y-86800000D03*
%TD*%
D13*
%TO.C,R1*%
X67525000Y-87300000D03*
X69175000Y-87300000D03*
%TD*%
D41*
%TO.C,C202*%
X82500000Y-87474999D03*
X82500000Y-85575001D03*
%TD*%
D12*
%TO.C,C12*%
X65750000Y-85385000D03*
X65750000Y-83835000D03*
%TD*%
D13*
%TO.C,R20*%
X62300000Y-62725000D03*
X63950000Y-62725000D03*
%TD*%
D16*
%TO.C,C2*%
X93525000Y-78825000D03*
X93525000Y-80375000D03*
%TD*%
D42*
%TO.C,U4*%
X68525000Y-73275001D03*
X68525000Y-73775000D03*
X68525000Y-74275000D03*
X68525000Y-74775000D03*
X68525000Y-75275000D03*
X68525000Y-75775001D03*
X68525000Y-76275000D03*
X68525000Y-76775000D03*
X68525000Y-77275000D03*
X68525000Y-77775000D03*
X68525000Y-78274999D03*
X68525000Y-78775000D03*
X68525000Y-79275000D03*
X68525000Y-79775000D03*
X68525000Y-80275000D03*
X68525000Y-80774999D03*
D43*
X70450001Y-82700000D03*
X70950000Y-82700000D03*
X71450000Y-82700000D03*
X71950000Y-82700000D03*
X72450000Y-82700000D03*
X72950001Y-82700000D03*
X73450000Y-82700000D03*
X73950000Y-82700000D03*
X74450000Y-82700000D03*
X74950000Y-82700000D03*
X75449999Y-82700000D03*
X75950000Y-82700000D03*
X76450000Y-82700000D03*
X76950000Y-82700000D03*
X77450000Y-82700000D03*
X77949999Y-82700000D03*
D42*
X79875000Y-80774999D03*
X79875000Y-80275000D03*
X79875000Y-79775000D03*
X79875000Y-79275000D03*
X79875000Y-78775000D03*
X79875000Y-78274999D03*
X79875000Y-77775000D03*
X79875000Y-77275000D03*
X79875000Y-76775000D03*
X79875000Y-76275000D03*
X79875000Y-75775001D03*
X79875000Y-75275000D03*
X79875000Y-74775000D03*
X79875000Y-74275000D03*
X79875000Y-73775000D03*
X79875000Y-73275001D03*
D43*
X77949999Y-71350000D03*
X77450000Y-71350000D03*
X76950000Y-71350000D03*
X76450000Y-71350000D03*
X75950000Y-71350000D03*
X75449999Y-71350000D03*
X74950000Y-71350000D03*
X74450000Y-71350000D03*
X73950000Y-71350000D03*
X73450000Y-71350000D03*
X72950001Y-71350000D03*
X72450000Y-71350000D03*
X71950000Y-71350000D03*
X71450000Y-71350000D03*
X70950000Y-71350000D03*
X70450001Y-71350000D03*
%TD*%
D44*
%TO.C,C6*%
X66126992Y-72998008D03*
X67223008Y-71901992D03*
%TD*%
M02*
