%TF.GenerationSoftware,KiCad,Pcbnew,10.0.4*%
%TF.CreationDate,2026-07-25T01:45:00+09:00*%
%TF.ProjectId,unit-board,756e6974-2d62-46f6-9172-642e6b696361,rev?*%
%TF.SameCoordinates,Original*%
%TF.FileFunction,Copper,L3,Inr*%
%TF.FilePolarity,Positive*%
%FSLAX46Y46*%
G04 Gerber Fmt 4.6, Leading zero omitted, Abs format (unit mm)*
G04 Created by KiCad (PCBNEW 10.0.4) date 2026-07-25 01:45:00*
%MOMM*%
%LPD*%
G01*
G04 APERTURE LIST*
%TA.AperFunction,ViaPad*%
%ADD10C,0.600000*%
%TD*%
%TA.AperFunction,ViaPad*%
%ADD11C,0.700000*%
%TD*%
%TA.AperFunction,Conductor*%
%ADD12C,0.200000*%
%TD*%
%TA.AperFunction,Conductor*%
%ADD13C,0.500000*%
%TD*%
%TA.AperFunction,Conductor*%
%ADD14C,0.400000*%
%TD*%
G04 APERTURE END LIST*
D10*
%TO.N,GND*%
X84875000Y-68900000D03*
X80150000Y-69050000D03*
X63536765Y-69136765D03*
X75475000Y-82700000D03*
X80675000Y-88350000D03*
X64062500Y-71487500D03*
X73050000Y-87425000D03*
X78125000Y-82650000D03*
X70375000Y-90575000D03*
X92860000Y-70940000D03*
X61450000Y-72450000D03*
X89450000Y-69850000D03*
X81775000Y-75850000D03*
X73175000Y-69500000D03*
X97962500Y-71037500D03*
X61925000Y-80800000D03*
X69750000Y-89300000D03*
X86700000Y-68525000D03*
X65501473Y-89300000D03*
X69818015Y-81131985D03*
X60425000Y-71425000D03*
X79025000Y-74675000D03*
X92075000Y-65675000D03*
X74625000Y-68300000D03*
X87975000Y-75500000D03*
X80150000Y-89075000D03*
X81853907Y-79195323D03*
X84575000Y-71050000D03*
X93250000Y-62000000D03*
X71425000Y-86200000D03*
X83025000Y-75125000D03*
X64750000Y-86650000D03*
X95425000Y-70975000D03*
X94250000Y-62625000D03*
X78350000Y-80900000D03*
X76125000Y-66750000D03*
X87700000Y-86100000D03*
X72900000Y-94100000D03*
X60775000Y-92300000D03*
X66000000Y-62300000D03*
X81775000Y-77400000D03*
X65250000Y-72146576D03*
X61975000Y-66350000D03*
X84925000Y-77800000D03*
X93350000Y-88650000D03*
X63525000Y-91850000D03*
X86475000Y-86975000D03*
X70400000Y-69075000D03*
X77000000Y-85925000D03*
X83900000Y-61700000D03*
X63475000Y-74075000D03*
X77850000Y-79425000D03*
X87925000Y-74700000D03*
X64528446Y-68145083D03*
%TO.N,/G474 Minimum/SWCLK*%
X71222717Y-81647646D03*
X62000000Y-79775000D03*
%TO.N,/G474 Minimum/NRST*%
X61900000Y-76975000D03*
X75739085Y-70639085D03*
%TO.N,/CAN Interface1/CAN_TX*%
X66875000Y-78325000D03*
X83400000Y-67175000D03*
%TO.N,/CAN Interface/PWR_5V*%
X88575000Y-69350000D03*
X81050000Y-66250000D03*
X85300000Y-82625000D03*
X73100000Y-88400000D03*
%TO.N,/CAN Interface1/CAN_RX*%
X66275000Y-77563296D03*
X83400000Y-65900000D03*
%TO.N,/CAN Interface/3.3V*%
X61950000Y-74100000D03*
X70175000Y-86300000D03*
X89650000Y-61175000D03*
X67000000Y-66225000D03*
X89475000Y-82700000D03*
X72300000Y-67300000D03*
D11*
X83800000Y-80075000D03*
X89000000Y-80075000D03*
D10*
X63000000Y-93100000D03*
%TO.N,/CAN Interface1/C620_CAN_L*%
X91525000Y-63975000D03*
X62025000Y-65100000D03*
%TO.N,/CAN Interface1/C620_CAN_H*%
X93675000Y-66625000D03*
X62025000Y-63825000D03*
%TO.N,/G474 Minimum/ADC_5V_MON*%
X81650000Y-68450000D03*
X72750000Y-72775000D03*
%TO.N,/CAN Interface/COMM_A*%
X61100000Y-88100000D03*
X93250000Y-91175000D03*
%TO.N,/CAN Interface/COMM_B*%
X93275000Y-89900000D03*
X61175000Y-90450000D03*
%TO.N,/G474 Minimum/LED_COMM*%
X62400000Y-81600000D03*
X65432238Y-75406402D03*
%TO.N,/G474 Minimum/UNIT_ID0*%
X68162500Y-80325000D03*
X92850000Y-82775000D03*
%TO.N,/G474 Minimum/UNIT_ID1*%
X95400000Y-82800000D03*
X65050000Y-81050000D03*
%TO.N,/G474 Minimum/UNIT_ID2*%
X97950000Y-82850000D03*
X65037500Y-82262500D03*
%TO.N,/G474 Minimum/SPI3_SCK*%
X71838298Y-81136702D03*
X77725000Y-69850000D03*
%TO.N,/G474 Minimum/SPI3_MISO*%
X71050000Y-77950000D03*
X72700000Y-68400000D03*
%TO.N,/G474 Minimum/SPI3_MOSI*%
X72475000Y-80000000D03*
X76600000Y-69800000D03*
%TO.N,/G474 Minimum/AMT22_CS_N*%
X72512500Y-78812500D03*
X69500000Y-66125000D03*
%TD*%
%TO.N,/G474 Minimum/NRST*%
D12*
X61900000Y-76975000D02*
X60250000Y-75325000D01*
X60250000Y-74050000D02*
X60925000Y-73375000D01*
X60925000Y-73375000D02*
X73003170Y-73375000D01*
X73003170Y-73375000D02*
X75739085Y-70639085D01*
X60250000Y-75325000D02*
X60250000Y-74050000D01*
%TO.N,/CAN Interface/PWR_5V*%
D13*
X88575000Y-71825000D02*
X88575000Y-69350000D01*
X82047923Y-80450000D02*
X81875000Y-80450000D01*
X85300000Y-82625000D02*
X90400000Y-77225000D01*
X80875000Y-69385661D02*
X80900000Y-69360661D01*
X80900000Y-68739339D02*
X80875000Y-68714339D01*
X90400000Y-73950000D02*
X88575000Y-71825000D01*
X80875000Y-68714339D02*
X80875000Y-66425000D01*
X84222923Y-82625000D02*
X82047923Y-80450000D01*
X80875000Y-79277077D02*
X80875000Y-69385661D01*
X81875000Y-80450000D02*
X81875000Y-80277077D01*
X78950000Y-88400000D02*
X73100000Y-88400000D01*
X85300000Y-82625000D02*
X84222923Y-82625000D01*
X85300000Y-82625000D02*
X78950000Y-88400000D01*
X90400000Y-77225000D02*
X90400000Y-73950000D01*
X80900000Y-69360661D02*
X80900000Y-68739339D01*
X81875000Y-80277077D02*
X80875000Y-79277077D01*
X80875000Y-66425000D02*
X81050000Y-66250000D01*
%TO.N,/CAN Interface/3.3V*%
D14*
X86825000Y-64750000D02*
X74850000Y-64750000D01*
X82400000Y-89775000D02*
X73051471Y-89775000D01*
X68475000Y-64750000D02*
X67000000Y-66225000D01*
X89475000Y-82700000D02*
X82400000Y-89775000D01*
X74850000Y-64750000D02*
X68475000Y-64750000D01*
X91351471Y-80823529D02*
X91351471Y-66275000D01*
D13*
X72300000Y-67300000D02*
X74850000Y-64750000D01*
D14*
X91351471Y-66275000D02*
X89650000Y-64573529D01*
X91250000Y-69175000D02*
X86825000Y-64750000D01*
X63200000Y-81723529D02*
X63200000Y-75350000D01*
X89475000Y-82700000D02*
X91351471Y-80823529D01*
X70175000Y-86898529D02*
X70175000Y-86300000D01*
X89475000Y-82700000D02*
X79075000Y-93100000D01*
X71251471Y-89775000D02*
X63200000Y-81723529D01*
X91250000Y-80925000D02*
X91250000Y-69175000D01*
X79075000Y-93100000D02*
X63000000Y-93100000D01*
X82400000Y-89775000D02*
X71251471Y-89775000D01*
X89475000Y-82700000D02*
X91250000Y-80925000D01*
X73051471Y-89775000D02*
X70175000Y-86898529D01*
X89650000Y-64573529D02*
X89650000Y-61175000D01*
X63200000Y-75350000D02*
X61950000Y-74100000D01*
%TD*%
M02*
