%TF.GenerationSoftware,KiCad,Pcbnew,10.0.4*%
%TF.CreationDate,2026-07-25T01:45:00+09:00*%
%TF.ProjectId,unit-board,756e6974-2d62-46f6-9172-642e6b696361,rev?*%
%TF.SameCoordinates,Original*%
%TF.FileFunction,Copper,L1,Top*%
%TF.FilePolarity,Positive*%
%FSLAX46Y46*%
G04 Gerber Fmt 4.6, Leading zero omitted, Abs format (unit mm)*
G04 Created by KiCad (PCBNEW 10.0.4) date 2026-07-25 01:45:00*
%MOMM*%
%LPD*%
G01*
G04 APERTURE LIST*
G04 Aperture macros list*
%AMRoundRect*
0 Rectangle with rounded corners*
0 $1 Rounding radius*
0 $2 $3 $4 $5 $6 $7 $8 $9 X,Y pos of 4 corners*
0 Add a 4 corners polygon primitive as box body*
4,1,4,$2,$3,$4,$5,$6,$7,$8,$9,$2,$3,0*
0 Add four circle primitives for the rounded corners*
1,1,$1+$1,$2,$3*
1,1,$1+$1,$4,$5*
1,1,$1+$1,$6,$7*
1,1,$1+$1,$8,$9*
0 Add four rect primitives between the rounded corners*
20,1,$1+$1,$2,$3,$4,$5,0*
20,1,$1+$1,$4,$5,$6,$7,0*
20,1,$1+$1,$6,$7,$8,$9,0*
20,1,$1+$1,$8,$9,$2,$3,0*%
G04 Aperture macros list end*
%TA.AperFunction,SMDPad,CuDef*%
%ADD10RoundRect,0.200000X-0.053033X0.335876X-0.335876X0.053033X0.053033X-0.335876X0.335876X-0.053033X0*%
%TD*%
%TA.AperFunction,SMDPad,CuDef*%
%ADD11RoundRect,0.150000X0.700000X-0.150000X0.700000X0.150000X-0.700000X0.150000X-0.700000X-0.150000X0*%
%TD*%
%TA.AperFunction,SMDPad,CuDef*%
%ADD12RoundRect,0.250000X1.150000X-0.250000X1.150000X0.250000X-1.150000X0.250000X-1.150000X-0.250000X0*%
%TD*%
%TA.AperFunction,SMDPad,CuDef*%
%ADD13RoundRect,0.225000X-0.225000X-0.250000X0.225000X-0.250000X0.225000X0.250000X-0.225000X0.250000X0*%
%TD*%
%TA.AperFunction,SMDPad,CuDef*%
%ADD14RoundRect,0.150000X0.150000X-0.825000X0.150000X0.825000X-0.150000X0.825000X-0.150000X-0.825000X0*%
%TD*%
%TA.AperFunction,SMDPad,CuDef*%
%ADD15RoundRect,0.200000X0.275000X-0.200000X0.275000X0.200000X-0.275000X0.200000X-0.275000X-0.200000X0*%
%TD*%
%TA.AperFunction,SMDPad,CuDef*%
%ADD16RoundRect,0.218750X-0.218750X-0.256250X0.218750X-0.256250X0.218750X0.256250X-0.218750X0.256250X0*%
%TD*%
%TA.AperFunction,SMDPad,CuDef*%
%ADD17RoundRect,0.225000X0.335876X0.017678X0.017678X0.335876X-0.335876X-0.017678X-0.017678X-0.335876X0*%
%TD*%
%TA.AperFunction,SMDPad,CuDef*%
%ADD18RoundRect,0.150000X-0.587500X-0.150000X0.587500X-0.150000X0.587500X0.150000X-0.587500X0.150000X0*%
%TD*%
%TA.AperFunction,SMDPad,CuDef*%
%ADD19RoundRect,0.200000X-0.275000X0.200000X-0.275000X-0.200000X0.275000X-0.200000X0.275000X0.200000X0*%
%TD*%
%TA.AperFunction,SMDPad,CuDef*%
%ADD20RoundRect,0.200000X0.200000X0.275000X-0.200000X0.275000X-0.200000X-0.275000X0.200000X-0.275000X0*%
%TD*%
%TA.AperFunction,SMDPad,CuDef*%
%ADD21RoundRect,0.200000X-0.335876X-0.053033X-0.053033X-0.335876X0.335876X0.053033X0.053033X0.335876X0*%
%TD*%
%TA.AperFunction,SMDPad,CuDef*%
%ADD22RoundRect,0.225000X-0.017678X0.335876X-0.335876X0.017678X0.017678X-0.335876X0.335876X-0.017678X0*%
%TD*%
%TA.AperFunction,SMDPad,CuDef*%
%ADD23RoundRect,0.250000X0.250000X0.475000X-0.250000X0.475000X-0.250000X-0.475000X0.250000X-0.475000X0*%
%TD*%
%TA.AperFunction,SMDPad,CuDef*%
%ADD24RoundRect,0.375000X-0.625000X-0.375000X0.625000X-0.375000X0.625000X0.375000X-0.625000X0.375000X0*%
%TD*%
%TA.AperFunction,SMDPad,CuDef*%
%ADD25RoundRect,0.500000X-0.500000X-1.400000X0.500000X-1.400000X0.500000X1.400000X-0.500000X1.400000X0*%
%TD*%
%TA.AperFunction,SMDPad,CuDef*%
%ADD26RoundRect,0.250000X-0.250000X-0.475000X0.250000X-0.475000X0.250000X0.475000X-0.250000X0.475000X0*%
%TD*%
%TA.AperFunction,SMDPad,CuDef*%
%ADD27RoundRect,0.150000X-0.150000X0.825000X-0.150000X-0.825000X0.150000X-0.825000X0.150000X0.825000X0*%
%TD*%
%TA.AperFunction,SMDPad,CuDef*%
%ADD28RoundRect,0.225000X0.225000X0.250000X-0.225000X0.250000X-0.225000X-0.250000X0.225000X-0.250000X0*%
%TD*%
%TA.AperFunction,SMDPad,CuDef*%
%ADD29RoundRect,0.150000X0.587500X0.150000X-0.587500X0.150000X-0.587500X-0.150000X0.587500X-0.150000X0*%
%TD*%
%TA.AperFunction,SMDPad,CuDef*%
%ADD30RoundRect,0.150000X0.150000X0.700000X-0.150000X0.700000X-0.150000X-0.700000X0.150000X-0.700000X0*%
%TD*%
%TA.AperFunction,SMDPad,CuDef*%
%ADD31RoundRect,0.250000X0.250000X1.100000X-0.250000X1.100000X-0.250000X-1.100000X0.250000X-1.100000X0*%
%TD*%
%TA.AperFunction,SMDPad,CuDef*%
%ADD32R,1.200000X2.500000*%
%TD*%
%TA.AperFunction,SMDPad,CuDef*%
%ADD33RoundRect,0.250000X0.450000X0.350000X-0.450000X0.350000X-0.450000X-0.350000X0.450000X-0.350000X0*%
%TD*%
%TA.AperFunction,SMDPad,CuDef*%
%ADD34RoundRect,0.218750X0.256250X-0.218750X0.256250X0.218750X-0.256250X0.218750X-0.256250X-0.218750X0*%
%TD*%
%TA.AperFunction,SMDPad,CuDef*%
%ADD35RoundRect,0.150000X-0.150000X-0.700000X0.150000X-0.700000X0.150000X0.700000X-0.150000X0.700000X0*%
%TD*%
%TA.AperFunction,SMDPad,CuDef*%
%ADD36RoundRect,0.250000X-0.250000X-1.100000X0.250000X-1.100000X0.250000X1.100000X-0.250000X1.100000X0*%
%TD*%
%TA.AperFunction,SMDPad,CuDef*%
%ADD37RoundRect,0.225000X0.250000X-0.225000X0.250000X0.225000X-0.250000X0.225000X-0.250000X-0.225000X0*%
%TD*%
%TA.AperFunction,SMDPad,CuDef*%
%ADD38RoundRect,0.075000X0.441942X0.548008X-0.548008X-0.441942X-0.441942X-0.548008X0.548008X0.441942X0*%
%TD*%
%TA.AperFunction,SMDPad,CuDef*%
%ADD39RoundRect,0.075000X-0.441942X0.548008X-0.548008X0.441942X0.441942X-0.548008X0.548008X-0.441942X0*%
%TD*%
%TA.AperFunction,SMDPad,CuDef*%
%ADD40RoundRect,0.150000X-0.700000X0.150000X-0.700000X-0.150000X0.700000X-0.150000X0.700000X0.150000X0*%
%TD*%
%TA.AperFunction,SMDPad,CuDef*%
%ADD41RoundRect,0.250000X-1.100000X0.250000X-1.100000X-0.250000X1.100000X-0.250000X1.100000X0.250000X0*%
%TD*%
%TA.AperFunction,SMDPad,CuDef*%
%ADD42RoundRect,0.250000X1.100000X-0.250000X1.100000X0.250000X-1.100000X0.250000X-1.100000X-0.250000X0*%
%TD*%
%TA.AperFunction,SMDPad,CuDef*%
%ADD43RoundRect,0.200000X-0.200000X-0.275000X0.200000X-0.275000X0.200000X0.275000X-0.200000X0.275000X0*%
%TD*%
%TA.AperFunction,SMDPad,CuDef*%
%ADD44RoundRect,0.250000X0.300000X-0.500000X0.300000X0.500000X-0.300000X0.500000X-0.300000X-0.500000X0*%
%TD*%
%TA.AperFunction,SMDPad,CuDef*%
%ADD45RoundRect,0.087500X0.087500X-0.425000X0.087500X0.425000X-0.087500X0.425000X-0.087500X-0.425000X0*%
%TD*%
%TA.AperFunction,SMDPad,CuDef*%
%ADD46RoundRect,0.225000X-0.250000X0.225000X-0.250000X-0.225000X0.250000X-0.225000X0.250000X0.225000X0*%
%TD*%
%TA.AperFunction,SMDPad,CuDef*%
%ADD47RoundRect,0.225000X0.017678X-0.335876X0.335876X-0.017678X-0.017678X0.335876X-0.335876X0.017678X0*%
%TD*%
%TA.AperFunction,SMDPad,CuDef*%
%ADD48RoundRect,0.250000X0.475000X-0.250000X0.475000X0.250000X-0.475000X0.250000X-0.475000X-0.250000X0*%
%TD*%
%TA.AperFunction,ViaPad*%
%ADD49C,0.600000*%
%TD*%
%TA.AperFunction,ViaPad*%
%ADD50C,0.700000*%
%TD*%
%TA.AperFunction,Conductor*%
%ADD51C,0.200000*%
%TD*%
%TA.AperFunction,Conductor*%
%ADD52C,0.500000*%
%TD*%
%TA.AperFunction,Conductor*%
%ADD53C,0.600000*%
%TD*%
%TA.AperFunction,Conductor*%
%ADD54C,0.400000*%
%TD*%
%TA.AperFunction,Conductor*%
%ADD55C,0.300000*%
%TD*%
%TA.AperFunction,Conductor*%
%ADD56C,0.700000*%
%TD*%
G04 APERTURE END LIST*
D10*
%TO.P,R4,1*%
%TO.N,/G474 Minimum/BOOT0*%
X77283363Y-81091637D03*
%TO.P,R4,2*%
%TO.N,GND*%
X76116637Y-82258363D03*
%TD*%
D11*
%TO.P,J7,1,Pin_1_1*%
%TO.N,GND*%
X60250000Y-80225000D03*
%TO.P,J7,2,Pin_2_2*%
%TO.N,/G474 Minimum/SWCLK*%
X60250000Y-78975000D03*
%TO.P,J7,3,Pin_3_3*%
%TO.N,/G474 Minimum/SWDIO*%
X60250000Y-77725000D03*
%TO.P,J7,4,Pin_4_4*%
%TO.N,/G474 Minimum/NRST*%
X60250000Y-76475000D03*
%TO.P,J7,5,Pin_5_5*%
%TO.N,/G474 Minimum/DBG_TX*%
X60250000Y-75225000D03*
%TO.P,J7,6,Pin_6_6*%
%TO.N,/G474 Minimum/DBG_RX*%
X60250000Y-73975000D03*
D12*
%TO.P,J7,MP*%
%TO.N,N/C*%
X56900000Y-82075000D03*
X56900000Y-72125000D03*
%TD*%
D13*
%TO.P,C4,1*%
%TO.N,Net-(C4-Pad1)*%
X81963173Y-70289771D03*
%TO.P,C4,2*%
%TO.N,GND*%
X83513173Y-70289771D03*
%TD*%
D14*
%TO.P,U5,1,TXD_1*%
%TO.N,/CAN Interface1/CAN_TX*%
X84795000Y-67175000D03*
%TO.P,U5,2,GND_2*%
%TO.N,GND*%
X86065000Y-67175000D03*
%TO.P,U5,3,VCC_3*%
%TO.N,/CAN Interface/PWR_5V*%
X87335000Y-67175000D03*
%TO.P,U5,4,RXD_4*%
%TO.N,/CAN Interface1/CAN_RX*%
X88605000Y-67175000D03*
%TO.P,U5,5,VIO_5*%
%TO.N,/CAN Interface/3.3V*%
X88605000Y-62225000D03*
%TO.P,U5,6,CANL_6*%
%TO.N,/CAN Interface1/C620_CAN_L*%
X87335000Y-62225000D03*
%TO.P,U5,7,CANH_7*%
%TO.N,/CAN Interface1/C620_CAN_H*%
X86065000Y-62225000D03*
%TO.P,U5,8,S_8*%
%TO.N,GND*%
X84795000Y-62225000D03*
%TD*%
D15*
%TO.P,R14,1*%
%TO.N,/G474 Minimum/ADC_5V_MON*%
X89425000Y-72450000D03*
%TO.P,R14,2*%
%TO.N,GND*%
X89425000Y-70800000D03*
%TD*%
D13*
%TO.P,C6,1*%
%TO.N,/CAN Interface/3.3V*%
X69875000Y-85250000D03*
%TO.P,C6,2*%
%TO.N,GND*%
X71425000Y-85250000D03*
%TD*%
D16*
%TO.P,D6,1,K_1*%
%TO.N,GND*%
X72087499Y-93250000D03*
%TO.P,D6,2,A_2*%
%TO.N,Net-(D6-A)*%
X73662501Y-93250000D03*
%TD*%
D17*
%TO.P,C12,1*%
%TO.N,/G474 Minimum/VREF_PLUS*%
X65423008Y-70648008D03*
%TO.P,C12,2*%
%TO.N,GND*%
X64326992Y-69551992D03*
%TD*%
D18*
%TO.P,D1,1,IO_1_1*%
%TO.N,/CAN Interface/COMM_A*%
X62462500Y-88550000D03*
%TO.P,D1,2,IO_2_2*%
%TO.N,/CAN Interface/COMM_B*%
X62462500Y-90450000D03*
%TO.P,D1,3,GND_3*%
%TO.N,GND*%
X64337501Y-89500000D03*
%TD*%
D19*
%TO.P,R22,1*%
%TO.N,/G474 Minimum/LED_ERR*%
X63700000Y-82025000D03*
%TO.P,R22,2*%
%TO.N,Net-(D10-A)*%
X63700000Y-83675000D03*
%TD*%
D20*
%TO.P,R1,1*%
%TO.N,/CAN Interface/COMM_A*%
X91675000Y-86925000D03*
%TO.P,R1,2*%
%TO.N,Net-(SW1-COM)*%
X90025000Y-86925000D03*
%TD*%
D21*
%TO.P,R2,1*%
%TO.N,/G474 Minimum/VDDA_A*%
X66391637Y-67416637D03*
%TO.P,R2,2*%
%TO.N,/G474 Minimum/VREF_PLUS*%
X67558363Y-68583363D03*
%TD*%
D22*
%TO.P,C11,1*%
%TO.N,/G474 Minimum/VDDA_A*%
X63298008Y-70626992D03*
%TO.P,C11,2*%
%TO.N,GND*%
X62201992Y-71723008D03*
%TD*%
D23*
%TO.P,C204,1*%
%TO.N,/CAN Interface/3.3V*%
X81049999Y-82650000D03*
%TO.P,C204,2*%
%TO.N,GND*%
X79150001Y-82650000D03*
%TD*%
D24*
%TO.P,U2,1,GND_1*%
%TO.N,GND*%
X83200000Y-77775000D03*
%TO.P,U2,2,VO_2*%
%TO.N,/CAN Interface/3.3V*%
X83200001Y-80075000D03*
D25*
X89499999Y-80075000D03*
D24*
%TO.P,U2,3,VI_3*%
%TO.N,/CAN Interface/PWR_5V*%
X83200000Y-82375000D03*
%TD*%
D26*
%TO.P,C202,1*%
%TO.N,/CAN Interface/PWR_5V*%
X83075001Y-86475000D03*
%TO.P,C202,2*%
%TO.N,GND*%
X84974999Y-86475000D03*
%TD*%
D13*
%TO.P,C16,1*%
%TO.N,/G474 Minimum/ADC_5V_MON*%
X85175000Y-75500000D03*
%TO.P,C16,2*%
%TO.N,GND*%
X86725000Y-75500000D03*
%TD*%
%TO.P,C201,1*%
%TO.N,/CAN Interface/PWR_5V*%
X83200000Y-84725000D03*
%TO.P,C201,2*%
%TO.N,GND*%
X84750000Y-84725000D03*
%TD*%
D27*
%TO.P,U3,1,TXD_1*%
%TO.N,/CAN Interface/CAN_TX*%
X70380000Y-87900000D03*
%TO.P,U3,2,GND_2*%
%TO.N,GND*%
X69110000Y-87900000D03*
%TO.P,U3,3,VCC_3*%
%TO.N,/CAN Interface/PWR_5V*%
X67840000Y-87900000D03*
%TO.P,U3,4,RXD_4*%
%TO.N,/CAN Interface/CAN_RX*%
X66570000Y-87900000D03*
%TO.P,U3,5,VIO_5*%
%TO.N,/CAN Interface/3.3V*%
X66570000Y-92850000D03*
%TO.P,U3,6,CANL_6*%
%TO.N,/CAN Interface/COMM_B*%
X67840000Y-92850000D03*
%TO.P,U3,7,CANH_7*%
%TO.N,/CAN Interface/COMM_A*%
X69110000Y-92850000D03*
%TO.P,U3,8,S_8*%
%TO.N,GND*%
X70380000Y-92850000D03*
%TD*%
D15*
%TO.P,R13,1*%
%TO.N,/CAN Interface/PWR_5V*%
X89425000Y-75425000D03*
%TO.P,R13,2*%
%TO.N,/G474 Minimum/ADC_5V_MON*%
X89425000Y-73775000D03*
%TD*%
D13*
%TO.P,C5,1*%
%TO.N,/CAN Interface/3.3V*%
X79300000Y-75850000D03*
%TO.P,C5,2*%
%TO.N,GND*%
X80850000Y-75850000D03*
%TD*%
%TO.P,C9,1*%
%TO.N,/CAN Interface/3.3V*%
X79300000Y-77375000D03*
%TO.P,C9,2*%
%TO.N,GND*%
X80850000Y-77375000D03*
%TD*%
D28*
%TO.P,C203,1*%
%TO.N,/CAN Interface/3.3V*%
X80875000Y-80900000D03*
%TO.P,C203,2*%
%TO.N,GND*%
X79325000Y-80900000D03*
%TD*%
D29*
%TO.P,D2,1,IO_1_1*%
%TO.N,/CAN Interface1/C620_CAN_H*%
X92287500Y-66625000D03*
%TO.P,D2,2,IO_2_2*%
%TO.N,/CAN Interface1/C620_CAN_L*%
X92287500Y-64725000D03*
%TO.P,D2,3,GND_3*%
%TO.N,GND*%
X90412499Y-65675000D03*
%TD*%
D17*
%TO.P,C14,1*%
%TO.N,/G474 Minimum/VREF_PLUS*%
X66473008Y-69598008D03*
%TO.P,C14,2*%
%TO.N,GND*%
X65376992Y-68501992D03*
%TD*%
D30*
%TO.P,J6,1,Pin_1_1*%
%TO.N,/CAN Interface/PWR_5V*%
X79875000Y-65050000D03*
%TO.P,J6,2,Pin_2_2*%
%TO.N,Net-(J6-Pin_2)*%
X78625000Y-65050000D03*
%TO.P,J6,3,Pin_3_3*%
%TO.N,Net-(J6-Pin_3)*%
X77375000Y-65050000D03*
%TO.P,J6,4,Pin_4_4*%
%TO.N,GND*%
X76125000Y-65050000D03*
%TO.P,J6,5,Pin_5_5*%
%TO.N,Net-(J6-Pin_5)*%
X74875000Y-65050000D03*
%TO.P,J6,6,Pin_6_6*%
%TO.N,Net-(J6-Pin_6)*%
X73625000Y-65050000D03*
D31*
%TO.P,J6,MP*%
%TO.N,N/C*%
X81725000Y-61850000D03*
X71775000Y-61850000D03*
%TD*%
D32*
%TO.P,SW1,1,N.C._1*%
%TO.N,unconnected-(SW1-N.C.-Pad1)*%
X84900000Y-90250000D03*
%TO.P,SW1,2,COM_2*%
%TO.N,Net-(SW1-COM)*%
X87400000Y-90250000D03*
%TO.P,SW1,3,N.O._3*%
%TO.N,/CAN Interface/COMM_B*%
X89900000Y-90250000D03*
%TD*%
D33*
%TO.P,Y1,1,1_1*%
%TO.N,Net-(C4-Pad1)*%
X83025000Y-71950000D03*
%TO.P,Y1,2,G_2*%
%TO.N,GND*%
X80825000Y-71950000D03*
%TO.P,Y1,3,3_3*%
%TO.N,/G474 Minimum/HSE_IN*%
X80825000Y-73650000D03*
%TO.P,Y1,4,G_4*%
%TO.N,GND*%
X83025000Y-73650000D03*
%TD*%
D34*
%TO.P,D8,1,K_1*%
%TO.N,GND*%
X67425000Y-62937501D03*
%TO.P,D8,2,A_2*%
%TO.N,Net-(D8-A)*%
X67425000Y-61362499D03*
%TD*%
D19*
%TO.P,R21,1*%
%TO.N,/G474 Minimum/LED_COMM*%
X61675000Y-82025000D03*
%TO.P,R21,2*%
%TO.N,Net-(D9-A)*%
X61675000Y-83675000D03*
%TD*%
D34*
%TO.P,D10,1,K_1*%
%TO.N,GND*%
X63700000Y-86637501D03*
%TO.P,D10,2,A_2*%
%TO.N,Net-(D10-A)*%
X63700000Y-85062499D03*
%TD*%
D35*
%TO.P,J1,1,Pin_1_1*%
%TO.N,/Power Input 3.3V/PWR_5V_IN*%
X77375000Y-89950000D03*
%TO.P,J1,2,Pin_2_2*%
%TO.N,GND*%
X78625000Y-89950000D03*
D36*
%TO.P,J1,MP*%
%TO.N,N/C*%
X75525000Y-93150000D03*
X80475000Y-93150000D03*
%TD*%
D37*
%TO.P,C1,1*%
%TO.N,/CAN Interface/PWR_5V*%
X72050000Y-88975000D03*
%TO.P,C1,2*%
%TO.N,GND*%
X72050000Y-87425000D03*
%TD*%
D38*
%TO.P,U4,1,VBAT_1*%
%TO.N,/CAN Interface/3.3V*%
X77289481Y-75238819D03*
%TO.P,U4,2,PC13_2*%
%TO.N,unconnected-(U4-PC13-Pad2)*%
X76935928Y-74885266D03*
%TO.P,U4,3,PC14_3*%
%TO.N,unconnected-(U4-PC14-Pad3)*%
X76582375Y-74531713D03*
%TO.P,U4,4,PC15_4*%
%TO.N,unconnected-(U4-PC15-Pad4)*%
X76228821Y-74178159D03*
%TO.P,U4,5,PF0_5*%
%TO.N,/G474 Minimum/HSE_IN*%
X75875268Y-73824606D03*
%TO.P,U4,6,PF1_6*%
%TO.N,/G474 Minimum/HSE_OUT*%
X75521714Y-73471052D03*
%TO.P,U4,7,PG10_7*%
%TO.N,/G474 Minimum/NRST*%
X75168161Y-73117499D03*
%TO.P,U4,8,PC0_8*%
%TO.N,unconnected-(U4-PC0-Pad8)*%
X74814608Y-72763946D03*
%TO.P,U4,9,PC1_9*%
%TO.N,unconnected-(U4-PC1-Pad9)*%
X74461054Y-72410392D03*
%TO.P,U4,10,PC2_10*%
%TO.N,unconnected-(U4-PC2-Pad10)*%
X74107501Y-72056839D03*
%TO.P,U4,11,PC3_11*%
%TO.N,unconnected-(U4-PC3-Pad11)*%
X73753948Y-71703286D03*
%TO.P,U4,12,PA0_12*%
%TO.N,/G474 Minimum/ADC_5V_MON*%
X73400394Y-71349732D03*
%TO.P,U4,13,PA1_13*%
%TO.N,unconnected-(U4-PA1-Pad13)*%
X73046841Y-70996179D03*
%TO.P,U4,14,PA2_14*%
%TO.N,/G474 Minimum/DBG_TX*%
X72693287Y-70642625D03*
%TO.P,U4,15,VSS_15*%
%TO.N,GND*%
X72339734Y-70289072D03*
%TO.P,U4,16,VDD_16*%
%TO.N,/CAN Interface/3.3V*%
X71986181Y-69935519D03*
D39*
%TO.P,U4,17,PA3_17*%
%TO.N,/G474 Minimum/DBG_RX*%
X69263819Y-69935519D03*
%TO.P,U4,18,PA4_18*%
%TO.N,unconnected-(U4-PA4-Pad18)*%
X68910266Y-70289072D03*
%TO.P,U4,19,PA5_19*%
%TO.N,/G474 Minimum/LED_RUN*%
X68556713Y-70642625D03*
%TO.P,U4,20,PA6_20*%
%TO.N,unconnected-(U4-PA6-Pad20)*%
X68203159Y-70996179D03*
%TO.P,U4,21,PA7_21*%
%TO.N,unconnected-(U4-PA7-Pad21)*%
X67849606Y-71349732D03*
%TO.P,U4,22,PC4_22*%
%TO.N,unconnected-(U4-PC4-Pad22)*%
X67496052Y-71703286D03*
%TO.P,U4,23,PC5_23*%
%TO.N,unconnected-(U4-PC5-Pad23)*%
X67142499Y-72056839D03*
%TO.P,U4,24,PB0_24*%
%TO.N,unconnected-(U4-PB0-Pad24)*%
X66788946Y-72410392D03*
%TO.P,U4,25,PB1_25*%
%TO.N,unconnected-(U4-PB1-Pad25)*%
X66435392Y-72763946D03*
%TO.P,U4,26,PB2_26*%
%TO.N,unconnected-(U4-PB2-Pad26)*%
X66081839Y-73117499D03*
%TO.P,U4,27,VSSA_27*%
%TO.N,GND*%
X65728286Y-73471052D03*
%TO.P,U4,28,VREF+_28*%
%TO.N,/G474 Minimum/VREF_PLUS*%
X65374732Y-73824606D03*
%TO.P,U4,29,VDDA_29*%
%TO.N,/G474 Minimum/VDDA_A*%
X65021179Y-74178159D03*
%TO.P,U4,30,PB10_30*%
%TO.N,/G474 Minimum/LED_COMM*%
X64667625Y-74531713D03*
%TO.P,U4,31,VSS_31*%
%TO.N,GND*%
X64314072Y-74885266D03*
%TO.P,U4,32,VDD_32*%
%TO.N,/CAN Interface/3.3V*%
X63960519Y-75238819D03*
D38*
%TO.P,U4,33,PB11_33*%
%TO.N,/G474 Minimum/LED_ERR*%
X63960519Y-77961181D03*
%TO.P,U4,34,PB12_34*%
%TO.N,/CAN Interface1/CAN_RX*%
X64314072Y-78314734D03*
%TO.P,U4,35,PB13_35*%
%TO.N,/CAN Interface1/CAN_TX*%
X64667625Y-78668287D03*
%TO.P,U4,36,PB14_36*%
%TO.N,unconnected-(U4-PB14-Pad36)*%
X65021179Y-79021841D03*
%TO.P,U4,37,PB15_37*%
%TO.N,unconnected-(U4-PB15-Pad37)*%
X65374732Y-79375394D03*
%TO.P,U4,38,PC6_38*%
%TO.N,/G474 Minimum/UNIT_ID0*%
X65728286Y-79728948D03*
%TO.P,U4,39,PC7_39*%
%TO.N,/G474 Minimum/UNIT_ID1*%
X66081839Y-80082501D03*
%TO.P,U4,40,PC8_40*%
%TO.N,/G474 Minimum/UNIT_ID2*%
X66435392Y-80436054D03*
%TO.P,U4,41,PC9_41*%
%TO.N,unconnected-(U4-PC9-Pad41)*%
X66788946Y-80789608D03*
%TO.P,U4,42,PA8_42*%
%TO.N,unconnected-(U4-PA8-Pad42)*%
X67142499Y-81143161D03*
%TO.P,U4,43,PA9_43*%
%TO.N,unconnected-(U4-PA9-Pad43)*%
X67496052Y-81496714D03*
%TO.P,U4,44,PA10_44*%
%TO.N,unconnected-(U4-PA10-Pad44)*%
X67849606Y-81850268D03*
%TO.P,U4,45,PA11_45*%
%TO.N,/CAN Interface/CAN_RX*%
X68203159Y-82203821D03*
%TO.P,U4,46,PA12_46*%
%TO.N,/CAN Interface/CAN_TX*%
X68556713Y-82557375D03*
%TO.P,U4,47,VSS_47*%
%TO.N,GND*%
X68910266Y-82910928D03*
%TO.P,U4,48,VDD_48*%
%TO.N,/CAN Interface/3.3V*%
X69263819Y-83264481D03*
D39*
%TO.P,U4,49,PA13_49*%
%TO.N,/G474 Minimum/SWDIO*%
X71986181Y-83264481D03*
%TO.P,U4,50,PA14_50*%
%TO.N,/G474 Minimum/SWCLK*%
X72339734Y-82910928D03*
%TO.P,U4,51,PA15_51*%
%TO.N,/G474 Minimum/I2C_SCL*%
X72693287Y-82557375D03*
%TO.P,U4,52,PC10_52*%
%TO.N,/G474 Minimum/SPI3_SCK*%
X73046841Y-82203821D03*
%TO.P,U4,53,PC11_53*%
%TO.N,/G474 Minimum/SPI3_MISO*%
X73400394Y-81850268D03*
%TO.P,U4,54,PC12_54*%
%TO.N,/G474 Minimum/SPI3_MOSI*%
X73753948Y-81496714D03*
%TO.P,U4,55,PD2_55*%
%TO.N,/G474 Minimum/AMT22_CS_N*%
X74107501Y-81143161D03*
%TO.P,U4,56,PB3_56*%
%TO.N,/G474 Minimum/SWO*%
X74461054Y-80789608D03*
%TO.P,U4,57,PB4_57*%
%TO.N,unconnected-(U4-PB4-Pad57)*%
X74814608Y-80436054D03*
%TO.P,U4,58,PB5_58*%
%TO.N,unconnected-(U4-PB5-Pad58)*%
X75168161Y-80082501D03*
%TO.P,U4,59,PB6_59*%
%TO.N,unconnected-(U4-PB6-Pad59)*%
X75521714Y-79728948D03*
%TO.P,U4,60,PB7_60*%
%TO.N,/G474 Minimum/I2C_SDA*%
X75875268Y-79375394D03*
%TO.P,U4,61,PB8_61*%
%TO.N,/G474 Minimum/BOOT0*%
X76228821Y-79021841D03*
%TO.P,U4,62,PB9_62*%
%TO.N,unconnected-(U4-PB9-Pad62)*%
X76582375Y-78668287D03*
%TO.P,U4,63,VSS_63*%
%TO.N,GND*%
X76935928Y-78314734D03*
%TO.P,U4,64,VDD_64*%
%TO.N,/CAN Interface/3.3V*%
X77289481Y-77961181D03*
%TD*%
D20*
%TO.P,R17,1*%
%TO.N,Net-(J6-Pin_5)*%
X75100000Y-67125000D03*
%TO.P,R17,2*%
%TO.N,/G474 Minimum/SPI3_MISO*%
X73450000Y-67125000D03*
%TD*%
D40*
%TO.P,J2,1,Pin_1_1*%
%TO.N,/CAN Interface/COMM_A*%
X60050000Y-88650000D03*
%TO.P,J2,2,Pin_2_2*%
%TO.N,/CAN Interface/COMM_B*%
X60050000Y-89900000D03*
%TO.P,J2,3,Pin_3_3*%
%TO.N,GND*%
X60050000Y-91150000D03*
D41*
%TO.P,J2,MP*%
%TO.N,N/C*%
X56850000Y-86800000D03*
X56850000Y-93000000D03*
%TD*%
D11*
%TO.P,J4,1,Pin_1_1*%
%TO.N,/CAN Interface1/C620_CAN_H*%
X94950000Y-66350000D03*
%TO.P,J4,2,Pin_2_2*%
%TO.N,/CAN Interface1/C620_CAN_L*%
X94950000Y-65100000D03*
%TO.P,J4,3,Pin_3_3*%
%TO.N,GND*%
X94950000Y-63850000D03*
D42*
%TO.P,J4,MP*%
%TO.N,N/C*%
X98150000Y-68200000D03*
X98150000Y-62000000D03*
%TD*%
D28*
%TO.P,C8,1*%
%TO.N,/CAN Interface/3.3V*%
X71400000Y-67925000D03*
%TO.P,C8,2*%
%TO.N,GND*%
X69850000Y-67925000D03*
%TD*%
D43*
%TO.P,R3,1*%
%TO.N,/G474 Minimum/HSE_OUT*%
X78925647Y-70307449D03*
%TO.P,R3,2*%
%TO.N,Net-(C4-Pad1)*%
X80575647Y-70307449D03*
%TD*%
D40*
%TO.P,J5,1,Pin_1_1*%
%TO.N,/CAN Interface1/C620_CAN_H*%
X60200000Y-63850000D03*
%TO.P,J5,2,Pin_2_2*%
%TO.N,/CAN Interface1/C620_CAN_L*%
X60200000Y-65100000D03*
%TO.P,J5,3,Pin_3_3*%
%TO.N,GND*%
X60200000Y-66350000D03*
D41*
%TO.P,J5,MP*%
%TO.N,N/C*%
X57000000Y-62000000D03*
X57000000Y-68200000D03*
%TD*%
D44*
%TO.P,SW3,1*%
%TO.N,/G474 Minimum/UNIT_ID0*%
X92860000Y-81350000D03*
%TO.P,SW3,2*%
%TO.N,/G474 Minimum/UNIT_ID1*%
X95400000Y-81350000D03*
%TO.P,SW3,3*%
%TO.N,/G474 Minimum/UNIT_ID2*%
X97940000Y-81350000D03*
%TO.P,SW3,4*%
%TO.N,GND*%
X97940000Y-72450000D03*
%TO.P,SW3,5*%
X95400000Y-72450000D03*
%TO.P,SW3,6*%
X92860000Y-72450000D03*
%TD*%
D43*
%TO.P,R19,1*%
%TO.N,/CAN Interface/3.3V*%
X72025000Y-91750000D03*
%TO.P,R19,2*%
%TO.N,Net-(D6-A)*%
X73675000Y-91750000D03*
%TD*%
D20*
%TO.P,R18,1*%
%TO.N,Net-(J6-Pin_6)*%
X72075000Y-66125000D03*
%TO.P,R18,2*%
%TO.N,/G474 Minimum/AMT22_CS_N*%
X70425000Y-66125000D03*
%TD*%
D34*
%TO.P,D9,1,K_1*%
%TO.N,GND*%
X61675000Y-86637501D03*
%TO.P,D9,2,A_2*%
%TO.N,Net-(D9-A)*%
X61675000Y-85062499D03*
%TD*%
D17*
%TO.P,C15,1*%
%TO.N,/G474 Minimum/NRST*%
X75098008Y-69998008D03*
%TO.P,C15,2*%
%TO.N,GND*%
X74001992Y-68901992D03*
%TD*%
D28*
%TO.P,C17,1*%
%TO.N,/CAN Interface/PWR_5V*%
X87425000Y-69375000D03*
%TO.P,C17,2*%
%TO.N,GND*%
X85875000Y-69375000D03*
%TD*%
D37*
%TO.P,C2,1*%
%TO.N,/CAN Interface/3.3V*%
X64600000Y-93500000D03*
%TO.P,C2,2*%
%TO.N,GND*%
X64600000Y-91950000D03*
%TD*%
D45*
%TO.P,U1,1,VIN_1*%
%TO.N,/Power Input 3.3V/PWR_5V_IN*%
X80050001Y-87212500D03*
%TO.P,U1,2,GND_2*%
%TO.N,GND*%
X80700000Y-87212500D03*
%TO.P,U1,3,~{CE}_3*%
%TO.N,/CAN Interface/PWR_5V*%
X81349999Y-87212500D03*
%TO.P,U1,4,N/C_4*%
%TO.N,unconnected-(U1-N{slash}C-Pad4)*%
X81349999Y-85537500D03*
%TO.P,U1,5,ST_5*%
%TO.N,unconnected-(U1-ST-Pad5)*%
X80700000Y-85537500D03*
%TO.P,U1,6,VOUT_6*%
%TO.N,/CAN Interface/PWR_5V*%
X80050001Y-85537500D03*
%TD*%
D23*
%TO.P,C10,1*%
%TO.N,GND*%
X81049999Y-79150000D03*
%TO.P,C10,2*%
%TO.N,/CAN Interface/3.3V*%
X79150001Y-79150000D03*
%TD*%
D19*
%TO.P,R16,1*%
%TO.N,Net-(J6-Pin_3)*%
X77300000Y-67075000D03*
%TO.P,R16,2*%
%TO.N,/G474 Minimum/SPI3_MOSI*%
X77300000Y-68725000D03*
%TD*%
D22*
%TO.P,C13,1*%
%TO.N,/G474 Minimum/VDDA_A*%
X62248008Y-69576992D03*
%TO.P,C13,2*%
%TO.N,GND*%
X61151992Y-70673008D03*
%TD*%
D46*
%TO.P,C3,1*%
%TO.N,/G474 Minimum/HSE_IN*%
X79025862Y-72095711D03*
%TO.P,C3,2*%
%TO.N,GND*%
X79025862Y-73645711D03*
%TD*%
D13*
%TO.P,C18,1*%
%TO.N,/CAN Interface/3.3V*%
X90700000Y-62000000D03*
%TO.P,C18,2*%
%TO.N,GND*%
X92250000Y-62000000D03*
%TD*%
D19*
%TO.P,R15,1*%
%TO.N,Net-(J6-Pin_2)*%
X78775000Y-67075000D03*
%TO.P,R15,2*%
%TO.N,/G474 Minimum/SPI3_SCK*%
X78775000Y-68725000D03*
%TD*%
D15*
%TO.P,R20,1*%
%TO.N,/G474 Minimum/LED_RUN*%
X68900000Y-62975000D03*
%TO.P,R20,2*%
%TO.N,Net-(D8-A)*%
X68900000Y-61325000D03*
%TD*%
D11*
%TO.P,J3,1,Pin_1_1*%
%TO.N,/CAN Interface/COMM_A*%
X94950000Y-91150000D03*
%TO.P,J3,2,Pin_2_2*%
%TO.N,/CAN Interface/COMM_B*%
X94950000Y-89900000D03*
%TO.P,J3,3,Pin_3_3*%
%TO.N,GND*%
X94950000Y-88650000D03*
D42*
%TO.P,J3,MP*%
%TO.N,N/C*%
X98150000Y-93000000D03*
X98150000Y-86800000D03*
%TD*%
D47*
%TO.P,C7,1*%
%TO.N,/CAN Interface/3.3V*%
X62676992Y-73448008D03*
%TO.P,C7,2*%
%TO.N,GND*%
X63773008Y-72351992D03*
%TD*%
D48*
%TO.P,C101,1*%
%TO.N,/Power Input 3.3V/PWR_5V_IN*%
X78450000Y-87324999D03*
%TO.P,C101,2*%
%TO.N,GND*%
X78450000Y-85425001D03*
%TD*%
D16*
%TO.P,FB1,1*%
%TO.N,/G474 Minimum/VDDA_A*%
X66362499Y-65100000D03*
%TO.P,FB1,2*%
%TO.N,/CAN Interface/3.3V*%
X67937501Y-65100000D03*
%TD*%
D29*
%TO.P,D7,1,A_1*%
%TO.N,GND*%
X87162500Y-73750000D03*
%TO.P,D7,2,K_2*%
%TO.N,/CAN Interface/3.3V*%
X87162500Y-71850000D03*
%TO.P,D7,3,COM_3*%
%TO.N,/G474 Minimum/ADC_5V_MON*%
X85287499Y-72800000D03*
%TD*%
D49*
%TO.N,GND*%
X84875000Y-68900000D03*
X80150000Y-69050000D03*
X63536765Y-69136765D03*
X75475000Y-82700000D03*
X80675000Y-88350000D03*
X64062500Y-71487500D03*
X73050000Y-87425000D03*
X78125000Y-82650000D03*
X70375000Y-90575000D03*
X92860000Y-70940000D03*
X61450000Y-72450000D03*
X89450000Y-69850000D03*
X81775000Y-75850000D03*
X73175000Y-69500000D03*
X97962500Y-71037500D03*
X61925000Y-80800000D03*
X69750000Y-89300000D03*
X86700000Y-68525000D03*
X65501473Y-89300000D03*
X69818015Y-81131985D03*
X60425000Y-71425000D03*
X79025000Y-74675000D03*
X92075000Y-65675000D03*
X74625000Y-68300000D03*
X87975000Y-75500000D03*
X80150000Y-89075000D03*
X81853907Y-79195323D03*
X84575000Y-71050000D03*
X93250000Y-62000000D03*
X71425000Y-86200000D03*
X83025000Y-75125000D03*
X64750000Y-86650000D03*
X95425000Y-70975000D03*
X94250000Y-62625000D03*
X78350000Y-80900000D03*
X76125000Y-66750000D03*
X87700000Y-86100000D03*
X72900000Y-94100000D03*
X60775000Y-92300000D03*
X66000000Y-62300000D03*
X81775000Y-77400000D03*
X65250000Y-72146576D03*
X61975000Y-66350000D03*
X84925000Y-77800000D03*
X93350000Y-88650000D03*
X63525000Y-91850000D03*
X86475000Y-86975000D03*
X70400000Y-69075000D03*
X77000000Y-85925000D03*
X83900000Y-61700000D03*
X63475000Y-74075000D03*
X77850000Y-79425000D03*
X87925000Y-74700000D03*
X64528446Y-68145083D03*
%TO.N,/G474 Minimum/SWCLK*%
X71222717Y-81647646D03*
X62000000Y-79775000D03*
%TO.N,/G474 Minimum/NRST*%
X61900000Y-76975000D03*
X75739085Y-70639085D03*
%TO.N,/CAN Interface1/CAN_TX*%
X66875000Y-78325000D03*
X83400000Y-67175000D03*
%TO.N,/CAN Interface/PWR_5V*%
X88575000Y-69350000D03*
X81050000Y-66250000D03*
X85300000Y-82625000D03*
X73100000Y-88400000D03*
%TO.N,/CAN Interface1/CAN_RX*%
X66275000Y-77563296D03*
X83400000Y-65900000D03*
%TO.N,/CAN Interface/3.3V*%
X61950000Y-74100000D03*
X70175000Y-86300000D03*
X89650000Y-61175000D03*
X67000000Y-66225000D03*
X89475000Y-82700000D03*
X72300000Y-67300000D03*
D50*
X83800000Y-80075000D03*
X89000000Y-80075000D03*
D49*
X63000000Y-93100000D03*
%TO.N,/CAN Interface1/C620_CAN_L*%
X91525000Y-63975000D03*
X62025000Y-65100000D03*
%TO.N,/CAN Interface1/C620_CAN_H*%
X93675000Y-66625000D03*
X62025000Y-63825000D03*
%TO.N,/G474 Minimum/ADC_5V_MON*%
X81650000Y-68450000D03*
X72750000Y-72775000D03*
%TO.N,/CAN Interface/COMM_A*%
X61100000Y-88100000D03*
X93250000Y-91175000D03*
%TO.N,/CAN Interface/COMM_B*%
X93275000Y-89900000D03*
X61175000Y-90450000D03*
%TO.N,/G474 Minimum/LED_COMM*%
X62400000Y-81600000D03*
X65432238Y-75406402D03*
%TO.N,/G474 Minimum/UNIT_ID0*%
X68162500Y-80325000D03*
X92850000Y-82775000D03*
%TO.N,/G474 Minimum/UNIT_ID1*%
X95400000Y-82800000D03*
X65050000Y-81050000D03*
%TO.N,/G474 Minimum/UNIT_ID2*%
X97950000Y-82850000D03*
X65037500Y-82262500D03*
%TO.N,/G474 Minimum/SPI3_SCK*%
X71838298Y-81136702D03*
X77725000Y-69850000D03*
%TO.N,/G474 Minimum/SPI3_MISO*%
X71050000Y-77950000D03*
X72700000Y-68400000D03*
%TO.N,/G474 Minimum/SPI3_MOSI*%
X72475000Y-80000000D03*
X76600000Y-69800000D03*
%TO.N,/G474 Minimum/AMT22_CS_N*%
X72512500Y-78812500D03*
X69500000Y-66125000D03*
%TD*%
%TO.N,/G474 Minimum/BOOT0*%
D51*
X77283363Y-80076383D02*
X76228821Y-79021841D01*
X77283363Y-81091637D02*
X77283363Y-80076383D01*
%TO.N,GND*%
X60200000Y-66350000D02*
X61975000Y-66350000D01*
X80700000Y-88325000D02*
X80675000Y-88350000D01*
X61350000Y-80225000D02*
X61925000Y-80800000D01*
X64285266Y-74885266D02*
X63475000Y-74075000D01*
X78450000Y-85425001D02*
X77499999Y-85425001D01*
X65728286Y-73471052D02*
X65157362Y-72900128D01*
X74600000Y-68300000D02*
X74001992Y-68898008D01*
X83200000Y-77775000D02*
X84900000Y-77775000D01*
X65501473Y-89300000D02*
X65301473Y-89500000D01*
X69110000Y-87900000D02*
X69110000Y-88660000D01*
X80850000Y-75850000D02*
X81775000Y-75850000D01*
X72050000Y-87425000D02*
X73050000Y-87425000D01*
X62176992Y-71723008D02*
X61450000Y-72450000D01*
X81750000Y-77375000D02*
X81775000Y-77400000D01*
X85875000Y-69375000D02*
X85350000Y-69375000D01*
X87162500Y-73750000D02*
X87162500Y-73937500D01*
X93350000Y-88650000D02*
X94950000Y-88650000D01*
X61151992Y-70698008D02*
X60425000Y-71425000D01*
X92250000Y-62000000D02*
X93250000Y-62000000D01*
X72385928Y-70289072D02*
X73175000Y-69500000D01*
X79425000Y-89950000D02*
X78625000Y-89950000D01*
X68910266Y-82910928D02*
X69818015Y-82003179D01*
X80700000Y-87212500D02*
X80700000Y-88325000D01*
X83814771Y-70289771D02*
X84575000Y-71050000D01*
X79875647Y-69324353D02*
X80150000Y-69050000D01*
X97940000Y-71060000D02*
X97940000Y-72450000D01*
X80150000Y-89075000D02*
X80150000Y-89225000D01*
X84425000Y-62225000D02*
X83900000Y-61700000D01*
X87162500Y-73937500D02*
X87925000Y-74700000D01*
X66637501Y-62937501D02*
X66000000Y-62300000D01*
X61151992Y-70673008D02*
X61151992Y-70698008D01*
X65360355Y-68501992D02*
X65376992Y-68501992D01*
X81808584Y-79150000D02*
X81853907Y-79195323D01*
X64600000Y-91875000D02*
X63550000Y-91875000D01*
X80850000Y-77375000D02*
X81750000Y-77375000D01*
X74001992Y-68898008D02*
X74001992Y-68901992D01*
X64528446Y-68145083D02*
X65003446Y-68145083D01*
X60050000Y-91575000D02*
X60050000Y-91150000D01*
X70380000Y-92850000D02*
X70380000Y-90580000D01*
X70380000Y-90580000D02*
X70375000Y-90575000D01*
X75475000Y-82700000D02*
X75675000Y-82700000D01*
X60250000Y-80225000D02*
X61350000Y-80225000D01*
X84974999Y-86475000D02*
X85975000Y-86475000D01*
X84750000Y-84725000D02*
X86325000Y-84725000D01*
X79875647Y-71000647D02*
X79875647Y-69324353D01*
X79025862Y-73645711D02*
X79025862Y-74674138D01*
X64314072Y-74885266D02*
X64285266Y-74885266D01*
X60775000Y-92300000D02*
X60050000Y-91575000D01*
X62201992Y-71723008D02*
X62176992Y-71723008D01*
X97962500Y-71037500D02*
X97940000Y-71060000D01*
X95400000Y-72450000D02*
X95400000Y-71000000D01*
X84900000Y-77775000D02*
X84925000Y-77800000D01*
X72087499Y-93250000D02*
X72087499Y-93287499D01*
X77499999Y-85425001D02*
X77000000Y-85925000D01*
X65157362Y-72900128D02*
X65157362Y-72239214D01*
X78125000Y-82650000D02*
X79150001Y-82650000D01*
X89425000Y-70800000D02*
X89425000Y-69875000D01*
X90412499Y-65675000D02*
X92075000Y-65675000D01*
X63550000Y-91875000D02*
X63525000Y-91850000D01*
D52*
X61675000Y-86637501D02*
X63700000Y-86637501D01*
D51*
X76935928Y-78314734D02*
X77850000Y-79228806D01*
X64737501Y-86637501D02*
X64750000Y-86650000D01*
D52*
X63700000Y-86637501D02*
X64737501Y-86637501D01*
D51*
X86065000Y-67890000D02*
X86700000Y-68525000D01*
X76125000Y-65050000D02*
X76125000Y-66750000D01*
X86325000Y-84725000D02*
X87700000Y-86100000D01*
X85975000Y-86475000D02*
X86475000Y-86975000D01*
X74625000Y-68300000D02*
X74600000Y-68300000D01*
X65301473Y-89500000D02*
X64337501Y-89500000D01*
X85350000Y-69375000D02*
X84875000Y-68900000D01*
X75675000Y-82700000D02*
X76116637Y-82258363D01*
X86725000Y-75500000D02*
X87975000Y-75500000D01*
X80150000Y-89225000D02*
X79425000Y-89950000D01*
X92860000Y-72450000D02*
X97940000Y-72450000D01*
X69850000Y-67925000D02*
X69850000Y-68525000D01*
X71425000Y-85250000D02*
X71425000Y-86200000D01*
X64326992Y-69551992D02*
X63911765Y-69136765D01*
X83513173Y-70289771D02*
X83814771Y-70289771D01*
X95400000Y-71000000D02*
X95425000Y-70975000D01*
X63773008Y-71776992D02*
X63773008Y-72351992D01*
X86065000Y-67175000D02*
X86065000Y-67890000D01*
X65157362Y-72239214D02*
X65250000Y-72146576D01*
X83025000Y-73650000D02*
X83025000Y-75125000D01*
X94950000Y-63325000D02*
X94250000Y-62625000D01*
X64062500Y-71487500D02*
X63773008Y-71776992D01*
X79325000Y-80900000D02*
X78350000Y-80900000D01*
X89425000Y-69875000D02*
X89450000Y-69850000D01*
X65003446Y-68145083D02*
X65360355Y-68501992D01*
X92860000Y-70940000D02*
X92860000Y-72450000D01*
X79025862Y-74674138D02*
X79025000Y-74675000D01*
X67425000Y-62937501D02*
X66637501Y-62937501D01*
X69818015Y-82003179D02*
X69818015Y-81131985D01*
X81049999Y-79150000D02*
X81808584Y-79150000D01*
X69110000Y-88660000D02*
X69750000Y-89300000D01*
X80825000Y-71950000D02*
X79875647Y-71000647D01*
X72087499Y-93287499D02*
X72900000Y-94100000D01*
X94950000Y-63850000D02*
X94950000Y-63325000D01*
X72339734Y-70289072D02*
X72385928Y-70289072D01*
X77850000Y-79228806D02*
X77850000Y-79425000D01*
X69850000Y-68525000D02*
X70400000Y-69075000D01*
X63911765Y-69136765D02*
X63536765Y-69136765D01*
X84795000Y-62225000D02*
X84425000Y-62225000D01*
%TO.N,/G474 Minimum/SWCLK*%
X71222717Y-81647646D02*
X71475000Y-81899929D01*
X61200000Y-78975000D02*
X62000000Y-79775000D01*
X71475000Y-81899929D02*
X71475000Y-82046194D01*
X60250000Y-78975000D02*
X61200000Y-78975000D01*
X71475000Y-82046194D02*
X72339734Y-82910928D01*
%TO.N,/G474 Minimum/SWDIO*%
X71964481Y-83264481D02*
X71986181Y-83264481D01*
X62965762Y-76963296D02*
X66788296Y-76963296D01*
X66788296Y-76963296D02*
X70622717Y-80797717D01*
X62204058Y-77725000D02*
X62965762Y-76963296D01*
X70622717Y-80797717D02*
X70622717Y-81922717D01*
X60250000Y-77725000D02*
X62204058Y-77725000D01*
X70622717Y-81922717D02*
X71964481Y-83264481D01*
%TO.N,/G474 Minimum/NRST*%
X75739085Y-70639085D02*
X75739085Y-72546575D01*
X60250000Y-76475000D02*
X61400000Y-76475000D01*
X75739085Y-72546575D02*
X75168161Y-73117499D01*
X61400000Y-76475000D02*
X61900000Y-76975000D01*
X75098008Y-69998008D02*
X75739085Y-70639085D01*
%TO.N,/G474 Minimum/DBG_TX*%
X64735303Y-76550000D02*
X66856622Y-76550000D01*
X66856622Y-76550000D02*
X72928311Y-70478311D01*
X62547611Y-76563296D02*
X64722008Y-76563296D01*
X64722008Y-76563296D02*
X64735303Y-76550000D01*
X61209315Y-75225000D02*
X62547611Y-76563296D01*
X60250000Y-75225000D02*
X61209315Y-75225000D01*
%TO.N,/G474 Minimum/DBG_RX*%
X69834743Y-72890257D02*
X69834743Y-70506443D01*
X62713296Y-76163296D02*
X64556322Y-76163296D01*
X69834743Y-70506443D02*
X69263819Y-69935519D01*
X64556322Y-76163296D02*
X64569618Y-76150000D01*
X60525000Y-73975000D02*
X62713296Y-76163296D01*
X60250000Y-73975000D02*
X60525000Y-73975000D01*
X64569618Y-76150000D02*
X66575000Y-76150000D01*
X66575000Y-76150000D02*
X69834743Y-72890257D01*
%TO.N,Net-(C4-Pad1)*%
X80593325Y-70289771D02*
X80575647Y-70307449D01*
X83025000Y-71950000D02*
X81963173Y-70888173D01*
X81963173Y-70888173D02*
X81963173Y-70289771D01*
X81963173Y-70289771D02*
X80593325Y-70289771D01*
%TO.N,/CAN Interface1/CAN_TX*%
X66875000Y-78325000D02*
X65844618Y-78325000D01*
X65844618Y-78325000D02*
X65616982Y-78097364D01*
X65238548Y-78097364D02*
X64667625Y-78668287D01*
X65616982Y-78097364D02*
X65238548Y-78097364D01*
X83400000Y-67175000D02*
X84795000Y-67175000D01*
%TO.N,/CAN Interface/PWR_5V*%
D52*
X89425000Y-75425000D02*
X89425000Y-76150000D01*
D51*
X83075001Y-84849999D02*
X83200000Y-84725000D01*
D53*
X83100000Y-84874998D02*
X83075001Y-84849999D01*
D51*
X80400002Y-86400000D02*
X80950432Y-86400000D01*
X80950432Y-86400000D02*
X81349999Y-86799567D01*
D52*
X83200000Y-84725000D02*
X85300000Y-82625000D01*
D53*
X83125000Y-84650000D02*
X83125000Y-82450000D01*
D51*
X81349999Y-87212500D02*
X82087499Y-86475000D01*
D53*
X83075001Y-86475000D02*
X83100000Y-86450001D01*
D54*
X67840000Y-88874999D02*
X67840000Y-87900000D01*
D53*
X82087499Y-86475000D02*
X83075001Y-86475000D01*
D51*
X81349999Y-86799567D02*
X81349999Y-87212500D01*
X87425000Y-67265000D02*
X87335000Y-67175000D01*
X80050001Y-86049999D02*
X80400002Y-86400000D01*
D53*
X83200000Y-84725000D02*
X83125000Y-84650000D01*
D51*
X79875000Y-65075000D02*
X81050000Y-66250000D01*
D54*
X68865001Y-89900000D02*
X67840000Y-88874999D01*
D51*
X88550000Y-69375000D02*
X88575000Y-69350000D01*
D54*
X72050000Y-88975000D02*
X71125000Y-89900000D01*
D51*
X80050001Y-85537500D02*
X80050001Y-86049999D01*
X79875000Y-65050000D02*
X79875000Y-65075000D01*
X72050000Y-88975000D02*
X73100000Y-88400000D01*
D53*
X83100000Y-86450001D02*
X83100000Y-84874998D01*
X83125000Y-82450000D02*
X83200000Y-82375000D01*
D51*
X87425000Y-69375000D02*
X87425000Y-67265000D01*
D52*
X89425000Y-76150000D02*
X83200000Y-82375000D01*
D51*
X71125000Y-89900000D02*
X68865001Y-89900000D01*
X87425000Y-69375000D02*
X88550000Y-69375000D01*
%TO.N,/CAN Interface1/CAN_RX*%
X88605000Y-66200001D02*
X88304999Y-65900000D01*
X65065510Y-77563296D02*
X64314072Y-78314734D01*
X88304999Y-65900000D02*
X83400000Y-65900000D01*
X66275000Y-77563296D02*
X65065510Y-77563296D01*
X88605000Y-67175000D02*
X88605000Y-66200001D01*
%TO.N,/CAN Interface/3.3V*%
D53*
X81049999Y-82650000D02*
X81049999Y-81074999D01*
D51*
X87162500Y-71850000D02*
X87262500Y-71750000D01*
D55*
X72325000Y-69250000D02*
X72325000Y-69596700D01*
D51*
X89912648Y-71750000D02*
X90499999Y-72337351D01*
X90475000Y-62000000D02*
X89650000Y-61175000D01*
D53*
X78900000Y-77375000D02*
X79300000Y-77375000D01*
X79000000Y-75850000D02*
X78050000Y-74900000D01*
D55*
X78050000Y-74900000D02*
X77628300Y-74900000D01*
D51*
X67937501Y-65100000D02*
X67937501Y-65287499D01*
X90499999Y-79075000D02*
X89499999Y-80075000D01*
X69875000Y-86000000D02*
X70175000Y-86300000D01*
D52*
X64600000Y-93425000D02*
X63325000Y-93425000D01*
D51*
X61950000Y-74100000D02*
X62025000Y-74100000D01*
X87262500Y-71750000D02*
X89912648Y-71750000D01*
D53*
X78075000Y-78200000D02*
X78900000Y-77375000D01*
D51*
X89499999Y-80075000D02*
X89499999Y-82675001D01*
D52*
X71400000Y-67925000D02*
X71400000Y-68325000D01*
D51*
X90700000Y-62000000D02*
X88830000Y-62000000D01*
D52*
X71400000Y-68325000D02*
X72325000Y-69250000D01*
D53*
X79224999Y-77299999D02*
X79224999Y-75925001D01*
D51*
X79150001Y-77524999D02*
X79300000Y-77375000D01*
X62025000Y-74100000D02*
X62676992Y-73448008D01*
D53*
X79225000Y-77599998D02*
X79150001Y-77524999D01*
D52*
X71675000Y-67925000D02*
X72300000Y-67300000D01*
D51*
X90700000Y-62000000D02*
X90475000Y-62000000D01*
X81049999Y-82225002D02*
X81049999Y-82650000D01*
D52*
X66570000Y-92850000D02*
X66570000Y-93824999D01*
D51*
X88830000Y-62000000D02*
X88605000Y-62225000D01*
D53*
X83200001Y-80075000D02*
X81049999Y-82225002D01*
D51*
X71349999Y-93727186D02*
X71349999Y-92425001D01*
D52*
X71400000Y-67925000D02*
X71675000Y-67925000D01*
D53*
X79150001Y-79150000D02*
X79225000Y-79075001D01*
D51*
X67937501Y-65287499D02*
X67000000Y-66225000D01*
X62676992Y-74401992D02*
X63513819Y-75238819D01*
D52*
X63325000Y-93425000D02*
X63000000Y-93100000D01*
X65995000Y-93425000D02*
X66570000Y-92850000D01*
X64600000Y-93425000D02*
X65995000Y-93425000D01*
D53*
X79300000Y-77375000D02*
X79224999Y-77299999D01*
D52*
X71349999Y-92425001D02*
X72025000Y-91750000D01*
D54*
X89000000Y-80075000D02*
X89500000Y-80075000D01*
D51*
X69875000Y-85250000D02*
X69875000Y-86000000D01*
X90499999Y-72337351D02*
X90499999Y-79075000D01*
D55*
X77628300Y-74900000D02*
X77289481Y-75238819D01*
D53*
X79225000Y-79075001D02*
X79225000Y-77599998D01*
D55*
X77528300Y-78200000D02*
X77289481Y-77961181D01*
D51*
X89499999Y-82675001D02*
X89475000Y-82700000D01*
D53*
X80875000Y-80874999D02*
X79150001Y-79150000D01*
D51*
X66870001Y-94125000D02*
X70952185Y-94125000D01*
X63513819Y-75238819D02*
X63960519Y-75238819D01*
X69875000Y-83875662D02*
X69263819Y-83264481D01*
X62676992Y-73448008D02*
X62676992Y-74401992D01*
X80875000Y-80900000D02*
X80875000Y-80874999D01*
X69875000Y-85250000D02*
X69875000Y-83875662D01*
X70952185Y-94125000D02*
X71349999Y-93727186D01*
X66570000Y-93824999D02*
X66870001Y-94125000D01*
D55*
X72325000Y-69596700D02*
X71986181Y-69935519D01*
X78075000Y-78200000D02*
X77528300Y-78200000D01*
D53*
X79300000Y-75850000D02*
X79000000Y-75850000D01*
D54*
X83200000Y-80075000D02*
X83800000Y-80075000D01*
D53*
X79224999Y-75925001D02*
X79300000Y-75850000D01*
D51*
X81049999Y-81074999D02*
X80875000Y-80900000D01*
%TO.N,/CAN Interface1/C620_CAN_L*%
X92537500Y-64750000D02*
X94600000Y-64750000D01*
X94600000Y-64750000D02*
X94950000Y-65100000D01*
X91537500Y-63975000D02*
X92287500Y-64725000D01*
X89725000Y-64750000D02*
X88885001Y-64750000D01*
X88885001Y-64750000D02*
X87335000Y-63199999D01*
X91525000Y-63975000D02*
X91537500Y-63975000D01*
X87335000Y-63199999D02*
X87335000Y-62225000D01*
X60200000Y-65100000D02*
X62025000Y-65100000D01*
X92275000Y-64725000D02*
X92287500Y-64725000D01*
X92537500Y-64750000D02*
X89725000Y-64750000D01*
%TO.N,/CAN Interface1/C620_CAN_H*%
X60200000Y-63850000D02*
X62000000Y-63850000D01*
X93675000Y-66625000D02*
X94500000Y-66625000D01*
X92287500Y-66625000D02*
X94675000Y-66625000D01*
X62000000Y-63850000D02*
X62025000Y-63825000D01*
X91975000Y-66650000D02*
X89695552Y-66650000D01*
X94675000Y-66625000D02*
X94950000Y-66350000D01*
X89695552Y-66650000D02*
X86065000Y-63019448D01*
X86065000Y-63019448D02*
X86065000Y-62225000D01*
%TO.N,/G474 Minimum/ADC_5V_MON*%
X85287499Y-70237499D02*
X83500000Y-68450000D01*
X72750000Y-72775000D02*
X72750000Y-72000126D01*
X83500000Y-68450000D02*
X81650000Y-68450000D01*
X89425000Y-72450000D02*
X85637499Y-72450000D01*
X72750000Y-72000126D02*
X73400394Y-71349732D01*
X85175000Y-72912499D02*
X85287499Y-72800000D01*
X89425000Y-73775000D02*
X89425000Y-72450000D01*
X85637499Y-72450000D02*
X85287499Y-72800000D01*
X85287499Y-72800000D02*
X85287499Y-70237499D01*
X85175000Y-75500000D02*
X85175000Y-72912499D01*
%TO.N,Net-(D6-A)*%
X73662501Y-93250000D02*
X73662501Y-91762499D01*
X73662501Y-91762499D02*
X73675000Y-91750000D01*
%TO.N,/G474 Minimum/VREF_PLUS*%
X64662500Y-71736029D02*
X64662500Y-71408516D01*
X64662500Y-71408516D02*
X65423008Y-70648008D01*
X65493718Y-70648008D02*
X67558363Y-68583363D01*
X64650000Y-71748529D02*
X64662500Y-71736029D01*
X65374732Y-73824606D02*
X64650000Y-73099874D01*
X65423008Y-70648008D02*
X65493718Y-70648008D01*
X64650000Y-73099874D02*
X64650000Y-71748529D01*
%TO.N,/CAN Interface/COMM_A*%
X65600000Y-88550000D02*
X62462500Y-88550000D01*
X94690552Y-86900000D02*
X91700000Y-86900000D01*
X69110000Y-92850000D02*
X69110000Y-92060000D01*
X96275000Y-90065552D02*
X96275000Y-88484448D01*
X96275000Y-88484448D02*
X94690552Y-86900000D01*
X62012500Y-88100000D02*
X62462500Y-88550000D01*
X60600000Y-88100000D02*
X60050000Y-88650000D01*
X69110000Y-92060000D02*
X65600000Y-88550000D01*
X61100000Y-88100000D02*
X60600000Y-88100000D01*
X93275000Y-91150000D02*
X93250000Y-91175000D01*
X94950000Y-91150000D02*
X93275000Y-91150000D01*
X94950000Y-91150000D02*
X95190552Y-91150000D01*
X61100000Y-88100000D02*
X62012500Y-88100000D01*
X95190552Y-91150000D02*
X96275000Y-90065552D01*
X91700000Y-86900000D02*
X91675000Y-86925000D01*
%TO.N,/CAN Interface/COMM_B*%
X66414999Y-90450000D02*
X62462500Y-90450000D01*
X61175000Y-90450000D02*
X60600000Y-90450000D01*
X60600000Y-90450000D02*
X60050000Y-89900000D01*
X94950000Y-89900000D02*
X90250000Y-89900000D01*
X67840000Y-92850000D02*
X67840000Y-91875001D01*
X61175000Y-90450000D02*
X62462500Y-90450000D01*
X67840000Y-91875001D02*
X66414999Y-90450000D01*
X90250000Y-89900000D02*
X89900000Y-90250000D01*
%TO.N,/G474 Minimum/LED_ERR*%
X63325000Y-81650000D02*
X63325000Y-78596700D01*
X63325000Y-78596700D02*
X63960519Y-77961181D01*
X63700000Y-82025000D02*
X63325000Y-81650000D01*
%TO.N,Net-(D10-A)*%
D52*
X63700000Y-83675000D02*
X63700000Y-85062499D01*
%TO.N,Net-(SW1-COM)*%
D51*
X87425000Y-89525000D02*
X87425000Y-90250000D01*
X90000000Y-86950000D02*
X87425000Y-89525000D01*
X87425000Y-90250000D02*
X87400000Y-90250000D01*
%TO.N,/G474 Minimum/VDDA_A*%
X63298008Y-71723008D02*
X63298008Y-70626992D01*
X64408363Y-67416637D02*
X66391637Y-67416637D01*
X66391637Y-65129138D02*
X66362499Y-65100000D01*
X62248008Y-69576992D02*
X64408363Y-67416637D01*
X66391637Y-67416637D02*
X66391637Y-65129138D01*
X62907724Y-72547368D02*
X62907724Y-72113292D01*
X64450256Y-73607236D02*
X63967592Y-73607236D01*
X63967592Y-73607236D02*
X62907724Y-72547368D01*
X62248008Y-69576992D02*
X63298008Y-70626992D01*
X62907724Y-72113292D02*
X63298008Y-71723008D01*
X65021179Y-74178159D02*
X64450256Y-73607236D01*
X63298008Y-70626992D02*
X63626992Y-70626992D01*
%TO.N,/CAN Interface/CAN_TX*%
X67525000Y-83600000D02*
X67642520Y-83482480D01*
X70380000Y-87505000D02*
X67525000Y-84650000D01*
X67985789Y-83139211D02*
X67985789Y-83128299D01*
X67642520Y-83482480D02*
X67675000Y-83482480D01*
X67525000Y-84650000D02*
X67525000Y-83600000D01*
X67675000Y-83450000D02*
X67985789Y-83139211D01*
X67985789Y-83128299D02*
X68556713Y-82557375D01*
X67707480Y-83450000D02*
X67675000Y-83450000D01*
X70380000Y-87900000D02*
X70380000Y-87505000D01*
X67675000Y-83482480D02*
X67707480Y-83450000D01*
%TO.N,/CAN Interface/CAN_RX*%
X66570000Y-83836980D02*
X68203159Y-82203821D01*
X66570000Y-87900000D02*
X66570000Y-83836980D01*
%TO.N,Net-(J6-Pin_2)*%
X78625000Y-66925000D02*
X78775000Y-67075000D01*
X78625000Y-65050000D02*
X78625000Y-66925000D01*
%TO.N,Net-(J6-Pin_3)*%
X77375000Y-67000000D02*
X77300000Y-67075000D01*
X77375000Y-65050000D02*
X77375000Y-67000000D01*
%TO.N,Net-(J6-Pin_5)*%
X74875000Y-65050000D02*
X74875000Y-66900000D01*
X74875000Y-66900000D02*
X75100000Y-67125000D01*
%TO.N,Net-(J6-Pin_6)*%
X73625000Y-65050000D02*
X73150000Y-65050000D01*
X73150000Y-65050000D02*
X72075000Y-66125000D01*
%TO.N,/G474 Minimum/HSE_IN*%
X79270711Y-72095711D02*
X80825000Y-73650000D01*
X77604163Y-72095711D02*
X79025862Y-72095711D01*
X79025862Y-72095711D02*
X79270711Y-72095711D01*
X75875268Y-73824606D02*
X77604163Y-72095711D01*
%TO.N,Net-(D8-A)*%
X67425000Y-61362499D02*
X68862501Y-61362499D01*
X68862501Y-61362499D02*
X68900000Y-61325000D01*
%TO.N,/G474 Minimum/LED_COMM*%
X61675000Y-82025000D02*
X62600000Y-81100000D01*
X62600000Y-81100000D02*
X62400000Y-81600000D01*
X65432238Y-75296326D02*
X64667625Y-74531713D01*
X65432238Y-75406402D02*
X65432238Y-75296326D01*
%TO.N,Net-(D9-A)*%
D52*
X61675000Y-83675000D02*
X61675000Y-85062499D01*
%TO.N,/Power Input 3.3V/PWR_5V_IN*%
D53*
X77375000Y-88399999D02*
X78450000Y-87324999D01*
D56*
X78450000Y-87324999D02*
X79937502Y-87324999D01*
D53*
X77375000Y-89950000D02*
X77375000Y-88399999D01*
D51*
X79937502Y-87324999D02*
X80050001Y-87212500D01*
%TO.N,/G474 Minimum/HSE_OUT*%
X75521714Y-73471052D02*
X78685317Y-70307449D01*
X78685317Y-70307449D02*
X78925647Y-70307449D01*
%TO.N,/G474 Minimum/LED_RUN*%
X67985789Y-69439211D02*
X67985789Y-70071701D01*
X68900000Y-62975000D02*
X68900000Y-68525000D01*
X67985789Y-70071701D02*
X68556713Y-70642625D01*
X68900000Y-68525000D02*
X67985789Y-69439211D01*
%TO.N,/G474 Minimum/UNIT_ID0*%
X92860000Y-82765000D02*
X92850000Y-82775000D01*
X66800000Y-78925000D02*
X66532234Y-78925000D01*
X68162500Y-80325000D02*
X68162500Y-80287500D01*
X92860000Y-81350000D02*
X92860000Y-82765000D01*
X68162500Y-80287500D02*
X66800000Y-78925000D01*
X66532234Y-78925000D02*
X65728286Y-79728948D01*
%TO.N,/G474 Minimum/UNIT_ID1*%
X65114340Y-81050000D02*
X66081839Y-80082501D01*
X95400000Y-81350000D02*
X95400000Y-82800000D01*
X65050000Y-81050000D02*
X65114340Y-81050000D01*
%TO.N,/G474 Minimum/UNIT_ID2*%
X97940000Y-82840000D02*
X97950000Y-82850000D01*
X97940000Y-81350000D02*
X97940000Y-82840000D01*
X65650000Y-81221446D02*
X66435392Y-80436054D01*
X65650000Y-81650000D02*
X65650000Y-81221446D01*
X65037500Y-82262500D02*
X65650000Y-81650000D01*
%TO.N,/G474 Minimum/SPI3_SCK*%
X71979722Y-81136702D02*
X73046841Y-82203821D01*
X78775000Y-68800000D02*
X77725000Y-69850000D01*
X78775000Y-68725000D02*
X78775000Y-68800000D01*
X71838298Y-81136702D02*
X71979722Y-81136702D01*
%TO.N,/G474 Minimum/SPI3_MISO*%
X73450000Y-67650000D02*
X73450000Y-67125000D01*
X71050000Y-77950000D02*
X71050000Y-79499874D01*
X72700000Y-68400000D02*
X73450000Y-67650000D01*
X71050000Y-79499874D02*
X73400394Y-81850268D01*
%TO.N,/G474 Minimum/SPI3_MOSI*%
X77300000Y-69100000D02*
X76600000Y-69800000D01*
X72475000Y-80000000D02*
X72475000Y-80217766D01*
X77300000Y-68725000D02*
X77300000Y-69100000D01*
X72475000Y-80217766D02*
X73753948Y-81496714D01*
%TO.N,/G474 Minimum/AMT22_CS_N*%
X73300000Y-79600000D02*
X73300000Y-80335660D01*
X73300000Y-80335660D02*
X74107501Y-81143161D01*
X70425000Y-66125000D02*
X69500000Y-66125000D01*
X72512500Y-78812500D02*
X73300000Y-79600000D01*
%TD*%
M02*
