%TF.GenerationSoftware,KiCad,Pcbnew,10.0.4*%
%TF.CreationDate,2026-07-25T01:45:00+09:00*%
%TF.ProjectId,unit-board,756e6974-2d62-46f6-9172-642e6b696361,rev?*%
%TF.SameCoordinates,Original*%
%TF.FileFunction,Copper,L4,Bot*%
%TF.FilePolarity,Positive*%
%FSLAX46Y46*%
G04 Gerber Fmt 4.6, Leading zero omitted, Abs format (unit mm)*
G04 Created by KiCad (PCBNEW 10.0.4) date 2026-07-25 01:45:00*
%MOMM*%
%LPD*%
G01*
G04 APERTURE LIST*
%TA.AperFunction,ViaPad*%
%ADD10C,0.600000*%
%TD*%
%TA.AperFunction,ViaPad*%
%ADD11C,0.700000*%
%TD*%
%TA.AperFunction,Conductor*%
%ADD12C,0.200000*%
%TD*%
%TA.AperFunction,Conductor*%
%ADD13C,0.400000*%
%TD*%
G04 APERTURE END LIST*
D10*
%TO.N,GND*%
X84875000Y-68900000D03*
X80150000Y-69050000D03*
X63536765Y-69136765D03*
X75475000Y-82700000D03*
X80675000Y-88350000D03*
X64062500Y-71487500D03*
X73050000Y-87425000D03*
X78125000Y-82650000D03*
X70375000Y-90575000D03*
X92860000Y-70940000D03*
X61450000Y-72450000D03*
X89450000Y-69850000D03*
X81775000Y-75850000D03*
X73175000Y-69500000D03*
X97962500Y-71037500D03*
X61925000Y-80800000D03*
X69750000Y-89300000D03*
X86700000Y-68525000D03*
X65501473Y-89300000D03*
X69818015Y-81131985D03*
X60425000Y-71425000D03*
X79025000Y-74675000D03*
X92075000Y-65675000D03*
X74625000Y-68300000D03*
X87975000Y-75500000D03*
X80150000Y-89075000D03*
X81853907Y-79195323D03*
X84575000Y-71050000D03*
X93250000Y-62000000D03*
X71425000Y-86200000D03*
X83025000Y-75125000D03*
X64750000Y-86650000D03*
X95425000Y-70975000D03*
X94250000Y-62625000D03*
X78350000Y-80900000D03*
X76125000Y-66750000D03*
X87700000Y-86100000D03*
X72900000Y-94100000D03*
X60775000Y-92300000D03*
X66000000Y-62300000D03*
X81775000Y-77400000D03*
X65250000Y-72146576D03*
X61975000Y-66350000D03*
X84925000Y-77800000D03*
X93350000Y-88650000D03*
X63525000Y-91850000D03*
X86475000Y-86975000D03*
X70400000Y-69075000D03*
X77000000Y-85925000D03*
X83900000Y-61700000D03*
X63475000Y-74075000D03*
X77850000Y-79425000D03*
X87925000Y-74700000D03*
X64528446Y-68145083D03*
%TO.N,/G474 Minimum/SWCLK*%
X71222717Y-81647646D03*
X62000000Y-79775000D03*
%TO.N,/G474 Minimum/NRST*%
X61900000Y-76975000D03*
X75739085Y-70639085D03*
%TO.N,/CAN Interface1/CAN_TX*%
X66875000Y-78325000D03*
X83400000Y-67175000D03*
%TO.N,/CAN Interface/PWR_5V*%
X88575000Y-69350000D03*
X81050000Y-66250000D03*
X85300000Y-82625000D03*
X73100000Y-88400000D03*
%TO.N,/CAN Interface1/CAN_RX*%
X66275000Y-77563296D03*
X83400000Y-65900000D03*
%TO.N,/CAN Interface/3.3V*%
X61950000Y-74100000D03*
X70175000Y-86300000D03*
X89650000Y-61175000D03*
X67000000Y-66225000D03*
X89475000Y-82700000D03*
X72300000Y-67300000D03*
D11*
X83800000Y-80075000D03*
X89000000Y-80075000D03*
D10*
X63000000Y-93100000D03*
%TO.N,/CAN Interface1/C620_CAN_L*%
X91525000Y-63975000D03*
X62025000Y-65100000D03*
%TO.N,/CAN Interface1/C620_CAN_H*%
X93675000Y-66625000D03*
X62025000Y-63825000D03*
%TO.N,/G474 Minimum/ADC_5V_MON*%
X81650000Y-68450000D03*
X72750000Y-72775000D03*
%TO.N,/CAN Interface/COMM_A*%
X61100000Y-88100000D03*
X93250000Y-91175000D03*
%TO.N,/CAN Interface/COMM_B*%
X93275000Y-89900000D03*
X61175000Y-90450000D03*
%TO.N,/G474 Minimum/LED_COMM*%
X62400000Y-81600000D03*
X65432238Y-75406402D03*
%TO.N,/G474 Minimum/UNIT_ID0*%
X68162500Y-80325000D03*
X92850000Y-82775000D03*
%TO.N,/G474 Minimum/UNIT_ID1*%
X95400000Y-82800000D03*
X65050000Y-81050000D03*
%TO.N,/G474 Minimum/UNIT_ID2*%
X97950000Y-82850000D03*
X65037500Y-82262500D03*
%TO.N,/G474 Minimum/SPI3_SCK*%
X71838298Y-81136702D03*
X77725000Y-69850000D03*
%TO.N,/G474 Minimum/SPI3_MISO*%
X71050000Y-77950000D03*
X72700000Y-68400000D03*
%TO.N,/G474 Minimum/SPI3_MOSI*%
X72475000Y-80000000D03*
X76600000Y-69800000D03*
%TO.N,/G474 Minimum/AMT22_CS_N*%
X72512500Y-78812500D03*
X69500000Y-66125000D03*
%TD*%
%TO.N,/G474 Minimum/SWCLK*%
D12*
X62000000Y-79775000D02*
X62050000Y-79725000D01*
X62050000Y-79725000D02*
X69350000Y-79725000D01*
X69350000Y-79725000D02*
X71222717Y-81597717D01*
X71222717Y-81597717D02*
X71222717Y-81647646D01*
%TO.N,/CAN Interface1/CAN_TX*%
X67900000Y-66876471D02*
X69251471Y-65525000D01*
X81950000Y-65525000D02*
X83400000Y-66975000D01*
X69251471Y-65525000D02*
X81950000Y-65525000D01*
X67900000Y-77300000D02*
X67900000Y-66876471D01*
X66875000Y-78325000D02*
X67900000Y-77300000D01*
X83400000Y-66975000D02*
X83400000Y-67175000D01*
%TO.N,/CAN Interface1/CAN_RX*%
X67225000Y-66985785D02*
X67225000Y-77075000D01*
X67225000Y-77075000D02*
X66736704Y-77563296D01*
X82625000Y-65125000D02*
X69085785Y-65125000D01*
X66736704Y-77563296D02*
X66275000Y-77563296D01*
X69085785Y-65125000D02*
X67225000Y-66985785D01*
X83400000Y-65900000D02*
X82625000Y-65125000D01*
%TO.N,/CAN Interface/3.3V*%
D13*
X83800000Y-80075000D02*
X89000000Y-80075000D01*
%TO.N,/CAN Interface1/C620_CAN_L*%
D12*
X63100000Y-64025000D02*
X62025000Y-65100000D01*
X91525000Y-63975000D02*
X91475000Y-64025000D01*
X91475000Y-64025000D02*
X63100000Y-64025000D01*
%TO.N,/CAN Interface1/C620_CAN_H*%
X93675000Y-66625000D02*
X93650000Y-66600000D01*
X62700000Y-63150000D02*
X62025000Y-63825000D01*
X93650000Y-65050000D02*
X91750000Y-63150000D01*
X91750000Y-63150000D02*
X62700000Y-63150000D01*
X93650000Y-66600000D02*
X93650000Y-65050000D01*
%TO.N,/G474 Minimum/ADC_5V_MON*%
X77075000Y-68450000D02*
X72750000Y-72775000D01*
X81650000Y-68450000D02*
X77075000Y-68450000D01*
%TO.N,/CAN Interface/COMM_A*%
X58950000Y-90500000D02*
X59625000Y-91175000D01*
X59625000Y-88650000D02*
X58950000Y-89325000D01*
X59625000Y-91175000D02*
X93250000Y-91175000D01*
X58950000Y-89325000D02*
X58950000Y-90500000D01*
X61100000Y-88100000D02*
X60550000Y-88650000D01*
X60550000Y-88650000D02*
X59625000Y-88650000D01*
%TO.N,/CAN Interface/COMM_B*%
X61175000Y-90450000D02*
X61725000Y-89900000D01*
X61725000Y-89900000D02*
X93275000Y-89900000D01*
%TO.N,/G474 Minimum/LED_COMM*%
X65418598Y-75406402D02*
X65432238Y-75406402D01*
X62400000Y-81600000D02*
X61200000Y-81600000D01*
X61200000Y-81600000D02*
X61200000Y-78500000D01*
X61200000Y-78500000D02*
X65418598Y-75406402D01*
%TO.N,/G474 Minimum/UNIT_ID0*%
X71137500Y-83300000D02*
X92325000Y-83300000D01*
X68162500Y-80325000D02*
X71137500Y-83300000D01*
X92325000Y-83300000D02*
X92850000Y-82775000D01*
%TO.N,/G474 Minimum/UNIT_ID1*%
X68000000Y-84000000D02*
X65050000Y-81050000D01*
X95400000Y-82800000D02*
X94200000Y-84000000D01*
X94200000Y-84000000D02*
X68000000Y-84000000D01*
%TO.N,/G474 Minimum/UNIT_ID2*%
X67675000Y-84900000D02*
X95900000Y-84900000D01*
X65037500Y-82262500D02*
X67675000Y-84900000D01*
X95900000Y-84900000D02*
X97950000Y-82850000D01*
%TO.N,/G474 Minimum/SPI3_SCK*%
X77725000Y-75700000D02*
X77725000Y-69850000D01*
X72288298Y-81136702D02*
X77725000Y-75700000D01*
X71838298Y-81136702D02*
X72288298Y-81136702D01*
%TO.N,/G474 Minimum/SPI3_MISO*%
X71050000Y-70050000D02*
X72700000Y-68400000D01*
X71050000Y-77950000D02*
X71050000Y-70050000D01*
%TO.N,/G474 Minimum/SPI3_MOSI*%
X72500000Y-80000000D02*
X76600000Y-75900000D01*
X72475000Y-80000000D02*
X72500000Y-80000000D01*
X76600000Y-75900000D02*
X76600000Y-69800000D01*
%TO.N,/G474 Minimum/AMT22_CS_N*%
X72500000Y-78825000D02*
X70750000Y-78825000D01*
X69500000Y-77575000D02*
X69500000Y-66125000D01*
X70750000Y-78825000D02*
X69500000Y-77575000D01*
X72512500Y-78812500D02*
X72500000Y-78825000D01*
%TD*%
M02*
