%TF.GenerationSoftware,KiCad,Pcbnew,10.0.4*%
%TF.CreationDate,2026-07-25T01:45:00+09:00*%
%TF.ProjectId,unit-board,756e6974-2d62-46f6-9172-642e6b696361,rev?*%
%TF.SameCoordinates,Original*%
%TF.FileFunction,Legend,Top*%
%TF.FilePolarity,Positive*%
%FSLAX46Y46*%
G04 Gerber Fmt 4.6, Leading zero omitted, Abs format (unit mm)*
G04 Created by KiCad (PCBNEW 10.0.4) date 2026-07-25 01:45:00*
%MOMM*%
%LPD*%
G01*
G04 APERTURE LIST*
%ADD10C,0.120000*%
%ADD11C,0.150000*%
G04 APERTURE END LIST*
D10*
X56579762Y-85387664D02*
X56541666Y-85425760D01*
X56541666Y-85425760D02*
X56427381Y-85463855D01*
X56427381Y-85463855D02*
X56351190Y-85463855D01*
X56351190Y-85463855D02*
X56236904Y-85425760D01*
X56236904Y-85425760D02*
X56160714Y-85349569D01*
X56160714Y-85349569D02*
X56122619Y-85273379D01*
X56122619Y-85273379D02*
X56084523Y-85120998D01*
X56084523Y-85120998D02*
X56084523Y-85006712D01*
X56084523Y-85006712D02*
X56122619Y-84854331D01*
X56122619Y-84854331D02*
X56160714Y-84778140D01*
X56160714Y-84778140D02*
X56236904Y-84701950D01*
X56236904Y-84701950D02*
X56351190Y-84663855D01*
X56351190Y-84663855D02*
X56427381Y-84663855D01*
X56427381Y-84663855D02*
X56541666Y-84701950D01*
X56541666Y-84701950D02*
X56579762Y-84740045D01*
X56884523Y-85235283D02*
X57265476Y-85235283D01*
X56808333Y-85463855D02*
X57075000Y-84663855D01*
X57075000Y-84663855D02*
X57341666Y-85463855D01*
X57608333Y-85463855D02*
X57608333Y-84663855D01*
X57608333Y-84663855D02*
X58065476Y-85463855D01*
X58065476Y-85463855D02*
X58065476Y-84663855D01*
X58408332Y-84740045D02*
X58446428Y-84701950D01*
X58446428Y-84701950D02*
X58522618Y-84663855D01*
X58522618Y-84663855D02*
X58713094Y-84663855D01*
X58713094Y-84663855D02*
X58789285Y-84701950D01*
X58789285Y-84701950D02*
X58827380Y-84740045D01*
X58827380Y-84740045D02*
X58865475Y-84816236D01*
X58865475Y-84816236D02*
X58865475Y-84892426D01*
X58865475Y-84892426D02*
X58827380Y-85006712D01*
X58827380Y-85006712D02*
X58370237Y-85463855D01*
X58370237Y-85463855D02*
X58865475Y-85463855D01*
X56779762Y-70537664D02*
X56741666Y-70575760D01*
X56741666Y-70575760D02*
X56627381Y-70613855D01*
X56627381Y-70613855D02*
X56551190Y-70613855D01*
X56551190Y-70613855D02*
X56436904Y-70575760D01*
X56436904Y-70575760D02*
X56360714Y-70499569D01*
X56360714Y-70499569D02*
X56322619Y-70423379D01*
X56322619Y-70423379D02*
X56284523Y-70270998D01*
X56284523Y-70270998D02*
X56284523Y-70156712D01*
X56284523Y-70156712D02*
X56322619Y-70004331D01*
X56322619Y-70004331D02*
X56360714Y-69928140D01*
X56360714Y-69928140D02*
X56436904Y-69851950D01*
X56436904Y-69851950D02*
X56551190Y-69813855D01*
X56551190Y-69813855D02*
X56627381Y-69813855D01*
X56627381Y-69813855D02*
X56741666Y-69851950D01*
X56741666Y-69851950D02*
X56779762Y-69890045D01*
X57084523Y-70385283D02*
X57465476Y-70385283D01*
X57008333Y-70613855D02*
X57275000Y-69813855D01*
X57275000Y-69813855D02*
X57541666Y-70613855D01*
X57808333Y-70613855D02*
X57808333Y-69813855D01*
X57808333Y-69813855D02*
X58265476Y-70613855D01*
X58265476Y-70613855D02*
X58265476Y-69813855D01*
X59065475Y-70613855D02*
X58608332Y-70613855D01*
X58836904Y-70613855D02*
X58836904Y-69813855D01*
X58836904Y-69813855D02*
X58760713Y-69928140D01*
X58760713Y-69928140D02*
X58684523Y-70004331D01*
X58684523Y-70004331D02*
X58608332Y-70042426D01*
X64684524Y-61688855D02*
X64417857Y-61307902D01*
X64227381Y-61688855D02*
X64227381Y-60888855D01*
X64227381Y-60888855D02*
X64532143Y-60888855D01*
X64532143Y-60888855D02*
X64608333Y-60926950D01*
X64608333Y-60926950D02*
X64646428Y-60965045D01*
X64646428Y-60965045D02*
X64684524Y-61041236D01*
X64684524Y-61041236D02*
X64684524Y-61155521D01*
X64684524Y-61155521D02*
X64646428Y-61231712D01*
X64646428Y-61231712D02*
X64608333Y-61269807D01*
X64608333Y-61269807D02*
X64532143Y-61307902D01*
X64532143Y-61307902D02*
X64227381Y-61307902D01*
X65027381Y-60888855D02*
X65027381Y-61536474D01*
X65027381Y-61536474D02*
X65065476Y-61612664D01*
X65065476Y-61612664D02*
X65103571Y-61650760D01*
X65103571Y-61650760D02*
X65179762Y-61688855D01*
X65179762Y-61688855D02*
X65332143Y-61688855D01*
X65332143Y-61688855D02*
X65408333Y-61650760D01*
X65408333Y-61650760D02*
X65446428Y-61612664D01*
X65446428Y-61612664D02*
X65484524Y-61536474D01*
X65484524Y-61536474D02*
X65484524Y-60888855D01*
X65865476Y-61688855D02*
X65865476Y-60888855D01*
X65865476Y-60888855D02*
X66322619Y-61688855D01*
X66322619Y-61688855D02*
X66322619Y-60888855D01*
X65528571Y-84444807D02*
X65795237Y-84444807D01*
X65909523Y-84863855D02*
X65528571Y-84863855D01*
X65528571Y-84863855D02*
X65528571Y-84063855D01*
X65528571Y-84063855D02*
X65909523Y-84063855D01*
X66709524Y-84863855D02*
X66442857Y-84482902D01*
X66252381Y-84863855D02*
X66252381Y-84063855D01*
X66252381Y-84063855D02*
X66557143Y-84063855D01*
X66557143Y-84063855D02*
X66633333Y-84101950D01*
X66633333Y-84101950D02*
X66671428Y-84140045D01*
X66671428Y-84140045D02*
X66709524Y-84216236D01*
X66709524Y-84216236D02*
X66709524Y-84330521D01*
X66709524Y-84330521D02*
X66671428Y-84406712D01*
X66671428Y-84406712D02*
X66633333Y-84444807D01*
X66633333Y-84444807D02*
X66557143Y-84482902D01*
X66557143Y-84482902D02*
X66252381Y-84482902D01*
X67509524Y-84863855D02*
X67242857Y-84482902D01*
X67052381Y-84863855D02*
X67052381Y-84063855D01*
X67052381Y-84063855D02*
X67357143Y-84063855D01*
X67357143Y-84063855D02*
X67433333Y-84101950D01*
X67433333Y-84101950D02*
X67471428Y-84140045D01*
X67471428Y-84140045D02*
X67509524Y-84216236D01*
X67509524Y-84216236D02*
X67509524Y-84330521D01*
X67509524Y-84330521D02*
X67471428Y-84406712D01*
X67471428Y-84406712D02*
X67433333Y-84444807D01*
X67433333Y-84444807D02*
X67357143Y-84482902D01*
X67357143Y-84482902D02*
X67052381Y-84482902D01*
X65946429Y-86162664D02*
X65908333Y-86200760D01*
X65908333Y-86200760D02*
X65794048Y-86238855D01*
X65794048Y-86238855D02*
X65717857Y-86238855D01*
X65717857Y-86238855D02*
X65603571Y-86200760D01*
X65603571Y-86200760D02*
X65527381Y-86124569D01*
X65527381Y-86124569D02*
X65489286Y-86048379D01*
X65489286Y-86048379D02*
X65451190Y-85895998D01*
X65451190Y-85895998D02*
X65451190Y-85781712D01*
X65451190Y-85781712D02*
X65489286Y-85629331D01*
X65489286Y-85629331D02*
X65527381Y-85553140D01*
X65527381Y-85553140D02*
X65603571Y-85476950D01*
X65603571Y-85476950D02*
X65717857Y-85438855D01*
X65717857Y-85438855D02*
X65794048Y-85438855D01*
X65794048Y-85438855D02*
X65908333Y-85476950D01*
X65908333Y-85476950D02*
X65946429Y-85515045D01*
X66441667Y-85438855D02*
X66594048Y-85438855D01*
X66594048Y-85438855D02*
X66670238Y-85476950D01*
X66670238Y-85476950D02*
X66746429Y-85553140D01*
X66746429Y-85553140D02*
X66784524Y-85705521D01*
X66784524Y-85705521D02*
X66784524Y-85972188D01*
X66784524Y-85972188D02*
X66746429Y-86124569D01*
X66746429Y-86124569D02*
X66670238Y-86200760D01*
X66670238Y-86200760D02*
X66594048Y-86238855D01*
X66594048Y-86238855D02*
X66441667Y-86238855D01*
X66441667Y-86238855D02*
X66365476Y-86200760D01*
X66365476Y-86200760D02*
X66289286Y-86124569D01*
X66289286Y-86124569D02*
X66251190Y-85972188D01*
X66251190Y-85972188D02*
X66251190Y-85705521D01*
X66251190Y-85705521D02*
X66289286Y-85553140D01*
X66289286Y-85553140D02*
X66365476Y-85476950D01*
X66365476Y-85476950D02*
X66441667Y-85438855D01*
X67127381Y-86238855D02*
X67127381Y-85438855D01*
X67127381Y-85438855D02*
X67394047Y-86010283D01*
X67394047Y-86010283D02*
X67660714Y-85438855D01*
X67660714Y-85438855D02*
X67660714Y-86238855D01*
X71808333Y-90963855D02*
X71808333Y-90163855D01*
X71808333Y-90163855D02*
X72113095Y-90163855D01*
X72113095Y-90163855D02*
X72189285Y-90201950D01*
X72189285Y-90201950D02*
X72227380Y-90240045D01*
X72227380Y-90240045D02*
X72265476Y-90316236D01*
X72265476Y-90316236D02*
X72265476Y-90430521D01*
X72265476Y-90430521D02*
X72227380Y-90506712D01*
X72227380Y-90506712D02*
X72189285Y-90544807D01*
X72189285Y-90544807D02*
X72113095Y-90582902D01*
X72113095Y-90582902D02*
X71808333Y-90582902D01*
X72532142Y-90163855D02*
X72722618Y-90963855D01*
X72722618Y-90963855D02*
X72874999Y-90392426D01*
X72874999Y-90392426D02*
X73027380Y-90963855D01*
X73027380Y-90963855D02*
X73217857Y-90163855D01*
X73979762Y-90963855D02*
X73713095Y-90582902D01*
X73522619Y-90963855D02*
X73522619Y-90163855D01*
X73522619Y-90163855D02*
X73827381Y-90163855D01*
X73827381Y-90163855D02*
X73903571Y-90201950D01*
X73903571Y-90201950D02*
X73941666Y-90240045D01*
X73941666Y-90240045D02*
X73979762Y-90316236D01*
X73979762Y-90316236D02*
X73979762Y-90430521D01*
X73979762Y-90430521D02*
X73941666Y-90506712D01*
X73941666Y-90506712D02*
X73903571Y-90544807D01*
X73903571Y-90544807D02*
X73827381Y-90582902D01*
X73827381Y-90582902D02*
X73522619Y-90582902D01*
X91300000Y-71013855D02*
X91300000Y-70213855D01*
X91680952Y-71013855D02*
X91680952Y-70213855D01*
X91680952Y-70213855D02*
X91871428Y-70213855D01*
X91871428Y-70213855D02*
X91985714Y-70251950D01*
X91985714Y-70251950D02*
X92061904Y-70328140D01*
X92061904Y-70328140D02*
X92099999Y-70404331D01*
X92099999Y-70404331D02*
X92138095Y-70556712D01*
X92138095Y-70556712D02*
X92138095Y-70670998D01*
X92138095Y-70670998D02*
X92099999Y-70823379D01*
X92099999Y-70823379D02*
X92061904Y-70899569D01*
X92061904Y-70899569D02*
X91985714Y-70975760D01*
X91985714Y-70975760D02*
X91871428Y-71013855D01*
X91871428Y-71013855D02*
X91680952Y-71013855D01*
X93088571Y-83463855D02*
X92631428Y-83463855D01*
X92860000Y-83463855D02*
X92860000Y-82663855D01*
X92860000Y-82663855D02*
X92783809Y-82778140D01*
X92783809Y-82778140D02*
X92707619Y-82854331D01*
X92707619Y-82854331D02*
X92631428Y-82892426D01*
X93625000Y-67379331D02*
X93967857Y-67988855D01*
X93967857Y-67988855D02*
X93282142Y-67988855D01*
X93282142Y-67988855D02*
X93625000Y-67379331D01*
X93625000Y-92154331D02*
X93967857Y-92763855D01*
X93967857Y-92763855D02*
X93282142Y-92763855D01*
X93282142Y-92763855D02*
X93625000Y-92154331D01*
X95171428Y-82740045D02*
X95209524Y-82701950D01*
X95209524Y-82701950D02*
X95285714Y-82663855D01*
X95285714Y-82663855D02*
X95476190Y-82663855D01*
X95476190Y-82663855D02*
X95552381Y-82701950D01*
X95552381Y-82701950D02*
X95590476Y-82740045D01*
X95590476Y-82740045D02*
X95628571Y-82816236D01*
X95628571Y-82816236D02*
X95628571Y-82892426D01*
X95628571Y-82892426D02*
X95590476Y-83006712D01*
X95590476Y-83006712D02*
X95133333Y-83463855D01*
X95133333Y-83463855D02*
X95628571Y-83463855D01*
X96729762Y-85362664D02*
X96691666Y-85400760D01*
X96691666Y-85400760D02*
X96577381Y-85438855D01*
X96577381Y-85438855D02*
X96501190Y-85438855D01*
X96501190Y-85438855D02*
X96386904Y-85400760D01*
X96386904Y-85400760D02*
X96310714Y-85324569D01*
X96310714Y-85324569D02*
X96272619Y-85248379D01*
X96272619Y-85248379D02*
X96234523Y-85095998D01*
X96234523Y-85095998D02*
X96234523Y-84981712D01*
X96234523Y-84981712D02*
X96272619Y-84829331D01*
X96272619Y-84829331D02*
X96310714Y-84753140D01*
X96310714Y-84753140D02*
X96386904Y-84676950D01*
X96386904Y-84676950D02*
X96501190Y-84638855D01*
X96501190Y-84638855D02*
X96577381Y-84638855D01*
X96577381Y-84638855D02*
X96691666Y-84676950D01*
X96691666Y-84676950D02*
X96729762Y-84715045D01*
X97034523Y-85210283D02*
X97415476Y-85210283D01*
X96958333Y-85438855D02*
X97225000Y-84638855D01*
X97225000Y-84638855D02*
X97491666Y-85438855D01*
X97758333Y-85438855D02*
X97758333Y-84638855D01*
X97758333Y-84638855D02*
X98215476Y-85438855D01*
X98215476Y-85438855D02*
X98215476Y-84638855D01*
X98558332Y-84715045D02*
X98596428Y-84676950D01*
X98596428Y-84676950D02*
X98672618Y-84638855D01*
X98672618Y-84638855D02*
X98863094Y-84638855D01*
X98863094Y-84638855D02*
X98939285Y-84676950D01*
X98939285Y-84676950D02*
X98977380Y-84715045D01*
X98977380Y-84715045D02*
X99015475Y-84791236D01*
X99015475Y-84791236D02*
X99015475Y-84867426D01*
X99015475Y-84867426D02*
X98977380Y-84981712D01*
X98977380Y-84981712D02*
X98520237Y-85438855D01*
X98520237Y-85438855D02*
X99015475Y-85438855D01*
X96904762Y-70387664D02*
X96866666Y-70425760D01*
X96866666Y-70425760D02*
X96752381Y-70463855D01*
X96752381Y-70463855D02*
X96676190Y-70463855D01*
X96676190Y-70463855D02*
X96561904Y-70425760D01*
X96561904Y-70425760D02*
X96485714Y-70349569D01*
X96485714Y-70349569D02*
X96447619Y-70273379D01*
X96447619Y-70273379D02*
X96409523Y-70120998D01*
X96409523Y-70120998D02*
X96409523Y-70006712D01*
X96409523Y-70006712D02*
X96447619Y-69854331D01*
X96447619Y-69854331D02*
X96485714Y-69778140D01*
X96485714Y-69778140D02*
X96561904Y-69701950D01*
X96561904Y-69701950D02*
X96676190Y-69663855D01*
X96676190Y-69663855D02*
X96752381Y-69663855D01*
X96752381Y-69663855D02*
X96866666Y-69701950D01*
X96866666Y-69701950D02*
X96904762Y-69740045D01*
X97209523Y-70235283D02*
X97590476Y-70235283D01*
X97133333Y-70463855D02*
X97400000Y-69663855D01*
X97400000Y-69663855D02*
X97666666Y-70463855D01*
X97933333Y-70463855D02*
X97933333Y-69663855D01*
X97933333Y-69663855D02*
X98390476Y-70463855D01*
X98390476Y-70463855D02*
X98390476Y-69663855D01*
X99190475Y-70463855D02*
X98733332Y-70463855D01*
X98961904Y-70463855D02*
X98961904Y-69663855D01*
X98961904Y-69663855D02*
X98885713Y-69778140D01*
X98885713Y-69778140D02*
X98809523Y-69854331D01*
X98809523Y-69854331D02*
X98733332Y-69892426D01*
X98092381Y-82930521D02*
X98092381Y-83463855D01*
X97901905Y-82625760D02*
X97711428Y-83197188D01*
X97711428Y-83197188D02*
X98206667Y-83197188D01*
X64579331Y-85849999D02*
X65188855Y-85507142D01*
X65188855Y-85507142D02*
X65188855Y-86192857D01*
X65188855Y-86192857D02*
X64579331Y-85849999D01*
X75288855Y-88741666D02*
X75288855Y-89122618D01*
X75288855Y-89122618D02*
X75669807Y-89160714D01*
X75669807Y-89160714D02*
X75631712Y-89122618D01*
X75631712Y-89122618D02*
X75593617Y-89046428D01*
X75593617Y-89046428D02*
X75593617Y-88855952D01*
X75593617Y-88855952D02*
X75631712Y-88779761D01*
X75631712Y-88779761D02*
X75669807Y-88741666D01*
X75669807Y-88741666D02*
X75745998Y-88703571D01*
X75745998Y-88703571D02*
X75936474Y-88703571D01*
X75936474Y-88703571D02*
X76012664Y-88741666D01*
X76012664Y-88741666D02*
X76050760Y-88779761D01*
X76050760Y-88779761D02*
X76088855Y-88855952D01*
X76088855Y-88855952D02*
X76088855Y-89046428D01*
X76088855Y-89046428D02*
X76050760Y-89122618D01*
X76050760Y-89122618D02*
X76012664Y-89160714D01*
X75288855Y-88474999D02*
X76088855Y-88208332D01*
X76088855Y-88208332D02*
X75288855Y-87941666D01*
X76165045Y-87865476D02*
X76165045Y-87255952D01*
X76088855Y-87065475D02*
X75288855Y-87065475D01*
X76088855Y-86684523D02*
X75288855Y-86684523D01*
X75288855Y-86684523D02*
X76088855Y-86227380D01*
X76088855Y-86227380D02*
X75288855Y-86227380D01*
X81829331Y-90774999D02*
X82438855Y-90432142D01*
X82438855Y-90432142D02*
X82438855Y-91117857D01*
X82438855Y-91117857D02*
X81829331Y-90774999D01*
X82463855Y-94215476D02*
X82463855Y-94672619D01*
X82463855Y-94444047D02*
X81663855Y-94444047D01*
X81663855Y-94444047D02*
X81778140Y-94520238D01*
X81778140Y-94520238D02*
X81854331Y-94596428D01*
X81854331Y-94596428D02*
X81892426Y-94672619D01*
X81740045Y-93910714D02*
X81701950Y-93872618D01*
X81701950Y-93872618D02*
X81663855Y-93796428D01*
X81663855Y-93796428D02*
X81663855Y-93605952D01*
X81663855Y-93605952D02*
X81701950Y-93529761D01*
X81701950Y-93529761D02*
X81740045Y-93491666D01*
X81740045Y-93491666D02*
X81816236Y-93453571D01*
X81816236Y-93453571D02*
X81892426Y-93453571D01*
X81892426Y-93453571D02*
X82006712Y-93491666D01*
X82006712Y-93491666D02*
X82463855Y-93948809D01*
X82463855Y-93948809D02*
X82463855Y-93453571D01*
X81663855Y-92958332D02*
X81663855Y-92882142D01*
X81663855Y-92882142D02*
X81701950Y-92805951D01*
X81701950Y-92805951D02*
X81740045Y-92767856D01*
X81740045Y-92767856D02*
X81816236Y-92729761D01*
X81816236Y-92729761D02*
X81968617Y-92691666D01*
X81968617Y-92691666D02*
X82159093Y-92691666D01*
X82159093Y-92691666D02*
X82311474Y-92729761D01*
X82311474Y-92729761D02*
X82387664Y-92767856D01*
X82387664Y-92767856D02*
X82425760Y-92805951D01*
X82425760Y-92805951D02*
X82463855Y-92882142D01*
X82463855Y-92882142D02*
X82463855Y-92958332D01*
X82463855Y-92958332D02*
X82425760Y-93034523D01*
X82425760Y-93034523D02*
X82387664Y-93072618D01*
X82387664Y-93072618D02*
X82311474Y-93110713D01*
X82311474Y-93110713D02*
X82159093Y-93148809D01*
X82159093Y-93148809D02*
X81968617Y-93148809D01*
X81968617Y-93148809D02*
X81816236Y-93110713D01*
X81816236Y-93110713D02*
X81740045Y-93072618D01*
X81740045Y-93072618D02*
X81701950Y-93034523D01*
X81701950Y-93034523D02*
X81663855Y-92958332D01*
X82463855Y-92386904D02*
X82463855Y-92196427D01*
X82463855Y-92196427D02*
X82311474Y-92196427D01*
X82311474Y-92196427D02*
X82273379Y-92272618D01*
X82273379Y-92272618D02*
X82197188Y-92348808D01*
X82197188Y-92348808D02*
X82082902Y-92386904D01*
X82082902Y-92386904D02*
X81892426Y-92386904D01*
X81892426Y-92386904D02*
X81778140Y-92348808D01*
X81778140Y-92348808D02*
X81701950Y-92272618D01*
X81701950Y-92272618D02*
X81663855Y-92158332D01*
X81663855Y-92158332D02*
X81663855Y-92005951D01*
X81663855Y-92005951D02*
X81701950Y-91891665D01*
X81701950Y-91891665D02*
X81778140Y-91815475D01*
X81778140Y-91815475D02*
X81892426Y-91777380D01*
X81892426Y-91777380D02*
X82082902Y-91777380D01*
X82082902Y-91777380D02*
X82197188Y-91815475D01*
X82197188Y-91815475D02*
X82273379Y-91891665D01*
X82273379Y-91891665D02*
X82311474Y-91967856D01*
X82311474Y-91967856D02*
X82463855Y-91967856D01*
X82463855Y-91967856D02*
X82463855Y-91777380D01*
X81738855Y-89945237D02*
X81738855Y-89792856D01*
X81738855Y-89792856D02*
X81776950Y-89716666D01*
X81776950Y-89716666D02*
X81853140Y-89640475D01*
X81853140Y-89640475D02*
X82005521Y-89602380D01*
X82005521Y-89602380D02*
X82272188Y-89602380D01*
X82272188Y-89602380D02*
X82424569Y-89640475D01*
X82424569Y-89640475D02*
X82500760Y-89716666D01*
X82500760Y-89716666D02*
X82538855Y-89792856D01*
X82538855Y-89792856D02*
X82538855Y-89945237D01*
X82538855Y-89945237D02*
X82500760Y-90021428D01*
X82500760Y-90021428D02*
X82424569Y-90097618D01*
X82424569Y-90097618D02*
X82272188Y-90135714D01*
X82272188Y-90135714D02*
X82005521Y-90135714D01*
X82005521Y-90135714D02*
X81853140Y-90097618D01*
X81853140Y-90097618D02*
X81776950Y-90021428D01*
X81776950Y-90021428D02*
X81738855Y-89945237D01*
X82538855Y-89259523D02*
X81738855Y-89259523D01*
X81738855Y-89259523D02*
X82538855Y-88802380D01*
X82538855Y-88802380D02*
X81738855Y-88802380D01*
X94013855Y-68828570D02*
X93213855Y-68828570D01*
X93594807Y-68828570D02*
X93594807Y-68371427D01*
X94013855Y-68371427D02*
X93213855Y-68371427D01*
X94013855Y-93603570D02*
X93213855Y-93603570D01*
X93594807Y-93603570D02*
X93594807Y-93146427D01*
X94013855Y-93146427D02*
X93213855Y-93146427D01*
X59849999Y-85670668D02*
X59507142Y-85061144D01*
X59507142Y-85061144D02*
X60192857Y-85061144D01*
X60192857Y-85061144D02*
X59849999Y-85670668D01*
X61549999Y-62820668D02*
X61207142Y-62211144D01*
X61207142Y-62211144D02*
X61892857Y-62211144D01*
X61892857Y-62211144D02*
X61549999Y-62820668D01*
X59461144Y-84221429D02*
X60261144Y-84221429D01*
X59880192Y-84221429D02*
X59880192Y-84678572D01*
X59461144Y-84678572D02*
X60261144Y-84678572D01*
X61161144Y-61371429D02*
X61961144Y-61371429D01*
X61580192Y-61371429D02*
X61580192Y-61828572D01*
X61161144Y-61828572D02*
X61961144Y-61828572D01*
X65245668Y-84450000D02*
X64636144Y-84792857D01*
X64636144Y-84792857D02*
X64636144Y-84107142D01*
X64636144Y-84107142D02*
X65245668Y-84450000D01*
D11*
X78307143Y-75158557D02*
X77792857Y-75158557D01*
X78050000Y-75158557D02*
X78050000Y-74258557D01*
X78050000Y-74258557D02*
X77964286Y-74387128D01*
X77964286Y-74387128D02*
X77878571Y-74472842D01*
X77878571Y-74472842D02*
X77792857Y-74515700D01*
%TO.C,R4*%
D10*
X76498303Y-81137770D02*
X76162770Y-81473303D01*
X77237230Y-81876697D02*
X76901697Y-82212230D01*
%TO.C,J7*%
X55690000Y-81315000D02*
X55690000Y-72885000D01*
X58560000Y-71615000D02*
X60160000Y-71615000D01*
X58560000Y-82585000D02*
X60160000Y-82585000D01*
X60160000Y-71615000D02*
X60160000Y-73415000D01*
X60160000Y-80785000D02*
X61100000Y-80785000D01*
X60160000Y-82585000D02*
X60160000Y-80785000D01*
%TO.C,C4*%
X82597592Y-69779771D02*
X82878754Y-69779771D01*
X82597592Y-70799771D02*
X82878754Y-70799771D01*
%TO.C,U5*%
X84140001Y-62640000D02*
X84235000Y-62640000D01*
X84140001Y-66760000D02*
X84140001Y-62640000D01*
X84235000Y-66760000D02*
X84140001Y-66760000D01*
X89165000Y-62640000D02*
X89259999Y-62640000D01*
X89259999Y-62640000D02*
X89259999Y-66760000D01*
X89259999Y-66760000D02*
X89165000Y-66760000D01*
X84230000Y-67300000D02*
X83900000Y-67540000D01*
X83900000Y-67060000D01*
X84230000Y-67300000D01*
G36*
X84230000Y-67300000D02*
G01*
X83900000Y-67540000D01*
X83900000Y-67060000D01*
X84230000Y-67300000D01*
G37*
%TO.C,R14*%
X88902500Y-71862258D02*
X88902500Y-71387742D01*
X89947500Y-71862258D02*
X89947500Y-71387742D01*
%TO.C,C6*%
X70509419Y-84740000D02*
X70790581Y-84740000D01*
X70509419Y-85760000D02*
X70790581Y-85760000D01*
%TO.C,D6*%
X71390000Y-92515000D02*
X71390000Y-93985000D01*
X71390000Y-93985000D02*
X73675000Y-93985000D01*
X73675000Y-92515000D02*
X71390000Y-92515000D01*
%TO.C,C12*%
X64613781Y-70560030D02*
X64414970Y-70361219D01*
X65335030Y-69838781D02*
X65136219Y-69639970D01*
%TO.C,D1*%
X62640000Y-87940000D02*
X64160000Y-87940000D01*
X62640000Y-87990000D02*
X62640000Y-87940000D01*
X62640000Y-89890000D02*
X62640000Y-89110000D01*
X62640000Y-91060000D02*
X62640000Y-91010000D01*
X64160000Y-87940000D02*
X64160000Y-88940000D01*
X64160000Y-90060000D02*
X64160000Y-91060000D01*
X64160000Y-91060000D02*
X62640000Y-91060000D01*
X62100000Y-89120000D02*
X62340000Y-89450000D01*
X61860000Y-89450000D01*
X62100000Y-89120000D01*
G36*
X62340000Y-89450000D02*
G01*
X61860000Y-89450000D01*
X62100000Y-89120000D01*
X62340000Y-89450000D01*
G37*
%TO.C,R22*%
X63177500Y-82612742D02*
X63177500Y-83087258D01*
X64222500Y-82612742D02*
X64222500Y-83087258D01*
%TO.C,R1*%
X91087258Y-86402500D02*
X90612742Y-86402500D01*
X91087258Y-87447500D02*
X90612742Y-87447500D01*
%TO.C,R2*%
X66437770Y-68201697D02*
X66773303Y-68537230D01*
X67176697Y-67462770D02*
X67512230Y-67798303D01*
%TO.C,C11*%
X62488781Y-70714970D02*
X62289970Y-70913781D01*
X63210030Y-71436219D02*
X63011219Y-71635030D01*
%TO.C,C204*%
X80361253Y-81915000D02*
X79838747Y-81915000D01*
X80361253Y-83385000D02*
X79838747Y-83385000D01*
%TO.C,U2*%
X84500000Y-76664999D02*
X88260000Y-76665000D01*
X84500000Y-83485001D02*
X88260000Y-83485000D01*
X88260000Y-76665000D02*
X88260000Y-77924999D01*
X88260000Y-83485000D02*
X88260000Y-82225001D01*
X83220000Y-76765000D02*
X82980000Y-76435000D01*
X83460000Y-76435000D01*
X83220000Y-76765000D01*
G36*
X83220000Y-76765000D02*
G01*
X82980000Y-76435000D01*
X83460000Y-76435000D01*
X83220000Y-76765000D01*
G37*
%TO.C,C202*%
X83763747Y-85740000D02*
X84286253Y-85740000D01*
X83763747Y-87210000D02*
X84286253Y-87210000D01*
%TO.C,C16*%
X85809419Y-74990000D02*
X86090581Y-74990000D01*
X85809419Y-76010000D02*
X86090581Y-76010000D01*
%TO.C,C201*%
X83834419Y-84215000D02*
X84115581Y-84215000D01*
X83834419Y-85235000D02*
X84115581Y-85235000D01*
%TO.C,U3*%
X65915001Y-88315000D02*
X66010000Y-88315000D01*
X65915001Y-92435000D02*
X65915001Y-88315000D01*
X66010000Y-92435000D02*
X65915001Y-92435000D01*
X70940000Y-88315000D02*
X71034999Y-88315000D01*
X71034999Y-88315000D02*
X71034999Y-92435000D01*
X71034999Y-92435000D02*
X70940000Y-92435000D01*
X70945000Y-87775000D02*
X71275000Y-87535000D01*
X71275000Y-88015000D01*
X70945000Y-87775000D01*
G36*
X71275000Y-88015000D02*
G01*
X70945000Y-87775000D01*
X71275000Y-87535000D01*
X71275000Y-88015000D01*
G37*
%TO.C,R13*%
X88902500Y-74837258D02*
X88902500Y-74362742D01*
X89947500Y-74837258D02*
X89947500Y-74362742D01*
%TO.C,C5*%
X79934419Y-75340000D02*
X80215581Y-75340000D01*
X79934419Y-76360000D02*
X80215581Y-76360000D01*
%TO.C,C9*%
X79934420Y-76865000D02*
X80215580Y-76865000D01*
X79934420Y-77885000D02*
X80215580Y-77885000D01*
%TO.C,C203*%
X80240581Y-80390000D02*
X79959419Y-80390000D01*
X80240581Y-81410000D02*
X79959419Y-81410000D01*
%TO.C,D2*%
X90590000Y-64115000D02*
X92110000Y-64115000D01*
X90590000Y-65115000D02*
X90590000Y-64115000D01*
X90590000Y-67235000D02*
X90590000Y-66235000D01*
X92110000Y-64115000D02*
X92110000Y-64165000D01*
X92110000Y-65285000D02*
X92110000Y-66065000D01*
X92110000Y-67185000D02*
X92110000Y-67235000D01*
X92110000Y-67235000D02*
X90590000Y-67235000D01*
X92650000Y-66055000D02*
X92410000Y-65725000D01*
X92890000Y-65725000D01*
X92650000Y-66055000D01*
G36*
X92650000Y-66055000D02*
G01*
X92410000Y-65725000D01*
X92890000Y-65725000D01*
X92650000Y-66055000D01*
G37*
%TO.C,C14*%
X65663781Y-69510030D02*
X65464970Y-69311219D01*
X66385030Y-68788781D02*
X66186219Y-68589970D01*
%TO.C,J6*%
X71265000Y-63460000D02*
X71265000Y-64910000D01*
X71265000Y-64910000D02*
X73065000Y-64910000D01*
X80435000Y-64910000D02*
X80435000Y-65900000D01*
X80965000Y-60640000D02*
X72535000Y-60640000D01*
X82235000Y-63460000D02*
X82235000Y-64910000D01*
X82235000Y-64910000D02*
X80435000Y-64910000D01*
%TO.C,Y1*%
X83985000Y-71089999D02*
X79865000Y-71089999D01*
X83985000Y-74510001D02*
X83985000Y-71089999D01*
%TO.C,D8*%
X66690000Y-61350000D02*
X66690000Y-63635000D01*
X66690000Y-63635000D02*
X68160000Y-63635000D01*
X68160000Y-63635000D02*
X68160000Y-61350000D01*
%TO.C,R21*%
X61152500Y-82612742D02*
X61152500Y-83087258D01*
X62197500Y-82612742D02*
X62197500Y-83087258D01*
%TO.C,D10*%
X62965000Y-85050000D02*
X62965000Y-87335000D01*
X62965000Y-87335000D02*
X64435000Y-87335000D01*
X64435000Y-87335000D02*
X64435000Y-85050000D01*
%TO.C,J1*%
X75015000Y-90090000D02*
X76815000Y-90090000D01*
X75015000Y-91540000D02*
X75015000Y-90090000D01*
X76285000Y-94360000D02*
X79715000Y-94360000D01*
X76815000Y-90090000D02*
X76815000Y-89100000D01*
X80985000Y-90090000D02*
X79185000Y-90090000D01*
X80985000Y-91540000D02*
X80985000Y-90090000D01*
%TO.C,U4*%
X63398369Y-76600000D02*
X64070120Y-75928249D01*
X64070120Y-77271751D02*
X63398369Y-76600000D01*
X69953249Y-70045120D02*
X70625000Y-69373369D01*
X70625000Y-69373369D02*
X71296751Y-70045120D01*
X70625000Y-83826631D02*
X69953249Y-83154880D01*
X71296751Y-83154880D02*
X70625000Y-83826631D01*
X77179880Y-75928249D02*
X77851631Y-76600000D01*
X77851631Y-76600000D02*
X77179880Y-77271751D01*
X77632428Y-75475700D02*
X78205185Y-75567624D01*
X77724352Y-76048457D01*
X77632428Y-75475700D01*
G36*
X78205185Y-75567624D02*
G01*
X77724352Y-76048457D01*
X77632428Y-75475700D01*
X78205185Y-75567624D01*
G37*
%TO.C,R17*%
X74512258Y-66602500D02*
X74037742Y-66602500D01*
X74512258Y-67647500D02*
X74037742Y-67647500D01*
%TO.C,J2*%
X55640000Y-87560000D02*
X55640000Y-92240000D01*
X58460000Y-86290000D02*
X59910000Y-86290000D01*
X58460000Y-93510000D02*
X59910000Y-93510000D01*
X59910000Y-86290000D02*
X59910000Y-88090000D01*
X59910000Y-88090000D02*
X60900000Y-88090000D01*
X59910000Y-93510000D02*
X59910000Y-91710000D01*
%TO.C,J4*%
X95090000Y-61490000D02*
X95090000Y-63290000D01*
X95090000Y-66910000D02*
X94100000Y-66910000D01*
X95090000Y-68710000D02*
X95090000Y-66910000D01*
X96540000Y-61490000D02*
X95090000Y-61490000D01*
X96540000Y-68710000D02*
X95090000Y-68710000D01*
X99360000Y-67440000D02*
X99360000Y-62760000D01*
%TO.C,C8*%
X70765581Y-67415000D02*
X70484419Y-67415000D01*
X70765581Y-68435000D02*
X70484419Y-68435000D01*
%TO.C,J5*%
X55790000Y-62760000D02*
X55790000Y-67440000D01*
X58610000Y-61490000D02*
X60060000Y-61490000D01*
X58610000Y-68710000D02*
X60060000Y-68710000D01*
X60060000Y-61490000D02*
X60060000Y-63290000D01*
X60060000Y-63290000D02*
X61050000Y-63290000D01*
X60060000Y-68710000D02*
X60060000Y-66910000D01*
%TO.C,SW3*%
X91060000Y-73740000D02*
X92800000Y-73740000D01*
X91060000Y-80060000D02*
X91060000Y-73740000D01*
X91060000Y-80060000D02*
X92010000Y-80060000D01*
X92010000Y-82100000D02*
X92010000Y-80060000D01*
X99740000Y-73740000D02*
X98000000Y-73740000D01*
X99740000Y-80060000D02*
X98000000Y-80060000D01*
X99740000Y-80060000D02*
X99740000Y-73740000D01*
%TO.C,R18*%
X71487258Y-65602500D02*
X71012742Y-65602500D01*
X71487258Y-66647500D02*
X71012742Y-66647500D01*
%TO.C,D9*%
X60940000Y-85050000D02*
X60940000Y-87335000D01*
X60940000Y-87335000D02*
X62410000Y-87335000D01*
X62410000Y-87335000D02*
X62410000Y-85050000D01*
%TO.C,C15*%
X74288781Y-69910030D02*
X74089970Y-69711219D01*
X75010030Y-69188781D02*
X74811219Y-68989970D01*
%TO.C,C17*%
X86790581Y-68865000D02*
X86509419Y-68865000D01*
X86790581Y-69885000D02*
X86509419Y-69885000D01*
%TO.C,C2*%
X64090000Y-92865581D02*
X64090000Y-92584419D01*
X65110000Y-92865581D02*
X65110000Y-92584419D01*
%TO.C,U1*%
X79590000Y-85640000D02*
X79615001Y-85640000D01*
X79590000Y-87110000D02*
X79590000Y-85640000D01*
X79615001Y-87110000D02*
X79590000Y-87110000D01*
X81784999Y-85640000D02*
X81810000Y-85640000D01*
X81810000Y-85640000D02*
X81810000Y-87110000D01*
X81810000Y-87110000D02*
X81784999Y-87110000D01*
X79610001Y-87555000D02*
X79420000Y-87695000D01*
X79420000Y-87415000D01*
X79610001Y-87555000D01*
G36*
X79610001Y-87555000D02*
G01*
X79420000Y-87695000D01*
X79420000Y-87415000D01*
X79610001Y-87555000D01*
G37*
%TO.C,C10*%
X80361253Y-78415000D02*
X79838747Y-78415000D01*
X80361253Y-79885000D02*
X79838747Y-79885000D01*
%TO.C,R16*%
X76777500Y-67662742D02*
X76777500Y-68137258D01*
X77822500Y-67662742D02*
X77822500Y-68137258D01*
%TO.C,C13*%
X61438781Y-69664970D02*
X61239970Y-69863781D01*
X62160030Y-70386219D02*
X61961219Y-70585030D01*
%TO.C,C3*%
X78515862Y-72730130D02*
X78515862Y-73011292D01*
X79535862Y-72730130D02*
X79535862Y-73011292D01*
%TO.C,C18*%
X91334419Y-61490000D02*
X91615581Y-61490000D01*
X91334419Y-62510000D02*
X91615581Y-62510000D01*
%TO.C,R15*%
X78252500Y-67662742D02*
X78252500Y-68137258D01*
X79297500Y-67662742D02*
X79297500Y-68137258D01*
%TO.C,J3*%
X95090000Y-86290000D02*
X95090000Y-88090000D01*
X95090000Y-91710000D02*
X94100000Y-91710000D01*
X95090000Y-93510000D02*
X95090000Y-91710000D01*
X96540000Y-86290000D02*
X95090000Y-86290000D01*
X96540000Y-93510000D02*
X95090000Y-93510000D01*
X99360000Y-92240000D02*
X99360000Y-87560000D01*
%TO.C,C7*%
X62764970Y-72638781D02*
X62963781Y-72439970D01*
X63486219Y-73360030D02*
X63685030Y-73161219D01*
%TO.C,C101*%
X77715000Y-86636253D02*
X77715000Y-86113747D01*
X79185000Y-86636253D02*
X79185000Y-86113747D01*
%TO.C,FB1*%
X66987220Y-64590000D02*
X67312780Y-64590000D01*
X66987220Y-65610000D02*
X67312780Y-65610000D01*
%TO.C,D7*%
X85465000Y-71240000D02*
X86985000Y-71240000D01*
X85465000Y-72240000D02*
X85465000Y-71240000D01*
X85465000Y-74360000D02*
X85465000Y-73360000D01*
X86985000Y-71240000D02*
X86985000Y-71290000D01*
X86985000Y-72410000D02*
X86985000Y-73190000D01*
X86985000Y-74310000D02*
X86985000Y-74360000D01*
X86985000Y-74360000D02*
X85465000Y-74360000D01*
X87525000Y-73180000D02*
X87285000Y-72850000D01*
X87765000Y-72850000D01*
X87525000Y-73180000D01*
G36*
X87525000Y-73180000D02*
G01*
X87285000Y-72850000D01*
X87765000Y-72850000D01*
X87525000Y-73180000D01*
G37*
%TD*%
M02*
