ISO-10303-21;
HEADER;
FILE_DESCRIPTION (( 'STEP AP214' ),
    '1' );
FILE_NAME ('gear cover.STEP',
    '2026-09-08T07:39:58',
    ( '' ),
    ( '' ),
    'SwSTEP 2.0',
    'SolidWorks 2025',
    '' );
FILE_SCHEMA (( 'AUTOMOTIVE_DESIGN' ));
ENDSEC;

DATA;
#1 = FACE_OUTER_BOUND ( 'NONE', #832, .T. ) ;
#2 = ORIENTED_EDGE ( 'NONE', *, *, #709, .F. ) ;
#3 = FACE_OUTER_BOUND ( 'NONE', #301, .T. ) ;
#4 = APPLICATION_CONTEXT ( 'automotive_design' ) ;
#5 = ORIENTED_EDGE ( 'NONE', *, *, #645, .T. ) ;
#6 = LINE ( 'NONE', #989, #849 ) ;
#7 = CIRCLE ( 'NONE', #668, 3.000000000000000888 ) ;
#8 = CIRCLE ( 'NONE', #378, 2.150000000000002576 ) ;
#9 = AXIS2_PLACEMENT_3D ( 'NONE', #249, #600, #866 ) ;
#10 = ORIENTED_EDGE ( 'NONE', *, *, #1158, .T. ) ;
#11 = CYLINDRICAL_SURFACE ( 'NONE', #73, 2.150000000000002576 ) ;
#12 = VERTEX_POINT ( 'NONE', #1048 ) ;
#13 = DIRECTION ( 'NONE',  ( 0.000000000000000000, 0.000000000000000000, 1.000000000000000000 ) ) ;
#14 = DIRECTION ( 'NONE',  ( -0.000000000000000000, -1.000000000000000000, -0.000000000000000000 ) ) ;
#15 = ADVANCED_FACE ( 'NONE', ( #443 ), #707, .F. ) ;
#16 = EDGE_LOOP ( 'NONE', ( #914, #573, #412, #464 ) ) ;
#17 = CARTESIAN_POINT ( 'NONE',  ( 20.50000000000000355, 0.000000000000000000, -14.79898987322332893 ) ) ;
#18 = EDGE_LOOP ( 'NONE', ( #1005, #237, #333, #1038 ) ) ;
#19 = DIRECTION ( 'NONE',  ( 0.000000000000000000, 0.000000000000000000, 1.000000000000000000 ) ) ;
#20 = EDGE_LOOP ( 'NONE', ( #407, #426 ) ) ;
#21 = DIRECTION ( 'NONE',  ( 0.000000000000000000, -1.000000000000000000, 0.000000000000000000 ) ) ;
#22 = ADVANCED_FACE ( 'NONE', ( #1064 ), #798, .F. ) ;
#23 = ORIENTED_EDGE ( 'NONE', *, *, #1093, .F. ) ;
#24 = CYLINDRICAL_SURFACE ( 'NONE', #380, 2.150000000000002576 ) ;
#25 = DIRECTION ( 'NONE',  ( 0.000000000000000000, 0.000000000000000000, 1.000000000000000000 ) ) ;
#26 = ORIENTED_EDGE ( 'NONE', *, *, #1139, .T. ) ;
#27 = AXIS2_PLACEMENT_3D ( 'NONE', #450, #274, #540 ) ;
#28 = VECTOR ( 'NONE', #49, 1000.000000000000000 ) ;
#29 = CARTESIAN_POINT ( 'NONE',  ( 20.50000000000000355, 0.000000000000000000, -19.79898987322332715 ) ) ;
#30 = AXIS2_PLACEMENT_3D ( 'NONE', #285, #897, #1083 ) ;
#31 = VECTOR ( 'NONE', #1156, 1000.000000000000000 ) ;
#32 = ORIENTED_EDGE ( 'NONE', *, *, #1084, .F. ) ;
#33 = DIRECTION ( 'NONE',  ( 0.000000000000000000, 0.000000000000000000, 1.000000000000000000 ) ) ;
#34 = EDGE_LOOP ( 'NONE', ( #203, #917, #780, #395 ) ) ;
#35 = CARTESIAN_POINT ( 'NONE',  ( 20.50000000000000355, 3.000000000000000000, 19.79898987322332715 ) ) ;
#36 = EDGE_LOOP ( 'NONE', ( #729, #862, #714, #45 ) ) ;
#37 = DIRECTION ( 'NONE',  ( 0.000000000000000000, 0.000000000000000000, 1.000000000000000000 ) ) ;
#38 = ADVANCED_FACE ( 'NONE', ( #789 ), #433, .F. ) ;
#39 = DIRECTION ( 'NONE',  ( -0.000000000000000000, 1.000000000000000000, -0.000000000000000000 ) ) ;
#40 = ORIENTED_EDGE ( 'NONE', *, *, #252, .T. ) ;
#41 = CARTESIAN_POINT ( 'NONE',  ( 0.000000000000000000, 3.000000000000000000, 0.000000000000000000 ) ) ;
#42 = VERTEX_POINT ( 'NONE', #425 ) ;
#43 = DIRECTION ( 'NONE',  ( 0.000000000000000000, 0.000000000000000000, 1.000000000000000000 ) ) ;
#44 = CARTESIAN_POINT ( 'NONE',  ( -14.86715431869131976, 3.000000000000000000, -25.47975122453550156 ) ) ;
#45 = ORIENTED_EDGE ( 'NONE', *, *, #878, .T. ) ;
#46 = AXIS2_PLACEMENT_3D ( 'NONE', #700, #340, #890 ) ;
#47 = CARTESIAN_POINT ( 'NONE',  ( -20.50000000000000355, 0.000000000000000000, -19.79898987322332715 ) ) ;
#48 = ORIENTED_EDGE ( 'NONE', *, *, #401, .T. ) ;
#49 = DIRECTION ( 'NONE',  ( -0.000000000000000000, 1.000000000000000000, -0.000000000000000000 ) ) ;
#50 = AXIS2_PLACEMENT_3D ( 'NONE', #47, #128, #469 ) ;
#51 = CIRCLE ( 'NONE', #813, 2.150000000000002576 ) ;
#52 = CARTESIAN_POINT ( 'NONE',  ( -20.50000000000000355, 3.000000000000000000, -17.64898987322332502 ) ) ;
#53 =( GEOMETRIC_REPRESENTATION_CONTEXT ( 3 ) GLOBAL_UNCERTAINTY_ASSIGNED_CONTEXT ( ( #360 ) ) GLOBAL_UNIT_ASSIGNED_CONTEXT ( ( #513, #772, #691 ) ) REPRESENTATION_CONTEXT ( 'NONE', 'WORKASPACE' ) );
#54 = VERTEX_POINT ( 'NONE', #268 ) ;
#55 = ADVANCED_FACE ( 'NONE', ( #868 ), #336, .F. ) ;
#56 = DIRECTION ( 'NONE',  ( -0.000000000000000000, 1.000000000000000000, -0.000000000000000000 ) ) ;
#57 = ORIENTED_EDGE ( 'NONE', *, *, #189, .T. ) ;
#58 = DIRECTION ( 'NONE',  ( 0.000000000000000000, -0.000000000000000000, 1.000000000000000000 ) ) ;
#59 = DIRECTION ( 'NONE',  ( 0.000000000000000000, 1.000000000000000000, 0.000000000000000000 ) ) ;
#60 = ORIENTED_EDGE ( 'NONE', *, *, #800, .F. ) ;
#61 = PRODUCT_CONTEXT ( 'NONE', #4, 'mechanical' ) ;
#62 = ORIENTED_EDGE ( 'NONE', *, *, #611, .T. ) ;
#63 = LINE ( 'NONE', #334, #496 ) ;
#64 = ADVANCED_FACE ( 'NONE', ( #521 ), #1054, .F. ) ;
#65 = LINE ( 'NONE', #1007, #867 ) ;
#66 = ORIENTED_EDGE ( 'NONE', *, *, #865, .F. ) ;
#67 = ORIENTED_EDGE ( 'NONE', *, *, #971, .F. ) ;
#68 = FACE_OUTER_BOUND ( 'NONE', #1008, .T. ) ;
#69 = AXIS2_PLACEMENT_3D ( 'NONE', #957, #1143, #267 ) ;
#70 = EDGE_CURVE ( 'NONE', #319, #834, #974, .T. ) ;
#71 = CIRCLE ( 'NONE', #259, 2.150000000000002576 ) ;
#72 = DIRECTION ( 'NONE',  ( 0.000000000000000000, 0.000000000000000000, 1.000000000000000000 ) ) ;
#73 = AXIS2_PLACEMENT_3D ( 'NONE', #368, #727, #280 ) ;
#74 = VECTOR ( 'NONE', #1115, 1000.000000000000000 ) ;
#75 = CARTESIAN_POINT ( 'NONE',  ( 20.50000000000000355, 0.000000000000000000, 19.79898987322332715 ) ) ;
#76 = ORIENTED_EDGE ( 'NONE', *, *, #587, .T. ) ;
#77 = CARTESIAN_POINT ( 'NONE',  ( 16.37906831720231082, 0.000000000000000000, 28.07091236601368323 ) ) ;
#78 = DIRECTION ( 'NONE',  ( -0.000000000000000000, -1.000000000000000000, -0.000000000000000000 ) ) ;
#79 = CARTESIAN_POINT ( 'NONE',  ( 0.000000000000000000, 0.000000000000000000, -42.50000000000000000 ) ) ;
#80 = ADVANCED_FACE ( 'NONE', ( #1 ), #877, .T. ) ;
#81 = FACE_OUTER_BOUND ( 'NONE', #461, .T. ) ;
#82 = CARTESIAN_POINT ( 'NONE',  ( 20.50000000000000355, 3.000000000000000000, 19.79898987322332715 ) ) ;
#83 = DIRECTION ( 'NONE',  ( 0.000000000000000000, 0.000000000000000000, 1.000000000000000000 ) ) ;
#84 = DIRECTION ( 'NONE',  ( -0.000000000000000000, -1.000000000000000000, -0.000000000000000000 ) ) ;
#85 = AXIS2_PLACEMENT_3D ( 'NONE', #391, #303, #229 ) ;
#86 = DIRECTION ( 'NONE',  ( 0.000000000000000000, 0.000000000000000000, 1.000000000000000000 ) ) ;
#87 = CIRCLE ( 'NONE', #828, 42.50000000000000000 ) ;
#88 = DIRECTION ( 'NONE',  ( 0.000000000000000000, 0.000000000000000000, 1.000000000000000000 ) ) ;
#89 = EDGE_CURVE ( 'NONE', #777, #337, #954, .T. ) ;
#90 = CARTESIAN_POINT ( 'NONE',  ( 0.000000000000000000, 0.000000000000000000, 0.000000000000000000 ) ) ;
#91 = DIRECTION ( 'NONE',  ( -0.000000000000000000, -1.000000000000000000, -0.000000000000000000 ) ) ;
#92 = DIRECTION ( 'NONE',  ( 0.000000000000000000, 0.000000000000000000, 1.000000000000000000 ) ) ;
#93 = ORIENTED_EDGE ( 'NONE', *, *, #863, .T. ) ;
#94 = CARTESIAN_POINT ( 'NONE',  ( -25.98141447170574025, 3.000000000000000000, 13.97197559579316994 ) ) ;
#95 = ORIENTED_EDGE ( 'NONE', *, *, #367, .F. ) ;
#96 = ORIENTED_EDGE ( 'NONE', *, *, #276, .F. ) ;
#97 = DIRECTION ( 'NONE',  ( 0.000000000000000000, 0.000000000000000000, 1.000000000000000000 ) ) ;
#98 = DIRECTION ( 'NONE',  ( 0.000000000000000000, -1.000000000000000000, 0.000000000000000000 ) ) ;
#99 = EDGE_CURVE ( 'NONE', #387, #253, #51, .T. ) ;
#100 = CIRCLE ( 'NONE', #27, 32.50000000000000711 ) ;
#101 = VECTOR ( 'NONE', #814, 1000.000000000000000 ) ;
#102 = ORIENTED_EDGE ( 'NONE', *, *, #535, .T. ) ;
#103 = AXIS2_PLACEMENT_3D ( 'NONE', #571, #1100, #113 ) ;
#104 = CIRCLE ( 'NONE', #1037, 5.000000000000000888 ) ;
#105 = CARTESIAN_POINT ( 'NONE',  ( 25.98141447170574381, 0.000000000000000000, 13.97197559579316817 ) ) ;
#106 = ORIENTED_EDGE ( 'NONE', *, *, #1158, .F. ) ;
#107 = EDGE_CURVE ( 'NONE', #216, #54, #182, .T. ) ;
#108 = CARTESIAN_POINT ( 'NONE',  ( 23.92588404481609032, 0.000000000000000000, -16.15710594982947867 ) ) ;
#109 = DIRECTION ( 'NONE',  ( 0.000000000000000000, 0.000000000000000000, 1.000000000000000000 ) ) ;
#110 = DIRECTION ( 'NONE',  ( 0.000000000000000000, 1.000000000000000000, -0.000000000000000000 ) ) ;
#111 = ORIENTED_EDGE ( 'NONE', *, *, #1044, .T. ) ;
#112 = EDGE_CURVE ( 'NONE', #955, #284, #7, .T. ) ;
#113 = DIRECTION ( 'NONE',  ( 0.000000000000000000, 0.000000000000000000, 1.000000000000000000 ) ) ;
#114 = ORIENTED_EDGE ( 'NONE', *, *, #725, .F. ) ;
#115 = CARTESIAN_POINT ( 'NONE',  ( 14.86715431869132686, 0.000000000000000000, 25.47975122453549801 ) ) ;
#116 = EDGE_LOOP ( 'NONE', ( #823, #652, #399, #409 ) ) ;
#117 = AXIS2_PLACEMENT_3D ( 'NONE', #339, #335, #694 ) ;
#118 = VECTOR ( 'NONE', #899, 1000.000000000000000 ) ;
#119 = FACE_OUTER_BOUND ( 'NONE', #1030, .T. ) ;
#120 = EDGE_CURVE ( 'NONE', #1119, #834, #831, .T. ) ;
#121 = AXIS2_PLACEMENT_3D ( 'NONE', #371, #816, #1157 ) ;
#122 = VERTEX_POINT ( 'NONE', #79 ) ;
#123 = DIRECTION ( 'NONE',  ( 0.000000000000000000, -1.000000000000000000, 0.000000000000000000 ) ) ;
#124 = EDGE_CURVE ( 'NONE', #253, #387, #457, .T. ) ;
#125 = CARTESIAN_POINT ( 'NONE',  ( 25.98141447170574381, 3.000000000000000000, 13.97197559579316817 ) ) ;
#126 = APPLICATION_CONTEXT ( 'automotive_design' ) ;
#127 = ORIENTED_EDGE ( 'NONE', *, *, #70, .T. ) ;
#128 = DIRECTION ( 'NONE',  ( 0.000000000000000000, 1.000000000000000000, 0.000000000000000000 ) ) ;
#129 = ORIENTED_EDGE ( 'NONE', *, *, #463, .T. ) ;
#130 = FACE_OUTER_BOUND ( 'NONE', #933, .T. ) ;
#131 = FACE_OUTER_BOUND ( 'NONE', #153, .T. ) ;
#132 = EDGE_LOOP ( 'NONE', ( #304, #57, #928, #295, #277, #983, #40, #102, #920, #723, #1026, #1116, #690, #466, #827, #1099, #373, #901, #560, #393, #735 ) ) ;
#133 = CARTESIAN_POINT ( 'NONE',  ( -20.50000000000000355, 0.000000000000000000, -21.94898987322332928 ) ) ;
#134 = ORIENTED_EDGE ( 'NONE', *, *, #487, .T. ) ;
#135 = DIRECTION ( 'NONE',  ( -0.000000000000000000, 1.000000000000000000, -0.000000000000000000 ) ) ;
#136 = CARTESIAN_POINT ( 'NONE',  ( -20.50000000000000355, 3.000000000000000000, 19.79898987322332715 ) ) ;
#137 = EDGE_CURVE ( 'NONE', #1002, #771, #905, .T. ) ;
#138 = ORIENTED_EDGE ( 'NONE', *, *, #220, .F. ) ;
#139 = CIRCLE ( 'NONE', #547, 5.000000000000000888 ) ;
#140 = DIRECTION ( 'NONE',  ( 0.000000000000000000, 0.000000000000000000, 1.000000000000000000 ) ) ;
#141 = AXIS2_PLACEMENT_3D ( 'NONE', #639, #91, #13 ) ;
#142 = EDGE_LOOP ( 'NONE', ( #654, #563 ) ) ;
#143 = AXIS2_PLACEMENT_3D ( 'NONE', #1079, #445, #97 ) ;
#144 = CARTESIAN_POINT ( 'NONE',  ( -20.50000000000000355, 3.000000000000000000, 21.94898987322332928 ) ) ;
#145 = AXIS2_PLACEMENT_3D ( 'NONE', #314, #607, #239 ) ;
#146 = CARTESIAN_POINT ( 'NONE',  ( -16.37906831720230372, 0.000000000000000000, -28.07091236601368678 ) ) ;
#147 = ORIENTED_EDGE ( 'NONE', *, *, #886, .T. ) ;
#148 = ADVANCED_FACE ( 'NONE', ( #616 ), #970, .T. ) ;
#149 = CARTESIAN_POINT ( 'NONE',  ( 0.000000000000000000, 0.000000000000000000, 0.000000000000000000 ) ) ;
#150 = ORIENTED_EDGE ( 'NONE', *, *, #487, .F. ) ;
#151 = DIRECTION ( 'NONE',  ( 0.000000000000000000, 0.000000000000000000, 1.000000000000000000 ) ) ;
#152 = CARTESIAN_POINT ( 'NONE',  ( 16.97947144918207840, 0.000000000000000000, 23.34946571779343572 ) ) ;
#153 = EDGE_LOOP ( 'NONE', ( #851, #926, #640, #10 ) ) ;
#154 = ORIENTED_EDGE ( 'NONE', *, *, #676, .T. ) ;
#155 = CARTESIAN_POINT ( 'NONE',  ( 20.50000000000000355, 3.000000000000000000, 19.79898987322332715 ) ) ;
#156 = CARTESIAN_POINT ( 'NONE',  ( 20.50000000000000355, 3.000000000000000000, -19.79898987322332715 ) ) ;
#157 = DIRECTION ( 'NONE',  ( 0.000000000000000000, 0.000000000000000000, 1.000000000000000000 ) ) ;
#158 = ORIENTED_EDGE ( 'NONE', *, *, #580, .T. ) ;
#159 = CARTESIAN_POINT ( 'NONE',  ( 20.50000000000000355, 3.000000000000000000, -19.79898987322332715 ) ) ;
#160 = AXIS2_PLACEMENT_3D ( 'NONE', #386, #1068, #978 ) ;
#161 = CIRCLE ( 'NONE', #568, 42.50000000000000000 ) ;
#162 = EDGE_CURVE ( 'NONE', #122, #12, #1132, .T. ) ;
#163 = DIRECTION ( 'NONE',  ( 0.000000000000000000, 1.000000000000000000, -0.000000000000000000 ) ) ;
#164 = AXIS2_PLACEMENT_3D ( 'NONE', #205, #388, #833 ) ;
#165 = VECTOR ( 'NONE', #695, 1000.000000000000000 ) ;
#166 = DIRECTION ( 'NONE',  ( 0.000000000000000000, 1.000000000000000000, 0.000000000000000000 ) ) ;
#167 = CARTESIAN_POINT ( 'NONE',  ( -16.97947144918207485, 0.000000000000000000, -23.34946571779343572 ) ) ;
#168 = DIRECTION ( 'NONE',  ( -0.000000000000000000, 1.000000000000000000, -0.000000000000000000 ) ) ;
#169 = PRODUCT_RELATED_PRODUCT_CATEGORY ( 'part', '', ( #990 ) ) ;
#170 = DIRECTION ( 'NONE',  ( 0.000000000000000000, 1.000000000000000000, 0.000000000000000000 ) ) ;
#171 = CARTESIAN_POINT ( 'NONE',  ( 28.62359221459107061, 0.000000000000000000, 15.39285446994162321 ) ) ;
#172 = CARTESIAN_POINT ( 'NONE',  ( 16.97947144918207840, 3.000000000000000000, -23.34946571779343572 ) ) ;
#173 = CARTESIAN_POINT ( 'NONE',  ( -20.50000000000000355, 0.000000000000000000, -19.79898987322332715 ) ) ;
#174 = EDGE_CURVE ( 'NONE', #803, #1134, #453, .T. ) ;
#175 = EDGE_CURVE ( 'NONE', #675, #955, #630, .T. ) ;
#176 = DIRECTION ( 'NONE',  ( 0.000000000000000000, 0.000000000000000000, 1.000000000000000000 ) ) ;
#177 = AXIS2_PLACEMENT_3D ( 'NONE', #125, #215, #244 ) ;
#178 = DIRECTION ( 'NONE',  ( 0.000000000000000000, 0.000000000000000000, 1.000000000000000000 ) ) ;
#179 = AXIS2_PLACEMENT_3D ( 'NONE', #1092, #442, #724 ) ;
#180 = DIRECTION ( 'NONE',  ( 0.000000000000000000, 0.000000000000000000, 1.000000000000000000 ) ) ;
#181 = AXIS2_PLACEMENT_3D ( 'NONE', #536, #909, #994 ) ;
#182 = CIRCLE ( 'NONE', #517, 2.999999999999999112 ) ;
#183 = EDGE_LOOP ( 'NONE', ( #649, #741, #766, #224 ) ) ;
#184 = ADVANCED_FACE ( 'NONE', ( #379 ), #734, .F. ) ;
#185 = LINE ( 'NONE', #452, #498 ) ;
#186 = ORIENTED_EDGE ( 'NONE', *, *, #852, .T. ) ;
#187 = VERTEX_POINT ( 'NONE', #544 ) ;
#188 = CARTESIAN_POINT ( 'NONE',  ( -25.98141447170574025, 0.000000000000000000, 13.97197559579316994 ) ) ;
#189 = EDGE_CURVE ( 'NONE', #418, #484, #701, .T. ) ;
#190 = DIRECTION ( 'NONE',  ( 0.000000000000000000, 0.000000000000000000, 1.000000000000000000 ) ) ;
#191 = EDGE_LOOP ( 'NONE', ( #114, #186, #557, #839 ) ) ;
#192 = FACE_OUTER_BOUND ( 'NONE', #1096, .T. ) ;
#193 = ORIENTED_EDGE ( 'NONE', *, *, #375, .T. ) ;
#194 = CARTESIAN_POINT ( 'NONE',  ( -14.86715431869131976, 0.000000000000000000, -25.47975122453550156 ) ) ;
#195 = EDGE_CURVE ( 'NONE', #284, #845, #100, .T. ) ;
#196 = AXIS2_PLACEMENT_3D ( 'NONE', #912, #110, #25 ) ;
#197 = AXIS2_PLACEMENT_3D ( 'NONE', #362, #14, #550 ) ;
#198 = AXIS2_PLACEMENT_3D ( 'NONE', #924, #941, #390 ) ;
#199 = VERTEX_POINT ( 'NONE', #895 ) ;
#200 = CIRCLE ( 'NONE', #759, 5.000000000000000888 ) ;
#201 = CARTESIAN_POINT ( 'NONE',  ( 25.98141447170574381, 0.000000000000000000, 16.97197559579316817 ) ) ;
#202 = PRESENTATION_STYLE_ASSIGNMENT (( #207 ) ) ;
#203 = ORIENTED_EDGE ( 'NONE', *, *, #70, .F. ) ;
#204 = PRODUCT_DEFINITION_SHAPE ( 'NONE', 'NONE',  #893 ) ;
#205 = CARTESIAN_POINT ( 'NONE',  ( 0.000000000000000000, 3.000000000000000000, 0.000000000000000000 ) ) ;
#206 = EDGE_LOOP ( 'NONE', ( #1108, #93, #48, #1114 ) ) ;
#207 = SURFACE_STYLE_USAGE ( .BOTH. , #1001 ) ;
#208 = CARTESIAN_POINT ( 'NONE',  ( -23.92588404481609388, 0.000000000000000000, -16.15710594982947867 ) ) ;
#209 = EDGE_CURVE ( 'NONE', #494, #320, #826, .T. ) ;
#210 = ORIENTED_EDGE ( 'NONE', *, *, #209, .T. ) ;
#211 = ADVANCED_FACE ( 'NONE', ( #131 ), #1124, .T. ) ;
#212 = CARTESIAN_POINT ( 'NONE',  ( 14.86715431869132686, 0.000000000000000000, 25.47975122453549801 ) ) ;
#213 = ORIENTED_EDGE ( 'NONE', *, *, #950, .T. ) ;
#214 = DIRECTION ( 'NONE',  ( -0.000000000000000000, -1.000000000000000000, -0.000000000000000000 ) ) ;
#215 = DIRECTION ( 'NONE',  ( -0.000000000000000000, -1.000000000000000000, -0.000000000000000000 ) ) ;
#216 = VERTEX_POINT ( 'NONE', #746 ) ;
#217 = AXIS2_PLACEMENT_3D ( 'NONE', #656, #860, #1113 ) ;
#218 = CARTESIAN_POINT ( 'NONE',  ( -28.62359221459107061, 3.000000000000000000, -15.39285446994162321 ) ) ;
#219 = CIRCLE ( 'NONE', #1015, 2.150000000000002576 ) ;
#220 = EDGE_CURVE ( 'NONE', #685, #494, #682, .T. ) ;
#221 = VERTEX_POINT ( 'NONE', #152 ) ;
#222 = CARTESIAN_POINT ( 'NONE',  ( 0.000000000000000000, 0.000000000000000000, 0.000000000000000000 ) ) ;
#223 = DIRECTION ( 'NONE',  ( 0.000000000000000000, -1.000000000000000000, 0.000000000000000000 ) ) ;
#224 = ORIENTED_EDGE ( 'NONE', *, *, #929, .F. ) ;
#225 = DIRECTION ( 'NONE',  ( 0.000000000000000000, 0.000000000000000000, 1.000000000000000000 ) ) ;
#226 = VERTEX_POINT ( 'NONE', #1098 ) ;
#227 = EDGE_CURVE ( 'NONE', #326, #627, #1118, .T. ) ;
#228 = FACE_BOUND ( 'NONE', #589, .T. ) ;
#229 = DIRECTION ( 'NONE',  ( 0.000000000000000000, 0.000000000000000000, 1.000000000000000000 ) ) ;
#230 = PRODUCT_DEFINITION_CONTEXT ( 'detailed design', #126, 'design' ) ;
#231 = VERTEX_POINT ( 'NONE', #752 ) ;
#232 = DIRECTION ( 'NONE',  ( 0.000000000000000000, 0.000000000000000000, 1.000000000000000000 ) ) ;
#233 = ORIENTED_EDGE ( 'NONE', *, *, #769, .F. ) ;
#234 = FACE_BOUND ( 'NONE', #270, .T. ) ;
#235 = DIRECTION ( 'NONE',  ( 0.000000000000000000, 0.000000000000000000, 1.000000000000000000 ) ) ;
#236 = EDGE_CURVE ( 'NONE', #484, #231, #1033, .T. ) ;
#237 = ORIENTED_EDGE ( 'NONE', *, *, #220, .T. ) ;
#238 = AXIS2_PLACEMENT_3D ( 'NONE', #710, #78, #612 ) ;
#239 = DIRECTION ( 'NONE',  ( 0.000000000000000000, 0.000000000000000000, 1.000000000000000000 ) ) ;
#240 = ORIENTED_EDGE ( 'NONE', *, *, #900, .T. ) ;
#241 = AXIS2_PLACEMENT_3D ( 'NONE', #90, #719, #1074 ) ;
#242 = FACE_BOUND ( 'NONE', #447, .T. ) ;
#243 = CIRCLE ( 'NONE', #646, 2.999999999999999112 ) ;
#244 = DIRECTION ( 'NONE',  ( -2.312964634635742267E-15, 0.000000000000000000, 1.000000000000000000 ) ) ;
#245 = ORIENTED_EDGE ( 'NONE', *, *, #269, .F. ) ;
#246 = EDGE_CURVE ( 'NONE', #413, #553, #8, .T. ) ;
#247 = VERTEX_POINT ( 'NONE', #146 ) ;
#248 = DIRECTION ( 'NONE',  ( 0.000000000000000000, 1.000000000000000000, -0.000000000000000000 ) ) ;
#249 = CARTESIAN_POINT ( 'NONE',  ( -14.86715431869131798, 0.000000000000000000, 25.47975122453550156 ) ) ;
#250 = DIRECTION ( 'NONE',  ( 0.000000000000000000, 1.000000000000000000, 0.000000000000000000 ) ) ;
#251 = EDGE_CURVE ( 'NONE', #1065, #951, #65, .T. ) ;
#252 = EDGE_CURVE ( 'NONE', #310, #576, #902, .T. ) ;
#253 = VERTEX_POINT ( 'NONE', #575 ) ;
#254 = CARTESIAN_POINT ( 'NONE',  ( -16.37906831720230016, 0.000000000000000000, 28.07091236601368678 ) ) ;
#255 = CARTESIAN_POINT ( 'NONE',  ( 25.98141447170574025, 3.000000000000000000, -13.97197559579317350 ) ) ;
#256 = DIRECTION ( 'NONE',  ( 0.000000000000000000, 0.000000000000000000, 1.000000000000000000 ) ) ;
#257 = DIRECTION ( 'NONE',  ( 0.000000000000000000, 0.000000000000000000, -1.000000000000000000 ) ) ;
#258 = AXIS2_PLACEMENT_3D ( 'NONE', #807, #1077, #836 ) ;
#259 = AXIS2_PLACEMENT_3D ( 'NONE', #283, #286, #19 ) ;
#260 = DIRECTION ( 'NONE',  ( 0.000000000000000000, 0.000000000000000000, 1.000000000000000000 ) ) ;
#261 = CARTESIAN_POINT ( 'NONE',  ( -25.98141447170574025, 0.000000000000000000, 13.97197559579316994 ) ) ;
#262 = LINE ( 'NONE', #1135, #720 ) ;
#263 = EDGE_CURVE ( 'NONE', #247, #199, #493, .T. ) ;
#264 = DIRECTION ( 'NONE',  ( 0.000000000000000000, 1.000000000000000000, -0.000000000000000000 ) ) ;
#265 = DIRECTION ( 'NONE',  ( 0.000000000000000000, 0.000000000000000000, 1.000000000000000000 ) ) ;
#266 = DIRECTION ( 'NONE',  ( 0.000000000000000000, 1.000000000000000000, -0.000000000000000000 ) ) ;
#267 = DIRECTION ( 'NONE',  ( 0.000000000000000000, 0.000000000000000000, 1.000000000000000000 ) ) ;
#268 = CARTESIAN_POINT ( 'NONE',  ( -25.98141447170574025, 3.000000000000000000, 16.97197559579316817 ) ) ;
#269 = EDGE_CURVE ( 'NONE', #726, #991, #1087, .T. ) ;
#270 = EDGE_LOOP ( 'NONE', ( #582, #545 ) ) ;
#271 = LINE ( 'NONE', #374, #289 ) ;
#272 = ORIENTED_EDGE ( 'NONE', *, *, #227, .T. ) ;
#273 = AXIS2_PLACEMENT_3D ( 'NONE', #346, #1047, #86 ) ;
#274 = DIRECTION ( 'NONE',  ( 0.000000000000000000, 1.000000000000000000, -0.000000000000000000 ) ) ;
#275 = AXIS2_PLACEMENT_3D ( 'NONE', #525, #1050, #257 ) ;
#276 = EDGE_CURVE ( 'NONE', #313, #413, #397, .T. ) ;
#277 = ORIENTED_EDGE ( 'NONE', *, *, #470, .T. ) ;
#278 = DIRECTION ( 'NONE',  ( -0.000000000000000000, 1.000000000000000000, -0.000000000000000000 ) ) ;
#279 = ORIENTED_EDGE ( 'NONE', *, *, #1160, .F. ) ;
#280 = DIRECTION ( 'NONE',  ( 0.000000000000000000, 0.000000000000000000, -1.000000000000000000 ) ) ;
#281 = EDGE_CURVE ( 'NONE', #1020, #418, #1035, .T. ) ;
#282 = ORIENTED_EDGE ( 'NONE', *, *, #227, .F. ) ;
#283 = CARTESIAN_POINT ( 'NONE',  ( -20.50000000000000355, 3.000000000000000000, -19.79898987322332715 ) ) ;
#284 = VERTEX_POINT ( 'NONE', #596 ) ;
#285 = CARTESIAN_POINT ( 'NONE',  ( -20.50000000000000355, 0.000000000000000000, -19.79898987322332715 ) ) ;
#286 = DIRECTION ( 'NONE',  ( 0.000000000000000000, 1.000000000000000000, 0.000000000000000000 ) ) ;
#287 = VECTOR ( 'NONE', #39, 1000.000000000000000 ) ;
#288 = AXIS2_PLACEMENT_3D ( 'NONE', #115, #1006, #43 ) ;
#289 = VECTOR ( 'NONE', #736, 1000.000000000000000 ) ;
#290 = ORIENTED_EDGE ( 'NONE', *, *, #1003, .F. ) ;
#291 = DIRECTION ( 'NONE',  ( 0.000000000000000000, 0.000000000000000000, 1.000000000000000000 ) ) ;
#292 = ORIENTED_EDGE ( 'NONE', *, *, #363, .F. ) ;
#293 = CARTESIAN_POINT ( 'NONE',  ( -20.50000000000000355, 3.000000000000000000, 19.79898987322332715 ) ) ;
#294 = EDGE_CURVE ( 'NONE', #1072, #216, #992, .T. ) ;
#295 = ORIENTED_EDGE ( 'NONE', *, *, #558, .T. ) ;
#296 = DIRECTION ( 'NONE',  ( -0.000000000000000000, -1.000000000000000000, -0.000000000000000000 ) ) ;
#297 = ORIENTED_EDGE ( 'NONE', *, *, #651, .T. ) ;
#298 = CARTESIAN_POINT ( 'NONE',  ( -20.50000000000000355, 3.000000000000000000, 19.79898987322332715 ) ) ;
#299 = ORIENTED_EDGE ( 'NONE', *, *, #263, .T. ) ;
#300 = DIRECTION ( 'NONE',  ( 0.000000000000000000, 0.000000000000000000, 1.000000000000000000 ) ) ;
#301 = EDGE_LOOP ( 'NONE', ( #910, #948, #896, #555 ) ) ;
#302 = FACE_OUTER_BOUND ( 'NONE', #479, .T. ) ;
#303 = DIRECTION ( 'NONE',  ( 0.000000000000000000, 1.000000000000000000, 0.000000000000000000 ) ) ;
#304 = ORIENTED_EDGE ( 'NONE', *, *, #982, .F. ) ;
#305 = AXIS2_PLACEMENT_3D ( 'NONE', #1148, #163, #788 ) ;
#306 = AXIS2_PLACEMENT_3D ( 'NONE', #462, #984, #454 ) ;
#307 = DIRECTION ( 'NONE',  ( 0.000000000000000000, 0.000000000000000000, 1.000000000000000000 ) ) ;
#308 = CIRCLE ( 'NONE', #1111, 2.150000000000002576 ) ;
#309 = AXIS2_PLACEMENT_3D ( 'NONE', #41, #394, #1106 ) ;
#310 = VERTEX_POINT ( 'NONE', #581 ) ;
#311 = CYLINDRICAL_SURFACE ( 'NONE', #590, 2.999999999999999112 ) ;
#312 = DIRECTION ( 'NONE',  ( 1.156482317317871725E-15, 0.000000000000000000, 1.000000000000000000 ) ) ;
#313 = VERTEX_POINT ( 'NONE', #678 ) ;
#314 = CARTESIAN_POINT ( 'NONE',  ( 20.50000000000000355, 0.000000000000000000, -19.79898987322332715 ) ) ;
#315 = ORIENTED_EDGE ( 'NONE', *, *, #162, .T. ) ;
#316 = CARTESIAN_POINT ( 'NONE',  ( 16.37906831720231082, 0.000000000000000000, 28.07091236601368323 ) ) ;
#317 = EDGE_CURVE ( 'NONE', #845, #679, #922, .T. ) ;
#318 = DIRECTION ( 'NONE',  ( 0.000000000000000000, 1.000000000000000000, 0.000000000000000000 ) ) ;
#319 = VERTEX_POINT ( 'NONE', #52 ) ;
#320 = VERTEX_POINT ( 'NONE', #856 ) ;
#321 = DIRECTION ( 'NONE',  ( 0.000000000000000000, 0.000000000000000000, 1.000000000000000000 ) ) ;
#322 = DIRECTION ( 'NONE',  ( 0.000000000000000000, 0.000000000000000000, 1.000000000000000000 ) ) ;
#323 = ORIENTED_EDGE ( 'NONE', *, *, #281, .T. ) ;
#324 = AXIS2_PLACEMENT_3D ( 'NONE', #350, #876, #432 ) ;
#325 = AXIS2_PLACEMENT_3D ( 'NONE', #510, #435, #343 ) ;
#326 = VERTEX_POINT ( 'NONE', #481 ) ;
#327 = CIRCLE ( 'NONE', #181, 4.999999999999997335 ) ;
#328 = CYLINDRICAL_SURFACE ( 'NONE', #1129, 32.50000000000000711 ) ;
#329 = CARTESIAN_POINT ( 'NONE',  ( 16.97947144918207840, 0.000000000000000000, -23.34946571779343572 ) ) ;
#330 = EDGE_CURVE ( 'NONE', #951, #382, #588, .T. ) ;
#331 = ORIENTED_EDGE ( 'NONE', *, *, #209, .F. ) ;
#332 = EDGE_CURVE ( 'NONE', #748, #726, #139, .T. ) ;
#333 = ORIENTED_EDGE ( 'NONE', *, *, #572, .F. ) ;
#334 = CARTESIAN_POINT ( 'NONE',  ( 5.204748896376250896E-15, 3.000000000000000000, 42.50000000000000000 ) ) ;
#335 = DIRECTION ( 'NONE',  ( -0.000000000000000000, 1.000000000000000000, -0.000000000000000000 ) ) ;
#336 = CYLINDRICAL_SURFACE ( 'NONE', #1051, 3.000000000000000888 ) ;
#337 = VERTEX_POINT ( 'NONE', #1017 ) ;
#338 = DIRECTION ( 'NONE',  ( -0.000000000000000000, 1.000000000000000000, -0.000000000000000000 ) ) ;
#339 = CARTESIAN_POINT ( 'NONE',  ( 14.86715431869131798, 0.000000000000000000, -25.47975122453550156 ) ) ;
#340 = DIRECTION ( 'NONE',  ( -0.000000000000000000, 1.000000000000000000, -0.000000000000000000 ) ) ;
#341 = EDGE_CURVE ( 'NONE', #499, #42, #1053, .T. ) ;
#342 = VECTOR ( 'NONE', #406, 1000.000000000000000 ) ;
#343 = DIRECTION ( 'NONE',  ( 0.000000000000000000, -0.000000000000000000, 1.000000000000000000 ) ) ;
#344 = CIRCLE ( 'NONE', #1149, 2.150000000000002576 ) ;
#345 = AXIS2_PLACEMENT_3D ( 'NONE', #222, #1014, #410 ) ;
#346 = CARTESIAN_POINT ( 'NONE',  ( -14.86715431869131798, 3.000000000000000000, 25.47975122453550156 ) ) ;
#347 = CARTESIAN_POINT ( 'NONE',  ( 25.98141447170574381, 0.000000000000000000, 13.97197559579316817 ) ) ;
#348 = CYLINDRICAL_SURFACE ( 'NONE', #275, 42.50000000000000000 ) ;
#349 = ADVANCED_FACE ( 'NONE', ( #619 ), #1155, .T. ) ;
#350 = CARTESIAN_POINT ( 'NONE',  ( -25.98141447170574381, 3.000000000000000000, -13.97197559579316817 ) ) ;
#351 = CARTESIAN_POINT ( 'NONE',  ( -20.50000000000000355, 0.000000000000000000, -19.79898987322332715 ) ) ;
#352 = CARTESIAN_POINT ( 'NONE',  ( -23.92588404481609388, 0.000000000000000000, -16.15710594982947867 ) ) ;
#353 = EDGE_LOOP ( 'NONE', ( #975, #1086 ) ) ;
#354 = LINE ( 'NONE', #561, #514 ) ;
#355 = DIRECTION ( 'NONE',  ( -0.000000000000000000, 1.000000000000000000, -0.000000000000000000 ) ) ;
#356 = ORIENTED_EDGE ( 'NONE', *, *, #982, .T. ) ;
#357 = DIRECTION ( 'NONE',  ( 0.000000000000000000, 0.000000000000000000, 1.000000000000000000 ) ) ;
#358 = CIRCLE ( 'NONE', #305, 32.50000000000000711 ) ;
#359 = CARTESIAN_POINT ( 'NONE',  ( 23.92588404481609032, 0.000000000000000000, 16.15710594982947867 ) ) ;
#360 = UNCERTAINTY_MEASURE_WITH_UNIT (LENGTH_MEASURE( 1.000000000000000082E-05 ), #513, 'distance_accuracy_value', 'NONE');
#361 = CIRCLE ( 'NONE', #739, 2.150000000000002576 ) ;
#362 = CARTESIAN_POINT ( 'NONE',  ( 14.86715431869131798, 3.000000000000000000, -25.47975122453550156 ) ) ;
#363 = EDGE_CURVE ( 'NONE', #42, #760, #942, .T. ) ;
#364 = CIRCLE ( 'NONE', #143, 32.50000000000000711 ) ;
#365 = AXIS2_PLACEMENT_3D ( 'NONE', #1138, #355, #83 ) ;
#366 = ORIENTED_EDGE ( 'NONE', *, *, #587, .F. ) ;
#367 = EDGE_CURVE ( 'NONE', #1126, #675, #883, .T. ) ;
#368 = CARTESIAN_POINT ( 'NONE',  ( 20.50000000000000355, 3.000000000000000000, 19.79898987322332715 ) ) ;
#369 = DIRECTION ( 'NONE',  ( -0.000000000000000000, -1.000000000000000000, -0.000000000000000000 ) ) ;
#370 = ORIENTED_EDGE ( 'NONE', *, *, #341, .F. ) ;
#371 = CARTESIAN_POINT ( 'NONE',  ( 20.50000000000000355, 0.000000000000000000, -19.79898987322332715 ) ) ;
#372 = FACE_OUTER_BOUND ( 'NONE', #647, .T. ) ;
#373 = ORIENTED_EDGE ( 'NONE', *, *, #414, .F. ) ;
#374 = CARTESIAN_POINT ( 'NONE',  ( -23.92588404481609032, 0.000000000000000000, 16.15710594982947867 ) ) ;
#375 = EDGE_CURVE ( 'NONE', #679, #54, #428, .T. ) ;
#376 = ORIENTED_EDGE ( 'NONE', *, *, #964, .F. ) ;
#377 = DIRECTION ( 'NONE',  ( -0.000000000000000000, -1.000000000000000000, -0.000000000000000000 ) ) ;
#378 = AXIS2_PLACEMENT_3D ( 'NONE', #613, #318, #486 ) ;
#379 = FACE_OUTER_BOUND ( 'NONE', #594, .T. ) ;
#380 = AXIS2_PLACEMENT_3D ( 'NONE', #467, #377, #733 ) ;
#381 = CIRCLE ( 'NONE', #403, 2.999999999999999112 ) ;
#382 = VERTEX_POINT ( 'NONE', #699 ) ;
#383 = DIRECTION ( 'NONE',  ( -0.000000000000000000, 1.000000000000000000, -0.000000000000000000 ) ) ;
#384 = ORIENTED_EDGE ( 'NONE', *, *, #657, .F. ) ;
#385 = FACE_BOUND ( 'NONE', #20, .T. ) ;
#386 = CARTESIAN_POINT ( 'NONE',  ( 20.50000000000000355, 3.000000000000000000, -19.79898987322332715 ) ) ;
#387 = VERTEX_POINT ( 'NONE', #523 ) ;
#388 = DIRECTION ( 'NONE',  ( 0.000000000000000000, 1.000000000000000000, -0.000000000000000000 ) ) ;
#389 = ORIENTED_EDGE ( 'NONE', *, *, #1028, .F. ) ;
#390 = DIRECTION ( 'NONE',  ( 0.000000000000000000, 0.000000000000000000, 1.000000000000000000 ) ) ;
#391 = CARTESIAN_POINT ( 'NONE',  ( 20.50000000000000355, 0.000000000000000000, -19.79898987322332715 ) ) ;
#392 = ADVANCED_FACE ( 'NONE', ( #973 ), #953, .F. ) ;
#393 = ORIENTED_EDGE ( 'NONE', *, *, #332, .T. ) ;
#394 = DIRECTION ( 'NONE',  ( 0.000000000000000000, 1.000000000000000000, -0.000000000000000000 ) ) ;
#395 = ORIENTED_EDGE ( 'NONE', *, *, #1105, .F. ) ;
#396 = LINE ( 'NONE', #855, #869 ) ;
#397 = LINE ( 'NONE', #770, #400 ) ;
#398 = AXIS2_PLACEMENT_3D ( 'NONE', #439, #712, #256 ) ;
#399 = ORIENTED_EDGE ( 'NONE', *, *, #580, .F. ) ;
#400 = VECTOR ( 'NONE', #586, 1000.000000000000000 ) ;
#401 = EDGE_CURVE ( 'NONE', #988, #253, #791, .T. ) ;
#402 = CYLINDRICAL_SURFACE ( 'NONE', #552, 4.999999999999997335 ) ;
#403 = AXIS2_PLACEMENT_3D ( 'NONE', #939, #844, #291 ) ;
#404 = ORIENTED_EDGE ( 'NONE', *, *, #189, .F. ) ;
#405 = FACE_BOUND ( 'NONE', #505, .T. ) ;
#406 = DIRECTION ( 'NONE',  ( -0.000000000000000000, 1.000000000000000000, -0.000000000000000000 ) ) ;
#407 = ORIENTED_EDGE ( 'NONE', *, *, #246, .T. ) ;
#408 = CYLINDRICAL_SURFACE ( 'NONE', #456, 2.150000000000002576 ) ;
#409 = ORIENTED_EDGE ( 'NONE', *, *, #535, .F. ) ;
#410 = DIRECTION ( 'NONE',  ( 0.000000000000000000, 0.000000000000000000, 1.000000000000000000 ) ) ;
#411 = DIRECTION ( 'NONE',  ( -0.000000000000000000, 1.000000000000000000, -0.000000000000000000 ) ) ;
#412 = ORIENTED_EDGE ( 'NONE', *, *, #174, .T. ) ;
#413 = VERTEX_POINT ( 'NONE', #511 ) ;
#414 = EDGE_CURVE ( 'NONE', #1126, #931, #358, .T. ) ;
#415 = CYLINDRICAL_SURFACE ( 'NONE', #995, 2.150000000000002576 ) ;
#416 = EDGE_CURVE ( 'NONE', #337, #1072, #776, .T. ) ;
#417 = DIRECTION ( 'NONE',  ( 0.000000000000000000, 0.000000000000000000, 1.000000000000000000 ) ) ;
#418 = VERTEX_POINT ( 'NONE', #965 ) ;
#419 = AXIS2_PLACEMENT_3D ( 'NONE', #943, #1029, #501 ) ;
#420 = STYLED_ITEM ( 'NONE', ( #202 ), #591 ) ;
#421 = ORIENTED_EDGE ( 'NONE', *, *, #980, .T. ) ;
#422 = DIRECTION ( 'NONE',  ( -0.000000000000000000, 1.000000000000000000, -0.000000000000000000 ) ) ;
#423 = AXIS2_PLACEMENT_3D ( 'NONE', #149, #430, #593 ) ;
#424 = CARTESIAN_POINT ( 'NONE',  ( 23.92588404481609032, 3.000000000000000000, 16.15710594982947867 ) ) ;
#425 = CARTESIAN_POINT ( 'NONE',  ( 16.97947144918207840, 3.000000000000000000, 23.34946571779343572 ) ) ;
#426 = ORIENTED_EDGE ( 'NONE', *, *, #1084, .T. ) ;
#427 = PLANE ( 'NONE',  #325 ) ;
#428 = LINE ( 'NONE', #689, #1128 ) ;
#429 = CARTESIAN_POINT ( 'NONE',  ( -16.37906831720230372, 0.000000000000000000, 28.07091236601369744 ) ) ;
#430 = DIRECTION ( 'NONE',  ( 0.000000000000000000, 0.000000000000000000, 1.000000000000000000 ) ) ;
#431 = DIRECTION ( 'NONE',  ( -0.000000000000000000, 1.000000000000000000, -0.000000000000000000 ) ) ;
#432 = DIRECTION ( 'NONE',  ( 0.000000000000000000, 0.000000000000000000, 1.000000000000000000 ) ) ;
#433 = CYLINDRICAL_SURFACE ( 'NONE', #46, 3.000000000000000888 ) ;
#434 = EDGE_CURVE ( 'NONE', #631, #387, #532, .T. ) ;
#435 = DIRECTION ( 'NONE',  ( 0.000000000000000000, 1.000000000000000000, 0.000000000000000000 ) ) ;
#436 = VECTOR ( 'NONE', #768, 1000.000000000000000 ) ;
#437 = CARTESIAN_POINT ( 'NONE',  ( 20.50000000000000355, 3.000000000000000000, 17.64898987322332502 ) ) ;
#438 = CIRCLE ( 'NONE', #145, 2.150000000000002576 ) ;
#439 = CARTESIAN_POINT ( 'NONE',  ( 25.98141447170574025, 0.000000000000000000, -13.97197559579317350 ) ) ;
#440 = LINE ( 'NONE', #201, #1131 ) ;
#441 = ORIENTED_EDGE ( 'NONE', *, *, #503, .T. ) ;
#442 = DIRECTION ( 'NONE',  ( 0.000000000000000000, 1.000000000000000000, -0.000000000000000000 ) ) ;
#443 = FACE_OUTER_BOUND ( 'NONE', #1120, .T. ) ;
#444 = VERTEX_POINT ( 'NONE', #329 ) ;
#445 = DIRECTION ( 'NONE',  ( 0.000000000000000000, 1.000000000000000000, -0.000000000000000000 ) ) ;
#446 = ADVANCED_FACE ( 'NONE', ( #1059 ), #605, .F. ) ;
#447 = EDGE_LOOP ( 'NONE', ( #603, #482 ) ) ;
#448 = CYLINDRICAL_SURFACE ( 'NONE', #1034, 2.150000000000002576 ) ;
#449 = EDGE_CURVE ( 'NONE', #888, #1065, #1107, .T. ) ;
#450 = CARTESIAN_POINT ( 'NONE',  ( 0.000000000000000000, 0.000000000000000000, 0.000000000000000000 ) ) ;
#451 = ORIENTED_EDGE ( 'NONE', *, *, #852, .F. ) ;
#452 = CARTESIAN_POINT ( 'NONE',  ( -16.97947144918207485, 0.000000000000000000, 23.34946571779343572 ) ) ;
#453 = CIRCLE ( 'NONE', #196, 5.000000000000000888 ) ;
#454 = DIRECTION ( 'NONE',  ( 0.000000000000000000, 0.000000000000000000, 1.000000000000000000 ) ) ;
#455 = AXIS2_PLACEMENT_3D ( 'NONE', #255, #520, #775 ) ;
#456 = AXIS2_PLACEMENT_3D ( 'NONE', #999, #478, #674 ) ;
#457 = CIRCLE ( 'NONE', #1112, 2.150000000000002576 ) ;
#458 = EDGE_CURVE ( 'NONE', #337, #627, #1011, .T. ) ;
#459 = EDGE_LOOP ( 'NONE', ( #23, #534, #1043, #299, #451, #565, #861, #578, #680, #1018, #815, #134, #240, #62, #541, #509, #891, #940, #854, #210, #66 ) ) ;
#460 = DIRECTION ( 'NONE',  ( 0.000000000000000000, 1.000000000000000000, 0.000000000000000000 ) ) ;
#461 = EDGE_LOOP ( 'NONE', ( #490, #938, #508, #279 ) ) ;
#462 = CARTESIAN_POINT ( 'NONE',  ( 0.000000000000000000, 0.000000000000000000, 0.000000000000000000 ) ) ;
#463 = EDGE_CURVE ( 'NONE', #187, #808, #161, .T. ) ;
#464 = ORIENTED_EDGE ( 'NONE', *, *, #971, .T. ) ;
#465 = DIRECTION ( 'NONE',  ( -0.000000000000000000, -1.000000000000000000, -0.000000000000000000 ) ) ;
#466 = ORIENTED_EDGE ( 'NONE', *, *, #294, .T. ) ;
#467 = CARTESIAN_POINT ( 'NONE',  ( -20.50000000000000355, 3.000000000000000000, 19.79898987322332715 ) ) ;
#468 = ORIENTED_EDGE ( 'NONE', *, *, #632, .F. ) ;
#469 = DIRECTION ( 'NONE',  ( 0.000000000000000000, 0.000000000000000000, 1.000000000000000000 ) ) ;
#470 = EDGE_CURVE ( 'NONE', #658, #685, #778, .T. ) ;
#471 = ORIENTED_EDGE ( 'NONE', *, *, #263, .F. ) ;
#472 = DIRECTION ( 'NONE',  ( 0.000000000000000000, 0.000000000000000000, 1.000000000000000000 ) ) ;
#473 = VECTOR ( 'NONE', #1063, 1000.000000000000000 ) ;
#474 = VECTOR ( 'NONE', #796, 1000.000000000000000 ) ;
#475 = AXIS2_PLACEMENT_3D ( 'NONE', #94, #465, #176 ) ;
#476 = AXIS2_PLACEMENT_3D ( 'NONE', #261, #802, #180 ) ;
#477 = ORIENTED_EDGE ( 'NONE', *, *, #900, .F. ) ;
#478 = DIRECTION ( 'NONE',  ( -0.000000000000000000, -1.000000000000000000, -0.000000000000000000 ) ) ;
#479 = EDGE_LOOP ( 'NONE', ( #923, #272, #26, #1101 ) ) ;
#480 = CARTESIAN_POINT ( 'NONE',  ( 20.50000000000000355, 3.000000000000000000, -19.79898987322332715 ) ) ;
#481 = CARTESIAN_POINT ( 'NONE',  ( 0.000000000000000000, 0.000000000000000000, 32.50000000000000711 ) ) ;
#482 = ORIENTED_EDGE ( 'NONE', *, *, #99, .T. ) ;
#483 = DIRECTION ( 'NONE',  ( 0.000000000000000000, 0.000000000000000000, 1.000000000000000000 ) ) ;
#484 = VERTEX_POINT ( 'NONE', #172 ) ;
#485 = FACE_BOUND ( 'NONE', #459, .T. ) ;
#486 = DIRECTION ( 'NONE',  ( 0.000000000000000000, 0.000000000000000000, 1.000000000000000000 ) ) ;
#487 = EDGE_CURVE ( 'NONE', #803, #777, #811, .T. ) ;
#488 = ORIENTED_EDGE ( 'NONE', *, *, #120, .F. ) ;
#489 = CARTESIAN_POINT ( 'NONE',  ( -20.50000000000000355, 3.000000000000000000, 19.79898987322332715 ) ) ;
#490 = ORIENTED_EDGE ( 'NONE', *, *, #503, .F. ) ;
#491 = CARTESIAN_POINT ( 'NONE',  ( -20.50000000000000355, 0.000000000000000000, -14.79898987322332538 ) ) ;
#492 = DIRECTION ( 'NONE',  ( 0.000000000000000000, 1.000000000000000000, -0.000000000000000000 ) ) ;
#493 = CIRCLE ( 'NONE', #642, 2.999999999999999112 ) ;
#494 = VERTEX_POINT ( 'NONE', #526 ) ;
#495 = AXIS2_PLACEMENT_3D ( 'NONE', #1085, #805, #190 ) ;
#496 = VECTOR ( 'NONE', #1142, 1000.000000000000000 ) ;
#497 = FACE_OUTER_BOUND ( 'NONE', #750, .T. ) ;
#498 = VECTOR ( 'NONE', #21, 1000.000000000000000 ) ;
#499 = VERTEX_POINT ( 'NONE', #424 ) ;
#500 = DIRECTION ( 'NONE',  ( 0.000000000000000000, 1.000000000000000000, 0.000000000000000000 ) ) ;
#501 = DIRECTION ( 'NONE',  ( 0.000000000000000000, 0.000000000000000000, 1.000000000000000000 ) ) ;
#502 = ORIENTED_EDGE ( 'NONE', *, *, #246, .F. ) ;
#503 = EDGE_CURVE ( 'NONE', #888, #382, #881, .T. ) ;
#504 = EDGE_CURVE ( 'NONE', #319, #908, #71, .T. ) ;
#505 = EDGE_LOOP ( 'NONE', ( #671, #1024 ) ) ;
#506 = CARTESIAN_POINT ( 'NONE',  ( 25.98141447170574381, 0.000000000000000000, 16.97197559579316817 ) ) ;
#507 = CARTESIAN_POINT ( 'NONE',  ( 0.000000000000000000, 0.000000000000000000, 32.50000000000000711 ) ) ;
#508 = ORIENTED_EDGE ( 'NONE', *, *, #251, .T. ) ;
#509 = ORIENTED_EDGE ( 'NONE', *, *, #949, .F. ) ;
#510 = CARTESIAN_POINT ( 'NONE',  ( 0.000000000000000000, 3.000000000000000000, 0.000000000000000000 ) ) ;
#511 = CARTESIAN_POINT ( 'NONE',  ( -20.50000000000000355, 0.000000000000000000, 17.64898987322332502 ) ) ;
#512 = DIRECTION ( 'NONE',  ( 0.000000000000000000, 1.000000000000000000, 0.000000000000000000 ) ) ;
#513 =( LENGTH_UNIT ( ) NAMED_UNIT ( * ) SI_UNIT ( .MILLI., .METRE. ) );
#514 = VECTOR ( 'NONE', #98, 1000.000000000000000 ) ;
#515 = ORIENTED_EDGE ( 'NONE', *, *, #330, .T. ) ;
#516 = CIRCLE ( 'NONE', #1152, 2.150000000000002576 ) ;
#517 = AXIS2_PLACEMENT_3D ( 'NONE', #606, #533, #88 ) ;
#518 = FACE_OUTER_BOUND ( 'NONE', #998, .T. ) ;
#519 = EDGE_CURVE ( 'NONE', #991, #247, #354, .T. ) ;
#520 = DIRECTION ( 'NONE',  ( -0.000000000000000000, -1.000000000000000000, -0.000000000000000000 ) ) ;
#521 = FACE_OUTER_BOUND ( 'NONE', #946, .T. ) ;
#522 = CARTESIAN_POINT ( 'NONE',  ( -20.50000000000000355, 3.000000000000000000, -14.79898987322332538 ) ) ;
#523 = CARTESIAN_POINT ( 'NONE',  ( 20.50000000000000355, 0.000000000000000000, 21.94898987322332928 ) ) ;
#524 = DIRECTION ( 'NONE',  ( 0.000000000000000000, 0.000000000000000000, 1.000000000000000000 ) ) ;
#525 = CARTESIAN_POINT ( 'NONE',  ( 0.000000000000000000, 3.000000000000000000, 0.000000000000000000 ) ) ;
#526 = CARTESIAN_POINT ( 'NONE',  ( 28.62359221459106706, 0.000000000000000000, -15.39285446994162854 ) ) ;
#527 = DIRECTION ( 'NONE',  ( -0.000000000000000000, 1.000000000000000000, -0.000000000000000000 ) ) ;
#528 = AXIS2_PLACEMENT_3D ( 'NONE', #173, #527, #882 ) ;
#529 = FACE_OUTER_BOUND ( 'NONE', #18, .T. ) ;
#530 = VECTOR ( 'NONE', #214, 1000.000000000000000 ) ;
#531 = CIRCLE ( 'NONE', #475, 2.999999999999999112 ) ;
#532 = LINE ( 'NONE', #873, #1070 ) ;
#533 = DIRECTION ( 'NONE',  ( -0.000000000000000000, -1.000000000000000000, -0.000000000000000000 ) ) ;
#534 = ORIENTED_EDGE ( 'NONE', *, *, #1049, .T. ) ;
#535 = EDGE_CURVE ( 'NONE', #576, #499, #666, .T. ) ;
#536 = CARTESIAN_POINT ( 'NONE',  ( 20.50000000000000355, 0.000000000000000000, 19.79898987322332715 ) ) ;
#537 = EDGE_CURVE ( 'NONE', #1020, #247, #1013, .T. ) ;
#538 = ORIENTED_EDGE ( 'NONE', *, *, #251, .F. ) ;
#539 =( NAMED_UNIT ( * ) PLANE_ANGLE_UNIT ( ) SI_UNIT ( $, .RADIAN. ) );
#540 = DIRECTION ( 'NONE',  ( 0.000000000000000000, 0.000000000000000000, 1.000000000000000000 ) ) ;
#541 = ORIENTED_EDGE ( 'NONE', *, *, #657, .T. ) ;
#542 = LINE ( 'NONE', #981, #1090 ) ;
#543 = DIRECTION ( 'NONE',  ( -0.000000000000000000, 1.000000000000000000, -0.000000000000000000 ) ) ;
#544 = CARTESIAN_POINT ( 'NONE',  ( 0.000000000000000000, 3.000000000000000000, -42.50000000000000000 ) ) ;
#545 = ORIENTED_EDGE ( 'NONE', *, *, #863, .F. ) ;
#546 = CARTESIAN_POINT ( 'NONE',  ( 23.92588404481609032, 0.000000000000000000, 16.15710594982947867 ) ) ;
#547 = AXIS2_PLACEMENT_3D ( 'NONE', #936, #492, #665 ) ;
#548 = FACE_OUTER_BOUND ( 'NONE', #979, .T. ) ;
#549 = CIRCLE ( 'NONE', #495, 32.50000000000000711 ) ;
#550 = DIRECTION ( 'NONE',  ( 0.000000000000000000, 0.000000000000000000, 1.000000000000000000 ) ) ;
#551 = AXIS2_PLACEMENT_3D ( 'NONE', #872, #947, #604 ) ;
#552 = AXIS2_PLACEMENT_3D ( 'NONE', #29, #383, #300 ) ;
#553 = VERTEX_POINT ( 'NONE', #1081 ) ;
#554 = CARTESIAN_POINT ( 'NONE',  ( -20.50000000000000355, 3.000000000000000000, -21.94898987322332928 ) ) ;
#555 = ORIENTED_EDGE ( 'NONE', *, *, #175, .T. ) ;
#556 = DIRECTION ( 'NONE',  ( 0.000000000000000000, 0.000000000000000000, -1.000000000000000000 ) ) ;
#557 = ORIENTED_EDGE ( 'NONE', *, *, #806, .T. ) ;
#558 = EDGE_CURVE ( 'NONE', #231, #658, #643, .T. ) ;
#559 = CARTESIAN_POINT ( 'NONE',  ( -16.97947144918207485, 3.000000000000000000, 23.34946571779343572 ) ) ;
#560 = ORIENTED_EDGE ( 'NONE', *, *, #1123, .T. ) ;
#561 = CARTESIAN_POINT ( 'NONE',  ( -16.37906831720230372, 0.000000000000000000, -28.07091236601368678 ) ) ;
#562 = CARTESIAN_POINT ( 'NONE',  ( 0.000000000000000000, 0.000000000000000000, 0.000000000000000000 ) ) ;
#563 = ORIENTED_EDGE ( 'NONE', *, *, #1105, .T. ) ;
#564 = FACE_OUTER_BOUND ( 'NONE', #34, .T. ) ;
#565 = ORIENTED_EDGE ( 'NONE', *, *, #795, .F. ) ;
#566 = DIRECTION ( 'NONE',  ( 0.000000000000000000, 1.000000000000000000, 0.000000000000000000 ) ) ;
#567 = DIRECTION ( 'NONE',  ( -0.000000000000000000, -1.000000000000000000, -0.000000000000000000 ) ) ;
#568 = AXIS2_PLACEMENT_3D ( 'NONE', #969, #889, #417 ) ;
#569 = VECTOR ( 'NONE', #976, 1000.000000000000000 ) ;
#570 = ORIENTED_EDGE ( 'NONE', *, *, #980, .F. ) ;
#571 = CARTESIAN_POINT ( 'NONE',  ( 20.50000000000000355, 0.000000000000000000, -19.79898987322332715 ) ) ;
#572 = EDGE_CURVE ( 'NONE', #767, #494, #686, .T. ) ;
#573 = ORIENTED_EDGE ( 'NONE', *, *, #964, .T. ) ;
#574 = CARTESIAN_POINT ( 'NONE',  ( -14.86715431869131798, 0.000000000000000000, 25.47975122453550156 ) ) ;
#575 = CARTESIAN_POINT ( 'NONE',  ( 20.50000000000000355, 0.000000000000000000, 17.64898987322332502 ) ) ;
#576 = VERTEX_POINT ( 'NONE', #644 ) ;
#577 = DIRECTION ( 'NONE',  ( 0.000000000000000000, 1.000000000000000000, 0.000000000000000000 ) ) ;
#578 = ORIENTED_EDGE ( 'NONE', *, *, #195, .T. ) ;
#579 = DIRECTION ( 'NONE',  ( 0.000000000000000000, 1.000000000000000000, 0.000000000000000000 ) ) ;
#580 = EDGE_CURVE ( 'NONE', #499, #1002, #715, .T. ) ;
#581 = CARTESIAN_POINT ( 'NONE',  ( 28.62359221459107061, 3.000000000000000000, 15.39285446994162321 ) ) ;
#582 = ORIENTED_EDGE ( 'NONE', *, *, #1039, .F. ) ;
#583 = DIRECTION ( 'NONE',  ( 0.000000000000000000, 1.000000000000000000, 0.000000000000000000 ) ) ;
#584 = ORIENTED_EDGE ( 'NONE', *, *, #112, .F. ) ;
#585 = FACE_BOUND ( 'NONE', #634, .T. ) ;
#586 = DIRECTION ( 'NONE',  ( -0.000000000000000000, -1.000000000000000000, -0.000000000000000000 ) ) ;
#587 = EDGE_CURVE ( 'NONE', #187, #122, #6, .T. ) ;
#588 = CIRCLE ( 'NONE', #85, 2.150000000000002576 ) ;
#589 = EDGE_LOOP ( 'NONE', ( #515, #898 ) ) ;
#590 = AXIS2_PLACEMENT_3D ( 'NONE', #574, #930, #321 ) ;
#591 = MANIFOLD_SOLID_BREP ( '\X2\9762306e79fb52d5\X0\2', #722 ) ;
#592 = AXIS2_PLACEMENT_3D ( 'NONE', #105, #460, #1095 ) ;
#593 = DIRECTION ( 'NONE',  ( 1.000000000000000000, 0.000000000000000000, 0.000000000000000000 ) ) ;
#594 = EDGE_LOOP ( 'NONE', ( #154, #441, #732, #538 ) ) ;
#595 = CARTESIAN_POINT ( 'NONE',  ( -20.50000000000000355, 0.000000000000000000, -19.79898987322332715 ) ) ;
#596 = CARTESIAN_POINT ( 'NONE',  ( -28.62359221459107061, 0.000000000000000000, -15.39285446994162321 ) ) ;
#597 = ORIENTED_EDGE ( 'NONE', *, *, #416, .F. ) ;
#598 = ORIENTED_EDGE ( 'NONE', *, *, #747, .F. ) ;
#599 = DIRECTION ( 'NONE',  ( 0.000000000000000000, 0.000000000000000000, 1.000000000000000000 ) ) ;
#600 = DIRECTION ( 'NONE',  ( 0.000000000000000000, 1.000000000000000000, 0.000000000000000000 ) ) ;
#601 = CARTESIAN_POINT ( 'NONE',  ( -25.98141447170574381, 0.000000000000000000, -13.97197559579316817 ) ) ;
#602 = ADVANCED_FACE ( 'NONE', ( #728 ), #448, .F. ) ;
#603 = ORIENTED_EDGE ( 'NONE', *, *, #124, .T. ) ;
#604 = DIRECTION ( 'NONE',  ( 0.000000000000000000, 0.000000000000000000, 1.000000000000000000 ) ) ;
#605 = CYLINDRICAL_SURFACE ( 'NONE', #69, 3.000000000000000888 ) ;
#606 = CARTESIAN_POINT ( 'NONE',  ( -25.98141447170574025, 3.000000000000000000, 13.97197559579316994 ) ) ;
#607 = DIRECTION ( 'NONE',  ( 0.000000000000000000, 1.000000000000000000, 0.000000000000000000 ) ) ;
#608 = CIRCLE ( 'NONE', #198, 42.50000000000000000 ) ;
#609 = CIRCLE ( 'NONE', #103, 4.999999999999997335 ) ;
#610 = CARTESIAN_POINT ( 'NONE',  ( 5.204748896376250896E-15, 3.000000000000000000, 42.50000000000000000 ) ) ;
#611 = EDGE_CURVE ( 'NONE', #326, #786, #549, .T. ) ;
#612 = DIRECTION ( 'NONE',  ( -1.156482317317871725E-15, 0.000000000000000000, 1.000000000000000000 ) ) ;
#613 = CARTESIAN_POINT ( 'NONE',  ( -20.50000000000000355, 0.000000000000000000, 19.79898987322332715 ) ) ;
#614 = FACE_OUTER_BOUND ( 'NONE', #16, .T. ) ;
#615 = DIRECTION ( 'NONE',  ( 0.000000000000000000, 0.000000000000000000, 1.000000000000000000 ) ) ;
#616 = FACE_OUTER_BOUND ( 'NONE', #191, .T. ) ;
#617 = CARTESIAN_POINT ( 'NONE',  ( 0.000000000000000000, 0.000000000000000000, 0.000000000000000000 ) ) ;
#618 = ORIENTED_EDGE ( 'NONE', *, *, #761, .F. ) ;
#619 = FACE_OUTER_BOUND ( 'NONE', #843, .T. ) ;
#620 = DIRECTION ( 'NONE',  ( 0.000000000000000000, 0.000000000000000000, -1.000000000000000000 ) ) ;
#621 = ADVANCED_FACE ( 'NONE', ( #372 ), #818, .F. ) ;
#622 = ORIENTED_EDGE ( 'NONE', *, *, #1049, .F. ) ;
#623 = ADVANCED_FACE ( 'NONE', ( #548 ), #24, .F. ) ;
#624 = LINE ( 'NONE', #633, #569 ) ;
#625 = AXIS2_PLACEMENT_3D ( 'NONE', #801, #1159, #628 ) ;
#626 = CIRCLE ( 'NONE', #885, 2.150000000000002576 ) ;
#627 = VERTEX_POINT ( 'NONE', #907 ) ;
#628 = DIRECTION ( 'NONE',  ( 0.000000000000000000, 0.000000000000000000, 1.000000000000000000 ) ) ;
#629 = CIRCLE ( 'NONE', #309, 32.50000000000000711 ) ;
#630 = LINE ( 'NONE', #208, #1147 ) ;
#631 = VERTEX_POINT ( 'NONE', #1102 ) ;
#632 = EDGE_CURVE ( 'NONE', #760, #786, #756, .T. ) ;
#633 = CARTESIAN_POINT ( 'NONE',  ( 16.97947144918207840, 0.000000000000000000, 23.34946571779343572 ) ) ;
#634 = EDGE_LOOP ( 'NONE', ( #389, #669 ) ) ;
#635 = ORIENTED_EDGE ( 'NONE', *, *, #519, .T. ) ;
#636 = CYLINDRICAL_SURFACE ( 'NONE', #241, 32.50000000000000711 ) ;
#637 = ADVANCED_FACE ( 'NONE', ( #302 ), #1110, .F. ) ;
#638 = VERTEX_POINT ( 'NONE', #672 ) ;
#639 = CARTESIAN_POINT ( 'NONE',  ( 25.98141447170574381, 3.000000000000000000, 13.97197559579316817 ) ) ;
#640 = ORIENTED_EDGE ( 'NONE', *, *, #236, .F. ) ;
#641 = FACE_OUTER_BOUND ( 'NONE', #183, .T. ) ;
#642 = AXIS2_PLACEMENT_3D ( 'NONE', #841, #59, #235 ) ;
#643 = CIRCLE ( 'NONE', #179, 4.999999999999997335 ) ;
#644 = CARTESIAN_POINT ( 'NONE',  ( 25.98141447170574381, 3.000000000000000000, 16.97197559579316817 ) ) ;
#645 = EDGE_CURVE ( 'NONE', #12, #122, #608, .T. ) ;
#646 = AXIS2_PLACEMENT_3D ( 'NONE', #670, #1019, #225 ) ;
#647 = EDGE_LOOP ( 'NONE', ( #471, #1067, #245, #817 ) ) ;
#648 = DIRECTION ( 'NONE',  ( 0.000000000000000000, 1.000000000000000000, 0.000000000000000000 ) ) ;
#649 = ORIENTED_EDGE ( 'NONE', *, *, #375, .F. ) ;
#650 = DIRECTION ( 'NONE',  ( -0.000000000000000000, -1.000000000000000000, -0.000000000000000000 ) ) ;
#651 = EDGE_CURVE ( 'NONE', #313, #226, #344, .T. ) ;
#652 = ORIENTED_EDGE ( 'NONE', *, *, #137, .F. ) ;
#653 = DIRECTION ( 'NONE',  ( 0.000000000000000000, 0.000000000000000000, 1.000000000000000000 ) ) ;
#654 = ORIENTED_EDGE ( 'NONE', *, *, #120, .T. ) ;
#655 = CYLINDRICAL_SURFACE ( 'NONE', #884, 32.50000000000000711 ) ;
#656 = CARTESIAN_POINT ( 'NONE',  ( 20.50000000000000355, 3.000000000000000000, -19.79898987322332715 ) ) ;
#657 = EDGE_CURVE ( 'NONE', #786, #221, #1109, .T. ) ;
#658 = VERTEX_POINT ( 'NONE', #677 ) ;
#659 = EDGE_CURVE ( 'NONE', #931, #845, #396, .T. ) ;
#660 = CARTESIAN_POINT ( 'NONE',  ( -20.50000000000000355, 3.000000000000000000, -19.79898987322332715 ) ) ;
#661 = EDGE_LOOP ( 'NONE', ( #622, #106, #404, #687 ) ) ;
#662 = FACE_OUTER_BOUND ( 'NONE', #1012, .T. ) ;
#663 = AXIS2_PLACEMENT_3D ( 'NONE', #347, #1060, #265 ) ;
#664 = AXIS2_PLACEMENT_3D ( 'NONE', #136, #925, #758 ) ;
#665 = DIRECTION ( 'NONE',  ( 0.000000000000000000, 0.000000000000000000, 1.000000000000000000 ) ) ;
#666 = CIRCLE ( 'NONE', #141, 3.000000000000000888 ) ;
#667 = CIRCLE ( 'NONE', #164, 32.50000000000000711 ) ;
#668 = AXIS2_PLACEMENT_3D ( 'NONE', #601, #166, #157 ) ;
#669 = ORIENTED_EDGE ( 'NONE', *, *, #504, .F. ) ;
#670 = CARTESIAN_POINT ( 'NONE',  ( -25.98141447170574025, 0.000000000000000000, 13.97197559579316994 ) ) ;
#671 = ORIENTED_EDGE ( 'NONE', *, *, #676, .F. ) ;
#672 = CARTESIAN_POINT ( 'NONE',  ( -20.50000000000000355, 0.000000000000000000, -14.79898987322332538 ) ) ;
#673 = ORIENTED_EDGE ( 'NONE', *, *, #800, .T. ) ;
#674 = DIRECTION ( 'NONE',  ( 0.000000000000000000, 0.000000000000000000, -1.000000000000000000 ) ) ;
#675 = VERTEX_POINT ( 'NONE', #918 ) ;
#676 = EDGE_CURVE ( 'NONE', #1065, #888, #361, .T. ) ;
#677 = CARTESIAN_POINT ( 'NONE',  ( 23.92588404481609032, 3.000000000000000000, -16.15710594982947867 ) ) ;
#678 = CARTESIAN_POINT ( 'NONE',  ( -20.50000000000000355, 3.000000000000000000, 17.64898987322332502 ) ) ;
#679 = VERTEX_POINT ( 'NONE', #829 ) ;
#680 = ORIENTED_EDGE ( 'NONE', *, *, #317, .T. ) ;
#681 = FACE_BOUND ( 'NONE', #142, .T. ) ;
#682 = LINE ( 'NONE', #765, #684 ) ;
#683 = ADVANCED_FACE ( 'NONE', ( #662 ), #311, .F. ) ;
#684 = VECTOR ( 'NONE', #223, 1000.000000000000000 ) ;
#685 = VERTEX_POINT ( 'NONE', #1021 ) ;
#686 = CIRCLE ( 'NONE', #625, 32.50000000000000711 ) ;
#687 = ORIENTED_EDGE ( 'NONE', *, *, #281, .F. ) ;
#688 = CARTESIAN_POINT ( 'NONE',  ( -16.97947144918207485, 0.000000000000000000, 23.34946571779343572 ) ) ;
#689 = CARTESIAN_POINT ( 'NONE',  ( -25.98141447170574025, 0.000000000000000000, 16.97197559579316817 ) ) ;
#690 = ORIENTED_EDGE ( 'NONE', *, *, #416, .T. ) ;
#691 =( NAMED_UNIT ( * ) SI_UNIT ( $, .STERADIAN. ) SOLID_ANGLE_UNIT ( ) );
#692 = ORIENTED_EDGE ( 'NONE', *, *, #89, .F. ) ;
#693 = CYLINDRICAL_SURFACE ( 'NONE', #944, 2.150000000000002576 ) ;
#694 = DIRECTION ( 'NONE',  ( 0.000000000000000000, 0.000000000000000000, 1.000000000000000000 ) ) ;
#695 = DIRECTION ( 'NONE',  ( -0.000000000000000000, 1.000000000000000000, -0.000000000000000000 ) ) ;
#696 = EDGE_CURVE ( 'NONE', #226, #553, #1027, .T. ) ;
#697 = ORIENTED_EDGE ( 'NONE', *, *, #124, .F. ) ;
#698 = DIRECTION ( 'NONE',  ( -0.000000000000000000, -1.000000000000000000, -0.000000000000000000 ) ) ;
#699 = CARTESIAN_POINT ( 'NONE',  ( 20.50000000000000355, 0.000000000000000000, -17.64898987322332502 ) ) ;
#700 = CARTESIAN_POINT ( 'NONE',  ( 25.98141447170574381, 0.000000000000000000, 13.97197559579316817 ) ) ;
#701 = CIRCLE ( 'NONE', #197, 2.999999999999999112 ) ;
#702 = AXIS2_PLACEMENT_3D ( 'NONE', #194, #543, #109 ) ;
#703 = CIRCLE ( 'NONE', #870, 5.000000000000000888 ) ;
#704 = CARTESIAN_POINT ( 'NONE',  ( 20.50000000000000355, 0.000000000000000000, -14.79898987322332893 ) ) ;
#705 = ADVANCED_FACE ( 'NONE', ( #681, #228, #242, #385, #130, #485 ), #840, .F. ) ;
#706 = DIRECTION ( 'NONE',  ( -0.000000000000000000, -1.000000000000000000, -0.000000000000000000 ) ) ;
#707 = CYLINDRICAL_SURFACE ( 'NONE', #398, 2.999999999999999112 ) ;
#708 = CARTESIAN_POINT ( 'NONE',  ( -20.50000000000000355, 0.000000000000000000, -19.79898987322332715 ) ) ;
#709 = EDGE_CURVE ( 'NONE', #808, #187, #87, .T. ) ;
#710 = CARTESIAN_POINT ( 'NONE',  ( 14.86715431869132686, 3.000000000000000000, 25.47975122453549801 ) ) ;
#711 = ADVANCED_FACE ( 'NONE', ( #934 ), #655, .F. ) ;
#712 = DIRECTION ( 'NONE',  ( -0.000000000000000000, 1.000000000000000000, -0.000000000000000000 ) ) ;
#713 = CYLINDRICAL_SURFACE ( 'NONE', #1036, 2.999999999999999112 ) ;
#714 = ORIENTED_EDGE ( 'NONE', *, *, #195, .F. ) ;
#715 = LINE ( 'NONE', #359, #101 ) ;
#716 = CARTESIAN_POINT ( 'NONE',  ( 25.98141447170574381, 0.000000000000000000, 13.97197559579316817 ) ) ;
#717 = ORIENTED_EDGE ( 'NONE', *, *, #1145, .F. ) ;
#718 = AXIS2_PLACEMENT_3D ( 'NONE', #156, #797, #178 ) ;
#719 = DIRECTION ( 'NONE',  ( -0.000000000000000000, 1.000000000000000000, -0.000000000000000000 ) ) ;
#720 = VECTOR ( 'NONE', #698, 1000.000000000000000 ) ;
#721 = AXIS2_PLACEMENT_3D ( 'NONE', #212, #56, #307 ) ;
#722 = CLOSED_SHELL ( 'NONE', ( #64, #55, #913, #637, #211, #1058, #184, #997, #623, #785, #731, #705, #80, #602, #825, #842, #1009, #1121, #937, #349, #745, #783, #711, #148, #22, #15, #38, #1022, #683, #915, #621, #392, #446 ) ) ;
#723 = ORIENTED_EDGE ( 'NONE', *, *, #363, .T. ) ;
#724 = DIRECTION ( 'NONE',  ( 0.000000000000000000, 0.000000000000000000, 1.000000000000000000 ) ) ;
#725 = EDGE_CURVE ( 'NONE', #638, #748, #751, .T. ) ;
#726 = VERTEX_POINT ( 'NONE', #1117 ) ;
#727 = DIRECTION ( 'NONE',  ( -0.000000000000000000, -1.000000000000000000, -0.000000000000000000 ) ) ;
#728 = FACE_OUTER_BOUND ( 'NONE', #945, .T. ) ;
#729 = ORIENTED_EDGE ( 'NONE', *, *, #414, .T. ) ;
#730 = CARTESIAN_POINT ( 'NONE',  ( 20.50000000000000355, 3.000000000000000000, -17.64898987322332502 ) ) ;
#731 = ADVANCED_FACE ( 'NONE', ( #405, #1032, #764, #234, #585, #1146 ), #427, .T. ) ;
#732 = ORIENTED_EDGE ( 'NONE', *, *, #330, .F. ) ;
#733 = DIRECTION ( 'NONE',  ( 0.000000000000000000, 0.000000000000000000, -1.000000000000000000 ) ) ;
#734 = CYLINDRICAL_SURFACE ( 'NONE', #160, 2.150000000000002576 ) ;
#735 = ORIENTED_EDGE ( 'NONE', *, *, #269, .T. ) ;
#736 = DIRECTION ( 'NONE',  ( -0.000000000000000000, 1.000000000000000000, -0.000000000000000000 ) ) ;
#737 = AXIS2_PLACEMENT_3D ( 'NONE', #1130, #1052, #260 ) ;
#738 = ORIENTED_EDGE ( 'NONE', *, *, #175, .F. ) ;
#739 = AXIS2_PLACEMENT_3D ( 'NONE', #480, #566, #1122 ) ;
#740 = AXIS2_PLACEMENT_3D ( 'NONE', #155, #952, #1046 ) ;
#741 = ORIENTED_EDGE ( 'NONE', *, *, #317, .F. ) ;
#742 = DIRECTION ( 'NONE',  ( 0.000000000000000000, 0.000000000000000000, -1.000000000000000000 ) ) ;
#743 = ORIENTED_EDGE ( 'NONE', *, *, #470, .F. ) ;
#744 = CARTESIAN_POINT ( 'NONE',  ( 0.000000000000000000, 3.000000000000000000, 0.000000000000000000 ) ) ;
#745 = ADVANCED_FACE ( 'NONE', ( #518 ), #328, .F. ) ;
#746 = CARTESIAN_POINT ( 'NONE',  ( -23.92588404481609032, 3.000000000000000000, 16.15710594982947867 ) ) ;
#747 = EDGE_CURVE ( 'NONE', #767, #310, #787, .T. ) ;
#748 = VERTEX_POINT ( 'NONE', #522 ) ;
#749 = DIRECTION ( 'NONE',  ( 0.000000000000000000, 0.000000000000000000, 1.000000000000000000 ) ) ;
#750 = EDGE_LOOP ( 'NONE', ( #384, #468, #292, #570 ) ) ;
#751 = LINE ( 'NONE', #491, #28 ) ;
#752 = CARTESIAN_POINT ( 'NONE',  ( 20.50000000000000355, 3.000000000000000000, -14.79898987322332893 ) ) ;
#753 = ORIENTED_EDGE ( 'NONE', *, *, #696, .F. ) ;
#754 = CARTESIAN_POINT ( 'NONE',  ( -20.50000000000000355, 3.000000000000000000, -19.79898987322332715 ) ) ;
#755 = ORIENTED_EDGE ( 'NONE', *, *, #878, .F. ) ;
#756 = LINE ( 'NONE', #316, #436 ) ;
#757 = AXIS2_PLACEMENT_3D ( 'NONE', #562, #822, #985 ) ;
#758 = DIRECTION ( 'NONE',  ( 0.000000000000000000, 0.000000000000000000, 1.000000000000000000 ) ) ;
#759 = AXIS2_PLACEMENT_3D ( 'NONE', #595, #781, #875 ) ;
#760 = VERTEX_POINT ( 'NONE', #859 ) ;
#761 = EDGE_CURVE ( 'NONE', #906, #231, #790, .T. ) ;
#762 = CARTESIAN_POINT ( 'NONE',  ( 16.97947144918207840, 0.000000000000000000, -23.34946571779343572 ) ) ;
#763 = ORIENTED_EDGE ( 'NONE', *, *, #1039, .T. ) ;
#764 = FACE_OUTER_BOUND ( 'NONE', #1125, .T. ) ;
#765 = CARTESIAN_POINT ( 'NONE',  ( 28.62359221459107417, 0.000000000000000000, -15.39285446994163209 ) ) ;
#766 = ORIENTED_EDGE ( 'NONE', *, *, #659, .F. ) ;
#767 = VERTEX_POINT ( 'NONE', #171 ) ;
#768 = DIRECTION ( 'NONE',  ( 0.000000000000000000, -1.000000000000000000, 0.000000000000000000 ) ) ;
#769 = EDGE_CURVE ( 'NONE', #908, #1119, #262, .T. ) ;
#770 = CARTESIAN_POINT ( 'NONE',  ( -20.50000000000000355, 3.000000000000000000, 17.64898987322332502 ) ) ;
#771 = VERTEX_POINT ( 'NONE', #506 ) ;
#772 =( NAMED_UNIT ( * ) PLANE_ANGLE_UNIT ( ) SI_UNIT ( $, .RADIAN. ) );
#773 = ORIENTED_EDGE ( 'NONE', *, *, #537, .F. ) ;
#774 = CARTESIAN_POINT ( 'NONE',  ( -20.50000000000000355, 0.000000000000000000, -17.64898987322332502 ) ) ;
#775 = DIRECTION ( 'NONE',  ( 0.000000000000000000, 0.000000000000000000, 1.000000000000000000 ) ) ;
#776 = CIRCLE ( 'NONE', #273, 2.999999999999999112 ) ;
#777 = VERTEX_POINT ( 'NONE', #254 ) ;
#778 = CIRCLE ( 'NONE', #455, 2.999999999999999112 ) ;
#779 = AXIS2_PLACEMENT_3D ( 'NONE', #617, #266, #799 ) ;
#780 = ORIENTED_EDGE ( 'NONE', *, *, #769, .T. ) ;
#781 = DIRECTION ( 'NONE',  ( 0.000000000000000000, 1.000000000000000000, -0.000000000000000000 ) ) ;
#782 = DIRECTION ( 'NONE',  ( 0.000000000000000000, 1.000000000000000000, -0.000000000000000000 ) ) ;
#783 = ADVANCED_FACE ( 'NONE', ( #614 ), #1061, .T. ) ;
#784 = DIRECTION ( 'NONE',  ( -0.000000000000000000, -1.000000000000000000, -0.000000000000000000 ) ) ;
#785 = ADVANCED_FACE ( 'NONE', ( #68 ), #348, .T. ) ;
#786 = VERTEX_POINT ( 'NONE', #77 ) ;
#787 = LINE ( 'NONE', #1127, #474 ) ;
#788 = DIRECTION ( 'NONE',  ( 0.000000000000000000, 0.000000000000000000, 1.000000000000000000 ) ) ;
#789 = FACE_OUTER_BOUND ( 'NONE', #116, .T. ) ;
#790 = LINE ( 'NONE', #704, #1071 ) ;
#791 = LINE ( 'NONE', #437, #473 ) ;
#792 = DIRECTION ( 'NONE',  ( -0.000000000000000000, 1.000000000000000000, -0.000000000000000000 ) ) ;
#793 = AXIS2_PLACEMENT_3D ( 'NONE', #848, #411, #322 ) ;
#794 =( GEOMETRIC_REPRESENTATION_CONTEXT ( 3 ) GLOBAL_UNCERTAINTY_ASSIGNED_CONTEXT ( ( #1136 ) ) GLOBAL_UNIT_ASSIGNED_CONTEXT ( ( #911, #539, #894 ) ) REPRESENTATION_CONTEXT ( 'NONE', 'WORKASPACE' ) );
#795 = EDGE_CURVE ( 'NONE', #955, #638, #200, .T. ) ;
#796 = DIRECTION ( 'NONE',  ( -0.000000000000000000, 1.000000000000000000, -0.000000000000000000 ) ) ;
#797 = DIRECTION ( 'NONE',  ( 0.000000000000000000, 1.000000000000000000, 0.000000000000000000 ) ) ;
#798 = CYLINDRICAL_SURFACE ( 'NONE', #365, 32.50000000000000711 ) ;
#799 = DIRECTION ( 'NONE',  ( 0.000000000000000000, 0.000000000000000000, 1.000000000000000000 ) ) ;
#800 = EDGE_CURVE ( 'NONE', #808, #12, #63, .T. ) ;
#801 = CARTESIAN_POINT ( 'NONE',  ( 0.000000000000000000, 0.000000000000000000, 0.000000000000000000 ) ) ;
#802 = DIRECTION ( 'NONE',  ( -0.000000000000000000, 1.000000000000000000, -0.000000000000000000 ) ) ;
#803 = VERTEX_POINT ( 'NONE', #688 ) ;
#804 = LINE ( 'NONE', #108, #1151 ) ;
#805 = DIRECTION ( 'NONE',  ( 0.000000000000000000, 1.000000000000000000, -0.000000000000000000 ) ) ;
#806 = EDGE_CURVE ( 'NONE', #199, #726, #880, .T. ) ;
#807 = CARTESIAN_POINT ( 'NONE',  ( 25.98141447170574025, 0.000000000000000000, -13.97197559579317350 ) ) ;
#808 = VERTEX_POINT ( 'NONE', #610 ) ;
#809 = AXIS2_PLACEMENT_3D ( 'NONE', #82, #782, #72 ) ;
#810 = CARTESIAN_POINT ( 'NONE',  ( 20.50000000000000355, 3.000000000000000000, 17.64898987322332502 ) ) ;
#811 = CIRCLE ( 'NONE', #9, 2.999999999999999112 ) ;
#812 = CIRCLE ( 'NONE', #592, 3.000000000000000888 ) ;
#813 = AXIS2_PLACEMENT_3D ( 'NONE', #75, #250, #966 ) ;
#814 = DIRECTION ( 'NONE',  ( 0.000000000000000000, -1.000000000000000000, 0.000000000000000000 ) ) ;
#815 = ORIENTED_EDGE ( 'NONE', *, *, #174, .F. ) ;
#816 = DIRECTION ( 'NONE',  ( 0.000000000000000000, 1.000000000000000000, -0.000000000000000000 ) ) ;
#817 = ORIENTED_EDGE ( 'NONE', *, *, #806, .F. ) ;
#818 = CYLINDRICAL_SURFACE ( 'NONE', #702, 2.999999999999999112 ) ;
#819 = ORIENTED_EDGE ( 'NONE', *, *, #696, .T. ) ;
#820 = DIRECTION ( 'NONE',  ( -0.000000000000000000, 1.000000000000000000, -0.000000000000000000 ) ) ;
#821 = EDGE_LOOP ( 'NONE', ( #584, #738, #95, #755 ) ) ;
#822 = DIRECTION ( 'NONE',  ( 0.000000000000000000, 1.000000000000000000, 0.000000000000000000 ) ) ;
#823 = ORIENTED_EDGE ( 'NONE', *, *, #950, .F. ) ;
#824 = FACE_OUTER_BOUND ( 'NONE', #1141, .T. ) ;
#825 = ADVANCED_FACE ( 'NONE', ( #963 ), #415, .F. ) ;
#826 = CIRCLE ( 'NONE', #258, 2.999999999999999112 ) ;
#827 = ORIENTED_EDGE ( 'NONE', *, *, #107, .T. ) ;
#828 = AXIS2_PLACEMENT_3D ( 'NONE', #744, #579, #37 ) ;
#829 = CARTESIAN_POINT ( 'NONE',  ( -25.98141447170574025, 0.000000000000000000, 16.97197559579316817 ) ) ;
#830 = CIRCLE ( 'NONE', #779, 32.50000000000000711 ) ;
#831 = CIRCLE ( 'NONE', #962, 2.150000000000002576 ) ;
#832 = EDGE_LOOP ( 'NONE', ( #60, #1104, #76, #315 ) ) ;
#833 = DIRECTION ( 'NONE',  ( 0.000000000000000000, 0.000000000000000000, 1.000000000000000000 ) ) ;
#834 = VERTEX_POINT ( 'NONE', #774 ) ;
#835 = DIRECTION ( 'NONE',  ( 0.000000000000000000, 1.000000000000000000, 0.000000000000000000 ) ) ;
#836 = DIRECTION ( 'NONE',  ( 0.000000000000000000, 0.000000000000000000, 1.000000000000000000 ) ) ;
#837 = EDGE_LOOP ( 'NONE', ( #290, #213, #1094, #598 ) ) ;
#838 = CARTESIAN_POINT ( 'NONE',  ( -23.92588404481609032, 0.000000000000000000, 16.15710594982947867 ) ) ;
#839 = ORIENTED_EDGE ( 'NONE', *, *, #332, .F. ) ;
#840 = PLANE ( 'NONE',  #1088 ) ;
#841 = CARTESIAN_POINT ( 'NONE',  ( -14.86715431869131976, 0.000000000000000000, -25.47975122453550156 ) ) ;
#842 = ADVANCED_FACE ( 'NONE', ( #81 ), #693, .F. ) ;
#843 = EDGE_LOOP ( 'NONE', ( #370, #158, #858, #421 ) ) ;
#844 = DIRECTION ( 'NONE',  ( 0.000000000000000000, 1.000000000000000000, 0.000000000000000000 ) ) ;
#845 = VERTEX_POINT ( 'NONE', #968 ) ;
#846 = CARTESIAN_POINT ( 'NONE',  ( 0.000000000000000000, 0.000000000000000000, 0.000000000000000000 ) ) ;
#847 = AXIS2_PLACEMENT_3D ( 'NONE', #44, #567, #312 ) ;
#848 = CARTESIAN_POINT ( 'NONE',  ( 20.50000000000000355, 0.000000000000000000, -19.79898987322332715 ) ) ;
#849 = VECTOR ( 'NONE', #650, 1000.000000000000000 ) ;
#850 = CIRCLE ( 'NONE', #121, 4.999999999999997335 ) ;
#851 = ORIENTED_EDGE ( 'NONE', *, *, #1093, .T. ) ;
#852 = EDGE_CURVE ( 'NONE', #638, #199, #703, .T. ) ;
#853 = CARTESIAN_POINT ( 'NONE',  ( 16.37906831720230016, 0.000000000000000000, -28.07091236601368678 ) ) ;
#854 = ORIENTED_EDGE ( 'NONE', *, *, #572, .T. ) ;
#855 = CARTESIAN_POINT ( 'NONE',  ( -28.62359221459107417, 0.000000000000000000, 15.39285446994162854 ) ) ;
#856 = CARTESIAN_POINT ( 'NONE',  ( 23.92588404481609032, 0.000000000000000000, -16.15710594982947867 ) ) ;
#857 = ORIENTED_EDGE ( 'NONE', *, *, #458, .T. ) ;
#858 = ORIENTED_EDGE ( 'NONE', *, *, #949, .T. ) ;
#859 = CARTESIAN_POINT ( 'NONE',  ( 16.37906831720231082, 3.000000000000000000, 28.07091236601368323 ) ) ;
#860 = DIRECTION ( 'NONE',  ( 0.000000000000000000, 1.000000000000000000, -0.000000000000000000 ) ) ;
#861 = ORIENTED_EDGE ( 'NONE', *, *, #112, .T. ) ;
#862 = ORIENTED_EDGE ( 'NONE', *, *, #659, .T. ) ;
#863 = EDGE_CURVE ( 'NONE', #631, #988, #1073, .T. ) ;
#864 = CARTESIAN_POINT ( 'NONE',  ( 20.50000000000000355, 3.000000000000000000, 19.79898987322332715 ) ) ;
#865 = EDGE_CURVE ( 'NONE', #906, #320, #850, .T. ) ;
#866 = DIRECTION ( 'NONE',  ( 0.000000000000000000, 0.000000000000000000, 1.000000000000000000 ) ) ;
#867 = VECTOR ( 'NONE', #1103, 1000.000000000000000 ) ;
#868 = FACE_OUTER_BOUND ( 'NONE', #837, .T. ) ;
#869 = VECTOR ( 'NONE', #123, 1000.000000000000000 ) ;
#870 = AXIS2_PLACEMENT_3D ( 'NONE', #708, #248, #599 ) ;
#871 = ORIENTED_EDGE ( 'NONE', *, *, #1028, .T. ) ;
#872 = CARTESIAN_POINT ( 'NONE',  ( -20.50000000000000355, 0.000000000000000000, 19.79898987322332715 ) ) ;
#873 = CARTESIAN_POINT ( 'NONE',  ( 20.50000000000000355, 3.000000000000000000, 21.94898987322332928 ) ) ;
#874 = DIRECTION ( 'NONE',  ( 0.000000000000000000, 0.000000000000000000, 1.000000000000000000 ) ) ;
#875 = DIRECTION ( 'NONE',  ( 0.000000000000000000, 0.000000000000000000, 1.000000000000000000 ) ) ;
#876 = DIRECTION ( 'NONE',  ( -0.000000000000000000, -1.000000000000000000, -0.000000000000000000 ) ) ;
#877 = CYLINDRICAL_SURFACE ( 'NONE', #1016, 42.50000000000000000 ) ;
#878 = EDGE_CURVE ( 'NONE', #284, #1126, #542, .T. ) ;
#879 = APPLICATION_PROTOCOL_DEFINITION ( 'draft international standard', 'automotive_design', 1998, #126 ) ;
#880 = LINE ( 'NONE', #167, #904 ) ;
#881 = LINE ( 'NONE', #1137, #118 ) ;
#882 = DIRECTION ( 'NONE',  ( 0.000000000000000000, 0.000000000000000000, 1.000000000000000000 ) ) ;
#883 = CIRCLE ( 'NONE', #324, 3.000000000000000888 ) ;
#884 = AXIS2_PLACEMENT_3D ( 'NONE', #846, #135, #33 ) ;
#885 = AXIS2_PLACEMENT_3D ( 'NONE', #35, #583, #232 ) ;
#886 = EDGE_CURVE ( 'NONE', #320, #658, #804, .T. ) ;
#887 = CARTESIAN_POINT ( 'NONE',  ( -28.62359221459106706, 3.000000000000000000, 15.39285446994162498 ) ) ;
#888 = VERTEX_POINT ( 'NONE', #730 ) ;
#889 = DIRECTION ( 'NONE',  ( 0.000000000000000000, 1.000000000000000000, 0.000000000000000000 ) ) ;
#890 = DIRECTION ( 'NONE',  ( 0.000000000000000000, 0.000000000000000000, 1.000000000000000000 ) ) ;
#891 = ORIENTED_EDGE ( 'NONE', *, *, #137, .T. ) ;
#892 = CYLINDRICAL_SURFACE ( 'NONE', #30, 5.000000000000000888 ) ;
#893 = PRODUCT_DEFINITION ( 'UNKNOWN', '', #1153, #230 ) ;
#894 =( NAMED_UNIT ( * ) SI_UNIT ( $, .STERADIAN. ) SOLID_ANGLE_UNIT ( ) );
#895 = CARTESIAN_POINT ( 'NONE',  ( -16.97947144918207485, 0.000000000000000000, -23.34946571779343572 ) ) ;
#896 = ORIENTED_EDGE ( 'NONE', *, *, #1123, .F. ) ;
#897 = DIRECTION ( 'NONE',  ( -0.000000000000000000, 1.000000000000000000, -0.000000000000000000 ) ) ;
#898 = ORIENTED_EDGE ( 'NONE', *, *, #1160, .T. ) ;
#899 = DIRECTION ( 'NONE',  ( -0.000000000000000000, -1.000000000000000000, -0.000000000000000000 ) ) ;
#900 = EDGE_CURVE ( 'NONE', #777, #326, #830, .T. ) ;
#901 = ORIENTED_EDGE ( 'NONE', *, *, #367, .T. ) ;
#902 = CIRCLE ( 'NONE', #177, 3.000000000000000888 ) ;
#903 = DIRECTION ( 'NONE',  ( -0.000000000000000000, 1.000000000000000000, -0.000000000000000000 ) ) ;
#904 = VECTOR ( 'NONE', #338, 1000.000000000000000 ) ;
#905 = CIRCLE ( 'NONE', #663, 3.000000000000000888 ) ;
#906 = VERTEX_POINT ( 'NONE', #17 ) ;
#907 = CARTESIAN_POINT ( 'NONE',  ( 0.000000000000000000, 3.000000000000000000, 32.50000000000000711 ) ) ;
#908 = VERTEX_POINT ( 'NONE', #554 ) ;
#909 = DIRECTION ( 'NONE',  ( 0.000000000000000000, 1.000000000000000000, -0.000000000000000000 ) ) ;
#910 = ORIENTED_EDGE ( 'NONE', *, *, #795, .T. ) ;
#911 =( LENGTH_UNIT ( ) NAMED_UNIT ( * ) SI_UNIT ( .MILLI., .METRE. ) );
#912 = CARTESIAN_POINT ( 'NONE',  ( -20.50000000000000355, 0.000000000000000000, 19.79898987322332715 ) ) ;
#913 = ADVANCED_FACE ( 'NONE', ( #3 ), #892, .T. ) ;
#914 = ORIENTED_EDGE ( 'NONE', *, *, #294, .F. ) ;
#915 = ADVANCED_FACE ( 'NONE', ( #641 ), #713, .F. ) ;
#916 = CARTESIAN_POINT ( 'NONE',  ( -20.50000000000000355, 0.000000000000000000, 19.79898987322332715 ) ) ;
#917 = ORIENTED_EDGE ( 'NONE', *, *, #504, .T. ) ;
#918 = CARTESIAN_POINT ( 'NONE',  ( -23.92588404481609388, 3.000000000000000000, -16.15710594982947867 ) ) ;
#919 = DIRECTION ( 'NONE',  ( 0.000000000000000000, -1.000000000000000000, 0.000000000000000000 ) ) ;
#920 = ORIENTED_EDGE ( 'NONE', *, *, #341, .T. ) ;
#921 = CARTESIAN_POINT ( 'NONE',  ( -20.50000000000000355, 3.000000000000000000, -19.79898987322332715 ) ) ;
#922 = CIRCLE ( 'NONE', #419, 2.999999999999999112 ) ;
#923 = ORIENTED_EDGE ( 'NONE', *, *, #611, .F. ) ;
#924 = CARTESIAN_POINT ( 'NONE',  ( 0.000000000000000000, 0.000000000000000000, 0.000000000000000000 ) ) ;
#925 = DIRECTION ( 'NONE',  ( 0.000000000000000000, 1.000000000000000000, -0.000000000000000000 ) ) ;
#926 = ORIENTED_EDGE ( 'NONE', *, *, #761, .T. ) ;
#927 = DIRECTION ( 'NONE',  ( 0.000000000000000000, 1.000000000000000000, 0.000000000000000000 ) ) ;
#928 = ORIENTED_EDGE ( 'NONE', *, *, #236, .T. ) ;
#929 = EDGE_CURVE ( 'NONE', #54, #931, #531, .T. ) ;
#930 = DIRECTION ( 'NONE',  ( -0.000000000000000000, 1.000000000000000000, -0.000000000000000000 ) ) ;
#931 = VERTEX_POINT ( 'NONE', #887 ) ;
#932 = LINE ( 'NONE', #762, #74 ) ;
#933 = EDGE_LOOP ( 'NONE', ( #986, #1075 ) ) ;
#934 = FACE_OUTER_BOUND ( 'NONE', #36, .T. ) ;
#935 = ADVANCED_BREP_SHAPE_REPRESENTATION ( 'gear cover', ( #591, #423 ), #53 ) ;
#936 = CARTESIAN_POINT ( 'NONE',  ( -20.50000000000000355, 3.000000000000000000, -19.79898987322332715 ) ) ;
#937 = ADVANCED_FACE ( 'NONE', ( #529 ), #636, .F. ) ;
#938 = ORIENTED_EDGE ( 'NONE', *, *, #449, .T. ) ;
#939 = CARTESIAN_POINT ( 'NONE',  ( 14.86715431869131798, 0.000000000000000000, -25.47975122453550156 ) ) ;
#940 = ORIENTED_EDGE ( 'NONE', *, *, #1003, .T. ) ;
#941 = DIRECTION ( 'NONE',  ( 0.000000000000000000, 1.000000000000000000, 0.000000000000000000 ) ) ;
#942 = CIRCLE ( 'NONE', #238, 2.999999999999999112 ) ;
#943 = CARTESIAN_POINT ( 'NONE',  ( -25.98141447170574025, 0.000000000000000000, 13.97197559579316994 ) ) ;
#944 = AXIS2_PLACEMENT_3D ( 'NONE', #159, #1154, #1057 ) ;
#945 = EDGE_LOOP ( 'NONE', ( #753, #111, #1091, #32 ) ) ;
#946 = EDGE_LOOP ( 'NONE', ( #717, #193, #1133, #67 ) ) ;
#947 = DIRECTION ( 'NONE',  ( -0.000000000000000000, 1.000000000000000000, -0.000000000000000000 ) ) ;
#948 = ORIENTED_EDGE ( 'NONE', *, *, #725, .T. ) ;
#949 = EDGE_CURVE ( 'NONE', #1002, #221, #327, .T. ) ;
#950 = EDGE_CURVE ( 'NONE', #771, #576, #440, .T. ) ;
#951 = VERTEX_POINT ( 'NONE', #1066 ) ;
#952 = DIRECTION ( 'NONE',  ( 0.000000000000000000, 1.000000000000000000, 0.000000000000000000 ) ) ;
#953 = CYLINDRICAL_SURFACE ( 'NONE', #117, 2.999999999999999112 ) ;
#954 = LINE ( 'NONE', #429, #165 ) ;
#955 = VERTEX_POINT ( 'NONE', #352 ) ;
#956 = CARTESIAN_POINT ( 'NONE',  ( 0.000000000000000000, 0.000000000000000000, 0.000000000000000000 ) ) ;
#957 = CARTESIAN_POINT ( 'NONE',  ( -25.98141447170574381, 0.000000000000000000, -13.97197559579316817 ) ) ;
#958 = AXIS2_PLACEMENT_3D ( 'NONE', #1042, #264, #615 ) ;
#959 = CARTESIAN_POINT ( 'NONE',  ( 0.000000000000000000, 3.000000000000000000, 0.000000000000000000 ) ) ;
#960 = COLOUR_RGB ( '',0.7921568627450980005, 0.8196078431372548767, 0.9333333333333333481 ) ;
#961 = AXIS2_PLACEMENT_3D ( 'NONE', #754, #296, #742 ) ;
#962 = AXIS2_PLACEMENT_3D ( 'NONE', #351, #512, #874 ) ;
#963 = FACE_OUTER_BOUND ( 'NONE', #206, .T. ) ;
#964 = EDGE_CURVE ( 'NONE', #1072, #803, #185, .T. ) ;
#965 = CARTESIAN_POINT ( 'NONE',  ( 16.37906831720230016, 3.000000000000000000, -28.07091236601368678 ) ) ;
#966 = DIRECTION ( 'NONE',  ( 0.000000000000000000, 0.000000000000000000, 1.000000000000000000 ) ) ;
#967 = SHAPE_DEFINITION_REPRESENTATION ( #204, #935 ) ;
#968 = CARTESIAN_POINT ( 'NONE',  ( -28.62359221459106706, 0.000000000000000000, 15.39285446994162498 ) ) ;
#969 = CARTESIAN_POINT ( 'NONE',  ( 0.000000000000000000, 3.000000000000000000, 0.000000000000000000 ) ) ;
#970 = CYLINDRICAL_SURFACE ( 'NONE', #528, 5.000000000000000888 ) ;
#971 = EDGE_CURVE ( 'NONE', #1134, #216, #271, .T. ) ;
#972 = DIRECTION ( 'NONE',  ( -0.000000000000000000, 1.000000000000000000, -0.000000000000000000 ) ) ;
#973 = FACE_OUTER_BOUND ( 'NONE', #661, .T. ) ;
#974 = LINE ( 'NONE', #1150, #31 ) ;
#975 = ORIENTED_EDGE ( 'NONE', *, *, #651, .F. ) ;
#976 = DIRECTION ( 'NONE',  ( -0.000000000000000000, 1.000000000000000000, -0.000000000000000000 ) ) ;
#977 = SURFACE_STYLE_FILL_AREA ( #1076 ) ;
#978 = DIRECTION ( 'NONE',  ( 0.000000000000000000, 0.000000000000000000, -1.000000000000000000 ) ) ;
#979 = EDGE_LOOP ( 'NONE', ( #297, #819, #502, #96 ) ) ;
#980 = EDGE_CURVE ( 'NONE', #221, #42, #624, .T. ) ;
#981 = CARTESIAN_POINT ( 'NONE',  ( -28.62359221459107772, 0.000000000000000000, -15.39285446994162676 ) ) ;
#982 = EDGE_CURVE ( 'NONE', #418, #991, #364, .T. ) ;
#983 = ORIENTED_EDGE ( 'NONE', *, *, #1069, .F. ) ;
#984 = DIRECTION ( 'NONE',  ( 0.000000000000000000, 1.000000000000000000, -0.000000000000000000 ) ) ;
#985 = DIRECTION ( 'NONE',  ( 0.000000000000000000, 0.000000000000000000, 1.000000000000000000 ) ) ;
#986 = ORIENTED_EDGE ( 'NONE', *, *, #162, .F. ) ;
#987 = CARTESIAN_POINT ( 'NONE',  ( -16.37906831720230372, 3.000000000000000000, -28.07091236601368678 ) ) ;
#988 = VERTEX_POINT ( 'NONE', #810 ) ;
#989 = CARTESIAN_POINT ( 'NONE',  ( 0.000000000000000000, 3.000000000000000000, -42.50000000000000000 ) ) ;
#990 = PRODUCT ( 'gear cover', 'gear cover', '', ( #61 ) ) ;
#991 = VERTEX_POINT ( 'NONE', #987 ) ;
#992 = CIRCLE ( 'NONE', #664, 5.000000000000000888 ) ;
#993 = MECHANICAL_DESIGN_GEOMETRIC_PRESENTATION_REPRESENTATION (  '', ( #420 ), #794 ) ;
#994 = DIRECTION ( 'NONE',  ( 0.000000000000000000, 0.000000000000000000, 1.000000000000000000 ) ) ;
#995 = AXIS2_PLACEMENT_3D ( 'NONE', #864, #84, #1041 ) ;
#996 = FILL_AREA_STYLE_COLOUR ( '', #960 ) ;
#997 = ADVANCED_FACE ( 'NONE', ( #192 ), #11, .F. ) ;
#998 = EDGE_LOOP ( 'NONE', ( #282, #477, #1082, #857 ) ) ;
#999 = CARTESIAN_POINT ( 'NONE',  ( -20.50000000000000355, 3.000000000000000000, -19.79898987322332715 ) ) ;
#1000 = ORIENTED_EDGE ( 'NONE', *, *, #434, .T. ) ;
#1001 = SURFACE_SIDE_STYLE ('',( #977 ) ) ;
#1002 = VERTEX_POINT ( 'NONE', #546 ) ;
#1003 = EDGE_CURVE ( 'NONE', #771, #767, #812, .T. ) ;
#1004 = CYLINDRICAL_SURFACE ( 'NONE', #721, 2.999999999999999112 ) ;
#1005 = ORIENTED_EDGE ( 'NONE', *, *, #1069, .T. ) ;
#1006 = DIRECTION ( 'NONE',  ( 0.000000000000000000, 1.000000000000000000, 0.000000000000000000 ) ) ;
#1007 = CARTESIAN_POINT ( 'NONE',  ( 20.50000000000000355, 3.000000000000000000, -21.94898987322332928 ) ) ;
#1008 = EDGE_LOOP ( 'NONE', ( #2, #673, #5, #366 ) ) ;
#1009 = ADVANCED_FACE ( 'NONE', ( #564 ), #1025, .F. ) ;
#1010 = DIRECTION ( 'NONE',  ( 0.000000000000000000, 1.000000000000000000, -0.000000000000000000 ) ) ;
#1011 = CIRCLE ( 'NONE', #958, 32.50000000000000711 ) ;
#1012 = EDGE_LOOP ( 'NONE', ( #150, #376, #597, #692 ) ) ;
#1013 = CIRCLE ( 'NONE', #306, 32.50000000000000711 ) ;
#1014 = DIRECTION ( 'NONE',  ( -0.000000000000000000, 1.000000000000000000, -0.000000000000000000 ) ) ;
#1015 = AXIS2_PLACEMENT_3D ( 'NONE', #921, #648, #140 ) ;
#1016 = AXIS2_PLACEMENT_3D ( 'NONE', #959, #784, #620 ) ;
#1017 = CARTESIAN_POINT ( 'NONE',  ( -16.37906831720230016, 3.000000000000000000, 28.07091236601368678 ) ) ;
#1018 = ORIENTED_EDGE ( 'NONE', *, *, #1145, .T. ) ;
#1019 = DIRECTION ( 'NONE',  ( 0.000000000000000000, 1.000000000000000000, 0.000000000000000000 ) ) ;
#1020 = VERTEX_POINT ( 'NONE', #853 ) ;
#1021 = CARTESIAN_POINT ( 'NONE',  ( 28.62359221459106706, 3.000000000000000000, -15.39285446994162854 ) ) ;
#1022 = ADVANCED_FACE ( 'NONE', ( #497 ), #1004, .F. ) ;
#1023 = CARTESIAN_POINT ( 'NONE',  ( 16.37906831720230372, 0.000000000000000000, -28.07091236601369744 ) ) ;
#1024 = ORIENTED_EDGE ( 'NONE', *, *, #449, .F. ) ;
#1025 = CYLINDRICAL_SURFACE ( 'NONE', #961, 2.150000000000002576 ) ;
#1026 = ORIENTED_EDGE ( 'NONE', *, *, #1139, .F. ) ;
#1027 = LINE ( 'NONE', #144, #530 ) ;
#1028 = EDGE_CURVE ( 'NONE', #908, #319, #219, .T. ) ;
#1029 = DIRECTION ( 'NONE',  ( 0.000000000000000000, 1.000000000000000000, 0.000000000000000000 ) ) ;
#1030 = EDGE_LOOP ( 'NONE', ( #871, #127, #488, #233 ) ) ;
#1031 = ORIENTED_EDGE ( 'NONE', *, *, #709, .T. ) ;
#1032 = FACE_BOUND ( 'NONE', #353, .T. ) ;
#1033 = CIRCLE ( 'NONE', #217, 4.999999999999997335 ) ;
#1034 = AXIS2_PLACEMENT_3D ( 'NONE', #293, #369, #556 ) ;
#1035 = LINE ( 'NONE', #1023, #342 ) ;
#1036 = AXIS2_PLACEMENT_3D ( 'NONE', #188, #972, #357 ) ;
#1037 = AXIS2_PLACEMENT_3D ( 'NONE', #660, #1010, #483 ) ;
#1038 = ORIENTED_EDGE ( 'NONE', *, *, #747, .T. ) ;
#1039 = EDGE_CURVE ( 'NONE', #988, #631, #626, .T. ) ;
#1040 = ORIENTED_EDGE ( 'NONE', *, *, #401, .F. ) ;
#1041 = DIRECTION ( 'NONE',  ( 0.000000000000000000, 0.000000000000000000, -1.000000000000000000 ) ) ;
#1042 = CARTESIAN_POINT ( 'NONE',  ( 0.000000000000000000, 3.000000000000000000, 0.000000000000000000 ) ) ;
#1043 = ORIENTED_EDGE ( 'NONE', *, *, #537, .T. ) ;
#1044 = EDGE_CURVE ( 'NONE', #226, #313, #516, .T. ) ;
#1045 = ORIENTED_EDGE ( 'NONE', *, *, #558, .F. ) ;
#1046 = DIRECTION ( 'NONE',  ( 0.000000000000000000, 0.000000000000000000, 1.000000000000000000 ) ) ;
#1047 = DIRECTION ( 'NONE',  ( -0.000000000000000000, -1.000000000000000000, -0.000000000000000000 ) ) ;
#1048 = CARTESIAN_POINT ( 'NONE',  ( 5.204748896376250896E-15, 0.000000000000000000, 42.50000000000000000 ) ) ;
#1049 = EDGE_CURVE ( 'NONE', #444, #1020, #381, .T. ) ;
#1050 = DIRECTION ( 'NONE',  ( -0.000000000000000000, -1.000000000000000000, -0.000000000000000000 ) ) ;
#1051 = AXIS2_PLACEMENT_3D ( 'NONE', #716, #792, #92 ) ;
#1052 = DIRECTION ( 'NONE',  ( -0.000000000000000000, 1.000000000000000000, -0.000000000000000000 ) ) ;
#1053 = CIRCLE ( 'NONE', #809, 4.999999999999997335 ) ;
#1054 = CYLINDRICAL_SURFACE ( 'NONE', #476, 2.999999999999999112 ) ;
#1055 = PRESENTATION_LAYER_ASSIGNMENT (  '', '', ( #420 ) ) ;
#1056 = CIRCLE ( 'NONE', #50, 2.150000000000002576 ) ;
#1057 = DIRECTION ( 'NONE',  ( 0.000000000000000000, 0.000000000000000000, -1.000000000000000000 ) ) ;
#1058 = ADVANCED_FACE ( 'NONE', ( #119 ), #408, .F. ) ;
#1059 = FACE_OUTER_BOUND ( 'NONE', #821, .T. ) ;
#1060 = DIRECTION ( 'NONE',  ( 0.000000000000000000, 1.000000000000000000, 0.000000000000000000 ) ) ;
#1061 = CYLINDRICAL_SURFACE ( 'NONE', #551, 5.000000000000000888 ) ;
#1062 = ORIENTED_EDGE ( 'NONE', *, *, #886, .F. ) ;
#1063 = DIRECTION ( 'NONE',  ( -0.000000000000000000, -1.000000000000000000, -0.000000000000000000 ) ) ;
#1064 = FACE_OUTER_BOUND ( 'NONE', #1080, .T. ) ;
#1065 = VERTEX_POINT ( 'NONE', #1089 ) ;
#1066 = CARTESIAN_POINT ( 'NONE',  ( 20.50000000000000355, 0.000000000000000000, -21.94898987322332928 ) ) ;
#1067 = ORIENTED_EDGE ( 'NONE', *, *, #519, .F. ) ;
#1068 = DIRECTION ( 'NONE',  ( -0.000000000000000000, -1.000000000000000000, -0.000000000000000000 ) ) ;
#1069 = EDGE_CURVE ( 'NONE', #310, #685, #667, .T. ) ;
#1070 = VECTOR ( 'NONE', #706, 1000.000000000000000 ) ;
#1071 = VECTOR ( 'NONE', #431, 1000.000000000000000 ) ;
#1072 = VERTEX_POINT ( 'NONE', #559 ) ;
#1073 = CIRCLE ( 'NONE', #740, 2.150000000000002576 ) ;
#1074 = DIRECTION ( 'NONE',  ( 0.000000000000000000, 0.000000000000000000, 1.000000000000000000 ) ) ;
#1075 = ORIENTED_EDGE ( 'NONE', *, *, #645, .F. ) ;
#1076 = FILL_AREA_STYLE ('',( #996 ) ) ;
#1077 = DIRECTION ( 'NONE',  ( 0.000000000000000000, 1.000000000000000000, 0.000000000000000000 ) ) ;
#1078 = ORIENTED_EDGE ( 'NONE', *, *, #865, .T. ) ;
#1079 = CARTESIAN_POINT ( 'NONE',  ( 0.000000000000000000, 3.000000000000000000, 0.000000000000000000 ) ) ;
#1080 = EDGE_LOOP ( 'NONE', ( #356, #635, #773, #323 ) ) ;
#1081 = CARTESIAN_POINT ( 'NONE',  ( -20.50000000000000355, 0.000000000000000000, 21.94898987322332928 ) ) ;
#1082 = ORIENTED_EDGE ( 'NONE', *, *, #89, .T. ) ;
#1083 = DIRECTION ( 'NONE',  ( 0.000000000000000000, 0.000000000000000000, 1.000000000000000000 ) ) ;
#1084 = EDGE_CURVE ( 'NONE', #553, #413, #308, .T. ) ;
#1085 = CARTESIAN_POINT ( 'NONE',  ( 0.000000000000000000, 0.000000000000000000, 0.000000000000000000 ) ) ;
#1086 = ORIENTED_EDGE ( 'NONE', *, *, #1044, .F. ) ;
#1087 = CIRCLE ( 'NONE', #847, 2.999999999999999112 ) ;
#1088 = AXIS2_PLACEMENT_3D ( 'NONE', #1097, #835, #58 ) ;
#1089 = CARTESIAN_POINT ( 'NONE',  ( 20.50000000000000355, 3.000000000000000000, -21.94898987322332928 ) ) ;
#1090 = VECTOR ( 'NONE', #278, 1000.000000000000000 ) ;
#1091 = ORIENTED_EDGE ( 'NONE', *, *, #276, .T. ) ;
#1092 = CARTESIAN_POINT ( 'NONE',  ( 20.50000000000000355, 3.000000000000000000, -19.79898987322332715 ) ) ;
#1093 = EDGE_CURVE ( 'NONE', #444, #906, #609, .T. ) ;
#1094 = ORIENTED_EDGE ( 'NONE', *, *, #252, .F. ) ;
#1095 = DIRECTION ( 'NONE',  ( 0.000000000000000000, 0.000000000000000000, 1.000000000000000000 ) ) ;
#1096 = EDGE_LOOP ( 'NONE', ( #763, #1000, #697, #1040 ) ) ;
#1097 = CARTESIAN_POINT ( 'NONE',  ( 0.000000000000000000, 0.000000000000000000, 0.000000000000000000 ) ) ;
#1098 = CARTESIAN_POINT ( 'NONE',  ( -20.50000000000000355, 3.000000000000000000, 21.94898987322332928 ) ) ;
#1099 = ORIENTED_EDGE ( 'NONE', *, *, #929, .T. ) ;
#1100 = DIRECTION ( 'NONE',  ( 0.000000000000000000, 1.000000000000000000, -0.000000000000000000 ) ) ;
#1101 = ORIENTED_EDGE ( 'NONE', *, *, #632, .T. ) ;
#1102 = CARTESIAN_POINT ( 'NONE',  ( 20.50000000000000355, 3.000000000000000000, 21.94898987322332928 ) ) ;
#1103 = DIRECTION ( 'NONE',  ( -0.000000000000000000, -1.000000000000000000, -0.000000000000000000 ) ) ;
#1104 = ORIENTED_EDGE ( 'NONE', *, *, #463, .F. ) ;
#1105 = EDGE_CURVE ( 'NONE', #834, #1119, #1056, .T. ) ;
#1106 = DIRECTION ( 'NONE',  ( 0.000000000000000000, 0.000000000000000000, 1.000000000000000000 ) ) ;
#1107 = CIRCLE ( 'NONE', #718, 2.150000000000002576 ) ;
#1108 = ORIENTED_EDGE ( 'NONE', *, *, #434, .F. ) ;
#1109 = CIRCLE ( 'NONE', #288, 2.999999999999999112 ) ;
#1110 = CYLINDRICAL_SURFACE ( 'NONE', #345, 32.50000000000000711 ) ;
#1111 = AXIS2_PLACEMENT_3D ( 'NONE', #916, #927, #749 ) ;
#1112 = AXIS2_PLACEMENT_3D ( 'NONE', #1144, #170, #524 ) ;
#1113 = DIRECTION ( 'NONE',  ( 0.000000000000000000, 0.000000000000000000, 1.000000000000000000 ) ) ;
#1114 = ORIENTED_EDGE ( 'NONE', *, *, #99, .F. ) ;
#1115 = DIRECTION ( 'NONE',  ( 0.000000000000000000, -1.000000000000000000, 0.000000000000000000 ) ) ;
#1116 = ORIENTED_EDGE ( 'NONE', *, *, #458, .F. ) ;
#1117 = CARTESIAN_POINT ( 'NONE',  ( -16.97947144918207485, 3.000000000000000000, -23.34946571779343572 ) ) ;
#1118 = LINE ( 'NONE', #507, #287 ) ;
#1119 = VERTEX_POINT ( 'NONE', #133 ) ;
#1120 = EDGE_LOOP ( 'NONE', ( #331, #138, #743, #1062 ) ) ;
#1121 = ADVANCED_FACE ( 'NONE', ( #824 ), #402, .T. ) ;
#1122 = DIRECTION ( 'NONE',  ( 0.000000000000000000, 0.000000000000000000, 1.000000000000000000 ) ) ;
#1123 = EDGE_CURVE ( 'NONE', #675, #748, #104, .T. ) ;
#1124 = CYLINDRICAL_SURFACE ( 'NONE', #793, 4.999999999999997335 ) ;
#1125 = EDGE_LOOP ( 'NONE', ( #129, #1031 ) ) ;
#1126 = VERTEX_POINT ( 'NONE', #218 ) ;
#1127 = CARTESIAN_POINT ( 'NONE',  ( 28.62359221459107772, 0.000000000000000000, 15.39285446994162676 ) ) ;
#1128 = VECTOR ( 'NONE', #168, 1000.000000000000000 ) ;
#1129 = AXIS2_PLACEMENT_3D ( 'NONE', #956, #422, #151 ) ;
#1130 = CARTESIAN_POINT ( 'NONE',  ( 20.50000000000000355, 0.000000000000000000, 19.79898987322332715 ) ) ;
#1131 = VECTOR ( 'NONE', #820, 1000.000000000000000 ) ;
#1132 = CIRCLE ( 'NONE', #757, 42.50000000000000000 ) ;
#1133 = ORIENTED_EDGE ( 'NONE', *, *, #107, .F. ) ;
#1134 = VERTEX_POINT ( 'NONE', #838 ) ;
#1135 = CARTESIAN_POINT ( 'NONE',  ( -20.50000000000000355, 3.000000000000000000, -21.94898987322332928 ) ) ;
#1136 = UNCERTAINTY_MEASURE_WITH_UNIT (LENGTH_MEASURE( 1.000000000000000082E-05 ), #911, 'distance_accuracy_value', 'NONE');
#1137 = CARTESIAN_POINT ( 'NONE',  ( 20.50000000000000355, 3.000000000000000000, -17.64898987322332502 ) ) ;
#1138 = CARTESIAN_POINT ( 'NONE',  ( 0.000000000000000000, 0.000000000000000000, 0.000000000000000000 ) ) ;
#1139 = EDGE_CURVE ( 'NONE', #627, #760, #629, .T. ) ;
#1140 = APPLICATION_PROTOCOL_DEFINITION ( 'draft international standard', 'automotive_design', 1998, #4 ) ;
#1141 = EDGE_LOOP ( 'NONE', ( #618, #1078, #147, #1045 ) ) ;
#1142 = DIRECTION ( 'NONE',  ( -0.000000000000000000, -1.000000000000000000, -0.000000000000000000 ) ) ;
#1143 = DIRECTION ( 'NONE',  ( -0.000000000000000000, 1.000000000000000000, -0.000000000000000000 ) ) ;
#1144 = CARTESIAN_POINT ( 'NONE',  ( 20.50000000000000355, 0.000000000000000000, 19.79898987322332715 ) ) ;
#1145 = EDGE_CURVE ( 'NONE', #679, #1134, #243, .T. ) ;
#1146 = FACE_BOUND ( 'NONE', #132, .T. ) ;
#1147 = VECTOR ( 'NONE', #919, 1000.000000000000000 ) ;
#1148 = CARTESIAN_POINT ( 'NONE',  ( 0.000000000000000000, 3.000000000000000000, 0.000000000000000000 ) ) ;
#1149 = AXIS2_PLACEMENT_3D ( 'NONE', #298, #500, #472 ) ;
#1150 = CARTESIAN_POINT ( 'NONE',  ( -20.50000000000000355, 3.000000000000000000, -17.64898987322332502 ) ) ;
#1151 = VECTOR ( 'NONE', #903, 1000.000000000000000 ) ;
#1152 = AXIS2_PLACEMENT_3D ( 'NONE', #489, #577, #653 ) ;
#1153 = PRODUCT_DEFINITION_FORMATION_WITH_SPECIFIED_SOURCE ( 'ANY', '', #990, .NOT_KNOWN. ) ;
#1154 = DIRECTION ( 'NONE',  ( -0.000000000000000000, -1.000000000000000000, -0.000000000000000000 ) ) ;
#1155 = CYLINDRICAL_SURFACE ( 'NONE', #737, 4.999999999999997335 ) ;
#1156 = DIRECTION ( 'NONE',  ( -0.000000000000000000, -1.000000000000000000, -0.000000000000000000 ) ) ;
#1157 = DIRECTION ( 'NONE',  ( 0.000000000000000000, 0.000000000000000000, 1.000000000000000000 ) ) ;
#1158 = EDGE_CURVE ( 'NONE', #484, #444, #932, .T. ) ;
#1159 = DIRECTION ( 'NONE',  ( 0.000000000000000000, 1.000000000000000000, -0.000000000000000000 ) ) ;
#1160 = EDGE_CURVE ( 'NONE', #382, #951, #438, .T. ) ;
ENDSEC;
END-ISO-10303-21;
