ISO-10303-21;
HEADER;
FILE_DESCRIPTION (( 'STEP AP214' ),
    '1' );
FILE_NAME ('gear cover (bottom).STEP',
    '2026-09-08T07:40:23',
    ( '' ),
    ( '' ),
    'SwSTEP 2.0',
    'SolidWorks 2025',
    '' );
FILE_SCHEMA (( 'AUTOMOTIVE_DESIGN' ));
ENDSEC;

DATA;
#1 = FACE_OUTER_BOUND ( 'NONE', #204, .T. ) ;
#2 = AXIS2_PLACEMENT_3D ( 'NONE', #978, #319, #336 ) ;
#3 = CYLINDRICAL_SURFACE ( 'NONE', #365, 3.000000000000000888 ) ;
#4 = ORIENTED_EDGE ( 'NONE', *, *, #650, .F. ) ;
#5 = AXIS2_PLACEMENT_3D ( 'NONE', #926, #651, #121 ) ;
#6 = ORIENTED_EDGE ( 'NONE', *, *, #1123, .F. ) ;
#7 = CARTESIAN_POINT ( 'NONE',  ( -20.50000000000000355, 0.000000000000000000, -14.79898987322332538 ) ) ;
#8 = PLANE ( 'NONE',  #290 ) ;
#9 = CARTESIAN_POINT ( 'NONE',  ( -20.50000000000000355, 0.000000000000000000, 18.04898987322332005 ) ) ;
#10 = EDGE_LOOP ( 'NONE', ( #1012, #596, #1083, #14 ) ) ;
#11 = EDGE_CURVE ( 'NONE', #877, #676, #128, .T. ) ;
#12 = CARTESIAN_POINT ( 'NONE',  ( 20.50000000000000355, 0.000000000000000000, 21.54898987322333070 ) ) ;
#13 = FACE_OUTER_BOUND ( 'NONE', #1159, .T. ) ;
#14 = ORIENTED_EDGE ( 'NONE', *, *, #1156, .F. ) ;
#15 = VERTEX_POINT ( 'NONE', #643 ) ;
#16 = ADVANCED_FACE ( 'NONE', ( #660 ), #461, .T. ) ;
#17 = DIRECTION ( 'NONE',  ( 0.000000000000000000, 0.000000000000000000, 1.000000000000000000 ) ) ;
#18 = DIRECTION ( 'NONE',  ( -0.000000000000000000, 1.000000000000000000, -0.000000000000000000 ) ) ;
#19 = CYLINDRICAL_SURFACE ( 'NONE', #220, 32.50000000000000711 ) ;
#20 = VERTEX_POINT ( 'NONE', #362 ) ;
#21 = CIRCLE ( 'NONE', #748, 2.999999999999999112 ) ;
#22 = ORIENTED_EDGE ( 'NONE', *, *, #414, .F. ) ;
#23 = AXIS2_PLACEMENT_3D ( 'NONE', #1077, #442, #262 ) ;
#24 = AXIS2_PLACEMENT_3D ( 'NONE', #619, #810, #632 ) ;
#25 = LINE ( 'NONE', #374, #293 ) ;
#26 = CARTESIAN_POINT ( 'NONE',  ( -20.50000000000000355, 3.000000000000000000, -18.04898987322332005 ) ) ;
#27 = DIRECTION ( 'NONE',  ( 0.000000000000000000, 1.000000000000000000, -0.000000000000000000 ) ) ;
#28 = CARTESIAN_POINT ( 'NONE',  ( 16.37906831720231082, 0.000000000000000000, 28.07091236601368323 ) ) ;
#29 = VERTEX_POINT ( 'NONE', #725 ) ;
#30 = APPLICATION_PROTOCOL_DEFINITION ( 'draft international standard', 'automotive_design', 1998, #546 ) ;
#31 = PRESENTATION_STYLE_ASSIGNMENT (( #375 ) ) ;
#32 = DIRECTION ( 'NONE',  ( 0.000000000000000000, 1.000000000000000000, 0.000000000000000000 ) ) ;
#33 = CARTESIAN_POINT ( 'NONE',  ( 0.000000000000000000, 0.000000000000000000, 32.50000000000000711 ) ) ;
#34 = EDGE_CURVE ( 'NONE', #1102, #505, #743, .T. ) ;
#35 = ORIENTED_EDGE ( 'NONE', *, *, #1104, .T. ) ;
#36 = CARTESIAN_POINT ( 'NONE',  ( -25.98141447170574025, 0.000000000000000000, 16.97197559579316817 ) ) ;
#37 = CARTESIAN_POINT ( 'NONE',  ( -20.50000000000000355, 0.000000000000000000, -19.79898987322332715 ) ) ;
#38 = ORIENTED_EDGE ( 'NONE', *, *, #760, .F. ) ;
#39 = VERTEX_POINT ( 'NONE', #28 ) ;
#40 = VECTOR ( 'NONE', #910, 1000.000000000000000 ) ;
#41 = VECTOR ( 'NONE', #584, 1000.000000000000000 ) ;
#42 =( NAMED_UNIT ( * ) PLANE_ANGLE_UNIT ( ) SI_UNIT ( $, .RADIAN. ) );
#43 = CIRCLE ( 'NONE', #878, 1.750000000000005107 ) ;
#44 = AXIS2_PLACEMENT_3D ( 'NONE', #346, #177, #1079 ) ;
#45 = DIRECTION ( 'NONE',  ( 0.000000000000000000, 1.000000000000000000, 0.000000000000000000 ) ) ;
#46 = DIRECTION ( 'NONE',  ( -0.000000000000000000, 1.000000000000000000, -0.000000000000000000 ) ) ;
#47 = ORIENTED_EDGE ( 'NONE', *, *, #34, .T. ) ;
#48 = DIRECTION ( 'NONE',  ( 0.000000000000000000, 0.000000000000000000, 1.000000000000000000 ) ) ;
#49 = CARTESIAN_POINT ( 'NONE',  ( 23.92588404481609032, 3.000000000000000000, 16.15710594982947867 ) ) ;
#50 = PLANE ( 'NONE',  #131 ) ;
#51 = VERTEX_POINT ( 'NONE', #106 ) ;
#52 = ADVANCED_FACE ( 'NONE', ( #454 ), #1150, .F. ) ;
#53 = CARTESIAN_POINT ( 'NONE',  ( 0.000000000000000000, 0.000000000000000000, 0.000000000000000000 ) ) ;
#54 = CARTESIAN_POINT ( 'NONE',  ( 20.50000000000000355, 0.000000000000000000, -19.79898987322332715 ) ) ;
#55 = ORIENTED_EDGE ( 'NONE', *, *, #1123, .T. ) ;
#56 = AXIS2_PLACEMENT_3D ( 'NONE', #1144, #408, #964 ) ;
#57 = CIRCLE ( 'NONE', #75, 1.750000000000005107 ) ;
#58 = CARTESIAN_POINT ( 'NONE',  ( -25.98141447170574025, 3.000000000000000000, 13.97197559579316994 ) ) ;
#59 = CIRCLE ( 'NONE', #147, 1.750000000000005107 ) ;
#60 = AXIS2_PLACEMENT_3D ( 'NONE', #431, #84, #1076 ) ;
#61 = DIRECTION ( 'NONE',  ( 0.000000000000000000, 0.000000000000000000, 1.000000000000000000 ) ) ;
#62 = EDGE_CURVE ( 'NONE', #344, #560, #159, .T. ) ;
#63 = DIRECTION ( 'NONE',  ( 0.000000000000000000, 0.000000000000000000, 1.000000000000000000 ) ) ;
#64 = VERTEX_POINT ( 'NONE', #984 ) ;
#65 = CARTESIAN_POINT ( 'NONE',  ( -16.37906831720230016, 0.000000000000000000, 28.07091236601368678 ) ) ;
#66 = CARTESIAN_POINT ( 'NONE',  ( -28.62359221459107061, 0.000000000000000000, -15.39285446994162321 ) ) ;
#67 = EDGE_CURVE ( 'NONE', #685, #828, #992, .T. ) ;
#68 = EDGE_LOOP ( 'NONE', ( #580, #979, #221, #151 ) ) ;
#69 = CARTESIAN_POINT ( 'NONE',  ( 5.204748896376250896E-15, 3.000000000000000000, 42.50000000000000000 ) ) ;
#70 = DIRECTION ( 'NONE',  ( 0.000000000000000000, 0.000000000000000000, 1.000000000000000000 ) ) ;
#71 = DIRECTION ( 'NONE',  ( 0.000000000000000000, 1.000000000000000000, 0.000000000000000000 ) ) ;
#72 = ORIENTED_EDGE ( 'NONE', *, *, #888, .T. ) ;
#73 = AXIS2_PLACEMENT_3D ( 'NONE', #1151, #862, #150 ) ;
#74 = DIRECTION ( 'NONE',  ( 0.000000000000000000, 1.000000000000000000, 0.000000000000000000 ) ) ;
#75 = AXIS2_PLACEMENT_3D ( 'NONE', #354, #889, #271 ) ;
#76 = CARTESIAN_POINT ( 'NONE',  ( 25.98141447170574025, 3.000000000000000000, -13.97197559579317350 ) ) ;
#77 = AXIS2_PLACEMENT_3D ( 'NONE', #499, #415, #778 ) ;
#78 = ORIENTED_EDGE ( 'NONE', *, *, #641, .F. ) ;
#79 = EDGE_LOOP ( 'NONE', ( #782, #1066, #1152, #190 ) ) ;
#80 = DIRECTION ( 'NONE',  ( 0.000000000000000000, 0.000000000000000000, -1.000000000000000000 ) ) ;
#81 = CARTESIAN_POINT ( 'NONE',  ( -20.50000000000000355, 3.000000000000000000, 21.54898987322333070 ) ) ;
#82 = ORIENTED_EDGE ( 'NONE', *, *, #137, .T. ) ;
#83 = ORIENTED_EDGE ( 'NONE', *, *, #140, .F. ) ;
#84 = DIRECTION ( 'NONE',  ( -0.000000000000000000, -1.000000000000000000, -0.000000000000000000 ) ) ;
#85 = CARTESIAN_POINT ( 'NONE',  ( 0.000000000000000000, 0.000000000000000000, 0.000000000000000000 ) ) ;
#86 = DIRECTION ( 'NONE',  ( 0.000000000000000000, 1.000000000000000000, -0.000000000000000000 ) ) ;
#87 = ORIENTED_EDGE ( 'NONE', *, *, #383, .F. ) ;
#88 = DIRECTION ( 'NONE',  ( -0.000000000000000000, -1.000000000000000000, -0.000000000000000000 ) ) ;
#89 = FACE_OUTER_BOUND ( 'NONE', #324, .T. ) ;
#90 = CLOSED_SHELL ( 'NONE', ( #604, #927, #579, #474, #792, #419, #981, #525, #601, #16, #626, #116, #334, #674, #1092, #544, #1085, #958, #243, #451, #52, #829, #1134, #772, #1057, #439, #260, #104, #504, #1016, #681, #678, #283 ) ) ;
#91 = AXIS2_PLACEMENT_3D ( 'NONE', #1136, #1064, #411 ) ;
#92 = CARTESIAN_POINT ( 'NONE',  ( 0.000000000000000000, 3.000000000000000000, 0.000000000000000000 ) ) ;
#93 = VERTEX_POINT ( 'NONE', #617 ) ;
#94 = EDGE_CURVE ( 'NONE', #39, #720, #576, .T. ) ;
#95 = AXIS2_PLACEMENT_3D ( 'NONE', #1028, #45, #756 ) ;
#96 = ORIENTED_EDGE ( 'NONE', *, *, #296, .T. ) ;
#97 = CARTESIAN_POINT ( 'NONE',  ( 16.97947144918207840, 3.000000000000000000, -23.34946571779343572 ) ) ;
#98 = DIRECTION ( 'NONE',  ( 0.000000000000000000, 0.000000000000000000, 1.000000000000000000 ) ) ;
#99 = ORIENTED_EDGE ( 'NONE', *, *, #489, .F. ) ;
#100 = EDGE_CURVE ( 'NONE', #1061, #727, #765, .T. ) ;
#101 = VERTEX_POINT ( 'NONE', #663 ) ;
#102 = DIRECTION ( 'NONE',  ( 0.000000000000000000, 1.000000000000000000, -0.000000000000000000 ) ) ;
#103 = CYLINDRICAL_SURFACE ( 'NONE', #511, 2.999999999999999112 ) ;
#104 = ADVANCED_FACE ( 'NONE', ( #295 ), #574, .F. ) ;
#105 = DIRECTION ( 'NONE',  ( 0.000000000000000000, 0.000000000000000000, 1.000000000000000000 ) ) ;
#106 = CARTESIAN_POINT ( 'NONE',  ( 23.92588404481609032, 3.000000000000000000, -16.15710594982947867 ) ) ;
#107 = EDGE_LOOP ( 'NONE', ( #1054, #833, #991, #680 ) ) ;
#108 = FACE_OUTER_BOUND ( 'NONE', #79, .T. ) ;
#109 = CARTESIAN_POINT ( 'NONE',  ( 0.000000000000000000, 3.000000000000000000, 32.50000000000000711 ) ) ;
#110 = AXIS2_PLACEMENT_3D ( 'NONE', #549, #1081, #105 ) ;
#111 = DIRECTION ( 'NONE',  ( -0.000000000000000000, -1.000000000000000000, -0.000000000000000000 ) ) ;
#112 = VERTEX_POINT ( 'NONE', #208 ) ;
#113 = CIRCLE ( 'NONE', #205, 2.999999999999999112 ) ;
#114 = EDGE_LOOP ( 'NONE', ( #258, #6 ) ) ;
#115 = VECTOR ( 'NONE', #297, 1000.000000000000000 ) ;
#116 = ADVANCED_FACE ( 'NONE', ( #562, #925, #1118, #669, #138, #585 ), #50, .F. ) ;
#117 = CARTESIAN_POINT ( 'NONE',  ( 0.000000000000000000, 0.000000000000000000, 0.000000000000000000 ) ) ;
#118 = ORIENTED_EDGE ( 'NONE', *, *, #808, .F. ) ;
#119 = VERTEX_POINT ( 'NONE', #168 ) ;
#120 = DIRECTION ( 'NONE',  ( 0.000000000000000000, 0.000000000000000000, 1.000000000000000000 ) ) ;
#121 = DIRECTION ( 'NONE',  ( 0.000000000000000000, 0.000000000000000000, 1.000000000000000000 ) ) ;
#122 = CARTESIAN_POINT ( 'NONE',  ( 5.204748896376250896E-15, 3.000000000000000000, 42.50000000000000000 ) ) ;
#123 = VERTEX_POINT ( 'NONE', #781 ) ;
#124 = ORIENTED_EDGE ( 'NONE', *, *, #567, .T. ) ;
#125 = LINE ( 'NONE', #561, #485 ) ;
#126 = DIRECTION ( 'NONE',  ( 0.000000000000000000, 0.000000000000000000, 1.000000000000000000 ) ) ;
#127 = CARTESIAN_POINT ( 'NONE',  ( 23.92588404481609032, 0.000000000000000000, 16.15710594982947867 ) ) ;
#128 = LINE ( 'NONE', #33, #1049 ) ;
#129 = EDGE_CURVE ( 'NONE', #101, #464, #531, .T. ) ;
#130 = ORIENTED_EDGE ( 'NONE', *, *, #641, .T. ) ;
#131 = AXIS2_PLACEMENT_3D ( 'NONE', #1065, #424, #876 ) ;
#132 = AXIS2_PLACEMENT_3D ( 'NONE', #866, #589, #407 ) ;
#133 = AXIS2_PLACEMENT_3D ( 'NONE', #333, #162, #1044 ) ;
#134 = CARTESIAN_POINT ( 'NONE',  ( -16.97947144918207485, 3.000000000000000000, -23.34946571779343572 ) ) ;
#135 = CARTESIAN_POINT ( 'NONE',  ( -28.62359221459107772, 0.000000000000000000, -15.39285446994162676 ) ) ;
#136 = EDGE_LOOP ( 'NONE', ( #871, #475, #72, #78 ) ) ;
#137 = EDGE_CURVE ( 'NONE', #828, #929, #788, .T. ) ;
#138 = FACE_OUTER_BOUND ( 'NONE', #509, .T. ) ;
#139 = DIRECTION ( 'NONE',  ( 0.000000000000000000, 0.000000000000000000, -1.000000000000000000 ) ) ;
#140 = EDGE_CURVE ( 'NONE', #29, #518, #708, .T. ) ;
#141 = ORIENTED_EDGE ( 'NONE', *, *, #355, .F. ) ;
#142 = DIRECTION ( 'NONE',  ( -0.000000000000000000, 1.000000000000000000, -0.000000000000000000 ) ) ;
#143 = CARTESIAN_POINT ( 'NONE',  ( 28.62359221459107061, 3.000000000000000000, 15.39285446994162321 ) ) ;
#144 = VERTEX_POINT ( 'NONE', #429 ) ;
#145 = AXIS2_PLACEMENT_3D ( 'NONE', #1131, #165, #231 ) ;
#146 = DIRECTION ( 'NONE',  ( -0.000000000000000000, -1.000000000000000000, -0.000000000000000000 ) ) ;
#147 = AXIS2_PLACEMENT_3D ( 'NONE', #316, #592, #493 ) ;
#148 = EDGE_CURVE ( 'NONE', #661, #846, #801, .T. ) ;
#149 = DIRECTION ( 'NONE',  ( -0.000000000000000000, -1.000000000000000000, -0.000000000000000000 ) ) ;
#150 = DIRECTION ( 'NONE',  ( 0.000000000000000000, 0.000000000000000000, 1.000000000000000000 ) ) ;
#151 = ORIENTED_EDGE ( 'NONE', *, *, #755, .F. ) ;
#152 = EDGE_CURVE ( 'NONE', #233, #123, #954, .T. ) ;
#153 = CYLINDRICAL_SURFACE ( 'NONE', #920, 5.000000000000000888 ) ;
#154 = FACE_OUTER_BOUND ( 'NONE', #773, .T. ) ;
#155 = DIRECTION ( 'NONE',  ( 0.000000000000000000, 1.000000000000000000, -0.000000000000000000 ) ) ;
#156 = ORIENTED_EDGE ( 'NONE', *, *, #317, .T. ) ;
#157 = DIRECTION ( 'NONE',  ( 0.000000000000000000, 0.000000000000000000, 1.000000000000000000 ) ) ;
#158 = CYLINDRICAL_SURFACE ( 'NONE', #533, 1.750000000000005107 ) ;
#159 = LINE ( 'NONE', #621, #898 ) ;
#160 = ORIENTED_EDGE ( 'NONE', *, *, #467, .T. ) ;
#161 = EDGE_CURVE ( 'NONE', #470, #373, #202, .T. ) ;
#162 = DIRECTION ( 'NONE',  ( -0.000000000000000000, -1.000000000000000000, -0.000000000000000000 ) ) ;
#163 = CIRCLE ( 'NONE', #710, 1.750000000000005107 ) ;
#164 = CIRCLE ( 'NONE', #95, 2.999999999999999112 ) ;
#165 = DIRECTION ( 'NONE',  ( -0.000000000000000000, 1.000000000000000000, -0.000000000000000000 ) ) ;
#166 = CARTESIAN_POINT ( 'NONE',  ( -20.50000000000000355, 3.000000000000000000, -19.79898987322332715 ) ) ;
#167 = AXIS2_PLACEMENT_3D ( 'NONE', #191, #452, #277 ) ;
#168 = CARTESIAN_POINT ( 'NONE',  ( 0.000000000000000000, 0.000000000000000000, -42.50000000000000000 ) ) ;
#169 = ORIENTED_EDGE ( 'NONE', *, *, #1062, .T. ) ;
#170 = ORIENTED_EDGE ( 'NONE', *, *, #895, .F. ) ;
#171 = DIRECTION ( 'NONE',  ( 0.000000000000000000, 0.000000000000000000, -1.000000000000000000 ) ) ;
#172 = DIRECTION ( 'NONE',  ( 0.000000000000000000, 1.000000000000000000, 0.000000000000000000 ) ) ;
#173 = DIRECTION ( 'NONE',  ( 0.000000000000000000, 0.000000000000000000, 1.000000000000000000 ) ) ;
#174 = ORIENTED_EDGE ( 'NONE', *, *, #178, .F. ) ;
#175 = ORIENTED_EDGE ( 'NONE', *, *, #656, .F. ) ;
#176 = UNCERTAINTY_MEASURE_WITH_UNIT (LENGTH_MEASURE( 1.000000000000000082E-05 ), #1024, 'distance_accuracy_value', 'NONE');
#177 = DIRECTION ( 'NONE',  ( 0.000000000000000000, 1.000000000000000000, 0.000000000000000000 ) ) ;
#178 = EDGE_CURVE ( 'NONE', #720, #101, #412, .T. ) ;
#179 = CARTESIAN_POINT ( 'NONE',  ( 20.50000000000000355, 3.000000000000000000, -18.04898987322332005 ) ) ;
#180 = DIRECTION ( 'NONE',  ( 0.000000000000000000, 0.000000000000000000, 1.000000000000000000 ) ) ;
#181 = EDGE_LOOP ( 'NONE', ( #623, #170, #245, #281 ) ) ;
#182 = CARTESIAN_POINT ( 'NONE',  ( -20.50000000000000355, 3.000000000000000000, -19.79898987322332715 ) ) ;
#183 = DIRECTION ( 'NONE',  ( 0.000000000000000000, 0.000000000000000000, 1.000000000000000000 ) ) ;
#184 = CIRCLE ( 'NONE', #1089, 1.750000000000005107 ) ;
#185 = EDGE_CURVE ( 'NONE', #828, #685, #184, .T. ) ;
#186 = VECTOR ( 'NONE', #940, 1000.000000000000000 ) ;
#187 = DIRECTION ( 'NONE',  ( -0.000000000000000000, -1.000000000000000000, -0.000000000000000000 ) ) ;
#188 = ORIENTED_EDGE ( 'NONE', *, *, #248, .T. ) ;
#189 = AXIS2_PLACEMENT_3D ( 'NONE', #658, #937, #736 ) ;
#190 = ORIENTED_EDGE ( 'NONE', *, *, #391, .T. ) ;
#191 = CARTESIAN_POINT ( 'NONE',  ( -25.98141447170574025, 0.000000000000000000, 13.97197559579316994 ) ) ;
#192 = DIRECTION ( 'NONE',  ( 0.000000000000000000, -0.000000000000000000, 1.000000000000000000 ) ) ;
#193 = EDGE_LOOP ( 'NONE', ( #211, #4, #965, #763 ) ) ;
#194 = ORIENTED_EDGE ( 'NONE', *, *, #314, .T. ) ;
#195 = CARTESIAN_POINT ( 'NONE',  ( -25.98141447170574025, 0.000000000000000000, 13.97197559579316994 ) ) ;
#196 = LINE ( 'NONE', #541, #234 ) ;
#197 = ORIENTED_EDGE ( 'NONE', *, *, #1156, .T. ) ;
#198 = EDGE_LOOP ( 'NONE', ( #758, #1094, #655, #838 ) ) ;
#199 = EDGE_CURVE ( 'NONE', #228, #15, #839, .T. ) ;
#200 = CARTESIAN_POINT ( 'NONE',  ( 23.92588404481609032, 0.000000000000000000, -16.15710594982947867 ) ) ;
#201 = CARTESIAN_POINT ( 'NONE',  ( 16.37906831720230016, 0.000000000000000000, -28.07091236601368678 ) ) ;
#202 = CIRCLE ( 'NONE', #2, 3.000000000000000888 ) ;
#203 = FACE_OUTER_BOUND ( 'NONE', #1078, .T. ) ;
#204 = EDGE_LOOP ( 'NONE', ( #529, #413, #435, #473 ) ) ;
#205 = AXIS2_PLACEMENT_3D ( 'NONE', #76, #416, #500 ) ;
#206 = ORIENTED_EDGE ( 'NONE', *, *, #229, .F. ) ;
#207 = COLOUR_RGB ( '',0.7921568627450980005, 0.8196078431372548767, 0.9333333333333333481 ) ;
#208 = CARTESIAN_POINT ( 'NONE',  ( -16.37906831720230372, 3.000000000000000000, -28.07091236601368678 ) ) ;
#209 = DIRECTION ( 'NONE',  ( -0.000000000000000000, 1.000000000000000000, -0.000000000000000000 ) ) ;
#210 = FACE_OUTER_BOUND ( 'NONE', #446, .T. ) ;
#211 = ORIENTED_EDGE ( 'NONE', *, *, #11, .F. ) ;
#212 = ORIENTED_EDGE ( 'NONE', *, *, #824, .F. ) ;
#213 = DIRECTION ( 'NONE',  ( 1.000000000000000000, 0.000000000000000000, 0.000000000000000000 ) ) ;
#214 = EDGE_CURVE ( 'NONE', #1005, #93, #287, .T. ) ;
#215 = LINE ( 'NONE', #127, #900 ) ;
#216 = DIRECTION ( 'NONE',  ( -0.000000000000000000, -1.000000000000000000, -0.000000000000000000 ) ) ;
#217 = ORIENTED_EDGE ( 'NONE', *, *, #612, .F. ) ;
#218 = CARTESIAN_POINT ( 'NONE',  ( 0.000000000000000000, 0.000000000000000000, 0.000000000000000000 ) ) ;
#219 = EDGE_CURVE ( 'NONE', #974, #1007, #331, .T. ) ;
#220 = AXIS2_PLACEMENT_3D ( 'NONE', #356, #449, #267 ) ;
#221 = ORIENTED_EDGE ( 'NONE', *, *, #847, .F. ) ;
#222 = CIRCLE ( 'NONE', #133, 3.000000000000000888 ) ;
#223 = LINE ( 'NONE', #583, #675 ) ;
#224 = DIRECTION ( 'NONE',  ( 0.000000000000000000, 0.000000000000000000, 1.000000000000000000 ) ) ;
#225 = EDGE_LOOP ( 'NONE', ( #426, #124, #22, #1043 ) ) ;
#226 = CARTESIAN_POINT ( 'NONE',  ( -20.50000000000000355, 0.000000000000000000, 19.79898987322332715 ) ) ;
#227 = LINE ( 'NONE', #948, #597 ) ;
#228 = VERTEX_POINT ( 'NONE', #684 ) ;
#229 = EDGE_CURVE ( 'NONE', #933, #629, #697, .T. ) ;
#230 = DIRECTION ( 'NONE',  ( 0.000000000000000000, 1.000000000000000000, 0.000000000000000000 ) ) ;
#231 = DIRECTION ( 'NONE',  ( 0.000000000000000000, 0.000000000000000000, 1.000000000000000000 ) ) ;
#232 = CARTESIAN_POINT ( 'NONE',  ( -20.50000000000000355, 3.000000000000000000, -21.54898987322333070 ) ) ;
#233 = VERTEX_POINT ( 'NONE', #647 ) ;
#234 = VECTOR ( 'NONE', #616, 1000.000000000000000 ) ;
#235 = FACE_OUTER_BOUND ( 'NONE', #350, .T. ) ;
#236 = AXIS2_PLACEMENT_3D ( 'NONE', #226, #699, #608 ) ;
#237 = CIRCLE ( 'NONE', #903, 2.999999999999999112 ) ;
#238 = LINE ( 'NONE', #81, #1050 ) ;
#239 = ORIENTED_EDGE ( 'NONE', *, *, #148, .F. ) ;
#240 = CARTESIAN_POINT ( 'NONE',  ( -16.97947144918207485, 0.000000000000000000, -23.34946571779343572 ) ) ;
#241 = FACE_BOUND ( 'NONE', #935, .T. ) ;
#242 = DIRECTION ( 'NONE',  ( 0.000000000000000000, 0.000000000000000000, 1.000000000000000000 ) ) ;
#243 = ADVANCED_FACE ( 'NONE', ( #637 ), #19, .F. ) ;
#244 = DIRECTION ( 'NONE',  ( -0.000000000000000000, 1.000000000000000000, -0.000000000000000000 ) ) ;
#245 = ORIENTED_EDGE ( 'NONE', *, *, #280, .F. ) ;
#246 = LINE ( 'NONE', #506, #768 ) ;
#247 = CARTESIAN_POINT ( 'NONE',  ( 20.50000000000000355, 3.000000000000000000, 21.54898987322333070 ) ) ;
#248 = EDGE_CURVE ( 'NONE', #1112, #112, #1103, .T. ) ;
#249 = CARTESIAN_POINT ( 'NONE',  ( 16.97947144918207840, 0.000000000000000000, 23.34946571779343572 ) ) ;
#250 = ORIENTED_EDGE ( 'NONE', *, *, #351, .T. ) ;
#251 = ORIENTED_EDGE ( 'NONE', *, *, #1073, .T. ) ;
#252 = AXIS2_PLACEMENT_3D ( 'NONE', #826, #349, #798 ) ;
#253 = DIRECTION ( 'NONE',  ( 0.000000000000000000, 1.000000000000000000, -0.000000000000000000 ) ) ;
#254 = AXIS2_PLACEMENT_3D ( 'NONE', #1100, #757, #139 ) ;
#255 = AXIS2_PLACEMENT_3D ( 'NONE', #1048, #865, #947 ) ;
#256 = AXIS2_PLACEMENT_3D ( 'NONE', #195, #266, #797 ) ;
#257 = DIRECTION ( 'NONE',  ( 0.000000000000000000, -1.000000000000000000, 0.000000000000000000 ) ) ;
#258 = ORIENTED_EDGE ( 'NONE', *, *, #880, .F. ) ;
#259 = ORIENTED_EDGE ( 'NONE', *, *, #849, .F. ) ;
#260 = ADVANCED_FACE ( 'NONE', ( #528 ), #3, .F. ) ;
#261 = DIRECTION ( 'NONE',  ( 0.000000000000000000, 1.000000000000000000, 0.000000000000000000 ) ) ;
#262 = DIRECTION ( 'NONE',  ( 0.000000000000000000, 0.000000000000000000, 1.000000000000000000 ) ) ;
#263 = ORIENTED_EDGE ( 'NONE', *, *, #847, .T. ) ;
#264 = ORIENTED_EDGE ( 'NONE', *, *, #1041, .T. ) ;
#265 = EDGE_CURVE ( 'NONE', #727, #112, #479, .T. ) ;
#266 = DIRECTION ( 'NONE',  ( -0.000000000000000000, 1.000000000000000000, -0.000000000000000000 ) ) ;
#267 = DIRECTION ( 'NONE',  ( 0.000000000000000000, 0.000000000000000000, 1.000000000000000000 ) ) ;
#268 = ORIENTED_EDGE ( 'NONE', *, *, #726, .T. ) ;
#269 = EDGE_LOOP ( 'NONE', ( #1116, #892, #377, #1011 ) ) ;
#270 = DIRECTION ( 'NONE',  ( 0.000000000000000000, 1.000000000000000000, 0.000000000000000000 ) ) ;
#271 = DIRECTION ( 'NONE',  ( 0.000000000000000000, 0.000000000000000000, 1.000000000000000000 ) ) ;
#272 = AXIS2_PLACEMENT_3D ( 'NONE', #1004, #434, #622 ) ;
#273 = CARTESIAN_POINT ( 'NONE',  ( 20.50000000000000355, 3.000000000000000000, -19.79898987322332715 ) ) ;
#274 = ORIENTED_EDGE ( 'NONE', *, *, #265, .T. ) ;
#275 = AXIS2_PLACEMENT_3D ( 'NONE', #856, #677, #421 ) ;
#276 = ORIENTED_EDGE ( 'NONE', *, *, #1119, .F. ) ;
#277 = DIRECTION ( 'NONE',  ( 0.000000000000000000, 0.000000000000000000, 1.000000000000000000 ) ) ;
#278 = DIRECTION ( 'NONE',  ( -0.000000000000000000, -1.000000000000000000, -0.000000000000000000 ) ) ;
#279 = VERTEX_POINT ( 'NONE', #642 ) ;
#280 = EDGE_CURVE ( 'NONE', #20, #492, #891, .T. ) ;
#281 = ORIENTED_EDGE ( 'NONE', *, *, #739, .F. ) ;
#282 = CARTESIAN_POINT ( 'NONE',  ( 20.50000000000000355, 3.000000000000000000, -21.54898987322333070 ) ) ;
#283 = ADVANCED_FACE ( 'NONE', ( #13 ), #714, .F. ) ;
#284 = ORIENTED_EDGE ( 'NONE', *, *, #1047, .F. ) ;
#285 = ORIENTED_EDGE ( 'NONE', *, *, #140, .T. ) ;
#286 = FILL_AREA_STYLE_COLOUR ( '', #207 ) ;
#287 = CIRCLE ( 'NONE', #857, 1.750000000000005107 ) ;
#288 = CARTESIAN_POINT ( 'NONE',  ( -28.62359221459106706, 0.000000000000000000, 15.39285446994162498 ) ) ;
#289 = ORIENTED_EDGE ( 'NONE', *, *, #1119, .T. ) ;
#290 = AXIS2_PLACEMENT_3D ( 'NONE', #825, #172, #192 ) ;
#291 = ORIENTED_EDGE ( 'NONE', *, *, #946, .T. ) ;
#292 = VECTOR ( 'NONE', #1135, 1000.000000000000000 ) ;
#293 = VECTOR ( 'NONE', #754, 1000.000000000000000 ) ;
#294 = DIRECTION ( 'NONE',  ( -0.000000000000000000, 1.000000000000000000, -0.000000000000000000 ) ) ;
#295 = FACE_OUTER_BOUND ( 'NONE', #558, .T. ) ;
#296 = EDGE_CURVE ( 'NONE', #279, #344, #631, .T. ) ;
#297 = DIRECTION ( 'NONE',  ( -0.000000000000000000, -1.000000000000000000, -0.000000000000000000 ) ) ;
#298 = LINE ( 'NONE', #666, #41 ) ;
#299 = DIRECTION ( 'NONE',  ( -0.000000000000000000, 1.000000000000000000, -0.000000000000000000 ) ) ;
#300 = ORIENTED_EDGE ( 'NONE', *, *, #636, .T. ) ;
#301 = CARTESIAN_POINT ( 'NONE',  ( 0.000000000000000000, 0.000000000000000000, 0.000000000000000000 ) ) ;
#302 = EDGE_CURVE ( 'NONE', #586, #233, #611, .T. ) ;
#303 = FACE_OUTER_BOUND ( 'NONE', #777, .T. ) ;
#304 = ORIENTED_EDGE ( 'NONE', *, *, #433, .T. ) ;
#305 = DIRECTION ( 'NONE',  ( 0.000000000000000000, 0.000000000000000000, 1.000000000000000000 ) ) ;
#306 = DIRECTION ( 'NONE',  ( 0.000000000000000000, 0.000000000000000000, 1.000000000000000000 ) ) ;
#307 = VECTOR ( 'NONE', #794, 1000.000000000000000 ) ;
#308 = VERTEX_POINT ( 'NONE', #9 ) ;
#309 = AXIS2_PLACEMENT_3D ( 'NONE', #117, #46, #1029 ) ;
#310 = AXIS2_PLACEMENT_3D ( 'NONE', #53, #1139, #321 ) ;
#311 = AXIS2_PLACEMENT_3D ( 'NONE', #1091, #88, #80 ) ;
#312 = FACE_OUTER_BOUND ( 'NONE', #68, .T. ) ;
#313 = DIRECTION ( 'NONE',  ( -0.000000000000000000, 1.000000000000000000, -0.000000000000000000 ) ) ;
#314 = EDGE_CURVE ( 'NONE', #144, #980, #418, .T. ) ;
#315 = ORIENTED_EDGE ( 'NONE', *, *, #391, .F. ) ;
#316 = CARTESIAN_POINT ( 'NONE',  ( -20.50000000000000355, 0.000000000000000000, 19.79898987322332715 ) ) ;
#317 = EDGE_CURVE ( 'NONE', #629, #29, #345, .T. ) ;
#318 = DIRECTION ( 'NONE',  ( 0.000000000000000000, 0.000000000000000000, 1.000000000000000000 ) ) ;
#319 = DIRECTION ( 'NONE',  ( -0.000000000000000000, -1.000000000000000000, -0.000000000000000000 ) ) ;
#320 = ORIENTED_EDGE ( 'NONE', *, *, #665, .F. ) ;
#321 = DIRECTION ( 'NONE',  ( 0.000000000000000000, 0.000000000000000000, 1.000000000000000000 ) ) ;
#322 = FACE_OUTER_BOUND ( 'NONE', #269, .T. ) ;
#323 = CARTESIAN_POINT ( 'NONE',  ( 0.000000000000000000, 3.000000000000000000, 0.000000000000000000 ) ) ;
#324 = EDGE_LOOP ( 'NONE', ( #217, #250, #197, #455 ) ) ;
#325 = AXIS2_PLACEMENT_3D ( 'NONE', #370, #719, #444 ) ;
#326 = AXIS2_PLACEMENT_3D ( 'NONE', #487, #1128, #224 ) ;
#327 = EDGE_CURVE ( 'NONE', #417, #119, #437, .T. ) ;
#328 = CYLINDRICAL_SURFACE ( 'NONE', #1017, 3.000000000000000888 ) ;
#329 = AXIS2_PLACEMENT_3D ( 'NONE', #908, #887, #717 ) ;
#330 = FACE_OUTER_BOUND ( 'NONE', #225, .T. ) ;
#331 = LINE ( 'NONE', #1132, #728 ) ;
#332 = ORIENTED_EDGE ( 'NONE', *, *, #1147, .T. ) ;
#333 = CARTESIAN_POINT ( 'NONE',  ( 25.98141447170574381, 3.000000000000000000, 13.97197559579316817 ) ) ;
#334 = ADVANCED_FACE ( 'NONE', ( #990 ), #376, .T. ) ;
#335 = CARTESIAN_POINT ( 'NONE',  ( 0.000000000000000000, 3.000000000000000000, 0.000000000000000000 ) ) ;
#336 = DIRECTION ( 'NONE',  ( 0.000000000000000000, 0.000000000000000000, 1.000000000000000000 ) ) ;
#337 = ORIENTED_EDGE ( 'NONE', *, *, #67, .F. ) ;
#338 = EDGE_LOOP ( 'NONE', ( #1088, #337 ) ) ;
#339 = EDGE_CURVE ( 'NONE', #403, #735, #594, .T. ) ;
#340 = FACE_OUTER_BOUND ( 'NONE', #1067, .T. ) ;
#341 = CARTESIAN_POINT ( 'NONE',  ( -14.86715431869131798, 0.000000000000000000, 25.47975122453550156 ) ) ;
#342 = DIRECTION ( 'NONE',  ( 0.000000000000000000, 1.000000000000000000, 0.000000000000000000 ) ) ;
#343 = EDGE_LOOP ( 'NONE', ( #530, #371 ) ) ;
#344 = VERTEX_POINT ( 'NONE', #1087 ) ;
#345 = CIRCLE ( 'NONE', #919, 2.999999999999999112 ) ;
#346 = CARTESIAN_POINT ( 'NONE',  ( 0.000000000000000000, 3.000000000000000000, 0.000000000000000000 ) ) ;
#347 = VECTOR ( 'NONE', #575, 1000.000000000000000 ) ;
#348 = DIRECTION ( 'NONE',  ( 0.000000000000000000, 1.000000000000000000, 0.000000000000000000 ) ) ;
#349 = DIRECTION ( 'NONE',  ( -0.000000000000000000, 1.000000000000000000, -0.000000000000000000 ) ) ;
#350 = EDGE_LOOP ( 'NONE', ( #879, #194, #332, #644 ) ) ;
#351 = EDGE_CURVE ( 'NONE', #93, #1005, #731, .T. ) ;
#352 = VERTEX_POINT ( 'NONE', #848 ) ;
#353 = LINE ( 'NONE', #1113, #973 ) ;
#354 = CARTESIAN_POINT ( 'NONE',  ( 20.50000000000000355, 0.000000000000000000, -19.79898987322332715 ) ) ;
#355 = EDGE_CURVE ( 'NONE', #1021, #906, #1141, .T. ) ;
#356 = CARTESIAN_POINT ( 'NONE',  ( 0.000000000000000000, 0.000000000000000000, 0.000000000000000000 ) ) ;
#357 = ORIENTED_EDGE ( 'NONE', *, *, #11, .T. ) ;
#358 = EDGE_LOOP ( 'NONE', ( #398, #55, #47, #618 ) ) ;
#359 = CARTESIAN_POINT ( 'NONE',  ( 20.50000000000000355, 3.000000000000000000, -14.79898987322332893 ) ) ;
#360 = DIRECTION ( 'NONE',  ( 0.000000000000000000, 0.000000000000000000, 1.000000000000000000 ) ) ;
#361 = DIRECTION ( 'NONE',  ( 0.000000000000000000, 0.000000000000000000, 1.000000000000000000 ) ) ;
#362 = CARTESIAN_POINT ( 'NONE',  ( -28.62359221459106706, 3.000000000000000000, 15.39285446994162498 ) ) ;
#363 = ORIENTED_EDGE ( 'NONE', *, *, #62, .F. ) ;
#364 = FACE_OUTER_BOUND ( 'NONE', #692, .T. ) ;
#365 = AXIS2_PLACEMENT_3D ( 'NONE', #896, #1010, #985 ) ;
#366 = EDGE_CURVE ( 'NONE', #624, #470, #578, .T. ) ;
#367 = DIRECTION ( 'NONE',  ( 0.000000000000000000, 0.000000000000000000, 1.000000000000000000 ) ) ;
#368 = VECTOR ( 'NONE', #149, 1000.000000000000000 ) ;
#369 = CIRCLE ( 'NONE', #1126, 2.999999999999999112 ) ;
#370 = CARTESIAN_POINT ( 'NONE',  ( 0.000000000000000000, 3.000000000000000000, 0.000000000000000000 ) ) ;
#371 = ORIENTED_EDGE ( 'NONE', *, *, #872, .T. ) ;
#372 = AXIS2_PLACEMENT_3D ( 'NONE', #438, #102, #527 ) ;
#373 = VERTEX_POINT ( 'NONE', #49 ) ;
#374 = CARTESIAN_POINT ( 'NONE',  ( -20.50000000000000355, 3.000000000000000000, 18.04898987322332005 ) ) ;
#375 = SURFACE_STYLE_USAGE ( .BOTH. , #1009 ) ;
#376 = CYLINDRICAL_SURFACE ( 'NONE', #970, 42.50000000000000000 ) ;
#377 = ORIENTED_EDGE ( 'NONE', *, *, #1062, .F. ) ;
#378 = EDGE_LOOP ( 'NONE', ( #571, #239, #821, #960 ) ) ;
#379 = DIRECTION ( 'NONE',  ( 0.000000000000000000, 1.000000000000000000, 0.000000000000000000 ) ) ;
#380 = CARTESIAN_POINT ( 'NONE',  ( -20.50000000000000355, 0.000000000000000000, -19.79898987322332715 ) ) ;
#381 = CARTESIAN_POINT ( 'NONE',  ( 0.000000000000000000, 3.000000000000000000, 0.000000000000000000 ) ) ;
#382 = DIRECTION ( 'NONE',  ( 0.000000000000000000, 0.000000000000000000, -1.000000000000000000 ) ) ;
#383 = EDGE_CURVE ( 'NONE', #279, #20, #458, .T. ) ;
#384 = ORIENTED_EDGE ( 'NONE', *, *, #400, .T. ) ;
#385 = LINE ( 'NONE', #746, #115 ) ;
#386 = DIRECTION ( 'NONE',  ( 0.000000000000000000, 1.000000000000000000, -0.000000000000000000 ) ) ;
#387 = ORIENTED_EDGE ( 'NONE', *, *, #1073, .F. ) ;
#388 = AXIS2_PLACEMENT_3D ( 'NONE', #606, #609, #602 ) ;
#389 = ORIENTED_EDGE ( 'NONE', *, *, #775, .T. ) ;
#390 = CIRCLE ( 'NONE', #255, 5.000000000000000888 ) ;
#391 = EDGE_CURVE ( 'NONE', #566, #279, #1120, .T. ) ;
#392 = CARTESIAN_POINT ( 'NONE',  ( -20.50000000000000355, 0.000000000000000000, 21.54898987322333070 ) ) ;
#393 = CARTESIAN_POINT ( 'NONE',  ( 20.50000000000000355, 0.000000000000000000, -19.79898987322332715 ) ) ;
#394 = DIRECTION ( 'NONE',  ( 0.000000000000000000, 0.000000000000000000, 1.000000000000000000 ) ) ;
#395 = ORIENTED_EDGE ( 'NONE', *, *, #721, .T. ) ;
#396 = CYLINDRICAL_SURFACE ( 'NONE', #653, 5.000000000000000888 ) ;
#397 = DIRECTION ( 'NONE',  ( 0.000000000000000000, 0.000000000000000000, 1.000000000000000000 ) ) ;
#398 = ORIENTED_EDGE ( 'NONE', *, *, #567, .F. ) ;
#399 = CARTESIAN_POINT ( 'NONE',  ( 0.000000000000000000, 0.000000000000000000, 0.000000000000000000 ) ) ;
#400 = EDGE_CURVE ( 'NONE', #735, #403, #823, .T. ) ;
#401 = CYLINDRICAL_SURFACE ( 'NONE', #326, 4.999999999999997335 ) ;
#402 = VECTOR ( 'NONE', #244, 1000.000000000000000 ) ;
#403 = VERTEX_POINT ( 'NONE', #750 ) ;
#404 = AXIS2_PLACEMENT_3D ( 'NONE', #381, #944, #557 ) ;
#405 = AXIS2_PLACEMENT_3D ( 'NONE', #635, #909, #998 ) ;
#406 = DIRECTION ( 'NONE',  ( -0.000000000000000000, -1.000000000000000000, -0.000000000000000000 ) ) ;
#407 = DIRECTION ( 'NONE',  ( 0.000000000000000000, 0.000000000000000000, -1.000000000000000000 ) ) ;
#408 = DIRECTION ( 'NONE',  ( -0.000000000000000000, -1.000000000000000000, -0.000000000000000000 ) ) ;
#409 = EDGE_LOOP ( 'NONE', ( #855, #268 ) ) ;
#410 = LINE ( 'NONE', #774, #292 ) ;
#411 = DIRECTION ( 'NONE',  ( 0.000000000000000000, 0.000000000000000000, 1.000000000000000000 ) ) ;
#412 = LINE ( 'NONE', #249, #969 ) ;
#413 = ORIENTED_EDGE ( 'NONE', *, *, #716, .F. ) ;
#414 = EDGE_CURVE ( 'NONE', #505, #1082, #440, .T. ) ;
#415 = DIRECTION ( 'NONE',  ( 0.000000000000000000, 1.000000000000000000, 0.000000000000000000 ) ) ;
#416 = DIRECTION ( 'NONE',  ( -0.000000000000000000, -1.000000000000000000, -0.000000000000000000 ) ) ;
#417 = VERTEX_POINT ( 'NONE', #679 ) ;
#418 = CIRCLE ( 'NONE', #110, 4.999999999999997335 ) ;
#419 = ADVANCED_FACE ( 'NONE', ( #203 ), #932, .F. ) ;
#420 = CIRCLE ( 'NONE', #482, 4.999999999999997335 ) ;
#421 = DIRECTION ( 'NONE',  ( 0.000000000000000000, 0.000000000000000000, 1.000000000000000000 ) ) ;
#422 = CIRCLE ( 'NONE', #443, 5.000000000000000888 ) ;
#423 = CARTESIAN_POINT ( 'NONE',  ( 20.50000000000000355, 3.000000000000000000, -19.79898987322332715 ) ) ;
#424 = DIRECTION ( 'NONE',  ( 0.000000000000000000, 1.000000000000000000, 0.000000000000000000 ) ) ;
#425 = ORIENTED_EDGE ( 'NONE', *, *, #1000, .F. ) ;
#426 = ORIENTED_EDGE ( 'NONE', *, *, #880, .T. ) ;
#427 = FACE_OUTER_BOUND ( 'NONE', #358, .T. ) ;
#428 = DIRECTION ( 'NONE',  ( -0.000000000000000000, -1.000000000000000000, -0.000000000000000000 ) ) ;
#429 = CARTESIAN_POINT ( 'NONE',  ( 20.50000000000000355, 0.000000000000000000, -14.79898987322332893 ) ) ;
#430 = ORIENTED_EDGE ( 'NONE', *, *, #161, .F. ) ;
#431 = CARTESIAN_POINT ( 'NONE',  ( 20.50000000000000355, 3.000000000000000000, 19.79898987322332715 ) ) ;
#432 = CARTESIAN_POINT ( 'NONE',  ( -20.50000000000000355, 0.000000000000000000, -19.79898987322332715 ) ) ;
#433 = EDGE_CURVE ( 'NONE', #657, #352, #163, .T. ) ;
#434 = DIRECTION ( 'NONE',  ( -0.000000000000000000, -1.000000000000000000, -0.000000000000000000 ) ) ;
#435 = ORIENTED_EDGE ( 'NONE', *, *, #265, .F. ) ;
#436 = ORIENTED_EDGE ( 'NONE', *, *, #519, .T. ) ;
#437 = CIRCLE ( 'NONE', #1013, 42.50000000000000000 ) ;
#438 = CARTESIAN_POINT ( 'NONE',  ( 20.50000000000000355, 3.000000000000000000, -19.79898987322332715 ) ) ;
#439 = ADVANCED_FACE ( 'NONE', ( #210 ), #1036, .F. ) ;
#440 = CIRCLE ( 'NONE', #1124, 1.750000000000005107 ) ;
#441 = CIRCLE ( 'NONE', #189, 2.999999999999999112 ) ;
#442 = DIRECTION ( 'NONE',  ( 0.000000000000000000, 1.000000000000000000, -0.000000000000000000 ) ) ;
#443 = AXIS2_PLACEMENT_3D ( 'NONE', #182, #253, #17 ) ;
#444 = DIRECTION ( 'NONE',  ( 0.000000000000000000, 0.000000000000000000, 1.000000000000000000 ) ) ;
#445 = ORIENTED_EDGE ( 'NONE', *, *, #463, .F. ) ;
#446 = EDGE_LOOP ( 'NONE', ( #1039, #1096, #545, #1158 ) ) ;
#447 = CARTESIAN_POINT ( 'NONE',  ( 20.50000000000000355, 3.000000000000000000, -19.79898987322332715 ) ) ;
#448 = FACE_OUTER_BOUND ( 'NONE', #107, .T. ) ;
#449 = DIRECTION ( 'NONE',  ( -0.000000000000000000, 1.000000000000000000, -0.000000000000000000 ) ) ;
#450 = ORIENTED_EDGE ( 'NONE', *, *, #327, .F. ) ;
#451 = ADVANCED_FACE ( 'NONE', ( #1110 ), #401, .T. ) ;
#452 = DIRECTION ( 'NONE',  ( 0.000000000000000000, 1.000000000000000000, 0.000000000000000000 ) ) ;
#453 = CARTESIAN_POINT ( 'NONE',  ( 0.000000000000000000, 3.000000000000000000, 0.000000000000000000 ) ) ;
#454 = FACE_OUTER_BOUND ( 'NONE', #193, .T. ) ;
#455 = ORIENTED_EDGE ( 'NONE', *, *, #872, .F. ) ;
#456 = EDGE_CURVE ( 'NONE', #144, #1001, #298, .T. ) ;
#457 = CARTESIAN_POINT ( 'NONE',  ( 20.50000000000000355, 0.000000000000000000, -21.54898987322333070 ) ) ;
#458 = CIRCLE ( 'NONE', #803, 32.50000000000000711 ) ;
#459 = VECTOR ( 'NONE', #146, 1000.000000000000000 ) ;
#460 = DIRECTION ( 'NONE',  ( 0.000000000000000000, 0.000000000000000000, 1.000000000000000000 ) ) ;
#461 = CYLINDRICAL_SURFACE ( 'NONE', #671, 42.50000000000000000 ) ;
#462 = AXIS2_PLACEMENT_3D ( 'NONE', #1160, #261, #532 ) ;
#463 = EDGE_CURVE ( 'NONE', #629, #676, #614, .T. ) ;
#464 = VERTEX_POINT ( 'NONE', #1025 ) ;
#465 = PRODUCT_CONTEXT ( 'NONE', #546, 'mechanical' ) ;
#466 = CYLINDRICAL_SURFACE ( 'NONE', #484, 4.999999999999997335 ) ;
#467 = EDGE_CURVE ( 'NONE', #373, #814, #215, .T. ) ;
#468 = DIRECTION ( 'NONE',  ( 0.000000000000000000, 1.000000000000000000, -0.000000000000000000 ) ) ;
#469 = ORIENTED_EDGE ( 'NONE', *, *, #67, .T. ) ;
#470 = VERTEX_POINT ( 'NONE', #1115 ) ;
#471 = DIRECTION ( 'NONE',  ( 0.000000000000000000, 0.000000000000000000, 1.000000000000000000 ) ) ;
#472 = DIRECTION ( 'NONE',  ( -0.000000000000000000, 1.000000000000000000, -0.000000000000000000 ) ) ;
#473 = ORIENTED_EDGE ( 'NONE', *, *, #539, .F. ) ;
#474 = ADVANCED_FACE ( 'NONE', ( #303 ), #843, .F. ) ;
#475 = ORIENTED_EDGE ( 'NONE', *, *, #339, .T. ) ;
#476 =( NAMED_UNIT ( * ) SI_UNIT ( $, .STERADIAN. ) SOLID_ANGLE_UNIT ( ) );
#477 = DIRECTION ( 'NONE',  ( 0.000000000000000000, 0.000000000000000000, 1.000000000000000000 ) ) ;
#478 = FACE_OUTER_BOUND ( 'NONE', #1145, .T. ) ;
#479 = CIRCLE ( 'NONE', #1031, 2.999999999999999112 ) ;
#480 = DIRECTION ( 'NONE',  ( 0.000000000000000000, 0.000000000000000000, 1.000000000000000000 ) ) ;
#481 = ORIENTED_EDGE ( 'NONE', *, *, #1023, .T. ) ;
#482 = AXIS2_PLACEMENT_3D ( 'NONE', #494, #689, #61 ) ;
#483 = ORIENTED_EDGE ( 'NONE', *, *, #137, .F. ) ;
#484 = AXIS2_PLACEMENT_3D ( 'NONE', #393, #1099, #471 ) ;
#485 = VECTOR ( 'NONE', #1098, 1000.000000000000000 ) ;
#486 = DIRECTION ( 'NONE',  ( 0.000000000000000000, 0.000000000000000000, 1.000000000000000000 ) ) ;
#487 = CARTESIAN_POINT ( 'NONE',  ( 20.50000000000000355, 0.000000000000000000, 19.79898987322332715 ) ) ;
#488 = ORIENTED_EDGE ( 'NONE', *, *, #507, .T. ) ;
#489 = EDGE_CURVE ( 'NONE', #877, #39, #994, .T. ) ;
#490 = DIRECTION ( 'NONE',  ( -0.000000000000000000, -1.000000000000000000, -0.000000000000000000 ) ) ;
#491 = CARTESIAN_POINT ( 'NONE',  ( 25.98141447170574381, 0.000000000000000000, 16.97197559579316817 ) ) ;
#492 = VERTEX_POINT ( 'NONE', #288 ) ;
#493 = DIRECTION ( 'NONE',  ( 0.000000000000000000, 0.000000000000000000, 1.000000000000000000 ) ) ;
#494 = CARTESIAN_POINT ( 'NONE',  ( 20.50000000000000355, 0.000000000000000000, 19.79898987322332715 ) ) ;
#495 = EDGE_LOOP ( 'NONE', ( #304, #130 ) ) ;
#496 = CIRCLE ( 'NONE', #729, 4.999999999999997335 ) ;
#497 = AXIS2_PLACEMENT_3D ( 'NONE', #931, #670, #741 ) ;
#498 = AXIS2_PLACEMENT_3D ( 'NONE', #834, #645, #213 ) ;
#499 = CARTESIAN_POINT ( 'NONE',  ( -25.98141447170574025, 0.000000000000000000, 13.97197559579316994 ) ) ;
#500 = DIRECTION ( 'NONE',  ( 0.000000000000000000, 0.000000000000000000, 1.000000000000000000 ) ) ;
#501 = EDGE_CURVE ( 'NONE', #846, #417, #928, .T. ) ;
#502 = ORIENTED_EDGE ( 'NONE', *, *, #591, .F. ) ;
#503 = CARTESIAN_POINT ( 'NONE',  ( -20.50000000000000355, 3.000000000000000000, -21.54898987322333070 ) ) ;
#504 = ADVANCED_FACE ( 'NONE', ( #154 ), #869, .F. ) ;
#505 = VERTEX_POINT ( 'NONE', #1051 ) ;
#506 = CARTESIAN_POINT ( 'NONE',  ( -25.98141447170574025, 0.000000000000000000, 16.97197559579316817 ) ) ;
#507 = EDGE_CURVE ( 'NONE', #51, #233, #113, .T. ) ;
#508 = DIRECTION ( 'NONE',  ( -0.000000000000000000, 1.000000000000000000, -0.000000000000000000 ) ) ;
#509 = EDGE_LOOP ( 'NONE', ( #212, #450 ) ) ;
#510 = AXIS2_PLACEMENT_3D ( 'NONE', #166, #516, #180 ) ;
#511 = AXIS2_PLACEMENT_3D ( 'NONE', #818, #18, #367 ) ;
#512 = CARTESIAN_POINT ( 'NONE',  ( 0.000000000000000000, 0.000000000000000000, 32.50000000000000711 ) ) ;
#513 = AXIS2_PLACEMENT_3D ( 'NONE', #1084, #270, #640 ) ;
#514 = AXIS2_PLACEMENT_3D ( 'NONE', #447, #1002, #704 ) ;
#515 = DIRECTION ( 'NONE',  ( -0.000000000000000000, -1.000000000000000000, -0.000000000000000000 ) ) ;
#516 = DIRECTION ( 'NONE',  ( 0.000000000000000000, 1.000000000000000000, 0.000000000000000000 ) ) ;
#517 = EDGE_LOOP ( 'NONE', ( #387, #790, #885, #526 ) ) ;
#518 = VERTEX_POINT ( 'NONE', #874 ) ;
#519 = EDGE_CURVE ( 'NONE', #1112, #974, #21, .T. ) ;
#520 = CARTESIAN_POINT ( 'NONE',  ( -20.50000000000000355, 3.000000000000000000, 18.04898987322332005 ) ) ;
#521 = FACE_BOUND ( 'NONE', #802, .T. ) ;
#522 = CARTESIAN_POINT ( 'NONE',  ( -20.50000000000000355, 3.000000000000000000, -19.79898987322332715 ) ) ;
#523 = CARTESIAN_POINT ( 'NONE',  ( -14.86715431869131976, 3.000000000000000000, -25.47975122453550156 ) ) ;
#524 = ORIENTED_EDGE ( 'NONE', *, *, #1006, .F. ) ;
#525 = ADVANCED_FACE ( 'NONE', ( #330 ), #683, .F. ) ;
#526 = ORIENTED_EDGE ( 'NONE', *, *, #1104, .F. ) ;
#527 = DIRECTION ( 'NONE',  ( 0.000000000000000000, 0.000000000000000000, 1.000000000000000000 ) ) ;
#528 = FACE_OUTER_BOUND ( 'NONE', #1101, .T. ) ;
#529 = ORIENTED_EDGE ( 'NONE', *, *, #812, .F. ) ;
#530 = ORIENTED_EDGE ( 'NONE', *, *, #858, .T. ) ;
#531 = CIRCLE ( 'NONE', #56, 2.999999999999999112 ) ;
#532 = DIRECTION ( 'NONE',  ( 0.000000000000000000, 0.000000000000000000, 1.000000000000000000 ) ) ;
#533 = AXIS2_PLACEMENT_3D ( 'NONE', #423, #1142, #787 ) ;
#534 = AXIS2_PLACEMENT_3D ( 'NONE', #761, #1109, #126 ) ;
#535 = CARTESIAN_POINT ( 'NONE',  ( -20.50000000000000355, 3.000000000000000000, 19.79898987322332715 ) ) ;
#536 = ADVANCED_BREP_SHAPE_REPRESENTATION ( 'gear cover (bottom)', ( #747, #498 ), #864 ) ;
#537 = CIRCLE ( 'NONE', #514, 4.999999999999997335 ) ;
#538 = ORIENTED_EDGE ( 'NONE', *, *, #849, .T. ) ;
#539 = EDGE_CURVE ( 'NONE', #906, #727, #227, .T. ) ;
#540 = CARTESIAN_POINT ( 'NONE',  ( 0.000000000000000000, 3.000000000000000000, -42.50000000000000000 ) ) ;
#541 = CARTESIAN_POINT ( 'NONE',  ( -20.50000000000000355, 0.000000000000000000, -14.79898987322332538 ) ) ;
#542 = CARTESIAN_POINT ( 'NONE',  ( -20.50000000000000355, 3.000000000000000000, 19.79898987322332715 ) ) ;
#543 = ORIENTED_EDGE ( 'NONE', *, *, #296, .F. ) ;
#544 = ADVANCED_FACE ( 'NONE', ( #962 ), #158, .F. ) ;
#545 = ORIENTED_EDGE ( 'NONE', *, *, #507, .F. ) ;
#546 = APPLICATION_CONTEXT ( 'automotive_design' ) ;
#547 = CARTESIAN_POINT ( 'NONE',  ( 14.86715431869131798, 0.000000000000000000, -25.47975122453550156 ) ) ;
#548 = PRODUCT_DEFINITION ( 'UNKNOWN', '', #785, #851 ) ;
#549 = CARTESIAN_POINT ( 'NONE',  ( 20.50000000000000355, 0.000000000000000000, -19.79898987322332715 ) ) ;
#550 = ORIENTED_EDGE ( 'NONE', *, *, #501, .T. ) ;
#551 = ORIENTED_EDGE ( 'NONE', *, *, #800, .T. ) ;
#552 = SHAPE_DEFINITION_REPRESENTATION ( #853, #536 ) ;
#553 = AXIS2_PLACEMENT_3D ( 'NONE', #323, #595, #1157 ) ;
#554 = SURFACE_STYLE_FILL_AREA ( #852 ) ;
#555 = VECTOR ( 'NONE', #1003, 1000.000000000000000 ) ;
#556 = CIRCLE ( 'NONE', #23, 32.50000000000000711 ) ;
#557 = DIRECTION ( 'NONE',  ( 0.000000000000000000, 0.000000000000000000, 1.000000000000000000 ) ) ;
#558 = EDGE_LOOP ( 'NONE', ( #648, #1030, #753, #174 ) ) ;
#559 = AXIS2_PLACEMENT_3D ( 'NONE', #573, #379, #48 ) ;
#560 = VERTEX_POINT ( 'NONE', #776 ) ;
#561 = CARTESIAN_POINT ( 'NONE',  ( -16.97947144918207485, 0.000000000000000000, 23.34946571779343572 ) ) ;
#562 = FACE_BOUND ( 'NONE', #836, .T. ) ;
#563 =( NAMED_UNIT ( * ) PLANE_ANGLE_UNIT ( ) SI_UNIT ( $, .RADIAN. ) );
#564 = CARTESIAN_POINT ( 'NONE',  ( 25.98141447170574025, 0.000000000000000000, -13.97197559579317350 ) ) ;
#565 = ORIENTED_EDGE ( 'NONE', *, *, #248, .F. ) ;
#566 = VERTEX_POINT ( 'NONE', #66 ) ;
#567 = EDGE_CURVE ( 'NONE', #707, #1082, #1149, .T. ) ;
#568 = DIRECTION ( 'NONE',  ( -0.000000000000000000, 1.000000000000000000, -0.000000000000000000 ) ) ;
#569 = DIRECTION ( 'NONE',  ( -0.000000000000000000, 1.000000000000000000, -0.000000000000000000 ) ) ;
#570 = DIRECTION ( 'NONE',  ( 0.000000000000000000, -1.000000000000000000, 0.000000000000000000 ) ) ;
#571 = ORIENTED_EDGE ( 'NONE', *, *, #501, .F. ) ;
#572 = ORIENTED_EDGE ( 'NONE', *, *, #587, .F. ) ;
#573 = CARTESIAN_POINT ( 'NONE',  ( 20.50000000000000355, 3.000000000000000000, 19.79898987322332715 ) ) ;
#574 = CYLINDRICAL_SURFACE ( 'NONE', #822, 2.999999999999999112 ) ;
#575 = DIRECTION ( 'NONE',  ( 0.000000000000000000, -1.000000000000000000, 0.000000000000000000 ) ) ;
#576 = CIRCLE ( 'NONE', #690, 2.999999999999999112 ) ;
#577 = AXIS2_PLACEMENT_3D ( 'NONE', #696, #1059, #242 ) ;
#578 = LINE ( 'NONE', #491, #186 ) ;
#579 = ADVANCED_FACE ( 'NONE', ( #322 ), #779, .T. ) ;
#580 = ORIENTED_EDGE ( 'NONE', *, *, #1038, .F. ) ;
#581 = STYLED_ITEM ( 'NONE', ( #31 ), #747 ) ;
#582 = UNCERTAINTY_MEASURE_WITH_UNIT (LENGTH_MEASURE( 1.000000000000000082E-05 ), #745, 'distance_accuracy_value', 'NONE');
#583 = CARTESIAN_POINT ( 'NONE',  ( 16.37906831720230372, 0.000000000000000000, -28.07091236601369744 ) ) ;
#584 = DIRECTION ( 'NONE',  ( -0.000000000000000000, 1.000000000000000000, -0.000000000000000000 ) ) ;
#585 = FACE_BOUND ( 'NONE', #1075, .T. ) ;
#586 = VERTEX_POINT ( 'NONE', #143 ) ;
#587 = EDGE_CURVE ( 'NONE', #814, #720, #420, .T. ) ;
#588 = DIRECTION ( 'NONE',  ( 0.000000000000000000, 0.000000000000000000, 1.000000000000000000 ) ) ;
#589 = DIRECTION ( 'NONE',  ( -0.000000000000000000, -1.000000000000000000, -0.000000000000000000 ) ) ;
#590 = EDGE_LOOP ( 'NONE', ( #524, #550, #1027, #284 ) ) ;
#591 = EDGE_CURVE ( 'NONE', #676, #464, #1069, .T. ) ;
#592 = DIRECTION ( 'NONE',  ( 0.000000000000000000, 1.000000000000000000, 0.000000000000000000 ) ) ;
#593 = FACE_BOUND ( 'NONE', #949, .T. ) ;
#594 = CIRCLE ( 'NONE', #875, 1.750000000000005107 ) ;
#595 = DIRECTION ( 'NONE',  ( 0.000000000000000000, 1.000000000000000000, 0.000000000000000000 ) ) ;
#596 = ORIENTED_EDGE ( 'NONE', *, *, #612, .T. ) ;
#597 = VECTOR ( 'NONE', #508, 1000.000000000000000 ) ;
#598 = CIRCLE ( 'NONE', #236, 1.750000000000005107 ) ;
#599 = CIRCLE ( 'NONE', #167, 2.999999999999999112 ) ;
#600 = CYLINDRICAL_SURFACE ( 'NONE', #845, 4.999999999999997335 ) ;
#601 = ADVANCED_FACE ( 'NONE', ( #695 ), #771, .F. ) ;
#602 = DIRECTION ( 'NONE',  ( 0.000000000000000000, 0.000000000000000000, -1.000000000000000000 ) ) ;
#603 = ORIENTED_EDGE ( 'NONE', *, *, #199, .F. ) ;
#604 = ADVANCED_FACE ( 'NONE', ( #967 ), #1045, .F. ) ;
#605 = DIRECTION ( 'NONE',  ( -0.000000000000000000, 1.000000000000000000, -0.000000000000000000 ) ) ;
#606 = CARTESIAN_POINT ( 'NONE',  ( -20.50000000000000355, 3.000000000000000000, 19.79898987322332715 ) ) ;
#607 = ORIENTED_EDGE ( 'NONE', *, *, #895, .T. ) ;
#608 = DIRECTION ( 'NONE',  ( 0.000000000000000000, 0.000000000000000000, 1.000000000000000000 ) ) ;
#609 = DIRECTION ( 'NONE',  ( -0.000000000000000000, -1.000000000000000000, -0.000000000000000000 ) ) ;
#610 = EDGE_LOOP ( 'NONE', ( #38, #160, #924, #740 ) ) ;
#611 = CIRCLE ( 'NONE', #936, 32.50000000000000711 ) ;
#612 = EDGE_CURVE ( 'NONE', #93, #1111, #238, .T. ) ;
#613 = ORIENTED_EDGE ( 'NONE', *, *, #917, .F. ) ;
#614 = CIRCLE ( 'NONE', #404, 32.50000000000000711 ) ;
#615 = CARTESIAN_POINT ( 'NONE',  ( 16.97947144918207840, 0.000000000000000000, -23.34946571779343572 ) ) ;
#616 = DIRECTION ( 'NONE',  ( -0.000000000000000000, 1.000000000000000000, -0.000000000000000000 ) ) ;
#617 = CARTESIAN_POINT ( 'NONE',  ( -20.50000000000000355, 3.000000000000000000, 21.54898987322333070 ) ) ;
#618 = ORIENTED_EDGE ( 'NONE', *, *, #726, .F. ) ;
#619 = CARTESIAN_POINT ( 'NONE',  ( 0.000000000000000000, 0.000000000000000000, 0.000000000000000000 ) ) ;
#620 = CARTESIAN_POINT ( 'NONE',  ( 20.50000000000000355, 3.000000000000000000, 21.54898987322333070 ) ) ;
#621 = CARTESIAN_POINT ( 'NONE',  ( -23.92588404481609388, 0.000000000000000000, -16.15710594982947867 ) ) ;
#622 = DIRECTION ( 'NONE',  ( 0.000000000000000000, 0.000000000000000000, 1.000000000000000000 ) ) ;
#623 = ORIENTED_EDGE ( 'NONE', *, *, #912, .F. ) ;
#624 = VERTEX_POINT ( 'NONE', #1058 ) ;
#625 = CARTESIAN_POINT ( 'NONE',  ( 23.92588404481609032, 0.000000000000000000, -16.15710594982947867 ) ) ;
#626 = ADVANCED_FACE ( 'NONE', ( #241, #593, #883, #793, #983, #521 ), #8, .T. ) ;
#627 = CARTESIAN_POINT ( 'NONE',  ( 0.000000000000000000, 3.000000000000000000, -42.50000000000000000 ) ) ;
#628 = CARTESIAN_POINT ( 'NONE',  ( 0.000000000000000000, 0.000000000000000000, 0.000000000000000000 ) ) ;
#629 = VERTEX_POINT ( 'NONE', #1080 ) ;
#630 = ORIENTED_EDGE ( 'NONE', *, *, #185, .T. ) ;
#631 = CIRCLE ( 'NONE', #272, 3.000000000000000888 ) ;
#632 = DIRECTION ( 'NONE',  ( 0.000000000000000000, 0.000000000000000000, 1.000000000000000000 ) ) ;
#633 = AXIS2_PLACEMENT_3D ( 'NONE', #659, #835, #394 ) ;
#634 = AXIS2_PLACEMENT_3D ( 'NONE', #399, #1125, #1130 ) ;
#635 = CARTESIAN_POINT ( 'NONE',  ( 14.86715431869131798, 0.000000000000000000, -25.47975122453550156 ) ) ;
#636 = EDGE_CURVE ( 'NONE', #403, #352, #718, .T. ) ;
#637 = FACE_OUTER_BOUND ( 'NONE', #198, .T. ) ;
#638 = CARTESIAN_POINT ( 'NONE',  ( 20.50000000000000355, 3.000000000000000000, 18.04898987322332005 ) ) ;
#639 = ORIENTED_EDGE ( 'NONE', *, *, #219, .T. ) ;
#640 = DIRECTION ( 'NONE',  ( 0.000000000000000000, 0.000000000000000000, 1.000000000000000000 ) ) ;
#641 = EDGE_CURVE ( 'NONE', #352, #657, #57, .T. ) ;
#642 = CARTESIAN_POINT ( 'NONE',  ( -28.62359221459107061, 3.000000000000000000, -15.39285446994162321 ) ) ;
#643 = CARTESIAN_POINT ( 'NONE',  ( -23.92588404481609032, 0.000000000000000000, 16.15710594982947867 ) ) ;
#644 = ORIENTED_EDGE ( 'NONE', *, *, #987, .F. ) ;
#645 = DIRECTION ( 'NONE',  ( 0.000000000000000000, 0.000000000000000000, 1.000000000000000000 ) ) ;
#646 =( NAMED_UNIT ( * ) SI_UNIT ( $, .STERADIAN. ) SOLID_ANGLE_UNIT ( ) );
#647 = CARTESIAN_POINT ( 'NONE',  ( 28.62359221459106706, 3.000000000000000000, -15.39285446994162854 ) ) ;
#648 = ORIENTED_EDGE ( 'NONE', *, *, #94, .F. ) ;
#649 = ORIENTED_EDGE ( 'NONE', *, *, #934, .T. ) ;
#650 = EDGE_CURVE ( 'NONE', #933, #877, #859, .T. ) ;
#651 = DIRECTION ( 'NONE',  ( 0.000000000000000000, 1.000000000000000000, -0.000000000000000000 ) ) ;
#652 = VECTOR ( 'NONE', #313, 1000.000000000000000 ) ;
#653 = AXIS2_PLACEMENT_3D ( 'NONE', #380, #569, #305 ) ;
#654 = DIRECTION ( 'NONE',  ( 0.000000000000000000, 1.000000000000000000, 0.000000000000000000 ) ) ;
#655 = ORIENTED_EDGE ( 'NONE', *, *, #701, .F. ) ;
#656 = EDGE_CURVE ( 'NONE', #1021, #1061, #196, .T. ) ;
#657 = VERTEX_POINT ( 'NONE', #457 ) ;
#658 = CARTESIAN_POINT ( 'NONE',  ( 25.98141447170574025, 0.000000000000000000, -13.97197559579317350 ) ) ;
#659 = CARTESIAN_POINT ( 'NONE',  ( 20.50000000000000355, 3.000000000000000000, -19.79898987322332715 ) ) ;
#660 = FACE_OUTER_BOUND ( 'NONE', #590, .T. ) ;
#661 = VERTEX_POINT ( 'NONE', #627 ) ;
#662 = LINE ( 'NONE', #200, #712 ) ;
#663 = CARTESIAN_POINT ( 'NONE',  ( 16.97947144918207840, 3.000000000000000000, 23.34946571779343572 ) ) ;
#664 = CARTESIAN_POINT ( 'NONE',  ( 23.92588404481609032, 0.000000000000000000, 16.15710594982947867 ) ) ;
#665 = EDGE_CURVE ( 'NONE', #1007, #144, #496, .T. ) ;
#666 = CARTESIAN_POINT ( 'NONE',  ( 20.50000000000000355, 0.000000000000000000, -14.79898987322332893 ) ) ;
#667 = ORIENTED_EDGE ( 'NONE', *, *, #339, .F. ) ;
#668 = CARTESIAN_POINT ( 'NONE',  ( 16.37906831720230016, 3.000000000000000000, -28.07091236601368678 ) ) ;
#669 = FACE_BOUND ( 'NONE', #343, .T. ) ;
#670 = DIRECTION ( 'NONE',  ( 0.000000000000000000, 1.000000000000000000, 0.000000000000000000 ) ) ;
#671 = AXIS2_PLACEMENT_3D ( 'NONE', #827, #216, #382 ) ;
#672 = AXIS2_PLACEMENT_3D ( 'NONE', #37, #854, #397 ) ;
#673 = DIRECTION ( 'NONE',  ( 0.000000000000000000, 0.000000000000000000, 1.000000000000000000 ) ) ;
#674 = ADVANCED_FACE ( 'NONE', ( #89 ), #914, .F. ) ;
#675 = VECTOR ( 'NONE', #840, 1000.000000000000000 ) ;
#676 = VERTEX_POINT ( 'NONE', #109 ) ;
#677 = DIRECTION ( 'NONE',  ( 0.000000000000000000, 1.000000000000000000, 0.000000000000000000 ) ) ;
#678 = ADVANCED_FACE ( 'NONE', ( #448 ), #976, .F. ) ;
#679 = CARTESIAN_POINT ( 'NONE',  ( 5.204748896376250896E-15, 0.000000000000000000, 42.50000000000000000 ) ) ;
#680 = ORIENTED_EDGE ( 'NONE', *, *, #800, .F. ) ;
#681 = ADVANCED_FACE ( 'NONE', ( #1 ), #103, .F. ) ;
#682 = CARTESIAN_POINT ( 'NONE',  ( -20.50000000000000355, 0.000000000000000000, -21.54898987322333070 ) ) ;
#683 = CYLINDRICAL_SURFACE ( 'NONE', #132, 1.750000000000005107 ) ;
#684 = CARTESIAN_POINT ( 'NONE',  ( -16.97947144918207485, 0.000000000000000000, 23.34946571779343572 ) ) ;
#685 = VERTEX_POINT ( 'NONE', #26 ) ;
#686 = PRODUCT ( 'gear cover (bottom)', 'gear cover (bottom)', '', ( #465 ) ) ;
#687 = EDGE_CURVE ( 'NONE', #929, #64, #43, .T. ) ;
#688 = CARTESIAN_POINT ( 'NONE',  ( 20.50000000000000355, 3.000000000000000000, 19.79898987322332715 ) ) ;
#689 = DIRECTION ( 'NONE',  ( 0.000000000000000000, 1.000000000000000000, -0.000000000000000000 ) ) ;
#690 = AXIS2_PLACEMENT_3D ( 'NONE', #890, #977, #173 ) ;
#691 = DIRECTION ( 'NONE',  ( -0.000000000000000000, 1.000000000000000000, -0.000000000000000000 ) ) ;
#692 = EDGE_LOOP ( 'NONE', ( #118, #469, #82, #886 ) ) ;
#693 = PRODUCT_RELATED_PRODUCT_CATEGORY ( 'part', '', ( #686 ) ) ;
#694 = CARTESIAN_POINT ( 'NONE',  ( -20.50000000000000355, 0.000000000000000000, 19.79898987322332715 ) ) ;
#695 = FACE_OUTER_BOUND ( 'NONE', #10, .T. ) ;
#696 = CARTESIAN_POINT ( 'NONE',  ( 0.000000000000000000, 0.000000000000000000, 0.000000000000000000 ) ) ;
#697 = LINE ( 'NONE', #1060, #402 ) ;
#698 = ORIENTED_EDGE ( 'NONE', *, *, #317, .F. ) ;
#699 = DIRECTION ( 'NONE',  ( 0.000000000000000000, 1.000000000000000000, 0.000000000000000000 ) ) ;
#700 = DIRECTION ( 'NONE',  ( 0.000000000000000000, 1.000000000000000000, -0.000000000000000000 ) ) ;
#701 = EDGE_CURVE ( 'NONE', #1093, #123, #556, .T. ) ;
#702 = ORIENTED_EDGE ( 'NONE', *, *, #467, .F. ) ;
#703 = ORIENTED_EDGE ( 'NONE', *, *, #199, .T. ) ;
#704 = DIRECTION ( 'NONE',  ( 0.000000000000000000, 0.000000000000000000, 1.000000000000000000 ) ) ;
#705 = DIRECTION ( 'NONE',  ( 0.000000000000000000, 0.000000000000000000, -1.000000000000000000 ) ) ;
#706 = CARTESIAN_POINT ( 'NONE',  ( -20.50000000000000355, 0.000000000000000000, 19.79898987322332715 ) ) ;
#707 = VERTEX_POINT ( 'NONE', #620 ) ;
#708 = CIRCLE ( 'NONE', #73, 5.000000000000000888 ) ;
#709 = VERTEX_POINT ( 'NONE', #201 ) ;
#710 = AXIS2_PLACEMENT_3D ( 'NONE', #54, #767, #673 ) ;
#711 = FACE_OUTER_BOUND ( 'NONE', #918, .T. ) ;
#712 = VECTOR ( 'NONE', #913, 1000.000000000000000 ) ;
#713 = DIRECTION ( 'NONE',  ( 0.000000000000000000, 0.000000000000000000, 1.000000000000000000 ) ) ;
#714 = CYLINDRICAL_SURFACE ( 'NONE', #252, 3.000000000000000888 ) ;
#715 = ORIENTED_EDGE ( 'NONE', *, *, #760, .T. ) ;
#716 = EDGE_CURVE ( 'NONE', #112, #1026, #1114, .T. ) ;
#717 = DIRECTION ( 'NONE',  ( 0.000000000000000000, 0.000000000000000000, 1.000000000000000000 ) ) ;
#718 = LINE ( 'NONE', #179, #555 ) ;
#719 = DIRECTION ( 'NONE',  ( 0.000000000000000000, 1.000000000000000000, -0.000000000000000000 ) ) ;
#720 = VERTEX_POINT ( 'NONE', #943 ) ;
#721 = EDGE_CURVE ( 'NONE', #123, #980, #441, .T. ) ;
#722 = FACE_OUTER_BOUND ( 'NONE', #181, .T. ) ;
#723 = DIRECTION ( 'NONE',  ( 0.000000000000000000, 1.000000000000000000, -0.000000000000000000 ) ) ;
#724 = DIRECTION ( 'NONE',  ( 0.000000000000000000, 1.000000000000000000, 0.000000000000000000 ) ) ;
#725 = CARTESIAN_POINT ( 'NONE',  ( -16.97947144918207485, 3.000000000000000000, 23.34946571779343572 ) ) ;
#726 = EDGE_CURVE ( 'NONE', #1082, #505, #1052, .T. ) ;
#727 = VERTEX_POINT ( 'NONE', #134 ) ;
#728 = VECTOR ( 'NONE', #257, 1000.000000000000000 ) ;
#729 = AXIS2_PLACEMENT_3D ( 'NONE', #811, #723, #360 ) ;
#730 = LINE ( 'NONE', #540, #1108 ) ;
#731 = CIRCLE ( 'NONE', #1105, 1.750000000000005107 ) ;
#732 = PRESENTATION_LAYER_ASSIGNMENT (  '', '', ( #581 ) ) ;
#733 = DIRECTION ( 'NONE',  ( 1.156482317317871725E-15, 0.000000000000000000, 1.000000000000000000 ) ) ;
#734 = ORIENTED_EDGE ( 'NONE', *, *, #1023, .F. ) ;
#735 = VERTEX_POINT ( 'NONE', #282 ) ;
#736 = DIRECTION ( 'NONE',  ( 0.000000000000000000, 0.000000000000000000, 1.000000000000000000 ) ) ;
#737 = DIRECTION ( 'NONE',  ( 0.000000000000000000, 0.000000000000000000, -1.000000000000000000 ) ) ;
#738 = EDGE_LOOP ( 'NONE', ( #83, #289, #703, #35 ) ) ;
#739 = EDGE_CURVE ( 'NONE', #850, #20, #369, .T. ) ;
#740 = ORIENTED_EDGE ( 'NONE', *, *, #178, .T. ) ;
#741 = DIRECTION ( 'NONE',  ( 0.000000000000000000, 0.000000000000000000, 1.000000000000000000 ) ) ;
#742 = DIRECTION ( 'NONE',  ( 0.000000000000000000, 0.000000000000000000, 1.000000000000000000 ) ) ;
#743 = LINE ( 'NONE', #638, #40 ) ;
#744 = ORIENTED_EDGE ( 'NONE', *, *, #148, .T. ) ;
#745 =( LENGTH_UNIT ( ) NAMED_UNIT ( * ) SI_UNIT ( .MILLI., .METRE. ) );
#746 = CARTESIAN_POINT ( 'NONE',  ( -20.50000000000000355, 3.000000000000000000, -18.04898987322332005 ) ) ;
#747 = MANIFOLD_SOLID_BREP ( '\X2\9762306e79fb52d5\X0\3', #90 ) ;
#748 = AXIS2_PLACEMENT_3D ( 'NONE', #1155, #952, #860 ) ;
#749 = CIRCLE ( 'NONE', #939, 1.750000000000005107 ) ;
#750 = CARTESIAN_POINT ( 'NONE',  ( 20.50000000000000355, 3.000000000000000000, -18.04898987322332005 ) ) ;
#751 = ORIENTED_EDGE ( 'NONE', *, *, #665, .T. ) ;
#752 = CIRCLE ( 'NONE', #372, 4.999999999999997335 ) ;
#753 = ORIENTED_EDGE ( 'NONE', *, *, #129, .F. ) ;
#754 = DIRECTION ( 'NONE',  ( -0.000000000000000000, -1.000000000000000000, -0.000000000000000000 ) ) ;
#755 = EDGE_CURVE ( 'NONE', #1093, #586, #1095, .T. ) ;
#756 = DIRECTION ( 'NONE',  ( 0.000000000000000000, 0.000000000000000000, 1.000000000000000000 ) ) ;
#757 = DIRECTION ( 'NONE',  ( -0.000000000000000000, -1.000000000000000000, -0.000000000000000000 ) ) ;
#758 = ORIENTED_EDGE ( 'NONE', *, *, #302, .T. ) ;
#759 = DIRECTION ( 'NONE',  ( -0.000000000000000000, 1.000000000000000000, -0.000000000000000000 ) ) ;
#760 = EDGE_CURVE ( 'NONE', #373, #101, #1107, .T. ) ;
#761 = CARTESIAN_POINT ( 'NONE',  ( 20.50000000000000355, 0.000000000000000000, 19.79898987322332715 ) ) ;
#762 = CARTESIAN_POINT ( 'NONE',  ( 0.000000000000000000, 3.000000000000000000, 0.000000000000000000 ) ) ;
#763 = ORIENTED_EDGE ( 'NONE', *, *, #463, .T. ) ;
#764 = FACE_OUTER_BOUND ( 'NONE', #738, .T. ) ;
#765 = CIRCLE ( 'NONE', #1122, 5.000000000000000888 ) ;
#766 = VECTOR ( 'NONE', #428, 1000.000000000000000 ) ;
#767 = DIRECTION ( 'NONE',  ( 0.000000000000000000, 1.000000000000000000, 0.000000000000000000 ) ) ;
#768 = VECTOR ( 'NONE', #605, 1000.000000000000000 ) ;
#769 = ORIENTED_EDGE ( 'NONE', *, *, #214, .F. ) ;
#770 = DIRECTION ( 'NONE',  ( 0.000000000000000000, 0.000000000000000000, 1.000000000000000000 ) ) ;
#771 = CYLINDRICAL_SURFACE ( 'NONE', #388, 1.750000000000005107 ) ;
#772 = ADVANCED_FACE ( 'NONE', ( #1034 ), #396, .T. ) ;
#773 = EDGE_LOOP ( 'NONE', ( #1129, #276, #698, #206 ) ) ;
#774 = CARTESIAN_POINT ( 'NONE',  ( 16.37906831720231082, 0.000000000000000000, 28.07091236601368323 ) ) ;
#775 = EDGE_CURVE ( 'NONE', #64, #929, #1072, .T. ) ;
#776 = CARTESIAN_POINT ( 'NONE',  ( -23.92588404481609388, 0.000000000000000000, -16.15710594982947867 ) ) ;
#777 = EDGE_LOOP ( 'NONE', ( #99, #357, #897, #291 ) ) ;
#778 = DIRECTION ( 'NONE',  ( 0.000000000000000000, 0.000000000000000000, 1.000000000000000000 ) ) ;
#779 = CYLINDRICAL_SURFACE ( 'NONE', #91, 5.000000000000000888 ) ;
#780 = VECTOR ( 'NONE', #884, 1000.000000000000000 ) ;
#781 = CARTESIAN_POINT ( 'NONE',  ( 28.62359221459106706, 0.000000000000000000, -15.39285446994162854 ) ) ;
#782 = ORIENTED_EDGE ( 'NONE', *, *, #383, .T. ) ;
#783 = AXIS2_PLACEMENT_3D ( 'NONE', #335, #700, #318 ) ;
#784 = CIRCLE ( 'NONE', #275, 3.000000000000000888 ) ;
#785 = PRODUCT_DEFINITION_FORMATION_WITH_SPECIFIED_SOURCE ( 'ANY', '', #686, .NOT_KNOWN. ) ;
#786 = DIRECTION ( 'NONE',  ( 0.000000000000000000, 0.000000000000000000, 1.000000000000000000 ) ) ;
#787 = DIRECTION ( 'NONE',  ( 0.000000000000000000, 0.000000000000000000, -1.000000000000000000 ) ) ;
#788 = LINE ( 'NONE', #232, #780 ) ;
#789 = ORIENTED_EDGE ( 'NONE', *, *, #687, .T. ) ;
#790 = ORIENTED_EDGE ( 'NONE', *, *, #912, .T. ) ;
#791 = CYLINDRICAL_SURFACE ( 'NONE', #256, 2.999999999999999112 ) ;
#792 = ADVANCED_FACE ( 'NONE', ( #478 ), #466, .T. ) ;
#793 = FACE_BOUND ( 'NONE', #114, .T. ) ;
#794 = DIRECTION ( 'NONE',  ( 0.000000000000000000, -1.000000000000000000, 0.000000000000000000 ) ) ;
#795 = EDGE_LOOP ( 'NONE', ( #744, #899 ) ) ;
#796 = ORIENTED_EDGE ( 'NONE', *, *, #433, .F. ) ;
#797 = DIRECTION ( 'NONE',  ( 0.000000000000000000, 0.000000000000000000, 1.000000000000000000 ) ) ;
#798 = DIRECTION ( 'NONE',  ( 0.000000000000000000, 0.000000000000000000, 1.000000000000000000 ) ) ;
#799 = ORIENTED_EDGE ( 'NONE', *, *, #808, .T. ) ;
#800 = EDGE_CURVE ( 'NONE', #709, #1112, #223, .T. ) ;
#801 = CIRCLE ( 'NONE', #553, 42.50000000000000000 ) ;
#802 = EDGE_LOOP ( 'NONE', ( #565, #436, #820, #999, #488, #911, #263, #1121, #715, #930, #502, #445, #156, #285, #649, #941, #87, #96, #169, #1153, #274 ) ) ;
#803 = AXIS2_PLACEMENT_3D ( 'NONE', #762, #386, #1020 ) ;
#804 = AXIS2_PLACEMENT_3D ( 'NONE', #58, #406, #770 ) ;
#805 = CARTESIAN_POINT ( 'NONE',  ( 20.50000000000000355, 3.000000000000000000, 18.04898987322332005 ) ) ;
#806 = DIRECTION ( 'NONE',  ( 0.000000000000000000, 0.000000000000000000, 1.000000000000000000 ) ) ;
#807 = ORIENTED_EDGE ( 'NONE', *, *, #351, .F. ) ;
#808 = EDGE_CURVE ( 'NONE', #685, #64, #385, .T. ) ;
#809 = ORIENTED_EDGE ( 'NONE', *, *, #1041, .F. ) ;
#810 = DIRECTION ( 'NONE',  ( 0.000000000000000000, 1.000000000000000000, -0.000000000000000000 ) ) ;
#811 = CARTESIAN_POINT ( 'NONE',  ( 20.50000000000000355, 0.000000000000000000, -19.79898987322332715 ) ) ;
#812 = EDGE_CURVE ( 'NONE', #1026, #906, #164, .T. ) ;
#813 = DIRECTION ( 'NONE',  ( 0.000000000000000000, -1.000000000000000000, 0.000000000000000000 ) ) ;
#814 = VERTEX_POINT ( 'NONE', #664 ) ;
#815 = APPLICATION_CONTEXT ( 'automotive_design' ) ;
#816 = ORIENTED_EDGE ( 'NONE', *, *, #888, .F. ) ;
#817 = DIRECTION ( 'NONE',  ( -0.000000000000000000, -1.000000000000000000, -0.000000000000000000 ) ) ;
#818 = CARTESIAN_POINT ( 'NONE',  ( -14.86715431869131976, 0.000000000000000000, -25.47975122453550156 ) ) ;
#819 = CARTESIAN_POINT ( 'NONE',  ( -28.62359221459107417, 0.000000000000000000, 15.39285446994162854 ) ) ;
#820 = ORIENTED_EDGE ( 'NONE', *, *, #1000, .T. ) ;
#821 = ORIENTED_EDGE ( 'NONE', *, *, #1047, .T. ) ;
#822 = AXIS2_PLACEMENT_3D ( 'NONE', #1015, #759, #942 ) ;
#823 = CIRCLE ( 'NONE', #633, 1.750000000000005107 ) ;
#824 = EDGE_CURVE ( 'NONE', #119, #417, #1143, .T. ) ;
#825 = CARTESIAN_POINT ( 'NONE',  ( 0.000000000000000000, 3.000000000000000000, 0.000000000000000000 ) ) ;
#826 = CARTESIAN_POINT ( 'NONE',  ( -25.98141447170574381, 0.000000000000000000, -13.97197559579316817 ) ) ;
#827 = CARTESIAN_POINT ( 'NONE',  ( 0.000000000000000000, 3.000000000000000000, 0.000000000000000000 ) ) ;
#828 = VERTEX_POINT ( 'NONE', #503 ) ;
#829 = ADVANCED_FACE ( 'NONE', ( #764 ), #153, .T. ) ;
#830 = CARTESIAN_POINT ( 'NONE',  ( -25.98141447170574025, 3.000000000000000000, 13.97197559579316994 ) ) ;
#831 = CARTESIAN_POINT ( 'NONE',  ( 20.50000000000000355, 0.000000000000000000, 19.79898987322332715 ) ) ;
#832 = ORIENTED_EDGE ( 'NONE', *, *, #539, .T. ) ;
#833 = ORIENTED_EDGE ( 'NONE', *, *, #219, .F. ) ;
#834 = CARTESIAN_POINT ( 'NONE',  ( 0.000000000000000000, 0.000000000000000000, 0.000000000000000000 ) ) ;
#835 = DIRECTION ( 'NONE',  ( 0.000000000000000000, 1.000000000000000000, 0.000000000000000000 ) ) ;
#836 = EDGE_LOOP ( 'NONE', ( #789, #389 ) ) ;
#837 = EDGE_CURVE ( 'NONE', #566, #492, #953, .T. ) ;
#838 = ORIENTED_EDGE ( 'NONE', *, *, #755, .T. ) ;
#839 = CIRCLE ( 'NONE', #951, 5.000000000000000888 ) ;
#840 = DIRECTION ( 'NONE',  ( -0.000000000000000000, 1.000000000000000000, -0.000000000000000000 ) ) ;
#841 = AXIS2_PLACEMENT_3D ( 'NONE', #564, #472, #922 ) ;
#842 = MECHANICAL_DESIGN_GEOMETRIC_PRESENTATION_REPRESENTATION (  '', ( #581 ), #995 ) ;
#843 = CYLINDRICAL_SURFACE ( 'NONE', #309, 32.50000000000000711 ) ;
#844 = ORIENTED_EDGE ( 'NONE', *, *, #355, .T. ) ;
#845 = AXIS2_PLACEMENT_3D ( 'NONE', #957, #868, #157 ) ;
#846 = VERTEX_POINT ( 'NONE', #69 ) ;
#847 = EDGE_CURVE ( 'NONE', #586, #470, #222, .T. ) ;
#848 = CARTESIAN_POINT ( 'NONE',  ( 20.50000000000000355, 0.000000000000000000, -18.04898987322332005 ) ) ;
#849 = EDGE_CURVE ( 'NONE', #560, #566, #784, .T. ) ;
#850 = VERTEX_POINT ( 'NONE', #1148 ) ;
#851 = PRODUCT_DEFINITION_CONTEXT ( 'detailed design', #815, 'design' ) ;
#852 = FILL_AREA_STYLE ('',( #286 ) ) ;
#853 = PRODUCT_DEFINITION_SHAPE ( 'NONE', 'NONE',  #548 ) ;
#854 = DIRECTION ( 'NONE',  ( 0.000000000000000000, 1.000000000000000000, -0.000000000000000000 ) ) ;
#855 = ORIENTED_EDGE ( 'NONE', *, *, #414, .T. ) ;
#856 = CARTESIAN_POINT ( 'NONE',  ( -25.98141447170574381, 0.000000000000000000, -13.97197559579316817 ) ) ;
#857 = AXIS2_PLACEMENT_3D ( 'NONE', #870, #71, #1070 ) ;
#858 = EDGE_CURVE ( 'NONE', #308, #1111, #59, .T. ) ;
#859 = CIRCLE ( 'NONE', #1014, 32.50000000000000711 ) ;
#860 = DIRECTION ( 'NONE',  ( 0.000000000000000000, 0.000000000000000000, 1.000000000000000000 ) ) ;
#861 = CIRCLE ( 'NONE', #804, 2.999999999999999112 ) ;
#862 = DIRECTION ( 'NONE',  ( 0.000000000000000000, 1.000000000000000000, -0.000000000000000000 ) ) ;
#863 = ORIENTED_EDGE ( 'NONE', *, *, #314, .F. ) ;
#864 =( GEOMETRIC_REPRESENTATION_CONTEXT ( 3 ) GLOBAL_UNCERTAINTY_ASSIGNED_CONTEXT ( ( #582 ) ) GLOBAL_UNIT_ASSIGNED_CONTEXT ( ( #745, #42, #476 ) ) REPRESENTATION_CONTEXT ( 'NONE', 'WORKASPACE' ) );
#865 = DIRECTION ( 'NONE',  ( 0.000000000000000000, 1.000000000000000000, -0.000000000000000000 ) ) ;
#866 = CARTESIAN_POINT ( 'NONE',  ( 20.50000000000000355, 3.000000000000000000, 19.79898987322332715 ) ) ;
#867 = ORIENTED_EDGE ( 'NONE', *, *, #963, .T. ) ;
#868 = DIRECTION ( 'NONE',  ( -0.000000000000000000, 1.000000000000000000, -0.000000000000000000 ) ) ;
#869 = CYLINDRICAL_SURFACE ( 'NONE', #1033, 2.999999999999999112 ) ;
#870 = CARTESIAN_POINT ( 'NONE',  ( -20.50000000000000355, 3.000000000000000000, 19.79898987322332715 ) ) ;
#871 = ORIENTED_EDGE ( 'NONE', *, *, #636, .F. ) ;
#872 = EDGE_CURVE ( 'NONE', #1111, #308, #598, .T. ) ;
#873 = CARTESIAN_POINT ( 'NONE',  ( -14.86715431869131798, 0.000000000000000000, 25.47975122453550156 ) ) ;
#874 = CARTESIAN_POINT ( 'NONE',  ( -23.92588404481609032, 3.000000000000000000, 16.15710594982947867 ) ) ;
#875 = AXIS2_PLACEMENT_3D ( 'NONE', #273, #905, #98 ) ;
#876 = DIRECTION ( 'NONE',  ( 0.000000000000000000, -0.000000000000000000, 1.000000000000000000 ) ) ;
#877 = VERTEX_POINT ( 'NONE', #512 ) ;
#878 = AXIS2_PLACEMENT_3D ( 'NONE', #432, #348, #713 ) ;
#879 = ORIENTED_EDGE ( 'NONE', *, *, #456, .F. ) ;
#880 = EDGE_CURVE ( 'NONE', #1102, #707, #749, .T. ) ;
#881 = CIRCLE ( 'NONE', #44, 42.50000000000000000 ) ;
#882 = CYLINDRICAL_SURFACE ( 'NONE', #329, 32.50000000000000711 ) ;
#883 = FACE_OUTER_BOUND ( 'NONE', #795, .T. ) ;
#884 = DIRECTION ( 'NONE',  ( -0.000000000000000000, -1.000000000000000000, -0.000000000000000000 ) ) ;
#885 = ORIENTED_EDGE ( 'NONE', *, *, #934, .F. ) ;
#886 = ORIENTED_EDGE ( 'NONE', *, *, #775, .F. ) ;
#887 = DIRECTION ( 'NONE',  ( -0.000000000000000000, 1.000000000000000000, -0.000000000000000000 ) ) ;
#888 = EDGE_CURVE ( 'NONE', #735, #657, #1063, .T. ) ;
#889 = DIRECTION ( 'NONE',  ( 0.000000000000000000, 1.000000000000000000, 0.000000000000000000 ) ) ;
#890 = CARTESIAN_POINT ( 'NONE',  ( 14.86715431869132686, 0.000000000000000000, 25.47975122453549801 ) ) ;
#891 = LINE ( 'NONE', #819, #1140 ) ;
#892 = ORIENTED_EDGE ( 'NONE', *, *, #656, .T. ) ;
#893 = ORIENTED_EDGE ( 'NONE', *, *, #812, .T. ) ;
#894 = CARTESIAN_POINT ( 'NONE',  ( -16.37906831720230372, 0.000000000000000000, -28.07091236601368678 ) ) ;
#895 = EDGE_CURVE ( 'NONE', #492, #1137, #901, .T. ) ;
#896 = CARTESIAN_POINT ( 'NONE',  ( 25.98141447170574381, 0.000000000000000000, 13.97197559579316817 ) ) ;
#897 = ORIENTED_EDGE ( 'NONE', *, *, #591, .T. ) ;
#898 = VECTOR ( 'NONE', #968, 1000.000000000000000 ) ;
#899 = ORIENTED_EDGE ( 'NONE', *, *, #1006, .T. ) ;
#900 = VECTOR ( 'NONE', #570, 1000.000000000000000 ) ;
#901 = CIRCLE ( 'NONE', #77, 2.999999999999999112 ) ;
#902 = CARTESIAN_POINT ( 'NONE',  ( 20.50000000000000355, 3.000000000000000000, -19.79898987322332715 ) ) ;
#903 = AXIS2_PLACEMENT_3D ( 'NONE', #547, #1008, #1032 ) ;
#904 = DIRECTION ( 'NONE',  ( 0.000000000000000000, 1.000000000000000000, -0.000000000000000000 ) ) ;
#905 = DIRECTION ( 'NONE',  ( 0.000000000000000000, 1.000000000000000000, 0.000000000000000000 ) ) ;
#906 = VERTEX_POINT ( 'NONE', #240 ) ;
#907 = ORIENTED_EDGE ( 'NONE', *, *, #456, .T. ) ;
#908 = CARTESIAN_POINT ( 'NONE',  ( 0.000000000000000000, 0.000000000000000000, 0.000000000000000000 ) ) ;
#909 = DIRECTION ( 'NONE',  ( -0.000000000000000000, 1.000000000000000000, -0.000000000000000000 ) ) ;
#910 = DIRECTION ( 'NONE',  ( -0.000000000000000000, -1.000000000000000000, -0.000000000000000000 ) ) ;
#911 = ORIENTED_EDGE ( 'NONE', *, *, #302, .F. ) ;
#912 = EDGE_CURVE ( 'NONE', #1137, #850, #246, .T. ) ;
#913 = DIRECTION ( 'NONE',  ( -0.000000000000000000, 1.000000000000000000, -0.000000000000000000 ) ) ;
#914 = CYLINDRICAL_SURFACE ( 'NONE', #1090, 1.750000000000005107 ) ;
#915 = CARTESIAN_POINT ( 'NONE',  ( -14.86715431869131798, 3.000000000000000000, 25.47975122453550156 ) ) ;
#916 = ORIENTED_EDGE ( 'NONE', *, *, #837, .T. ) ;
#917 = EDGE_CURVE ( 'NONE', #560, #1021, #390, .T. ) ;
#918 = EDGE_LOOP ( 'NONE', ( #188, #955, #809, #551 ) ) ;
#919 = AXIS2_PLACEMENT_3D ( 'NONE', #915, #111, #361 ) ;
#920 = AXIS2_PLACEMENT_3D ( 'NONE', #694, #1056, #950 ) ;
#921 = CARTESIAN_POINT ( 'NONE',  ( 28.62359221459107772, 0.000000000000000000, 15.39285446994162676 ) ) ;
#922 = DIRECTION ( 'NONE',  ( 0.000000000000000000, 0.000000000000000000, 1.000000000000000000 ) ) ;
#923 = ORIENTED_EDGE ( 'NONE', *, *, #687, .F. ) ;
#924 = ORIENTED_EDGE ( 'NONE', *, *, #587, .T. ) ;
#925 = FACE_BOUND ( 'NONE', #495, .T. ) ;
#926 = CARTESIAN_POINT ( 'NONE',  ( 20.50000000000000355, 3.000000000000000000, 19.79898987322332715 ) ) ;
#927 = ADVANCED_FACE ( 'NONE', ( #312 ), #328, .F. ) ;
#928 = LINE ( 'NONE', #122, #368 ) ;
#929 = VERTEX_POINT ( 'NONE', #682 ) ;
#930 = ORIENTED_EDGE ( 'NONE', *, *, #129, .T. ) ;
#931 = CARTESIAN_POINT ( 'NONE',  ( -20.50000000000000355, 0.000000000000000000, -19.79898987322332715 ) ) ;
#932 = CYLINDRICAL_SURFACE ( 'NONE', #254, 1.750000000000005107 ) ;
#933 = VERTEX_POINT ( 'NONE', #65 ) ;
#934 = EDGE_CURVE ( 'NONE', #518, #850, #861, .T. ) ;
#935 = EDGE_LOOP ( 'NONE', ( #1046, #667 ) ) ;
#936 = AXIS2_PLACEMENT_3D ( 'NONE', #92, #27, #806 ) ;
#937 = DIRECTION ( 'NONE',  ( 0.000000000000000000, 1.000000000000000000, 0.000000000000000000 ) ) ;
#938 = AXIS2_PLACEMENT_3D ( 'NONE', #218, #468, #742 ) ;
#939 = AXIS2_PLACEMENT_3D ( 'NONE', #688, #230, #588 ) ;
#940 = DIRECTION ( 'NONE',  ( -0.000000000000000000, 1.000000000000000000, -0.000000000000000000 ) ) ;
#941 = ORIENTED_EDGE ( 'NONE', *, *, #739, .T. ) ;
#942 = DIRECTION ( 'NONE',  ( 0.000000000000000000, 0.000000000000000000, 1.000000000000000000 ) ) ;
#943 = CARTESIAN_POINT ( 'NONE',  ( 16.97947144918207840, 0.000000000000000000, 23.34946571779343572 ) ) ;
#944 = DIRECTION ( 'NONE',  ( 0.000000000000000000, 1.000000000000000000, -0.000000000000000000 ) ) ;
#945 = ORIENTED_EDGE ( 'NONE', *, *, #701, .T. ) ;
#946 = EDGE_CURVE ( 'NONE', #464, #39, #410, .T. ) ;
#947 = DIRECTION ( 'NONE',  ( 0.000000000000000000, 0.000000000000000000, 1.000000000000000000 ) ) ;
#948 = CARTESIAN_POINT ( 'NONE',  ( -16.97947144918207485, 0.000000000000000000, -23.34946571779343572 ) ) ;
#949 = EDGE_LOOP ( 'NONE', ( #769, #807 ) ) ;
#950 = DIRECTION ( 'NONE',  ( 0.000000000000000000, 0.000000000000000000, 1.000000000000000000 ) ) ;
#951 = AXIS2_PLACEMENT_3D ( 'NONE', #706, #155, #1053 ) ;
#952 = DIRECTION ( 'NONE',  ( -0.000000000000000000, -1.000000000000000000, -0.000000000000000000 ) ) ;
#953 = CIRCLE ( 'NONE', #634, 32.50000000000000711 ) ;
#954 = LINE ( 'NONE', #959, #307 ) ;
#955 = ORIENTED_EDGE ( 'NONE', *, *, #716, .T. ) ;
#956 = CIRCLE ( 'NONE', #462, 3.000000000000000888 ) ;
#957 = CARTESIAN_POINT ( 'NONE',  ( 20.50000000000000355, 0.000000000000000000, -19.79898987322332715 ) ) ;
#958 = ADVANCED_FACE ( 'NONE', ( #235 ), #600, .T. ) ;
#959 = CARTESIAN_POINT ( 'NONE',  ( 28.62359221459107417, 0.000000000000000000, -15.39285446994163209 ) ) ;
#960 = ORIENTED_EDGE ( 'NONE', *, *, #824, .T. ) ;
#961 = DIRECTION ( 'NONE',  ( 0.000000000000000000, 0.000000000000000000, 1.000000000000000000 ) ) ;
#962 = FACE_OUTER_BOUND ( 'NONE', #136, .T. ) ;
#963 = EDGE_CURVE ( 'NONE', #228, #933, #1055, .T. ) ;
#964 = DIRECTION ( 'NONE',  ( -1.156482317317871725E-15, 0.000000000000000000, 1.000000000000000000 ) ) ;
#965 = ORIENTED_EDGE ( 'NONE', *, *, #229, .T. ) ;
#966 = CARTESIAN_POINT ( 'NONE',  ( 25.98141447170574381, 0.000000000000000000, 13.97197559579316817 ) ) ;
#967 = FACE_OUTER_BOUND ( 'NONE', #517, .T. ) ;
#968 = DIRECTION ( 'NONE',  ( 0.000000000000000000, -1.000000000000000000, 0.000000000000000000 ) ) ;
#969 = VECTOR ( 'NONE', #691, 1000.000000000000000 ) ;
#970 = AXIS2_PLACEMENT_3D ( 'NONE', #453, #187, #737 ) ;
#971 = CARTESIAN_POINT ( 'NONE',  ( -20.50000000000000355, 3.000000000000000000, -19.79898987322332715 ) ) ;
#972 = ORIENTED_EDGE ( 'NONE', *, *, #650, .T. ) ;
#973 = VECTOR ( 'NONE', #568, 1000.000000000000000 ) ;
#974 = VERTEX_POINT ( 'NONE', #97 ) ;
#975 = CYLINDRICAL_SURFACE ( 'NONE', #60, 1.750000000000005107 ) ;
#976 = CYLINDRICAL_SURFACE ( 'NONE', #405, 2.999999999999999112 ) ;
#977 = DIRECTION ( 'NONE',  ( 0.000000000000000000, 1.000000000000000000, 0.000000000000000000 ) ) ;
#978 = CARTESIAN_POINT ( 'NONE',  ( 25.98141447170574381, 3.000000000000000000, 13.97197559579316817 ) ) ;
#979 = ORIENTED_EDGE ( 'NONE', *, *, #366, .T. ) ;
#980 = VERTEX_POINT ( 'NONE', #625 ) ;
#981 = ADVANCED_FACE ( 'NONE', ( #340 ), #989, .F. ) ;
#982 = CARTESIAN_POINT ( 'NONE',  ( 28.62359221459107061, 0.000000000000000000, 15.39285446994162321 ) ) ;
#983 = FACE_BOUND ( 'NONE', #338, .T. ) ;
#984 = CARTESIAN_POINT ( 'NONE',  ( -20.50000000000000355, 0.000000000000000000, -18.04898987322332005 ) ) ;
#985 = DIRECTION ( 'NONE',  ( 0.000000000000000000, 0.000000000000000000, 1.000000000000000000 ) ) ;
#986 = ORIENTED_EDGE ( 'NONE', *, *, #1038, .T. ) ;
#987 = EDGE_CURVE ( 'NONE', #1001, #51, #537, .T. ) ;
#988 = ORIENTED_EDGE ( 'NONE', *, *, #366, .F. ) ;
#989 = CYLINDRICAL_SURFACE ( 'NONE', #997, 1.750000000000005107 ) ;
#990 = FACE_OUTER_BOUND ( 'NONE', #378, .T. ) ;
#991 = ORIENTED_EDGE ( 'NONE', *, *, #519, .F. ) ;
#992 = CIRCLE ( 'NONE', #510, 1.750000000000005107 ) ;
#993 = ORIENTED_EDGE ( 'NONE', *, *, #489, .T. ) ;
#994 = CIRCLE ( 'NONE', #938, 32.50000000000000711 ) ;
#995 =( GEOMETRIC_REPRESENTATION_CONTEXT ( 3 ) GLOBAL_UNCERTAINTY_ASSIGNED_CONTEXT ( ( #176 ) ) GLOBAL_UNIT_ASSIGNED_CONTEXT ( ( #1024, #563, #646 ) ) REPRESENTATION_CONTEXT ( 'NONE', 'WORKASPACE' ) );
#996 = DIRECTION ( 'NONE',  ( -0.000000000000000000, -1.000000000000000000, -0.000000000000000000 ) ) ;
#997 = AXIS2_PLACEMENT_3D ( 'NONE', #902, #817, #171 ) ;
#998 = DIRECTION ( 'NONE',  ( 0.000000000000000000, 0.000000000000000000, 1.000000000000000000 ) ) ;
#999 = ORIENTED_EDGE ( 'NONE', *, *, #987, .T. ) ;
#1000 = EDGE_CURVE ( 'NONE', #974, #1001, #752, .T. ) ;
#1001 = VERTEX_POINT ( 'NONE', #359 ) ;
#1002 = DIRECTION ( 'NONE',  ( 0.000000000000000000, 1.000000000000000000, -0.000000000000000000 ) ) ;
#1003 = DIRECTION ( 'NONE',  ( -0.000000000000000000, -1.000000000000000000, -0.000000000000000000 ) ) ;
#1004 = CARTESIAN_POINT ( 'NONE',  ( -25.98141447170574381, 3.000000000000000000, -13.97197559579316817 ) ) ;
#1005 = VERTEX_POINT ( 'NONE', #520 ) ;
#1006 = EDGE_CURVE ( 'NONE', #846, #661, #881, .T. ) ;
#1007 = VERTEX_POINT ( 'NONE', #615 ) ;
#1008 = DIRECTION ( 'NONE',  ( 0.000000000000000000, 1.000000000000000000, 0.000000000000000000 ) ) ;
#1009 = SURFACE_SIDE_STYLE ('',( #554 ) ) ;
#1010 = DIRECTION ( 'NONE',  ( -0.000000000000000000, 1.000000000000000000, -0.000000000000000000 ) ) ;
#1011 = ORIENTED_EDGE ( 'NONE', *, *, #62, .T. ) ;
#1012 = ORIENTED_EDGE ( 'NONE', *, *, #214, .T. ) ;
#1013 = AXIS2_PLACEMENT_3D ( 'NONE', #628, #724, #460 ) ;
#1014 = AXIS2_PLACEMENT_3D ( 'NONE', #85, #904, #183 ) ;
#1015 = CARTESIAN_POINT ( 'NONE',  ( 14.86715431869132686, 0.000000000000000000, 25.47975122453549801 ) ) ;
#1016 = ADVANCED_FACE ( 'NONE', ( #722 ), #791, .F. ) ;
#1017 = AXIS2_PLACEMENT_3D ( 'NONE', #966, #142, #961 ) ;
#1018 = CIRCLE ( 'NONE', #559, 1.750000000000005107 ) ;
#1019 = CARTESIAN_POINT ( 'NONE',  ( -16.37906831720230372, 0.000000000000000000, -28.07091236601368678 ) ) ;
#1020 = DIRECTION ( 'NONE',  ( 0.000000000000000000, 0.000000000000000000, 1.000000000000000000 ) ) ;
#1021 = VERTEX_POINT ( 'NONE', #7 ) ;
#1022 = ORIENTED_EDGE ( 'NONE', *, *, #94, .T. ) ;
#1023 = EDGE_CURVE ( 'NONE', #814, #624, #1146, .T. ) ;
#1024 =( LENGTH_UNIT ( ) NAMED_UNIT ( * ) SI_UNIT ( .MILLI., .METRE. ) );
#1025 = CARTESIAN_POINT ( 'NONE',  ( 16.37906831720231082, 3.000000000000000000, 28.07091236601368323 ) ) ;
#1026 = VERTEX_POINT ( 'NONE', #894 ) ;
#1027 = ORIENTED_EDGE ( 'NONE', *, *, #327, .T. ) ;
#1028 = CARTESIAN_POINT ( 'NONE',  ( -14.86715431869131976, 0.000000000000000000, -25.47975122453550156 ) ) ;
#1029 = DIRECTION ( 'NONE',  ( 0.000000000000000000, 0.000000000000000000, 1.000000000000000000 ) ) ;
#1030 = ORIENTED_EDGE ( 'NONE', *, *, #946, .F. ) ;
#1031 = AXIS2_PLACEMENT_3D ( 'NONE', #523, #278, #733 ) ;
#1032 = DIRECTION ( 'NONE',  ( 0.000000000000000000, 0.000000000000000000, 1.000000000000000000 ) ) ;
#1033 = AXIS2_PLACEMENT_3D ( 'NONE', #341, #1042, #70 ) ;
#1034 = FACE_OUTER_BOUND ( 'NONE', #1071, .T. ) ;
#1035 = VECTOR ( 'NONE', #209, 1000.000000000000000 ) ;
#1036 = CYLINDRICAL_SURFACE ( 'NONE', #841, 2.999999999999999112 ) ;
#1037 = AXIS2_PLACEMENT_3D ( 'NONE', #873, #74, #786 ) ;
#1038 = EDGE_CURVE ( 'NONE', #624, #1093, #956, .T. ) ;
#1039 = ORIENTED_EDGE ( 'NONE', *, *, #721, .F. ) ;
#1040 = CARTESIAN_POINT ( 'NONE',  ( 20.50000000000000355, 3.000000000000000000, -21.54898987322333070 ) ) ;
#1041 = EDGE_CURVE ( 'NONE', #709, #1026, #1074, .T. ) ;
#1042 = DIRECTION ( 'NONE',  ( -0.000000000000000000, 1.000000000000000000, -0.000000000000000000 ) ) ;
#1043 = ORIENTED_EDGE ( 'NONE', *, *, #34, .F. ) ;
#1044 = DIRECTION ( 'NONE',  ( -2.312964634635742267E-15, 0.000000000000000000, 1.000000000000000000 ) ) ;
#1045 = CYLINDRICAL_SURFACE ( 'NONE', #145, 2.999999999999999112 ) ;
#1046 = ORIENTED_EDGE ( 'NONE', *, *, #400, .F. ) ;
#1047 = EDGE_CURVE ( 'NONE', #661, #119, #730, .T. ) ;
#1048 = CARTESIAN_POINT ( 'NONE',  ( -20.50000000000000355, 0.000000000000000000, -19.79898987322332715 ) ) ;
#1049 = VECTOR ( 'NONE', #299, 1000.000000000000000 ) ;
#1050 = VECTOR ( 'NONE', #515, 1000.000000000000000 ) ;
#1051 = CARTESIAN_POINT ( 'NONE',  ( 20.50000000000000355, 0.000000000000000000, 18.04898987322332005 ) ) ;
#1052 = CIRCLE ( 'NONE', #534, 1.750000000000005107 ) ;
#1053 = DIRECTION ( 'NONE',  ( 0.000000000000000000, 0.000000000000000000, 1.000000000000000000 ) ) ;
#1054 = ORIENTED_EDGE ( 'NONE', *, *, #1138, .F. ) ;
#1055 = CIRCLE ( 'NONE', #1037, 2.999999999999999112 ) ;
#1056 = DIRECTION ( 'NONE',  ( -0.000000000000000000, 1.000000000000000000, -0.000000000000000000 ) ) ;
#1057 = ADVANCED_FACE ( 'NONE', ( #711 ), #882, .F. ) ;
#1058 = CARTESIAN_POINT ( 'NONE',  ( 25.98141447170574381, 0.000000000000000000, 16.97197559579316817 ) ) ;
#1059 = DIRECTION ( 'NONE',  ( -0.000000000000000000, 1.000000000000000000, -0.000000000000000000 ) ) ;
#1060 = CARTESIAN_POINT ( 'NONE',  ( -16.37906831720230372, 0.000000000000000000, 28.07091236601369744 ) ) ;
#1061 = VERTEX_POINT ( 'NONE', #1068 ) ;
#1062 = EDGE_CURVE ( 'NONE', #344, #1061, #422, .T. ) ;
#1063 = LINE ( 'NONE', #1040, #459 ) ;
#1064 = DIRECTION ( 'NONE',  ( -0.000000000000000000, 1.000000000000000000, -0.000000000000000000 ) ) ;
#1065 = CARTESIAN_POINT ( 'NONE',  ( 0.000000000000000000, 0.000000000000000000, 0.000000000000000000 ) ) ;
#1066 = ORIENTED_EDGE ( 'NONE', *, *, #280, .T. ) ;
#1067 = EDGE_LOOP ( 'NONE', ( #384, #300, #796, #816 ) ) ;
#1068 = CARTESIAN_POINT ( 'NONE',  ( -20.50000000000000355, 3.000000000000000000, -14.79898987322332538 ) ) ;
#1069 = CIRCLE ( 'NONE', #783, 32.50000000000000711 ) ;
#1070 = DIRECTION ( 'NONE',  ( 0.000000000000000000, 0.000000000000000000, 1.000000000000000000 ) ) ;
#1071 = EDGE_LOOP ( 'NONE', ( #175, #844, #832, #1133 ) ) ;
#1072 = CIRCLE ( 'NONE', #497, 1.750000000000005107 ) ;
#1073 = EDGE_CURVE ( 'NONE', #1137, #15, #599, .T. ) ;
#1074 = CIRCLE ( 'NONE', #24, 32.50000000000000711 ) ;
#1075 = EDGE_LOOP ( 'NONE', ( #320, #1097, #264, #893, #141, #613, #538, #916, #607, #251, #603, #867, #972, #993, #1022, #572, #481, #986, #945, #395, #863 ) ) ;
#1076 = DIRECTION ( 'NONE',  ( 0.000000000000000000, 0.000000000000000000, -1.000000000000000000 ) ) ;
#1077 = CARTESIAN_POINT ( 'NONE',  ( 0.000000000000000000, 0.000000000000000000, 0.000000000000000000 ) ) ;
#1078 = EDGE_LOOP ( 'NONE', ( #630, #799, #923, #483 ) ) ;
#1079 = DIRECTION ( 'NONE',  ( 0.000000000000000000, 0.000000000000000000, 1.000000000000000000 ) ) ;
#1080 = CARTESIAN_POINT ( 'NONE',  ( -16.37906831720230016, 3.000000000000000000, 28.07091236601368678 ) ) ;
#1081 = DIRECTION ( 'NONE',  ( 0.000000000000000000, 1.000000000000000000, -0.000000000000000000 ) ) ;
#1082 = VERTEX_POINT ( 'NONE', #12 ) ;
#1083 = ORIENTED_EDGE ( 'NONE', *, *, #858, .F. ) ;
#1084 = CARTESIAN_POINT ( 'NONE',  ( 25.98141447170574381, 0.000000000000000000, 13.97197559579316817 ) ) ;
#1085 = ADVANCED_FACE ( 'NONE', ( #364 ), #1154, .F. ) ;
#1086 = DIRECTION ( 'NONE',  ( -0.000000000000000000, -1.000000000000000000, -0.000000000000000000 ) ) ;
#1087 = CARTESIAN_POINT ( 'NONE',  ( -23.92588404481609388, 3.000000000000000000, -16.15710594982947867 ) ) ;
#1088 = ORIENTED_EDGE ( 'NONE', *, *, #185, .F. ) ;
#1089 = AXIS2_PLACEMENT_3D ( 'NONE', #971, #342, #63 ) ;
#1090 = AXIS2_PLACEMENT_3D ( 'NONE', #535, #1086, #705 ) ;
#1091 = CARTESIAN_POINT ( 'NONE',  ( -20.50000000000000355, 3.000000000000000000, -19.79898987322332715 ) ) ;
#1092 = ADVANCED_FACE ( 'NONE', ( #427 ), #975, .F. ) ;
#1093 = VERTEX_POINT ( 'NONE', #982 ) ;
#1094 = ORIENTED_EDGE ( 'NONE', *, *, #152, .T. ) ;
#1095 = LINE ( 'NONE', #921, #1035 ) ;
#1096 = ORIENTED_EDGE ( 'NONE', *, *, #152, .F. ) ;
#1097 = ORIENTED_EDGE ( 'NONE', *, *, #1138, .T. ) ;
#1098 = DIRECTION ( 'NONE',  ( 0.000000000000000000, -1.000000000000000000, 0.000000000000000000 ) ) ;
#1099 = DIRECTION ( 'NONE',  ( -0.000000000000000000, 1.000000000000000000, -0.000000000000000000 ) ) ;
#1100 = CARTESIAN_POINT ( 'NONE',  ( -20.50000000000000355, 3.000000000000000000, -19.79898987322332715 ) ) ;
#1101 = EDGE_LOOP ( 'NONE', ( #988, #734, #702, #430 ) ) ;
#1102 = VERTEX_POINT ( 'NONE', #805 ) ;
#1103 = CIRCLE ( 'NONE', #325, 32.50000000000000711 ) ;
#1104 = EDGE_CURVE ( 'NONE', #15, #518, #353, .T. ) ;
#1105 = AXIS2_PLACEMENT_3D ( 'NONE', #542, #654, #480 ) ;
#1106 = APPLICATION_PROTOCOL_DEFINITION ( 'draft international standard', 'automotive_design', 1998, #815 ) ;
#1107 = CIRCLE ( 'NONE', #5, 4.999999999999997335 ) ;
#1108 = VECTOR ( 'NONE', #996, 1000.000000000000000 ) ;
#1109 = DIRECTION ( 'NONE',  ( 0.000000000000000000, 1.000000000000000000, 0.000000000000000000 ) ) ;
#1110 = FACE_OUTER_BOUND ( 'NONE', #610, .T. ) ;
#1111 = VERTEX_POINT ( 'NONE', #392 ) ;
#1112 = VERTEX_POINT ( 'NONE', #668 ) ;
#1113 = CARTESIAN_POINT ( 'NONE',  ( -23.92588404481609032, 0.000000000000000000, 16.15710594982947867 ) ) ;
#1114 = LINE ( 'NONE', #1019, #347 ) ;
#1115 = CARTESIAN_POINT ( 'NONE',  ( 25.98141447170574381, 3.000000000000000000, 16.97197559579316817 ) ) ;
#1116 = ORIENTED_EDGE ( 'NONE', *, *, #917, .T. ) ;
#1117 = CYLINDRICAL_SURFACE ( 'NONE', #1127, 32.50000000000000711 ) ;
#1118 = FACE_BOUND ( 'NONE', #409, .T. ) ;
#1119 = EDGE_CURVE ( 'NONE', #29, #228, #125, .T. ) ;
#1120 = LINE ( 'NONE', #135, #652 ) ;
#1121 = ORIENTED_EDGE ( 'NONE', *, *, #161, .T. ) ;
#1122 = AXIS2_PLACEMENT_3D ( 'NONE', #522, #86, #477 ) ;
#1123 = EDGE_CURVE ( 'NONE', #707, #1102, #1018, .T. ) ;
#1124 = AXIS2_PLACEMENT_3D ( 'NONE', #831, #32, #306 ) ;
#1125 = DIRECTION ( 'NONE',  ( 0.000000000000000000, 1.000000000000000000, -0.000000000000000000 ) ) ;
#1126 = AXIS2_PLACEMENT_3D ( 'NONE', #830, #490, #486 ) ;
#1127 = AXIS2_PLACEMENT_3D ( 'NONE', #301, #294, #120 ) ;
#1128 = DIRECTION ( 'NONE',  ( -0.000000000000000000, 1.000000000000000000, -0.000000000000000000 ) ) ;
#1129 = ORIENTED_EDGE ( 'NONE', *, *, #963, .F. ) ;
#1130 = DIRECTION ( 'NONE',  ( 0.000000000000000000, 0.000000000000000000, 1.000000000000000000 ) ) ;
#1131 = CARTESIAN_POINT ( 'NONE',  ( -25.98141447170574025, 0.000000000000000000, 13.97197559579316994 ) ) ;
#1132 = CARTESIAN_POINT ( 'NONE',  ( 16.97947144918207840, 0.000000000000000000, -23.34946571779343572 ) ) ;
#1133 = ORIENTED_EDGE ( 'NONE', *, *, #100, .F. ) ;
#1134 = ADVANCED_FACE ( 'NONE', ( #108 ), #1117, .F. ) ;
#1135 = DIRECTION ( 'NONE',  ( 0.000000000000000000, -1.000000000000000000, 0.000000000000000000 ) ) ;
#1136 = CARTESIAN_POINT ( 'NONE',  ( -20.50000000000000355, 0.000000000000000000, -19.79898987322332715 ) ) ;
#1137 = VERTEX_POINT ( 'NONE', #36 ) ;
#1138 = EDGE_CURVE ( 'NONE', #1007, #709, #237, .T. ) ;
#1139 = DIRECTION ( 'NONE',  ( 0.000000000000000000, 1.000000000000000000, 0.000000000000000000 ) ) ;
#1140 = VECTOR ( 'NONE', #813, 1000.000000000000000 ) ;
#1141 = CIRCLE ( 'NONE', #672, 5.000000000000000888 ) ;
#1142 = DIRECTION ( 'NONE',  ( -0.000000000000000000, -1.000000000000000000, -0.000000000000000000 ) ) ;
#1143 = CIRCLE ( 'NONE', #310, 42.50000000000000000 ) ;
#1144 = CARTESIAN_POINT ( 'NONE',  ( 14.86715431869132686, 3.000000000000000000, 25.47975122453549801 ) ) ;
#1145 = EDGE_LOOP ( 'NONE', ( #751, #907, #425, #639 ) ) ;
#1146 = CIRCLE ( 'NONE', #513, 3.000000000000000888 ) ;
#1147 = EDGE_CURVE ( 'NONE', #980, #51, #662, .T. ) ;
#1148 = CARTESIAN_POINT ( 'NONE',  ( -25.98141447170574025, 3.000000000000000000, 16.97197559579316817 ) ) ;
#1149 = LINE ( 'NONE', #247, #766 ) ;
#1150 = CYLINDRICAL_SURFACE ( 'NONE', #577, 32.50000000000000711 ) ;
#1151 = CARTESIAN_POINT ( 'NONE',  ( -20.50000000000000355, 3.000000000000000000, 19.79898987322332715 ) ) ;
#1152 = ORIENTED_EDGE ( 'NONE', *, *, #837, .F. ) ;
#1153 = ORIENTED_EDGE ( 'NONE', *, *, #100, .T. ) ;
#1154 = CYLINDRICAL_SURFACE ( 'NONE', #311, 1.750000000000005107 ) ;
#1155 = CARTESIAN_POINT ( 'NONE',  ( 14.86715431869131798, 3.000000000000000000, -25.47975122453550156 ) ) ;
#1156 = EDGE_CURVE ( 'NONE', #1005, #308, #25, .T. ) ;
#1157 = DIRECTION ( 'NONE',  ( 0.000000000000000000, 0.000000000000000000, 1.000000000000000000 ) ) ;
#1158 = ORIENTED_EDGE ( 'NONE', *, *, #1147, .F. ) ;
#1159 = EDGE_LOOP ( 'NONE', ( #259, #363, #543, #315 ) ) ;
#1160 = CARTESIAN_POINT ( 'NONE',  ( 25.98141447170574381, 0.000000000000000000, 13.97197559579316817 ) ) ;
ENDSEC;
END-ISO-10303-21;
