ISO-10303-21;
HEADER;
FILE_DESCRIPTION (( 'STEP AP214' ),
    '1' );
FILE_NAME ('top plate_4.STEP',
    '2026-09-11T15:41:52',
    ( '' ),
    ( '' ),
    'SwSTEP 2.0',
    'SolidWorks 2025',
    '' );
FILE_SCHEMA (( 'AUTOMOTIVE_DESIGN' ));
ENDSEC;

DATA;
#1 = EDGE_LOOP ( 'NONE', ( #18, #235 ) ) ;
#2 = EDGE_CURVE ( 'NONE', #787, #202, #856, .T. ) ;
#3 = CARTESIAN_POINT ( 'NONE',  ( 48.93521765691041736, 1.500000000000000000, -22.78525403784431802 ) ) ;
#4 = CYLINDRICAL_SURFACE ( 'NONE', #306, 1.499999999999999556 ) ;
#5 = CARTESIAN_POINT ( 'NONE',  ( 1.750000000000001554, 1.500000000000000000, 13.24999999999999822 ) ) ;
#6 = ORIENTED_EDGE ( 'NONE', *, *, #281, .F. ) ;
#7 = ORIENTED_EDGE ( 'NONE', *, *, #133, .F. ) ;
#8 = EDGE_CURVE ( 'NONE', #140, #960, #52, .T. ) ;
#9 = DIRECTION ( 'NONE',  ( 9.251858538542973800E-15, 0.000000000000000000, -1.000000000000000000 ) ) ;
#10 = PLANE ( 'NONE',  #716 ) ;
#11 = EDGE_CURVE ( 'NONE', #960, #1252, #936, .T. ) ;
#12 = DIRECTION ( 'NONE',  ( 0.000000000000000000, 0.000000000000000000, -1.000000000000000000 ) ) ;
#13 = ADVANCED_FACE ( 'NONE', ( #1208 ), #434, .F. ) ;
#14 = ORIENTED_EDGE ( 'NONE', *, *, #782, .F. ) ;
#15 = CARTESIAN_POINT ( 'NONE',  ( 49.81021765691041736, 1.500000000000000000, -23.01970958122155153 ) ) ;
#16 = VECTOR ( 'NONE', #159, 1000.000000000000000 ) ;
#17 = CARTESIAN_POINT ( 'NONE',  ( 48.62063509461096800, 1.500000000000000000, -16.83012701892217322 ) ) ;
#18 = ORIENTED_EDGE ( 'NONE', *, *, #650, .F. ) ;
#19 = VECTOR ( 'NONE', #942, 999.9999999999998863 ) ;
#20 = CARTESIAN_POINT ( 'NONE',  ( 28.25476629679288010, -1.500000000000000000, -2.226166860584437135 ) ) ;
#21 = AXIS2_PLACEMENT_3D ( 'NONE', #983, #326, #219 ) ;
#22 = EDGE_CURVE ( 'NONE', #964, #476, #629, .T. ) ;
#23 = ORIENTED_EDGE ( 'NONE', *, *, #1156, .F. ) ;
#24 = FILL_AREA_STYLE_COLOUR ( '', #355 ) ;
#25 = VERTEX_POINT ( 'NONE', #1026 ) ;
#26 = DIRECTION ( 'NONE',  ( -0.000000000000000000, 1.000000000000000000, -0.000000000000000000 ) ) ;
#27 = FACE_OUTER_BOUND ( 'NONE', #267, .T. ) ;
#28 = DIRECTION ( 'NONE',  ( -0.000000000000000000, -1.000000000000000000, 0.000000000000000000 ) ) ;
#29 = EDGE_CURVE ( 'NONE', #992, #1011, #905, .T. ) ;
#30 = ORIENTED_EDGE ( 'NONE', *, *, #164, .T. ) ;
#31 = DIRECTION ( 'NONE',  ( 0.000000000000000000, -1.000000000000000000, 0.000000000000000000 ) ) ;
#32 = VERTEX_POINT ( 'NONE', #339 ) ;
#33 = CARTESIAN_POINT ( 'NONE',  ( 5.000000000000000000, 1.500000000000000000, 7.500000000000000000 ) ) ;
#34 = CARTESIAN_POINT ( 'NONE',  ( 53.31900284279042523, 1.500000000000000000, -15.19231536643239977 ) ) ;
#35 = ADVANCED_FACE ( 'NONE', ( #727 ), #939, .T. ) ;
#36 = DIRECTION ( 'NONE',  ( -0.8660254037844373753, -0.000000000000000000, 0.5000000000000021094 ) ) ;
#37 = VERTEX_POINT ( 'NONE', #1231 ) ;
#38 = ORIENTED_EDGE ( 'NONE', *, *, #1194, .F. ) ;
#39 = FACE_BOUND ( 'NONE', #544, .T. ) ;
#40 = CARTESIAN_POINT ( 'NONE',  ( 31.30012701892220761, -1.500000000000000000, -6.830127018922146576 ) ) ;
#41 = VECTOR ( 'NONE', #189, 1000.000000000000000 ) ;
#42 = AXIS2_PLACEMENT_3D ( 'NONE', #377, #483, #107 ) ;
#43 = FACE_BOUND ( 'NONE', #49, .T. ) ;
#44 = AXIS2_PLACEMENT_3D ( 'NONE', #17, #1207, #315 ) ;
#45 = VECTOR ( 'NONE', #31, 1000.000000000000000 ) ;
#46 = AXIS2_PLACEMENT_3D ( 'NONE', #469, #1051, #1257 ) ;
#47 = ORIENTED_EDGE ( 'NONE', *, *, #1007, .T. ) ;
#48 = DIRECTION ( 'NONE',  ( -0.000000000000000000, -1.000000000000000000, -0.000000000000000000 ) ) ;
#49 = EDGE_LOOP ( 'NONE', ( #327, #625 ) ) ;
#50 =( GEOMETRIC_REPRESENTATION_CONTEXT ( 3 ) GLOBAL_UNCERTAINTY_ASSIGNED_CONTEXT ( ( #400 ) ) GLOBAL_UNIT_ASSIGNED_CONTEXT ( ( #1023, #529, #1144 ) ) REPRESENTATION_CONTEXT ( 'NONE', 'WORKASPACE' ) );
#51 = FACE_OUTER_BOUND ( 'NONE', #81, .T. ) ;
#52 = LINE ( 'NONE', #239, #1034 ) ;
#53 = DIRECTION ( 'NONE',  ( 0.000000000000000000, 1.000000000000000000, 0.000000000000000000 ) ) ;
#54 = ORIENTED_EDGE ( 'NONE', *, *, #850, .T. ) ;
#55 = DIRECTION ( 'NONE',  ( 0.000000000000000000, 1.000000000000000000, -0.000000000000000000 ) ) ;
#56 = CARTESIAN_POINT ( 'NONE',  ( 28.25476629679288010, 1.500000000000000000, -2.226166860584437135 ) ) ;
#57 = VERTEX_POINT ( 'NONE', #732 ) ;
#58 = ADVANCED_FACE ( 'NONE', ( #721 ), #316, .F. ) ;
#59 = DIRECTION ( 'NONE',  ( -0.5000000000000021094, -0.000000000000000000, -0.8660254037844374864 ) ) ;
#60 = ORIENTED_EDGE ( 'NONE', *, *, #764, .T. ) ;
#61 = CARTESIAN_POINT ( 'NONE',  ( 7.117500000000038796, 1.500000000000000000, 12.32787162287150728 ) ) ;
#62 = CARTESIAN_POINT ( 'NONE',  ( 28.25476629679288010, -1.500000000000000000, -2.226166860584437135 ) ) ;
#63 = CARTESIAN_POINT ( 'NONE',  ( 29.18971609781848287, 1.500000000000000000, 14.99999999999999467 ) ) ;
#64 = AXIS2_PLACEMENT_3D ( 'NONE', #275, #571, #1262 ) ;
#65 = ADVANCED_FACE ( 'NONE', ( #27 ), #119, .T. ) ;
#66 = AXIS2_PLACEMENT_3D ( 'NONE', #585, #198, #881 ) ;
#67 = EDGE_LOOP ( 'NONE', ( #990, #760, #130, #852 ) ) ;
#68 = LINE ( 'NONE', #560, #676 ) ;
#69 = CYLINDRICAL_SURFACE ( 'NONE', #883, 1.599999999999999867 ) ;
#70 = ORIENTED_EDGE ( 'NONE', *, *, #798, .F. ) ;
#71 = DIRECTION ( 'NONE',  ( 0.000000000000000000, 0.000000000000000000, -1.000000000000000000 ) ) ;
#72 = CARTESIAN_POINT ( 'NONE',  ( 26.80587755735927402, 1.500000000000000000, -2.614395428238219576 ) ) ;
#73 = ADVANCED_FACE ( 'NONE', ( #510 ), #427, .F. ) ;
#74 = ORIENTED_EDGE ( 'NONE', *, *, #1021, .T. ) ;
#75 = DIRECTION ( 'NONE',  ( 0.000000000000000000, 0.000000000000000000, 1.000000000000000000 ) ) ;
#76 = DIRECTION ( 'NONE',  ( -0.000000000000000000, -1.000000000000000000, -0.000000000000000000 ) ) ;
#77 = LINE ( 'NONE', #875, #1218 ) ;
#78 = AXIS2_PLACEMENT_3D ( 'NONE', #607, #1001, #622 ) ;
#79 = EDGE_LOOP ( 'NONE', ( #381, #1210, #1087, #1222 ) ) ;
#80 = CIRCLE ( 'NONE', #414, 1.600000000000012079 ) ;
#81 = EDGE_LOOP ( 'NONE', ( #450, #1047, #815, #597 ) ) ;
#82 = AXIS2_PLACEMENT_3D ( 'NONE', #811, #1126, #1025 ) ;
#83 = EDGE_CURVE ( 'NONE', #57, #171, #1157, .T. ) ;
#84 = ADVANCED_BREP_SHAPE_REPRESENTATION ( 'top plate_4', ( #1189, #742 ), #50 ) ;
#85 = LINE ( 'NONE', #279, #1100 ) ;
#86 = CARTESIAN_POINT ( 'NONE',  ( 49.81021765691041736, -1.500000000000000000, -21.26970958122155153 ) ) ;
#87 = ORIENTED_EDGE ( 'NONE', *, *, #996, .T. ) ;
#88 = DIRECTION ( 'NONE',  ( -0.8660254037844380415, 0.000000000000000000, 0.5000000000000012212 ) ) ;
#89 = AXIS2_PLACEMENT_3D ( 'NONE', #844, #1223, #833 ) ;
#90 = VERTEX_POINT ( 'NONE', #62 ) ;
#91 = ADVANCED_FACE ( 'NONE', ( #1059 ), #360, .F. ) ;
#92 = FACE_OUTER_BOUND ( 'NONE', #950, .T. ) ;
#93 = CARTESIAN_POINT ( 'NONE',  ( 48.62063509461096800, 1.500000000000000000, -18.43012701892216398 ) ) ;
#94 = ORIENTED_EDGE ( 'NONE', *, *, #889, .T. ) ;
#95 = FACE_OUTER_BOUND ( 'NONE', #1137, .T. ) ;
#96 = ORIENTED_EDGE ( 'NONE', *, *, #1054, .F. ) ;
#97 = VERTEX_POINT ( 'NONE', #1220 ) ;
#98 = DIRECTION ( 'NONE',  ( 0.000000000000000000, 0.000000000000000000, 1.000000000000000000 ) ) ;
#99 = CARTESIAN_POINT ( 'NONE',  ( 25.00000000000000000, 1.500000000000000000, 9.100000000000001421 ) ) ;
#100 = LINE ( 'NONE', #587, #734 ) ;
#101 = ORIENTED_EDGE ( 'NONE', *, *, #501, .F. ) ;
#102 = ORIENTED_EDGE ( 'NONE', *, *, #782, .T. ) ;
#103 = AXIS2_PLACEMENT_3D ( 'NONE', #149, #1235, #542 ) ;
#104 = DIRECTION ( 'NONE',  ( 0.000000000000000000, -1.000000000000000000, 0.000000000000000000 ) ) ;
#105 = VECTOR ( 'NONE', #1124, 1000.000000000000114 ) ;
#106 = CIRCLE ( 'NONE', #1250, 1.749999999999999778 ) ;
#107 = DIRECTION ( 'NONE',  ( 0.000000000000000000, 0.000000000000000000, -1.000000000000000000 ) ) ;
#108 = DIRECTION ( 'NONE',  ( 0.000000000000000000, -1.000000000000000000, 0.000000000000000000 ) ) ;
#109 = ORIENTED_EDGE ( 'NONE', *, *, #302, .T. ) ;
#110 = VERTEX_POINT ( 'NONE', #765 ) ;
#111 = DIRECTION ( 'NONE',  ( -1.000000000000000000, -0.000000000000000000, 1.831809372731536340E-16 ) ) ;
#112 = DIRECTION ( 'NONE',  ( -0.000000000000000000, 1.000000000000000000, -0.000000000000000000 ) ) ;
#113 = ADVANCED_FACE ( 'NONE', ( #95 ), #970, .T. ) ;
#114 = CARTESIAN_POINT ( 'NONE',  ( 20.45205080756915450, -1.500000000000000000, -2.299038105676662447 ) ) ;
#115 = ORIENTED_EDGE ( 'NONE', *, *, #523, .F. ) ;
#116 = FILL_AREA_STYLE ('',( #24 ) ) ;
#117 = VERTEX_POINT ( 'NONE', #668 ) ;
#118 = CARTESIAN_POINT ( 'NONE',  ( 53.31900284279042523, -1.500000000000000000, -15.19231536643239977 ) ) ;
#119 = CYLINDRICAL_SURFACE ( 'NONE', #78, 1.749999999999999778 ) ;
#120 = CARTESIAN_POINT ( 'NONE',  ( 25.80551412875781381, -1.500000000000000000, 6.914566671070613069 ) ) ;
#121 = EDGE_LOOP ( 'NONE', ( #144, #486, #725, #767 ) ) ;
#122 = CARTESIAN_POINT ( 'NONE',  ( 29.18971609781848287, -1.500000000000000000, 14.99999999999999467 ) ) ;
#123 = AXIS2_PLACEMENT_3D ( 'NONE', #490, #886, #1277 ) ;
#124 = AXIS2_PLACEMENT_3D ( 'NONE', #556, #53, #634 ) ;
#125 = CARTESIAN_POINT ( 'NONE',  ( 21.20205080756914739, -1.500000000000000000, -1.000000000000000000 ) ) ;
#126 = DIRECTION ( 'NONE',  ( -0.000000000000000000, -1.000000000000000000, -0.000000000000000000 ) ) ;
#127 = EDGE_CURVE ( 'NONE', #652, #195, #1162, .T. ) ;
#128 = AXIS2_PLACEMENT_3D ( 'NONE', #914, #26, #946 ) ;
#129 = CARTESIAN_POINT ( 'NONE',  ( 9.001088913245830270, -1.500000000000000000, -1.750000000000001776 ) ) ;
#130 = ORIENTED_EDGE ( 'NONE', *, *, #1242, .F. ) ;
#131 = EDGE_CURVE ( 'NONE', #696, #269, #870, .T. ) ;
#132 = PLANE ( 'NONE',  #1254 ) ;
#133 = EDGE_CURVE ( 'NONE', #277, #937, #379, .T. ) ;
#134 = ORIENTED_EDGE ( 'NONE', *, *, #22, .F. ) ;
#135 = DIRECTION ( 'NONE',  ( 0.000000000000000000, -1.000000000000000000, 0.000000000000000000 ) ) ;
#136 = DIRECTION ( 'NONE',  ( 0.000000000000000000, 1.000000000000000000, 0.000000000000000000 ) ) ;
#137 = DIRECTION ( 'NONE',  ( -0.000000000000000000, -1.000000000000000000, 0.000000000000000000 ) ) ;
#138 = ORIENTED_EDGE ( 'NONE', *, *, #170, .F. ) ;
#139 = CARTESIAN_POINT ( 'NONE',  ( 34.70922141565033314, -1.500000000000000000, 4.038782306270205069 ) ) ;
#140 = VERTEX_POINT ( 'NONE', #963 ) ;
#141 = CARTESIAN_POINT ( 'NONE',  ( 0.000000000000000000, 1.500000000000000000, 1.749999999999999778 ) ) ;
#142 = CARTESIAN_POINT ( 'NONE',  ( 25.00000000000000000, -1.500000000000000000, 7.500000000000000000 ) ) ;
#143 = FACE_BOUND ( 'NONE', #1, .T. ) ;
#144 = ORIENTED_EDGE ( 'NONE', *, *, #1018, .F. ) ;
#145 = PRESENTATION_STYLE_ASSIGNMENT (( #802 ) ) ;
#146 = ORIENTED_EDGE ( 'NONE', *, *, #805, .F. ) ;
#147 = CARTESIAN_POINT ( 'NONE',  ( 28.10491566303593203, 1.500000000000000000, -3.364395428238221353 ) ) ;
#148 = AXIS2_PLACEMENT_3D ( 'NONE', #1067, #294, #667 ) ;
#149 = CARTESIAN_POINT ( 'NONE',  ( 1.750000000000000000, -1.500000000000000000, 1.749999999999999778 ) ) ;
#150 = AXIS2_PLACEMENT_3D ( 'NONE', #1153, #642, #1134 ) ;
#151 = CIRCLE ( 'NONE', #418, 1.500000000000000000 ) ;
#152 = VECTOR ( 'NONE', #533, 1000.000000000000000 ) ;
#153 = ORIENTED_EDGE ( 'NONE', *, *, #680, .F. ) ;
#154 = DIRECTION ( 'NONE',  ( 0.000000000000000000, 1.000000000000000000, -0.000000000000000000 ) ) ;
#155 = CARTESIAN_POINT ( 'NONE',  ( 9.876088913245835599, 1.500000000000000000, -0.2344555433772342046 ) ) ;
#156 = DIRECTION ( 'NONE',  ( 0.000000000000000000, -1.000000000000000000, 0.000000000000000000 ) ) ;
#157 = ORIENTED_EDGE ( 'NONE', *, *, #234, .T. ) ;
#158 = LINE ( 'NONE', #61, #19 ) ;
#159 = DIRECTION ( 'NONE',  ( -0.2588190451025217942, 0.000000000000000000, 0.9659258262890679791 ) ) ;
#160 = LINE ( 'NONE', #535, #393 ) ;
#161 = ORIENTED_EDGE ( 'NONE', *, *, #769, .T. ) ;
#162 = FACE_BOUND ( 'NONE', #641, .T. ) ;
#163 = LINE ( 'NONE', #640, #16 ) ;
#164 = EDGE_CURVE ( 'NONE', #955, #312, #771, .T. ) ;
#165 = VECTOR ( 'NONE', #137, 1000.000000000000000 ) ;
#166 = AXIS2_PLACEMENT_3D ( 'NONE', #803, #526, #920 ) ;
#167 = ORIENTED_EDGE ( 'NONE', *, *, #272, .F. ) ;
#168 = CARTESIAN_POINT ( 'NONE',  ( 33.56538655307444685, 1.500000000000000000, 3.068400006784063550 ) ) ;
#169 = DIRECTION ( 'NONE',  ( 0.000000000000000000, 0.000000000000000000, -1.000000000000000000 ) ) ;
#170 = EDGE_CURVE ( 'NONE', #1130, #888, #100, .T. ) ;
#171 = VERTEX_POINT ( 'NONE', #980 ) ;
#172 = ORIENTED_EDGE ( 'NONE', *, *, #522, .F. ) ;
#173 = DIRECTION ( 'NONE',  ( 1.000000000000000000, 0.000000000000000000, -0.000000000000000000 ) ) ;
#174 = LINE ( 'NONE', #1268, #371 ) ;
#175 = ADVANCED_FACE ( 'NONE', ( #694 ), #1173, .F. ) ;
#176 = ORIENTED_EDGE ( 'NONE', *, *, #329, .F. ) ;
#177 = CARTESIAN_POINT ( 'NONE',  ( 29.18971609781848287, 1.500000000000000000, 14.99999999999999467 ) ) ;
#178 = CARTESIAN_POINT ( 'NONE',  ( 31.30012701892220761, 1.500000000000000000, -5.230127018922134496 ) ) ;
#179 = EDGE_CURVE ( 'NONE', #729, #937, #77, .T. ) ;
#180 = FACE_OUTER_BOUND ( 'NONE', #447, .T. ) ;
#181 = ORIENTED_EDGE ( 'NONE', *, *, #1082, .T. ) ;
#182 = VECTOR ( 'NONE', #452, 1000.000000000000000 ) ;
#183 = ORIENTED_EDGE ( 'NONE', *, *, #743, .T. ) ;
#184 = VECTOR ( 'NONE', #628, 1000.000000000000000 ) ;
#185 = CIRCLE ( 'NONE', #268, 1.500000000000000000 ) ;
#186 = DIRECTION ( 'NONE',  ( -0.000000000000000000, 1.000000000000000000, -0.000000000000000000 ) ) ;
#187 = ORIENTED_EDGE ( 'NONE', *, *, #1196, .F. ) ;
#188 = CARTESIAN_POINT ( 'NONE',  ( 34.92151273532561362, -1.500000000000000000, -1.992731806851678611 ) ) ;
#189 = DIRECTION ( 'NONE',  ( -0.000000000000000000, -1.000000000000000000, 0.000000000000000000 ) ) ;
#190 = EDGE_CURVE ( 'NONE', #195, #839, #989, .T. ) ;
#191 = ORIENTED_EDGE ( 'NONE', *, *, #699, .T. ) ;
#192 = ORIENTED_EDGE ( 'NONE', *, *, #170, .T. ) ;
#193 = CARTESIAN_POINT ( 'NONE',  ( 31.30012701892220761, -1.500000000000000000, -8.430127018922158655 ) ) ;
#194 = EDGE_CURVE ( 'NONE', #237, #269, #276, .T. ) ;
#195 = VERTEX_POINT ( 'NONE', #894 ) ;
#196 = ORIENTED_EDGE ( 'NONE', *, *, #429, .F. ) ;
#197 = ADVANCED_FACE ( 'NONE', ( #180 ), #1190, .F. ) ;
#198 = DIRECTION ( 'NONE',  ( -0.8660254037844374864, 0.000000000000000000, 0.5000000000000021094 ) ) ;
#199 = CYLINDRICAL_SURFACE ( 'NONE', #800, 1.749999999999999778 ) ;
#200 = DIRECTION ( 'NONE',  ( 0.000000000000000000, -1.000000000000000000, 0.000000000000000000 ) ) ;
#201 = ORIENTED_EDGE ( 'NONE', *, *, #807, .T. ) ;
#202 = VERTEX_POINT ( 'NONE', #689 ) ;
#203 = CIRCLE ( 'NONE', #1201, 1.750000000000000000 ) ;
#204 = DIRECTION ( 'NONE',  ( 0.6469215329907658241, 0.000000000000000000, -0.7625565750505843843 ) ) ;
#205 = CIRCLE ( 'NONE', #331, 1.500000000000000000 ) ;
#206 = EDGE_CURVE ( 'NONE', #937, #964, #106, .T. ) ;
#207 = VECTOR ( 'NONE', #1183, 1000.000000000000000 ) ;
#208 = CARTESIAN_POINT ( 'NONE',  ( 28.10491566303593203, -1.500000000000000000, -3.364395428238221797 ) ) ;
#209 = PLANE ( 'NONE',  #456 ) ;
#210 = EDGE_CURVE ( 'NONE', #890, #32, #824, .T. ) ;
#211 = ORIENTED_EDGE ( 'NONE', *, *, #688, .T. ) ;
#212 = LINE ( 'NONE', #408, #105 ) ;
#213 = CYLINDRICAL_SURFACE ( 'NONE', #440, 1.750000000000001554 ) ;
#214 = DIRECTION ( 'NONE',  ( 0.5000000000000015543, -0.000000000000000000, 0.8660254037844378194 ) ) ;
#215 = DIRECTION ( 'NONE',  ( 0.8660254037844378194, 0.000000000000000000, -0.5000000000000013323 ) ) ;
#216 = ADVANCED_FACE ( 'NONE', ( #1091 ), #573, .F. ) ;
#217 = EDGE_LOOP ( 'NONE', ( #380, #759 ) ) ;
#218 = EDGE_CURVE ( 'NONE', #766, #787, #303, .T. ) ;
#219 = DIRECTION ( 'NONE',  ( -0.2588190451025214056, 0.000000000000000000, 0.9659258262890680902 ) ) ;
#220 = EDGE_LOOP ( 'NONE', ( #1092, #337, #30, #446 ) ) ;
#221 = CARTESIAN_POINT ( 'NONE',  ( 39.92911768987449506, -1.500000000000000000, -6.615924682924664957 ) ) ;
#222 = FACE_OUTER_BOUND ( 'NONE', #723, .T. ) ;
#223 = PRODUCT_DEFINITION ( 'UNKNOWN', '', #460, #499 ) ;
#224 = ORIENTED_EDGE ( 'NONE', *, *, #623, .T. ) ;
#225 = DIRECTION ( 'NONE',  ( 0.000000000000000000, 0.000000000000000000, -1.000000000000000000 ) ) ;
#226 = VERTEX_POINT ( 'NONE', #291 ) ;
#227 = VECTOR ( 'NONE', #1249, 1000.000000000000114 ) ;
#228 = EDGE_CURVE ( 'NONE', #652, #745, #1084, .T. ) ;
#229 = CIRCLE ( 'NONE', #442, 1.750000000000001554 ) ;
#230 = LINE ( 'NONE', #1096, #574 ) ;
#231 = DIRECTION ( 'NONE',  ( 0.000000000000000000, 0.000000000000000000, 1.000000000000000000 ) ) ;
#232 = CIRCLE ( 'NONE', #952, 1.749999999999999778 ) ;
#233 = DIRECTION ( 'NONE',  ( 0.000000000000000000, 0.000000000000000000, 1.000000000000000000 ) ) ;
#234 = EDGE_CURVE ( 'NONE', #1123, #750, #1214, .T. ) ;
#235 = ORIENTED_EDGE ( 'NONE', *, *, #658, .F. ) ;
#236 =( LENGTH_UNIT ( ) NAMED_UNIT ( * ) SI_UNIT ( .MILLI., .METRE. ) );
#237 = VERTEX_POINT ( 'NONE', #706 ) ;
#238 = CARTESIAN_POINT ( 'NONE',  ( 0.000000000000000000, -1.500000000000000000, 14.99999999999999822 ) ) ;
#239 = CARTESIAN_POINT ( 'NONE',  ( 31.30012701892220761, 1.500000000000000000, -8.430127018922158655 ) ) ;
#240 = CARTESIAN_POINT ( 'NONE',  ( 32.11649781364084077, -1.500000000000000000, 2.680171439130281108 ) ) ;
#241 = ADVANCED_FACE ( 'NONE', ( #222 ), #511, .T. ) ;
#242 = ORIENTED_EDGE ( 'NONE', *, *, #398, .F. ) ;
#243 = ORIENTED_EDGE ( 'NONE', *, *, #543, .F. ) ;
#244 = DIRECTION ( 'NONE',  ( -0.000000000000000000, -1.000000000000000000, -0.000000000000000000 ) ) ;
#245 = FACE_OUTER_BOUND ( 'NONE', #1072, .T. ) ;
#246 = VERTEX_POINT ( 'NONE', #311 ) ;
#247 = VERTEX_POINT ( 'NONE', #608 ) ;
#248 = LINE ( 'NONE', #549, #858 ) ;
#249 = EDGE_CURVE ( 'NONE', #226, #237, #1019, .T. ) ;
#250 = EDGE_CURVE ( 'NONE', #880, #32, #435, .T. ) ;
#251 = DIRECTION ( 'NONE',  ( 0.000000000000000000, 0.000000000000000000, 1.000000000000000000 ) ) ;
#252 = AXIS2_PLACEMENT_3D ( 'NONE', #738, #639, #1058 ) ;
#253 = ORIENTED_EDGE ( 'NONE', *, *, #577, .T. ) ;
#254 = CYLINDRICAL_SURFACE ( 'NONE', #150, 1.750000000000001554 ) ;
#255 = CARTESIAN_POINT ( 'NONE',  ( 55.45076211353314477, -1.500000000000000000, -15.00000000000004263 ) ) ;
#256 = EDGE_CURVE ( 'NONE', #480, #90, #907, .T. ) ;
#257 = ORIENTED_EDGE ( 'NONE', *, *, #680, .T. ) ;
#258 = CYLINDRICAL_SURFACE ( 'NONE', #968, 1.599999999999990319 ) ;
#259 = DIRECTION ( 'NONE',  ( -0.000000000000000000, 1.000000000000000000, -0.000000000000000000 ) ) ;
#260 = ORIENTED_EDGE ( 'NONE', *, *, #933, .T. ) ;
#261 = ORIENTED_EDGE ( 'NONE', *, *, #127, .T. ) ;
#262 = CARTESIAN_POINT ( 'NONE',  ( 49.81021765691041736, 1.500000000000000000, -23.01970958122155153 ) ) ;
#263 = AXIS2_PLACEMENT_3D ( 'NONE', #1016, #136, #921 ) ;
#264 = DIRECTION ( 'NONE',  ( 0.000000000000000000, 1.000000000000000000, 0.000000000000000000 ) ) ;
#265 = AXIS2_PLACEMENT_3D ( 'NONE', #86, #1275, #664 ) ;
#266 = VECTOR ( 'NONE', #244, 1000.000000000000000 ) ;
#267 = EDGE_LOOP ( 'NONE', ( #70, #1055, #6, #138 ) ) ;
#268 = AXIS2_PLACEMENT_3D ( 'NONE', #618, #891, #1193 ) ;
#269 = VERTEX_POINT ( 'NONE', #240 ) ;
#270 = DIRECTION ( 'NONE',  ( -0.6469215329907659351, 0.000000000000000000, 0.7625565750505842733 ) ) ;
#271 = DIRECTION ( 'NONE',  ( -0.000000000000000000, 1.000000000000000000, -0.000000000000000000 ) ) ;
#272 = EDGE_CURVE ( 'NONE', #90, #813, #728, .T. ) ;
#273 = ORIENTED_EDGE ( 'NONE', *, *, #295, .T. ) ;
#274 = LINE ( 'NONE', #853, #1037 ) ;
#275 = CARTESIAN_POINT ( 'NONE',  ( 25.00000000000000000, 1.500000000000000000, 7.500000000000000000 ) ) ;
#276 = LINE ( 'NONE', #1078, #41 ) ;
#277 = VERTEX_POINT ( 'NONE', #1209 ) ;
#278 = ORIENTED_EDGE ( 'NONE', *, *, #287, .F. ) ;
#279 = CARTESIAN_POINT ( 'NONE',  ( 27.40301270189227267, -1.500000000000000000, -4.580127018922084403 ) ) ;
#280 = DIRECTION ( 'NONE',  ( -0.000000000000000000, 1.000000000000000000, -0.000000000000000000 ) ) ;
#281 = EDGE_CURVE ( 'NONE', #888, #1108, #714, .T. ) ;
#282 = DIRECTION ( 'NONE',  ( 0.000000000000000000, 1.000000000000000000, -0.000000000000000000 ) ) ;
#283 = AXIS2_PLACEMENT_3D ( 'NONE', #527, #701, #12 ) ;
#284 = AXIS2_PLACEMENT_3D ( 'NONE', #748, #259, #1060 ) ;
#285 = ORIENTED_EDGE ( 'NONE', *, *, #249, .F. ) ;
#286 = CIRCLE ( 'NONE', #252, 1.600000000000000755 ) ;
#287 = EDGE_CURVE ( 'NONE', #665, #25, #521, .T. ) ;
#288 =( GEOMETRIC_REPRESENTATION_CONTEXT ( 3 ) GLOBAL_UNCERTAINTY_ASSIGNED_CONTEXT ( ( #602 ) ) GLOBAL_UNIT_ASSIGNED_CONTEXT ( ( #236, #551, #949 ) ) REPRESENTATION_CONTEXT ( 'NONE', 'WORKASPACE' ) );
#289 = CYLINDRICAL_SURFACE ( 'NONE', #821, 1.500000000000000000 ) ;
#290 = EDGE_CURVE ( 'NONE', #304, #110, #624, .T. ) ;
#291 = CARTESIAN_POINT ( 'NONE',  ( 33.47262399589201465, 1.500000000000000000, -2.380960374505461719 ) ) ;
#292 = ORIENTED_EDGE ( 'NONE', *, *, #699, .F. ) ;
#293 = CARTESIAN_POINT ( 'NONE',  ( 51.32576211353318030, 1.500000000000000000, -22.14470958122155153 ) ) ;
#294 = DIRECTION ( 'NONE',  ( 0.000000000000000000, 1.000000000000000000, 0.000000000000000000 ) ) ;
#295 = EDGE_CURVE ( 'NONE', #945, #1228, #1008, .T. ) ;
#296 = DIRECTION ( 'NONE',  ( 0.000000000000000000, 1.000000000000000000, 0.000000000000000000 ) ) ;
#297 = ORIENTED_EDGE ( 'NONE', *, *, #996, .F. ) ;
#298 = EDGE_CURVE ( 'NONE', #358, #110, #439, .T. ) ;
#299 = ORIENTED_EDGE ( 'NONE', *, *, #287, .T. ) ;
#300 = FACE_OUTER_BOUND ( 'NONE', #1005, .T. ) ;
#301 = FACE_OUTER_BOUND ( 'NONE', #484, .T. ) ;
#302 = EDGE_CURVE ( 'NONE', #745, #702, #927, .T. ) ;
#303 = LINE ( 'NONE', #388, #207 ) ;
#304 = VERTEX_POINT ( 'NONE', #505 ) ;
#305 = AXIS2_PLACEMENT_3D ( 'NONE', #142, #1127, #231 ) ;
#306 = AXIS2_PLACEMENT_3D ( 'NONE', #859, #763, #1163 ) ;
#307 = CARTESIAN_POINT ( 'NONE',  ( 22.17554191976795508, -1.500000000000000000, 18.81281473795651493 ) ) ;
#308 = CIRCLE ( 'NONE', #1273, 1.600000000000000755 ) ;
#309 = CARTESIAN_POINT ( 'NONE',  ( 9.001088913245830270, 1.500000000000000000, -1.750000000000001776 ) ) ;
#310 = EDGE_CURVE ( 'NONE', #140, #37, #80, .T. ) ;
#311 = CARTESIAN_POINT ( 'NONE',  ( 48.62063509461096800, 1.500000000000000000, -18.43012701892216398 ) ) ;
#312 = VERTEX_POINT ( 'NONE', #812 ) ;
#313 = DIRECTION ( 'NONE',  ( -0.000000000000000000, 1.000000000000000000, -0.000000000000000000 ) ) ;
#314 = VERTEX_POINT ( 'NONE', #713 ) ;
#315 = DIRECTION ( 'NONE',  ( 0.000000000000000000, 0.000000000000000000, -1.000000000000000000 ) ) ;
#316 = PLANE ( 'NONE',  #672 ) ;
#317 = CARTESIAN_POINT ( 'NONE',  ( 7.117500000000038796, -1.500000000000000000, 12.32787162287150728 ) ) ;
#318 = ORIENTED_EDGE ( 'NONE', *, *, #1131, .F. ) ;
#319 = CARTESIAN_POINT ( 'NONE',  ( 5.000000000000000000, -1.500000000000000000, 7.500000000000000000 ) ) ;
#320 = ORIENTED_EDGE ( 'NONE', *, *, #1165, .T. ) ;
#321 = LINE ( 'NONE', #141, #1159 ) ;
#322 = CARTESIAN_POINT ( 'NONE',  ( 33.56538655307444685, -1.500000000000000000, 3.068400006784063550 ) ) ;
#323 = CARTESIAN_POINT ( 'NONE',  ( 24.47000000000004860, -1.500000000000000000, -8.660254037844277164 ) ) ;
#324 = ORIENTED_EDGE ( 'NONE', *, *, #662, .F. ) ;
#325 = AXIS2_PLACEMENT_3D ( 'NONE', #384, #88, #862 ) ;
#326 = DIRECTION ( 'NONE',  ( -0.9659258262890680902, 0.000000000000000000, -0.2588190451025214056 ) ) ;
#327 = ORIENTED_EDGE ( 'NONE', *, *, #310, .F. ) ;
#328 = AXIS2_PLACEMENT_3D ( 'NONE', #129, #1227, #916 ) ;
#329 = EDGE_CURVE ( 'NONE', #611, #1266, #1122, .T. ) ;
#330 = ADVANCED_FACE ( 'NONE', ( #799, #1027, #1219, #143, #43, #1204, #444 ), #209, .F. ) ;
#331 = AXIS2_PLACEMENT_3D ( 'NONE', #621, #1109, #518 ) ;
#332 = FACE_OUTER_BOUND ( 'NONE', #1185, .T. ) ;
#333 = DIRECTION ( 'NONE',  ( 0.5000000000000011102, 0.000000000000000000, 0.8660254037844379305 ) ) ;
#334 = AXIS2_PLACEMENT_3D ( 'NONE', #590, #993, #1093 ) ;
#335 = CARTESIAN_POINT ( 'NONE',  ( 48.62063509461096800, 1.500000000000000000, -15.23012701892218246 ) ) ;
#336 = ORIENTED_EDGE ( 'NONE', *, *, #228, .T. ) ;
#337 = ORIENTED_EDGE ( 'NONE', *, *, #1196, .T. ) ;
#338 = FACE_OUTER_BOUND ( 'NONE', #845, .T. ) ;
#339 = CARTESIAN_POINT ( 'NONE',  ( 48.62063509461096800, -1.500000000000000000, -15.23012701892218246 ) ) ;
#340 = EDGE_CURVE ( 'NONE', #480, #97, #163, .T. ) ;
#341 = DIRECTION ( 'NONE',  ( -0.5000000000000021094, -0.000000000000000000, -0.8660254037844374864 ) ) ;
#342 = ORIENTED_EDGE ( 'NONE', *, *, #762, .T. ) ;
#343 = EDGE_CURVE ( 'NONE', #839, #480, #819, .T. ) ;
#344 = EDGE_LOOP ( 'NONE', ( #1158, #781, #895, #1247, #278, #924, #504, #261 ) ) ;
#345 = CARTESIAN_POINT ( 'NONE',  ( 48.62063509461096800, 1.500000000000000000, -15.23012701892218246 ) ) ;
#346 = DIRECTION ( 'NONE',  ( 0.000000000000000000, 0.000000000000000000, 1.000000000000000000 ) ) ;
#347 = PLANE ( 'NONE',  #471 ) ;
#348 = ORIENTED_EDGE ( 'NONE', *, *, #1174, .F. ) ;
#349 = ORIENTED_EDGE ( 'NONE', *, *, #417, .F. ) ;
#350 = DIRECTION ( 'NONE',  ( -0.000000000000000000, 1.000000000000000000, 0.000000000000000000 ) ) ;
#351 = AXIS2_PLACEMENT_3D ( 'NONE', #682, #296, #582 ) ;
#352 = CIRCLE ( 'NONE', #638, 1.750000000000001554 ) ;
#353 = FACE_OUTER_BOUND ( 'NONE', #121, .T. ) ;
#354 = AXIS2_PLACEMENT_3D ( 'NONE', #125, #612, #1104 ) ;
#355 = COLOUR_RGB ( '',0.7921568627450980005, 0.8196078431372548767, 0.9333333333333333481 ) ;
#356 = EDGE_CURVE ( 'NONE', #312, #481, #1155, .T. ) ;
#357 = CARTESIAN_POINT ( 'NONE',  ( 31.30012701892220761, -1.500000000000000000, -5.230127018922134496 ) ) ;
#358 = VERTEX_POINT ( 'NONE', #1033 ) ;
#359 = DIRECTION ( 'NONE',  ( -0.000000000000000000, -1.000000000000000000, -0.000000000000000000 ) ) ;
#360 = PLANE ( 'NONE',  #46 ) ;
#361 = APPLICATION_CONTEXT ( 'automotive_design' ) ;
#362 = DIRECTION ( 'NONE',  ( 0.000000000000000000, 0.000000000000000000, -1.000000000000000000 ) ) ;
#363 = DIRECTION ( 'NONE',  ( 0.000000000000000000, -1.000000000000000000, -0.000000000000000000 ) ) ;
#364 = VERTEX_POINT ( 'NONE', #1041 ) ;
#365 = FACE_BOUND ( 'NONE', #367, .T. ) ;
#366 = DIRECTION ( 'NONE',  ( -0.000000000000000000, -1.000000000000000000, -0.000000000000000000 ) ) ;
#367 = EDGE_LOOP ( 'NONE', ( #647, #1270, #74, #678, #167, #810, #1170, #467 ) ) ;
#368 = CARTESIAN_POINT ( 'NONE',  ( 48.93521765691040315, 1.500000000000000000, -22.78525403784433578 ) ) ;
#369 = EDGE_CURVE ( 'NONE', #880, #246, #572, .T. ) ;
#370 = CARTESIAN_POINT ( 'NONE',  ( 41.82295255245034582, -1.500000000000000000, -4.346504277761856549 ) ) ;
#371 = VECTOR ( 'NONE', #387, 1000.000000000000000 ) ;
#372 = CIRCLE ( 'NONE', #1253, 1.500000000000000000 ) ;
#373 = ORIENTED_EDGE ( 'NONE', *, *, #11, .F. ) ;
#374 = AXIS2_PLACEMENT_3D ( 'NONE', #593, #1269, #778 ) ;
#375 = EDGE_LOOP ( 'NONE', ( #830, #500, #406, #94 ) ) ;
#376 = CARTESIAN_POINT ( 'NONE',  ( 1.750000000000008438, 1.500000000000000000, 14.99999999999999822 ) ) ;
#377 = CARTESIAN_POINT ( 'NONE',  ( 34.92151273532561362, 1.500000000000000000, -1.992731806851678611 ) ) ;
#378 = EDGE_CURVE ( 'NONE', #1130, #57, #1052, .T. ) ;
#379 = LINE ( 'NONE', #1197, #437 ) ;
#380 = ORIENTED_EDGE ( 'NONE', *, *, #1090, .T. ) ;
#381 = ORIENTED_EDGE ( 'NONE', *, *, #1086, .F. ) ;
#382 = DIRECTION ( 'NONE',  ( 0.000000000000000000, 0.000000000000000000, -1.000000000000000000 ) ) ;
#383 = CARTESIAN_POINT ( 'NONE',  ( 1.749999999999999778, 1.500000000000000000, -3.205666402280188287E-16 ) ) ;
#384 = CARTESIAN_POINT ( 'NONE',  ( 22.53551270189218414, -1.500000000000000000, -13.01088432476372070 ) ) ;
#385 = ORIENTED_EDGE ( 'NONE', *, *, #290, .F. ) ;
#386 = CARTESIAN_POINT ( 'NONE',  ( 34.70922141565033314, 1.500000000000000000, 4.038782306270206846 ) ) ;
#387 = DIRECTION ( 'NONE',  ( 1.000000000000000000, -0.000000000000000000, -1.156482317317871478E-16 ) ) ;
#388 = CARTESIAN_POINT ( 'NONE',  ( 25.00000000000000000, 1.500000000000000000, 5.899999999999997691 ) ) ;
#389 = CIRCLE ( 'NONE', #284, 1.750000000000001554 ) ;
#390 = EDGE_LOOP ( 'NONE', ( #513, #183 ) ) ;
#391 = VECTOR ( 'NONE', #633, 1000.000000000000000 ) ;
#392 = ORIENTED_EDGE ( 'NONE', *, *, #850, .F. ) ;
#393 = VECTOR ( 'NONE', #59, 1000.000000000000000 ) ;
#394 = CARTESIAN_POINT ( 'NONE',  ( 48.62063509461096800, 1.500000000000000000, -16.83012701892217322 ) ) ;
#395 = LINE ( 'NONE', #758, #908 ) ;
#396 = EDGE_CURVE ( 'NONE', #110, #1228, #1136, .T. ) ;
#397 = DIRECTION ( 'NONE',  ( -0.2588190451025214056, 0.000000000000000000, 0.9659258262890680902 ) ) ;
#398 = EDGE_CURVE ( 'NONE', #1199, #1123, #1151, .T. ) ;
#399 = ORIENTED_EDGE ( 'NONE', *, *, #906, .T. ) ;
#400 = UNCERTAINTY_MEASURE_WITH_UNIT (LENGTH_MEASURE( 1.000000000000000082E-05 ), #1023, 'distance_accuracy_value', 'NONE');
#401 = VERTEX_POINT ( 'NONE', #836 ) ;
#402 = CYLINDRICAL_SURFACE ( 'NONE', #659, 1.600000000000011191 ) ;
#403 = LINE ( 'NONE', #238, #885 ) ;
#404 = ADVANCED_FACE ( 'NONE', ( #245 ), #1232, .F. ) ;
#405 = DIRECTION ( 'NONE',  ( -0.000000000000000000, 1.000000000000000000, -0.000000000000000000 ) ) ;
#406 = ORIENTED_EDGE ( 'NONE', *, *, #131, .F. ) ;
#407 = EDGE_LOOP ( 'NONE', ( #292, #620, #1169, #982 ) ) ;
#408 = CARTESIAN_POINT ( 'NONE',  ( 22.17554191976795508, -1.500000000000000000, 18.81281473795651493 ) ) ;
#409 = EDGE_CURVE ( 'NONE', #358, #958, #449, .T. ) ;
#410 = DIRECTION ( 'NONE',  ( 0.000000000000000000, -1.000000000000000000, 0.000000000000000000 ) ) ;
#411 = CARTESIAN_POINT ( 'NONE',  ( 50.45076211353316609, -1.500000000000000000, -23.66025403784433934 ) ) ;
#412 = AXIS2_PLACEMENT_3D ( 'NONE', #566, #108, #1099 ) ;
#413 = EDGE_LOOP ( 'NONE', ( #855, #971 ) ) ;
#414 = AXIS2_PLACEMENT_3D ( 'NONE', #428, #900, #233 ) ;
#415 = CARTESIAN_POINT ( 'NONE',  ( 0.000000000000000000, 1.500000000000000000, 0.000000000000000000 ) ) ;
#416 = CIRCLE ( 'NONE', #457, 1.599999999999990319 ) ;
#417 = EDGE_CURVE ( 'NONE', #117, #958, #948, .T. ) ;
#418 = AXIS2_PLACEMENT_3D ( 'NONE', #912, #104, #1216 ) ;
#419 = DIRECTION ( 'NONE',  ( 0.000000000000000000, 0.000000000000000000, -1.000000000000000000 ) ) ;
#420 = DIRECTION ( 'NONE',  ( -0.000000000000000000, -1.000000000000000000, -0.000000000000000000 ) ) ;
#421 = ADVANCED_FACE ( 'NONE', ( #353 ), #741, .T. ) ;
#422 = ORIENTED_EDGE ( 'NONE', *, *, #83, .T. ) ;
#423 = SURFACE_SIDE_STYLE ('',( #507 ) ) ;
#424 = ORIENTED_EDGE ( 'NONE', *, *, #1242, .T. ) ;
#425 = ADVANCED_FACE ( 'NONE', ( #465 ), #347, .F. ) ;
#426 = CARTESIAN_POINT ( 'NONE',  ( 33.47262399589200754, -1.500000000000000000, -2.380960374505460830 ) ) ;
#427 = CYLINDRICAL_SURFACE ( 'NONE', #263, 1.750000000000000000 ) ;
#428 = CARTESIAN_POINT ( 'NONE',  ( 31.30012701892220761, 1.500000000000000000, -6.830127018922146576 ) ) ;
#429 = EDGE_CURVE ( 'NONE', #888, #735, #657, .T. ) ;
#430 = ORIENTED_EDGE ( 'NONE', *, *, #1116, .F. ) ;
#431 = LINE ( 'NONE', #415, #1057 ) ;
#432 = ORIENTED_EDGE ( 'NONE', *, *, #784, .F. ) ;
#433 = DIRECTION ( 'NONE',  ( 0.000000000000000000, 0.000000000000000000, 1.000000000000000000 ) ) ;
#434 = CYLINDRICAL_SURFACE ( 'NONE', #1094, 1.500000000000000000 ) ;
#435 = LINE ( 'NONE', #335, #1272 ) ;
#436 = ORIENTED_EDGE ( 'NONE', *, *, #1128, .T. ) ;
#437 = VECTOR ( 'NONE', #1264, 1000.000000000000000 ) ;
#438 = EDGE_LOOP ( 'NONE', ( #324, #96, #827, #297 ) ) ;
#439 = CIRCLE ( 'NONE', #328, 1.750000000000000000 ) ;
#440 = AXIS2_PLACEMENT_3D ( 'NONE', #1000, #135, #1006 ) ;
#441 = PLANE ( 'NONE',  #493 ) ;
#442 = AXIS2_PLACEMENT_3D ( 'NONE', #755, #956, #464 ) ;
#443 = AXIS2_PLACEMENT_3D ( 'NONE', #485, #792, #1070 ) ;
#444 = FACE_BOUND ( 'NONE', #344, .T. ) ;
#445 = ADVANCED_FACE ( 'NONE', ( #947 ), #1140, .F. ) ;
#446 = ORIENTED_EDGE ( 'NONE', *, *, #356, .T. ) ;
#447 = EDGE_LOOP ( 'NONE', ( #1239, #1229, #773, #627 ) ) ;
#448 = DIRECTION ( 'NONE',  ( 0.000000000000000000, 0.000000000000000000, 1.000000000000000000 ) ) ;
#449 = LINE ( 'NONE', #847, #1251 ) ;
#450 = ORIENTED_EDGE ( 'NONE', *, *, #83, .F. ) ;
#451 = CARTESIAN_POINT ( 'NONE',  ( 39.92911768987449506, -1.500000000000000000, -6.615924682924664957 ) ) ;
#452 = DIRECTION ( 'NONE',  ( 0.000000000000000000, -1.000000000000000000, -0.000000000000000000 ) ) ;
#453 = ORIENTED_EDGE ( 'NONE', *, *, #557, .T. ) ;
#454 = ORIENTED_EDGE ( 'NONE', *, *, #29, .T. ) ;
#455 = LINE ( 'NONE', #841, #617 ) ;
#456 = AXIS2_PLACEMENT_3D ( 'NONE', #828, #601, #1105 ) ;
#457 = AXIS2_PLACEMENT_3D ( 'NONE', #1066, #579, #75 ) ;
#458 = CARTESIAN_POINT ( 'NONE',  ( 41.82295255245034582, -1.500000000000000000, -4.346504277761856549 ) ) ;
#459 = ORIENTED_EDGE ( 'NONE', *, *, #1261, .F. ) ;
#460 = PRODUCT_DEFINITION_FORMATION_WITH_SPECIFIED_SOURCE ( 'ANY', '', #1111, .NOT_KNOWN. ) ;
#461 = DIRECTION ( 'NONE',  ( 0.000000000000000000, 1.000000000000000000, 0.000000000000000000 ) ) ;
#462 = DIRECTION ( 'NONE',  ( -0.000000000000000000, -1.000000000000000000, -0.000000000000000000 ) ) ;
#463 = ORIENTED_EDGE ( 'NONE', *, *, #2, .F. ) ;
#464 = DIRECTION ( 'NONE',  ( 0.000000000000000000, 0.000000000000000000, -1.000000000000000000 ) ) ;
#465 = FACE_OUTER_BOUND ( 'NONE', #1175, .T. ) ;
#466 = DIRECTION ( 'NONE',  ( 0.000000000000000000, 0.000000000000000000, 1.000000000000000000 ) ) ;
#467 = ORIENTED_EDGE ( 'NONE', *, *, #662, .T. ) ;
#468 = CARTESIAN_POINT ( 'NONE',  ( 0.000000000000000000, 1.500000000000000000, 13.24999999999999822 ) ) ;
#469 = CARTESIAN_POINT ( 'NONE',  ( 4.117500000000099192, -1.500000000000000000, 7.131719200164991612 ) ) ;
#470 = FACE_OUTER_BOUND ( 'NONE', #690, .T. ) ;
#471 = AXIS2_PLACEMENT_3D ( 'NONE', #733, #843, #1147 ) ;
#472 = CARTESIAN_POINT ( 'NONE',  ( 4.117500000000099192, 1.500000000000000000, 7.131719200164991612 ) ) ;
#473 = CIRCLE ( 'NONE', #909, 1.750000000000001554 ) ;
#474 = ORIENTED_EDGE ( 'NONE', *, *, #746, .F. ) ;
#475 = STYLED_ITEM ( 'NONE', ( #145 ), #1189 ) ;
#476 = VERTEX_POINT ( 'NONE', #63 ) ;
#477 = DIRECTION ( 'NONE',  ( 0.000000000000000000, -1.000000000000000000, 0.000000000000000000 ) ) ;
#478 = DIRECTION ( 'NONE',  ( 4.625929269271486900E-15, 0.000000000000000000, -1.000000000000000000 ) ) ;
#479 = CARTESIAN_POINT ( 'NONE',  ( 30.63514326020316147, -1.500000000000000000, 8.208661896583210549 ) ) ;
#480 = VERTEX_POINT ( 'NONE', #56 ) ;
#481 = VERTEX_POINT ( 'NONE', #458 ) ;
#482 = DIRECTION ( 'NONE',  ( -0.000000000000000000, 1.000000000000000000, -0.000000000000000000 ) ) ;
#483 = DIRECTION ( 'NONE',  ( 0.000000000000000000, -1.000000000000000000, 0.000000000000000000 ) ) ;
#484 = EDGE_LOOP ( 'NONE', ( #7, #60, #342, #684 ) ) ;
#485 = CARTESIAN_POINT ( 'NONE',  ( 48.62063509461096800, -1.500000000000000000, -16.83012701892217322 ) ) ;
#486 = ORIENTED_EDGE ( 'NONE', *, *, #1156, .T. ) ;
#487 = ORIENTED_EDGE ( 'NONE', *, *, #302, .F. ) ;
#488 = LINE ( 'NONE', #293, #840 ) ;
#489 = DIRECTION ( 'NONE',  ( -0.000000000000000000, -1.000000000000000000, -0.000000000000000000 ) ) ;
#490 = CARTESIAN_POINT ( 'NONE',  ( 25.00000000000000000, 1.500000000000000000, 7.500000000000000000 ) ) ;
#491 = AXIS2_PLACEMENT_3D ( 'NONE', #561, #264, #251 ) ;
#492 = ORIENTED_EDGE ( 'NONE', *, *, #743, .F. ) ;
#493 = AXIS2_PLACEMENT_3D ( 'NONE', #826, #726, #1031 ) ;
#494 = ORIENTED_EDGE ( 'NONE', *, *, #769, .F. ) ;
#495 = DIRECTION ( 'NONE',  ( 0.000000000000000000, -1.000000000000000000, 0.000000000000000000 ) ) ;
#496 = DIRECTION ( 'NONE',  ( 0.000000000000000000, -1.000000000000000000, 0.000000000000000000 ) ) ;
#497 = CARTESIAN_POINT ( 'NONE',  ( 22.53551270189218414, 1.500000000000000000, -13.01088432476372070 ) ) ;
#498 = ORIENTED_EDGE ( 'NONE', *, *, #991, .T. ) ;
#499 = PRODUCT_DEFINITION_CONTEXT ( 'detailed design', #361, 'design' ) ;
#500 = ORIENTED_EDGE ( 'NONE', *, *, #194, .T. ) ;
#501 = EDGE_CURVE ( 'NONE', #997, #829, #389, .T. ) ;
#502 = PLANE ( 'NONE',  #21 ) ;
#503 = DIRECTION ( 'NONE',  ( 0.000000000000000000, -1.000000000000000000, 0.000000000000000000 ) ) ;
#504 = ORIENTED_EDGE ( 'NONE', *, *, #228, .F. ) ;
#505 = CARTESIAN_POINT ( 'NONE',  ( 48.93521765691040315, -1.500000000000000000, -22.78525403784431447 ) ) ;
#506 = EDGE_LOOP ( 'NONE', ( #1243, #976, #463, #1125 ) ) ;
#507 = SURFACE_STYLE_FILL_AREA ( #116 ) ;
#508 = ORIENTED_EDGE ( 'NONE', *, *, #719, .T. ) ;
#509 = FACE_OUTER_BOUND ( 'NONE', #1135, .T. ) ;
#510 = FACE_OUTER_BOUND ( 'NONE', #407, .T. ) ;
#511 = PLANE ( 'NONE',  #1256 ) ;
#512 = AXIS2_PLACEMENT_3D ( 'NONE', #40, #804, #346 ) ;
#513 = ORIENTED_EDGE ( 'NONE', *, *, #2, .T. ) ;
#514 = CIRCLE ( 'NONE', #1176, 1.600000000000002531 ) ;
#515 = DIRECTION ( 'NONE',  ( 0.000000000000000000, 0.000000000000000000, -1.000000000000000000 ) ) ;
#516 = CIRCLE ( 'NONE', #354, 1.500000000000000000 ) ;
#517 = MECHANICAL_DESIGN_GEOMETRIC_PRESENTATION_REPRESENTATION (  '', ( #475 ), #288 ) ;
#518 = DIRECTION ( 'NONE',  ( 0.000000000000000000, 0.000000000000000000, -1.000000000000000000 ) ) ;
#519 = DIRECTION ( 'NONE',  ( 0.000000000000000000, -1.000000000000000000, 0.000000000000000000 ) ) ;
#520 = ADVANCED_FACE ( 'NONE', ( #957 ), #69, .F. ) ;
#521 = LINE ( 'NONE', #818, #775 ) ;
#522 = EDGE_CURVE ( 'NONE', #637, #1266, #656, .T. ) ;
#523 = EDGE_CURVE ( 'NONE', #1252, #960, #986, .T. ) ;
#524 = ORIENTED_EDGE ( 'NONE', *, *, #879, .T. ) ;
#525 = FACE_OUTER_BOUND ( 'NONE', #220, .T. ) ;
#526 = DIRECTION ( 'NONE',  ( 0.000000000000000000, 1.000000000000000000, 0.000000000000000000 ) ) ;
#527 = CARTESIAN_POINT ( 'NONE',  ( 29.18971609781848287, -1.500000000000000000, 13.24999999999999467 ) ) ;
#528 = ORIENTED_EDGE ( 'NONE', *, *, #557, .F. ) ;
#529 =( NAMED_UNIT ( * ) PLANE_ANGLE_UNIT ( ) SI_UNIT ( $, .RADIAN. ) );
#530 = ORIENTED_EDGE ( 'NONE', *, *, #889, .F. ) ;
#531 = DIRECTION ( 'NONE',  ( -0.000000000000000000, -1.000000000000000000, 0.000000000000000000 ) ) ;
#532 = EDGE_CURVE ( 'NONE', #669, #277, #203, .T. ) ;
#533 = DIRECTION ( 'NONE',  ( -0.2588190451025214056, 0.000000000000000000, 0.9659258262890680902 ) ) ;
#534 = ORIENTED_EDGE ( 'NONE', *, *, #805, .T. ) ;
#535 = CARTESIAN_POINT ( 'NONE',  ( 50.45076211353316609, 1.500000000000000000, -23.66025403784433934 ) ) ;
#536 = VERTEX_POINT ( 'NONE', #99 ) ;
#537 = AXIS2_PLACEMENT_3D ( 'NONE', #72, #1241, #362 ) ;
#538 = CIRCLE ( 'NONE', #695, 1.599999999999990319 ) ;
#539 = LINE ( 'NONE', #451, #1237 ) ;
#540 = DIRECTION ( 'NONE',  ( 0.000000000000000000, 0.000000000000000000, -1.000000000000000000 ) ) ;
#541 = VECTOR ( 'NONE', #806, 999.9999999999998863 ) ;
#542 = DIRECTION ( 'NONE',  ( 0.000000000000000000, 0.000000000000000000, -1.000000000000000000 ) ) ;
#543 = EDGE_CURVE ( 'NONE', #246, #890, #884, .T. ) ;
#544 = EDGE_LOOP ( 'NONE', ( #917, #808 ) ) ;
#545 = DIRECTION ( 'NONE',  ( -0.8660254037844377084, 0.000000000000000000, 0.5000000000000016653 ) ) ;
#546 = DIRECTION ( 'NONE',  ( -0.000000000000000000, 1.000000000000000000, -0.000000000000000000 ) ) ;
#547 = PLANE ( 'NONE',  #89 ) ;
#548 = ORIENTED_EDGE ( 'NONE', *, *, #1018, .T. ) ;
#549 = CARTESIAN_POINT ( 'NONE',  ( 27.82219034553195058, -1.500000000000000000, -0.6117714323462157822 ) ) ;
#550 = CARTESIAN_POINT ( 'NONE',  ( 34.17151273532562783, -1.500000000000000000, -3.291769912528342612 ) ) ;
#551 =( NAMED_UNIT ( * ) PLANE_ANGLE_UNIT ( ) SI_UNIT ( $, .RADIAN. ) );
#552 = ORIENTED_EDGE ( 'NONE', *, *, #532, .F. ) ;
#553 = DIRECTION ( 'NONE',  ( -1.156482317317871478E-16, 0.000000000000000000, -1.000000000000000000 ) ) ;
#554 = AXIS2_PLACEMENT_3D ( 'NONE', #1046, #366, #943 ) ;
#555 = AXIS2_PLACEMENT_3D ( 'NONE', #1161, #477, #71 ) ;
#556 = CARTESIAN_POINT ( 'NONE',  ( 26.37330160609834806, -1.500000000000000000, -1.000000000000000000 ) ) ;
#557 = EDGE_CURVE ( 'NONE', #37, #1252, #681, .T. ) ;
#558 = EDGE_CURVE ( 'NONE', #226, #1199, #736, .T. ) ;
#559 = ORIENTED_EDGE ( 'NONE', *, *, #206, .T. ) ;
#560 = CARTESIAN_POINT ( 'NONE',  ( 33.47262399589200754, -1.500000000000000000, -2.380960374505460830 ) ) ;
#561 = CARTESIAN_POINT ( 'NONE',  ( 48.62063509461096800, 1.500000000000000000, -16.83012701892217322 ) ) ;
#562 = ORIENTED_EDGE ( 'NONE', *, *, #396, .T. ) ;
#563 = ORIENTED_EDGE ( 'NONE', *, *, #658, .T. ) ;
#564 = CARTESIAN_POINT ( 'NONE',  ( 51.32576211353318030, 1.500000000000000000, -22.14470958122155153 ) ) ;
#565 = DIRECTION ( 'NONE',  ( 0.000000000000000000, -1.000000000000000000, 0.000000000000000000 ) ) ;
#566 = CARTESIAN_POINT ( 'NONE',  ( 26.10397459621561822, 1.500000000000000000, -3.830127018922085291 ) ) ;
#567 = VERTEX_POINT ( 'NONE', #687 ) ;
#568 = ORIENTED_EDGE ( 'NONE', *, *, #8, .T. ) ;
#569 = CARTESIAN_POINT ( 'NONE',  ( 28.10491566303593203, -1.500000000000000000, -3.364395428238221797 ) ) ;
#570 = VECTOR ( 'NONE', #1168, 1000.000000000000114 ) ;
#571 = DIRECTION ( 'NONE',  ( 0.000000000000000000, 1.000000000000000000, 0.000000000000000000 ) ) ;
#572 = CIRCLE ( 'NONE', #491, 1.599999999999990319 ) ;
#573 = CYLINDRICAL_SURFACE ( 'NONE', #374, 1.500000000000000000 ) ;
#574 = VECTOR ( 'NONE', #112, 1000.000000000000000 ) ;
#575 = ORIENTED_EDGE ( 'NONE', *, *, #398, .T. ) ;
#576 = ORIENTED_EDGE ( 'NONE', *, *, #310, .T. ) ;
#577 = EDGE_CURVE ( 'NONE', #964, #753, #395, .T. ) ;
#578 = ADVANCED_FACE ( 'NONE', ( #1089 ), #199, .T. ) ;
#579 = DIRECTION ( 'NONE',  ( 0.000000000000000000, 1.000000000000000000, 0.000000000000000000 ) ) ;
#580 = EDGE_LOOP ( 'NONE', ( #474, #1179, #1271, #187 ) ) ;
#581 = DIRECTION ( 'NONE',  ( -0.000000000000000000, 1.000000000000000000, -0.000000000000000000 ) ) ;
#582 = DIRECTION ( 'NONE',  ( 0.000000000000000000, 0.000000000000000000, 1.000000000000000000 ) ) ;
#583 = ORIENTED_EDGE ( 'NONE', *, *, #1276, .F. ) ;
#584 = ORIENTED_EDGE ( 'NONE', *, *, #190, .F. ) ;
#585 = CARTESIAN_POINT ( 'NONE',  ( 50.45076211353316609, 1.500000000000000000, -23.66025403784433934 ) ) ;
#586 = CARTESIAN_POINT ( 'NONE',  ( 49.81021765691041736, -1.500000000000000000, -23.01970958122155153 ) ) ;
#587 = CARTESIAN_POINT ( 'NONE',  ( 30.52419010415700384, 1.500000000000000000, 14.38211268273383858 ) ) ;
#588 = ORIENTED_EDGE ( 'NONE', *, *, #272, .T. ) ;
#589 = ORIENTED_EDGE ( 'NONE', *, *, #378, .T. ) ;
#590 = CARTESIAN_POINT ( 'NONE',  ( 5.000000000000000000, -1.500000000000000000, 7.500000000000000000 ) ) ;
#591 = DIRECTION ( 'NONE',  ( 0.000000000000000000, 0.000000000000000000, 1.000000000000000000 ) ) ;
#592 = EDGE_CURVE ( 'NONE', #753, #1108, #174, .T. ) ;
#593 = CARTESIAN_POINT ( 'NONE',  ( 26.10397459621561822, -1.500000000000000000, -3.830127018922085291 ) ) ;
#594 = VECTOR ( 'NONE', #770, 1000.000000000000000 ) ;
#595 = VERTEX_POINT ( 'NONE', #892 ) ;
#596 = AXIS2_PLACEMENT_3D ( 'NONE', #309, #503, #1195 ) ;
#597 = ORIENTED_EDGE ( 'NONE', *, *, #1082, .F. ) ;
#598 = CIRCLE ( 'NONE', #718, 1.600000000000000755 ) ;
#599 = DIRECTION ( 'NONE',  ( 0.7625565750505843843, 0.000000000000000000, 0.6469215329907658241 ) ) ;
#600 = CARTESIAN_POINT ( 'NONE',  ( 20.45205080756915450, -1.500000000000000000, -2.299038105676662447 ) ) ;
#601 = DIRECTION ( 'NONE',  ( 0.000000000000000000, -1.000000000000000000, 0.000000000000000000 ) ) ;
#602 = UNCERTAINTY_MEASURE_WITH_UNIT (LENGTH_MEASURE( 1.000000000000000082E-05 ), #236, 'distance_accuracy_value', 'NONE');
#603 = ORIENTED_EDGE ( 'NONE', *, *, #928, .T. ) ;
#604 = ADVANCED_FACE ( 'NONE', ( #1083 ), #4, .F. ) ;
#605 = DIRECTION ( 'NONE',  ( -0.2588190451025217942, 0.000000000000000000, 0.9659258262890679791 ) ) ;
#606 = CARTESIAN_POINT ( 'NONE',  ( 25.00000000000000000, -1.500000000000000000, 5.899999999999997691 ) ) ;
#607 = CARTESIAN_POINT ( 'NONE',  ( 29.18971609781848287, 1.500000000000000000, 13.24999999999999467 ) ) ;
#608 = CARTESIAN_POINT ( 'NONE',  ( 9.001088913245830270, 1.500000000000000000, -1.648827903607363097E-15 ) ) ;
#609 = EDGE_LOOP ( 'NONE', ( #430, #691, #925, #102 ) ) ;
#610 = LINE ( 'NONE', #15, #861 ) ;
#611 = VERTEX_POINT ( 'NONE', #1064 ) ;
#612 = DIRECTION ( 'NONE',  ( -0.000000000000000000, 1.000000000000000000, -0.000000000000000000 ) ) ;
#613 = CARTESIAN_POINT ( 'NONE',  ( 30.00000000000000355, 1.500000000000000000, 14.99999999999999467 ) ) ;
#614 = DIRECTION ( 'NONE',  ( 1.000000000000000000, 0.000000000000000000, -0.000000000000000000 ) ) ;
#615 = CIRCLE ( 'NONE', #64, 1.600000000000002531 ) ;
#616 = ORIENTED_EDGE ( 'NONE', *, *, #281, .T. ) ;
#617 = VECTOR ( 'NONE', #545, 999.9999999999998863 ) ;
#618 = CARTESIAN_POINT ( 'NONE',  ( 26.37330160609834806, -1.500000000000000000, -1.000000000000000000 ) ) ;
#619 = VECTOR ( 'NONE', #495, 1000.000000000000000 ) ;
#620 = ORIENTED_EDGE ( 'NONE', *, *, #396, .F. ) ;
#621 = CARTESIAN_POINT ( 'NONE',  ( 26.37330160609834806, 1.500000000000000000, -1.000000000000000000 ) ) ;
#622 = DIRECTION ( 'NONE',  ( 0.000000000000000000, 0.000000000000000000, -1.000000000000000000 ) ) ;
#623 = EDGE_CURVE ( 'NONE', #304, #637, #352, .T. ) ;
#624 = LINE ( 'NONE', #323, #1053 ) ;
#625 = ORIENTED_EDGE ( 'NONE', *, *, #807, .F. ) ;
#626 = LINE ( 'NONE', #139, #779 ) ;
#627 = ORIENTED_EDGE ( 'NONE', *, *, #848, .F. ) ;
#628 = DIRECTION ( 'NONE',  ( 0.000000000000000000, 1.000000000000000000, -0.000000000000000000 ) ) ;
#629 = LINE ( 'NONE', #613, #636 ) ;
#630 = CARTESIAN_POINT ( 'NONE',  ( 24.47000000000004860, 1.500000000000000000, -8.660254037844277164 ) ) ;
#631 = ORIENTED_EDGE ( 'NONE', *, *, #369, .T. ) ;
#632 = ORIENTED_EDGE ( 'NONE', *, *, #295, .F. ) ;
#633 = DIRECTION ( 'NONE',  ( -0.000000000000000000, 1.000000000000000000, -0.000000000000000000 ) ) ;
#634 = DIRECTION ( 'NONE',  ( 0.000000000000000000, 0.000000000000000000, 1.000000000000000000 ) ) ;
#635 = ORIENTED_EDGE ( 'NONE', *, *, #1021, .F. ) ;
#636 = VECTOR ( 'NONE', #1032, 1000.000000000000000 ) ;
#637 = VERTEX_POINT ( 'NONE', #586 ) ;
#638 = AXIS2_PLACEMENT_3D ( 'NONE', #1172, #565, #962 ) ;
#639 = DIRECTION ( 'NONE',  ( 0.000000000000000000, 1.000000000000000000, 0.000000000000000000 ) ) ;
#640 = CARTESIAN_POINT ( 'NONE',  ( 25.80551412875781381, 1.500000000000000000, 6.914566671070613069 ) ) ;
#641 = EDGE_LOOP ( 'NONE', ( #849, #498 ) ) ;
#642 = DIRECTION ( 'NONE',  ( 0.000000000000000000, -1.000000000000000000, 0.000000000000000000 ) ) ;
#643 = DIRECTION ( 'NONE',  ( 0.000000000000000000, 0.000000000000000000, -1.000000000000000000 ) ) ;
#644 = DIRECTION ( 'NONE',  ( 0.000000000000000000, -1.000000000000000000, 0.000000000000000000 ) ) ;
#645 = EDGE_LOOP ( 'NONE', ( #336, #109, #801, #87 ) ) ;
#646 = CARTESIAN_POINT ( 'NONE',  ( 51.32576211353318030, -1.500000000000000000, -22.14470958122155153 ) ) ;
#647 = ORIENTED_EDGE ( 'NONE', *, *, #864, .T. ) ;
#648 = CARTESIAN_POINT ( 'NONE',  ( 30.52419010415701450, -1.500000000000000000, 14.38211268273382437 ) ) ;
#649 = ADVANCED_FACE ( 'NONE', ( #470 ), #785, .F. ) ;
#650 = EDGE_CURVE ( 'NONE', #766, #536, #514, .T. ) ;
#651 = CARTESIAN_POINT ( 'NONE',  ( 5.000000000000000000, 1.500000000000000000, 7.500000000000000000 ) ) ;
#652 = VERTEX_POINT ( 'NONE', #1167 ) ;
#653 = VECTOR ( 'NONE', #675, 1000.000000000000114 ) ;
#654 = LINE ( 'NONE', #1240, #391 ) ;
#655 = DIRECTION ( 'NONE',  ( -0.000000000000000000, 1.000000000000000000, -0.000000000000000000 ) ) ;
#656 = CIRCLE ( 'NONE', #265, 1.750000000000001554 ) ;
#657 = LINE ( 'NONE', #255, #1074 ) ;
#658 = EDGE_CURVE ( 'NONE', #536, #766, #615, .T. ) ;
#659 = AXIS2_PLACEMENT_3D ( 'NONE', #999, #1114, #225 ) ;
#660 = ORIENTED_EDGE ( 'NONE', *, *, #290, .T. ) ;
#661 = ORIENTED_EDGE ( 'NONE', *, *, #683, .T. ) ;
#662 = EDGE_CURVE ( 'NONE', #992, #314, #1121, .T. ) ;
#663 = CARTESIAN_POINT ( 'NONE',  ( 0.000000000000000000, -1.500000000000000000, 0.5000000000000000000 ) ) ;
#664 = DIRECTION ( 'NONE',  ( 0.000000000000000000, 0.000000000000000000, -1.000000000000000000 ) ) ;
#665 = VERTEX_POINT ( 'NONE', #868 ) ;
#666 = DIRECTION ( 'NONE',  ( 0.000000000000000000, -1.000000000000000000, 0.000000000000000000 ) ) ;
#667 = DIRECTION ( 'NONE',  ( 0.000000000000000000, 0.000000000000000000, 1.000000000000000000 ) ) ;
#668 = CARTESIAN_POINT ( 'NONE',  ( 0.000000000000000000, -1.500000000000000000, 1.750000000000003331 ) ) ;
#669 = VERTEX_POINT ( 'NONE', #383 ) ;
#670 = ORIENTED_EDGE ( 'NONE', *, *, #1276, .T. ) ;
#671 = DIRECTION ( 'NONE',  ( 0.000000000000000000, 0.000000000000000000, 1.000000000000000000 ) ) ;
#672 = AXIS2_PLACEMENT_3D ( 'NONE', #915, #214, #1119 ) ;
#673 = DIRECTION ( 'NONE',  ( 0.000000000000000000, 0.000000000000000000, -1.000000000000000000 ) ) ;
#674 = VECTOR ( 'NONE', #28, 1000.000000000000000 ) ;
#675 = DIRECTION ( 'NONE',  ( 0.5000000000000011102, 0.000000000000000000, 0.8660254037844379305 ) ) ;
#676 = VECTOR ( 'NONE', #154, 1000.000000000000000 ) ;
#677 = ORIENTED_EDGE ( 'NONE', *, *, #417, .T. ) ;
#678 = ORIENTED_EDGE ( 'NONE', *, *, #1174, .T. ) ;
#679 = CARTESIAN_POINT ( 'NONE',  ( 34.92151273532561362, -1.500000000000000000, -1.992731806851678611 ) ) ;
#680 = EDGE_CURVE ( 'NONE', #1123, #696, #988, .T. ) ;
#681 = LINE ( 'NONE', #178, #594 ) ;
#682 = CARTESIAN_POINT ( 'NONE',  ( 40.67911768987447374, -1.500000000000000000, -5.316886577247993628 ) ) ;
#683 = EDGE_CURVE ( 'NONE', #364, #401, #308, .T. ) ;
#684 = ORIENTED_EDGE ( 'NONE', *, *, #179, .T. ) ;
#685 = ORIENTED_EDGE ( 'NONE', *, *, #746, .T. ) ;
#686 = CYLINDRICAL_SURFACE ( 'NONE', #555, 1.500000000000000000 ) ;
#687 = CARTESIAN_POINT ( 'NONE',  ( 34.70922141565033314, -1.500000000000000000, 4.038782306270205069 ) ) ;
#688 = EDGE_CURVE ( 'NONE', #1011, #839, #1015, .T. ) ;
#689 = CARTESIAN_POINT ( 'NONE',  ( 25.00000000000000000, -1.500000000000000000, 9.100000000000001421 ) ) ;
#690 = EDGE_LOOP ( 'NONE', ( #715, #563, #1062, #492 ) ) ;
#691 = ORIENTED_EDGE ( 'NONE', *, *, #985, .T. ) ;
#692 = DIRECTION ( 'NONE',  ( -0.9659258262890679791, 0.000000000000000000, -0.2588190451025217942 ) ) ;
#693 = LINE ( 'NONE', #994, #757 ) ;
#694 = FACE_OUTER_BOUND ( 'NONE', #506, .T. ) ;
#695 = AXIS2_PLACEMENT_3D ( 'NONE', #394, #1260, #671 ) ;
#696 = VERTEX_POINT ( 'NONE', #426 ) ;
#697 = CIRCLE ( 'NONE', #739, 1.499999999999999556 ) ;
#698 = LINE ( 'NONE', #3, #619 ) ;
#699 = EDGE_CURVE ( 'NONE', #1228, #247, #1203, .T. ) ;
#700 = CARTESIAN_POINT ( 'NONE',  ( 0.000000000000000000, -1.500000000000000000, 13.24999999999999822 ) ) ;
#701 = DIRECTION ( 'NONE',  ( 0.000000000000000000, -1.000000000000000000, 0.000000000000000000 ) ) ;
#702 = VERTEX_POINT ( 'NONE', #600 ) ;
#703 = LINE ( 'NONE', #1048, #1182 ) ;
#704 = ORIENTED_EDGE ( 'NONE', *, *, #1090, .F. ) ;
#705 = CARTESIAN_POINT ( 'NONE',  ( 5.000000000000000000, -1.500000000000000000, 5.899999999999999467 ) ) ;
#706 = CARTESIAN_POINT ( 'NONE',  ( 32.11649781364084077, 1.500000000000000000, 2.680171439130281108 ) ) ;
#707 = PRODUCT_DEFINITION_SHAPE ( 'NONE', 'NONE',  #223 ) ;
#708 = ORIENTED_EDGE ( 'NONE', *, *, #378, .F. ) ;
#709 = ADVANCED_FACE ( 'NONE', ( #301 ), #10, .F. ) ;
#710 = CARTESIAN_POINT ( 'NONE',  ( 26.80587755735927402, -1.500000000000000000, -2.614395428238219576 ) ) ;
#711 = ORIENTED_EDGE ( 'NONE', *, *, #133, .T. ) ;
#712 = CARTESIAN_POINT ( 'NONE',  ( 25.00000000000000000, 1.500000000000000000, 5.899999999999997691 ) ) ;
#713 = CARTESIAN_POINT ( 'NONE',  ( 25.35397459621562533, -1.500000000000000000, -5.129165124598746850 ) ) ;
#714 = CIRCLE ( 'NONE', #283, 1.749999999999999778 ) ;
#715 = ORIENTED_EDGE ( 'NONE', *, *, #842, .F. ) ;
#716 = AXIS2_PLACEMENT_3D ( 'NONE', #899, #816, #419 ) ;
#717 = FACE_OUTER_BOUND ( 'NONE', #793, .T. ) ;
#718 = AXIS2_PLACEMENT_3D ( 'NONE', #319, #1206, #898 ) ;
#719 = EDGE_CURVE ( 'NONE', #611, #735, #473, .T. ) ;
#720 = CARTESIAN_POINT ( 'NONE',  ( 20.45205080756915450, 1.500000000000000000, -2.299038105676662447 ) ) ;
#721 = FACE_OUTER_BOUND ( 'NONE', #1085, .T. ) ;
#722 = CARTESIAN_POINT ( 'NONE',  ( 30.63514326020316147, 1.500000000000000000, 8.208661896583210549 ) ) ;
#723 = EDGE_LOOP ( 'NONE', ( #146, #575, #157, #910 ) ) ;
#724 = CARTESIAN_POINT ( 'NONE',  ( 1.750000000000001554, -1.500000000000000000, 13.24999999999999822 ) ) ;
#725 = ORIENTED_EDGE ( 'NONE', *, *, #623, .F. ) ;
#726 = DIRECTION ( 'NONE',  ( 0.000000000000000000, -1.000000000000000000, 0.000000000000000000 ) ) ;
#727 = FACE_OUTER_BOUND ( 'NONE', #1184, .T. ) ;
#728 = LINE ( 'NONE', #120, #1142 ) ;
#729 = VERTEX_POINT ( 'NONE', #700 ) ;
#730 = ORIENTED_EDGE ( 'NONE', *, *, #860, .F. ) ;
#731 = PLANE ( 'NONE',  #932 ) ;
#732 = CARTESIAN_POINT ( 'NONE',  ( 54.65347684912894977, 1.500000000000000000, -14.06020268369856119 ) ) ;
#733 = CARTESIAN_POINT ( 'NONE',  ( 0.000000000000000000, -1.500000000000000000, 0.5000000000000000000 ) ) ;
#734 = VECTOR ( 'NONE', #200, 1000.000000000000000 ) ;
#735 = VERTEX_POINT ( 'NONE', #926 ) ;
#736 = CIRCLE ( 'NONE', #42, 1.500000000000000000 ) ;
#737 = CIRCLE ( 'NONE', #82, 1.500000000000000000 ) ;
#738 = CARTESIAN_POINT ( 'NONE',  ( 5.000000000000000000, 1.500000000000000000, 7.500000000000000000 ) ) ;
#739 = AXIS2_PLACEMENT_3D ( 'NONE', #1004, #1107, #515 ) ;
#740 = ADVANCED_FACE ( 'NONE', ( #332 ), #213, .T. ) ;
#741 = CYLINDRICAL_SURFACE ( 'NONE', #1009, 1.750000000000001554 ) ;
#742 = AXIS2_PLACEMENT_3D ( 'NONE', #959, #466, #871 ) ;
#743 = EDGE_CURVE ( 'NONE', #202, #787, #951, .T. ) ;
#744 = FACE_OUTER_BOUND ( 'NONE', #609, .T. ) ;
#745 = VERTEX_POINT ( 'NONE', #720 ) ;
#746 = EDGE_CURVE ( 'NONE', #269, #567, #737, .T. ) ;
#747 = DIRECTION ( 'NONE',  ( 0.000000000000000000, -1.000000000000000000, 0.000000000000000000 ) ) ;
#748 = CARTESIAN_POINT ( 'NONE',  ( 49.81021765691041736, 1.500000000000000000, -21.26970958122155153 ) ) ;
#749 = DIRECTION ( 'NONE',  ( -0.000000000000000000, 1.000000000000000000, 0.000000000000000000 ) ) ;
#750 = VERTEX_POINT ( 'NONE', #221 ) ;
#751 = CARTESIAN_POINT ( 'NONE',  ( 31.30012701892220761, 1.500000000000000000, -6.830127018922146576 ) ) ;
#752 = CARTESIAN_POINT ( 'NONE',  ( 49.81021765691041736, 1.500000000000000000, -21.26970958122155153 ) ) ;
#753 = VERTEX_POINT ( 'NONE', #1212 ) ;
#754 = ORIENTED_EDGE ( 'NONE', *, *, #522, .T. ) ;
#755 = CARTESIAN_POINT ( 'NONE',  ( 49.81021765691041736, 1.500000000000000000, -21.26970958122155153 ) ) ;
#756 = VECTOR ( 'NONE', #76, 1000.000000000000000 ) ;
#757 = VECTOR ( 'NONE', #1118, 1000.000000000000000 ) ;
#758 = CARTESIAN_POINT ( 'NONE',  ( 1.750000000000001554, 1.500000000000000000, 14.99999999999999822 ) ) ;
#759 = ORIENTED_EDGE ( 'NONE', *, *, #1061, .T. ) ;
#760 = ORIENTED_EDGE ( 'NONE', *, *, #179, .F. ) ;
#761 = LINE ( 'NONE', #177, #777 ) ;
#762 = EDGE_CURVE ( 'NONE', #117, #729, #403, .T. ) ;
#763 = DIRECTION ( 'NONE',  ( 0.000000000000000000, -1.000000000000000000, 0.000000000000000000 ) ) ;
#764 = EDGE_CURVE ( 'NONE', #277, #117, #321, .T. ) ;
#765 = CARTESIAN_POINT ( 'NONE',  ( 9.876088913245837375, -1.500000000000000000, -0.2344555433772370356 ) ) ;
#766 = VERTEX_POINT ( 'NONE', #712 ) ;
#767 = ORIENTED_EDGE ( 'NONE', *, *, #1120, .F. ) ;
#768 = CYLINDRICAL_SURFACE ( 'NONE', #1160, 1.600000000000011191 ) ;
#769 = EDGE_CURVE ( 'NONE', #866, #665, #693, .T. ) ;
#770 = DIRECTION ( 'NONE',  ( -0.000000000000000000, -1.000000000000000000, -0.000000000000000000 ) ) ;
#771 = LINE ( 'NONE', #786, #570 ) ;
#772 = APPLICATION_PROTOCOL_DEFINITION ( 'draft international standard', 'automotive_design', 1998, #361 ) ;
#773 = ORIENTED_EDGE ( 'NONE', *, *, #1128, .F. ) ;
#774 = PLANE ( 'NONE',  #66 ) ;
#775 = VECTOR ( 'NONE', #614, 1000.000000000000000 ) ;
#776 = DIRECTION ( 'NONE',  ( 0.000000000000000000, 0.000000000000000000, -1.000000000000000000 ) ) ;
#777 = VECTOR ( 'NONE', #978, 1000.000000000000000 ) ;
#778 = DIRECTION ( 'NONE',  ( 0.000000000000000000, 0.000000000000000000, 1.000000000000000000 ) ) ;
#779 = VECTOR ( 'NONE', #749, 1000.000000000000000 ) ;
#780 = ORIENTED_EDGE ( 'NONE', *, *, #429, .T. ) ;
#781 = ORIENTED_EDGE ( 'NONE', *, *, #343, .T. ) ;
#782 = EDGE_CURVE ( 'NONE', #958, #669, #230, .T. ) ;
#783 = DIRECTION ( 'NONE',  ( 0.000000000000000000, 0.000000000000000000, -1.000000000000000000 ) ) ;
#784 = EDGE_CURVE ( 'NONE', #702, #866, #516, .T. ) ;
#785 = CYLINDRICAL_SURFACE ( 'NONE', #1236, 1.600000000000001643 ) ;
#786 = CARTESIAN_POINT ( 'NONE',  ( 22.17554191976795508, 1.500000000000000000, 18.81281473795651493 ) ) ;
#787 = VERTEX_POINT ( 'NONE', #606 ) ;
#788 = ORIENTED_EDGE ( 'NONE', *, *, #1116, .T. ) ;
#789 = DIRECTION ( 'NONE',  ( 0.000000000000000000, -1.000000000000000000, 0.000000000000000000 ) ) ;
#790 = ADVANCED_FACE ( 'NONE', ( #509 ), #904, .F. ) ;
#791 = DIRECTION ( 'NONE',  ( -0.000000000000000000, -0.000000000000000000, 1.000000000000000000 ) ) ;
#792 = DIRECTION ( 'NONE',  ( 0.000000000000000000, 1.000000000000000000, 0.000000000000000000 ) ) ;
#793 = EDGE_LOOP ( 'NONE', ( #528, #201, #568, #115 ) ) ;
#794 = VERTEX_POINT ( 'NONE', #705 ) ;
#795 = EDGE_CURVE ( 'NONE', #97, #25, #205, .T. ) ;
#796 = PLANE ( 'NONE',  #911 ) ;
#797 = DIRECTION ( 'NONE',  ( 0.000000000000000000, 0.000000000000000000, -1.000000000000000000 ) ) ;
#798 = EDGE_CURVE ( 'NONE', #476, #1130, #1056, .T. ) ;
#799 = FACE_BOUND ( 'NONE', #1043, .T. ) ;
#800 = AXIS2_PLACEMENT_3D ( 'NONE', #1076, #874, #776 ) ;
#801 = ORIENTED_EDGE ( 'NONE', *, *, #864, .F. ) ;
#802 = SURFACE_STYLE_USAGE ( .BOTH. , #423 ) ;
#803 = CARTESIAN_POINT ( 'NONE',  ( 25.00000000000000000, -1.500000000000000000, 7.500000000000000000 ) ) ;
#804 = DIRECTION ( 'NONE',  ( 0.000000000000000000, 1.000000000000000000, 0.000000000000000000 ) ) ;
#805 = EDGE_CURVE ( 'NONE', #1199, #1191, #158, .T. ) ;
#806 = DIRECTION ( 'NONE',  ( 0.8660254037844379305, 0.000000000000000000, -0.5000000000000013323 ) ) ;
#807 = EDGE_CURVE ( 'NONE', #37, #140, #1075, .T. ) ;
#808 = ORIENTED_EDGE ( 'NONE', *, *, #523, .T. ) ;
#809 = CARTESIAN_POINT ( 'NONE',  ( 30.52419010415701450, 1.500000000000000000, 14.38211268273382437 ) ) ;
#810 = ORIENTED_EDGE ( 'NONE', *, *, #1086, .T. ) ;
#811 = CARTESIAN_POINT ( 'NONE',  ( 33.56538655307444685, -1.500000000000000000, 3.068400006784063550 ) ) ;
#812 = CARTESIAN_POINT ( 'NONE',  ( 41.82295255245034582, 1.500000000000000000, -4.346504277761856549 ) ) ;
#813 = VERTEX_POINT ( 'NONE', #835 ) ;
#814 = CARTESIAN_POINT ( 'NONE',  ( 34.17151273532562783, -1.500000000000000000, -3.291769912528342612 ) ) ;
#815 = ORIENTED_EDGE ( 'NONE', *, *, #719, .F. ) ;
#816 = DIRECTION ( 'NONE',  ( 1.000000000000000000, -0.000000000000000000, 0.000000000000000000 ) ) ;
#817 = CARTESIAN_POINT ( 'NONE',  ( 22.53551270189218414, -1.500000000000000000, -13.01088432476372070 ) ) ;
#818 = CARTESIAN_POINT ( 'NONE',  ( 0.000000000000000000, 1.500000000000000000, 0.5000000000000000000 ) ) ;
#819 = CIRCLE ( 'NONE', #537, 1.499999999999999556 ) ;
#820 = ORIENTED_EDGE ( 'NONE', *, *, #1261, .T. ) ;
#821 = AXIS2_PLACEMENT_3D ( 'NONE', #679, #1187, #98 ) ;
#822 = DIRECTION ( 'NONE',  ( 0.000000000000000000, 0.000000000000000000, -1.000000000000000000 ) ) ;
#823 = CIRCLE ( 'NONE', #334, 1.600000000000000755 ) ;
#824 = CIRCLE ( 'NONE', #443, 1.599999999999990319 ) ;
#825 = ORIENTED_EDGE ( 'NONE', *, *, #558, .T. ) ;
#826 = CARTESIAN_POINT ( 'NONE',  ( 0.000000000000000000, -1.500000000000000000, 0.000000000000000000 ) ) ;
#827 = ORIENTED_EDGE ( 'NONE', *, *, #127, .F. ) ;
#828 = CARTESIAN_POINT ( 'NONE',  ( 0.000000000000000000, 1.500000000000000000, 0.000000000000000000 ) ) ;
#829 = VERTEX_POINT ( 'NONE', #262 ) ;
#830 = ORIENTED_EDGE ( 'NONE', *, *, #249, .T. ) ;
#831 = CARTESIAN_POINT ( 'NONE',  ( 21.20205080756914739, -1.500000000000000000, 0.5000000000000000000 ) ) ;
#832 = DIRECTION ( 'NONE',  ( 0.000000000000000000, 0.000000000000000000, -1.000000000000000000 ) ) ;
#833 = DIRECTION ( 'NONE',  ( 1.000000000000000000, 0.000000000000000000, -1.831809372731536340E-16 ) ) ;
#834 = ORIENTED_EDGE ( 'NONE', *, *, #798, .T. ) ;
#835 = CARTESIAN_POINT ( 'NONE',  ( 27.82219034553195058, -1.500000000000000000, -0.6117714323462157822 ) ) ;
#836 = CARTESIAN_POINT ( 'NONE',  ( 5.000000000000000000, 1.500000000000000000, 5.899999999999999467 ) ) ;
#837 = CLOSED_SHELL ( 'NONE', ( #421, #520, #1038, #175, #790, #330, #897, #58, #1263, #709, #869, #1020, #998, #878, #649, #1154, #445, #241, #1068, #1117, #1186, #425, #91, #113, #923, #604, #404, #13, #903, #197, #216, #73, #35, #578, #740, #893, #65 ) ) ;
#838 = CARTESIAN_POINT ( 'NONE',  ( 9.876088913245842704, 1.500000000000000000, -0.2344555433772266273 ) ) ;
#839 = VERTEX_POINT ( 'NONE', #147 ) ;
#840 = VECTOR ( 'NONE', #482, 1000.000000000000000 ) ;
#841 = CARTESIAN_POINT ( 'NONE',  ( 4.117500000000099192, -1.500000000000000000, 7.131719200164991612 ) ) ;
#842 = EDGE_CURVE ( 'NONE', #536, #202, #1234, .T. ) ;
#843 = DIRECTION ( 'NONE',  ( 0.000000000000000000, 0.000000000000000000, 1.000000000000000000 ) ) ;
#844 = CARTESIAN_POINT ( 'NONE',  ( 0.000000000000000000, 1.500000000000000000, 0.000000000000000000 ) ) ;
#845 = EDGE_LOOP ( 'NONE', ( #134, #253, #1097, #47 ) ) ;
#846 = FACE_BOUND ( 'NONE', #217, .T. ) ;
#847 = CARTESIAN_POINT ( 'NONE',  ( 0.000000000000000000, -1.500000000000000000, 0.000000000000000000 ) ) ;
#848 = EDGE_CURVE ( 'NONE', #750, #1191, #539, .T. ) ;
#849 = ORIENTED_EDGE ( 'NONE', *, *, #210, .T. ) ;
#850 = EDGE_CURVE ( 'NONE', #813, #97, #248, .T. ) ;
#851 = SHAPE_DEFINITION_REPRESENTATION ( #707, #84 ) ;
#852 = ORIENTED_EDGE ( 'NONE', *, *, #577, .F. ) ;
#853 = CARTESIAN_POINT ( 'NONE',  ( 9.001088913245830270, -1.500000000000000000, -1.734723475976807094E-15 ) ) ;
#854 = CARTESIAN_POINT ( 'NONE',  ( 55.45076211353314477, 1.500000000000000000, -15.00000000000004263 ) ) ;
#855 = ORIENTED_EDGE ( 'NONE', *, *, #933, .F. ) ;
#856 = CIRCLE ( 'NONE', #305, 1.600000000000002531 ) ;
#857 = FACE_OUTER_BOUND ( 'NONE', #1022, .T. ) ;
#858 = VECTOR ( 'NONE', #55, 1000.000000000000000 ) ;
#859 = CARTESIAN_POINT ( 'NONE',  ( 26.80587755735927402, -1.500000000000000000, -2.614395428238219576 ) ) ;
#860 = EDGE_CURVE ( 'NONE', #401, #364, #286, .T. ) ;
#861 = VECTOR ( 'NONE', #789, 1000.000000000000000 ) ;
#862 = DIRECTION ( 'NONE',  ( 0.5000000000000011102, 0.000000000000000000, 0.8660254037844379305 ) ) ;
#863 = EDGE_LOOP ( 'NONE', ( #1164, #820, #704, #38 ) ) ;
#864 = EDGE_CURVE ( 'NONE', #314, #702, #455, .T. ) ;
#865 = VECTOR ( 'NONE', #363, 1000.000000000000000 ) ;
#866 = VERTEX_POINT ( 'NONE', #831 ) ;
#867 = DIRECTION ( 'NONE',  ( -0.7625565750505842733, 0.000000000000000000, -0.6469215329907659351 ) ) ;
#868 = CARTESIAN_POINT ( 'NONE',  ( 21.20205080756914739, 1.500000000000000000, 0.5000000000000000000 ) ) ;
#869 = ADVANCED_FACE ( 'NONE', ( #338 ), #731, .F. ) ;
#870 = LINE ( 'NONE', #479, #1141 ) ;
#871 = DIRECTION ( 'NONE',  ( 1.000000000000000000, 0.000000000000000000, 0.000000000000000000 ) ) ;
#872 = EDGE_LOOP ( 'NONE', ( #788, #1106, #711, #559, #1079, #834, #589, #422, #1028, #981, #548, #273, #191 ) ) ;
#873 = FACE_OUTER_BOUND ( 'NONE', #1233, .T. ) ;
#874 = DIRECTION ( 'NONE',  ( 0.000000000000000000, -1.000000000000000000, 0.000000000000000000 ) ) ;
#875 = CARTESIAN_POINT ( 'NONE',  ( 0.000000000000000000, 1.500000000000000000, 13.24999999999999822 ) ) ;
#876 = EDGE_CURVE ( 'NONE', #735, #57, #654, .T. ) ;
#877 = ORIENTED_EDGE ( 'NONE', *, *, #906, .F. ) ;
#878 = ADVANCED_FACE ( 'NONE', ( #1044 ), #258, .F. ) ;
#879 = EDGE_CURVE ( 'NONE', #955, #237, #372, .T. ) ;
#880 = VERTEX_POINT ( 'NONE', #345 ) ;
#881 = DIRECTION ( 'NONE',  ( 0.5000000000000021094, 0.000000000000000000, 0.8660254037844374864 ) ) ;
#882 = VECTOR ( 'NONE', #333, 1000.000000000000114 ) ;
#883 = AXIS2_PLACEMENT_3D ( 'NONE', #651, #462, #169 ) ;
#884 = LINE ( 'NONE', #93, #756 ) ;
#885 = VECTOR ( 'NONE', #791, 1000.000000000000000 ) ;
#886 = DIRECTION ( 'NONE',  ( -0.000000000000000000, -1.000000000000000000, -0.000000000000000000 ) ) ;
#887 = AXIS2_PLACEMENT_3D ( 'NONE', #710, #313, #9 ) ;
#888 = VERTEX_POINT ( 'NONE', #648 ) ;
#889 = EDGE_CURVE ( 'NONE', #696, #226, #68, .T. ) ;
#890 = VERTEX_POINT ( 'NONE', #1050 ) ;
#891 = DIRECTION ( 'NONE',  ( -0.000000000000000000, 1.000000000000000000, -0.000000000000000000 ) ) ;
#892 = CARTESIAN_POINT ( 'NONE',  ( 26.37330160609834806, -1.500000000000000000, 0.5000000000000000000 ) ) ;
#893 = ADVANCED_FACE ( 'NONE', ( #51 ), #254, .T. ) ;
#894 = CARTESIAN_POINT ( 'NONE',  ( 27.40301270189227267, 1.500000000000000000, -4.580127018922084403 ) ) ;
#895 = ORIENTED_EDGE ( 'NONE', *, *, #340, .T. ) ;
#896 = EDGE_LOOP ( 'NONE', ( #1071, #685, #320, #603, #1115, #257 ) ) ;
#897 = ADVANCED_FACE ( 'NONE', ( #39, #162, #1230, #953, #846, #1245, #365 ), #441, .T. ) ;
#898 = DIRECTION ( 'NONE',  ( 0.000000000000000000, 0.000000000000000000, 1.000000000000000000 ) ) ;
#899 = CARTESIAN_POINT ( 'NONE',  ( 0.000000000000000000, 1.500000000000000000, 14.99999999999999822 ) ) ;
#900 = DIRECTION ( 'NONE',  ( 0.000000000000000000, 1.000000000000000000, 0.000000000000000000 ) ) ;
#901 = EDGE_LOOP ( 'NONE', ( #1149, #677, #1065, #941, #385, #224, #754, #176, #508, #196, #616, #1152, #424 ) ) ;
#902 = LINE ( 'NONE', #918, #45 ) ;
#903 = ADVANCED_FACE ( 'NONE', ( #857 ), #289, .F. ) ;
#904 = CYLINDRICAL_SURFACE ( 'NONE', #44, 1.599999999999990319 ) ;
#905 = LINE ( 'NONE', #817, #882 ) ;
#906 = EDGE_CURVE ( 'NONE', #1266, #997, #488, .T. ) ;
#907 = LINE ( 'NONE', #20, #165 ) ;
#908 = VECTOR ( 'NONE', #496, 1000.000000000000000 ) ;
#909 = AXIS2_PLACEMENT_3D ( 'NONE', #118, #410, #797 ) ;
#910 = ORIENTED_EDGE ( 'NONE', *, *, #848, .T. ) ;
#911 = AXIS2_PLACEMENT_3D ( 'NONE', #1103, #692, #605 ) ;
#912 = CARTESIAN_POINT ( 'NONE',  ( 21.20205080756914739, 1.500000000000000000, -1.000000000000000000 ) ) ;
#913 = ORIENTED_EDGE ( 'NONE', *, *, #1244, .F. ) ;
#914 = CARTESIAN_POINT ( 'NONE',  ( 29.18971609781848287, 1.500000000000000000, 13.24999999999999467 ) ) ;
#915 = CARTESIAN_POINT ( 'NONE',  ( 24.47000000000004860, 1.500000000000000000, -8.660254037844277164 ) ) ;
#916 = DIRECTION ( 'NONE',  ( -2.973811673103097763E-15, 0.000000000000000000, -1.000000000000000000 ) ) ;
#917 = ORIENTED_EDGE ( 'NONE', *, *, #11, .T. ) ;
#918 = CARTESIAN_POINT ( 'NONE',  ( 54.83454729941319528, 1.500000000000000000, -16.06731536643240332 ) ) ;
#919 = ORIENTED_EDGE ( 'NONE', *, *, #1061, .F. ) ;
#920 = DIRECTION ( 'NONE',  ( 0.000000000000000000, 0.000000000000000000, 1.000000000000000000 ) ) ;
#921 = DIRECTION ( 'NONE',  ( 0.000000000000000000, 0.000000000000000000, 1.000000000000000000 ) ) ;
#922 = DIRECTION ( 'NONE',  ( -0.8660254037844378194, 0.000000000000000000, 0.5000000000000014433 ) ) ;
#923 = ADVANCED_FACE ( 'NONE', ( #873 ), #686, .F. ) ;
#924 = ORIENTED_EDGE ( 'NONE', *, *, #1131, .T. ) ;
#925 = ORIENTED_EDGE ( 'NONE', *, *, #409, .T. ) ;
#926 = CARTESIAN_POINT ( 'NONE',  ( 54.65347684912894977, -1.500000000000000000, -14.06020268369856119 ) ) ;
#927 = LINE ( 'NONE', #114, #674 ) ;
#928 = EDGE_CURVE ( 'NONE', #481, #750, #1180, .T. ) ;
#929 = AXIS2_PLACEMENT_3D ( 'NONE', #1213, #519, #1110 ) ;
#930 = VECTOR ( 'NONE', #940, 1000.000000000000000 ) ;
#931 = ORIENTED_EDGE ( 'NONE', *, *, #164, .F. ) ;
#932 = AXIS2_PLACEMENT_3D ( 'NONE', #1040, #553, #1225 ) ;
#933 = EDGE_CURVE ( 'NONE', #246, #880, #538, .T. ) ;
#934 = LINE ( 'NONE', #1148, #1017 ) ;
#935 = CIRCLE ( 'NONE', #887, 1.499999999999999556 ) ;
#936 = CIRCLE ( 'NONE', #512, 1.600000000000012079 ) ;
#937 = VERTEX_POINT ( 'NONE', #468 ) ;
#938 = DIRECTION ( 'NONE',  ( 0.000000000000000000, 0.000000000000000000, -1.000000000000000000 ) ) ;
#939 = CYLINDRICAL_SURFACE ( 'NONE', #929, 1.750000000000000000 ) ;
#940 = DIRECTION ( 'NONE',  ( 0.000000000000000000, -1.000000000000000000, -0.000000000000000000 ) ) ;
#941 = ORIENTED_EDGE ( 'NONE', *, *, #298, .T. ) ;
#942 = DIRECTION ( 'NONE',  ( 0.8660254037844379305, 0.000000000000000000, -0.5000000000000013323 ) ) ;
#943 = DIRECTION ( 'NONE',  ( 0.000000000000000000, 0.000000000000000000, -1.000000000000000000 ) ) ;
#944 = CARTESIAN_POINT ( 'NONE',  ( 39.92911768987448795, 1.500000000000000000, -6.615924682924663180 ) ) ;
#945 = VERTEX_POINT ( 'NONE', #368 ) ;
#946 = DIRECTION ( 'NONE',  ( -1.982541115402065307E-15, 0.000000000000000000, -1.000000000000000000 ) ) ;
#947 = FACE_OUTER_BOUND ( 'NONE', #1205, .T. ) ;
#948 = CIRCLE ( 'NONE', #103, 1.750000000000000000 ) ;
#949 =( NAMED_UNIT ( * ) SI_UNIT ( $, .STERADIAN. ) SOLID_ANGLE_UNIT ( ) );
#950 = EDGE_LOOP ( 'NONE', ( #1049, #399, #913, #181 ) ) ;
#951 = CIRCLE ( 'NONE', #166, 1.600000000000002531 ) ;
#952 = AXIS2_PLACEMENT_3D ( 'NONE', #724, #156, #822 ) ;
#953 = FACE_BOUND ( 'NONE', #390, .T. ) ;
#954 = DIRECTION ( 'NONE',  ( 0.6469215329907659351, -0.000000000000000000, -0.7625565750505842733 ) ) ;
#955 = VERTEX_POINT ( 'NONE', #386 ) ;
#956 = DIRECTION ( 'NONE',  ( -0.000000000000000000, 1.000000000000000000, -0.000000000000000000 ) ) ;
#957 = FACE_OUTER_BOUND ( 'NONE', #863, .T. ) ;
#958 = VERTEX_POINT ( 'NONE', #1081 ) ;
#959 = CARTESIAN_POINT ( 'NONE',  ( 0.000000000000000000, 0.000000000000000000, 0.000000000000000000 ) ) ;
#960 = VERTEX_POINT ( 'NONE', #193 ) ;
#961 = LINE ( 'NONE', #663, #1274 ) ;
#962 = DIRECTION ( 'NONE',  ( 0.000000000000000000, 0.000000000000000000, -1.000000000000000000 ) ) ;
#963 = CARTESIAN_POINT ( 'NONE',  ( 31.30012701892220761, 1.500000000000000000, -8.430127018922158655 ) ) ;
#964 = VERTEX_POINT ( 'NONE', #376 ) ;
#965 = ORIENTED_EDGE ( 'NONE', *, *, #256, .T. ) ;
#966 = CARTESIAN_POINT ( 'NONE',  ( 31.30012701892220761, 1.500000000000000000, -6.830127018922146576 ) ) ;
#967 = VECTOR ( 'NONE', #546, 1000.000000000000000 ) ;
#968 = AXIS2_PLACEMENT_3D ( 'NONE', #1146, #359, #938 ) ;
#969 = CARTESIAN_POINT ( 'NONE',  ( 26.10397459621561822, -1.500000000000000000, -3.830127018922085291 ) ) ;
#970 = PLANE ( 'NONE',  #325 ) ;
#971 = ORIENTED_EDGE ( 'NONE', *, *, #369, .F. ) ;
#972 = ORIENTED_EDGE ( 'NONE', *, *, #8, .F. ) ;
#973 = CARTESIAN_POINT ( 'NONE',  ( 27.40301270189227267, -1.500000000000000000, -4.580127018922084403 ) ) ;
#974 = DIRECTION ( 'NONE',  ( 0.000000000000000000, 0.000000000000000000, -1.000000000000000000 ) ) ;
#975 = DIRECTION ( 'NONE',  ( 0.000000000000000000, 0.000000000000000000, -1.000000000000000000 ) ) ;
#976 = ORIENTED_EDGE ( 'NONE', *, *, #842, .T. ) ;
#977 = EDGE_LOOP ( 'NONE', ( #780, #1138, #708, #192 ) ) ;
#978 = DIRECTION ( 'NONE',  ( -0.000000000000000000, 1.000000000000000000, -0.000000000000000000 ) ) ;
#979 = CARTESIAN_POINT ( 'NONE',  ( 25.00000000000000000, 1.500000000000000000, 7.500000000000000000 ) ) ;
#980 = CARTESIAN_POINT ( 'NONE',  ( 54.83454729941319528, 1.500000000000000000, -16.06731536643240332 ) ) ;
#981 = ORIENTED_EDGE ( 'NONE', *, *, #501, .T. ) ;
#982 = ORIENTED_EDGE ( 'NONE', *, *, #985, .F. ) ;
#983 = CARTESIAN_POINT ( 'NONE',  ( 30.63514326020316147, -1.500000000000000000, 8.208661896583210549 ) ) ;
#984 = AXIS2_PLACEMENT_3D ( 'NONE', #34, #655, #643 ) ;
#985 = EDGE_CURVE ( 'NONE', #247, #358, #274, .T. ) ;
#986 = CIRCLE ( 'NONE', #148, 1.600000000000012079 ) ;
#987 = DIRECTION ( 'NONE',  ( 0.000000000000000000, 0.000000000000000000, -1.000000000000000000 ) ) ;
#988 = CIRCLE ( 'NONE', #1143, 1.500000000000000000 ) ;
#989 = LINE ( 'NONE', #497, #653 ) ;
#990 = ORIENTED_EDGE ( 'NONE', *, *, #206, .F. ) ;
#991 = EDGE_CURVE ( 'NONE', #32, #890, #416, .T. ) ;
#992 = VERTEX_POINT ( 'NONE', #973 ) ;
#993 = DIRECTION ( 'NONE',  ( 0.000000000000000000, 1.000000000000000000, 0.000000000000000000 ) ) ;
#994 = CARTESIAN_POINT ( 'NONE',  ( 21.20205080756914739, -1.500000000000000000, 0.5000000000000000000 ) ) ;
#995 = DIRECTION ( 'NONE',  ( -0.2588190451025217942, 0.000000000000000000, 0.9659258262890679791 ) ) ;
#996 = EDGE_CURVE ( 'NONE', #314, #652, #1255, .T. ) ;
#997 = VERTEX_POINT ( 'NONE', #564 ) ;
#998 = ADVANCED_FACE ( 'NONE', ( #92 ), #774, .F. ) ;
#999 = CARTESIAN_POINT ( 'NONE',  ( 31.30012701892220761, 1.500000000000000000, -6.830127018922146576 ) ) ;
#1000 = CARTESIAN_POINT ( 'NONE',  ( 49.81021765691041736, 1.500000000000000000, -21.26970958122155153 ) ) ;
#1001 = DIRECTION ( 'NONE',  ( 0.000000000000000000, -1.000000000000000000, 0.000000000000000000 ) ) ;
#1002 = DIRECTION ( 'NONE',  ( -0.8660254037844377084, 0.000000000000000000, 0.5000000000000016653 ) ) ;
#1003 = ORIENTED_EDGE ( 'NONE', *, *, #795, .F. ) ;
#1004 = CARTESIAN_POINT ( 'NONE',  ( 40.67911768987447374, 1.500000000000000000, -5.316886577247993628 ) ) ;
#1005 = EDGE_LOOP ( 'NONE', ( #1014, #965, #588, #54 ) ) ;
#1006 = DIRECTION ( 'NONE',  ( 0.000000000000000000, 0.000000000000000000, -1.000000000000000000 ) ) ;
#1007 = EDGE_CURVE ( 'NONE', #1108, #476, #761, .T. ) ;
#1008 = LINE ( 'NONE', #630, #1035 ) ;
#1009 = AXIS2_PLACEMENT_3D ( 'NONE', #752, #644, #832 ) ;
#1010 = AXIS2_PLACEMENT_3D ( 'NONE', #969, #280, #478 ) ;
#1011 = VERTEX_POINT ( 'NONE', #569 ) ;
#1012 = AXIS2_PLACEMENT_3D ( 'NONE', #1248, #867, #270 ) ;
#1013 = DIRECTION ( 'NONE',  ( -0.000000000000000000, -1.000000000000000000, 0.000000000000000000 ) ) ;
#1014 = ORIENTED_EDGE ( 'NONE', *, *, #340, .F. ) ;
#1015 = LINE ( 'NONE', #208, #184 ) ;
#1016 = CARTESIAN_POINT ( 'NONE',  ( 9.001088913245830270, 1.500000000000000000, -1.750000000000001776 ) ) ;
#1017 = VECTOR ( 'NONE', #1042, 1000.000000000000000 ) ;
#1018 = EDGE_CURVE ( 'NONE', #829, #945, #229, .T. ) ;
#1019 = LINE ( 'NONE', #722, #152 ) ;
#1020 = ADVANCED_FACE ( 'NONE', ( #1177 ), #1063, .F. ) ;
#1021 = EDGE_CURVE ( 'NONE', #866, #595, #961, .T. ) ;
#1022 = EDGE_LOOP ( 'NONE', ( #153, #242, #1030, #530 ) ) ;
#1023 =( LENGTH_UNIT ( ) NAMED_UNIT ( * ) SI_UNIT ( .MILLI., .METRE. ) );
#1024 = ORIENTED_EDGE ( 'NONE', *, *, #683, .F. ) ;
#1025 = DIRECTION ( 'NONE',  ( 0.000000000000000000, 0.000000000000000000, -1.000000000000000000 ) ) ;
#1026 = CARTESIAN_POINT ( 'NONE',  ( 26.37330160609834806, 1.500000000000000000, 0.5000000000000000000 ) ) ;
#1027 = FACE_OUTER_BOUND ( 'NONE', #872, .T. ) ;
#1028 = ORIENTED_EDGE ( 'NONE', *, *, #1244, .T. ) ;
#1029 = CARTESIAN_POINT ( 'NONE',  ( 34.17151273532562783, 1.500000000000001776, -3.291769912528342612 ) ) ;
#1030 = ORIENTED_EDGE ( 'NONE', *, *, #558, .F. ) ;
#1031 = DIRECTION ( 'NONE',  ( 0.000000000000000000, -0.000000000000000000, -1.000000000000000000 ) ) ;
#1032 = DIRECTION ( 'NONE',  ( 1.000000000000000000, -0.000000000000000000, -1.156482317317871478E-16 ) ) ;
#1033 = CARTESIAN_POINT ( 'NONE',  ( 9.001088913245830270, -1.500000000000000000, -1.648827903607363097E-15 ) ) ;
#1034 = VECTOR ( 'NONE', #126, 1000.000000000000000 ) ;
#1035 = VECTOR ( 'NONE', #36, 1000.000000000000227 ) ;
#1036 = ORIENTED_EDGE ( 'NONE', *, *, #250, .T. ) ;
#1037 = VECTOR ( 'NONE', #666, 1000.000000000000000 ) ;
#1038 = ADVANCED_FACE ( 'NONE', ( #1166 ), #768, .F. ) ;
#1039 = CARTESIAN_POINT ( 'NONE',  ( 26.37330160609834806, -1.500000000000000000, 0.5000000000000000000 ) ) ;
#1040 = CARTESIAN_POINT ( 'NONE',  ( 30.00000000000000355, 1.500000000000000000, 14.99999999999999467 ) ) ;
#1041 = CARTESIAN_POINT ( 'NONE',  ( 5.000000000000000000, 1.500000000000000000, 9.099999999999999645 ) ) ;
#1042 = DIRECTION ( 'NONE',  ( -0.000000000000000000, -1.000000000000000000, -0.000000000000000000 ) ) ;
#1043 = EDGE_LOOP ( 'NONE', ( #285, #825, #534, #436, #931, #524 ) ) ;
#1044 = FACE_OUTER_BOUND ( 'NONE', #1278, .T. ) ;
#1045 = APPLICATION_CONTEXT ( 'automotive_design' ) ;
#1046 = CARTESIAN_POINT ( 'NONE',  ( 5.000000000000000000, 1.500000000000000000, 7.500000000000000000 ) ) ;
#1047 = ORIENTED_EDGE ( 'NONE', *, *, #876, .F. ) ;
#1048 = CARTESIAN_POINT ( 'NONE',  ( 5.000000000000000000, 1.500000000000000000, 5.899999999999999467 ) ) ;
#1049 = ORIENTED_EDGE ( 'NONE', *, *, #329, .T. ) ;
#1050 = CARTESIAN_POINT ( 'NONE',  ( 48.62063509461096800, -1.500000000000000000, -18.43012701892216398 ) ) ;
#1051 = DIRECTION ( 'NONE',  ( -0.5000000000000016653, 0.000000000000000000, -0.8660254037844377084 ) ) ;
#1052 = LINE ( 'NONE', #854, #227 ) ;
#1053 = VECTOR ( 'NONE', #922, 1000.000000000000114 ) ;
#1054 = EDGE_CURVE ( 'NONE', #195, #992, #85, .T. ) ;
#1055 = ORIENTED_EDGE ( 'NONE', *, *, #1007, .F. ) ;
#1056 = CIRCLE ( 'NONE', #128, 1.749999999999999778 ) ;
#1057 = VECTOR ( 'NONE', #111, 1000.000000000000000 ) ;
#1058 = DIRECTION ( 'NONE',  ( 0.000000000000000000, 0.000000000000000000, 1.000000000000000000 ) ) ;
#1059 = FACE_OUTER_BOUND ( 'NONE', #645, .T. ) ;
#1060 = DIRECTION ( 'NONE',  ( 0.000000000000000000, 0.000000000000000000, -1.000000000000000000 ) ) ;
#1061 = EDGE_CURVE ( 'NONE', #1102, #794, #598, .T. ) ;
#1062 = ORIENTED_EDGE ( 'NONE', *, *, #218, .T. ) ;
#1063 = PLANE ( 'NONE',  #1012 ) ;
#1064 = CARTESIAN_POINT ( 'NONE',  ( 54.83454729941319528, -1.500000000000000000, -16.06731536643240332 ) ) ;
#1065 = ORIENTED_EDGE ( 'NONE', *, *, #409, .F. ) ;
#1066 = CARTESIAN_POINT ( 'NONE',  ( 48.62063509461096800, -1.500000000000000000, -16.83012701892217322 ) ) ;
#1067 = CARTESIAN_POINT ( 'NONE',  ( 31.30012701892220761, -1.500000000000000000, -6.830127018922146576 ) ) ;
#1068 = ADVANCED_FACE ( 'NONE', ( #525 ), #132, .F. ) ;
#1069 = PRODUCT_RELATED_PRODUCT_CATEGORY ( 'part', '', ( #1111 ) ) ;
#1070 = DIRECTION ( 'NONE',  ( 0.000000000000000000, 0.000000000000000000, 1.000000000000000000 ) ) ;
#1071 = ORIENTED_EDGE ( 'NONE', *, *, #131, .T. ) ;
#1072 = EDGE_LOOP ( 'NONE', ( #348, #583, #1003, #392 ) ) ;
#1073 = CARTESIAN_POINT ( 'NONE',  ( 40.67911768987447374, -1.500000000000000000, -5.316886577247993628 ) ) ;
#1074 = VECTOR ( 'NONE', #954, 1000.000000000000114 ) ;
#1075 = CIRCLE ( 'NONE', #1221, 1.600000000000012079 ) ;
#1076 = CARTESIAN_POINT ( 'NONE',  ( 1.750000000000001554, 1.500000000000000000, 13.24999999999999822 ) ) ;
#1077 = PRESENTATION_LAYER_ASSIGNMENT (  '', '', ( #475 ) ) ;
#1078 = CARTESIAN_POINT ( 'NONE',  ( 32.11649781364084077, -1.500000000000000000, 2.680171439130281108 ) ) ;
#1079 = ORIENTED_EDGE ( 'NONE', *, *, #22, .T. ) ;
#1080 = ORIENTED_EDGE ( 'NONE', *, *, #991, .F. ) ;
#1081 = CARTESIAN_POINT ( 'NONE',  ( 1.749999999999999778, -1.500000000000000000, -3.205666402280188287E-16 ) ) ;
#1082 = EDGE_CURVE ( 'NONE', #171, #611, #902, .T. ) ;
#1083 = FACE_OUTER_BOUND ( 'NONE', #79, .T. ) ;
#1084 = LINE ( 'NONE', #472, #1101 ) ;
#1085 = EDGE_LOOP ( 'NONE', ( #660, #562, #632, #1224 ) ) ;
#1086 = EDGE_CURVE ( 'NONE', #90, #1011, #935, .T. ) ;
#1087 = ORIENTED_EDGE ( 'NONE', *, *, #343, .F. ) ;
#1088 = DIRECTION ( 'NONE',  ( 0.000000000000000000, 1.000000000000000000, -0.000000000000000000 ) ) ;
#1089 = FACE_OUTER_BOUND ( 'NONE', #67, .T. ) ;
#1090 = EDGE_CURVE ( 'NONE', #794, #1102, #823, .T. ) ;
#1091 = FACE_OUTER_BOUND ( 'NONE', #438, .T. ) ;
#1092 = ORIENTED_EDGE ( 'NONE', *, *, #1165, .F. ) ;
#1093 = DIRECTION ( 'NONE',  ( 0.000000000000000000, 0.000000000000000000, 1.000000000000000000 ) ) ;
#1094 = AXIS2_PLACEMENT_3D ( 'NONE', #322, #1226, #540 ) ;
#1095 = VECTOR ( 'NONE', #341, 1000.000000000000000 ) ;
#1096 = CARTESIAN_POINT ( 'NONE',  ( 1.749999999999999778, 1.500000000000000000, -3.205666402280188287E-16 ) ) ;
#1097 = ORIENTED_EDGE ( 'NONE', *, *, #592, .T. ) ;
#1098 = AXIS2_PLACEMENT_3D ( 'NONE', #1073, #186, #783 ) ;
#1099 = DIRECTION ( 'NONE',  ( 0.000000000000000000, 0.000000000000000000, -1.000000000000000000 ) ) ;
#1100 = VECTOR ( 'NONE', #1013, 1000.000000000000000 ) ;
#1101 = VECTOR ( 'NONE', #1002, 999.9999999999998863 ) ;
#1102 = VERTEX_POINT ( 'NONE', #1200 ) ;
#1103 = CARTESIAN_POINT ( 'NONE',  ( 25.80551412875781381, -1.500000000000000000, 6.914566671070613069 ) ) ;
#1104 = DIRECTION ( 'NONE',  ( 0.000000000000000000, 0.000000000000000000, -1.000000000000000000 ) ) ;
#1105 = DIRECTION ( 'NONE',  ( 0.000000000000000000, -0.000000000000000000, -1.000000000000000000 ) ) ;
#1106 = ORIENTED_EDGE ( 'NONE', *, *, #532, .T. ) ;
#1107 = DIRECTION ( 'NONE',  ( 0.000000000000000000, -1.000000000000000000, 0.000000000000000000 ) ) ;
#1108 = VERTEX_POINT ( 'NONE', #122 ) ;
#1109 = DIRECTION ( 'NONE',  ( 0.000000000000000000, -1.000000000000000000, 0.000000000000000000 ) ) ;
#1110 = DIRECTION ( 'NONE',  ( 0.000000000000000000, 0.000000000000000000, -1.000000000000000000 ) ) ;
#1111 = PRODUCT ( 'top plate_4', 'top plate_4', '', ( #1265 ) ) ;
#1112 = CARTESIAN_POINT ( 'NONE',  ( 7.117500000000038796, -1.500000000000000000, 12.32787162287150728 ) ) ;
#1113 = ORIENTED_EDGE ( 'NONE', *, *, #764, .F. ) ;
#1114 = DIRECTION ( 'NONE',  ( -0.000000000000000000, -1.000000000000000000, -0.000000000000000000 ) ) ;
#1115 = ORIENTED_EDGE ( 'NONE', *, *, #234, .F. ) ;
#1116 = EDGE_CURVE ( 'NONE', #247, #669, #431, .T. ) ;
#1117 = ADVANCED_FACE ( 'NONE', ( #1211 ), #502, .F. ) ;
#1118 = DIRECTION ( 'NONE',  ( -0.000000000000000000, 1.000000000000000000, 0.000000000000000000 ) ) ;
#1119 = DIRECTION ( 'NONE',  ( 0.8660254037844378194, 0.000000000000000000, -0.5000000000000015543 ) ) ;
#1120 = EDGE_CURVE ( 'NONE', #945, #304, #698, .T. ) ;
#1121 = CIRCLE ( 'NONE', #1010, 1.499999999999999556 ) ;
#1122 = LINE ( 'NONE', #411, #1095 ) ;
#1123 = VERTEX_POINT ( 'NONE', #814 ) ;
#1124 = DIRECTION ( 'NONE',  ( 0.6469215329907658241, 0.000000000000000000, -0.7625565750505843843 ) ) ;
#1125 = ORIENTED_EDGE ( 'NONE', *, *, #218, .F. ) ;
#1126 = DIRECTION ( 'NONE',  ( -0.000000000000000000, 1.000000000000000000, -0.000000000000000000 ) ) ;
#1127 = DIRECTION ( 'NONE',  ( 0.000000000000000000, 1.000000000000000000, 0.000000000000000000 ) ) ;
#1128 = EDGE_CURVE ( 'NONE', #1191, #312, #697, .T. ) ;
#1129 = DIRECTION ( 'NONE',  ( 0.5000000000000014433, 0.000000000000000000, 0.8660254037844379305 ) ) ;
#1130 = VERTEX_POINT ( 'NONE', #809 ) ;
#1131 = EDGE_CURVE ( 'NONE', #665, #745, #151, .T. ) ;
#1132 = LINE ( 'NONE', #1039, #865 ) ;
#1133 = ORIENTED_EDGE ( 'NONE', *, *, #210, .F. ) ;
#1134 = DIRECTION ( 'NONE',  ( 0.000000000000000000, 0.000000000000000000, -1.000000000000000000 ) ) ;
#1135 = EDGE_LOOP ( 'NONE', ( #260, #1036, #1133, #243 ) ) ;
#1136 = LINE ( 'NONE', #155, #967 ) ;
#1137 = EDGE_LOOP ( 'NONE', ( #454, #211, #584, #1259 ) ) ;
#1138 = ORIENTED_EDGE ( 'NONE', *, *, #876, .T. ) ;
#1139 = CARTESIAN_POINT ( 'NONE',  ( 25.00000000000000000, 1.500000000000000000, 9.100000000000001421 ) ) ;
#1140 = CYLINDRICAL_SURFACE ( 'NONE', #554, 1.599999999999999867 ) ;
#1141 = VECTOR ( 'NONE', #397, 1000.000000000000000 ) ;
#1142 = VECTOR ( 'NONE', #995, 1000.000000000000000 ) ;
#1143 = AXIS2_PLACEMENT_3D ( 'NONE', #188, #581, #974 ) ;
#1144 =( NAMED_UNIT ( * ) SI_UNIT ( $, .STERADIAN. ) SOLID_ANGLE_UNIT ( ) );
#1145 = ORIENTED_EDGE ( 'NONE', *, *, #250, .F. ) ;
#1146 = CARTESIAN_POINT ( 'NONE',  ( 48.62063509461096800, 1.500000000000000000, -16.83012701892217322 ) ) ;
#1147 = DIRECTION ( 'NONE',  ( 1.000000000000000000, 0.000000000000000000, -0.000000000000000000 ) ) ;
#1148 = CARTESIAN_POINT ( 'NONE',  ( 5.000000000000000000, 1.500000000000000000, 9.099999999999999645 ) ) ;
#1149 = ORIENTED_EDGE ( 'NONE', *, *, #762, .F. ) ;
#1150 = DIRECTION ( 'NONE',  ( 0.000000000000000000, 0.000000000000000000, -1.000000000000000000 ) ) ;
#1151 = LINE ( 'NONE', #550, #930 ) ;
#1152 = ORIENTED_EDGE ( 'NONE', *, *, #592, .F. ) ;
#1153 = CARTESIAN_POINT ( 'NONE',  ( 53.31900284279042523, 1.500000000000000000, -15.19231536643239977 ) ) ;
#1154 = ADVANCED_FACE ( 'NONE', ( #717 ), #402, .F. ) ;
#1155 = LINE ( 'NONE', #370, #182 ) ;
#1156 = EDGE_CURVE ( 'NONE', #829, #637, #610, .T. ) ;
#1157 = CIRCLE ( 'NONE', #984, 1.750000000000001554 ) ;
#1158 = ORIENTED_EDGE ( 'NONE', *, *, #190, .T. ) ;
#1159 = VECTOR ( 'NONE', #531, 1000.000000000000000 ) ;
#1160 = AXIS2_PLACEMENT_3D ( 'NONE', #966, #1171, #382 ) ;
#1161 = CARTESIAN_POINT ( 'NONE',  ( 21.20205080756914739, -1.500000000000000000, -1.000000000000000000 ) ) ;
#1162 = CIRCLE ( 'NONE', #412, 1.499999999999999556 ) ;
#1163 = DIRECTION ( 'NONE',  ( 0.000000000000000000, 0.000000000000000000, -1.000000000000000000 ) ) ;
#1164 = ORIENTED_EDGE ( 'NONE', *, *, #860, .T. ) ;
#1165 = EDGE_CURVE ( 'NONE', #567, #481, #212, .T. ) ;
#1166 = FACE_OUTER_BOUND ( 'NONE', #1217, .T. ) ;
#1167 = CARTESIAN_POINT ( 'NONE',  ( 25.35397459621562177, 1.500000000000000000, -5.129165124598745962 ) ) ;
#1168 = DIRECTION ( 'NONE',  ( 0.6469215329907658241, 0.000000000000000000, -0.7625565750505843843 ) ) ;
#1169 = ORIENTED_EDGE ( 'NONE', *, *, #298, .F. ) ;
#1170 = ORIENTED_EDGE ( 'NONE', *, *, #29, .F. ) ;
#1171 = DIRECTION ( 'NONE',  ( -0.000000000000000000, -1.000000000000000000, -0.000000000000000000 ) ) ;
#1172 = CARTESIAN_POINT ( 'NONE',  ( 49.81021765691041736, -1.500000000000000000, -21.26970958122155153 ) ) ;
#1173 = CYLINDRICAL_SURFACE ( 'NONE', #123, 1.600000000000001643 ) ;
#1174 = EDGE_CURVE ( 'NONE', #595, #813, #185, .T. ) ;
#1175 = EDGE_LOOP ( 'NONE', ( #635, #161, #299, #670 ) ) ;
#1176 = AXIS2_PLACEMENT_3D ( 'NONE', #1188, #1258, #591 ) ;
#1177 = FACE_OUTER_BOUND ( 'NONE', #977, .T. ) ;
#1178 = VECTOR ( 'NONE', #1088, 1000.000000000000000 ) ;
#1179 = ORIENTED_EDGE ( 'NONE', *, *, #194, .F. ) ;
#1180 = CIRCLE ( 'NONE', #1098, 1.499999999999999556 ) ;
#1181 = CARTESIAN_POINT ( 'NONE',  ( 1.750000000000000000, 1.500000000000000000, 1.749999999999999778 ) ) ;
#1182 = VECTOR ( 'NONE', #48, 1000.000000000000000 ) ;
#1183 = DIRECTION ( 'NONE',  ( -0.000000000000000000, -1.000000000000000000, -0.000000000000000000 ) ) ;
#1184 = EDGE_LOOP ( 'NONE', ( #552, #14, #349, #1113 ) ) ;
#1185 = EDGE_LOOP ( 'NONE', ( #23, #101, #877, #172 ) ) ;
#1186 = ADVANCED_FACE ( 'NONE', ( #300 ), #796, .T. ) ;
#1187 = DIRECTION ( 'NONE',  ( 0.000000000000000000, 1.000000000000000000, 0.000000000000000000 ) ) ;
#1188 = CARTESIAN_POINT ( 'NONE',  ( 25.00000000000000000, 1.500000000000000000, 7.500000000000000000 ) ) ;
#1189 = MANIFOLD_SOLID_BREP ( '\X2\9762306e79fb52d5\X0\1', #837 ) ;
#1190 = CYLINDRICAL_SURFACE ( 'NONE', #351, 1.500000000000000000 ) ;
#1191 = VERTEX_POINT ( 'NONE', #944 ) ;
#1192 = EDGE_LOOP ( 'NONE', ( #730, #1024 ) ) ;
#1193 = DIRECTION ( 'NONE',  ( -4.625929269271485322E-15, 0.000000000000000000, -1.000000000000000000 ) ) ;
#1194 = EDGE_CURVE ( 'NONE', #401, #794, #703, .T. ) ;
#1195 = DIRECTION ( 'NONE',  ( 0.000000000000000000, 0.000000000000000000, -1.000000000000000000 ) ) ;
#1196 = EDGE_CURVE ( 'NONE', #567, #955, #626, .T. ) ;
#1197 = CARTESIAN_POINT ( 'NONE',  ( 0.000000000000000000, 1.500000000000000000, 14.99999999999999822 ) ) ;
#1198 = ORIENTED_EDGE ( 'NONE', *, *, #543, .T. ) ;
#1199 = VERTEX_POINT ( 'NONE', #1029 ) ;
#1200 = CARTESIAN_POINT ( 'NONE',  ( 5.000000000000000000, -1.500000000000000000, 9.099999999999999645 ) ) ;
#1201 = AXIS2_PLACEMENT_3D ( 'NONE', #1181, #271, #987 ) ;
#1202 = DIRECTION ( 'NONE',  ( 0.000000000000000000, 1.000000000000000000, 0.000000000000000000 ) ) ;
#1203 = CIRCLE ( 'NONE', #596, 1.750000000000000000 ) ;
#1204 = FACE_BOUND ( 'NONE', #1192, .T. ) ;
#1205 = EDGE_LOOP ( 'NONE', ( #459, #661, #1215, #919 ) ) ;
#1206 = DIRECTION ( 'NONE',  ( 0.000000000000000000, 1.000000000000000000, 0.000000000000000000 ) ) ;
#1207 = DIRECTION ( 'NONE',  ( -0.000000000000000000, -1.000000000000000000, -0.000000000000000000 ) ) ;
#1208 = FACE_OUTER_BOUND ( 'NONE', #580, .T. ) ;
#1209 = CARTESIAN_POINT ( 'NONE',  ( 0.000000000000000000, 1.500000000000000000, 1.750000000000003331 ) ) ;
#1210 = ORIENTED_EDGE ( 'NONE', *, *, #256, .F. ) ;
#1211 = FACE_OUTER_BOUND ( 'NONE', #375, .T. ) ;
#1212 = CARTESIAN_POINT ( 'NONE',  ( 1.750000000000008438, -1.500000000000000000, 14.99999999999999822 ) ) ;
#1213 = CARTESIAN_POINT ( 'NONE',  ( 1.750000000000000000, 1.500000000000000000, 1.749999999999999778 ) ) ;
#1214 = LINE ( 'NONE', #317, #541 ) ;
#1215 = ORIENTED_EDGE ( 'NONE', *, *, #1194, .T. ) ;
#1216 = DIRECTION ( 'NONE',  ( 0.000000000000000000, 0.000000000000000000, -1.000000000000000000 ) ) ;
#1217 = EDGE_LOOP ( 'NONE', ( #576, #453, #373, #972 ) ) ;
#1218 = VECTOR ( 'NONE', #282, 1000.000000000000000 ) ;
#1219 = FACE_BOUND ( 'NONE', #413, .T. ) ;
#1220 = CARTESIAN_POINT ( 'NONE',  ( 27.82219034553194703, 1.500000000000000000, -0.6117714323462156711 ) ) ;
#1221 = AXIS2_PLACEMENT_3D ( 'NONE', #751, #461, #448 ) ;
#1222 = ORIENTED_EDGE ( 'NONE', *, *, #688, .F. ) ;
#1223 = DIRECTION ( 'NONE',  ( 1.831809372731536340E-16, -0.000000000000000000, 1.000000000000000000 ) ) ;
#1224 = ORIENTED_EDGE ( 'NONE', *, *, #1120, .T. ) ;
#1225 = DIRECTION ( 'NONE',  ( -1.000000000000000000, 0.000000000000000000, 1.156482317317871478E-16 ) ) ;
#1226 = DIRECTION ( 'NONE',  ( 0.000000000000000000, -1.000000000000000000, 0.000000000000000000 ) ) ;
#1227 = DIRECTION ( 'NONE',  ( -0.000000000000000000, 1.000000000000000000, -0.000000000000000000 ) ) ;
#1228 = VERTEX_POINT ( 'NONE', #838 ) ;
#1229 = ORIENTED_EDGE ( 'NONE', *, *, #356, .F. ) ;
#1230 = FACE_OUTER_BOUND ( 'NONE', #901, .T. ) ;
#1231 = CARTESIAN_POINT ( 'NONE',  ( 31.30012701892220761, 1.500000000000000000, -5.230127018922134496 ) ) ;
#1232 = CYLINDRICAL_SURFACE ( 'NONE', #124, 1.500000000000000000 ) ;
#1233 = EDGE_LOOP ( 'NONE', ( #432, #487, #318, #494 ) ) ;
#1234 = LINE ( 'NONE', #1139, #266 ) ;
#1235 = DIRECTION ( 'NONE',  ( 0.000000000000000000, -1.000000000000000000, 0.000000000000000000 ) ) ;
#1236 = AXIS2_PLACEMENT_3D ( 'NONE', #979, #489, #673 ) ;
#1237 = VECTOR ( 'NONE', #350, 1000.000000000000000 ) ;
#1238 = APPLICATION_PROTOCOL_DEFINITION ( 'draft international standard', 'automotive_design', 1998, #1045 ) ;
#1239 = ORIENTED_EDGE ( 'NONE', *, *, #928, .F. ) ;
#1240 = CARTESIAN_POINT ( 'NONE',  ( 54.65347684912894977, 1.500000000000000000, -14.06020268369856119 ) ) ;
#1241 = DIRECTION ( 'NONE',  ( 0.000000000000000000, -1.000000000000000000, 0.000000000000000000 ) ) ;
#1242 = EDGE_CURVE ( 'NONE', #753, #729, #232, .T. ) ;
#1243 = ORIENTED_EDGE ( 'NONE', *, *, #650, .T. ) ;
#1244 = EDGE_CURVE ( 'NONE', #171, #997, #160, .T. ) ;
#1245 = FACE_BOUND ( 'NONE', #896, .T. ) ;
#1246 = DIRECTION ( 'NONE',  ( -1.000000000000000000, -0.000000000000000000, 1.831809372731536340E-16 ) ) ;
#1247 = ORIENTED_EDGE ( 'NONE', *, *, #795, .T. ) ;
#1248 = CARTESIAN_POINT ( 'NONE',  ( 55.45076211353314477, 1.500000000000000000, -15.00000000000004263 ) ) ;
#1249 = DIRECTION ( 'NONE',  ( 0.6469215329907659351, -0.000000000000000000, -0.7625565750505842733 ) ) ;
#1250 = AXIS2_PLACEMENT_3D ( 'NONE', #5, #405, #975 ) ;
#1251 = VECTOR ( 'NONE', #1246, 1000.000000000000000 ) ;
#1252 = VERTEX_POINT ( 'NONE', #357 ) ;
#1253 = AXIS2_PLACEMENT_3D ( 'NONE', #168, #747, #1150 ) ;
#1254 = AXIS2_PLACEMENT_3D ( 'NONE', #307, #599, #204 ) ;
#1255 = LINE ( 'NONE', #1267, #1178 ) ;
#1256 = AXIS2_PLACEMENT_3D ( 'NONE', #1112, #1129, #215 ) ;
#1257 = DIRECTION ( 'NONE',  ( -0.8660254037844377084, 0.000000000000000000, 0.5000000000000016653 ) ) ;
#1258 = DIRECTION ( 'NONE',  ( 0.000000000000000000, 1.000000000000000000, 0.000000000000000000 ) ) ;
#1259 = ORIENTED_EDGE ( 'NONE', *, *, #1054, .T. ) ;
#1260 = DIRECTION ( 'NONE',  ( 0.000000000000000000, 1.000000000000000000, 0.000000000000000000 ) ) ;
#1261 = EDGE_CURVE ( 'NONE', #364, #1102, #934, .T. ) ;
#1262 = DIRECTION ( 'NONE',  ( 0.000000000000000000, 0.000000000000000000, 1.000000000000000000 ) ) ;
#1263 = ADVANCED_FACE ( 'NONE', ( #744 ), #547, .F. ) ;
#1264 = DIRECTION ( 'NONE',  ( -0.000000000000000000, -0.000000000000000000, 1.000000000000000000 ) ) ;
#1265 = PRODUCT_CONTEXT ( 'NONE', #1045, 'mechanical' ) ;
#1266 = VERTEX_POINT ( 'NONE', #646 ) ;
#1267 = CARTESIAN_POINT ( 'NONE',  ( 25.35397459621562533, -1.500000000000000000, -5.129165124598746850 ) ) ;
#1268 = CARTESIAN_POINT ( 'NONE',  ( 30.00000000000000355, -1.500000000000000000, 14.99999999999999467 ) ) ;
#1269 = DIRECTION ( 'NONE',  ( 0.000000000000000000, 1.000000000000000000, 0.000000000000000000 ) ) ;
#1270 = ORIENTED_EDGE ( 'NONE', *, *, #784, .T. ) ;
#1271 = ORIENTED_EDGE ( 'NONE', *, *, #879, .F. ) ;
#1272 = VECTOR ( 'NONE', #420, 1000.000000000000000 ) ;
#1273 = AXIS2_PLACEMENT_3D ( 'NONE', #33, #1202, #433 ) ;
#1274 = VECTOR ( 'NONE', #173, 1000.000000000000000 ) ;
#1275 = DIRECTION ( 'NONE',  ( 0.000000000000000000, -1.000000000000000000, 0.000000000000000000 ) ) ;
#1276 = EDGE_CURVE ( 'NONE', #25, #595, #1132, .T. ) ;
#1277 = DIRECTION ( 'NONE',  ( 0.000000000000000000, 0.000000000000000000, -1.000000000000000000 ) ) ;
#1278 = EDGE_LOOP ( 'NONE', ( #1145, #631, #1198, #1080 ) ) ;
ENDSEC;
END-ISO-10303-21;
