%TF.GenerationSoftware,KiCad,Pcbnew,10.0.4*%
%TF.CreationDate,2026-07-29T13:13:46+09:00*%
%TF.ProjectId,Oddom board,4f64646f-6d20-4626-9f61-72642e6b6963,rev?*%
%TF.SameCoordinates,Original*%
%TF.FileFunction,Copper,L3,Inr*%
%TF.FilePolarity,Positive*%
%FSLAX46Y46*%
G04 Gerber Fmt 4.6, Leading zero omitted, Abs format (unit mm)*
G04 Created by KiCad (PCBNEW 10.0.4) date 2026-07-29 13:13:46*
%MOMM*%
%LPD*%
G01*
G04 APERTURE LIST*
G04 Aperture macros list*
%AMRoundRect*
0 Rectangle with rounded corners*
0 $1 Rounding radius*
0 $2 $3 $4 $5 $6 $7 $8 $9 X,Y pos of 4 corners*
0 Add a 4 corners polygon primitive as box body*
4,1,4,$2,$3,$4,$5,$6,$7,$8,$9,$2,$3,0*
0 Add four circle primitives for the rounded corners*
1,1,$1+$1,$2,$3*
1,1,$1+$1,$4,$5*
1,1,$1+$1,$6,$7*
1,1,$1+$1,$8,$9*
0 Add four rect primitives between the rounded corners*
20,1,$1+$1,$2,$3,$4,$5,0*
20,1,$1+$1,$4,$5,$6,$7,0*
20,1,$1+$1,$6,$7,$8,$9,0*
20,1,$1+$1,$8,$9,$2,$3,0*%
G04 Aperture macros list end*
%TA.AperFunction,ComponentPad*%
%ADD10RoundRect,0.250000X-0.600000X-0.725000X0.600000X-0.725000X0.600000X0.725000X-0.600000X0.725000X0*%
%TD*%
%TA.AperFunction,ComponentPad*%
%ADD11O,1.700000X1.950000*%
%TD*%
%TA.AperFunction,ComponentPad*%
%ADD12RoundRect,0.250000X0.600000X0.725000X-0.600000X0.725000X-0.600000X-0.725000X0.600000X-0.725000X0*%
%TD*%
%TA.AperFunction,ViaPad*%
%ADD13C,0.500000*%
%TD*%
%TA.AperFunction,ViaPad*%
%ADD14C,0.600000*%
%TD*%
%TA.AperFunction,Conductor*%
%ADD15C,0.400000*%
%TD*%
%TA.AperFunction,Conductor*%
%ADD16C,0.500000*%
%TD*%
%TA.AperFunction,Conductor*%
%ADD17C,0.200000*%
%TD*%
G04 APERTURE END LIST*
D10*
%TO.N,PWR_5V*%
%TO.C,J4*%
X122050000Y-89100000D03*
D11*
%TO.N,GND*%
X124550000Y-89100000D03*
%TO.N,Net-(D2-A2)*%
X127050000Y-89100000D03*
%TO.N,Net-(D2-A1)*%
X129550000Y-89100000D03*
%TD*%
D10*
%TO.N,PWR_5V*%
%TO.C,J5*%
X70450000Y-89100000D03*
D11*
%TO.N,GND*%
X72950000Y-89100000D03*
%TO.N,Net-(D3-A2)*%
X75450000Y-89100000D03*
%TO.N,Net-(D3-A1)*%
X77950000Y-89100000D03*
%TD*%
D12*
%TO.N,PWR_3.3V*%
%TO.C,J7*%
X129550000Y-110900000D03*
D11*
%TO.N,GND*%
X127050000Y-110900000D03*
%TO.N,Net-(J7-Pin_3)*%
X124550000Y-110900000D03*
%TO.N,Net-(J7-Pin_4)*%
X122050000Y-110900000D03*
%TO.N,Net-(J7-Pin_5)*%
X119550000Y-110900000D03*
%TO.N,IMU_CS_N*%
X117050000Y-110900000D03*
%TO.N,IMU_INT1*%
X114550000Y-110900000D03*
%TO.N,IMU_INT2*%
X112050000Y-110900000D03*
%TD*%
D10*
%TO.N,PWR_5V*%
%TO.C,J6*%
X95925000Y-89100000D03*
D11*
%TO.N,GND*%
X98425000Y-89100000D03*
%TO.N,Net-(D4-A2)*%
X100925000Y-89100000D03*
%TO.N,Net-(D4-A1)*%
X103425000Y-89100000D03*
%TD*%
D13*
%TO.N,/AMT102_input2/W1_B*%
X92282266Y-100943787D03*
X112800000Y-96000000D03*
%TO.N,/AMT102_input2/W1_A*%
X91575000Y-101025000D03*
X110600000Y-94125000D03*
D14*
%TO.N,PWR_3.3V*%
X128275000Y-104000000D03*
X97875000Y-109025000D03*
X85175000Y-90550000D03*
X97700000Y-97900000D03*
X88420118Y-106298667D03*
X96862500Y-103125000D03*
X80275000Y-96800000D03*
X99702793Y-94725000D03*
X106975000Y-99700000D03*
X109475000Y-100775000D03*
%TO.N,GND*%
X103675000Y-103125000D03*
X78925000Y-100275000D03*
X72325000Y-96150000D03*
X97900000Y-100825000D03*
X92275000Y-105725000D03*
X130950000Y-96050000D03*
X98138724Y-94725000D03*
X124825627Y-94596688D03*
X81225000Y-103750000D03*
X104025000Y-100100000D03*
X108200000Y-92450000D03*
X93225000Y-108225000D03*
X74050000Y-109250000D03*
X90025000Y-107075000D03*
X97725000Y-99550000D03*
X109100000Y-110350000D03*
X76450000Y-96675000D03*
X78025000Y-96650000D03*
X84352127Y-88225843D03*
X101313235Y-95175000D03*
X105175000Y-99475000D03*
X103950000Y-106975000D03*
X96425000Y-108350000D03*
X91500000Y-109575000D03*
X104700000Y-95775000D03*
X101750766Y-98335222D03*
X130300000Y-104425000D03*
X75875000Y-105600000D03*
X86330331Y-90669669D03*
X110150000Y-97425000D03*
X101425000Y-107150000D03*
X102850000Y-107750000D03*
X125175000Y-103875000D03*
X126600000Y-104650000D03*
X90050000Y-94375000D03*
X95900000Y-107075000D03*
X81150000Y-88225000D03*
X81350000Y-93325000D03*
X124808691Y-95425000D03*
X83225000Y-93550000D03*
X105900000Y-109325000D03*
X95753827Y-103471173D03*
X87661348Y-88261522D03*
X113725000Y-97175000D03*
X87125000Y-108925000D03*
%TO.N,PWR_5V*%
X107150000Y-105650000D03*
X88737536Y-110354513D03*
%TO.N,Net-(J7-Pin_3)*%
X89275000Y-103125000D03*
%TO.N,Net-(J7-Pin_4)*%
X90150000Y-103125000D03*
%TO.N,Net-(J7-Pin_5)*%
X90839211Y-106900000D03*
%TO.N,IMU_CS_N*%
X91650000Y-106900000D03*
%TO.N,IMU_INT1*%
X84175000Y-99300000D03*
%TO.N,IMU_INT2*%
X84161765Y-98211765D03*
D13*
%TO.N,/CAN_interface/COMM_TX*%
X86887286Y-103204684D03*
X88363257Y-108361743D03*
%TO.N,/CAN_interface/COMM_RX*%
X86193647Y-103110515D03*
X88299999Y-112424999D03*
%TO.N,Net-(U1-PC6)*%
X86425000Y-100150000D03*
X115925000Y-101150000D03*
%TO.N,Net-(U1-PC7)*%
X116175000Y-102125000D03*
X85825000Y-100800000D03*
%TO.N,Net-(U1-PC8)*%
X85350000Y-101425000D03*
X116025000Y-103125000D03*
D14*
%TO.N,SWCLK*%
X88150000Y-104575000D03*
X117775000Y-106325000D03*
%TO.N,SWDIO*%
X118325000Y-105100000D03*
X87800000Y-103125000D03*
%TO.N,NRST*%
X101212761Y-96225000D03*
X114975000Y-94675000D03*
%TO.N,USART2_TX*%
X90675735Y-90825735D03*
X114725000Y-90375000D03*
%TO.N,USART2_RX*%
X87350000Y-91250000D03*
X115975000Y-89675000D03*
D13*
%TO.N,/AMT102_input/W1_A*%
X117175000Y-95900000D03*
X91775000Y-91975255D03*
%TO.N,/AMT102_input/W1_B*%
X117150000Y-94025000D03*
X91800000Y-91250000D03*
%TO.N,/AMT102_input1/W1_A*%
X80075000Y-101425000D03*
X85975000Y-94675000D03*
%TO.N,/AMT102_input1/W1_B*%
X80100000Y-103325000D03*
X86000000Y-95525000D03*
%TD*%
%TO.N,PWR_3.3V*%
D15*
X109475000Y-100775000D02*
X109925000Y-100325000D01*
X99727793Y-94700000D02*
X99702793Y-94725000D01*
D16*
X89793785Y-104925000D02*
X88420118Y-106298667D01*
D15*
X96862500Y-103125000D02*
X96862500Y-103037500D01*
X98375000Y-101525000D02*
X104285050Y-101525000D01*
D16*
X85175000Y-90575000D02*
X92025000Y-97425000D01*
D15*
X97964778Y-97535222D02*
X97964778Y-97635222D01*
D16*
X80900000Y-97425000D02*
X80275000Y-96800000D01*
X85175000Y-90550000D02*
X85175000Y-90575000D01*
D15*
X96862500Y-103037500D02*
X98375000Y-101525000D01*
X124600000Y-100325000D02*
X128275000Y-104000000D01*
D16*
X106975000Y-99700000D02*
X104910222Y-97635222D01*
X97875000Y-107750000D02*
X100700000Y-104925000D01*
X100002793Y-94425000D02*
X99727793Y-94700000D01*
X104910222Y-97635222D02*
X101700000Y-94425000D01*
X92025000Y-97425000D02*
X104700000Y-97425000D01*
X106975000Y-99700000D02*
X104700000Y-97425000D01*
D15*
X104285050Y-101525000D02*
X106110050Y-99700000D01*
X98075000Y-97425000D02*
X97964778Y-97535222D01*
X104910222Y-97635222D02*
X104700000Y-97425000D01*
X106110050Y-99700000D02*
X100885050Y-104925000D01*
D16*
X104700000Y-97425000D02*
X80900000Y-97425000D01*
X100885050Y-104925000D02*
X89793785Y-104925000D01*
D15*
X97964778Y-97635222D02*
X97700000Y-97900000D01*
X109925000Y-100325000D02*
X124600000Y-100325000D01*
D16*
X101700000Y-94425000D02*
X100002793Y-94425000D01*
D15*
X106975000Y-99700000D02*
X106110050Y-99700000D01*
D16*
X100700000Y-104925000D02*
X100885050Y-104925000D01*
X97875000Y-109025000D02*
X97875000Y-107750000D01*
%TO.N,PWR_5V*%
X88737536Y-110354513D02*
X88767049Y-110325000D01*
X72175000Y-87375000D02*
X94200000Y-87375000D01*
X107875000Y-95075000D02*
X114025000Y-88925000D01*
X103775000Y-90975000D02*
X97800000Y-90975000D01*
X97800000Y-90975000D02*
X95925000Y-89100000D01*
X70450000Y-89100000D02*
X72175000Y-87375000D01*
D15*
X121875000Y-88925000D02*
X122050000Y-89100000D01*
D16*
X107875000Y-104300000D02*
X107875000Y-95075000D01*
X102525000Y-110325000D02*
X107875000Y-104975000D01*
X88767049Y-110325000D02*
X102525000Y-110325000D01*
X107875000Y-95075000D02*
X103775000Y-90975000D01*
X114025000Y-88925000D02*
X121875000Y-88925000D01*
X107875000Y-104975000D02*
X107875000Y-104300000D01*
X95925000Y-89100000D02*
X94200000Y-87375000D01*
%TO.N,IMU_INT1*%
D17*
X110574999Y-111874999D02*
X110875000Y-112175000D01*
X113275000Y-112175000D02*
X114550000Y-110900000D01*
X110875000Y-112175000D02*
X113275000Y-112175000D01*
X88084314Y-111874999D02*
X110574999Y-111874999D01*
X84175000Y-107965686D02*
X88084314Y-111874999D01*
X84175000Y-99300000D02*
X84175000Y-107965686D01*
%TO.N,IMU_INT2*%
X84161765Y-98411765D02*
X84800000Y-99050000D01*
X84800000Y-99050000D02*
X84800000Y-108025000D01*
X84800000Y-108025000D02*
X87750000Y-110975000D01*
X84161765Y-98211765D02*
X84161765Y-98411765D01*
X87750000Y-110975000D02*
X111975000Y-110975000D01*
X111975000Y-110975000D02*
X112050000Y-110900000D01*
%TD*%
M02*
