%TF.GenerationSoftware,KiCad,Pcbnew,10.0.4*%
%TF.CreationDate,2026-07-29T13:13:46+09:00*%
%TF.ProjectId,Oddom board,4f64646f-6d20-4626-9f61-72642e6b6963,rev?*%
%TF.SameCoordinates,Original*%
%TF.FileFunction,Legend,Top*%
%TF.FilePolarity,Positive*%
%FSLAX46Y46*%
G04 Gerber Fmt 4.6, Leading zero omitted, Abs format (unit mm)*
G04 Created by KiCad (PCBNEW 10.0.4) date 2026-07-29 13:13:46*
%MOMM*%
%LPD*%
G01*
G04 APERTURE LIST*
%ADD10C,0.100000*%
%ADD11C,0.120000*%
G04 APERTURE END LIST*
D10*
X68746429Y-107214895D02*
X68746429Y-106414895D01*
X68746429Y-106795847D02*
X69203572Y-106795847D01*
X69203572Y-107214895D02*
X69203572Y-106414895D01*
X69010715Y-105613704D02*
X68972619Y-105651800D01*
X68972619Y-105651800D02*
X68858334Y-105689895D01*
X68858334Y-105689895D02*
X68782143Y-105689895D01*
X68782143Y-105689895D02*
X68667857Y-105651800D01*
X68667857Y-105651800D02*
X68591667Y-105575609D01*
X68591667Y-105575609D02*
X68553572Y-105499419D01*
X68553572Y-105499419D02*
X68515476Y-105347038D01*
X68515476Y-105347038D02*
X68515476Y-105232752D01*
X68515476Y-105232752D02*
X68553572Y-105080371D01*
X68553572Y-105080371D02*
X68591667Y-105004180D01*
X68591667Y-105004180D02*
X68667857Y-104927990D01*
X68667857Y-104927990D02*
X68782143Y-104889895D01*
X68782143Y-104889895D02*
X68858334Y-104889895D01*
X68858334Y-104889895D02*
X68972619Y-104927990D01*
X68972619Y-104927990D02*
X69010715Y-104966085D01*
X69315476Y-105461323D02*
X69696429Y-105461323D01*
X69239286Y-105689895D02*
X69505953Y-104889895D01*
X69505953Y-104889895D02*
X69772619Y-105689895D01*
X70039286Y-105689895D02*
X70039286Y-104889895D01*
X70039286Y-104889895D02*
X70496429Y-105689895D01*
X70496429Y-105689895D02*
X70496429Y-104889895D01*
X76250001Y-108589895D02*
X76402382Y-108589895D01*
X76402382Y-108589895D02*
X76478572Y-108627990D01*
X76478572Y-108627990D02*
X76554763Y-108704180D01*
X76554763Y-108704180D02*
X76592858Y-108856561D01*
X76592858Y-108856561D02*
X76592858Y-109123228D01*
X76592858Y-109123228D02*
X76554763Y-109275609D01*
X76554763Y-109275609D02*
X76478572Y-109351800D01*
X76478572Y-109351800D02*
X76402382Y-109389895D01*
X76402382Y-109389895D02*
X76250001Y-109389895D01*
X76250001Y-109389895D02*
X76173810Y-109351800D01*
X76173810Y-109351800D02*
X76097620Y-109275609D01*
X76097620Y-109275609D02*
X76059524Y-109123228D01*
X76059524Y-109123228D02*
X76059524Y-108856561D01*
X76059524Y-108856561D02*
X76097620Y-108704180D01*
X76097620Y-108704180D02*
X76173810Y-108627990D01*
X76173810Y-108627990D02*
X76250001Y-108589895D01*
X77202381Y-108970847D02*
X76935715Y-108970847D01*
X76935715Y-109389895D02*
X76935715Y-108589895D01*
X76935715Y-108589895D02*
X77316667Y-108589895D01*
X77888095Y-108970847D02*
X77621429Y-108970847D01*
X77621429Y-109389895D02*
X77621429Y-108589895D01*
X77621429Y-108589895D02*
X78002381Y-108589895D01*
X84859524Y-108589895D02*
X85011905Y-108589895D01*
X85011905Y-108589895D02*
X85088095Y-108627990D01*
X85088095Y-108627990D02*
X85164286Y-108704180D01*
X85164286Y-108704180D02*
X85202381Y-108856561D01*
X85202381Y-108856561D02*
X85202381Y-109123228D01*
X85202381Y-109123228D02*
X85164286Y-109275609D01*
X85164286Y-109275609D02*
X85088095Y-109351800D01*
X85088095Y-109351800D02*
X85011905Y-109389895D01*
X85011905Y-109389895D02*
X84859524Y-109389895D01*
X84859524Y-109389895D02*
X84783333Y-109351800D01*
X84783333Y-109351800D02*
X84707143Y-109275609D01*
X84707143Y-109275609D02*
X84669047Y-109123228D01*
X84669047Y-109123228D02*
X84669047Y-108856561D01*
X84669047Y-108856561D02*
X84707143Y-108704180D01*
X84707143Y-108704180D02*
X84783333Y-108627990D01*
X84783333Y-108627990D02*
X84859524Y-108589895D01*
X85545238Y-109389895D02*
X85545238Y-108589895D01*
X85545238Y-108589895D02*
X86002381Y-109389895D01*
X86002381Y-109389895D02*
X86002381Y-108589895D01*
X81728571Y-90545847D02*
X81995237Y-90545847D01*
X82109523Y-90964895D02*
X81728571Y-90964895D01*
X81728571Y-90964895D02*
X81728571Y-90164895D01*
X81728571Y-90164895D02*
X82109523Y-90164895D01*
X82909524Y-90964895D02*
X82642857Y-90583942D01*
X82452381Y-90964895D02*
X82452381Y-90164895D01*
X82452381Y-90164895D02*
X82757143Y-90164895D01*
X82757143Y-90164895D02*
X82833333Y-90202990D01*
X82833333Y-90202990D02*
X82871428Y-90241085D01*
X82871428Y-90241085D02*
X82909524Y-90317276D01*
X82909524Y-90317276D02*
X82909524Y-90431561D01*
X82909524Y-90431561D02*
X82871428Y-90507752D01*
X82871428Y-90507752D02*
X82833333Y-90545847D01*
X82833333Y-90545847D02*
X82757143Y-90583942D01*
X82757143Y-90583942D02*
X82452381Y-90583942D01*
X83709524Y-90964895D02*
X83442857Y-90583942D01*
X83252381Y-90964895D02*
X83252381Y-90164895D01*
X83252381Y-90164895D02*
X83557143Y-90164895D01*
X83557143Y-90164895D02*
X83633333Y-90202990D01*
X83633333Y-90202990D02*
X83671428Y-90241085D01*
X83671428Y-90241085D02*
X83709524Y-90317276D01*
X83709524Y-90317276D02*
X83709524Y-90431561D01*
X83709524Y-90431561D02*
X83671428Y-90507752D01*
X83671428Y-90507752D02*
X83633333Y-90545847D01*
X83633333Y-90545847D02*
X83557143Y-90583942D01*
X83557143Y-90583942D02*
X83252381Y-90583942D01*
X106383333Y-110014895D02*
X106383333Y-109214895D01*
X106383333Y-109214895D02*
X106688095Y-109214895D01*
X106688095Y-109214895D02*
X106764285Y-109252990D01*
X106764285Y-109252990D02*
X106802380Y-109291085D01*
X106802380Y-109291085D02*
X106840476Y-109367276D01*
X106840476Y-109367276D02*
X106840476Y-109481561D01*
X106840476Y-109481561D02*
X106802380Y-109557752D01*
X106802380Y-109557752D02*
X106764285Y-109595847D01*
X106764285Y-109595847D02*
X106688095Y-109633942D01*
X106688095Y-109633942D02*
X106383333Y-109633942D01*
X107107142Y-109214895D02*
X107297618Y-110014895D01*
X107297618Y-110014895D02*
X107449999Y-109443466D01*
X107449999Y-109443466D02*
X107602380Y-110014895D01*
X107602380Y-110014895D02*
X107792857Y-109214895D01*
X108554762Y-110014895D02*
X108288095Y-109633942D01*
X108097619Y-110014895D02*
X108097619Y-109214895D01*
X108097619Y-109214895D02*
X108402381Y-109214895D01*
X108402381Y-109214895D02*
X108478571Y-109252990D01*
X108478571Y-109252990D02*
X108516666Y-109291085D01*
X108516666Y-109291085D02*
X108554762Y-109367276D01*
X108554762Y-109367276D02*
X108554762Y-109481561D01*
X108554762Y-109481561D02*
X108516666Y-109557752D01*
X108516666Y-109557752D02*
X108478571Y-109595847D01*
X108478571Y-109595847D02*
X108402381Y-109633942D01*
X108402381Y-109633942D02*
X108097619Y-109633942D01*
X111198810Y-107064895D02*
X111198810Y-106264895D01*
X111579762Y-107064895D02*
X111579762Y-106264895D01*
X111579762Y-106264895D02*
X111846428Y-106836323D01*
X111846428Y-106836323D02*
X112113095Y-106264895D01*
X112113095Y-106264895D02*
X112113095Y-107064895D01*
X112494048Y-106264895D02*
X112494048Y-106912514D01*
X112494048Y-106912514D02*
X112532143Y-106988704D01*
X112532143Y-106988704D02*
X112570238Y-107026800D01*
X112570238Y-107026800D02*
X112646429Y-107064895D01*
X112646429Y-107064895D02*
X112798810Y-107064895D01*
X112798810Y-107064895D02*
X112875000Y-107026800D01*
X112875000Y-107026800D02*
X112913095Y-106988704D01*
X112913095Y-106988704D02*
X112951191Y-106912514D01*
X112951191Y-106912514D02*
X112951191Y-106264895D01*
X91005371Y-87249999D02*
X91614895Y-86907142D01*
X91614895Y-86907142D02*
X91614895Y-87592857D01*
X91614895Y-87592857D02*
X91005371Y-87249999D01*
X69344628Y-107875000D02*
X68735104Y-108217857D01*
X68735104Y-108217857D02*
X68735104Y-107532142D01*
X68735104Y-107532142D02*
X69344628Y-107875000D01*
X91011295Y-88296429D02*
X90973200Y-88258333D01*
X90973200Y-88258333D02*
X90935104Y-88144048D01*
X90935104Y-88144048D02*
X90935104Y-88067857D01*
X90935104Y-88067857D02*
X90973200Y-87953571D01*
X90973200Y-87953571D02*
X91049390Y-87877381D01*
X91049390Y-87877381D02*
X91125580Y-87839286D01*
X91125580Y-87839286D02*
X91277961Y-87801190D01*
X91277961Y-87801190D02*
X91392247Y-87801190D01*
X91392247Y-87801190D02*
X91544628Y-87839286D01*
X91544628Y-87839286D02*
X91620819Y-87877381D01*
X91620819Y-87877381D02*
X91697009Y-87953571D01*
X91697009Y-87953571D02*
X91735104Y-88067857D01*
X91735104Y-88067857D02*
X91735104Y-88144048D01*
X91735104Y-88144048D02*
X91697009Y-88258333D01*
X91697009Y-88258333D02*
X91658914Y-88296429D01*
X91735104Y-88791667D02*
X91735104Y-88944048D01*
X91735104Y-88944048D02*
X91697009Y-89020238D01*
X91697009Y-89020238D02*
X91620819Y-89096429D01*
X91620819Y-89096429D02*
X91468438Y-89134524D01*
X91468438Y-89134524D02*
X91201771Y-89134524D01*
X91201771Y-89134524D02*
X91049390Y-89096429D01*
X91049390Y-89096429D02*
X90973200Y-89020238D01*
X90973200Y-89020238D02*
X90935104Y-88944048D01*
X90935104Y-88944048D02*
X90935104Y-88791667D01*
X90935104Y-88791667D02*
X90973200Y-88715476D01*
X90973200Y-88715476D02*
X91049390Y-88639286D01*
X91049390Y-88639286D02*
X91201771Y-88601190D01*
X91201771Y-88601190D02*
X91468438Y-88601190D01*
X91468438Y-88601190D02*
X91620819Y-88639286D01*
X91620819Y-88639286D02*
X91697009Y-88715476D01*
X91697009Y-88715476D02*
X91735104Y-88791667D01*
X90935104Y-89477381D02*
X91735104Y-89477381D01*
X91735104Y-89477381D02*
X91163676Y-89744047D01*
X91163676Y-89744047D02*
X91735104Y-90010714D01*
X91735104Y-90010714D02*
X90935104Y-90010714D01*
X92035104Y-88359524D02*
X92416057Y-88092857D01*
X92035104Y-87902381D02*
X92835104Y-87902381D01*
X92835104Y-87902381D02*
X92835104Y-88207143D01*
X92835104Y-88207143D02*
X92797009Y-88283333D01*
X92797009Y-88283333D02*
X92758914Y-88321428D01*
X92758914Y-88321428D02*
X92682723Y-88359524D01*
X92682723Y-88359524D02*
X92568438Y-88359524D01*
X92568438Y-88359524D02*
X92492247Y-88321428D01*
X92492247Y-88321428D02*
X92454152Y-88283333D01*
X92454152Y-88283333D02*
X92416057Y-88207143D01*
X92416057Y-88207143D02*
X92416057Y-87902381D01*
X92835104Y-88702381D02*
X92187485Y-88702381D01*
X92187485Y-88702381D02*
X92111295Y-88740476D01*
X92111295Y-88740476D02*
X92073200Y-88778571D01*
X92073200Y-88778571D02*
X92035104Y-88854762D01*
X92035104Y-88854762D02*
X92035104Y-89007143D01*
X92035104Y-89007143D02*
X92073200Y-89083333D01*
X92073200Y-89083333D02*
X92111295Y-89121428D01*
X92111295Y-89121428D02*
X92187485Y-89159524D01*
X92187485Y-89159524D02*
X92835104Y-89159524D01*
X92035104Y-89540476D02*
X92835104Y-89540476D01*
X92835104Y-89540476D02*
X92035104Y-89997619D01*
X92035104Y-89997619D02*
X92835104Y-89997619D01*
X92819628Y-87250000D02*
X92210104Y-87592857D01*
X92210104Y-87592857D02*
X92210104Y-86907142D01*
X92210104Y-86907142D02*
X92819628Y-87250000D01*
X124460104Y-97978572D02*
X125260104Y-97978572D01*
X124460104Y-98359524D02*
X125260104Y-98359524D01*
X125260104Y-98359524D02*
X125260104Y-98550000D01*
X125260104Y-98550000D02*
X125222009Y-98664286D01*
X125222009Y-98664286D02*
X125145819Y-98740476D01*
X125145819Y-98740476D02*
X125069628Y-98778571D01*
X125069628Y-98778571D02*
X124917247Y-98816667D01*
X124917247Y-98816667D02*
X124802961Y-98816667D01*
X124802961Y-98816667D02*
X124650580Y-98778571D01*
X124650580Y-98778571D02*
X124574390Y-98740476D01*
X124574390Y-98740476D02*
X124498200Y-98664286D01*
X124498200Y-98664286D02*
X124460104Y-98550000D01*
X124460104Y-98550000D02*
X124460104Y-98359524D01*
X125260104Y-99311905D02*
X125260104Y-99388095D01*
X125260104Y-99388095D02*
X125222009Y-99464286D01*
X125222009Y-99464286D02*
X125183914Y-99502381D01*
X125183914Y-99502381D02*
X125107723Y-99540476D01*
X125107723Y-99540476D02*
X124955342Y-99578571D01*
X124955342Y-99578571D02*
X124764866Y-99578571D01*
X124764866Y-99578571D02*
X124612485Y-99540476D01*
X124612485Y-99540476D02*
X124536295Y-99502381D01*
X124536295Y-99502381D02*
X124498200Y-99464286D01*
X124498200Y-99464286D02*
X124460104Y-99388095D01*
X124460104Y-99388095D02*
X124460104Y-99311905D01*
X124460104Y-99311905D02*
X124498200Y-99235714D01*
X124498200Y-99235714D02*
X124536295Y-99197619D01*
X124536295Y-99197619D02*
X124612485Y-99159524D01*
X124612485Y-99159524D02*
X124764866Y-99121428D01*
X124764866Y-99121428D02*
X124955342Y-99121428D01*
X124955342Y-99121428D02*
X125107723Y-99159524D01*
X125107723Y-99159524D02*
X125183914Y-99197619D01*
X125183914Y-99197619D02*
X125222009Y-99235714D01*
X125222009Y-99235714D02*
X125260104Y-99311905D01*
X124460104Y-101369048D02*
X125260104Y-101369048D01*
X124460104Y-101750000D02*
X125260104Y-101750000D01*
X125260104Y-101750000D02*
X125260104Y-101940476D01*
X125260104Y-101940476D02*
X125222009Y-102054762D01*
X125222009Y-102054762D02*
X125145819Y-102130952D01*
X125145819Y-102130952D02*
X125069628Y-102169047D01*
X125069628Y-102169047D02*
X124917247Y-102207143D01*
X124917247Y-102207143D02*
X124802961Y-102207143D01*
X124802961Y-102207143D02*
X124650580Y-102169047D01*
X124650580Y-102169047D02*
X124574390Y-102130952D01*
X124574390Y-102130952D02*
X124498200Y-102054762D01*
X124498200Y-102054762D02*
X124460104Y-101940476D01*
X124460104Y-101940476D02*
X124460104Y-101750000D01*
X124460104Y-102969047D02*
X124460104Y-102511904D01*
X124460104Y-102740476D02*
X125260104Y-102740476D01*
X125260104Y-102740476D02*
X125145819Y-102664285D01*
X125145819Y-102664285D02*
X125069628Y-102588095D01*
X125069628Y-102588095D02*
X125031533Y-102511904D01*
X124460104Y-104759524D02*
X125260104Y-104759524D01*
X124460104Y-105140476D02*
X125260104Y-105140476D01*
X125260104Y-105140476D02*
X125260104Y-105330952D01*
X125260104Y-105330952D02*
X125222009Y-105445238D01*
X125222009Y-105445238D02*
X125145819Y-105521428D01*
X125145819Y-105521428D02*
X125069628Y-105559523D01*
X125069628Y-105559523D02*
X124917247Y-105597619D01*
X124917247Y-105597619D02*
X124802961Y-105597619D01*
X124802961Y-105597619D02*
X124650580Y-105559523D01*
X124650580Y-105559523D02*
X124574390Y-105521428D01*
X124574390Y-105521428D02*
X124498200Y-105445238D01*
X124498200Y-105445238D02*
X124460104Y-105330952D01*
X124460104Y-105330952D02*
X124460104Y-105140476D01*
X125183914Y-105902380D02*
X125222009Y-105940476D01*
X125222009Y-105940476D02*
X125260104Y-106016666D01*
X125260104Y-106016666D02*
X125260104Y-106207142D01*
X125260104Y-106207142D02*
X125222009Y-106283333D01*
X125222009Y-106283333D02*
X125183914Y-106321428D01*
X125183914Y-106321428D02*
X125107723Y-106359523D01*
X125107723Y-106359523D02*
X125031533Y-106359523D01*
X125031533Y-106359523D02*
X124917247Y-106321428D01*
X124917247Y-106321428D02*
X124460104Y-105864285D01*
X124460104Y-105864285D02*
X124460104Y-106359523D01*
%TO.C,U9*%
D11*
X109515000Y-93490000D02*
X111335000Y-93490000D01*
X109515000Y-93540000D02*
X109515000Y-93490000D01*
X109515000Y-96610000D02*
X109515000Y-96560000D01*
X111335000Y-93490000D02*
X111335000Y-93540000D01*
X111335000Y-96560000D02*
X111335000Y-96610000D01*
X111335000Y-96610000D02*
X109515000Y-96610000D01*
X108975000Y-93540000D02*
X108735000Y-93210000D01*
X109215000Y-93210000D01*
X108975000Y-93540000D01*
G36*
X108975000Y-93540000D02*
G01*
X108735000Y-93210000D01*
X109215000Y-93210000D01*
X108975000Y-93540000D01*
G37*
%TO.C,C5*%
X107261253Y-107065000D02*
X106738747Y-107065000D01*
X107261253Y-108535000D02*
X106738747Y-108535000D01*
%TO.C,J4*%
X119200000Y-86350000D02*
X119200000Y-87600000D01*
X119500000Y-88900000D02*
X120250000Y-88900000D01*
X120250000Y-88900000D02*
X120250000Y-90240000D01*
X120450000Y-86350000D02*
X119200000Y-86350000D01*
X125800000Y-91850000D02*
X121310000Y-91850000D01*
X131350000Y-88900001D02*
X131350000Y-91850000D01*
X131350000Y-91850000D02*
X125800000Y-91850000D01*
X132100000Y-88900000D02*
X131350000Y-88900001D01*
X119490000Y-86640000D02*
X132110000Y-86640000D01*
X132110000Y-92610000D01*
X119490000Y-92610000D01*
X119490000Y-86640000D01*
X119500000Y-86650000D02*
X121300000Y-86649999D01*
X121299999Y-87400000D01*
X119500000Y-87400000D01*
X119500000Y-86650000D01*
X122800000Y-86649999D02*
X128800000Y-86650000D01*
X128800000Y-87400000D01*
X122800001Y-87400000D01*
X122800000Y-86649999D01*
X130300000Y-86649999D02*
X132100000Y-86650000D01*
X132100000Y-87400000D01*
X130299999Y-87400000D01*
X130300000Y-86649999D01*
%TO.C,U5*%
X97515000Y-104155000D02*
X98985000Y-104155000D01*
X97515000Y-104180001D02*
X97515000Y-104155000D01*
X97515000Y-106375000D02*
X97515000Y-106349999D01*
X98985000Y-104155000D02*
X98985000Y-104180001D01*
X98985000Y-106349999D02*
X98985000Y-106375000D01*
X98985000Y-106375000D02*
X97515000Y-106375000D01*
X99430000Y-106354999D02*
X99570000Y-106545000D01*
X99290000Y-106545000D01*
X99430000Y-106354999D01*
G36*
X99570000Y-106545000D02*
G01*
X99290000Y-106545000D01*
X99430000Y-106354999D01*
X99570000Y-106545000D01*
G37*
%TO.C,J5*%
X67600000Y-86350000D02*
X67600000Y-87600000D01*
X67900000Y-88900000D02*
X68650000Y-88900000D01*
X68650000Y-88900000D02*
X68650000Y-90240000D01*
X68850000Y-86350000D02*
X67600000Y-86350000D01*
X74200000Y-91850000D02*
X69710000Y-91850000D01*
X79750000Y-88900001D02*
X79750000Y-91850000D01*
X79750000Y-91850000D02*
X74200000Y-91850000D01*
X80500000Y-88900000D02*
X79750000Y-88900001D01*
X67890000Y-86640000D02*
X80510000Y-86640000D01*
X80510000Y-92610000D01*
X67890000Y-92610000D01*
X67890000Y-86640000D01*
X67900000Y-86650000D02*
X69700000Y-86649999D01*
X69699999Y-87400000D01*
X67900000Y-87400000D01*
X67900000Y-86650000D01*
X71200000Y-86649999D02*
X77200000Y-86650000D01*
X77200000Y-87400000D01*
X71200001Y-87400000D01*
X71200000Y-86649999D01*
X78700000Y-86649999D02*
X80500000Y-86650000D01*
X80500000Y-87400000D01*
X78699999Y-87400000D01*
X78700000Y-86649999D01*
%TO.C,C25*%
X107040581Y-96215000D02*
X106759419Y-96215000D01*
X107040581Y-97235000D02*
X106759419Y-97235000D01*
%TO.C,R4*%
X93037770Y-104148303D02*
X93373303Y-103812770D01*
X93776697Y-104887230D02*
X94112230Y-104551697D01*
%TO.C,C20*%
X79595543Y-94590010D02*
X79965010Y-94220543D01*
X80634990Y-95629457D02*
X81004457Y-95259990D01*
%TO.C,J7*%
X109500000Y-111099999D02*
X110250000Y-111099999D01*
X110250000Y-108150000D02*
X120800000Y-108150000D01*
X110250000Y-111099999D02*
X110250000Y-108150000D01*
X120800000Y-108150000D02*
X130290000Y-108150000D01*
X131150000Y-113650000D02*
X132400000Y-113650000D01*
X131350000Y-111100000D02*
X131350000Y-109760000D01*
X132100000Y-111100000D02*
X131350000Y-111100000D01*
X132400000Y-113650000D02*
X132400000Y-112400000D01*
X111300000Y-113350000D02*
X109500000Y-113350001D01*
X109500001Y-112600000D01*
X111300000Y-112600000D01*
X111300000Y-113350000D01*
X128800000Y-113350001D02*
X112800000Y-113350000D01*
X112800000Y-112600000D01*
X128799999Y-112600000D01*
X128800000Y-113350001D01*
X132100000Y-113350000D02*
X130300000Y-113350001D01*
X130300001Y-112600000D01*
X132100000Y-112600000D01*
X132100000Y-113350000D01*
X132110000Y-113360000D02*
X109490000Y-113360000D01*
X109490000Y-107390000D01*
X132110000Y-107390000D01*
X132110000Y-113360000D01*
%TO.C,U2*%
X107000000Y-99764999D02*
X110760000Y-99765000D01*
X107000000Y-106585001D02*
X110760000Y-106585000D01*
X110760000Y-99765000D02*
X110760000Y-101024999D01*
X110760000Y-106585000D02*
X110760000Y-105325001D01*
X105720000Y-99865000D02*
X105480000Y-99535000D01*
X105960000Y-99535000D01*
X105720000Y-99865000D01*
G36*
X105720000Y-99865000D02*
G01*
X105480000Y-99535000D01*
X105960000Y-99535000D01*
X105720000Y-99865000D01*
G37*
%TO.C,C14*%
X99559419Y-94946249D02*
X99840581Y-94946249D01*
X99559419Y-95966249D02*
X99840581Y-95966249D01*
%TO.C,C11*%
X96140000Y-98609419D02*
X96140000Y-98890581D01*
X97160000Y-98609419D02*
X97160000Y-98890581D01*
%TO.C,FB1*%
X99537220Y-93471249D02*
X99862780Y-93471249D01*
X99537220Y-94491249D02*
X99862780Y-94491249D01*
%TO.C,C27*%
X129988747Y-104990000D02*
X130511253Y-104990000D01*
X129988747Y-106460000D02*
X130511253Y-106460000D01*
%TO.C,C8*%
X83738781Y-91414970D02*
X83539970Y-91613781D01*
X84460030Y-92136219D02*
X84261219Y-92335030D01*
%TO.C,C17*%
X123234420Y-93540000D02*
X123515580Y-93540000D01*
X123234420Y-94560000D02*
X123515580Y-94560000D01*
%TO.C,D4*%
X102715000Y-93340000D02*
X104235000Y-93340000D01*
X102715000Y-93390000D02*
X102715000Y-93340000D01*
X102715000Y-95290000D02*
X102715000Y-94510000D01*
X102715000Y-96460000D02*
X102715000Y-96410000D01*
X104235000Y-93340000D02*
X104235000Y-94340000D01*
X104235000Y-95460000D02*
X104235000Y-96460000D01*
X104235000Y-96460000D02*
X102715000Y-96460000D01*
X102175000Y-94520000D02*
X102415000Y-94850000D01*
X101935000Y-94850000D01*
X102175000Y-94520000D01*
G36*
X102415000Y-94850000D02*
G01*
X101935000Y-94850000D01*
X102175000Y-94520000D01*
X102415000Y-94850000D01*
G37*
%TO.C,U4*%
X90290000Y-107707501D02*
X94410000Y-107707501D01*
X90290000Y-107802500D02*
X90290000Y-107707501D01*
X90290000Y-112827499D02*
X90290000Y-112732500D01*
X94410000Y-107707501D02*
X94410000Y-107802500D01*
X94410000Y-112732500D02*
X94410000Y-112827499D01*
X94410000Y-112827499D02*
X90290000Y-112827499D01*
X89750000Y-107797500D02*
X89510000Y-107467500D01*
X89990000Y-107467500D01*
X89750000Y-107797500D01*
G36*
X89750000Y-107797500D02*
G01*
X89510000Y-107467500D01*
X89990000Y-107467500D01*
X89750000Y-107797500D01*
G37*
%TO.C,C7*%
X101659419Y-102090000D02*
X101940581Y-102090000D01*
X101659419Y-103110000D02*
X101940581Y-103110000D01*
%TO.C,R9*%
X106662742Y-93227501D02*
X107137258Y-93227501D01*
X106662742Y-94272501D02*
X107137258Y-94272501D01*
%TO.C,R19*%
X107337258Y-110427500D02*
X106862742Y-110427500D01*
X107337258Y-111472500D02*
X106862742Y-111472500D01*
%TO.C,R21*%
X85762742Y-88652500D02*
X86237258Y-88652500D01*
X85762742Y-89697500D02*
X86237258Y-89697500D01*
%TO.C,D3*%
X70040000Y-94190000D02*
X70090000Y-94190000D01*
X70040000Y-95710000D02*
X70040000Y-94190000D01*
X71040000Y-95710000D02*
X70040000Y-95710000D01*
X71210000Y-94190000D02*
X71990000Y-94190000D01*
X73110000Y-94190000D02*
X73160000Y-94190000D01*
X73160000Y-94190000D02*
X73160000Y-95710000D01*
X73160000Y-95710000D02*
X72160000Y-95710000D01*
X71980000Y-93650000D02*
X71650000Y-93890000D01*
X71650000Y-93410000D01*
X71980000Y-93650000D01*
G36*
X71980000Y-93650000D02*
G01*
X71650000Y-93890000D01*
X71650000Y-93410000D01*
X71980000Y-93650000D01*
G37*
%TO.C,Y1*%
X99765000Y-98390000D02*
X99765000Y-101810000D01*
X99765000Y-101810000D02*
X103885000Y-101810000D01*
%TO.C,SW3*%
X113675000Y-98785000D02*
X115715001Y-98785000D01*
X115715000Y-97835000D02*
X115715001Y-98785000D01*
X115715000Y-97835000D02*
X122035000Y-97835000D01*
X115715000Y-106515000D02*
X115715000Y-104775000D01*
X115715000Y-106515000D02*
X122035000Y-106515000D01*
X122035000Y-97835000D02*
X122035000Y-99575000D01*
X122035000Y-106515000D02*
X122035000Y-104775000D01*
%TO.C,D6*%
X106300000Y-113235000D02*
X108585000Y-113235000D01*
X108585000Y-111765000D02*
X106300000Y-111765000D01*
X108585000Y-113235000D02*
X108585000Y-111765000D01*
%TO.C,D10*%
X81190000Y-86965000D02*
X81190000Y-88435000D01*
X81190000Y-88435000D02*
X83475000Y-88435000D01*
X83475000Y-86965000D02*
X81190000Y-86965000D01*
%TO.C,J8*%
X107365000Y-89860000D02*
X107365000Y-91460000D01*
X107365000Y-91460000D02*
X109165000Y-91460000D01*
X108635000Y-86990000D02*
X117065000Y-86990000D01*
X109165000Y-91460000D02*
X109165000Y-92399999D01*
X118335000Y-89860000D02*
X118335000Y-91460000D01*
X118335000Y-91460000D02*
X116535000Y-91460000D01*
%TO.C,J1*%
X98365000Y-108840000D02*
X100165000Y-108840000D01*
X98365000Y-110290000D02*
X98365000Y-108840000D01*
X99635000Y-113110000D02*
X103065000Y-113110000D01*
X100165000Y-108840000D02*
X100165000Y-107850000D01*
X104335000Y-108840000D02*
X102535000Y-108840000D01*
X104335000Y-110290000D02*
X104335000Y-108840000D01*
%TO.C,C28*%
X126659419Y-105290000D02*
X126940581Y-105290000D01*
X126659419Y-106310000D02*
X126940581Y-106310000D01*
%TO.C,C12*%
X79190000Y-98534419D02*
X79190000Y-98815581D01*
X80210000Y-98534419D02*
X80210000Y-98815581D01*
%TO.C,D8*%
X87740000Y-86990000D02*
X87740000Y-88460000D01*
X87740000Y-88460000D02*
X90025000Y-88460000D01*
X90025000Y-86990000D02*
X87740000Y-86990000D01*
%TO.C,C10*%
X109913747Y-97840000D02*
X110436253Y-97840000D01*
X109913747Y-99310000D02*
X110436253Y-99310000D01*
%TO.C,R7*%
X75487742Y-93377500D02*
X75962258Y-93377500D01*
X75487742Y-94422500D02*
X75962258Y-94422500D01*
%TO.C,R22*%
X82437742Y-88652500D02*
X82912258Y-88652500D01*
X82437742Y-89697500D02*
X82912258Y-89697500D01*
%TO.C,U1*%
X80973369Y-98700000D02*
X81645120Y-98028249D01*
X81645120Y-99371751D02*
X80973369Y-98700000D01*
X87528249Y-92145120D02*
X88200000Y-91473369D01*
X88200000Y-91473369D02*
X88871751Y-92145120D01*
X88200000Y-105926631D02*
X87528249Y-105254880D01*
X88871751Y-105254880D02*
X88200000Y-105926631D01*
X94754880Y-98028249D02*
X95426631Y-98700000D01*
X95426631Y-98700000D02*
X94754880Y-99371751D01*
X95207428Y-97575700D02*
X95780185Y-97667624D01*
X95299352Y-98148457D01*
X95207428Y-97575700D01*
G36*
X95780185Y-97667624D02*
G01*
X95299352Y-98148457D01*
X95207428Y-97575700D01*
X95780185Y-97667624D01*
G37*
%TO.C,C6*%
X98465000Y-100034419D02*
X98465000Y-100315581D01*
X99485000Y-100034419D02*
X99485000Y-100315581D01*
%TO.C,R3*%
X102062258Y-97102500D02*
X101587742Y-97102500D01*
X102062258Y-98147500D02*
X101587742Y-98147500D01*
%TO.C,R2*%
X126737258Y-95402500D02*
X126262742Y-95402500D01*
X126737258Y-96447500D02*
X126262742Y-96447500D01*
%TO.C,C13*%
X88234419Y-106565000D02*
X88515581Y-106565000D01*
X88234419Y-107585000D02*
X88515581Y-107585000D01*
%TO.C,R20*%
X88987742Y-88702500D02*
X89462258Y-88702500D01*
X88987742Y-89747500D02*
X89462258Y-89747500D01*
%TO.C,C23*%
X75840000Y-98590581D02*
X75840000Y-98309419D01*
X76860000Y-98590581D02*
X76860000Y-98309419D01*
%TO.C,C19*%
X96390000Y-110215581D02*
X96390000Y-109934419D01*
X97410000Y-110215581D02*
X97410000Y-109934419D01*
%TO.C,R6*%
X75462742Y-95077500D02*
X75937258Y-95077500D01*
X75462742Y-96122500D02*
X75937258Y-96122500D01*
%TO.C,D1*%
X72815000Y-103965000D02*
X74335000Y-103965000D01*
X72815000Y-104015000D02*
X72815000Y-103965000D01*
X72815000Y-105915000D02*
X72815000Y-105135000D01*
X72815000Y-107085000D02*
X72815000Y-107035000D01*
X74335000Y-103965000D02*
X74335000Y-104965000D01*
X74335000Y-106085000D02*
X74335000Y-107085000D01*
X74335000Y-107085000D02*
X72815000Y-107085000D01*
X72275000Y-105145000D02*
X72515000Y-105475000D01*
X72035000Y-105475000D01*
X72275000Y-105145000D01*
G36*
X72515000Y-105475000D02*
G01*
X72035000Y-105475000D01*
X72275000Y-105145000D01*
X72515000Y-105475000D01*
G37*
%TO.C,C16*%
X96559419Y-93471249D02*
X96840581Y-93471249D01*
X96559419Y-94491249D02*
X96840581Y-94491249D01*
%TO.C,D2*%
X129265000Y-93415000D02*
X130785000Y-93415000D01*
X129265000Y-93465000D02*
X129265000Y-93415000D01*
X129265000Y-95365000D02*
X129265000Y-94585000D01*
X129265000Y-96535000D02*
X129265000Y-96485000D01*
X130785000Y-93415000D02*
X130785000Y-94415000D01*
X130785000Y-95535000D02*
X130785000Y-96535000D01*
X130785000Y-96535000D02*
X129265000Y-96535000D01*
X128725000Y-94595000D02*
X128965000Y-94925000D01*
X128485000Y-94925000D01*
X128725000Y-94595000D01*
G36*
X128965000Y-94925000D02*
G01*
X128485000Y-94925000D01*
X128725000Y-94595000D01*
X128965000Y-94925000D01*
G37*
%TO.C,J6*%
X93075000Y-86350000D02*
X93075000Y-87600000D01*
X93375000Y-88900000D02*
X94125000Y-88900000D01*
X94125000Y-88900000D02*
X94125000Y-90240000D01*
X94325000Y-86350000D02*
X93075000Y-86350000D01*
X99675000Y-91850000D02*
X95185000Y-91850000D01*
X105225000Y-88900001D02*
X105225000Y-91850000D01*
X105225000Y-91850000D02*
X99675000Y-91850000D01*
X105975000Y-88900000D02*
X105225000Y-88900001D01*
X93365000Y-86640000D02*
X105985000Y-86640000D01*
X105985000Y-92610000D01*
X93365000Y-92610000D01*
X93365000Y-86640000D01*
X93375000Y-86650000D02*
X95175000Y-86649999D01*
X95174999Y-87400000D01*
X93375000Y-87400000D01*
X93375000Y-86650000D01*
X96675000Y-86649999D02*
X102675000Y-86650000D01*
X102675000Y-87400000D01*
X96675001Y-87400000D01*
X96675000Y-86649999D01*
X104175000Y-86649999D02*
X105975000Y-86650000D01*
X105975000Y-87400000D01*
X104174999Y-87400000D01*
X104175000Y-86649999D01*
%TO.C,D9*%
X84515000Y-86965000D02*
X84515000Y-88435000D01*
X84515000Y-88435000D02*
X86800000Y-88435000D01*
X86800000Y-86965000D02*
X84515000Y-86965000D01*
%TO.C,U3*%
X118665000Y-93415000D02*
X120485000Y-93415000D01*
X118665000Y-93465000D02*
X118665000Y-93415000D01*
X118665000Y-96535000D02*
X118665000Y-96485000D01*
X120485000Y-93415000D02*
X120485000Y-93465000D01*
X120485000Y-96485000D02*
X120485000Y-96535000D01*
X120485000Y-96535000D02*
X118665000Y-96535000D01*
X121025000Y-96485000D02*
X121265000Y-96815000D01*
X120785000Y-96815000D01*
X121025000Y-96485000D01*
G36*
X121265000Y-96815000D02*
G01*
X120785000Y-96815000D01*
X121025000Y-96485000D01*
X121265000Y-96815000D01*
G37*
%TO.C,C22*%
X96559419Y-94946249D02*
X96840581Y-94946249D01*
X96559419Y-95966249D02*
X96840581Y-95966249D01*
%TO.C,C4*%
X112140000Y-98215581D02*
X112140000Y-97934419D01*
X113160000Y-98215581D02*
X113160000Y-97934419D01*
%TO.C,R8*%
X106662742Y-97677500D02*
X107137258Y-97677500D01*
X106662742Y-98722500D02*
X107137258Y-98722500D01*
%TO.C,C21*%
X82765010Y-105554457D02*
X82395543Y-105184990D01*
X83804457Y-104515010D02*
X83434990Y-104145543D01*
%TO.C,C26*%
X107040581Y-94740000D02*
X106759419Y-94740000D01*
X107040581Y-95760000D02*
X106759419Y-95760000D01*
%TO.C,C9*%
X95413781Y-101789970D02*
X95214970Y-101988781D01*
X96135030Y-102511219D02*
X95936219Y-102710030D01*
%TO.C,C24*%
X77515000Y-98565581D02*
X77515000Y-98284419D01*
X78535000Y-98565581D02*
X78535000Y-98284419D01*
%TO.C,C3*%
X102015000Y-105263747D02*
X102015000Y-105786253D01*
X103485000Y-105263747D02*
X103485000Y-105786253D01*
%TO.C,C18*%
X87315000Y-110740581D02*
X87315000Y-110459419D01*
X88335000Y-110740581D02*
X88335000Y-110459419D01*
%TO.C,R5*%
X126737258Y-93527500D02*
X126262742Y-93527500D01*
X126737258Y-94572500D02*
X126262742Y-94572500D01*
%TO.C,J2*%
X68090000Y-108765000D02*
X69890000Y-108765000D01*
X68090000Y-110215000D02*
X68090000Y-108765000D01*
X69360000Y-113035000D02*
X74040000Y-113035000D01*
X69890000Y-108765000D02*
X69890000Y-107775000D01*
X75310000Y-108765000D02*
X73510000Y-108765000D01*
X75310000Y-110215000D02*
X75310000Y-108765000D01*
%TO.C,R1*%
X80087742Y-105552500D02*
X80562258Y-105552500D01*
X80087742Y-106597500D02*
X80562258Y-106597500D01*
%TO.C,C1*%
X98361253Y-106640000D02*
X97838747Y-106640000D01*
X98361253Y-108110000D02*
X97838747Y-108110000D01*
%TO.C,C2*%
X100315000Y-105384419D02*
X100315000Y-105665581D01*
X101335000Y-105384419D02*
X101335000Y-105665581D01*
%TO.C,U7*%
X76790000Y-100815000D02*
X78610000Y-100815000D01*
X76790000Y-100865000D02*
X76790000Y-100815000D01*
X76790000Y-103935000D02*
X76790000Y-103885000D01*
X78610000Y-100815000D02*
X78610000Y-100865000D01*
X78610000Y-103885000D02*
X78610000Y-103935000D01*
X78610000Y-103935000D02*
X76790000Y-103935000D01*
X76250000Y-100865000D02*
X76010000Y-100535000D01*
X76490000Y-100535000D01*
X76250000Y-100865000D01*
G36*
X76250000Y-100865000D02*
G01*
X76010000Y-100535000D01*
X76490000Y-100535000D01*
X76250000Y-100865000D01*
G37*
%TO.C,C15*%
X123234419Y-95415000D02*
X123515581Y-95415000D01*
X123234419Y-96435000D02*
X123515581Y-96435000D01*
%TD*%
M02*
