M48
; DRILL file KiCad 10.0.4 date 2026-07-29T13:13:46
; FORMAT={-:-/ absolute / metric / decimal}
; #@! TF.CreationDate,2026-07-29T13:13:46+09:00
; #@! TF.GenerationSoftware,Kicad,Pcbnew,10.0.4
; #@! TF.FileFunction,Plated,1,4,PTH
FMAT,2
METRIC
; #@! TA.AperFunction,Plated,PTH,ViaDrill
T1C0.300
; #@! TA.AperFunction,Plated,PTH,ComponentDrill
T2C0.950
%
G90
G05
T1
X72.325Y-96.15
X74.05Y-109.25
X75.875Y-105.6
X76.45Y-96.675
X78.025Y-96.65
X78.925Y-100.275
X80.075Y-101.425
X80.1Y-103.325
X80.275Y-96.8
X81.15Y-88.225
X81.225Y-103.75
X81.35Y-93.325
X83.225Y-93.55
X84.162Y-98.212
X84.175Y-99.3
X84.352Y-88.226
X85.175Y-90.55
X85.35Y-101.425
X85.825Y-100.8
X85.975Y-94.675
X86.0Y-95.525
X86.194Y-103.111
X86.33Y-90.67
X86.425Y-100.15
X86.887Y-103.205
X87.125Y-108.925
X87.35Y-91.25
X87.661Y-88.262
X87.8Y-103.125
X88.15Y-104.575
X88.3Y-112.425
X88.363Y-108.362
X88.42Y-106.299
X88.738Y-110.355
X89.275Y-103.125
X90.025Y-107.075
X90.05Y-94.375
X90.15Y-103.125
X90.676Y-90.826
X90.839Y-106.9
X91.5Y-109.575
X91.575Y-101.025
X91.65Y-106.9
X91.775Y-91.975
X91.8Y-91.25
X92.275Y-105.725
X92.282Y-100.944
X93.225Y-108.225
X95.754Y-103.471
X95.9Y-107.075
X96.425Y-108.35
X96.862Y-103.125
X97.7Y-97.9
X97.725Y-99.55
X97.875Y-109.025
X97.9Y-100.825
X98.139Y-94.725
X99.703Y-94.725
X101.213Y-96.225
X101.313Y-95.175
X101.425Y-107.15
X101.751Y-98.335
X102.85Y-107.75
X103.675Y-103.125
X103.95Y-106.975
X104.025Y-100.1
X104.7Y-95.775
X105.175Y-99.475
X105.9Y-109.325
X106.975Y-99.7
X107.15Y-105.65
X108.2Y-92.45
X109.1Y-110.35
X109.475Y-100.775
X110.15Y-97.425
X110.6Y-94.125
X112.8Y-96.0
X113.725Y-97.175
X114.725Y-90.375
X114.975Y-94.675
X115.925Y-101.15
X115.975Y-89.675
X116.025Y-103.125
X116.175Y-102.125
X117.15Y-94.025
X117.175Y-95.9
X117.775Y-106.325
X118.325Y-105.1
X124.809Y-95.425
X124.826Y-94.597
X125.175Y-103.875
X126.6Y-104.65
X128.275Y-104.0
X130.3Y-104.425
X130.95Y-96.05
T2
X70.45Y-89.1
X72.95Y-89.1
X75.45Y-89.1
X77.95Y-89.1
X95.925Y-89.1
X98.425Y-89.1
X100.925Y-89.1
X103.425Y-89.1
X112.05Y-110.9
X114.55Y-110.9
X117.05Y-110.9
X119.55Y-110.9
X122.05Y-89.1
X122.05Y-110.9
X124.55Y-89.1
X124.55Y-110.9
X127.05Y-89.1
X127.05Y-110.9
X129.55Y-89.1
X129.55Y-110.9
M30
