%TF.GenerationSoftware,KiCad,Pcbnew,10.0.4*%
%TF.CreationDate,2026-07-29T13:13:46+09:00*%
%TF.ProjectId,Oddom board,4f64646f-6d20-4626-9f61-72642e6b6963,rev?*%
%TF.SameCoordinates,Original*%
%TF.FileFunction,Soldermask,Top*%
%TF.FilePolarity,Negative*%
%FSLAX46Y46*%
G04 Gerber Fmt 4.6, Leading zero omitted, Abs format (unit mm)*
G04 Created by KiCad (PCBNEW 10.0.4) date 2026-07-29 13:13:46*
%MOMM*%
%LPD*%
G01*
G04 APERTURE LIST*
G04 Aperture macros list*
%AMRoundRect*
0 Rectangle with rounded corners*
0 $1 Rounding radius*
0 $2 $3 $4 $5 $6 $7 $8 $9 X,Y pos of 4 corners*
0 Add a 4 corners polygon primitive as box body*
4,1,4,$2,$3,$4,$5,$6,$7,$8,$9,$2,$3,0*
0 Add four circle primitives for the rounded corners*
1,1,$1+$1,$2,$3*
1,1,$1+$1,$4,$5*
1,1,$1+$1,$6,$7*
1,1,$1+$1,$8,$9*
0 Add four rect primitives between the rounded corners*
20,1,$1+$1,$2,$3,$4,$5,0*
20,1,$1+$1,$4,$5,$6,$7,0*
20,1,$1+$1,$6,$7,$8,$9,0*
20,1,$1+$1,$8,$9,$2,$3,0*%
G04 Aperture macros list end*
%ADD10RoundRect,0.150000X-0.512500X-0.150000X0.512500X-0.150000X0.512500X0.150000X-0.512500X0.150000X0*%
%ADD11RoundRect,0.250000X0.250000X0.475000X-0.250000X0.475000X-0.250000X-0.475000X0.250000X-0.475000X0*%
%ADD12C,1.200000*%
%ADD13RoundRect,0.250000X-0.600000X-0.725000X0.600000X-0.725000X0.600000X0.725000X-0.600000X0.725000X0*%
%ADD14O,1.700000X1.950000*%
%ADD15RoundRect,0.087500X0.425000X0.087500X-0.425000X0.087500X-0.425000X-0.087500X0.425000X-0.087500X0*%
%ADD16RoundRect,0.225000X0.225000X0.250000X-0.225000X0.250000X-0.225000X-0.250000X0.225000X-0.250000X0*%
%ADD17RoundRect,0.200000X0.053033X-0.335876X0.335876X-0.053033X-0.053033X0.335876X-0.335876X0.053033X0*%
%ADD18RoundRect,0.250000X0.159099X-0.512652X0.512652X-0.159099X-0.159099X0.512652X-0.512652X0.159099X0*%
%ADD19RoundRect,0.250000X0.600000X0.725000X-0.600000X0.725000X-0.600000X-0.725000X0.600000X-0.725000X0*%
%ADD20RoundRect,0.375000X-0.625000X-0.375000X0.625000X-0.375000X0.625000X0.375000X-0.625000X0.375000X0*%
%ADD21RoundRect,0.500000X-0.500000X-1.400000X0.500000X-1.400000X0.500000X1.400000X-0.500000X1.400000X0*%
%ADD22RoundRect,0.225000X-0.225000X-0.250000X0.225000X-0.250000X0.225000X0.250000X-0.225000X0.250000X0*%
%ADD23RoundRect,0.225000X-0.250000X0.225000X-0.250000X-0.225000X0.250000X-0.225000X0.250000X0.225000X0*%
%ADD24RoundRect,0.218750X-0.218750X-0.256250X0.218750X-0.256250X0.218750X0.256250X-0.218750X0.256250X0*%
%ADD25RoundRect,0.250000X-0.250000X-0.475000X0.250000X-0.475000X0.250000X0.475000X-0.250000X0.475000X0*%
%ADD26RoundRect,0.225000X-0.017678X0.335876X-0.335876X0.017678X0.017678X-0.335876X0.335876X-0.017678X0*%
%ADD27RoundRect,0.150000X-0.587500X-0.150000X0.587500X-0.150000X0.587500X0.150000X-0.587500X0.150000X0*%
%ADD28RoundRect,0.150000X-0.825000X-0.150000X0.825000X-0.150000X0.825000X0.150000X-0.825000X0.150000X0*%
%ADD29RoundRect,0.200000X-0.200000X-0.275000X0.200000X-0.275000X0.200000X0.275000X-0.200000X0.275000X0*%
%ADD30RoundRect,0.200000X0.200000X0.275000X-0.200000X0.275000X-0.200000X-0.275000X0.200000X-0.275000X0*%
%ADD31C,2.700000*%
%ADD32RoundRect,0.150000X-0.150000X0.587500X-0.150000X-0.587500X0.150000X-0.587500X0.150000X0.587500X0*%
%ADD33RoundRect,0.250000X-0.450000X-0.350000X0.450000X-0.350000X0.450000X0.350000X-0.450000X0.350000X0*%
%ADD34RoundRect,0.250000X-0.500000X-0.300000X0.500000X-0.300000X0.500000X0.300000X-0.500000X0.300000X0*%
%ADD35RoundRect,0.218750X0.218750X0.256250X-0.218750X0.256250X-0.218750X-0.256250X0.218750X-0.256250X0*%
%ADD36RoundRect,0.150000X-0.150000X-0.700000X0.150000X-0.700000X0.150000X0.700000X-0.150000X0.700000X0*%
%ADD37RoundRect,0.250000X-0.250000X-1.150000X0.250000X-1.150000X0.250000X1.150000X-0.250000X1.150000X0*%
%ADD38RoundRect,0.250000X-0.250000X-1.100000X0.250000X-1.100000X0.250000X1.100000X-0.250000X1.100000X0*%
%ADD39RoundRect,0.075000X0.441942X0.548008X-0.548008X-0.441942X-0.441942X-0.548008X0.548008X0.441942X0*%
%ADD40RoundRect,0.075000X-0.441942X0.548008X-0.548008X0.441942X0.441942X-0.548008X0.548008X-0.441942X0*%
%ADD41RoundRect,0.225000X0.250000X-0.225000X0.250000X0.225000X-0.250000X0.225000X-0.250000X-0.225000X0*%
%ADD42C,0.900000*%
%ADD43R,1.200000X2.500000*%
%ADD44RoundRect,0.150000X0.512500X0.150000X-0.512500X0.150000X-0.512500X-0.150000X0.512500X-0.150000X0*%
%ADD45RoundRect,0.250000X0.512652X0.159099X0.159099X0.512652X-0.512652X-0.159099X-0.159099X-0.512652X0*%
%ADD46RoundRect,0.250000X-0.475000X0.250000X-0.475000X-0.250000X0.475000X-0.250000X0.475000X0.250000X0*%
G04 APERTURE END LIST*
D10*
%TO.C,U9*%
X109287500Y-94100001D03*
X109287500Y-95050000D03*
X109287500Y-95999999D03*
X111562500Y-95999999D03*
X111562500Y-95050000D03*
X111562500Y-94100001D03*
%TD*%
D11*
%TO.C,C5*%
X107949999Y-107800000D03*
X106050001Y-107800000D03*
%TD*%
D12*
%TO.C,J4*%
X120450000Y-91100000D03*
D13*
X122050000Y-89100000D03*
D14*
X124550000Y-89100000D03*
X127050000Y-89100000D03*
X129550000Y-89100000D03*
%TD*%
D15*
%TO.C,U5*%
X99087500Y-105914999D03*
X99087500Y-105265000D03*
X99087500Y-104615001D03*
X97412500Y-104615001D03*
X97412500Y-105265000D03*
X97412500Y-105914999D03*
%TD*%
D12*
%TO.C,J5*%
X68850000Y-91100000D03*
D13*
X70450000Y-89100000D03*
D14*
X72950000Y-89100000D03*
X75450000Y-89100000D03*
X77950000Y-89100000D03*
%TD*%
D16*
%TO.C,C25*%
X107675000Y-96725000D03*
X106125000Y-96725000D03*
%TD*%
D17*
%TO.C,R4*%
X92991637Y-104933363D03*
X94158363Y-103766637D03*
%TD*%
D18*
%TO.C,C20*%
X79628249Y-95596751D03*
X80971751Y-94253249D03*
%TD*%
D12*
%TO.C,J7*%
X131150000Y-108900000D03*
D19*
X129550000Y-110900000D03*
D14*
X127050000Y-110900000D03*
X124550000Y-110900000D03*
X122050000Y-110900000D03*
X119550000Y-110900000D03*
X117050000Y-110900000D03*
X114550000Y-110900000D03*
X112050000Y-110900000D03*
%TD*%
D20*
%TO.C,U2*%
X105700000Y-100875000D03*
X105700001Y-103175000D03*
D21*
X111999999Y-103175000D03*
D20*
X105700000Y-105475000D03*
%TD*%
D22*
%TO.C,C14*%
X98925000Y-95456249D03*
X100475000Y-95456249D03*
%TD*%
D23*
%TO.C,C11*%
X96650000Y-97975000D03*
X96650000Y-99525000D03*
%TD*%
D24*
%TO.C,FB1*%
X98912499Y-93981249D03*
X100487501Y-93981249D03*
%TD*%
D25*
%TO.C,C27*%
X129300001Y-105725000D03*
X131199999Y-105725000D03*
%TD*%
D26*
%TO.C,C8*%
X84548008Y-91326992D03*
X83451992Y-92423008D03*
%TD*%
D22*
%TO.C,C17*%
X122600000Y-94050000D03*
X124150000Y-94050000D03*
%TD*%
D27*
%TO.C,D4*%
X102537500Y-93950000D03*
X102537500Y-95850000D03*
X104412501Y-94900000D03*
%TD*%
D28*
%TO.C,U4*%
X89875000Y-108362500D03*
X89875000Y-109632500D03*
X89875000Y-110902500D03*
X89875000Y-112172500D03*
X94825000Y-112172500D03*
X94825000Y-110902500D03*
X94825000Y-109632500D03*
X94825000Y-108362500D03*
%TD*%
D22*
%TO.C,C7*%
X101025000Y-102600000D03*
X102575000Y-102600000D03*
%TD*%
D29*
%TO.C,R9*%
X106075000Y-93750001D03*
X107725000Y-93750001D03*
%TD*%
D30*
%TO.C,R19*%
X107925000Y-110950000D03*
X106275000Y-110950000D03*
%TD*%
D29*
%TO.C,R21*%
X85175000Y-89175000D03*
X86825000Y-89175000D03*
%TD*%
D31*
%TO.C,REF\u002A\u002A*%
X128500000Y-100000000D03*
%TD*%
D32*
%TO.C,D3*%
X72550000Y-94012500D03*
X70650000Y-94012500D03*
X71600000Y-95887501D03*
%TD*%
D33*
%TO.C,Y1*%
X100725000Y-100950000D03*
X102925000Y-100950000D03*
X102925000Y-99250000D03*
X100725000Y-99250000D03*
%TD*%
D34*
%TO.C,SW3*%
X114425000Y-99635000D03*
X114425000Y-102175000D03*
X114425000Y-104715000D03*
X123325000Y-104715000D03*
X123325000Y-102175000D03*
X123325000Y-99635000D03*
%TD*%
D35*
%TO.C,D6*%
X107887501Y-112500000D03*
X106312499Y-112500000D03*
%TD*%
D24*
%TO.C,D10*%
X81887499Y-87700000D03*
X83462501Y-87700000D03*
%TD*%
D36*
%TO.C,J8*%
X109725000Y-91550000D03*
X110975000Y-91550000D03*
X112225000Y-91550000D03*
X113475000Y-91550000D03*
X114725000Y-91550000D03*
X115975000Y-91550000D03*
D37*
X107875000Y-88200000D03*
X117825000Y-88200000D03*
%TD*%
D36*
%TO.C,J1*%
X100725000Y-108700000D03*
X101975000Y-108700000D03*
D38*
X98875000Y-111900000D03*
X103825000Y-111900000D03*
%TD*%
D22*
%TO.C,C28*%
X126025000Y-105800000D03*
X127575000Y-105800000D03*
%TD*%
D31*
%TO.C,REF\u002A\u002A*%
X71500000Y-100000000D03*
%TD*%
D23*
%TO.C,C12*%
X79700000Y-97900000D03*
X79700000Y-99450000D03*
%TD*%
D24*
%TO.C,D8*%
X88437499Y-87725000D03*
X90012501Y-87725000D03*
%TD*%
D25*
%TO.C,C10*%
X109225001Y-98575000D03*
X111124999Y-98575000D03*
%TD*%
D29*
%TO.C,R7*%
X74900000Y-93900000D03*
X76550000Y-93900000D03*
%TD*%
%TO.C,R22*%
X81850000Y-89175000D03*
X83500000Y-89175000D03*
%TD*%
D39*
%TO.C,U1*%
X94864481Y-97338819D03*
X94510928Y-96985266D03*
X94157375Y-96631713D03*
X93803821Y-96278159D03*
X93450268Y-95924606D03*
X93096714Y-95571052D03*
X92743161Y-95217499D03*
X92389608Y-94863946D03*
X92036054Y-94510392D03*
X91682501Y-94156839D03*
X91328948Y-93803286D03*
X90975394Y-93449732D03*
X90621841Y-93096179D03*
X90268287Y-92742625D03*
X89914734Y-92389072D03*
X89561181Y-92035519D03*
D40*
X86838819Y-92035519D03*
X86485266Y-92389072D03*
X86131713Y-92742625D03*
X85778159Y-93096179D03*
X85424606Y-93449732D03*
X85071052Y-93803286D03*
X84717499Y-94156839D03*
X84363946Y-94510392D03*
X84010392Y-94863946D03*
X83656839Y-95217499D03*
X83303286Y-95571052D03*
X82949732Y-95924606D03*
X82596179Y-96278159D03*
X82242625Y-96631713D03*
X81889072Y-96985266D03*
X81535519Y-97338819D03*
D39*
X81535519Y-100061181D03*
X81889072Y-100414734D03*
X82242625Y-100768287D03*
X82596179Y-101121841D03*
X82949732Y-101475394D03*
X83303286Y-101828948D03*
X83656839Y-102182501D03*
X84010392Y-102536054D03*
X84363946Y-102889608D03*
X84717499Y-103243161D03*
X85071052Y-103596714D03*
X85424606Y-103950268D03*
X85778159Y-104303821D03*
X86131713Y-104657375D03*
X86485266Y-105010928D03*
X86838819Y-105364481D03*
D40*
X89561181Y-105364481D03*
X89914734Y-105010928D03*
X90268287Y-104657375D03*
X90621841Y-104303821D03*
X90975394Y-103950268D03*
X91328948Y-103596714D03*
X91682501Y-103243161D03*
X92036054Y-102889608D03*
X92389608Y-102536054D03*
X92743161Y-102182501D03*
X93096714Y-101828948D03*
X93450268Y-101475394D03*
X93803821Y-101121841D03*
X94157375Y-100768287D03*
X94510928Y-100414734D03*
X94864481Y-100061181D03*
%TD*%
D23*
%TO.C,C6*%
X98975000Y-99400000D03*
X98975000Y-100950000D03*
%TD*%
D30*
%TO.C,R3*%
X102650000Y-97625000D03*
X101000000Y-97625000D03*
%TD*%
%TO.C,R2*%
X127325000Y-95925000D03*
X125675000Y-95925000D03*
%TD*%
D22*
%TO.C,C13*%
X87600000Y-107075000D03*
X89150000Y-107075000D03*
%TD*%
D29*
%TO.C,R20*%
X88400000Y-89225000D03*
X90050000Y-89225000D03*
%TD*%
D41*
%TO.C,C23*%
X76350000Y-99225000D03*
X76350000Y-97675000D03*
%TD*%
%TO.C,C19*%
X96900000Y-110850000D03*
X96900000Y-109300000D03*
%TD*%
D29*
%TO.C,R6*%
X74875000Y-95600000D03*
X76525000Y-95600000D03*
%TD*%
D27*
%TO.C,D1*%
X72637500Y-104575000D03*
X72637500Y-106475000D03*
X74512501Y-105525000D03*
%TD*%
D22*
%TO.C,C16*%
X95925000Y-93981249D03*
X97475000Y-93981249D03*
%TD*%
D42*
%TO.C,SW1*%
X77900000Y-111825000D03*
X84700000Y-111825000D03*
D43*
X78800000Y-109075000D03*
X81300000Y-109075000D03*
X83800000Y-109075000D03*
%TD*%
D27*
%TO.C,D2*%
X129087500Y-94025000D03*
X129087500Y-95925000D03*
X130962501Y-94975000D03*
%TD*%
D12*
%TO.C,J6*%
X94325000Y-91100000D03*
D13*
X95925000Y-89100000D03*
D14*
X98425000Y-89100000D03*
X100925000Y-89100000D03*
X103425000Y-89100000D03*
%TD*%
D24*
%TO.C,D9*%
X85212499Y-87700000D03*
X86787501Y-87700000D03*
%TD*%
D44*
%TO.C,U3*%
X120712500Y-95924999D03*
X120712500Y-94975000D03*
X120712500Y-94025001D03*
X118437500Y-94025001D03*
X118437500Y-94975000D03*
X118437500Y-95924999D03*
%TD*%
D22*
%TO.C,C22*%
X95925000Y-95456249D03*
X97475000Y-95456249D03*
%TD*%
D41*
%TO.C,C4*%
X112650000Y-98850000D03*
X112650000Y-97300000D03*
%TD*%
D29*
%TO.C,R8*%
X106075000Y-98200000D03*
X107725000Y-98200000D03*
%TD*%
D45*
%TO.C,C21*%
X83771751Y-105521751D03*
X82428249Y-104178249D03*
%TD*%
D16*
%TO.C,C26*%
X107675000Y-95250000D03*
X106125000Y-95250000D03*
%TD*%
D26*
%TO.C,C9*%
X96223008Y-101701992D03*
X95126992Y-102798008D03*
%TD*%
D41*
%TO.C,C24*%
X78025000Y-99200000D03*
X78025000Y-97650000D03*
%TD*%
D46*
%TO.C,C3*%
X102750000Y-104575001D03*
X102750000Y-106474999D03*
%TD*%
D41*
%TO.C,C18*%
X87825000Y-111375000D03*
X87825000Y-109825000D03*
%TD*%
D30*
%TO.C,R5*%
X127325000Y-94050000D03*
X125675000Y-94050000D03*
%TD*%
D36*
%TO.C,J2*%
X70450000Y-108625000D03*
X71700000Y-108625000D03*
X72950000Y-108625000D03*
D38*
X68600000Y-111825000D03*
X74800000Y-111825000D03*
%TD*%
D29*
%TO.C,R1*%
X79500000Y-106075000D03*
X81150000Y-106075000D03*
%TD*%
D11*
%TO.C,C1*%
X99049999Y-107375000D03*
X97150001Y-107375000D03*
%TD*%
D23*
%TO.C,C2*%
X100825000Y-104750000D03*
X100825000Y-106300000D03*
%TD*%
D10*
%TO.C,U7*%
X76562500Y-101425001D03*
X76562500Y-102375000D03*
X76562500Y-103324999D03*
X78837500Y-103324999D03*
X78837500Y-102375000D03*
X78837500Y-101425001D03*
%TD*%
D22*
%TO.C,C15*%
X122600000Y-95925000D03*
X124150000Y-95925000D03*
%TD*%
M02*
