%TF.GenerationSoftware,KiCad,Pcbnew,10.0.4*%
%TF.CreationDate,2026-07-25T00:49:19+09:00*%
%TF.ProjectId,unit-board,756e6974-2d62-46f6-9172-642e6b696361,rev?*%
%TF.SameCoordinates,Original*%
%TF.FileFunction,Legend,Bot*%
%TF.FilePolarity,Positive*%
%FSLAX46Y46*%
G04 Gerber Fmt 4.6, Leading zero omitted, Abs format (unit mm)*
G04 Created by KiCad (PCBNEW 10.0.4) date 2026-07-25 00:49:19*
%MOMM*%
%LPD*%
G01*
G04 APERTURE LIST*
%ADD10C,0.150000*%
%ADD11C,0.000000*%
%ADD12C,0.050000*%
G04 APERTURE END LIST*
D10*
X56764160Y-67829520D02*
X56764160Y-67029520D01*
X56764160Y-67029520D02*
X56954636Y-67029520D01*
X56954636Y-67029520D02*
X57068922Y-67067615D01*
X57068922Y-67067615D02*
X57145112Y-67143805D01*
X57145112Y-67143805D02*
X57183207Y-67219996D01*
X57183207Y-67219996D02*
X57221303Y-67372377D01*
X57221303Y-67372377D02*
X57221303Y-67486663D01*
X57221303Y-67486663D02*
X57183207Y-67639044D01*
X57183207Y-67639044D02*
X57145112Y-67715234D01*
X57145112Y-67715234D02*
X57068922Y-67791425D01*
X57068922Y-67791425D02*
X56954636Y-67829520D01*
X56954636Y-67829520D02*
X56764160Y-67829520D01*
X57564160Y-67829520D02*
X57564160Y-67029520D01*
X58211778Y-67410472D02*
X57945112Y-67410472D01*
X57945112Y-67829520D02*
X57945112Y-67029520D01*
X57945112Y-67029520D02*
X58326064Y-67029520D01*
X58897492Y-67410472D02*
X58630826Y-67410472D01*
X58630826Y-67829520D02*
X58630826Y-67029520D01*
X58630826Y-67029520D02*
X59011778Y-67029520D01*
X59316540Y-67410472D02*
X59583206Y-67410472D01*
X59697492Y-67829520D02*
X59316540Y-67829520D01*
X59316540Y-67829520D02*
X59316540Y-67029520D01*
X59316540Y-67029520D02*
X59697492Y-67029520D01*
X60497493Y-67829520D02*
X60230826Y-67448567D01*
X60040350Y-67829520D02*
X60040350Y-67029520D01*
X60040350Y-67029520D02*
X60345112Y-67029520D01*
X60345112Y-67029520D02*
X60421302Y-67067615D01*
X60421302Y-67067615D02*
X60459397Y-67105710D01*
X60459397Y-67105710D02*
X60497493Y-67181901D01*
X60497493Y-67181901D02*
X60497493Y-67296186D01*
X60497493Y-67296186D02*
X60459397Y-67372377D01*
X60459397Y-67372377D02*
X60421302Y-67410472D01*
X60421302Y-67410472D02*
X60345112Y-67448567D01*
X60345112Y-67448567D02*
X60040350Y-67448567D01*
X60840350Y-67410472D02*
X61107016Y-67410472D01*
X61221302Y-67829520D02*
X60840350Y-67829520D01*
X60840350Y-67829520D02*
X60840350Y-67029520D01*
X60840350Y-67029520D02*
X61221302Y-67029520D01*
X61564160Y-67829520D02*
X61564160Y-67029520D01*
X61564160Y-67029520D02*
X62021303Y-67829520D01*
X62021303Y-67829520D02*
X62021303Y-67029520D01*
X62287969Y-67029520D02*
X62745112Y-67029520D01*
X62516540Y-67829520D02*
X62516540Y-67029520D01*
X63011779Y-67829520D02*
X63011779Y-67029520D01*
X63354635Y-67600948D02*
X63735588Y-67600948D01*
X63278445Y-67829520D02*
X63545112Y-67029520D01*
X63545112Y-67029520D02*
X63811778Y-67829520D01*
X64459397Y-67829520D02*
X64078445Y-67829520D01*
X64078445Y-67829520D02*
X64078445Y-67029520D01*
X65297492Y-67791425D02*
X65411778Y-67829520D01*
X65411778Y-67829520D02*
X65602254Y-67829520D01*
X65602254Y-67829520D02*
X65678445Y-67791425D01*
X65678445Y-67791425D02*
X65716540Y-67753329D01*
X65716540Y-67753329D02*
X65754635Y-67677139D01*
X65754635Y-67677139D02*
X65754635Y-67600948D01*
X65754635Y-67600948D02*
X65716540Y-67524758D01*
X65716540Y-67524758D02*
X65678445Y-67486663D01*
X65678445Y-67486663D02*
X65602254Y-67448567D01*
X65602254Y-67448567D02*
X65449873Y-67410472D01*
X65449873Y-67410472D02*
X65373683Y-67372377D01*
X65373683Y-67372377D02*
X65335588Y-67334282D01*
X65335588Y-67334282D02*
X65297492Y-67258091D01*
X65297492Y-67258091D02*
X65297492Y-67181901D01*
X65297492Y-67181901D02*
X65335588Y-67105710D01*
X65335588Y-67105710D02*
X65373683Y-67067615D01*
X65373683Y-67067615D02*
X65449873Y-67029520D01*
X65449873Y-67029520D02*
X65640350Y-67029520D01*
X65640350Y-67029520D02*
X65754635Y-67067615D01*
X66021302Y-67029520D02*
X66211778Y-67829520D01*
X66211778Y-67829520D02*
X66364159Y-67258091D01*
X66364159Y-67258091D02*
X66516540Y-67829520D01*
X66516540Y-67829520D02*
X66707017Y-67029520D01*
X67011779Y-67410472D02*
X67278445Y-67410472D01*
X67392731Y-67829520D02*
X67011779Y-67829520D01*
X67011779Y-67829520D02*
X67011779Y-67029520D01*
X67011779Y-67029520D02*
X67392731Y-67029520D01*
X68192732Y-67829520D02*
X67926065Y-67448567D01*
X67735589Y-67829520D02*
X67735589Y-67029520D01*
X67735589Y-67029520D02*
X68040351Y-67029520D01*
X68040351Y-67029520D02*
X68116541Y-67067615D01*
X68116541Y-67067615D02*
X68154636Y-67105710D01*
X68154636Y-67105710D02*
X68192732Y-67181901D01*
X68192732Y-67181901D02*
X68192732Y-67296186D01*
X68192732Y-67296186D02*
X68154636Y-67372377D01*
X68154636Y-67372377D02*
X68116541Y-67410472D01*
X68116541Y-67410472D02*
X68040351Y-67448567D01*
X68040351Y-67448567D02*
X67735589Y-67448567D01*
X68421303Y-67029520D02*
X68687970Y-67829520D01*
X68687970Y-67829520D02*
X68954636Y-67029520D01*
X69221303Y-67410472D02*
X69487969Y-67410472D01*
X69602255Y-67829520D02*
X69221303Y-67829520D01*
X69221303Y-67829520D02*
X69221303Y-67029520D01*
X69221303Y-67029520D02*
X69602255Y-67029520D01*
X70554637Y-67029520D02*
X70554637Y-67677139D01*
X70554637Y-67677139D02*
X70592732Y-67753329D01*
X70592732Y-67753329D02*
X70630827Y-67791425D01*
X70630827Y-67791425D02*
X70707018Y-67829520D01*
X70707018Y-67829520D02*
X70859399Y-67829520D01*
X70859399Y-67829520D02*
X70935589Y-67791425D01*
X70935589Y-67791425D02*
X70973684Y-67753329D01*
X70973684Y-67753329D02*
X71011780Y-67677139D01*
X71011780Y-67677139D02*
X71011780Y-67029520D01*
X71392732Y-67829520D02*
X71392732Y-67029520D01*
X71392732Y-67029520D02*
X71849875Y-67829520D01*
X71849875Y-67829520D02*
X71849875Y-67029520D01*
X72230827Y-67829520D02*
X72230827Y-67029520D01*
X72497493Y-67029520D02*
X72954636Y-67029520D01*
X72726064Y-67829520D02*
X72726064Y-67029520D01*
X74287970Y-67753329D02*
X74249874Y-67791425D01*
X74249874Y-67791425D02*
X74135589Y-67829520D01*
X74135589Y-67829520D02*
X74059398Y-67829520D01*
X74059398Y-67829520D02*
X73945112Y-67791425D01*
X73945112Y-67791425D02*
X73868922Y-67715234D01*
X73868922Y-67715234D02*
X73830827Y-67639044D01*
X73830827Y-67639044D02*
X73792731Y-67486663D01*
X73792731Y-67486663D02*
X73792731Y-67372377D01*
X73792731Y-67372377D02*
X73830827Y-67219996D01*
X73830827Y-67219996D02*
X73868922Y-67143805D01*
X73868922Y-67143805D02*
X73945112Y-67067615D01*
X73945112Y-67067615D02*
X74059398Y-67029520D01*
X74059398Y-67029520D02*
X74135589Y-67029520D01*
X74135589Y-67029520D02*
X74249874Y-67067615D01*
X74249874Y-67067615D02*
X74287970Y-67105710D01*
X74783208Y-67029520D02*
X74935589Y-67029520D01*
X74935589Y-67029520D02*
X75011779Y-67067615D01*
X75011779Y-67067615D02*
X75087970Y-67143805D01*
X75087970Y-67143805D02*
X75126065Y-67296186D01*
X75126065Y-67296186D02*
X75126065Y-67562853D01*
X75126065Y-67562853D02*
X75087970Y-67715234D01*
X75087970Y-67715234D02*
X75011779Y-67791425D01*
X75011779Y-67791425D02*
X74935589Y-67829520D01*
X74935589Y-67829520D02*
X74783208Y-67829520D01*
X74783208Y-67829520D02*
X74707017Y-67791425D01*
X74707017Y-67791425D02*
X74630827Y-67715234D01*
X74630827Y-67715234D02*
X74592731Y-67562853D01*
X74592731Y-67562853D02*
X74592731Y-67296186D01*
X74592731Y-67296186D02*
X74630827Y-67143805D01*
X74630827Y-67143805D02*
X74707017Y-67067615D01*
X74707017Y-67067615D02*
X74783208Y-67029520D01*
X75468922Y-67829520D02*
X75468922Y-67029520D01*
X75468922Y-67029520D02*
X75926065Y-67829520D01*
X75926065Y-67829520D02*
X75926065Y-67029520D01*
X76192731Y-67029520D02*
X76649874Y-67029520D01*
X76421302Y-67829520D02*
X76421302Y-67029520D01*
X77373684Y-67829520D02*
X77107017Y-67448567D01*
X76916541Y-67829520D02*
X76916541Y-67029520D01*
X76916541Y-67029520D02*
X77221303Y-67029520D01*
X77221303Y-67029520D02*
X77297493Y-67067615D01*
X77297493Y-67067615D02*
X77335588Y-67105710D01*
X77335588Y-67105710D02*
X77373684Y-67181901D01*
X77373684Y-67181901D02*
X77373684Y-67296186D01*
X77373684Y-67296186D02*
X77335588Y-67372377D01*
X77335588Y-67372377D02*
X77297493Y-67410472D01*
X77297493Y-67410472D02*
X77221303Y-67448567D01*
X77221303Y-67448567D02*
X76916541Y-67448567D01*
X77868922Y-67029520D02*
X78021303Y-67029520D01*
X78021303Y-67029520D02*
X78097493Y-67067615D01*
X78097493Y-67067615D02*
X78173684Y-67143805D01*
X78173684Y-67143805D02*
X78211779Y-67296186D01*
X78211779Y-67296186D02*
X78211779Y-67562853D01*
X78211779Y-67562853D02*
X78173684Y-67715234D01*
X78173684Y-67715234D02*
X78097493Y-67791425D01*
X78097493Y-67791425D02*
X78021303Y-67829520D01*
X78021303Y-67829520D02*
X77868922Y-67829520D01*
X77868922Y-67829520D02*
X77792731Y-67791425D01*
X77792731Y-67791425D02*
X77716541Y-67715234D01*
X77716541Y-67715234D02*
X77678445Y-67562853D01*
X77678445Y-67562853D02*
X77678445Y-67296186D01*
X77678445Y-67296186D02*
X77716541Y-67143805D01*
X77716541Y-67143805D02*
X77792731Y-67067615D01*
X77792731Y-67067615D02*
X77868922Y-67029520D01*
X78935588Y-67829520D02*
X78554636Y-67829520D01*
X78554636Y-67829520D02*
X78554636Y-67029520D01*
X79583207Y-67829520D02*
X79202255Y-67829520D01*
X79202255Y-67829520D02*
X79202255Y-67029520D01*
X79849874Y-67410472D02*
X80116540Y-67410472D01*
X80230826Y-67829520D02*
X79849874Y-67829520D01*
X79849874Y-67829520D02*
X79849874Y-67029520D01*
X79849874Y-67029520D02*
X80230826Y-67029520D01*
X81030827Y-67829520D02*
X80764160Y-67448567D01*
X80573684Y-67829520D02*
X80573684Y-67029520D01*
X80573684Y-67029520D02*
X80878446Y-67029520D01*
X80878446Y-67029520D02*
X80954636Y-67067615D01*
X80954636Y-67067615D02*
X80992731Y-67105710D01*
X80992731Y-67105710D02*
X81030827Y-67181901D01*
X81030827Y-67181901D02*
X81030827Y-67296186D01*
X81030827Y-67296186D02*
X80992731Y-67372377D01*
X80992731Y-67372377D02*
X80954636Y-67410472D01*
X80954636Y-67410472D02*
X80878446Y-67448567D01*
X80878446Y-67448567D02*
X80573684Y-67448567D01*
X56726064Y-69079380D02*
X56840350Y-69117475D01*
X56840350Y-69117475D02*
X57030826Y-69117475D01*
X57030826Y-69117475D02*
X57107017Y-69079380D01*
X57107017Y-69079380D02*
X57145112Y-69041284D01*
X57145112Y-69041284D02*
X57183207Y-68965094D01*
X57183207Y-68965094D02*
X57183207Y-68888903D01*
X57183207Y-68888903D02*
X57145112Y-68812713D01*
X57145112Y-68812713D02*
X57107017Y-68774618D01*
X57107017Y-68774618D02*
X57030826Y-68736522D01*
X57030826Y-68736522D02*
X56878445Y-68698427D01*
X56878445Y-68698427D02*
X56802255Y-68660332D01*
X56802255Y-68660332D02*
X56764160Y-68622237D01*
X56764160Y-68622237D02*
X56726064Y-68546046D01*
X56726064Y-68546046D02*
X56726064Y-68469856D01*
X56726064Y-68469856D02*
X56764160Y-68393665D01*
X56764160Y-68393665D02*
X56802255Y-68355570D01*
X56802255Y-68355570D02*
X56878445Y-68317475D01*
X56878445Y-68317475D02*
X57068922Y-68317475D01*
X57068922Y-68317475D02*
X57183207Y-68355570D01*
X57411779Y-68317475D02*
X57868922Y-68317475D01*
X57640350Y-69117475D02*
X57640350Y-68317475D01*
X58135589Y-69117475D02*
X58135589Y-68317475D01*
X58135589Y-68317475D02*
X58402255Y-68888903D01*
X58402255Y-68888903D02*
X58668922Y-68317475D01*
X58668922Y-68317475D02*
X58668922Y-69117475D01*
X58973684Y-68317475D02*
X59468922Y-68317475D01*
X59468922Y-68317475D02*
X59202256Y-68622237D01*
X59202256Y-68622237D02*
X59316541Y-68622237D01*
X59316541Y-68622237D02*
X59392732Y-68660332D01*
X59392732Y-68660332D02*
X59430827Y-68698427D01*
X59430827Y-68698427D02*
X59468922Y-68774618D01*
X59468922Y-68774618D02*
X59468922Y-68965094D01*
X59468922Y-68965094D02*
X59430827Y-69041284D01*
X59430827Y-69041284D02*
X59392732Y-69079380D01*
X59392732Y-69079380D02*
X59316541Y-69117475D01*
X59316541Y-69117475D02*
X59087970Y-69117475D01*
X59087970Y-69117475D02*
X59011779Y-69079380D01*
X59011779Y-69079380D02*
X58973684Y-69041284D01*
X59773684Y-68393665D02*
X59811780Y-68355570D01*
X59811780Y-68355570D02*
X59887970Y-68317475D01*
X59887970Y-68317475D02*
X60078446Y-68317475D01*
X60078446Y-68317475D02*
X60154637Y-68355570D01*
X60154637Y-68355570D02*
X60192732Y-68393665D01*
X60192732Y-68393665D02*
X60230827Y-68469856D01*
X60230827Y-68469856D02*
X60230827Y-68546046D01*
X60230827Y-68546046D02*
X60192732Y-68660332D01*
X60192732Y-68660332D02*
X59735589Y-69117475D01*
X59735589Y-69117475D02*
X60230827Y-69117475D01*
X60992732Y-68355570D02*
X60916542Y-68317475D01*
X60916542Y-68317475D02*
X60802256Y-68317475D01*
X60802256Y-68317475D02*
X60687970Y-68355570D01*
X60687970Y-68355570D02*
X60611780Y-68431760D01*
X60611780Y-68431760D02*
X60573685Y-68507951D01*
X60573685Y-68507951D02*
X60535589Y-68660332D01*
X60535589Y-68660332D02*
X60535589Y-68774618D01*
X60535589Y-68774618D02*
X60573685Y-68926999D01*
X60573685Y-68926999D02*
X60611780Y-69003189D01*
X60611780Y-69003189D02*
X60687970Y-69079380D01*
X60687970Y-69079380D02*
X60802256Y-69117475D01*
X60802256Y-69117475D02*
X60878447Y-69117475D01*
X60878447Y-69117475D02*
X60992732Y-69079380D01*
X60992732Y-69079380D02*
X61030828Y-69041284D01*
X61030828Y-69041284D02*
X61030828Y-68774618D01*
X61030828Y-68774618D02*
X60878447Y-68774618D01*
X61716542Y-68584141D02*
X61716542Y-69117475D01*
X61526066Y-68279380D02*
X61335589Y-68850808D01*
X61335589Y-68850808D02*
X61830828Y-68850808D01*
X62059399Y-68317475D02*
X62592733Y-68317475D01*
X62592733Y-68317475D02*
X62249875Y-69117475D01*
X63240352Y-68584141D02*
X63240352Y-69117475D01*
X63049876Y-68279380D02*
X62859399Y-68850808D01*
X62859399Y-68850808D02*
X63354638Y-68850808D01*
X64497495Y-68736522D02*
X64497495Y-68888903D01*
X64535590Y-68888903D02*
X64535590Y-68736522D01*
X64573686Y-68698427D02*
X64573686Y-68926999D01*
X64611781Y-68888903D02*
X64611781Y-68736522D01*
X64649876Y-68736522D02*
X64649876Y-68888903D01*
X64497495Y-68850808D02*
X64573686Y-68926999D01*
X64573686Y-68926999D02*
X64649876Y-68850808D01*
X64497495Y-68774618D02*
X64573686Y-68698427D01*
X64573686Y-68698427D02*
X64649876Y-68774618D01*
X64497495Y-68736522D02*
X64573686Y-68698427D01*
X64573686Y-68698427D02*
X64649876Y-68736522D01*
X64649876Y-68736522D02*
X64687971Y-68812713D01*
X64687971Y-68812713D02*
X64649876Y-68888903D01*
X64649876Y-68888903D02*
X64573686Y-68926999D01*
X64573686Y-68926999D02*
X64497495Y-68888903D01*
X64497495Y-68888903D02*
X64459400Y-68812713D01*
X64459400Y-68812713D02*
X64497495Y-68736522D01*
X65868924Y-69117475D02*
X65868924Y-68317475D01*
X65868924Y-68317475D02*
X66059400Y-68317475D01*
X66059400Y-68317475D02*
X66173686Y-68355570D01*
X66173686Y-68355570D02*
X66249876Y-68431760D01*
X66249876Y-68431760D02*
X66287971Y-68507951D01*
X66287971Y-68507951D02*
X66326067Y-68660332D01*
X66326067Y-68660332D02*
X66326067Y-68774618D01*
X66326067Y-68774618D02*
X66287971Y-68926999D01*
X66287971Y-68926999D02*
X66249876Y-69003189D01*
X66249876Y-69003189D02*
X66173686Y-69079380D01*
X66173686Y-69079380D02*
X66059400Y-69117475D01*
X66059400Y-69117475D02*
X65868924Y-69117475D01*
X66668924Y-68317475D02*
X66668924Y-68965094D01*
X66668924Y-68965094D02*
X66707019Y-69041284D01*
X66707019Y-69041284D02*
X66745114Y-69079380D01*
X66745114Y-69079380D02*
X66821305Y-69117475D01*
X66821305Y-69117475D02*
X66973686Y-69117475D01*
X66973686Y-69117475D02*
X67049876Y-69079380D01*
X67049876Y-69079380D02*
X67087971Y-69041284D01*
X67087971Y-69041284D02*
X67126067Y-68965094D01*
X67126067Y-68965094D02*
X67126067Y-68317475D01*
X67468923Y-68888903D02*
X67849876Y-68888903D01*
X67392733Y-69117475D02*
X67659400Y-68317475D01*
X67659400Y-68317475D02*
X67926066Y-69117475D01*
X68573685Y-69117475D02*
X68192733Y-69117475D01*
X68192733Y-69117475D02*
X68192733Y-68317475D01*
X69907019Y-69041284D02*
X69868923Y-69079380D01*
X69868923Y-69079380D02*
X69754638Y-69117475D01*
X69754638Y-69117475D02*
X69678447Y-69117475D01*
X69678447Y-69117475D02*
X69564161Y-69079380D01*
X69564161Y-69079380D02*
X69487971Y-69003189D01*
X69487971Y-69003189D02*
X69449876Y-68926999D01*
X69449876Y-68926999D02*
X69411780Y-68774618D01*
X69411780Y-68774618D02*
X69411780Y-68660332D01*
X69411780Y-68660332D02*
X69449876Y-68507951D01*
X69449876Y-68507951D02*
X69487971Y-68431760D01*
X69487971Y-68431760D02*
X69564161Y-68355570D01*
X69564161Y-68355570D02*
X69678447Y-68317475D01*
X69678447Y-68317475D02*
X69754638Y-68317475D01*
X69754638Y-68317475D02*
X69868923Y-68355570D01*
X69868923Y-68355570D02*
X69907019Y-68393665D01*
X70211780Y-68888903D02*
X70592733Y-68888903D01*
X70135590Y-69117475D02*
X70402257Y-68317475D01*
X70402257Y-68317475D02*
X70668923Y-69117475D01*
X70935590Y-69117475D02*
X70935590Y-68317475D01*
X70935590Y-68317475D02*
X71392733Y-69117475D01*
X71392733Y-69117475D02*
X71392733Y-68317475D01*
X72611780Y-68736522D02*
X72611780Y-68888903D01*
X72649875Y-68888903D02*
X72649875Y-68736522D01*
X72687971Y-68698427D02*
X72687971Y-68926999D01*
X72726066Y-68888903D02*
X72726066Y-68736522D01*
X72764161Y-68736522D02*
X72764161Y-68888903D01*
X72611780Y-68850808D02*
X72687971Y-68926999D01*
X72687971Y-68926999D02*
X72764161Y-68850808D01*
X72611780Y-68774618D02*
X72687971Y-68698427D01*
X72687971Y-68698427D02*
X72764161Y-68774618D01*
X72611780Y-68736522D02*
X72687971Y-68698427D01*
X72687971Y-68698427D02*
X72764161Y-68736522D01*
X72764161Y-68736522D02*
X72802256Y-68812713D01*
X72802256Y-68812713D02*
X72764161Y-68888903D01*
X72764161Y-68888903D02*
X72687971Y-68926999D01*
X72687971Y-68926999D02*
X72611780Y-68888903D01*
X72611780Y-68888903D02*
X72573685Y-68812713D01*
X72573685Y-68812713D02*
X72611780Y-68736522D01*
X74440352Y-69041284D02*
X74402256Y-69079380D01*
X74402256Y-69079380D02*
X74287971Y-69117475D01*
X74287971Y-69117475D02*
X74211780Y-69117475D01*
X74211780Y-69117475D02*
X74097494Y-69079380D01*
X74097494Y-69079380D02*
X74021304Y-69003189D01*
X74021304Y-69003189D02*
X73983209Y-68926999D01*
X73983209Y-68926999D02*
X73945113Y-68774618D01*
X73945113Y-68774618D02*
X73945113Y-68660332D01*
X73945113Y-68660332D02*
X73983209Y-68507951D01*
X73983209Y-68507951D02*
X74021304Y-68431760D01*
X74021304Y-68431760D02*
X74097494Y-68355570D01*
X74097494Y-68355570D02*
X74211780Y-68317475D01*
X74211780Y-68317475D02*
X74287971Y-68317475D01*
X74287971Y-68317475D02*
X74402256Y-68355570D01*
X74402256Y-68355570D02*
X74440352Y-68393665D01*
X75126066Y-68317475D02*
X74973685Y-68317475D01*
X74973685Y-68317475D02*
X74897494Y-68355570D01*
X74897494Y-68355570D02*
X74859399Y-68393665D01*
X74859399Y-68393665D02*
X74783209Y-68507951D01*
X74783209Y-68507951D02*
X74745113Y-68660332D01*
X74745113Y-68660332D02*
X74745113Y-68965094D01*
X74745113Y-68965094D02*
X74783209Y-69041284D01*
X74783209Y-69041284D02*
X74821304Y-69079380D01*
X74821304Y-69079380D02*
X74897494Y-69117475D01*
X74897494Y-69117475D02*
X75049875Y-69117475D01*
X75049875Y-69117475D02*
X75126066Y-69079380D01*
X75126066Y-69079380D02*
X75164161Y-69041284D01*
X75164161Y-69041284D02*
X75202256Y-68965094D01*
X75202256Y-68965094D02*
X75202256Y-68774618D01*
X75202256Y-68774618D02*
X75164161Y-68698427D01*
X75164161Y-68698427D02*
X75126066Y-68660332D01*
X75126066Y-68660332D02*
X75049875Y-68622237D01*
X75049875Y-68622237D02*
X74897494Y-68622237D01*
X74897494Y-68622237D02*
X74821304Y-68660332D01*
X74821304Y-68660332D02*
X74783209Y-68698427D01*
X74783209Y-68698427D02*
X74745113Y-68774618D01*
X75507018Y-68393665D02*
X75545114Y-68355570D01*
X75545114Y-68355570D02*
X75621304Y-68317475D01*
X75621304Y-68317475D02*
X75811780Y-68317475D01*
X75811780Y-68317475D02*
X75887971Y-68355570D01*
X75887971Y-68355570D02*
X75926066Y-68393665D01*
X75926066Y-68393665D02*
X75964161Y-68469856D01*
X75964161Y-68469856D02*
X75964161Y-68546046D01*
X75964161Y-68546046D02*
X75926066Y-68660332D01*
X75926066Y-68660332D02*
X75468923Y-69117475D01*
X75468923Y-69117475D02*
X75964161Y-69117475D01*
X76459400Y-68317475D02*
X76535590Y-68317475D01*
X76535590Y-68317475D02*
X76611781Y-68355570D01*
X76611781Y-68355570D02*
X76649876Y-68393665D01*
X76649876Y-68393665D02*
X76687971Y-68469856D01*
X76687971Y-68469856D02*
X76726066Y-68622237D01*
X76726066Y-68622237D02*
X76726066Y-68812713D01*
X76726066Y-68812713D02*
X76687971Y-68965094D01*
X76687971Y-68965094D02*
X76649876Y-69041284D01*
X76649876Y-69041284D02*
X76611781Y-69079380D01*
X76611781Y-69079380D02*
X76535590Y-69117475D01*
X76535590Y-69117475D02*
X76459400Y-69117475D01*
X76459400Y-69117475D02*
X76383209Y-69079380D01*
X76383209Y-69079380D02*
X76345114Y-69041284D01*
X76345114Y-69041284D02*
X76307019Y-68965094D01*
X76307019Y-68965094D02*
X76268923Y-68812713D01*
X76268923Y-68812713D02*
X76268923Y-68622237D01*
X76268923Y-68622237D02*
X76307019Y-68469856D01*
X76307019Y-68469856D02*
X76345114Y-68393665D01*
X76345114Y-68393665D02*
X76383209Y-68355570D01*
X76383209Y-68355570D02*
X76459400Y-68317475D01*
X77602257Y-69117475D02*
X78021305Y-68584141D01*
X77602257Y-68584141D02*
X78021305Y-69117475D01*
X78287971Y-68393665D02*
X78326067Y-68355570D01*
X78326067Y-68355570D02*
X78402257Y-68317475D01*
X78402257Y-68317475D02*
X78592733Y-68317475D01*
X78592733Y-68317475D02*
X78668924Y-68355570D01*
X78668924Y-68355570D02*
X78707019Y-68393665D01*
X78707019Y-68393665D02*
X78745114Y-68469856D01*
X78745114Y-68469856D02*
X78745114Y-68546046D01*
X78745114Y-68546046D02*
X78707019Y-68660332D01*
X78707019Y-68660332D02*
X78249876Y-69117475D01*
X78249876Y-69117475D02*
X78745114Y-69117475D01*
X79926067Y-68736522D02*
X79926067Y-68888903D01*
X79964162Y-68888903D02*
X79964162Y-68736522D01*
X80002258Y-68698427D02*
X80002258Y-68926999D01*
X80040353Y-68888903D02*
X80040353Y-68736522D01*
X80078448Y-68736522D02*
X80078448Y-68888903D01*
X79926067Y-68850808D02*
X80002258Y-68926999D01*
X80002258Y-68926999D02*
X80078448Y-68850808D01*
X79926067Y-68774618D02*
X80002258Y-68698427D01*
X80002258Y-68698427D02*
X80078448Y-68774618D01*
X79926067Y-68736522D02*
X80002258Y-68698427D01*
X80002258Y-68698427D02*
X80078448Y-68736522D01*
X80078448Y-68736522D02*
X80116543Y-68812713D01*
X80116543Y-68812713D02*
X80078448Y-68888903D01*
X80078448Y-68888903D02*
X80002258Y-68926999D01*
X80002258Y-68926999D02*
X79926067Y-68888903D01*
X79926067Y-68888903D02*
X79887972Y-68812713D01*
X79887972Y-68812713D02*
X79926067Y-68736522D01*
X81259400Y-68888903D02*
X81640353Y-68888903D01*
X81183210Y-69117475D02*
X81449877Y-68317475D01*
X81449877Y-68317475D02*
X81716543Y-69117475D01*
X81983210Y-69117475D02*
X81983210Y-68317475D01*
X81983210Y-68317475D02*
X82249876Y-68888903D01*
X82249876Y-68888903D02*
X82516543Y-68317475D01*
X82516543Y-68317475D02*
X82516543Y-69117475D01*
X82783210Y-68317475D02*
X83240353Y-68317475D01*
X83011781Y-69117475D02*
X83011781Y-68317475D01*
X83468924Y-68393665D02*
X83507020Y-68355570D01*
X83507020Y-68355570D02*
X83583210Y-68317475D01*
X83583210Y-68317475D02*
X83773686Y-68317475D01*
X83773686Y-68317475D02*
X83849877Y-68355570D01*
X83849877Y-68355570D02*
X83887972Y-68393665D01*
X83887972Y-68393665D02*
X83926067Y-68469856D01*
X83926067Y-68469856D02*
X83926067Y-68546046D01*
X83926067Y-68546046D02*
X83887972Y-68660332D01*
X83887972Y-68660332D02*
X83430829Y-69117475D01*
X83430829Y-69117475D02*
X83926067Y-69117475D01*
X84230829Y-68393665D02*
X84268925Y-68355570D01*
X84268925Y-68355570D02*
X84345115Y-68317475D01*
X84345115Y-68317475D02*
X84535591Y-68317475D01*
X84535591Y-68317475D02*
X84611782Y-68355570D01*
X84611782Y-68355570D02*
X84649877Y-68393665D01*
X84649877Y-68393665D02*
X84687972Y-68469856D01*
X84687972Y-68469856D02*
X84687972Y-68546046D01*
X84687972Y-68546046D02*
X84649877Y-68660332D01*
X84649877Y-68660332D02*
X84192734Y-69117475D01*
X84192734Y-69117475D02*
X84687972Y-69117475D01*
X57145112Y-69605430D02*
X56764160Y-69605430D01*
X56764160Y-69605430D02*
X56726064Y-69986382D01*
X56726064Y-69986382D02*
X56764160Y-69948287D01*
X56764160Y-69948287D02*
X56840350Y-69910192D01*
X56840350Y-69910192D02*
X57030826Y-69910192D01*
X57030826Y-69910192D02*
X57107017Y-69948287D01*
X57107017Y-69948287D02*
X57145112Y-69986382D01*
X57145112Y-69986382D02*
X57183207Y-70062573D01*
X57183207Y-70062573D02*
X57183207Y-70253049D01*
X57183207Y-70253049D02*
X57145112Y-70329239D01*
X57145112Y-70329239D02*
X57107017Y-70367335D01*
X57107017Y-70367335D02*
X57030826Y-70405430D01*
X57030826Y-70405430D02*
X56840350Y-70405430D01*
X56840350Y-70405430D02*
X56764160Y-70367335D01*
X56764160Y-70367335D02*
X56726064Y-70329239D01*
X57411779Y-69605430D02*
X57678446Y-70405430D01*
X57678446Y-70405430D02*
X57945112Y-69605430D01*
X58821303Y-70405430D02*
X58821303Y-69605430D01*
X59202255Y-70405430D02*
X59202255Y-69605430D01*
X59202255Y-69605430D02*
X59659398Y-70405430D01*
X59659398Y-70405430D02*
X59659398Y-69605430D01*
X60040350Y-70405430D02*
X60040350Y-69605430D01*
X60040350Y-69605430D02*
X60345112Y-69605430D01*
X60345112Y-69605430D02*
X60421302Y-69643525D01*
X60421302Y-69643525D02*
X60459397Y-69681620D01*
X60459397Y-69681620D02*
X60497493Y-69757811D01*
X60497493Y-69757811D02*
X60497493Y-69872096D01*
X60497493Y-69872096D02*
X60459397Y-69948287D01*
X60459397Y-69948287D02*
X60421302Y-69986382D01*
X60421302Y-69986382D02*
X60345112Y-70024477D01*
X60345112Y-70024477D02*
X60040350Y-70024477D01*
X60840350Y-69605430D02*
X60840350Y-70253049D01*
X60840350Y-70253049D02*
X60878445Y-70329239D01*
X60878445Y-70329239D02*
X60916540Y-70367335D01*
X60916540Y-70367335D02*
X60992731Y-70405430D01*
X60992731Y-70405430D02*
X61145112Y-70405430D01*
X61145112Y-70405430D02*
X61221302Y-70367335D01*
X61221302Y-70367335D02*
X61259397Y-70329239D01*
X61259397Y-70329239D02*
X61297493Y-70253049D01*
X61297493Y-70253049D02*
X61297493Y-69605430D01*
X61564159Y-69605430D02*
X62021302Y-69605430D01*
X61792730Y-70405430D02*
X61792730Y-69605430D01*
X63126064Y-70024477D02*
X63126064Y-70176858D01*
X63164159Y-70176858D02*
X63164159Y-70024477D01*
X63202255Y-69986382D02*
X63202255Y-70214954D01*
X63240350Y-70176858D02*
X63240350Y-70024477D01*
X63278445Y-70024477D02*
X63278445Y-70176858D01*
X63126064Y-70138763D02*
X63202255Y-70214954D01*
X63202255Y-70214954D02*
X63278445Y-70138763D01*
X63126064Y-70062573D02*
X63202255Y-69986382D01*
X63202255Y-69986382D02*
X63278445Y-70062573D01*
X63126064Y-70024477D02*
X63202255Y-69986382D01*
X63202255Y-69986382D02*
X63278445Y-70024477D01*
X63278445Y-70024477D02*
X63316540Y-70100668D01*
X63316540Y-70100668D02*
X63278445Y-70176858D01*
X63278445Y-70176858D02*
X63202255Y-70214954D01*
X63202255Y-70214954D02*
X63126064Y-70176858D01*
X63126064Y-70176858D02*
X63087969Y-70100668D01*
X63087969Y-70100668D02*
X63126064Y-70024477D01*
X64421302Y-69605430D02*
X64916540Y-69605430D01*
X64916540Y-69605430D02*
X64649874Y-69910192D01*
X64649874Y-69910192D02*
X64764159Y-69910192D01*
X64764159Y-69910192D02*
X64840350Y-69948287D01*
X64840350Y-69948287D02*
X64878445Y-69986382D01*
X64878445Y-69986382D02*
X64916540Y-70062573D01*
X64916540Y-70062573D02*
X64916540Y-70253049D01*
X64916540Y-70253049D02*
X64878445Y-70329239D01*
X64878445Y-70329239D02*
X64840350Y-70367335D01*
X64840350Y-70367335D02*
X64764159Y-70405430D01*
X64764159Y-70405430D02*
X64535588Y-70405430D01*
X64535588Y-70405430D02*
X64459397Y-70367335D01*
X64459397Y-70367335D02*
X64421302Y-70329239D01*
X65259398Y-70329239D02*
X65297493Y-70367335D01*
X65297493Y-70367335D02*
X65259398Y-70405430D01*
X65259398Y-70405430D02*
X65221302Y-70367335D01*
X65221302Y-70367335D02*
X65259398Y-70329239D01*
X65259398Y-70329239D02*
X65259398Y-70405430D01*
X65564159Y-69605430D02*
X66059397Y-69605430D01*
X66059397Y-69605430D02*
X65792731Y-69910192D01*
X65792731Y-69910192D02*
X65907016Y-69910192D01*
X65907016Y-69910192D02*
X65983207Y-69948287D01*
X65983207Y-69948287D02*
X66021302Y-69986382D01*
X66021302Y-69986382D02*
X66059397Y-70062573D01*
X66059397Y-70062573D02*
X66059397Y-70253049D01*
X66059397Y-70253049D02*
X66021302Y-70329239D01*
X66021302Y-70329239D02*
X65983207Y-70367335D01*
X65983207Y-70367335D02*
X65907016Y-70405430D01*
X65907016Y-70405430D02*
X65678445Y-70405430D01*
X65678445Y-70405430D02*
X65602254Y-70367335D01*
X65602254Y-70367335D02*
X65564159Y-70329239D01*
X66287969Y-69605430D02*
X66554636Y-70405430D01*
X66554636Y-70405430D02*
X66821302Y-69605430D01*
X68078445Y-70405430D02*
X67697493Y-70405430D01*
X67697493Y-70405430D02*
X67697493Y-69605430D01*
X68497493Y-69605430D02*
X68649874Y-69605430D01*
X68649874Y-69605430D02*
X68726064Y-69643525D01*
X68726064Y-69643525D02*
X68802255Y-69719715D01*
X68802255Y-69719715D02*
X68840350Y-69872096D01*
X68840350Y-69872096D02*
X68840350Y-70138763D01*
X68840350Y-70138763D02*
X68802255Y-70291144D01*
X68802255Y-70291144D02*
X68726064Y-70367335D01*
X68726064Y-70367335D02*
X68649874Y-70405430D01*
X68649874Y-70405430D02*
X68497493Y-70405430D01*
X68497493Y-70405430D02*
X68421302Y-70367335D01*
X68421302Y-70367335D02*
X68345112Y-70291144D01*
X68345112Y-70291144D02*
X68307016Y-70138763D01*
X68307016Y-70138763D02*
X68307016Y-69872096D01*
X68307016Y-69872096D02*
X68345112Y-69719715D01*
X68345112Y-69719715D02*
X68421302Y-69643525D01*
X68421302Y-69643525D02*
X68497493Y-69605430D01*
X69602254Y-69643525D02*
X69526064Y-69605430D01*
X69526064Y-69605430D02*
X69411778Y-69605430D01*
X69411778Y-69605430D02*
X69297492Y-69643525D01*
X69297492Y-69643525D02*
X69221302Y-69719715D01*
X69221302Y-69719715D02*
X69183207Y-69795906D01*
X69183207Y-69795906D02*
X69145111Y-69948287D01*
X69145111Y-69948287D02*
X69145111Y-70062573D01*
X69145111Y-70062573D02*
X69183207Y-70214954D01*
X69183207Y-70214954D02*
X69221302Y-70291144D01*
X69221302Y-70291144D02*
X69297492Y-70367335D01*
X69297492Y-70367335D02*
X69411778Y-70405430D01*
X69411778Y-70405430D02*
X69487969Y-70405430D01*
X69487969Y-70405430D02*
X69602254Y-70367335D01*
X69602254Y-70367335D02*
X69640350Y-70329239D01*
X69640350Y-70329239D02*
X69640350Y-70062573D01*
X69640350Y-70062573D02*
X69487969Y-70062573D01*
X69983207Y-70405430D02*
X69983207Y-69605430D01*
X70821302Y-70329239D02*
X70783206Y-70367335D01*
X70783206Y-70367335D02*
X70668921Y-70405430D01*
X70668921Y-70405430D02*
X70592730Y-70405430D01*
X70592730Y-70405430D02*
X70478444Y-70367335D01*
X70478444Y-70367335D02*
X70402254Y-70291144D01*
X70402254Y-70291144D02*
X70364159Y-70214954D01*
X70364159Y-70214954D02*
X70326063Y-70062573D01*
X70326063Y-70062573D02*
X70326063Y-69948287D01*
X70326063Y-69948287D02*
X70364159Y-69795906D01*
X70364159Y-69795906D02*
X70402254Y-69719715D01*
X70402254Y-69719715D02*
X70478444Y-69643525D01*
X70478444Y-69643525D02*
X70592730Y-69605430D01*
X70592730Y-69605430D02*
X70668921Y-69605430D01*
X70668921Y-69605430D02*
X70783206Y-69643525D01*
X70783206Y-69643525D02*
X70821302Y-69681620D01*
X57221303Y-71617194D02*
X57183207Y-71655290D01*
X57183207Y-71655290D02*
X57068922Y-71693385D01*
X57068922Y-71693385D02*
X56992731Y-71693385D01*
X56992731Y-71693385D02*
X56878445Y-71655290D01*
X56878445Y-71655290D02*
X56802255Y-71579099D01*
X56802255Y-71579099D02*
X56764160Y-71502909D01*
X56764160Y-71502909D02*
X56726064Y-71350528D01*
X56726064Y-71350528D02*
X56726064Y-71236242D01*
X56726064Y-71236242D02*
X56764160Y-71083861D01*
X56764160Y-71083861D02*
X56802255Y-71007670D01*
X56802255Y-71007670D02*
X56878445Y-70931480D01*
X56878445Y-70931480D02*
X56992731Y-70893385D01*
X56992731Y-70893385D02*
X57068922Y-70893385D01*
X57068922Y-70893385D02*
X57183207Y-70931480D01*
X57183207Y-70931480D02*
X57221303Y-70969575D01*
X57564160Y-71274337D02*
X57830826Y-71274337D01*
X57945112Y-71693385D02*
X57564160Y-71693385D01*
X57564160Y-71693385D02*
X57564160Y-70893385D01*
X57564160Y-70893385D02*
X57945112Y-70893385D01*
X58287970Y-71693385D02*
X58287970Y-70893385D01*
X58287970Y-70893385D02*
X58745113Y-71693385D01*
X58745113Y-71693385D02*
X58745113Y-70893385D01*
X59011779Y-70893385D02*
X59468922Y-70893385D01*
X59240350Y-71693385D02*
X59240350Y-70893385D01*
X60192732Y-71693385D02*
X59926065Y-71312432D01*
X59735589Y-71693385D02*
X59735589Y-70893385D01*
X59735589Y-70893385D02*
X60040351Y-70893385D01*
X60040351Y-70893385D02*
X60116541Y-70931480D01*
X60116541Y-70931480D02*
X60154636Y-70969575D01*
X60154636Y-70969575D02*
X60192732Y-71045766D01*
X60192732Y-71045766D02*
X60192732Y-71160051D01*
X60192732Y-71160051D02*
X60154636Y-71236242D01*
X60154636Y-71236242D02*
X60116541Y-71274337D01*
X60116541Y-71274337D02*
X60040351Y-71312432D01*
X60040351Y-71312432D02*
X59735589Y-71312432D01*
X60497493Y-71464813D02*
X60878446Y-71464813D01*
X60421303Y-71693385D02*
X60687970Y-70893385D01*
X60687970Y-70893385D02*
X60954636Y-71693385D01*
X61602255Y-71693385D02*
X61221303Y-71693385D01*
X61221303Y-71693385D02*
X61221303Y-70893385D01*
X62935589Y-71617194D02*
X62897493Y-71655290D01*
X62897493Y-71655290D02*
X62783208Y-71693385D01*
X62783208Y-71693385D02*
X62707017Y-71693385D01*
X62707017Y-71693385D02*
X62592731Y-71655290D01*
X62592731Y-71655290D02*
X62516541Y-71579099D01*
X62516541Y-71579099D02*
X62478446Y-71502909D01*
X62478446Y-71502909D02*
X62440350Y-71350528D01*
X62440350Y-71350528D02*
X62440350Y-71236242D01*
X62440350Y-71236242D02*
X62478446Y-71083861D01*
X62478446Y-71083861D02*
X62516541Y-71007670D01*
X62516541Y-71007670D02*
X62592731Y-70931480D01*
X62592731Y-70931480D02*
X62707017Y-70893385D01*
X62707017Y-70893385D02*
X62783208Y-70893385D01*
X62783208Y-70893385D02*
X62897493Y-70931480D01*
X62897493Y-70931480D02*
X62935589Y-70969575D01*
X63240350Y-71464813D02*
X63621303Y-71464813D01*
X63164160Y-71693385D02*
X63430827Y-70893385D01*
X63430827Y-70893385D02*
X63697493Y-71693385D01*
X63964160Y-71693385D02*
X63964160Y-70893385D01*
X63964160Y-70893385D02*
X64421303Y-71693385D01*
X64421303Y-71693385D02*
X64421303Y-70893385D01*
X65983207Y-70855290D02*
X65297493Y-71883861D01*
X66859398Y-71693385D02*
X66859398Y-70893385D01*
X66859398Y-70893385D02*
X67126064Y-71464813D01*
X67126064Y-71464813D02*
X67392731Y-70893385D01*
X67392731Y-70893385D02*
X67392731Y-71693385D01*
X67926065Y-70893385D02*
X68078446Y-70893385D01*
X68078446Y-70893385D02*
X68154636Y-70931480D01*
X68154636Y-70931480D02*
X68230827Y-71007670D01*
X68230827Y-71007670D02*
X68268922Y-71160051D01*
X68268922Y-71160051D02*
X68268922Y-71426718D01*
X68268922Y-71426718D02*
X68230827Y-71579099D01*
X68230827Y-71579099D02*
X68154636Y-71655290D01*
X68154636Y-71655290D02*
X68078446Y-71693385D01*
X68078446Y-71693385D02*
X67926065Y-71693385D01*
X67926065Y-71693385D02*
X67849874Y-71655290D01*
X67849874Y-71655290D02*
X67773684Y-71579099D01*
X67773684Y-71579099D02*
X67735588Y-71426718D01*
X67735588Y-71426718D02*
X67735588Y-71160051D01*
X67735588Y-71160051D02*
X67773684Y-71007670D01*
X67773684Y-71007670D02*
X67849874Y-70931480D01*
X67849874Y-70931480D02*
X67926065Y-70893385D01*
X68497493Y-70893385D02*
X68954636Y-70893385D01*
X68726064Y-71693385D02*
X68726064Y-70893385D01*
X69373684Y-70893385D02*
X69526065Y-70893385D01*
X69526065Y-70893385D02*
X69602255Y-70931480D01*
X69602255Y-70931480D02*
X69678446Y-71007670D01*
X69678446Y-71007670D02*
X69716541Y-71160051D01*
X69716541Y-71160051D02*
X69716541Y-71426718D01*
X69716541Y-71426718D02*
X69678446Y-71579099D01*
X69678446Y-71579099D02*
X69602255Y-71655290D01*
X69602255Y-71655290D02*
X69526065Y-71693385D01*
X69526065Y-71693385D02*
X69373684Y-71693385D01*
X69373684Y-71693385D02*
X69297493Y-71655290D01*
X69297493Y-71655290D02*
X69221303Y-71579099D01*
X69221303Y-71579099D02*
X69183207Y-71426718D01*
X69183207Y-71426718D02*
X69183207Y-71160051D01*
X69183207Y-71160051D02*
X69221303Y-71007670D01*
X69221303Y-71007670D02*
X69297493Y-70931480D01*
X69297493Y-70931480D02*
X69373684Y-70893385D01*
X70516541Y-71693385D02*
X70249874Y-71312432D01*
X70059398Y-71693385D02*
X70059398Y-70893385D01*
X70059398Y-70893385D02*
X70364160Y-70893385D01*
X70364160Y-70893385D02*
X70440350Y-70931480D01*
X70440350Y-70931480D02*
X70478445Y-70969575D01*
X70478445Y-70969575D02*
X70516541Y-71045766D01*
X70516541Y-71045766D02*
X70516541Y-71160051D01*
X70516541Y-71160051D02*
X70478445Y-71236242D01*
X70478445Y-71236242D02*
X70440350Y-71274337D01*
X70440350Y-71274337D02*
X70364160Y-71312432D01*
X70364160Y-71312432D02*
X70059398Y-71312432D01*
X71926065Y-71617194D02*
X71887969Y-71655290D01*
X71887969Y-71655290D02*
X71773684Y-71693385D01*
X71773684Y-71693385D02*
X71697493Y-71693385D01*
X71697493Y-71693385D02*
X71583207Y-71655290D01*
X71583207Y-71655290D02*
X71507017Y-71579099D01*
X71507017Y-71579099D02*
X71468922Y-71502909D01*
X71468922Y-71502909D02*
X71430826Y-71350528D01*
X71430826Y-71350528D02*
X71430826Y-71236242D01*
X71430826Y-71236242D02*
X71468922Y-71083861D01*
X71468922Y-71083861D02*
X71507017Y-71007670D01*
X71507017Y-71007670D02*
X71583207Y-70931480D01*
X71583207Y-70931480D02*
X71697493Y-70893385D01*
X71697493Y-70893385D02*
X71773684Y-70893385D01*
X71773684Y-70893385D02*
X71887969Y-70931480D01*
X71887969Y-70931480D02*
X71926065Y-70969575D01*
X72230826Y-71464813D02*
X72611779Y-71464813D01*
X72154636Y-71693385D02*
X72421303Y-70893385D01*
X72421303Y-70893385D02*
X72687969Y-71693385D01*
X72954636Y-71693385D02*
X72954636Y-70893385D01*
X72954636Y-70893385D02*
X73411779Y-71693385D01*
X73411779Y-71693385D02*
X73411779Y-70893385D01*
X56764160Y-72181340D02*
X56764160Y-72828959D01*
X56764160Y-72828959D02*
X56802255Y-72905149D01*
X56802255Y-72905149D02*
X56840350Y-72943245D01*
X56840350Y-72943245D02*
X56916541Y-72981340D01*
X56916541Y-72981340D02*
X57068922Y-72981340D01*
X57068922Y-72981340D02*
X57145112Y-72943245D01*
X57145112Y-72943245D02*
X57183207Y-72905149D01*
X57183207Y-72905149D02*
X57221303Y-72828959D01*
X57221303Y-72828959D02*
X57221303Y-72181340D01*
X57602255Y-72981340D02*
X57602255Y-72181340D01*
X57602255Y-72181340D02*
X58059398Y-72981340D01*
X58059398Y-72981340D02*
X58059398Y-72181340D01*
X58440350Y-72981340D02*
X58440350Y-72181340D01*
X58707016Y-72181340D02*
X59164159Y-72181340D01*
X58935587Y-72981340D02*
X58935587Y-72181340D01*
X60040350Y-72981340D02*
X60040350Y-72181340D01*
X60421302Y-72981340D02*
X60421302Y-72181340D01*
X60421302Y-72181340D02*
X60611778Y-72181340D01*
X60611778Y-72181340D02*
X60726064Y-72219435D01*
X60726064Y-72219435D02*
X60802254Y-72295625D01*
X60802254Y-72295625D02*
X60840349Y-72371816D01*
X60840349Y-72371816D02*
X60878445Y-72524197D01*
X60878445Y-72524197D02*
X60878445Y-72638483D01*
X60878445Y-72638483D02*
X60840349Y-72790864D01*
X60840349Y-72790864D02*
X60802254Y-72867054D01*
X60802254Y-72867054D02*
X60726064Y-72943245D01*
X60726064Y-72943245D02*
X60611778Y-72981340D01*
X60611778Y-72981340D02*
X60421302Y-72981340D01*
X61221302Y-72905149D02*
X61259397Y-72943245D01*
X61259397Y-72943245D02*
X61221302Y-72981340D01*
X61221302Y-72981340D02*
X61183206Y-72943245D01*
X61183206Y-72943245D02*
X61221302Y-72905149D01*
X61221302Y-72905149D02*
X61221302Y-72981340D01*
X61221302Y-72486102D02*
X61259397Y-72524197D01*
X61259397Y-72524197D02*
X61221302Y-72562292D01*
X61221302Y-72562292D02*
X61183206Y-72524197D01*
X61183206Y-72524197D02*
X61221302Y-72486102D01*
X61221302Y-72486102D02*
X61221302Y-72562292D01*
X62630825Y-72981340D02*
X62173682Y-72981340D01*
X62402254Y-72981340D02*
X62402254Y-72181340D01*
X62402254Y-72181340D02*
X62326063Y-72295625D01*
X62326063Y-72295625D02*
X62249873Y-72371816D01*
X62249873Y-72371816D02*
X62173682Y-72409911D01*
X64154635Y-72143245D02*
X63468921Y-73171816D01*
X64992730Y-72257530D02*
X65030826Y-72219435D01*
X65030826Y-72219435D02*
X65107016Y-72181340D01*
X65107016Y-72181340D02*
X65297492Y-72181340D01*
X65297492Y-72181340D02*
X65373683Y-72219435D01*
X65373683Y-72219435D02*
X65411778Y-72257530D01*
X65411778Y-72257530D02*
X65449873Y-72333721D01*
X65449873Y-72333721D02*
X65449873Y-72409911D01*
X65449873Y-72409911D02*
X65411778Y-72524197D01*
X65411778Y-72524197D02*
X64954635Y-72981340D01*
X64954635Y-72981340D02*
X65449873Y-72981340D01*
X66973683Y-72143245D02*
X66287969Y-73171816D01*
X68192731Y-72448006D02*
X68192731Y-72981340D01*
X68002255Y-72143245D02*
X67811778Y-72714673D01*
X67811778Y-72714673D02*
X68307017Y-72714673D01*
X57221303Y-74269295D02*
X56954636Y-73888342D01*
X56764160Y-74269295D02*
X56764160Y-73469295D01*
X56764160Y-73469295D02*
X57068922Y-73469295D01*
X57068922Y-73469295D02*
X57145112Y-73507390D01*
X57145112Y-73507390D02*
X57183207Y-73545485D01*
X57183207Y-73545485D02*
X57221303Y-73621676D01*
X57221303Y-73621676D02*
X57221303Y-73735961D01*
X57221303Y-73735961D02*
X57183207Y-73812152D01*
X57183207Y-73812152D02*
X57145112Y-73850247D01*
X57145112Y-73850247D02*
X57068922Y-73888342D01*
X57068922Y-73888342D02*
X56764160Y-73888342D01*
X57564160Y-73850247D02*
X57830826Y-73850247D01*
X57945112Y-74269295D02*
X57564160Y-74269295D01*
X57564160Y-74269295D02*
X57564160Y-73469295D01*
X57564160Y-73469295D02*
X57945112Y-73469295D01*
X58173684Y-73469295D02*
X58440351Y-74269295D01*
X58440351Y-74269295D02*
X58707017Y-73469295D01*
X58973684Y-74193104D02*
X59011779Y-74231200D01*
X59011779Y-74231200D02*
X58973684Y-74269295D01*
X58973684Y-74269295D02*
X58935588Y-74231200D01*
X58935588Y-74231200D02*
X58973684Y-74193104D01*
X58973684Y-74193104D02*
X58973684Y-74269295D01*
X59316540Y-74040723D02*
X59697493Y-74040723D01*
X59240350Y-74269295D02*
X59507017Y-73469295D01*
X59507017Y-73469295D02*
X59773683Y-74269295D01*
D11*
%TO.C,G\u002A\u002A\u002A*%
G36*
X57819204Y-64027430D02*
G01*
X57819204Y-65554356D01*
X57448901Y-65554356D01*
X57078599Y-65554356D01*
X57078599Y-64393160D01*
X57078599Y-63231965D01*
X56692296Y-63231969D01*
X56305993Y-63231972D01*
X56308483Y-62866238D01*
X56310972Y-62500504D01*
X57065088Y-62500504D01*
X57819204Y-62500504D01*
X57819204Y-64027430D01*
G37*
G36*
X60041018Y-64251440D02*
G01*
X60041018Y-65554356D01*
X59675287Y-65554356D01*
X59309557Y-65554356D01*
X59309557Y-64251440D01*
X59309557Y-62948524D01*
X59675287Y-62948524D01*
X60041018Y-62948524D01*
X60041018Y-64251440D01*
G37*
G36*
X64456127Y-62482225D02*
G01*
X64598770Y-62482259D01*
X64725225Y-62482338D01*
X64836539Y-62482478D01*
X64933763Y-62482697D01*
X65017944Y-62483012D01*
X65090132Y-62483441D01*
X65151375Y-62484001D01*
X65202723Y-62484708D01*
X65245224Y-62485582D01*
X65279927Y-62486639D01*
X65307881Y-62487896D01*
X65330135Y-62489370D01*
X65347738Y-62491080D01*
X65361738Y-62493042D01*
X65373185Y-62495274D01*
X65383127Y-62497793D01*
X65391734Y-62500345D01*
X65431016Y-62515823D01*
X65470682Y-62536703D01*
X65493621Y-62552127D01*
X65535905Y-62591371D01*
X65578454Y-62641698D01*
X65616320Y-62696664D01*
X65643322Y-62747031D01*
X65665617Y-62796977D01*
X65664649Y-63560782D01*
X65663682Y-64324586D01*
X65636690Y-64382299D01*
X65611553Y-64425355D01*
X65576166Y-64472119D01*
X65535175Y-64517413D01*
X65493228Y-64556060D01*
X65458405Y-64580936D01*
X65428954Y-64595238D01*
X65391403Y-64609702D01*
X65364686Y-64618086D01*
X65335477Y-64626978D01*
X65314878Y-64634808D01*
X65307541Y-64639660D01*
X65312281Y-64648772D01*
X65325494Y-64670770D01*
X65345663Y-64703219D01*
X65371274Y-64743686D01*
X65400813Y-64789737D01*
X65404781Y-64795882D01*
X65437329Y-64846369D01*
X65468683Y-64895239D01*
X65496625Y-64939019D01*
X65518938Y-64974236D01*
X65532915Y-64996616D01*
X65554904Y-65032006D01*
X65584468Y-65079001D01*
X65619229Y-65133862D01*
X65656811Y-65192852D01*
X65694839Y-65252230D01*
X65730937Y-65308261D01*
X65733855Y-65312771D01*
X65781294Y-65386357D01*
X65819377Y-65446015D01*
X65847883Y-65491394D01*
X65866588Y-65522142D01*
X65873209Y-65533783D01*
X65884210Y-65554356D01*
X65444802Y-65554356D01*
X65005394Y-65554356D01*
X64774685Y-65204626D01*
X64724175Y-65128033D01*
X64674082Y-65052021D01*
X64625871Y-64978822D01*
X64581013Y-64910666D01*
X64540975Y-64849785D01*
X64507225Y-64798411D01*
X64481232Y-64758774D01*
X64470307Y-64742069D01*
X64396637Y-64629242D01*
X64241776Y-64628733D01*
X64185789Y-64628640D01*
X64131965Y-64628713D01*
X64084785Y-64628935D01*
X64048729Y-64629288D01*
X64034341Y-64629555D01*
X63981767Y-64630885D01*
X63981767Y-65092620D01*
X63981767Y-65554356D01*
X63620608Y-65554356D01*
X63259449Y-65554356D01*
X63259449Y-64484593D01*
X63259449Y-63414831D01*
X63620451Y-63414831D01*
X63981453Y-63414831D01*
X63983896Y-63645698D01*
X63986338Y-63876566D01*
X64457217Y-63876566D01*
X64928095Y-63876566D01*
X64930500Y-63558596D01*
X64931033Y-63470130D01*
X64931132Y-63398440D01*
X64930755Y-63342020D01*
X64929858Y-63299362D01*
X64928399Y-63268961D01*
X64926335Y-63249309D01*
X64923623Y-63238901D01*
X64921356Y-63236323D01*
X64910705Y-63235666D01*
X64883078Y-63234989D01*
X64839786Y-63234303D01*
X64782142Y-63233618D01*
X64711456Y-63232944D01*
X64629040Y-63232292D01*
X64536204Y-63231672D01*
X64434260Y-63231094D01*
X64324519Y-63230569D01*
X64208292Y-63230107D01*
X64086890Y-63229718D01*
X64082807Y-63229707D01*
X63255806Y-63227394D01*
X63255983Y-63103960D01*
X63256097Y-63059918D01*
X63256322Y-63001767D01*
X63256639Y-62933683D01*
X63257028Y-62859845D01*
X63257467Y-62784429D01*
X63257804Y-62731371D01*
X63259449Y-62482217D01*
X64296246Y-62482217D01*
X64456127Y-62482225D01*
G37*
G36*
X66916756Y-64338395D02*
G01*
X66916756Y-64795653D01*
X67325917Y-64793273D01*
X67735078Y-64790893D01*
X67737450Y-64336015D01*
X67739821Y-63881137D01*
X68100895Y-63881137D01*
X68461968Y-63881137D01*
X68461968Y-64543574D01*
X68461842Y-64690582D01*
X68461458Y-64819708D01*
X68460812Y-64931356D01*
X68459898Y-65025929D01*
X68458709Y-65103831D01*
X68457240Y-65165465D01*
X68455484Y-65211235D01*
X68453437Y-65241544D01*
X68451688Y-65254463D01*
X68427540Y-65326790D01*
X68388032Y-65395200D01*
X68336088Y-65455881D01*
X68274633Y-65505022D01*
X68247102Y-65521088D01*
X68192242Y-65549784D01*
X67337346Y-65551544D01*
X67187656Y-65551808D01*
X67055242Y-65551941D01*
X66939095Y-65551929D01*
X66838206Y-65551762D01*
X66751564Y-65551427D01*
X66678161Y-65550912D01*
X66616987Y-65550207D01*
X66567032Y-65549300D01*
X66527287Y-65548177D01*
X66496742Y-65546829D01*
X66474388Y-65545242D01*
X66459215Y-65543406D01*
X66450213Y-65541308D01*
X66449949Y-65541212D01*
X66371106Y-65503052D01*
X66304747Y-65452361D01*
X66251889Y-65390226D01*
X66213547Y-65317739D01*
X66198333Y-65271279D01*
X66195780Y-65258732D01*
X66193569Y-65241178D01*
X66191676Y-65217384D01*
X66190079Y-65186119D01*
X66188757Y-65146149D01*
X66187686Y-65096243D01*
X66186845Y-65035167D01*
X66186210Y-64961689D01*
X66185761Y-64874576D01*
X66185473Y-64772597D01*
X66185326Y-64654518D01*
X66185294Y-64551247D01*
X66185294Y-63881137D01*
X66551025Y-63881137D01*
X66916756Y-63881137D01*
X66916756Y-64338395D01*
G37*
G36*
X70480414Y-63876813D02*
G01*
X70526246Y-63876969D01*
X70585898Y-63877272D01*
X70654903Y-63877693D01*
X70728795Y-63878203D01*
X70803107Y-63878775D01*
X70841723Y-63879099D01*
X71077382Y-63881137D01*
X71074877Y-64582883D01*
X71072371Y-65284629D01*
X71046574Y-65337182D01*
X71005449Y-65403415D01*
X70952491Y-65461443D01*
X70891802Y-65507060D01*
X70868416Y-65519848D01*
X70807613Y-65549784D01*
X69808513Y-65552266D01*
X68809413Y-65554748D01*
X68809409Y-64715657D01*
X68809406Y-63876566D01*
X69175140Y-63879056D01*
X69540874Y-63881545D01*
X69540874Y-64333933D01*
X69540874Y-64786321D01*
X69947749Y-64786321D01*
X70354625Y-64786321D01*
X70354694Y-64331443D01*
X70354762Y-63876566D01*
X70480414Y-63876813D01*
G37*
G36*
X72155849Y-64329253D02*
G01*
X72155849Y-64786511D01*
X72560438Y-64784130D01*
X72965028Y-64781749D01*
X72967399Y-64326872D01*
X72969770Y-63871994D01*
X73330844Y-63871994D01*
X73691918Y-63871994D01*
X73691918Y-64539003D01*
X73691784Y-64688596D01*
X73691381Y-64820162D01*
X73690705Y-64933958D01*
X73689751Y-65030241D01*
X73688517Y-65109268D01*
X73686999Y-65171296D01*
X73685193Y-65216584D01*
X73683095Y-65245386D01*
X73681781Y-65254463D01*
X73657169Y-65328991D01*
X73616904Y-65397867D01*
X73563443Y-65457964D01*
X73499245Y-65506150D01*
X73472776Y-65520573D01*
X73413448Y-65549784D01*
X72576639Y-65551698D01*
X72433364Y-65552008D01*
X72307207Y-65552230D01*
X72197000Y-65552346D01*
X72101574Y-65552335D01*
X72019762Y-65552179D01*
X71950394Y-65551858D01*
X71892303Y-65551355D01*
X71844320Y-65550649D01*
X71805277Y-65549723D01*
X71774006Y-65548556D01*
X71749338Y-65547130D01*
X71730105Y-65545426D01*
X71715138Y-65543424D01*
X71703271Y-65541107D01*
X71693333Y-65538454D01*
X71689542Y-65537264D01*
X71655755Y-65525270D01*
X71624445Y-65512507D01*
X71610729Y-65506015D01*
X71576848Y-65482458D01*
X71539617Y-65447158D01*
X71503366Y-65404968D01*
X71472428Y-65360741D01*
X71458154Y-65335117D01*
X71428959Y-65275885D01*
X71426507Y-64573939D01*
X71424055Y-63871994D01*
X71789952Y-63871994D01*
X72155849Y-63871994D01*
X72155849Y-64329253D01*
G37*
G36*
X74491954Y-62145487D02*
G01*
X74558166Y-62191645D01*
X74631109Y-62242355D01*
X74705875Y-62294213D01*
X74777555Y-62343817D01*
X74841242Y-62387764D01*
X74864542Y-62403796D01*
X75035978Y-62521626D01*
X75035978Y-64037991D01*
X75035978Y-65554356D01*
X74661148Y-65554356D01*
X74286317Y-65554356D01*
X74283988Y-64624028D01*
X74281659Y-63693700D01*
X74128509Y-63691194D01*
X73975359Y-63688687D01*
X73975359Y-63314034D01*
X73975359Y-62939381D01*
X74130712Y-62939381D01*
X74286064Y-62939381D01*
X74288433Y-62472194D01*
X74290802Y-62005007D01*
X74491954Y-62145487D01*
G37*
G36*
X62774600Y-63965713D02*
G01*
X62774572Y-64043792D01*
X62774231Y-64117750D01*
X62773613Y-64185184D01*
X62772751Y-64243688D01*
X62771681Y-64290861D01*
X62770436Y-64324297D01*
X62769205Y-64340587D01*
X62763226Y-64384017D01*
X61662705Y-64384017D01*
X60562184Y-64384017D01*
X60562184Y-64009143D01*
X60562184Y-63634269D01*
X61668100Y-63634269D01*
X62774016Y-63634269D01*
X62774600Y-63965713D01*
G37*
G36*
X67727929Y-62943049D02*
G01*
X67816940Y-62943421D01*
X67894917Y-62944005D01*
X67959999Y-62944798D01*
X68010324Y-62945795D01*
X68041378Y-62946857D01*
X68100070Y-62949828D01*
X68143879Y-62952677D01*
X68176197Y-62955937D01*
X68200417Y-62960141D01*
X68219930Y-62965822D01*
X68238128Y-62973511D01*
X68250582Y-62979696D01*
X68301800Y-63012952D01*
X68351778Y-63057732D01*
X68394194Y-63107996D01*
X68409657Y-63131692D01*
X68425281Y-63160784D01*
X68437535Y-63190324D01*
X68446806Y-63222990D01*
X68453479Y-63261460D01*
X68457942Y-63308411D01*
X68460579Y-63366520D01*
X68461778Y-63438464D01*
X68461968Y-63494469D01*
X68461968Y-63707415D01*
X67322938Y-63707415D01*
X66183908Y-63707415D01*
X66186887Y-63476548D01*
X66189866Y-63245680D01*
X66219928Y-63182196D01*
X66264976Y-63104071D01*
X66319009Y-63041542D01*
X66382770Y-62993885D01*
X66441010Y-62966082D01*
X66450123Y-62963052D01*
X66461314Y-62960397D01*
X66475856Y-62958078D01*
X66495023Y-62956061D01*
X66520089Y-62954306D01*
X66552326Y-62952778D01*
X66593009Y-62951440D01*
X66643411Y-62950254D01*
X66704806Y-62949183D01*
X66778467Y-62948191D01*
X66865668Y-62947241D01*
X66967681Y-62946296D01*
X67085782Y-62945318D01*
X67182475Y-62944566D01*
X67298750Y-62943796D01*
X67413293Y-62943265D01*
X67524245Y-62942966D01*
X67629743Y-62942896D01*
X67727929Y-62943049D01*
G37*
G36*
X69403277Y-62022318D02*
G01*
X69449361Y-62022613D01*
X69481537Y-62023121D01*
X69495219Y-62023651D01*
X69540874Y-62026819D01*
X69540874Y-62482148D01*
X69540874Y-62937477D01*
X69611734Y-62943615D01*
X69633694Y-62944679D01*
X69672085Y-62945590D01*
X69725054Y-62946338D01*
X69790748Y-62946914D01*
X69867313Y-62947308D01*
X69952893Y-62947511D01*
X70045637Y-62947511D01*
X70143689Y-62947300D01*
X70235762Y-62946917D01*
X70788930Y-62944081D01*
X70843790Y-62965924D01*
X70898667Y-62995849D01*
X70951907Y-63039433D01*
X70999277Y-63092234D01*
X71036543Y-63149809D01*
X71052277Y-63184752D01*
X71059894Y-63205774D01*
X71065755Y-63224424D01*
X71070091Y-63243447D01*
X71073132Y-63265588D01*
X71075106Y-63293594D01*
X71076245Y-63330209D01*
X71076778Y-63378180D01*
X71076934Y-63440252D01*
X71076943Y-63479357D01*
X71076943Y-63707415D01*
X69943178Y-63707415D01*
X68809413Y-63707415D01*
X68809413Y-62866775D01*
X68809413Y-62026134D01*
X69129489Y-62023308D01*
X69206392Y-62022730D01*
X69279312Y-62022374D01*
X69345767Y-62022238D01*
X69403277Y-62022318D01*
G37*
G36*
X72290921Y-62940693D02*
G01*
X72414239Y-62940949D01*
X72554431Y-62941334D01*
X72586923Y-62941431D01*
X73413449Y-62943952D01*
X73473117Y-62973331D01*
X73543315Y-63017618D01*
X73601834Y-63074891D01*
X73643583Y-63137505D01*
X73658845Y-63168640D01*
X73670640Y-63199099D01*
X73679343Y-63231746D01*
X73685330Y-63269443D01*
X73688978Y-63315053D01*
X73690661Y-63371436D01*
X73690755Y-63441457D01*
X73690187Y-63492549D01*
X73687346Y-63693700D01*
X72555867Y-63696022D01*
X71424387Y-63698344D01*
X71424387Y-63475927D01*
X71424591Y-63402413D01*
X71425298Y-63344647D01*
X71426652Y-63300094D01*
X71428797Y-63266217D01*
X71431879Y-63240482D01*
X71436041Y-63220353D01*
X71439603Y-63208450D01*
X71473549Y-63133837D01*
X71520842Y-63068417D01*
X71579153Y-63014433D01*
X71646151Y-62974131D01*
X71704701Y-62953179D01*
X71716090Y-62950701D01*
X71730419Y-62948535D01*
X71748850Y-62946667D01*
X71772545Y-62945082D01*
X71802664Y-62943762D01*
X71840368Y-62942694D01*
X71886820Y-62941862D01*
X71943180Y-62941249D01*
X72010608Y-62940842D01*
X72090267Y-62940623D01*
X72183318Y-62940579D01*
X72290921Y-62940693D01*
G37*
G36*
X75265701Y-62939815D02*
G01*
X75275784Y-62942366D01*
X75286101Y-62949027D01*
X75298385Y-62961772D01*
X75314366Y-62982575D01*
X75335775Y-63013412D01*
X75364342Y-63056258D01*
X75387994Y-63092127D01*
X75427764Y-63152116D01*
X75472649Y-63219174D01*
X75518495Y-63287133D01*
X75561148Y-63349828D01*
X75584575Y-63383941D01*
X75620291Y-63435741D01*
X75657237Y-63489411D01*
X75692230Y-63540323D01*
X75722089Y-63583846D01*
X75737307Y-63606087D01*
X75794035Y-63689129D01*
X75690750Y-63689129D01*
X75638595Y-63689422D01*
X75576562Y-63690218D01*
X75513050Y-63691387D01*
X75464872Y-63692561D01*
X75412548Y-63693588D01*
X75360436Y-63693855D01*
X75314535Y-63693374D01*
X75280842Y-63692161D01*
X75280561Y-63692143D01*
X75247629Y-63689531D01*
X75228913Y-63685823D01*
X75220350Y-63679463D01*
X75217875Y-63668896D01*
X75217834Y-63668139D01*
X75217165Y-63646026D01*
X75216574Y-63609602D01*
X75216067Y-63561352D01*
X75215644Y-63503758D01*
X75215311Y-63439307D01*
X75215069Y-63370481D01*
X75214923Y-63299766D01*
X75214875Y-63229645D01*
X75214929Y-63162603D01*
X75215087Y-63101124D01*
X75215354Y-63047692D01*
X75215732Y-63004792D01*
X75216224Y-62974908D01*
X75216834Y-62960525D01*
X75216917Y-62959953D01*
X75223074Y-62945867D01*
X75238005Y-62940137D01*
X75254122Y-62939399D01*
X75265701Y-62939815D01*
G37*
G36*
X58633315Y-62500528D02*
G01*
X58726164Y-62500630D01*
X58803479Y-62500853D01*
X58866639Y-62501241D01*
X58917019Y-62501837D01*
X58955997Y-62502687D01*
X58984949Y-62503832D01*
X59005253Y-62505318D01*
X59018284Y-62507188D01*
X59025420Y-62509485D01*
X59028037Y-62512253D01*
X59027513Y-62515536D01*
X59027019Y-62516505D01*
X59019032Y-62529126D01*
X59002558Y-62553917D01*
X58979525Y-62588015D01*
X58951864Y-62628561D01*
X58929908Y-62660511D01*
X58900375Y-62703626D01*
X58863202Y-62758307D01*
X58820866Y-62820886D01*
X58775844Y-62887697D01*
X58730613Y-62955071D01*
X58693887Y-63009992D01*
X58546094Y-63231467D01*
X58278653Y-63231716D01*
X58011212Y-63231965D01*
X58011212Y-62866235D01*
X58011212Y-62500504D01*
X58523557Y-62500504D01*
X58633315Y-62500528D01*
G37*
G36*
X60041018Y-62326782D02*
G01*
X60041018Y-62628510D01*
X59675287Y-62628510D01*
X59309557Y-62628510D01*
X59309557Y-62326782D01*
X59309557Y-62025054D01*
X59675287Y-62025054D01*
X60041018Y-62025054D01*
X60041018Y-62326782D01*
G37*
%TO.C,QR\u002A\u002A\u002A\u002A\u002A*%
D12*
X56250000Y-75675000D02*
X72950000Y-75675000D01*
X56250000Y-92375000D02*
X56250000Y-75675000D01*
X72950000Y-75675000D02*
X72950000Y-92375000D01*
X72950000Y-92375000D02*
X56250000Y-92375000D01*
G36*
X56350000Y-75775000D02*
G01*
X56850000Y-75775000D01*
X56850000Y-76275000D01*
X56350000Y-76275000D01*
X56350000Y-75775000D01*
G37*
G36*
X56350000Y-76275000D02*
G01*
X56850000Y-76275000D01*
X56850000Y-76775000D01*
X56350000Y-76775000D01*
X56350000Y-76275000D01*
G37*
G36*
X56350000Y-76775000D02*
G01*
X56850000Y-76775000D01*
X56850000Y-77275000D01*
X56350000Y-77275000D01*
X56350000Y-76775000D01*
G37*
G36*
X56350000Y-77275000D02*
G01*
X56850000Y-77275000D01*
X56850000Y-77775000D01*
X56350000Y-77775000D01*
X56350000Y-77275000D01*
G37*
G36*
X56350000Y-77775000D02*
G01*
X56850000Y-77775000D01*
X56850000Y-78275000D01*
X56350000Y-78275000D01*
X56350000Y-77775000D01*
G37*
G36*
X56350000Y-78275000D02*
G01*
X56850000Y-78275000D01*
X56850000Y-78775000D01*
X56350000Y-78775000D01*
X56350000Y-78275000D01*
G37*
G36*
X56350000Y-78775000D02*
G01*
X56850000Y-78775000D01*
X56850000Y-79275000D01*
X56350000Y-79275000D01*
X56350000Y-78775000D01*
G37*
G36*
X56350000Y-79775000D02*
G01*
X56850000Y-79775000D01*
X56850000Y-80275000D01*
X56350000Y-80275000D01*
X56350000Y-79775000D01*
G37*
G36*
X56350000Y-80275000D02*
G01*
X56850000Y-80275000D01*
X56850000Y-80775000D01*
X56350000Y-80775000D01*
X56350000Y-80275000D01*
G37*
G36*
X56350000Y-82775000D02*
G01*
X56850000Y-82775000D01*
X56850000Y-83275000D01*
X56350000Y-83275000D01*
X56350000Y-82775000D01*
G37*
G36*
X56350000Y-83275000D02*
G01*
X56850000Y-83275000D01*
X56850000Y-83775000D01*
X56350000Y-83775000D01*
X56350000Y-83275000D01*
G37*
G36*
X56350000Y-84775000D02*
G01*
X56850000Y-84775000D01*
X56850000Y-85275000D01*
X56350000Y-85275000D01*
X56350000Y-84775000D01*
G37*
G36*
X56350000Y-85275000D02*
G01*
X56850000Y-85275000D01*
X56850000Y-85775000D01*
X56350000Y-85775000D01*
X56350000Y-85275000D01*
G37*
G36*
X56350000Y-85775000D02*
G01*
X56850000Y-85775000D01*
X56850000Y-86275000D01*
X56350000Y-86275000D01*
X56350000Y-85775000D01*
G37*
G36*
X56350000Y-86275000D02*
G01*
X56850000Y-86275000D01*
X56850000Y-86775000D01*
X56350000Y-86775000D01*
X56350000Y-86275000D01*
G37*
G36*
X56350000Y-87775000D02*
G01*
X56850000Y-87775000D01*
X56850000Y-88275000D01*
X56350000Y-88275000D01*
X56350000Y-87775000D01*
G37*
G36*
X56350000Y-88775000D02*
G01*
X56850000Y-88775000D01*
X56850000Y-89275000D01*
X56350000Y-89275000D01*
X56350000Y-88775000D01*
G37*
G36*
X56350000Y-89275000D02*
G01*
X56850000Y-89275000D01*
X56850000Y-89775000D01*
X56350000Y-89775000D01*
X56350000Y-89275000D01*
G37*
G36*
X56350000Y-89775000D02*
G01*
X56850000Y-89775000D01*
X56850000Y-90275000D01*
X56350000Y-90275000D01*
X56350000Y-89775000D01*
G37*
G36*
X56350000Y-90275000D02*
G01*
X56850000Y-90275000D01*
X56850000Y-90775000D01*
X56350000Y-90775000D01*
X56350000Y-90275000D01*
G37*
G36*
X56350000Y-90775000D02*
G01*
X56850000Y-90775000D01*
X56850000Y-91275000D01*
X56350000Y-91275000D01*
X56350000Y-90775000D01*
G37*
G36*
X56350000Y-91275000D02*
G01*
X56850000Y-91275000D01*
X56850000Y-91775000D01*
X56350000Y-91775000D01*
X56350000Y-91275000D01*
G37*
G36*
X56350000Y-91775000D02*
G01*
X56850000Y-91775000D01*
X56850000Y-92275000D01*
X56350000Y-92275000D01*
X56350000Y-91775000D01*
G37*
G36*
X56850000Y-75775000D02*
G01*
X57350000Y-75775000D01*
X57350000Y-76275000D01*
X56850000Y-76275000D01*
X56850000Y-75775000D01*
G37*
G36*
X56850000Y-78775000D02*
G01*
X57350000Y-78775000D01*
X57350000Y-79275000D01*
X56850000Y-79275000D01*
X56850000Y-78775000D01*
G37*
G36*
X56850000Y-80775000D02*
G01*
X57350000Y-80775000D01*
X57350000Y-81275000D01*
X56850000Y-81275000D01*
X56850000Y-80775000D01*
G37*
G36*
X56850000Y-81775000D02*
G01*
X57350000Y-81775000D01*
X57350000Y-82275000D01*
X56850000Y-82275000D01*
X56850000Y-81775000D01*
G37*
G36*
X56850000Y-82275000D02*
G01*
X57350000Y-82275000D01*
X57350000Y-82775000D01*
X56850000Y-82775000D01*
X56850000Y-82275000D01*
G37*
G36*
X56850000Y-82775000D02*
G01*
X57350000Y-82775000D01*
X57350000Y-83275000D01*
X56850000Y-83275000D01*
X56850000Y-82775000D01*
G37*
G36*
X56850000Y-83275000D02*
G01*
X57350000Y-83275000D01*
X57350000Y-83775000D01*
X56850000Y-83775000D01*
X56850000Y-83275000D01*
G37*
G36*
X56850000Y-83775000D02*
G01*
X57350000Y-83775000D01*
X57350000Y-84275000D01*
X56850000Y-84275000D01*
X56850000Y-83775000D01*
G37*
G36*
X56850000Y-85275000D02*
G01*
X57350000Y-85275000D01*
X57350000Y-85775000D01*
X56850000Y-85775000D01*
X56850000Y-85275000D01*
G37*
G36*
X56850000Y-87775000D02*
G01*
X57350000Y-87775000D01*
X57350000Y-88275000D01*
X56850000Y-88275000D01*
X56850000Y-87775000D01*
G37*
G36*
X56850000Y-88775000D02*
G01*
X57350000Y-88775000D01*
X57350000Y-89275000D01*
X56850000Y-89275000D01*
X56850000Y-88775000D01*
G37*
G36*
X56850000Y-91775000D02*
G01*
X57350000Y-91775000D01*
X57350000Y-92275000D01*
X56850000Y-92275000D01*
X56850000Y-91775000D01*
G37*
G36*
X57350000Y-75775000D02*
G01*
X57850000Y-75775000D01*
X57850000Y-76275000D01*
X57350000Y-76275000D01*
X57350000Y-75775000D01*
G37*
G36*
X57350000Y-76775000D02*
G01*
X57850000Y-76775000D01*
X57850000Y-77275000D01*
X57350000Y-77275000D01*
X57350000Y-76775000D01*
G37*
G36*
X57350000Y-77275000D02*
G01*
X57850000Y-77275000D01*
X57850000Y-77775000D01*
X57350000Y-77775000D01*
X57350000Y-77275000D01*
G37*
G36*
X57350000Y-77775000D02*
G01*
X57850000Y-77775000D01*
X57850000Y-78275000D01*
X57350000Y-78275000D01*
X57350000Y-77775000D01*
G37*
G36*
X57350000Y-78775000D02*
G01*
X57850000Y-78775000D01*
X57850000Y-79275000D01*
X57350000Y-79275000D01*
X57350000Y-78775000D01*
G37*
G36*
X57350000Y-80275000D02*
G01*
X57850000Y-80275000D01*
X57850000Y-80775000D01*
X57350000Y-80775000D01*
X57350000Y-80275000D01*
G37*
G36*
X57350000Y-81275000D02*
G01*
X57850000Y-81275000D01*
X57850000Y-81775000D01*
X57350000Y-81775000D01*
X57350000Y-81275000D01*
G37*
G36*
X57350000Y-83775000D02*
G01*
X57850000Y-83775000D01*
X57850000Y-84275000D01*
X57350000Y-84275000D01*
X57350000Y-83775000D01*
G37*
G36*
X57350000Y-84275000D02*
G01*
X57850000Y-84275000D01*
X57850000Y-84775000D01*
X57350000Y-84775000D01*
X57350000Y-84275000D01*
G37*
G36*
X57350000Y-84775000D02*
G01*
X57850000Y-84775000D01*
X57850000Y-85275000D01*
X57350000Y-85275000D01*
X57350000Y-84775000D01*
G37*
G36*
X57350000Y-85275000D02*
G01*
X57850000Y-85275000D01*
X57850000Y-85775000D01*
X57350000Y-85775000D01*
X57350000Y-85275000D01*
G37*
G36*
X57350000Y-85775000D02*
G01*
X57850000Y-85775000D01*
X57850000Y-86275000D01*
X57350000Y-86275000D01*
X57350000Y-85775000D01*
G37*
G36*
X57350000Y-86275000D02*
G01*
X57850000Y-86275000D01*
X57850000Y-86775000D01*
X57350000Y-86775000D01*
X57350000Y-86275000D01*
G37*
G36*
X57350000Y-87275000D02*
G01*
X57850000Y-87275000D01*
X57850000Y-87775000D01*
X57350000Y-87775000D01*
X57350000Y-87275000D01*
G37*
G36*
X57350000Y-87775000D02*
G01*
X57850000Y-87775000D01*
X57850000Y-88275000D01*
X57350000Y-88275000D01*
X57350000Y-87775000D01*
G37*
G36*
X57350000Y-88775000D02*
G01*
X57850000Y-88775000D01*
X57850000Y-89275000D01*
X57350000Y-89275000D01*
X57350000Y-88775000D01*
G37*
G36*
X57350000Y-89775000D02*
G01*
X57850000Y-89775000D01*
X57850000Y-90275000D01*
X57350000Y-90275000D01*
X57350000Y-89775000D01*
G37*
G36*
X57350000Y-90275000D02*
G01*
X57850000Y-90275000D01*
X57850000Y-90775000D01*
X57350000Y-90775000D01*
X57350000Y-90275000D01*
G37*
G36*
X57350000Y-90775000D02*
G01*
X57850000Y-90775000D01*
X57850000Y-91275000D01*
X57350000Y-91275000D01*
X57350000Y-90775000D01*
G37*
G36*
X57350000Y-91775000D02*
G01*
X57850000Y-91775000D01*
X57850000Y-92275000D01*
X57350000Y-92275000D01*
X57350000Y-91775000D01*
G37*
G36*
X57850000Y-75775000D02*
G01*
X58350000Y-75775000D01*
X58350000Y-76275000D01*
X57850000Y-76275000D01*
X57850000Y-75775000D01*
G37*
G36*
X57850000Y-76775000D02*
G01*
X58350000Y-76775000D01*
X58350000Y-77275000D01*
X57850000Y-77275000D01*
X57850000Y-76775000D01*
G37*
G36*
X57850000Y-77275000D02*
G01*
X58350000Y-77275000D01*
X58350000Y-77775000D01*
X57850000Y-77775000D01*
X57850000Y-77275000D01*
G37*
G36*
X57850000Y-77775000D02*
G01*
X58350000Y-77775000D01*
X58350000Y-78275000D01*
X57850000Y-78275000D01*
X57850000Y-77775000D01*
G37*
G36*
X57850000Y-78775000D02*
G01*
X58350000Y-78775000D01*
X58350000Y-79275000D01*
X57850000Y-79275000D01*
X57850000Y-78775000D01*
G37*
G36*
X57850000Y-80275000D02*
G01*
X58350000Y-80275000D01*
X58350000Y-80775000D01*
X57850000Y-80775000D01*
X57850000Y-80275000D01*
G37*
G36*
X57850000Y-80775000D02*
G01*
X58350000Y-80775000D01*
X58350000Y-81275000D01*
X57850000Y-81275000D01*
X57850000Y-80775000D01*
G37*
G36*
X57850000Y-81775000D02*
G01*
X58350000Y-81775000D01*
X58350000Y-82275000D01*
X57850000Y-82275000D01*
X57850000Y-81775000D01*
G37*
G36*
X57850000Y-82775000D02*
G01*
X58350000Y-82775000D01*
X58350000Y-83275000D01*
X57850000Y-83275000D01*
X57850000Y-82775000D01*
G37*
G36*
X57850000Y-83275000D02*
G01*
X58350000Y-83275000D01*
X58350000Y-83775000D01*
X57850000Y-83775000D01*
X57850000Y-83275000D01*
G37*
G36*
X57850000Y-84275000D02*
G01*
X58350000Y-84275000D01*
X58350000Y-84775000D01*
X57850000Y-84775000D01*
X57850000Y-84275000D01*
G37*
G36*
X57850000Y-85775000D02*
G01*
X58350000Y-85775000D01*
X58350000Y-86275000D01*
X57850000Y-86275000D01*
X57850000Y-85775000D01*
G37*
G36*
X57850000Y-86275000D02*
G01*
X58350000Y-86275000D01*
X58350000Y-86775000D01*
X57850000Y-86775000D01*
X57850000Y-86275000D01*
G37*
G36*
X57850000Y-88775000D02*
G01*
X58350000Y-88775000D01*
X58350000Y-89275000D01*
X57850000Y-89275000D01*
X57850000Y-88775000D01*
G37*
G36*
X57850000Y-89775000D02*
G01*
X58350000Y-89775000D01*
X58350000Y-90275000D01*
X57850000Y-90275000D01*
X57850000Y-89775000D01*
G37*
G36*
X57850000Y-90275000D02*
G01*
X58350000Y-90275000D01*
X58350000Y-90775000D01*
X57850000Y-90775000D01*
X57850000Y-90275000D01*
G37*
G36*
X57850000Y-90775000D02*
G01*
X58350000Y-90775000D01*
X58350000Y-91275000D01*
X57850000Y-91275000D01*
X57850000Y-90775000D01*
G37*
G36*
X57850000Y-91775000D02*
G01*
X58350000Y-91775000D01*
X58350000Y-92275000D01*
X57850000Y-92275000D01*
X57850000Y-91775000D01*
G37*
G36*
X58350000Y-75775000D02*
G01*
X58850000Y-75775000D01*
X58850000Y-76275000D01*
X58350000Y-76275000D01*
X58350000Y-75775000D01*
G37*
G36*
X58350000Y-76775000D02*
G01*
X58850000Y-76775000D01*
X58850000Y-77275000D01*
X58350000Y-77275000D01*
X58350000Y-76775000D01*
G37*
G36*
X58350000Y-77275000D02*
G01*
X58850000Y-77275000D01*
X58850000Y-77775000D01*
X58350000Y-77775000D01*
X58350000Y-77275000D01*
G37*
G36*
X58350000Y-77775000D02*
G01*
X58850000Y-77775000D01*
X58850000Y-78275000D01*
X58350000Y-78275000D01*
X58350000Y-77775000D01*
G37*
G36*
X58350000Y-78775000D02*
G01*
X58850000Y-78775000D01*
X58850000Y-79275000D01*
X58350000Y-79275000D01*
X58350000Y-78775000D01*
G37*
G36*
X58350000Y-79775000D02*
G01*
X58850000Y-79775000D01*
X58850000Y-80275000D01*
X58350000Y-80275000D01*
X58350000Y-79775000D01*
G37*
G36*
X58350000Y-80275000D02*
G01*
X58850000Y-80275000D01*
X58850000Y-80775000D01*
X58350000Y-80775000D01*
X58350000Y-80275000D01*
G37*
G36*
X58350000Y-82275000D02*
G01*
X58850000Y-82275000D01*
X58850000Y-82775000D01*
X58350000Y-82775000D01*
X58350000Y-82275000D01*
G37*
G36*
X58350000Y-82775000D02*
G01*
X58850000Y-82775000D01*
X58850000Y-83275000D01*
X58350000Y-83275000D01*
X58350000Y-82775000D01*
G37*
G36*
X58350000Y-83775000D02*
G01*
X58850000Y-83775000D01*
X58850000Y-84275000D01*
X58350000Y-84275000D01*
X58350000Y-83775000D01*
G37*
G36*
X58350000Y-84275000D02*
G01*
X58850000Y-84275000D01*
X58850000Y-84775000D01*
X58350000Y-84775000D01*
X58350000Y-84275000D01*
G37*
G36*
X58350000Y-85275000D02*
G01*
X58850000Y-85275000D01*
X58850000Y-85775000D01*
X58350000Y-85775000D01*
X58350000Y-85275000D01*
G37*
G36*
X58350000Y-86275000D02*
G01*
X58850000Y-86275000D01*
X58850000Y-86775000D01*
X58350000Y-86775000D01*
X58350000Y-86275000D01*
G37*
G36*
X58350000Y-86775000D02*
G01*
X58850000Y-86775000D01*
X58850000Y-87275000D01*
X58350000Y-87275000D01*
X58350000Y-86775000D01*
G37*
G36*
X58350000Y-87275000D02*
G01*
X58850000Y-87275000D01*
X58850000Y-87775000D01*
X58350000Y-87775000D01*
X58350000Y-87275000D01*
G37*
G36*
X58350000Y-87775000D02*
G01*
X58850000Y-87775000D01*
X58850000Y-88275000D01*
X58350000Y-88275000D01*
X58350000Y-87775000D01*
G37*
G36*
X58350000Y-88775000D02*
G01*
X58850000Y-88775000D01*
X58850000Y-89275000D01*
X58350000Y-89275000D01*
X58350000Y-88775000D01*
G37*
G36*
X58350000Y-89775000D02*
G01*
X58850000Y-89775000D01*
X58850000Y-90275000D01*
X58350000Y-90275000D01*
X58350000Y-89775000D01*
G37*
G36*
X58350000Y-90275000D02*
G01*
X58850000Y-90275000D01*
X58850000Y-90775000D01*
X58350000Y-90775000D01*
X58350000Y-90275000D01*
G37*
G36*
X58350000Y-90775000D02*
G01*
X58850000Y-90775000D01*
X58850000Y-91275000D01*
X58350000Y-91275000D01*
X58350000Y-90775000D01*
G37*
G36*
X58350000Y-91775000D02*
G01*
X58850000Y-91775000D01*
X58850000Y-92275000D01*
X58350000Y-92275000D01*
X58350000Y-91775000D01*
G37*
G36*
X58850000Y-75775000D02*
G01*
X59350000Y-75775000D01*
X59350000Y-76275000D01*
X58850000Y-76275000D01*
X58850000Y-75775000D01*
G37*
G36*
X58850000Y-78775000D02*
G01*
X59350000Y-78775000D01*
X59350000Y-79275000D01*
X58850000Y-79275000D01*
X58850000Y-78775000D01*
G37*
G36*
X58850000Y-81775000D02*
G01*
X59350000Y-81775000D01*
X59350000Y-82275000D01*
X58850000Y-82275000D01*
X58850000Y-81775000D01*
G37*
G36*
X58850000Y-82275000D02*
G01*
X59350000Y-82275000D01*
X59350000Y-82775000D01*
X58850000Y-82775000D01*
X58850000Y-82275000D01*
G37*
G36*
X58850000Y-83275000D02*
G01*
X59350000Y-83275000D01*
X59350000Y-83775000D01*
X58850000Y-83775000D01*
X58850000Y-83275000D01*
G37*
G36*
X58850000Y-83775000D02*
G01*
X59350000Y-83775000D01*
X59350000Y-84275000D01*
X58850000Y-84275000D01*
X58850000Y-83775000D01*
G37*
G36*
X58850000Y-84275000D02*
G01*
X59350000Y-84275000D01*
X59350000Y-84775000D01*
X58850000Y-84775000D01*
X58850000Y-84275000D01*
G37*
G36*
X58850000Y-84775000D02*
G01*
X59350000Y-84775000D01*
X59350000Y-85275000D01*
X58850000Y-85275000D01*
X58850000Y-84775000D01*
G37*
G36*
X58850000Y-85775000D02*
G01*
X59350000Y-85775000D01*
X59350000Y-86275000D01*
X58850000Y-86275000D01*
X58850000Y-85775000D01*
G37*
G36*
X58850000Y-86775000D02*
G01*
X59350000Y-86775000D01*
X59350000Y-87275000D01*
X58850000Y-87275000D01*
X58850000Y-86775000D01*
G37*
G36*
X58850000Y-87275000D02*
G01*
X59350000Y-87275000D01*
X59350000Y-87775000D01*
X58850000Y-87775000D01*
X58850000Y-87275000D01*
G37*
G36*
X58850000Y-88775000D02*
G01*
X59350000Y-88775000D01*
X59350000Y-89275000D01*
X58850000Y-89275000D01*
X58850000Y-88775000D01*
G37*
G36*
X58850000Y-91775000D02*
G01*
X59350000Y-91775000D01*
X59350000Y-92275000D01*
X58850000Y-92275000D01*
X58850000Y-91775000D01*
G37*
G36*
X59350000Y-75775000D02*
G01*
X59850000Y-75775000D01*
X59850000Y-76275000D01*
X59350000Y-76275000D01*
X59350000Y-75775000D01*
G37*
G36*
X59350000Y-76275000D02*
G01*
X59850000Y-76275000D01*
X59850000Y-76775000D01*
X59350000Y-76775000D01*
X59350000Y-76275000D01*
G37*
G36*
X59350000Y-76775000D02*
G01*
X59850000Y-76775000D01*
X59850000Y-77275000D01*
X59350000Y-77275000D01*
X59350000Y-76775000D01*
G37*
G36*
X59350000Y-77275000D02*
G01*
X59850000Y-77275000D01*
X59850000Y-77775000D01*
X59350000Y-77775000D01*
X59350000Y-77275000D01*
G37*
G36*
X59350000Y-77775000D02*
G01*
X59850000Y-77775000D01*
X59850000Y-78275000D01*
X59350000Y-78275000D01*
X59350000Y-77775000D01*
G37*
G36*
X59350000Y-78275000D02*
G01*
X59850000Y-78275000D01*
X59850000Y-78775000D01*
X59350000Y-78775000D01*
X59350000Y-78275000D01*
G37*
G36*
X59350000Y-78775000D02*
G01*
X59850000Y-78775000D01*
X59850000Y-79275000D01*
X59350000Y-79275000D01*
X59350000Y-78775000D01*
G37*
G36*
X59350000Y-79775000D02*
G01*
X59850000Y-79775000D01*
X59850000Y-80275000D01*
X59350000Y-80275000D01*
X59350000Y-79775000D01*
G37*
G36*
X59350000Y-80775000D02*
G01*
X59850000Y-80775000D01*
X59850000Y-81275000D01*
X59350000Y-81275000D01*
X59350000Y-80775000D01*
G37*
G36*
X59350000Y-81775000D02*
G01*
X59850000Y-81775000D01*
X59850000Y-82275000D01*
X59350000Y-82275000D01*
X59350000Y-81775000D01*
G37*
G36*
X59350000Y-82775000D02*
G01*
X59850000Y-82775000D01*
X59850000Y-83275000D01*
X59350000Y-83275000D01*
X59350000Y-82775000D01*
G37*
G36*
X59350000Y-83775000D02*
G01*
X59850000Y-83775000D01*
X59850000Y-84275000D01*
X59350000Y-84275000D01*
X59350000Y-83775000D01*
G37*
G36*
X59350000Y-84775000D02*
G01*
X59850000Y-84775000D01*
X59850000Y-85275000D01*
X59350000Y-85275000D01*
X59350000Y-84775000D01*
G37*
G36*
X59350000Y-85775000D02*
G01*
X59850000Y-85775000D01*
X59850000Y-86275000D01*
X59350000Y-86275000D01*
X59350000Y-85775000D01*
G37*
G36*
X59350000Y-86775000D02*
G01*
X59850000Y-86775000D01*
X59850000Y-87275000D01*
X59350000Y-87275000D01*
X59350000Y-86775000D01*
G37*
G36*
X59350000Y-87775000D02*
G01*
X59850000Y-87775000D01*
X59850000Y-88275000D01*
X59350000Y-88275000D01*
X59350000Y-87775000D01*
G37*
G36*
X59350000Y-88775000D02*
G01*
X59850000Y-88775000D01*
X59850000Y-89275000D01*
X59350000Y-89275000D01*
X59350000Y-88775000D01*
G37*
G36*
X59350000Y-89275000D02*
G01*
X59850000Y-89275000D01*
X59850000Y-89775000D01*
X59350000Y-89775000D01*
X59350000Y-89275000D01*
G37*
G36*
X59350000Y-89775000D02*
G01*
X59850000Y-89775000D01*
X59850000Y-90275000D01*
X59350000Y-90275000D01*
X59350000Y-89775000D01*
G37*
G36*
X59350000Y-90275000D02*
G01*
X59850000Y-90275000D01*
X59850000Y-90775000D01*
X59350000Y-90775000D01*
X59350000Y-90275000D01*
G37*
G36*
X59350000Y-90775000D02*
G01*
X59850000Y-90775000D01*
X59850000Y-91275000D01*
X59350000Y-91275000D01*
X59350000Y-90775000D01*
G37*
G36*
X59350000Y-91275000D02*
G01*
X59850000Y-91275000D01*
X59850000Y-91775000D01*
X59350000Y-91775000D01*
X59350000Y-91275000D01*
G37*
G36*
X59350000Y-91775000D02*
G01*
X59850000Y-91775000D01*
X59850000Y-92275000D01*
X59350000Y-92275000D01*
X59350000Y-91775000D01*
G37*
G36*
X59850000Y-79775000D02*
G01*
X60350000Y-79775000D01*
X60350000Y-80275000D01*
X59850000Y-80275000D01*
X59850000Y-79775000D01*
G37*
G36*
X59850000Y-80275000D02*
G01*
X60350000Y-80275000D01*
X60350000Y-80775000D01*
X59850000Y-80775000D01*
X59850000Y-80275000D01*
G37*
G36*
X59850000Y-80775000D02*
G01*
X60350000Y-80775000D01*
X60350000Y-81275000D01*
X59850000Y-81275000D01*
X59850000Y-80775000D01*
G37*
G36*
X59850000Y-82275000D02*
G01*
X60350000Y-82275000D01*
X60350000Y-82775000D01*
X59850000Y-82775000D01*
X59850000Y-82275000D01*
G37*
G36*
X59850000Y-83775000D02*
G01*
X60350000Y-83775000D01*
X60350000Y-84275000D01*
X59850000Y-84275000D01*
X59850000Y-83775000D01*
G37*
G36*
X59850000Y-85775000D02*
G01*
X60350000Y-85775000D01*
X60350000Y-86275000D01*
X59850000Y-86275000D01*
X59850000Y-85775000D01*
G37*
G36*
X59850000Y-86275000D02*
G01*
X60350000Y-86275000D01*
X60350000Y-86775000D01*
X59850000Y-86775000D01*
X59850000Y-86275000D01*
G37*
G36*
X59850000Y-86775000D02*
G01*
X60350000Y-86775000D01*
X60350000Y-87275000D01*
X59850000Y-87275000D01*
X59850000Y-86775000D01*
G37*
G36*
X59850000Y-87275000D02*
G01*
X60350000Y-87275000D01*
X60350000Y-87775000D01*
X59850000Y-87775000D01*
X59850000Y-87275000D01*
G37*
G36*
X60350000Y-75775000D02*
G01*
X60850000Y-75775000D01*
X60850000Y-76275000D01*
X60350000Y-76275000D01*
X60350000Y-75775000D01*
G37*
G36*
X60350000Y-77275000D02*
G01*
X60850000Y-77275000D01*
X60850000Y-77775000D01*
X60350000Y-77775000D01*
X60350000Y-77275000D01*
G37*
G36*
X60350000Y-77775000D02*
G01*
X60850000Y-77775000D01*
X60850000Y-78275000D01*
X60350000Y-78275000D01*
X60350000Y-77775000D01*
G37*
G36*
X60350000Y-78275000D02*
G01*
X60850000Y-78275000D01*
X60850000Y-78775000D01*
X60350000Y-78775000D01*
X60350000Y-78275000D01*
G37*
G36*
X60350000Y-78775000D02*
G01*
X60850000Y-78775000D01*
X60850000Y-79275000D01*
X60350000Y-79275000D01*
X60350000Y-78775000D01*
G37*
G36*
X60350000Y-79275000D02*
G01*
X60850000Y-79275000D01*
X60850000Y-79775000D01*
X60350000Y-79775000D01*
X60350000Y-79275000D01*
G37*
G36*
X60350000Y-79775000D02*
G01*
X60850000Y-79775000D01*
X60850000Y-80275000D01*
X60350000Y-80275000D01*
X60350000Y-79775000D01*
G37*
G36*
X60350000Y-81275000D02*
G01*
X60850000Y-81275000D01*
X60850000Y-81775000D01*
X60350000Y-81775000D01*
X60350000Y-81275000D01*
G37*
G36*
X60350000Y-84275000D02*
G01*
X60850000Y-84275000D01*
X60850000Y-84775000D01*
X60350000Y-84775000D01*
X60350000Y-84275000D01*
G37*
G36*
X60350000Y-85275000D02*
G01*
X60850000Y-85275000D01*
X60850000Y-85775000D01*
X60350000Y-85775000D01*
X60350000Y-85275000D01*
G37*
G36*
X60350000Y-86275000D02*
G01*
X60850000Y-86275000D01*
X60850000Y-86775000D01*
X60350000Y-86775000D01*
X60350000Y-86275000D01*
G37*
G36*
X60350000Y-86775000D02*
G01*
X60850000Y-86775000D01*
X60850000Y-87275000D01*
X60350000Y-87275000D01*
X60350000Y-86775000D01*
G37*
G36*
X60350000Y-87775000D02*
G01*
X60850000Y-87775000D01*
X60850000Y-88275000D01*
X60350000Y-88275000D01*
X60350000Y-87775000D01*
G37*
G36*
X60350000Y-88275000D02*
G01*
X60850000Y-88275000D01*
X60850000Y-88775000D01*
X60350000Y-88775000D01*
X60350000Y-88275000D01*
G37*
G36*
X60350000Y-88775000D02*
G01*
X60850000Y-88775000D01*
X60850000Y-89275000D01*
X60350000Y-89275000D01*
X60350000Y-88775000D01*
G37*
G36*
X60350000Y-89775000D02*
G01*
X60850000Y-89775000D01*
X60850000Y-90275000D01*
X60350000Y-90275000D01*
X60350000Y-89775000D01*
G37*
G36*
X60350000Y-91775000D02*
G01*
X60850000Y-91775000D01*
X60850000Y-92275000D01*
X60350000Y-92275000D01*
X60350000Y-91775000D01*
G37*
G36*
X60850000Y-76275000D02*
G01*
X61350000Y-76275000D01*
X61350000Y-76775000D01*
X60850000Y-76775000D01*
X60850000Y-76275000D01*
G37*
G36*
X60850000Y-76775000D02*
G01*
X61350000Y-76775000D01*
X61350000Y-77275000D01*
X60850000Y-77275000D01*
X60850000Y-76775000D01*
G37*
G36*
X60850000Y-77275000D02*
G01*
X61350000Y-77275000D01*
X61350000Y-77775000D01*
X60850000Y-77775000D01*
X60850000Y-77275000D01*
G37*
G36*
X60850000Y-77775000D02*
G01*
X61350000Y-77775000D01*
X61350000Y-78275000D01*
X60850000Y-78275000D01*
X60850000Y-77775000D01*
G37*
G36*
X60850000Y-79275000D02*
G01*
X61350000Y-79275000D01*
X61350000Y-79775000D01*
X60850000Y-79775000D01*
X60850000Y-79275000D01*
G37*
G36*
X60850000Y-79775000D02*
G01*
X61350000Y-79775000D01*
X61350000Y-80275000D01*
X60850000Y-80275000D01*
X60850000Y-79775000D01*
G37*
G36*
X60850000Y-80275000D02*
G01*
X61350000Y-80275000D01*
X61350000Y-80775000D01*
X60850000Y-80775000D01*
X60850000Y-80275000D01*
G37*
G36*
X60850000Y-81775000D02*
G01*
X61350000Y-81775000D01*
X61350000Y-82275000D01*
X60850000Y-82275000D01*
X60850000Y-81775000D01*
G37*
G36*
X60850000Y-82275000D02*
G01*
X61350000Y-82275000D01*
X61350000Y-82775000D01*
X60850000Y-82775000D01*
X60850000Y-82275000D01*
G37*
G36*
X60850000Y-83775000D02*
G01*
X61350000Y-83775000D01*
X61350000Y-84275000D01*
X60850000Y-84275000D01*
X60850000Y-83775000D01*
G37*
G36*
X60850000Y-85275000D02*
G01*
X61350000Y-85275000D01*
X61350000Y-85775000D01*
X60850000Y-85775000D01*
X60850000Y-85275000D01*
G37*
G36*
X60850000Y-86775000D02*
G01*
X61350000Y-86775000D01*
X61350000Y-87275000D01*
X60850000Y-87275000D01*
X60850000Y-86775000D01*
G37*
G36*
X60850000Y-88275000D02*
G01*
X61350000Y-88275000D01*
X61350000Y-88775000D01*
X60850000Y-88775000D01*
X60850000Y-88275000D01*
G37*
G36*
X60850000Y-88775000D02*
G01*
X61350000Y-88775000D01*
X61350000Y-89275000D01*
X60850000Y-89275000D01*
X60850000Y-88775000D01*
G37*
G36*
X60850000Y-90775000D02*
G01*
X61350000Y-90775000D01*
X61350000Y-91275000D01*
X60850000Y-91275000D01*
X60850000Y-90775000D01*
G37*
G36*
X60850000Y-91275000D02*
G01*
X61350000Y-91275000D01*
X61350000Y-91775000D01*
X60850000Y-91775000D01*
X60850000Y-91275000D01*
G37*
G36*
X61350000Y-77275000D02*
G01*
X61850000Y-77275000D01*
X61850000Y-77775000D01*
X61350000Y-77775000D01*
X61350000Y-77275000D01*
G37*
G36*
X61350000Y-77775000D02*
G01*
X61850000Y-77775000D01*
X61850000Y-78275000D01*
X61350000Y-78275000D01*
X61350000Y-77775000D01*
G37*
G36*
X61350000Y-78775000D02*
G01*
X61850000Y-78775000D01*
X61850000Y-79275000D01*
X61350000Y-79275000D01*
X61350000Y-78775000D01*
G37*
G36*
X61350000Y-79775000D02*
G01*
X61850000Y-79775000D01*
X61850000Y-80275000D01*
X61350000Y-80275000D01*
X61350000Y-79775000D01*
G37*
G36*
X61350000Y-81275000D02*
G01*
X61850000Y-81275000D01*
X61850000Y-81775000D01*
X61350000Y-81775000D01*
X61350000Y-81275000D01*
G37*
G36*
X61350000Y-81775000D02*
G01*
X61850000Y-81775000D01*
X61850000Y-82275000D01*
X61350000Y-82275000D01*
X61350000Y-81775000D01*
G37*
G36*
X61350000Y-82275000D02*
G01*
X61850000Y-82275000D01*
X61850000Y-82775000D01*
X61350000Y-82775000D01*
X61350000Y-82275000D01*
G37*
G36*
X61350000Y-82775000D02*
G01*
X61850000Y-82775000D01*
X61850000Y-83275000D01*
X61350000Y-83275000D01*
X61350000Y-82775000D01*
G37*
G36*
X61350000Y-83775000D02*
G01*
X61850000Y-83775000D01*
X61850000Y-84275000D01*
X61350000Y-84275000D01*
X61350000Y-83775000D01*
G37*
G36*
X61350000Y-84775000D02*
G01*
X61850000Y-84775000D01*
X61850000Y-85275000D01*
X61350000Y-85275000D01*
X61350000Y-84775000D01*
G37*
G36*
X61350000Y-86775000D02*
G01*
X61850000Y-86775000D01*
X61850000Y-87275000D01*
X61350000Y-87275000D01*
X61350000Y-86775000D01*
G37*
G36*
X61350000Y-87275000D02*
G01*
X61850000Y-87275000D01*
X61850000Y-87775000D01*
X61350000Y-87775000D01*
X61350000Y-87275000D01*
G37*
G36*
X61350000Y-88275000D02*
G01*
X61850000Y-88275000D01*
X61850000Y-88775000D01*
X61350000Y-88775000D01*
X61350000Y-88275000D01*
G37*
G36*
X61350000Y-88775000D02*
G01*
X61850000Y-88775000D01*
X61850000Y-89275000D01*
X61350000Y-89275000D01*
X61350000Y-88775000D01*
G37*
G36*
X61350000Y-89275000D02*
G01*
X61850000Y-89275000D01*
X61850000Y-89775000D01*
X61350000Y-89775000D01*
X61350000Y-89275000D01*
G37*
G36*
X61350000Y-90775000D02*
G01*
X61850000Y-90775000D01*
X61850000Y-91275000D01*
X61350000Y-91275000D01*
X61350000Y-90775000D01*
G37*
G36*
X61350000Y-91275000D02*
G01*
X61850000Y-91275000D01*
X61850000Y-91775000D01*
X61350000Y-91775000D01*
X61350000Y-91275000D01*
G37*
G36*
X61850000Y-76275000D02*
G01*
X62350000Y-76275000D01*
X62350000Y-76775000D01*
X61850000Y-76775000D01*
X61850000Y-76275000D01*
G37*
G36*
X61850000Y-76775000D02*
G01*
X62350000Y-76775000D01*
X62350000Y-77275000D01*
X61850000Y-77275000D01*
X61850000Y-76775000D01*
G37*
G36*
X61850000Y-77275000D02*
G01*
X62350000Y-77275000D01*
X62350000Y-77775000D01*
X61850000Y-77775000D01*
X61850000Y-77275000D01*
G37*
G36*
X61850000Y-79275000D02*
G01*
X62350000Y-79275000D01*
X62350000Y-79775000D01*
X61850000Y-79775000D01*
X61850000Y-79275000D01*
G37*
G36*
X61850000Y-79775000D02*
G01*
X62350000Y-79775000D01*
X62350000Y-80275000D01*
X61850000Y-80275000D01*
X61850000Y-79775000D01*
G37*
G36*
X61850000Y-80275000D02*
G01*
X62350000Y-80275000D01*
X62350000Y-80775000D01*
X61850000Y-80775000D01*
X61850000Y-80275000D01*
G37*
G36*
X61850000Y-81275000D02*
G01*
X62350000Y-81275000D01*
X62350000Y-81775000D01*
X61850000Y-81775000D01*
X61850000Y-81275000D01*
G37*
G36*
X61850000Y-81775000D02*
G01*
X62350000Y-81775000D01*
X62350000Y-82275000D01*
X61850000Y-82275000D01*
X61850000Y-81775000D01*
G37*
G36*
X61850000Y-82775000D02*
G01*
X62350000Y-82775000D01*
X62350000Y-83275000D01*
X61850000Y-83275000D01*
X61850000Y-82775000D01*
G37*
G36*
X61850000Y-85275000D02*
G01*
X62350000Y-85275000D01*
X62350000Y-85775000D01*
X61850000Y-85775000D01*
X61850000Y-85275000D01*
G37*
G36*
X61850000Y-85775000D02*
G01*
X62350000Y-85775000D01*
X62350000Y-86275000D01*
X61850000Y-86275000D01*
X61850000Y-85775000D01*
G37*
G36*
X61850000Y-86275000D02*
G01*
X62350000Y-86275000D01*
X62350000Y-86775000D01*
X61850000Y-86775000D01*
X61850000Y-86275000D01*
G37*
G36*
X61850000Y-87775000D02*
G01*
X62350000Y-87775000D01*
X62350000Y-88275000D01*
X61850000Y-88275000D01*
X61850000Y-87775000D01*
G37*
G36*
X61850000Y-88275000D02*
G01*
X62350000Y-88275000D01*
X62350000Y-88775000D01*
X61850000Y-88775000D01*
X61850000Y-88275000D01*
G37*
G36*
X61850000Y-88775000D02*
G01*
X62350000Y-88775000D01*
X62350000Y-89275000D01*
X61850000Y-89275000D01*
X61850000Y-88775000D01*
G37*
G36*
X61850000Y-89775000D02*
G01*
X62350000Y-89775000D01*
X62350000Y-90275000D01*
X61850000Y-90275000D01*
X61850000Y-89775000D01*
G37*
G36*
X61850000Y-90775000D02*
G01*
X62350000Y-90775000D01*
X62350000Y-91275000D01*
X61850000Y-91275000D01*
X61850000Y-90775000D01*
G37*
G36*
X61850000Y-91275000D02*
G01*
X62350000Y-91275000D01*
X62350000Y-91775000D01*
X61850000Y-91775000D01*
X61850000Y-91275000D01*
G37*
G36*
X62350000Y-75775000D02*
G01*
X62850000Y-75775000D01*
X62850000Y-76275000D01*
X62350000Y-76275000D01*
X62350000Y-75775000D01*
G37*
G36*
X62350000Y-76275000D02*
G01*
X62850000Y-76275000D01*
X62850000Y-76775000D01*
X62350000Y-76775000D01*
X62350000Y-76275000D01*
G37*
G36*
X62350000Y-78275000D02*
G01*
X62850000Y-78275000D01*
X62850000Y-78775000D01*
X62350000Y-78775000D01*
X62350000Y-78275000D01*
G37*
G36*
X62350000Y-78775000D02*
G01*
X62850000Y-78775000D01*
X62850000Y-79275000D01*
X62350000Y-79275000D01*
X62350000Y-78775000D01*
G37*
G36*
X62350000Y-79275000D02*
G01*
X62850000Y-79275000D01*
X62850000Y-79775000D01*
X62350000Y-79775000D01*
X62350000Y-79275000D01*
G37*
G36*
X62350000Y-79775000D02*
G01*
X62850000Y-79775000D01*
X62850000Y-80275000D01*
X62350000Y-80275000D01*
X62350000Y-79775000D01*
G37*
G36*
X62350000Y-80275000D02*
G01*
X62850000Y-80275000D01*
X62850000Y-80775000D01*
X62350000Y-80775000D01*
X62350000Y-80275000D01*
G37*
G36*
X62350000Y-81275000D02*
G01*
X62850000Y-81275000D01*
X62850000Y-81775000D01*
X62350000Y-81775000D01*
X62350000Y-81275000D01*
G37*
G36*
X62350000Y-81775000D02*
G01*
X62850000Y-81775000D01*
X62850000Y-82275000D01*
X62350000Y-82275000D01*
X62350000Y-81775000D01*
G37*
G36*
X62350000Y-82275000D02*
G01*
X62850000Y-82275000D01*
X62850000Y-82775000D01*
X62350000Y-82775000D01*
X62350000Y-82275000D01*
G37*
G36*
X62350000Y-82775000D02*
G01*
X62850000Y-82775000D01*
X62850000Y-83275000D01*
X62350000Y-83275000D01*
X62350000Y-82775000D01*
G37*
G36*
X62350000Y-84775000D02*
G01*
X62850000Y-84775000D01*
X62850000Y-85275000D01*
X62350000Y-85275000D01*
X62350000Y-84775000D01*
G37*
G36*
X62350000Y-85275000D02*
G01*
X62850000Y-85275000D01*
X62850000Y-85775000D01*
X62350000Y-85775000D01*
X62350000Y-85275000D01*
G37*
G36*
X62350000Y-86275000D02*
G01*
X62850000Y-86275000D01*
X62850000Y-86775000D01*
X62350000Y-86775000D01*
X62350000Y-86275000D01*
G37*
G36*
X62350000Y-87275000D02*
G01*
X62850000Y-87275000D01*
X62850000Y-87775000D01*
X62350000Y-87775000D01*
X62350000Y-87275000D01*
G37*
G36*
X62350000Y-87775000D02*
G01*
X62850000Y-87775000D01*
X62850000Y-88275000D01*
X62350000Y-88275000D01*
X62350000Y-87775000D01*
G37*
G36*
X62350000Y-89775000D02*
G01*
X62850000Y-89775000D01*
X62850000Y-90275000D01*
X62350000Y-90275000D01*
X62350000Y-89775000D01*
G37*
G36*
X62350000Y-90775000D02*
G01*
X62850000Y-90775000D01*
X62850000Y-91275000D01*
X62350000Y-91275000D01*
X62350000Y-90775000D01*
G37*
G36*
X62350000Y-91275000D02*
G01*
X62850000Y-91275000D01*
X62850000Y-91775000D01*
X62350000Y-91775000D01*
X62350000Y-91275000D01*
G37*
G36*
X62850000Y-75775000D02*
G01*
X63350000Y-75775000D01*
X63350000Y-76275000D01*
X62850000Y-76275000D01*
X62850000Y-75775000D01*
G37*
G36*
X62850000Y-76275000D02*
G01*
X63350000Y-76275000D01*
X63350000Y-76775000D01*
X62850000Y-76775000D01*
X62850000Y-76275000D01*
G37*
G36*
X62850000Y-77775000D02*
G01*
X63350000Y-77775000D01*
X63350000Y-78275000D01*
X62850000Y-78275000D01*
X62850000Y-77775000D01*
G37*
G36*
X62850000Y-80775000D02*
G01*
X63350000Y-80775000D01*
X63350000Y-81275000D01*
X62850000Y-81275000D01*
X62850000Y-80775000D01*
G37*
G36*
X62850000Y-81275000D02*
G01*
X63350000Y-81275000D01*
X63350000Y-81775000D01*
X62850000Y-81775000D01*
X62850000Y-81275000D01*
G37*
G36*
X62850000Y-81775000D02*
G01*
X63350000Y-81775000D01*
X63350000Y-82275000D01*
X62850000Y-82275000D01*
X62850000Y-81775000D01*
G37*
G36*
X62850000Y-82275000D02*
G01*
X63350000Y-82275000D01*
X63350000Y-82775000D01*
X62850000Y-82775000D01*
X62850000Y-82275000D01*
G37*
G36*
X62850000Y-82775000D02*
G01*
X63350000Y-82775000D01*
X63350000Y-83275000D01*
X62850000Y-83275000D01*
X62850000Y-82775000D01*
G37*
G36*
X62850000Y-83775000D02*
G01*
X63350000Y-83775000D01*
X63350000Y-84275000D01*
X62850000Y-84275000D01*
X62850000Y-83775000D01*
G37*
G36*
X62850000Y-84775000D02*
G01*
X63350000Y-84775000D01*
X63350000Y-85275000D01*
X62850000Y-85275000D01*
X62850000Y-84775000D01*
G37*
G36*
X62850000Y-85275000D02*
G01*
X63350000Y-85275000D01*
X63350000Y-85775000D01*
X62850000Y-85775000D01*
X62850000Y-85275000D01*
G37*
G36*
X62850000Y-86775000D02*
G01*
X63350000Y-86775000D01*
X63350000Y-87275000D01*
X62850000Y-87275000D01*
X62850000Y-86775000D01*
G37*
G36*
X62850000Y-87275000D02*
G01*
X63350000Y-87275000D01*
X63350000Y-87775000D01*
X62850000Y-87775000D01*
X62850000Y-87275000D01*
G37*
G36*
X62850000Y-88275000D02*
G01*
X63350000Y-88275000D01*
X63350000Y-88775000D01*
X62850000Y-88775000D01*
X62850000Y-88275000D01*
G37*
G36*
X62850000Y-88775000D02*
G01*
X63350000Y-88775000D01*
X63350000Y-89275000D01*
X62850000Y-89275000D01*
X62850000Y-88775000D01*
G37*
G36*
X62850000Y-90275000D02*
G01*
X63350000Y-90275000D01*
X63350000Y-90775000D01*
X62850000Y-90775000D01*
X62850000Y-90275000D01*
G37*
G36*
X62850000Y-90775000D02*
G01*
X63350000Y-90775000D01*
X63350000Y-91275000D01*
X62850000Y-91275000D01*
X62850000Y-90775000D01*
G37*
G36*
X63350000Y-76275000D02*
G01*
X63850000Y-76275000D01*
X63850000Y-76775000D01*
X63350000Y-76775000D01*
X63350000Y-76275000D01*
G37*
G36*
X63350000Y-76775000D02*
G01*
X63850000Y-76775000D01*
X63850000Y-77275000D01*
X63350000Y-77275000D01*
X63350000Y-76775000D01*
G37*
G36*
X63350000Y-78275000D02*
G01*
X63850000Y-78275000D01*
X63850000Y-78775000D01*
X63350000Y-78775000D01*
X63350000Y-78275000D01*
G37*
G36*
X63350000Y-78775000D02*
G01*
X63850000Y-78775000D01*
X63850000Y-79275000D01*
X63350000Y-79275000D01*
X63350000Y-78775000D01*
G37*
G36*
X63350000Y-80275000D02*
G01*
X63850000Y-80275000D01*
X63850000Y-80775000D01*
X63350000Y-80775000D01*
X63350000Y-80275000D01*
G37*
G36*
X63350000Y-80775000D02*
G01*
X63850000Y-80775000D01*
X63850000Y-81275000D01*
X63350000Y-81275000D01*
X63350000Y-80775000D01*
G37*
G36*
X63350000Y-82275000D02*
G01*
X63850000Y-82275000D01*
X63850000Y-82775000D01*
X63350000Y-82775000D01*
X63350000Y-82275000D01*
G37*
G36*
X63350000Y-83275000D02*
G01*
X63850000Y-83275000D01*
X63850000Y-83775000D01*
X63350000Y-83775000D01*
X63350000Y-83275000D01*
G37*
G36*
X63350000Y-83775000D02*
G01*
X63850000Y-83775000D01*
X63850000Y-84275000D01*
X63350000Y-84275000D01*
X63350000Y-83775000D01*
G37*
G36*
X63350000Y-84275000D02*
G01*
X63850000Y-84275000D01*
X63850000Y-84775000D01*
X63350000Y-84775000D01*
X63350000Y-84275000D01*
G37*
G36*
X63350000Y-85275000D02*
G01*
X63850000Y-85275000D01*
X63850000Y-85775000D01*
X63350000Y-85775000D01*
X63350000Y-85275000D01*
G37*
G36*
X63350000Y-86775000D02*
G01*
X63850000Y-86775000D01*
X63850000Y-87275000D01*
X63350000Y-87275000D01*
X63350000Y-86775000D01*
G37*
G36*
X63350000Y-87275000D02*
G01*
X63850000Y-87275000D01*
X63850000Y-87775000D01*
X63350000Y-87775000D01*
X63350000Y-87275000D01*
G37*
G36*
X63350000Y-88275000D02*
G01*
X63850000Y-88275000D01*
X63850000Y-88775000D01*
X63350000Y-88775000D01*
X63350000Y-88275000D01*
G37*
G36*
X63350000Y-89275000D02*
G01*
X63850000Y-89275000D01*
X63850000Y-89775000D01*
X63350000Y-89775000D01*
X63350000Y-89275000D01*
G37*
G36*
X63350000Y-90275000D02*
G01*
X63850000Y-90275000D01*
X63850000Y-90775000D01*
X63350000Y-90775000D01*
X63350000Y-90275000D01*
G37*
G36*
X63350000Y-91775000D02*
G01*
X63850000Y-91775000D01*
X63850000Y-92275000D01*
X63350000Y-92275000D01*
X63350000Y-91775000D01*
G37*
G36*
X63850000Y-75775000D02*
G01*
X64350000Y-75775000D01*
X64350000Y-76275000D01*
X63850000Y-76275000D01*
X63850000Y-75775000D01*
G37*
G36*
X63850000Y-76775000D02*
G01*
X64350000Y-76775000D01*
X64350000Y-77275000D01*
X63850000Y-77275000D01*
X63850000Y-76775000D01*
G37*
G36*
X63850000Y-77275000D02*
G01*
X64350000Y-77275000D01*
X64350000Y-77775000D01*
X63850000Y-77775000D01*
X63850000Y-77275000D01*
G37*
G36*
X63850000Y-78275000D02*
G01*
X64350000Y-78275000D01*
X64350000Y-78775000D01*
X63850000Y-78775000D01*
X63850000Y-78275000D01*
G37*
G36*
X63850000Y-79775000D02*
G01*
X64350000Y-79775000D01*
X64350000Y-80275000D01*
X63850000Y-80275000D01*
X63850000Y-79775000D01*
G37*
G36*
X63850000Y-80275000D02*
G01*
X64350000Y-80275000D01*
X64350000Y-80775000D01*
X63850000Y-80775000D01*
X63850000Y-80275000D01*
G37*
G36*
X63850000Y-80775000D02*
G01*
X64350000Y-80775000D01*
X64350000Y-81275000D01*
X63850000Y-81275000D01*
X63850000Y-80775000D01*
G37*
G36*
X63850000Y-82775000D02*
G01*
X64350000Y-82775000D01*
X64350000Y-83275000D01*
X63850000Y-83275000D01*
X63850000Y-82775000D01*
G37*
G36*
X63850000Y-83275000D02*
G01*
X64350000Y-83275000D01*
X64350000Y-83775000D01*
X63850000Y-83775000D01*
X63850000Y-83275000D01*
G37*
G36*
X63850000Y-84275000D02*
G01*
X64350000Y-84275000D01*
X64350000Y-84775000D01*
X63850000Y-84775000D01*
X63850000Y-84275000D01*
G37*
G36*
X63850000Y-84775000D02*
G01*
X64350000Y-84775000D01*
X64350000Y-85275000D01*
X63850000Y-85275000D01*
X63850000Y-84775000D01*
G37*
G36*
X63850000Y-87775000D02*
G01*
X64350000Y-87775000D01*
X64350000Y-88275000D01*
X63850000Y-88275000D01*
X63850000Y-87775000D01*
G37*
G36*
X63850000Y-88275000D02*
G01*
X64350000Y-88275000D01*
X64350000Y-88775000D01*
X63850000Y-88775000D01*
X63850000Y-88275000D01*
G37*
G36*
X63850000Y-88775000D02*
G01*
X64350000Y-88775000D01*
X64350000Y-89275000D01*
X63850000Y-89275000D01*
X63850000Y-88775000D01*
G37*
G36*
X63850000Y-89275000D02*
G01*
X64350000Y-89275000D01*
X64350000Y-89775000D01*
X63850000Y-89775000D01*
X63850000Y-89275000D01*
G37*
G36*
X63850000Y-89775000D02*
G01*
X64350000Y-89775000D01*
X64350000Y-90275000D01*
X63850000Y-90275000D01*
X63850000Y-89775000D01*
G37*
G36*
X63850000Y-90775000D02*
G01*
X64350000Y-90775000D01*
X64350000Y-91275000D01*
X63850000Y-91275000D01*
X63850000Y-90775000D01*
G37*
G36*
X63850000Y-91275000D02*
G01*
X64350000Y-91275000D01*
X64350000Y-91775000D01*
X63850000Y-91775000D01*
X63850000Y-91275000D01*
G37*
G36*
X64350000Y-75775000D02*
G01*
X64850000Y-75775000D01*
X64850000Y-76275000D01*
X64350000Y-76275000D01*
X64350000Y-75775000D01*
G37*
G36*
X64350000Y-76275000D02*
G01*
X64850000Y-76275000D01*
X64850000Y-76775000D01*
X64350000Y-76775000D01*
X64350000Y-76275000D01*
G37*
G36*
X64350000Y-77275000D02*
G01*
X64850000Y-77275000D01*
X64850000Y-77775000D01*
X64350000Y-77775000D01*
X64350000Y-77275000D01*
G37*
G36*
X64350000Y-77775000D02*
G01*
X64850000Y-77775000D01*
X64850000Y-78275000D01*
X64350000Y-78275000D01*
X64350000Y-77775000D01*
G37*
G36*
X64350000Y-78775000D02*
G01*
X64850000Y-78775000D01*
X64850000Y-79275000D01*
X64350000Y-79275000D01*
X64350000Y-78775000D01*
G37*
G36*
X64350000Y-80275000D02*
G01*
X64850000Y-80275000D01*
X64850000Y-80775000D01*
X64350000Y-80775000D01*
X64350000Y-80275000D01*
G37*
G36*
X64350000Y-80775000D02*
G01*
X64850000Y-80775000D01*
X64850000Y-81275000D01*
X64350000Y-81275000D01*
X64350000Y-80775000D01*
G37*
G36*
X64350000Y-81775000D02*
G01*
X64850000Y-81775000D01*
X64850000Y-82275000D01*
X64350000Y-82275000D01*
X64350000Y-81775000D01*
G37*
G36*
X64350000Y-83275000D02*
G01*
X64850000Y-83275000D01*
X64850000Y-83775000D01*
X64350000Y-83775000D01*
X64350000Y-83275000D01*
G37*
G36*
X64350000Y-84275000D02*
G01*
X64850000Y-84275000D01*
X64850000Y-84775000D01*
X64350000Y-84775000D01*
X64350000Y-84275000D01*
G37*
G36*
X64350000Y-84775000D02*
G01*
X64850000Y-84775000D01*
X64850000Y-85275000D01*
X64350000Y-85275000D01*
X64350000Y-84775000D01*
G37*
G36*
X64350000Y-86275000D02*
G01*
X64850000Y-86275000D01*
X64850000Y-86775000D01*
X64350000Y-86775000D01*
X64350000Y-86275000D01*
G37*
G36*
X64350000Y-86775000D02*
G01*
X64850000Y-86775000D01*
X64850000Y-87275000D01*
X64350000Y-87275000D01*
X64350000Y-86775000D01*
G37*
G36*
X64350000Y-88275000D02*
G01*
X64850000Y-88275000D01*
X64850000Y-88775000D01*
X64350000Y-88775000D01*
X64350000Y-88275000D01*
G37*
G36*
X64350000Y-89275000D02*
G01*
X64850000Y-89275000D01*
X64850000Y-89775000D01*
X64350000Y-89775000D01*
X64350000Y-89275000D01*
G37*
G36*
X64350000Y-89775000D02*
G01*
X64850000Y-89775000D01*
X64850000Y-90275000D01*
X64350000Y-90275000D01*
X64350000Y-89775000D01*
G37*
G36*
X64350000Y-91275000D02*
G01*
X64850000Y-91275000D01*
X64850000Y-91775000D01*
X64350000Y-91775000D01*
X64350000Y-91275000D01*
G37*
G36*
X64850000Y-76775000D02*
G01*
X65350000Y-76775000D01*
X65350000Y-77275000D01*
X64850000Y-77275000D01*
X64850000Y-76775000D01*
G37*
G36*
X64850000Y-77275000D02*
G01*
X65350000Y-77275000D01*
X65350000Y-77775000D01*
X64850000Y-77775000D01*
X64850000Y-77275000D01*
G37*
G36*
X64850000Y-77775000D02*
G01*
X65350000Y-77775000D01*
X65350000Y-78275000D01*
X64850000Y-78275000D01*
X64850000Y-77775000D01*
G37*
G36*
X64850000Y-79275000D02*
G01*
X65350000Y-79275000D01*
X65350000Y-79775000D01*
X64850000Y-79775000D01*
X64850000Y-79275000D01*
G37*
G36*
X64850000Y-80275000D02*
G01*
X65350000Y-80275000D01*
X65350000Y-80775000D01*
X64850000Y-80775000D01*
X64850000Y-80275000D01*
G37*
G36*
X64850000Y-82275000D02*
G01*
X65350000Y-82275000D01*
X65350000Y-82775000D01*
X64850000Y-82775000D01*
X64850000Y-82275000D01*
G37*
G36*
X64850000Y-82775000D02*
G01*
X65350000Y-82775000D01*
X65350000Y-83275000D01*
X64850000Y-83275000D01*
X64850000Y-82775000D01*
G37*
G36*
X64850000Y-83275000D02*
G01*
X65350000Y-83275000D01*
X65350000Y-83775000D01*
X64850000Y-83775000D01*
X64850000Y-83275000D01*
G37*
G36*
X64850000Y-83775000D02*
G01*
X65350000Y-83775000D01*
X65350000Y-84275000D01*
X64850000Y-84275000D01*
X64850000Y-83775000D01*
G37*
G36*
X64850000Y-84775000D02*
G01*
X65350000Y-84775000D01*
X65350000Y-85275000D01*
X64850000Y-85275000D01*
X64850000Y-84775000D01*
G37*
G36*
X64850000Y-85275000D02*
G01*
X65350000Y-85275000D01*
X65350000Y-85775000D01*
X64850000Y-85775000D01*
X64850000Y-85275000D01*
G37*
G36*
X64850000Y-86275000D02*
G01*
X65350000Y-86275000D01*
X65350000Y-86775000D01*
X64850000Y-86775000D01*
X64850000Y-86275000D01*
G37*
G36*
X64850000Y-87275000D02*
G01*
X65350000Y-87275000D01*
X65350000Y-87775000D01*
X64850000Y-87775000D01*
X64850000Y-87275000D01*
G37*
G36*
X64850000Y-88275000D02*
G01*
X65350000Y-88275000D01*
X65350000Y-88775000D01*
X64850000Y-88775000D01*
X64850000Y-88275000D01*
G37*
G36*
X64850000Y-90775000D02*
G01*
X65350000Y-90775000D01*
X65350000Y-91275000D01*
X64850000Y-91275000D01*
X64850000Y-90775000D01*
G37*
G36*
X64850000Y-91275000D02*
G01*
X65350000Y-91275000D01*
X65350000Y-91775000D01*
X64850000Y-91775000D01*
X64850000Y-91275000D01*
G37*
G36*
X64850000Y-91775000D02*
G01*
X65350000Y-91775000D01*
X65350000Y-92275000D01*
X64850000Y-92275000D01*
X64850000Y-91775000D01*
G37*
G36*
X65350000Y-75775000D02*
G01*
X65850000Y-75775000D01*
X65850000Y-76275000D01*
X65350000Y-76275000D01*
X65350000Y-75775000D01*
G37*
G36*
X65350000Y-77775000D02*
G01*
X65850000Y-77775000D01*
X65850000Y-78275000D01*
X65350000Y-78275000D01*
X65350000Y-77775000D01*
G37*
G36*
X65350000Y-78775000D02*
G01*
X65850000Y-78775000D01*
X65850000Y-79275000D01*
X65350000Y-79275000D01*
X65350000Y-78775000D01*
G37*
G36*
X65350000Y-79275000D02*
G01*
X65850000Y-79275000D01*
X65850000Y-79775000D01*
X65350000Y-79775000D01*
X65350000Y-79275000D01*
G37*
G36*
X65350000Y-80775000D02*
G01*
X65850000Y-80775000D01*
X65850000Y-81275000D01*
X65350000Y-81275000D01*
X65350000Y-80775000D01*
G37*
G36*
X65350000Y-82275000D02*
G01*
X65850000Y-82275000D01*
X65850000Y-82775000D01*
X65350000Y-82775000D01*
X65350000Y-82275000D01*
G37*
G36*
X65350000Y-83275000D02*
G01*
X65850000Y-83275000D01*
X65850000Y-83775000D01*
X65350000Y-83775000D01*
X65350000Y-83275000D01*
G37*
G36*
X65350000Y-83775000D02*
G01*
X65850000Y-83775000D01*
X65850000Y-84275000D01*
X65350000Y-84275000D01*
X65350000Y-83775000D01*
G37*
G36*
X65350000Y-84275000D02*
G01*
X65850000Y-84275000D01*
X65850000Y-84775000D01*
X65350000Y-84775000D01*
X65350000Y-84275000D01*
G37*
G36*
X65350000Y-85275000D02*
G01*
X65850000Y-85275000D01*
X65850000Y-85775000D01*
X65350000Y-85775000D01*
X65350000Y-85275000D01*
G37*
G36*
X65350000Y-85775000D02*
G01*
X65850000Y-85775000D01*
X65850000Y-86275000D01*
X65350000Y-86275000D01*
X65350000Y-85775000D01*
G37*
G36*
X65350000Y-86775000D02*
G01*
X65850000Y-86775000D01*
X65850000Y-87275000D01*
X65350000Y-87275000D01*
X65350000Y-86775000D01*
G37*
G36*
X65350000Y-87275000D02*
G01*
X65850000Y-87275000D01*
X65850000Y-87775000D01*
X65350000Y-87775000D01*
X65350000Y-87275000D01*
G37*
G36*
X65350000Y-88275000D02*
G01*
X65850000Y-88275000D01*
X65850000Y-88775000D01*
X65350000Y-88775000D01*
X65350000Y-88275000D01*
G37*
G36*
X65350000Y-88775000D02*
G01*
X65850000Y-88775000D01*
X65850000Y-89275000D01*
X65350000Y-89275000D01*
X65350000Y-88775000D01*
G37*
G36*
X65350000Y-90275000D02*
G01*
X65850000Y-90275000D01*
X65850000Y-90775000D01*
X65350000Y-90775000D01*
X65350000Y-90275000D01*
G37*
G36*
X65350000Y-90775000D02*
G01*
X65850000Y-90775000D01*
X65850000Y-91275000D01*
X65350000Y-91275000D01*
X65350000Y-90775000D01*
G37*
G36*
X65850000Y-76275000D02*
G01*
X66350000Y-76275000D01*
X66350000Y-76775000D01*
X65850000Y-76775000D01*
X65850000Y-76275000D01*
G37*
G36*
X65850000Y-78275000D02*
G01*
X66350000Y-78275000D01*
X66350000Y-78775000D01*
X65850000Y-78775000D01*
X65850000Y-78275000D01*
G37*
G36*
X65850000Y-81275000D02*
G01*
X66350000Y-81275000D01*
X66350000Y-81775000D01*
X65850000Y-81775000D01*
X65850000Y-81275000D01*
G37*
G36*
X65850000Y-83275000D02*
G01*
X66350000Y-83275000D01*
X66350000Y-83775000D01*
X65850000Y-83775000D01*
X65850000Y-83275000D01*
G37*
G36*
X65850000Y-83775000D02*
G01*
X66350000Y-83775000D01*
X66350000Y-84275000D01*
X65850000Y-84275000D01*
X65850000Y-83775000D01*
G37*
G36*
X65850000Y-85775000D02*
G01*
X66350000Y-85775000D01*
X66350000Y-86275000D01*
X65850000Y-86275000D01*
X65850000Y-85775000D01*
G37*
G36*
X65850000Y-87275000D02*
G01*
X66350000Y-87275000D01*
X66350000Y-87775000D01*
X65850000Y-87775000D01*
X65850000Y-87275000D01*
G37*
G36*
X65850000Y-89275000D02*
G01*
X66350000Y-89275000D01*
X66350000Y-89775000D01*
X65850000Y-89775000D01*
X65850000Y-89275000D01*
G37*
G36*
X65850000Y-89775000D02*
G01*
X66350000Y-89775000D01*
X66350000Y-90275000D01*
X65850000Y-90275000D01*
X65850000Y-89775000D01*
G37*
G36*
X65850000Y-91775000D02*
G01*
X66350000Y-91775000D01*
X66350000Y-92275000D01*
X65850000Y-92275000D01*
X65850000Y-91775000D01*
G37*
G36*
X66350000Y-75775000D02*
G01*
X66850000Y-75775000D01*
X66850000Y-76275000D01*
X66350000Y-76275000D01*
X66350000Y-75775000D01*
G37*
G36*
X66350000Y-77275000D02*
G01*
X66850000Y-77275000D01*
X66850000Y-77775000D01*
X66350000Y-77775000D01*
X66350000Y-77275000D01*
G37*
G36*
X66350000Y-78775000D02*
G01*
X66850000Y-78775000D01*
X66850000Y-79275000D01*
X66350000Y-79275000D01*
X66350000Y-78775000D01*
G37*
G36*
X66350000Y-79775000D02*
G01*
X66850000Y-79775000D01*
X66850000Y-80275000D01*
X66350000Y-80275000D01*
X66350000Y-79775000D01*
G37*
G36*
X66350000Y-80775000D02*
G01*
X66850000Y-80775000D01*
X66850000Y-81275000D01*
X66350000Y-81275000D01*
X66350000Y-80775000D01*
G37*
G36*
X66350000Y-81775000D02*
G01*
X66850000Y-81775000D01*
X66850000Y-82275000D01*
X66350000Y-82275000D01*
X66350000Y-81775000D01*
G37*
G36*
X66350000Y-82775000D02*
G01*
X66850000Y-82775000D01*
X66850000Y-83275000D01*
X66350000Y-83275000D01*
X66350000Y-82775000D01*
G37*
G36*
X66350000Y-83275000D02*
G01*
X66850000Y-83275000D01*
X66850000Y-83775000D01*
X66350000Y-83775000D01*
X66350000Y-83275000D01*
G37*
G36*
X66350000Y-83775000D02*
G01*
X66850000Y-83775000D01*
X66850000Y-84275000D01*
X66350000Y-84275000D01*
X66350000Y-83775000D01*
G37*
G36*
X66350000Y-84775000D02*
G01*
X66850000Y-84775000D01*
X66850000Y-85275000D01*
X66350000Y-85275000D01*
X66350000Y-84775000D01*
G37*
G36*
X66350000Y-85775000D02*
G01*
X66850000Y-85775000D01*
X66850000Y-86275000D01*
X66350000Y-86275000D01*
X66350000Y-85775000D01*
G37*
G36*
X66350000Y-87275000D02*
G01*
X66850000Y-87275000D01*
X66850000Y-87775000D01*
X66350000Y-87775000D01*
X66350000Y-87275000D01*
G37*
G36*
X66350000Y-87775000D02*
G01*
X66850000Y-87775000D01*
X66850000Y-88275000D01*
X66350000Y-88275000D01*
X66350000Y-87775000D01*
G37*
G36*
X66350000Y-88775000D02*
G01*
X66850000Y-88775000D01*
X66850000Y-89275000D01*
X66350000Y-89275000D01*
X66350000Y-88775000D01*
G37*
G36*
X66350000Y-89775000D02*
G01*
X66850000Y-89775000D01*
X66850000Y-90275000D01*
X66350000Y-90275000D01*
X66350000Y-89775000D01*
G37*
G36*
X66350000Y-90275000D02*
G01*
X66850000Y-90275000D01*
X66850000Y-90775000D01*
X66350000Y-90775000D01*
X66350000Y-90275000D01*
G37*
G36*
X66350000Y-90775000D02*
G01*
X66850000Y-90775000D01*
X66850000Y-91275000D01*
X66350000Y-91275000D01*
X66350000Y-90775000D01*
G37*
G36*
X66350000Y-91275000D02*
G01*
X66850000Y-91275000D01*
X66850000Y-91775000D01*
X66350000Y-91775000D01*
X66350000Y-91275000D01*
G37*
G36*
X66850000Y-76775000D02*
G01*
X67350000Y-76775000D01*
X67350000Y-77275000D01*
X66850000Y-77275000D01*
X66850000Y-76775000D01*
G37*
G36*
X66850000Y-77775000D02*
G01*
X67350000Y-77775000D01*
X67350000Y-78275000D01*
X66850000Y-78275000D01*
X66850000Y-77775000D01*
G37*
G36*
X66850000Y-79275000D02*
G01*
X67350000Y-79275000D01*
X67350000Y-79775000D01*
X66850000Y-79775000D01*
X66850000Y-79275000D01*
G37*
G36*
X66850000Y-79775000D02*
G01*
X67350000Y-79775000D01*
X67350000Y-80275000D01*
X66850000Y-80275000D01*
X66850000Y-79775000D01*
G37*
G36*
X66850000Y-81275000D02*
G01*
X67350000Y-81275000D01*
X67350000Y-81775000D01*
X66850000Y-81775000D01*
X66850000Y-81275000D01*
G37*
G36*
X66850000Y-81775000D02*
G01*
X67350000Y-81775000D01*
X67350000Y-82275000D01*
X66850000Y-82275000D01*
X66850000Y-81775000D01*
G37*
G36*
X66850000Y-82275000D02*
G01*
X67350000Y-82275000D01*
X67350000Y-82775000D01*
X66850000Y-82775000D01*
X66850000Y-82275000D01*
G37*
G36*
X66850000Y-83275000D02*
G01*
X67350000Y-83275000D01*
X67350000Y-83775000D01*
X66850000Y-83775000D01*
X66850000Y-83275000D01*
G37*
G36*
X66850000Y-84275000D02*
G01*
X67350000Y-84275000D01*
X67350000Y-84775000D01*
X66850000Y-84775000D01*
X66850000Y-84275000D01*
G37*
G36*
X66850000Y-84775000D02*
G01*
X67350000Y-84775000D01*
X67350000Y-85275000D01*
X66850000Y-85275000D01*
X66850000Y-84775000D01*
G37*
G36*
X66850000Y-85275000D02*
G01*
X67350000Y-85275000D01*
X67350000Y-85775000D01*
X66850000Y-85775000D01*
X66850000Y-85275000D01*
G37*
G36*
X66850000Y-85775000D02*
G01*
X67350000Y-85775000D01*
X67350000Y-86275000D01*
X66850000Y-86275000D01*
X66850000Y-85775000D01*
G37*
G36*
X66850000Y-86775000D02*
G01*
X67350000Y-86775000D01*
X67350000Y-87275000D01*
X66850000Y-87275000D01*
X66850000Y-86775000D01*
G37*
G36*
X66850000Y-87275000D02*
G01*
X67350000Y-87275000D01*
X67350000Y-87775000D01*
X66850000Y-87775000D01*
X66850000Y-87275000D01*
G37*
G36*
X66850000Y-87775000D02*
G01*
X67350000Y-87775000D01*
X67350000Y-88275000D01*
X66850000Y-88275000D01*
X66850000Y-87775000D01*
G37*
G36*
X66850000Y-89275000D02*
G01*
X67350000Y-89275000D01*
X67350000Y-89775000D01*
X66850000Y-89775000D01*
X66850000Y-89275000D01*
G37*
G36*
X66850000Y-89775000D02*
G01*
X67350000Y-89775000D01*
X67350000Y-90275000D01*
X66850000Y-90275000D01*
X66850000Y-89775000D01*
G37*
G36*
X66850000Y-90275000D02*
G01*
X67350000Y-90275000D01*
X67350000Y-90775000D01*
X66850000Y-90775000D01*
X66850000Y-90275000D01*
G37*
G36*
X66850000Y-91275000D02*
G01*
X67350000Y-91275000D01*
X67350000Y-91775000D01*
X66850000Y-91775000D01*
X66850000Y-91275000D01*
G37*
G36*
X66850000Y-91775000D02*
G01*
X67350000Y-91775000D01*
X67350000Y-92275000D01*
X66850000Y-92275000D01*
X66850000Y-91775000D01*
G37*
G36*
X67350000Y-76275000D02*
G01*
X67850000Y-76275000D01*
X67850000Y-76775000D01*
X67350000Y-76775000D01*
X67350000Y-76275000D01*
G37*
G36*
X67350000Y-76775000D02*
G01*
X67850000Y-76775000D01*
X67850000Y-77275000D01*
X67350000Y-77275000D01*
X67350000Y-76775000D01*
G37*
G36*
X67350000Y-77775000D02*
G01*
X67850000Y-77775000D01*
X67850000Y-78275000D01*
X67350000Y-78275000D01*
X67350000Y-77775000D01*
G37*
G36*
X67350000Y-78275000D02*
G01*
X67850000Y-78275000D01*
X67850000Y-78775000D01*
X67350000Y-78775000D01*
X67350000Y-78275000D01*
G37*
G36*
X67350000Y-78775000D02*
G01*
X67850000Y-78775000D01*
X67850000Y-79275000D01*
X67350000Y-79275000D01*
X67350000Y-78775000D01*
G37*
G36*
X67350000Y-80275000D02*
G01*
X67850000Y-80275000D01*
X67850000Y-80775000D01*
X67350000Y-80775000D01*
X67350000Y-80275000D01*
G37*
G36*
X67350000Y-80775000D02*
G01*
X67850000Y-80775000D01*
X67850000Y-81275000D01*
X67350000Y-81275000D01*
X67350000Y-80775000D01*
G37*
G36*
X67350000Y-81275000D02*
G01*
X67850000Y-81275000D01*
X67850000Y-81775000D01*
X67350000Y-81775000D01*
X67350000Y-81275000D01*
G37*
G36*
X67350000Y-81775000D02*
G01*
X67850000Y-81775000D01*
X67850000Y-82275000D01*
X67350000Y-82275000D01*
X67350000Y-81775000D01*
G37*
G36*
X67350000Y-82775000D02*
G01*
X67850000Y-82775000D01*
X67850000Y-83275000D01*
X67350000Y-83275000D01*
X67350000Y-82775000D01*
G37*
G36*
X67350000Y-83275000D02*
G01*
X67850000Y-83275000D01*
X67850000Y-83775000D01*
X67350000Y-83775000D01*
X67350000Y-83275000D01*
G37*
G36*
X67350000Y-83775000D02*
G01*
X67850000Y-83775000D01*
X67850000Y-84275000D01*
X67350000Y-84275000D01*
X67350000Y-83775000D01*
G37*
G36*
X67350000Y-84275000D02*
G01*
X67850000Y-84275000D01*
X67850000Y-84775000D01*
X67350000Y-84775000D01*
X67350000Y-84275000D01*
G37*
G36*
X67350000Y-84775000D02*
G01*
X67850000Y-84775000D01*
X67850000Y-85275000D01*
X67350000Y-85275000D01*
X67350000Y-84775000D01*
G37*
G36*
X67350000Y-85775000D02*
G01*
X67850000Y-85775000D01*
X67850000Y-86275000D01*
X67350000Y-86275000D01*
X67350000Y-85775000D01*
G37*
G36*
X67350000Y-86275000D02*
G01*
X67850000Y-86275000D01*
X67850000Y-86775000D01*
X67350000Y-86775000D01*
X67350000Y-86275000D01*
G37*
G36*
X67350000Y-86775000D02*
G01*
X67850000Y-86775000D01*
X67850000Y-87275000D01*
X67350000Y-87275000D01*
X67350000Y-86775000D01*
G37*
G36*
X67350000Y-87275000D02*
G01*
X67850000Y-87275000D01*
X67850000Y-87775000D01*
X67350000Y-87775000D01*
X67350000Y-87275000D01*
G37*
G36*
X67350000Y-87775000D02*
G01*
X67850000Y-87775000D01*
X67850000Y-88275000D01*
X67350000Y-88275000D01*
X67350000Y-87775000D01*
G37*
G36*
X67350000Y-89275000D02*
G01*
X67850000Y-89275000D01*
X67850000Y-89775000D01*
X67350000Y-89775000D01*
X67350000Y-89275000D01*
G37*
G36*
X67350000Y-89775000D02*
G01*
X67850000Y-89775000D01*
X67850000Y-90275000D01*
X67350000Y-90275000D01*
X67350000Y-89775000D01*
G37*
G36*
X67350000Y-91775000D02*
G01*
X67850000Y-91775000D01*
X67850000Y-92275000D01*
X67350000Y-92275000D01*
X67350000Y-91775000D01*
G37*
G36*
X67850000Y-75775000D02*
G01*
X68350000Y-75775000D01*
X68350000Y-76275000D01*
X67850000Y-76275000D01*
X67850000Y-75775000D01*
G37*
G36*
X67850000Y-79275000D02*
G01*
X68350000Y-79275000D01*
X68350000Y-79775000D01*
X67850000Y-79775000D01*
X67850000Y-79275000D01*
G37*
G36*
X67850000Y-79775000D02*
G01*
X68350000Y-79775000D01*
X68350000Y-80275000D01*
X67850000Y-80275000D01*
X67850000Y-79775000D01*
G37*
G36*
X67850000Y-80275000D02*
G01*
X68350000Y-80275000D01*
X68350000Y-80775000D01*
X67850000Y-80775000D01*
X67850000Y-80275000D01*
G37*
G36*
X67850000Y-80775000D02*
G01*
X68350000Y-80775000D01*
X68350000Y-81275000D01*
X67850000Y-81275000D01*
X67850000Y-80775000D01*
G37*
G36*
X67850000Y-82275000D02*
G01*
X68350000Y-82275000D01*
X68350000Y-82775000D01*
X67850000Y-82775000D01*
X67850000Y-82275000D01*
G37*
G36*
X67850000Y-82775000D02*
G01*
X68350000Y-82775000D01*
X68350000Y-83275000D01*
X67850000Y-83275000D01*
X67850000Y-82775000D01*
G37*
G36*
X67850000Y-83275000D02*
G01*
X68350000Y-83275000D01*
X68350000Y-83775000D01*
X67850000Y-83775000D01*
X67850000Y-83275000D01*
G37*
G36*
X67850000Y-84275000D02*
G01*
X68350000Y-84275000D01*
X68350000Y-84775000D01*
X67850000Y-84775000D01*
X67850000Y-84275000D01*
G37*
G36*
X67850000Y-84775000D02*
G01*
X68350000Y-84775000D01*
X68350000Y-85275000D01*
X67850000Y-85275000D01*
X67850000Y-84775000D01*
G37*
G36*
X67850000Y-85775000D02*
G01*
X68350000Y-85775000D01*
X68350000Y-86275000D01*
X67850000Y-86275000D01*
X67850000Y-85775000D01*
G37*
G36*
X67850000Y-86275000D02*
G01*
X68350000Y-86275000D01*
X68350000Y-86775000D01*
X67850000Y-86775000D01*
X67850000Y-86275000D01*
G37*
G36*
X67850000Y-86775000D02*
G01*
X68350000Y-86775000D01*
X68350000Y-87275000D01*
X67850000Y-87275000D01*
X67850000Y-86775000D01*
G37*
G36*
X67850000Y-89275000D02*
G01*
X68350000Y-89275000D01*
X68350000Y-89775000D01*
X67850000Y-89775000D01*
X67850000Y-89275000D01*
G37*
G36*
X67850000Y-90775000D02*
G01*
X68350000Y-90775000D01*
X68350000Y-91275000D01*
X67850000Y-91275000D01*
X67850000Y-90775000D01*
G37*
G36*
X67850000Y-91775000D02*
G01*
X68350000Y-91775000D01*
X68350000Y-92275000D01*
X67850000Y-92275000D01*
X67850000Y-91775000D01*
G37*
G36*
X68350000Y-76775000D02*
G01*
X68850000Y-76775000D01*
X68850000Y-77275000D01*
X68350000Y-77275000D01*
X68350000Y-76775000D01*
G37*
G36*
X68350000Y-78775000D02*
G01*
X68850000Y-78775000D01*
X68850000Y-79275000D01*
X68350000Y-79275000D01*
X68350000Y-78775000D01*
G37*
G36*
X68350000Y-79275000D02*
G01*
X68850000Y-79275000D01*
X68850000Y-79775000D01*
X68350000Y-79775000D01*
X68350000Y-79275000D01*
G37*
G36*
X68350000Y-79775000D02*
G01*
X68850000Y-79775000D01*
X68850000Y-80275000D01*
X68350000Y-80275000D01*
X68350000Y-79775000D01*
G37*
G36*
X68350000Y-80775000D02*
G01*
X68850000Y-80775000D01*
X68850000Y-81275000D01*
X68350000Y-81275000D01*
X68350000Y-80775000D01*
G37*
G36*
X68350000Y-81775000D02*
G01*
X68850000Y-81775000D01*
X68850000Y-82275000D01*
X68350000Y-82275000D01*
X68350000Y-81775000D01*
G37*
G36*
X68350000Y-82275000D02*
G01*
X68850000Y-82275000D01*
X68850000Y-82775000D01*
X68350000Y-82775000D01*
X68350000Y-82275000D01*
G37*
G36*
X68350000Y-82775000D02*
G01*
X68850000Y-82775000D01*
X68850000Y-83275000D01*
X68350000Y-83275000D01*
X68350000Y-82775000D01*
G37*
G36*
X68350000Y-83275000D02*
G01*
X68850000Y-83275000D01*
X68850000Y-83775000D01*
X68350000Y-83775000D01*
X68350000Y-83275000D01*
G37*
G36*
X68350000Y-83775000D02*
G01*
X68850000Y-83775000D01*
X68850000Y-84275000D01*
X68350000Y-84275000D01*
X68350000Y-83775000D01*
G37*
G36*
X68350000Y-85275000D02*
G01*
X68850000Y-85275000D01*
X68850000Y-85775000D01*
X68350000Y-85775000D01*
X68350000Y-85275000D01*
G37*
G36*
X68350000Y-85775000D02*
G01*
X68850000Y-85775000D01*
X68850000Y-86275000D01*
X68350000Y-86275000D01*
X68350000Y-85775000D01*
G37*
G36*
X68350000Y-87275000D02*
G01*
X68850000Y-87275000D01*
X68850000Y-87775000D01*
X68350000Y-87775000D01*
X68350000Y-87275000D01*
G37*
G36*
X68350000Y-87775000D02*
G01*
X68850000Y-87775000D01*
X68850000Y-88275000D01*
X68350000Y-88275000D01*
X68350000Y-87775000D01*
G37*
G36*
X68350000Y-88275000D02*
G01*
X68850000Y-88275000D01*
X68850000Y-88775000D01*
X68350000Y-88775000D01*
X68350000Y-88275000D01*
G37*
G36*
X68350000Y-88775000D02*
G01*
X68850000Y-88775000D01*
X68850000Y-89275000D01*
X68350000Y-89275000D01*
X68350000Y-88775000D01*
G37*
G36*
X68350000Y-89275000D02*
G01*
X68850000Y-89275000D01*
X68850000Y-89775000D01*
X68350000Y-89775000D01*
X68350000Y-89275000D01*
G37*
G36*
X68350000Y-89775000D02*
G01*
X68850000Y-89775000D01*
X68850000Y-90275000D01*
X68350000Y-90275000D01*
X68350000Y-89775000D01*
G37*
G36*
X68350000Y-91275000D02*
G01*
X68850000Y-91275000D01*
X68850000Y-91775000D01*
X68350000Y-91775000D01*
X68350000Y-91275000D01*
G37*
G36*
X68350000Y-91775000D02*
G01*
X68850000Y-91775000D01*
X68850000Y-92275000D01*
X68350000Y-92275000D01*
X68350000Y-91775000D01*
G37*
G36*
X68850000Y-79775000D02*
G01*
X69350000Y-79775000D01*
X69350000Y-80275000D01*
X68850000Y-80275000D01*
X68850000Y-79775000D01*
G37*
G36*
X68850000Y-80275000D02*
G01*
X69350000Y-80275000D01*
X69350000Y-80775000D01*
X68850000Y-80775000D01*
X68850000Y-80275000D01*
G37*
G36*
X68850000Y-80775000D02*
G01*
X69350000Y-80775000D01*
X69350000Y-81275000D01*
X68850000Y-81275000D01*
X68850000Y-80775000D01*
G37*
G36*
X68850000Y-81275000D02*
G01*
X69350000Y-81275000D01*
X69350000Y-81775000D01*
X68850000Y-81775000D01*
X68850000Y-81275000D01*
G37*
G36*
X68850000Y-82275000D02*
G01*
X69350000Y-82275000D01*
X69350000Y-82775000D01*
X68850000Y-82775000D01*
X68850000Y-82275000D01*
G37*
G36*
X68850000Y-84775000D02*
G01*
X69350000Y-84775000D01*
X69350000Y-85275000D01*
X68850000Y-85275000D01*
X68850000Y-84775000D01*
G37*
G36*
X68850000Y-85275000D02*
G01*
X69350000Y-85275000D01*
X69350000Y-85775000D01*
X68850000Y-85775000D01*
X68850000Y-85275000D01*
G37*
G36*
X68850000Y-86775000D02*
G01*
X69350000Y-86775000D01*
X69350000Y-87275000D01*
X68850000Y-87275000D01*
X68850000Y-86775000D01*
G37*
G36*
X68850000Y-87275000D02*
G01*
X69350000Y-87275000D01*
X69350000Y-87775000D01*
X68850000Y-87775000D01*
X68850000Y-87275000D01*
G37*
G36*
X68850000Y-87775000D02*
G01*
X69350000Y-87775000D01*
X69350000Y-88275000D01*
X68850000Y-88275000D01*
X68850000Y-87775000D01*
G37*
G36*
X68850000Y-89775000D02*
G01*
X69350000Y-89775000D01*
X69350000Y-90275000D01*
X68850000Y-90275000D01*
X68850000Y-89775000D01*
G37*
G36*
X68850000Y-91775000D02*
G01*
X69350000Y-91775000D01*
X69350000Y-92275000D01*
X68850000Y-92275000D01*
X68850000Y-91775000D01*
G37*
G36*
X69350000Y-75775000D02*
G01*
X69850000Y-75775000D01*
X69850000Y-76275000D01*
X69350000Y-76275000D01*
X69350000Y-75775000D01*
G37*
G36*
X69350000Y-76275000D02*
G01*
X69850000Y-76275000D01*
X69850000Y-76775000D01*
X69350000Y-76775000D01*
X69350000Y-76275000D01*
G37*
G36*
X69350000Y-76775000D02*
G01*
X69850000Y-76775000D01*
X69850000Y-77275000D01*
X69350000Y-77275000D01*
X69350000Y-76775000D01*
G37*
G36*
X69350000Y-77275000D02*
G01*
X69850000Y-77275000D01*
X69850000Y-77775000D01*
X69350000Y-77775000D01*
X69350000Y-77275000D01*
G37*
G36*
X69350000Y-77775000D02*
G01*
X69850000Y-77775000D01*
X69850000Y-78275000D01*
X69350000Y-78275000D01*
X69350000Y-77775000D01*
G37*
G36*
X69350000Y-78275000D02*
G01*
X69850000Y-78275000D01*
X69850000Y-78775000D01*
X69350000Y-78775000D01*
X69350000Y-78275000D01*
G37*
G36*
X69350000Y-78775000D02*
G01*
X69850000Y-78775000D01*
X69850000Y-79275000D01*
X69350000Y-79275000D01*
X69350000Y-78775000D01*
G37*
G36*
X69350000Y-79775000D02*
G01*
X69850000Y-79775000D01*
X69850000Y-80275000D01*
X69350000Y-80275000D01*
X69350000Y-79775000D01*
G37*
G36*
X69350000Y-81275000D02*
G01*
X69850000Y-81275000D01*
X69850000Y-81775000D01*
X69350000Y-81775000D01*
X69350000Y-81275000D01*
G37*
G36*
X69350000Y-81775000D02*
G01*
X69850000Y-81775000D01*
X69850000Y-82275000D01*
X69350000Y-82275000D01*
X69350000Y-81775000D01*
G37*
G36*
X69350000Y-82775000D02*
G01*
X69850000Y-82775000D01*
X69850000Y-83275000D01*
X69350000Y-83275000D01*
X69350000Y-82775000D01*
G37*
G36*
X69350000Y-83775000D02*
G01*
X69850000Y-83775000D01*
X69850000Y-84275000D01*
X69350000Y-84275000D01*
X69350000Y-83775000D01*
G37*
G36*
X69350000Y-85775000D02*
G01*
X69850000Y-85775000D01*
X69850000Y-86275000D01*
X69350000Y-86275000D01*
X69350000Y-85775000D01*
G37*
G36*
X69350000Y-87775000D02*
G01*
X69850000Y-87775000D01*
X69850000Y-88275000D01*
X69350000Y-88275000D01*
X69350000Y-87775000D01*
G37*
G36*
X69350000Y-88775000D02*
G01*
X69850000Y-88775000D01*
X69850000Y-89275000D01*
X69350000Y-89275000D01*
X69350000Y-88775000D01*
G37*
G36*
X69350000Y-89775000D02*
G01*
X69850000Y-89775000D01*
X69850000Y-90275000D01*
X69350000Y-90275000D01*
X69350000Y-89775000D01*
G37*
G36*
X69350000Y-90275000D02*
G01*
X69850000Y-90275000D01*
X69850000Y-90775000D01*
X69350000Y-90775000D01*
X69350000Y-90275000D01*
G37*
G36*
X69350000Y-90775000D02*
G01*
X69850000Y-90775000D01*
X69850000Y-91275000D01*
X69350000Y-91275000D01*
X69350000Y-90775000D01*
G37*
G36*
X69850000Y-75775000D02*
G01*
X70350000Y-75775000D01*
X70350000Y-76275000D01*
X69850000Y-76275000D01*
X69850000Y-75775000D01*
G37*
G36*
X69850000Y-78775000D02*
G01*
X70350000Y-78775000D01*
X70350000Y-79275000D01*
X69850000Y-79275000D01*
X69850000Y-78775000D01*
G37*
G36*
X69850000Y-79775000D02*
G01*
X70350000Y-79775000D01*
X70350000Y-80275000D01*
X69850000Y-80275000D01*
X69850000Y-79775000D01*
G37*
G36*
X69850000Y-80275000D02*
G01*
X70350000Y-80275000D01*
X70350000Y-80775000D01*
X69850000Y-80775000D01*
X69850000Y-80275000D01*
G37*
G36*
X69850000Y-80775000D02*
G01*
X70350000Y-80775000D01*
X70350000Y-81275000D01*
X69850000Y-81275000D01*
X69850000Y-80775000D01*
G37*
G36*
X69850000Y-81775000D02*
G01*
X70350000Y-81775000D01*
X70350000Y-82275000D01*
X69850000Y-82275000D01*
X69850000Y-81775000D01*
G37*
G36*
X69850000Y-82275000D02*
G01*
X70350000Y-82275000D01*
X70350000Y-82775000D01*
X69850000Y-82775000D01*
X69850000Y-82275000D01*
G37*
G36*
X69850000Y-83275000D02*
G01*
X70350000Y-83275000D01*
X70350000Y-83775000D01*
X69850000Y-83775000D01*
X69850000Y-83275000D01*
G37*
G36*
X69850000Y-83775000D02*
G01*
X70350000Y-83775000D01*
X70350000Y-84275000D01*
X69850000Y-84275000D01*
X69850000Y-83775000D01*
G37*
G36*
X69850000Y-84275000D02*
G01*
X70350000Y-84275000D01*
X70350000Y-84775000D01*
X69850000Y-84775000D01*
X69850000Y-84275000D01*
G37*
G36*
X69850000Y-85275000D02*
G01*
X70350000Y-85275000D01*
X70350000Y-85775000D01*
X69850000Y-85775000D01*
X69850000Y-85275000D01*
G37*
G36*
X69850000Y-85775000D02*
G01*
X70350000Y-85775000D01*
X70350000Y-86275000D01*
X69850000Y-86275000D01*
X69850000Y-85775000D01*
G37*
G36*
X69850000Y-86275000D02*
G01*
X70350000Y-86275000D01*
X70350000Y-86775000D01*
X69850000Y-86775000D01*
X69850000Y-86275000D01*
G37*
G36*
X69850000Y-87775000D02*
G01*
X70350000Y-87775000D01*
X70350000Y-88275000D01*
X69850000Y-88275000D01*
X69850000Y-87775000D01*
G37*
G36*
X69850000Y-89775000D02*
G01*
X70350000Y-89775000D01*
X70350000Y-90275000D01*
X69850000Y-90275000D01*
X69850000Y-89775000D01*
G37*
G36*
X69850000Y-91775000D02*
G01*
X70350000Y-91775000D01*
X70350000Y-92275000D01*
X69850000Y-92275000D01*
X69850000Y-91775000D01*
G37*
G36*
X70350000Y-75775000D02*
G01*
X70850000Y-75775000D01*
X70850000Y-76275000D01*
X70350000Y-76275000D01*
X70350000Y-75775000D01*
G37*
G36*
X70350000Y-76775000D02*
G01*
X70850000Y-76775000D01*
X70850000Y-77275000D01*
X70350000Y-77275000D01*
X70350000Y-76775000D01*
G37*
G36*
X70350000Y-77275000D02*
G01*
X70850000Y-77275000D01*
X70850000Y-77775000D01*
X70350000Y-77775000D01*
X70350000Y-77275000D01*
G37*
G36*
X70350000Y-77775000D02*
G01*
X70850000Y-77775000D01*
X70850000Y-78275000D01*
X70350000Y-78275000D01*
X70350000Y-77775000D01*
G37*
G36*
X70350000Y-78775000D02*
G01*
X70850000Y-78775000D01*
X70850000Y-79275000D01*
X70350000Y-79275000D01*
X70350000Y-78775000D01*
G37*
G36*
X70350000Y-79775000D02*
G01*
X70850000Y-79775000D01*
X70850000Y-80275000D01*
X70350000Y-80275000D01*
X70350000Y-79775000D01*
G37*
G36*
X70350000Y-80775000D02*
G01*
X70850000Y-80775000D01*
X70850000Y-81275000D01*
X70350000Y-81275000D01*
X70350000Y-80775000D01*
G37*
G36*
X70350000Y-81275000D02*
G01*
X70850000Y-81275000D01*
X70850000Y-81775000D01*
X70350000Y-81775000D01*
X70350000Y-81275000D01*
G37*
G36*
X70350000Y-81775000D02*
G01*
X70850000Y-81775000D01*
X70850000Y-82275000D01*
X70350000Y-82275000D01*
X70350000Y-81775000D01*
G37*
G36*
X70350000Y-83275000D02*
G01*
X70850000Y-83275000D01*
X70850000Y-83775000D01*
X70350000Y-83775000D01*
X70350000Y-83275000D01*
G37*
G36*
X70350000Y-83775000D02*
G01*
X70850000Y-83775000D01*
X70850000Y-84275000D01*
X70350000Y-84275000D01*
X70350000Y-83775000D01*
G37*
G36*
X70350000Y-84775000D02*
G01*
X70850000Y-84775000D01*
X70850000Y-85275000D01*
X70350000Y-85275000D01*
X70350000Y-84775000D01*
G37*
G36*
X70350000Y-86775000D02*
G01*
X70850000Y-86775000D01*
X70850000Y-87275000D01*
X70350000Y-87275000D01*
X70350000Y-86775000D01*
G37*
G36*
X70350000Y-87775000D02*
G01*
X70850000Y-87775000D01*
X70850000Y-88275000D01*
X70350000Y-88275000D01*
X70350000Y-87775000D01*
G37*
G36*
X70350000Y-88275000D02*
G01*
X70850000Y-88275000D01*
X70850000Y-88775000D01*
X70350000Y-88775000D01*
X70350000Y-88275000D01*
G37*
G36*
X70350000Y-88775000D02*
G01*
X70850000Y-88775000D01*
X70850000Y-89275000D01*
X70350000Y-89275000D01*
X70350000Y-88775000D01*
G37*
G36*
X70350000Y-89275000D02*
G01*
X70850000Y-89275000D01*
X70850000Y-89775000D01*
X70350000Y-89775000D01*
X70350000Y-89275000D01*
G37*
G36*
X70350000Y-89775000D02*
G01*
X70850000Y-89775000D01*
X70850000Y-90275000D01*
X70350000Y-90275000D01*
X70350000Y-89775000D01*
G37*
G36*
X70350000Y-90275000D02*
G01*
X70850000Y-90275000D01*
X70850000Y-90775000D01*
X70350000Y-90775000D01*
X70350000Y-90275000D01*
G37*
G36*
X70350000Y-90775000D02*
G01*
X70850000Y-90775000D01*
X70850000Y-91275000D01*
X70350000Y-91275000D01*
X70350000Y-90775000D01*
G37*
G36*
X70850000Y-75775000D02*
G01*
X71350000Y-75775000D01*
X71350000Y-76275000D01*
X70850000Y-76275000D01*
X70850000Y-75775000D01*
G37*
G36*
X70850000Y-76775000D02*
G01*
X71350000Y-76775000D01*
X71350000Y-77275000D01*
X70850000Y-77275000D01*
X70850000Y-76775000D01*
G37*
G36*
X70850000Y-77275000D02*
G01*
X71350000Y-77275000D01*
X71350000Y-77775000D01*
X70850000Y-77775000D01*
X70850000Y-77275000D01*
G37*
G36*
X70850000Y-77775000D02*
G01*
X71350000Y-77775000D01*
X71350000Y-78275000D01*
X70850000Y-78275000D01*
X70850000Y-77775000D01*
G37*
G36*
X70850000Y-78775000D02*
G01*
X71350000Y-78775000D01*
X71350000Y-79275000D01*
X70850000Y-79275000D01*
X70850000Y-78775000D01*
G37*
G36*
X70850000Y-79775000D02*
G01*
X71350000Y-79775000D01*
X71350000Y-80275000D01*
X70850000Y-80275000D01*
X70850000Y-79775000D01*
G37*
G36*
X70850000Y-81775000D02*
G01*
X71350000Y-81775000D01*
X71350000Y-82275000D01*
X70850000Y-82275000D01*
X70850000Y-81775000D01*
G37*
G36*
X70850000Y-84275000D02*
G01*
X71350000Y-84275000D01*
X71350000Y-84775000D01*
X70850000Y-84775000D01*
X70850000Y-84275000D01*
G37*
G36*
X70850000Y-84775000D02*
G01*
X71350000Y-84775000D01*
X71350000Y-85275000D01*
X70850000Y-85275000D01*
X70850000Y-84775000D01*
G37*
G36*
X70850000Y-88775000D02*
G01*
X71350000Y-88775000D01*
X71350000Y-89275000D01*
X70850000Y-89275000D01*
X70850000Y-88775000D01*
G37*
G36*
X70850000Y-90275000D02*
G01*
X71350000Y-90275000D01*
X71350000Y-90775000D01*
X70850000Y-90775000D01*
X70850000Y-90275000D01*
G37*
G36*
X70850000Y-90775000D02*
G01*
X71350000Y-90775000D01*
X71350000Y-91275000D01*
X70850000Y-91275000D01*
X70850000Y-90775000D01*
G37*
G36*
X70850000Y-91275000D02*
G01*
X71350000Y-91275000D01*
X71350000Y-91775000D01*
X70850000Y-91775000D01*
X70850000Y-91275000D01*
G37*
G36*
X71350000Y-75775000D02*
G01*
X71850000Y-75775000D01*
X71850000Y-76275000D01*
X71350000Y-76275000D01*
X71350000Y-75775000D01*
G37*
G36*
X71350000Y-76775000D02*
G01*
X71850000Y-76775000D01*
X71850000Y-77275000D01*
X71350000Y-77275000D01*
X71350000Y-76775000D01*
G37*
G36*
X71350000Y-77275000D02*
G01*
X71850000Y-77275000D01*
X71850000Y-77775000D01*
X71350000Y-77775000D01*
X71350000Y-77275000D01*
G37*
G36*
X71350000Y-77775000D02*
G01*
X71850000Y-77775000D01*
X71850000Y-78275000D01*
X71350000Y-78275000D01*
X71350000Y-77775000D01*
G37*
G36*
X71350000Y-78775000D02*
G01*
X71850000Y-78775000D01*
X71850000Y-79275000D01*
X71350000Y-79275000D01*
X71350000Y-78775000D01*
G37*
G36*
X71350000Y-84275000D02*
G01*
X71850000Y-84275000D01*
X71850000Y-84775000D01*
X71350000Y-84775000D01*
X71350000Y-84275000D01*
G37*
G36*
X71350000Y-85775000D02*
G01*
X71850000Y-85775000D01*
X71850000Y-86275000D01*
X71350000Y-86275000D01*
X71350000Y-85775000D01*
G37*
G36*
X71350000Y-86275000D02*
G01*
X71850000Y-86275000D01*
X71850000Y-86775000D01*
X71350000Y-86775000D01*
X71350000Y-86275000D01*
G37*
G36*
X71350000Y-88275000D02*
G01*
X71850000Y-88275000D01*
X71850000Y-88775000D01*
X71350000Y-88775000D01*
X71350000Y-88275000D01*
G37*
G36*
X71850000Y-75775000D02*
G01*
X72350000Y-75775000D01*
X72350000Y-76275000D01*
X71850000Y-76275000D01*
X71850000Y-75775000D01*
G37*
G36*
X71850000Y-78775000D02*
G01*
X72350000Y-78775000D01*
X72350000Y-79275000D01*
X71850000Y-79275000D01*
X71850000Y-78775000D01*
G37*
G36*
X71850000Y-80275000D02*
G01*
X72350000Y-80275000D01*
X72350000Y-80775000D01*
X71850000Y-80775000D01*
X71850000Y-80275000D01*
G37*
G36*
X71850000Y-80775000D02*
G01*
X72350000Y-80775000D01*
X72350000Y-81275000D01*
X71850000Y-81275000D01*
X71850000Y-80775000D01*
G37*
G36*
X71850000Y-82275000D02*
G01*
X72350000Y-82275000D01*
X72350000Y-82775000D01*
X71850000Y-82775000D01*
X71850000Y-82275000D01*
G37*
G36*
X71850000Y-82775000D02*
G01*
X72350000Y-82775000D01*
X72350000Y-83275000D01*
X71850000Y-83275000D01*
X71850000Y-82775000D01*
G37*
G36*
X71850000Y-83275000D02*
G01*
X72350000Y-83275000D01*
X72350000Y-83775000D01*
X71850000Y-83775000D01*
X71850000Y-83275000D01*
G37*
G36*
X71850000Y-84775000D02*
G01*
X72350000Y-84775000D01*
X72350000Y-85275000D01*
X71850000Y-85275000D01*
X71850000Y-84775000D01*
G37*
G36*
X71850000Y-86275000D02*
G01*
X72350000Y-86275000D01*
X72350000Y-86775000D01*
X71850000Y-86775000D01*
X71850000Y-86275000D01*
G37*
G36*
X71850000Y-86775000D02*
G01*
X72350000Y-86775000D01*
X72350000Y-87275000D01*
X71850000Y-87275000D01*
X71850000Y-86775000D01*
G37*
G36*
X71850000Y-87275000D02*
G01*
X72350000Y-87275000D01*
X72350000Y-87775000D01*
X71850000Y-87775000D01*
X71850000Y-87275000D01*
G37*
G36*
X71850000Y-88275000D02*
G01*
X72350000Y-88275000D01*
X72350000Y-88775000D01*
X71850000Y-88775000D01*
X71850000Y-88275000D01*
G37*
G36*
X71850000Y-88775000D02*
G01*
X72350000Y-88775000D01*
X72350000Y-89275000D01*
X71850000Y-89275000D01*
X71850000Y-88775000D01*
G37*
G36*
X71850000Y-89275000D02*
G01*
X72350000Y-89275000D01*
X72350000Y-89775000D01*
X71850000Y-89775000D01*
X71850000Y-89275000D01*
G37*
G36*
X72350000Y-75775000D02*
G01*
X72850000Y-75775000D01*
X72850000Y-76275000D01*
X72350000Y-76275000D01*
X72350000Y-75775000D01*
G37*
G36*
X72350000Y-76275000D02*
G01*
X72850000Y-76275000D01*
X72850000Y-76775000D01*
X72350000Y-76775000D01*
X72350000Y-76275000D01*
G37*
G36*
X72350000Y-76775000D02*
G01*
X72850000Y-76775000D01*
X72850000Y-77275000D01*
X72350000Y-77275000D01*
X72350000Y-76775000D01*
G37*
G36*
X72350000Y-77275000D02*
G01*
X72850000Y-77275000D01*
X72850000Y-77775000D01*
X72350000Y-77775000D01*
X72350000Y-77275000D01*
G37*
G36*
X72350000Y-77775000D02*
G01*
X72850000Y-77775000D01*
X72850000Y-78275000D01*
X72350000Y-78275000D01*
X72350000Y-77775000D01*
G37*
G36*
X72350000Y-78275000D02*
G01*
X72850000Y-78275000D01*
X72850000Y-78775000D01*
X72350000Y-78775000D01*
X72350000Y-78275000D01*
G37*
G36*
X72350000Y-78775000D02*
G01*
X72850000Y-78775000D01*
X72850000Y-79275000D01*
X72350000Y-79275000D01*
X72350000Y-78775000D01*
G37*
G36*
X72350000Y-79775000D02*
G01*
X72850000Y-79775000D01*
X72850000Y-80275000D01*
X72350000Y-80275000D01*
X72350000Y-79775000D01*
G37*
G36*
X72350000Y-81775000D02*
G01*
X72850000Y-81775000D01*
X72850000Y-82275000D01*
X72350000Y-82275000D01*
X72350000Y-81775000D01*
G37*
G36*
X72350000Y-83275000D02*
G01*
X72850000Y-83275000D01*
X72850000Y-83775000D01*
X72350000Y-83775000D01*
X72350000Y-83275000D01*
G37*
G36*
X72350000Y-83775000D02*
G01*
X72850000Y-83775000D01*
X72850000Y-84275000D01*
X72350000Y-84275000D01*
X72350000Y-83775000D01*
G37*
G36*
X72350000Y-85275000D02*
G01*
X72850000Y-85275000D01*
X72850000Y-85775000D01*
X72350000Y-85775000D01*
X72350000Y-85275000D01*
G37*
G36*
X72350000Y-87775000D02*
G01*
X72850000Y-87775000D01*
X72850000Y-88275000D01*
X72350000Y-88275000D01*
X72350000Y-87775000D01*
G37*
G36*
X72350000Y-89775000D02*
G01*
X72850000Y-89775000D01*
X72850000Y-90275000D01*
X72350000Y-90275000D01*
X72350000Y-89775000D01*
G37*
G36*
X72350000Y-91775000D02*
G01*
X72850000Y-91775000D01*
X72850000Y-92275000D01*
X72350000Y-92275000D01*
X72350000Y-91775000D01*
G37*
%TD*%
M02*
