M48
; DRILL file KiCad 10.0.4 date 2026-07-25T01:45:00
; FORMAT={-:-/ absolute / metric / decimal}
; #@! TF.CreationDate,2026-07-25T01:45:00+09:00
; #@! TF.GenerationSoftware,Kicad,Pcbnew,10.0.4
; #@! TF.FileFunction,Plated,1,4,PTH
FMAT,2
METRIC
; #@! TA.AperFunction,Plated,PTH,ViaDrill
T1C0.300
; #@! TA.AperFunction,Plated,PTH,ViaDrill
T2C0.350
%
G90
G05
T1
X60.425Y-71.425
X60.775Y-92.3
X61.1Y-88.1
X61.175Y-90.45
X61.45Y-72.45
X61.9Y-76.975
X61.925Y-80.8
X61.95Y-74.1
X61.975Y-66.35
X62.0Y-79.775
X62.025Y-63.825
X62.025Y-65.1
X62.4Y-81.6
X63.0Y-93.1
X63.475Y-74.075
X63.525Y-91.85
X63.537Y-69.137
X64.062Y-71.487
X64.528Y-68.145
X64.75Y-86.65
X65.037Y-82.263
X65.05Y-81.05
X65.25Y-72.147
X65.432Y-75.406
X65.501Y-89.3
X66.0Y-62.3
X66.275Y-77.563
X66.875Y-78.325
X67.0Y-66.225
X68.162Y-80.325
X69.5Y-66.125
X69.75Y-89.3
X69.818Y-81.132
X70.175Y-86.3
X70.375Y-90.575
X70.4Y-69.075
X71.05Y-77.95
X71.223Y-81.648
X71.425Y-86.2
X71.838Y-81.137
X72.3Y-67.3
X72.475Y-80.0
X72.513Y-78.812
X72.7Y-68.4
X72.75Y-72.775
X72.9Y-94.1
X73.05Y-87.425
X73.1Y-88.4
X73.175Y-69.5
X74.625Y-68.3
X75.475Y-82.7
X75.739Y-70.639
X76.125Y-66.75
X76.6Y-69.8
X77.0Y-85.925
X77.725Y-69.85
X77.85Y-79.425
X78.125Y-82.65
X78.35Y-80.9
X79.025Y-74.675
X80.15Y-69.05
X80.15Y-89.075
X80.675Y-88.35
X81.05Y-66.25
X81.65Y-68.45
X81.775Y-75.85
X81.775Y-77.4
X81.854Y-79.195
X83.025Y-75.125
X83.4Y-65.9
X83.4Y-67.175
X83.9Y-61.7
X84.575Y-71.05
X84.875Y-68.9
X84.925Y-77.8
X85.3Y-82.625
X86.475Y-86.975
X86.7Y-68.525
X87.7Y-86.1
X87.925Y-74.7
X87.975Y-75.5
X88.575Y-69.35
X89.45Y-69.85
X89.475Y-82.7
X89.65Y-61.175
X91.525Y-63.975
X92.075Y-65.675
X92.85Y-82.775
X92.86Y-70.94
X93.25Y-62.0
X93.25Y-91.175
X93.275Y-89.9
X93.35Y-88.65
X93.675Y-66.625
X94.25Y-62.625
X95.4Y-82.8
X95.425Y-70.975
X97.95Y-82.85
X97.962Y-71.037
T2
X83.8Y-80.075
X89.0Y-80.075
M30
